<svg xmlns="http://www.w3.org/2000/svg" viewBox="0 0 595.28 595.28"><defs><style>.cls-1{fill:#fff;}.cls-2{fill:#3d4a5a;}</style></defs><title>24hours</title><g id="Слой_2" data-name="Слой 2"><g id="Слой_1-2" data-name="Слой 1"><g id="Слой_2-2" data-name="Слой 2"><rect class="cls-1" x="11.14" y="334.14" width="148" height="98"/><rect class="cls-1" x="224.14" y="334.14" width="150.31" height="98"/><rect class="cls-1" x="434.14" y="334.14" width="148" height="98"/><path class="cls-1" d="M374.45,555.21a27,27,0,0,1-27,27H251.17a27,27,0,0,1-27-27h0a27,27,0,0,1,27-27h96.25a27,27,0,0,1,27,27Z"/><polygon class="cls-1" points="297.64 280.14 351.14 247.8 308.14 226.14 240.03 247.14 297.64 280.14"/><rect class="cls-1" x="85.14" y="253.14" width="423" height="179"/><rect class="cls-1" x="288.04" y="432.14" width="220.1" height="53"/></g><g id="Layer_1" data-name="Layer 1"><path class="cls-2" d="M595.28,326.44H518.47V240.1l-151.68-1-59.55-24.67v-32H288v32l-59.55,24.67-151.68,1v86.35H0V441.66H172.82V326.44H96V259.17l132.42-.88,59.6,26.4v41.76H211.23V441.66H384V326.44H307.24V284.69l59.61-26.4,132.42.88v67.28H422.45V441.66h76.81v28.8H288v48h-38.4a38.41,38.41,0,1,0,0,76.81h96a38.41,38.41,0,0,0,0-76.81H307.24v-28.8H518.47v-48h76.81V326.44Zm-441.66,96H19.2V345.65H153.62Zm211.23,0H230.43V345.65H364.84ZM297.64,267.93l-42.83-19,42.83-17.73L340.47,249Zm67.21,288.94a19.22,19.22,0,0,1-19.2,19.2h-96a19.2,19.2,0,0,1,0-38.41h96A19.22,19.22,0,0,1,364.84,556.87ZM576.07,422.46H441.66V345.65H576.07Z"/><path class="cls-2" d="M345.65,192h-96v-55.3a76.81,76.81,0,1,1,96,0V192Z"/><path class="cls-2" d="M355.25,144h-48V103.85a28.8,28.8,0,1,0-19.2,0V144H240v19.2H355.24V144ZM297.64,67.21a9.6,9.6,0,1,1-9.6,9.6A9.62,9.62,0,0,1,297.64,67.21Z"/><rect class="cls-2" x="144.02" y="67.21" width="48.01" height="19.2"/><rect class="cls-2" x="153.88" y="116.82" width="48" height="19.2" transform="translate(-34.84 77.72) rotate(-22.51)"/><rect class="cls-2" x="407.81" y="102.41" width="19.2" height="48.01" transform="translate(140.91 463.7) rotate(-67.5)"/><rect class="cls-2" x="403.25" y="67.21" width="48.01" height="19.2"/><rect class="cls-2" x="393.39" y="17.61" width="48" height="19.2" transform="translate(21.38 161.85) rotate(-22.51)"/><rect class="cls-2" x="168.28" y="3.2" width="19.2" height="48.01" transform="translate(84.68 181.14) rotate(-67.5)"/></g></g></g></svg>