<?xml version="1.0" encoding="utf-8"?>
<!-- Generator: Adobe Illustrator 21.0.0, SVG Export Plug-In . SVG Version: 6.00 Build 0)  -->
<svg version="1.1" id="Слой_1" xmlns="http://www.w3.org/2000/svg" xmlns:xlink="http://www.w3.org/1999/xlink" x="0px" y="0px"
	 viewBox="0 0 566.9 566.9" style="enable-background:new 0 0 566.9 566.9;" xml:space="preserve">
<style type="text/css">
	.st0{fill:#334B61;}
</style>
<path id="Слой_2" class="st0" d="M566.9,310.9h-73.1v-82.2l-144.5-1l-56.7-23.5v-30.5h-18.3v30.5l-56.7,23.5l-144.5,1v82.2H0
	v109.7h164.6V310.9H91.4v-64.1l126.1-0.8l56.8,25.1v39.8h-73.2v109.7h164.6V310.9h-73.2v-39.8l56.8-25.1l126.1,0.8v64.1h-73.1v109.7
	h73.1v27.4H274.3v45.7h-36.6c-20.2,0.3-36.3,17-36,37.2c0.3,19.7,16.2,35.6,36,36h91.4c20.2-0.3,36.3-17,36-37.2
	c-0.3-19.7-16.2-35.6-36-36h-36.6v-27.4h201.2v-45.7h73.1V310.9z M146.3,402.3h-128v-73.1h128V402.3z M347.5,402.3h-128v-73.1h128
	V402.3z M283.5,255.2l-40.8-18.1l40.8-16.9l40.8,16.9L283.5,255.2z M347.5,530.3c0,10.1-8.2,18.3-18.3,18.3h-91.4
	c-10.1,0-18.3-8.2-18.3-18.3c0-10.1,8.2-18.3,18.3-18.3h91.4C339.3,512.1,347.5,520.3,347.5,530.3z M548.6,402.4h-128v-73.2h128
	V402.4z M329.2,182.9h-91.4v-52.7c-31.5-25.3-36.6-71.3-11.4-102.8S297.6-9.2,329.2,16s36.6,71.3,11.4,102.8
	c-3.4,4.2-7.2,8-11.4,11.4V182.9z M137.2,64h45.7v18.3h-45.7V64z M144.8,120.7l42.2-17.5l7,16.9l-42.2,17.5L144.8,120.7z
	 M372.9,120.1l7-16.9l42.2,17.5l-7,16.9L372.9,120.1z M384,64h45.7v18.3H384V64z M372.9,26.2l42.2-17.5l7,16.9l-42.2,17.5
	L372.9,26.2z M144.8,25.6l7-16.9L194,26.2l-7,16.9L144.8,25.6z"/>
</svg>
