<svg xmlns="http://www.w3.org/2000/svg" viewBox="0 0 566.93 566.93"><defs><style>.cls-1{fill:#334b61;}</style></defs><title>24hours</title><g id="Слой_2" data-name="Слой 2"><g id="Layer_1" data-name="Layer 1"><path class="cls-1" d="M566.93,310.9H493.78V228.66l-144.46-1L292.61,204.2V173.74H274.32V204.2l-56.71,23.49-144.46,1V310.9H0V420.62H164.59V310.9H91.44V246.82L217.55,246l56.77,25.15V310.9H201.17V420.63H365.76V310.9H292.61V271.13L349.37,246l126.11.84v64.07H402.34V420.62h73.15v27.43H274.32v45.72H237.74a36.58,36.58,0,0,0,0,73.15h91.44a36.58,36.58,0,0,0,0-73.15H292.61V466.34H493.78V420.62h73.15V310.9ZM146.3,402.33h-128V329.18h128Zm201.17,0h-128V329.18h128Zm-64-147.16L242.67,237.1l40.79-16.89,40.79,16.9Zm64,275.18a18.31,18.31,0,0,1-18.29,18.29H237.74a18.29,18.29,0,0,1,0-36.58h91.44A18.31,18.31,0,0,1,347.47,530.35Zm201.17-128h-128V329.18h128Z"/><path class="cls-1" d="M329.18,182.88H237.74V130.21a73.15,73.15,0,1,1,91.44,0v52.67Z"/><path class="cls-1" d="M338.33,137.16H292.6V98.9a27.43,27.43,0,1,0-18.29,0v38.26H228.59v18.29H338.32V137.16ZM283.46,64a9.14,9.14,0,1,1-9.14,9.15A9.16,9.16,0,0,1,283.46,64Z"/><rect class="cls-1" x="137.16" y="64.01" width="45.72" height="18.29"/><rect class="cls-1" x="146.56" y="111.25" width="45.71" height="18.29" transform="translate(-33.18 74.02) rotate(-22.51)"/><rect class="cls-1" x="388.34" y="97.52" width="18.29" height="45.73" transform="translate(134.15 441.54) rotate(-67.5)"/><rect class="cls-1" x="384.05" y="64.01" width="45.72" height="18.29"/><rect class="cls-1" x="374.65" y="16.77" width="45.72" height="18.29" transform="translate(20.36 154.15) rotate(-22.51)"/><rect class="cls-1" x="160.27" y="3.05" width="18.29" height="45.73" transform="translate(80.64 172.52) rotate(-67.5)"/></g></g></svg>