<?xml version="1.0" encoding="utf-8"?>
<!-- Generator: Adobe Illustrator 21.0.0, SVG Export Plug-In . SVG Version: 6.00 Build 0)  -->
<svg version="1.1" id="Слой_1" xmlns="http://www.w3.org/2000/svg" xmlns:xlink="http://www.w3.org/1999/xlink" x="0px" y="0px"
	 viewBox="0 0 398.7 512" style="enable-background:new 0 0 398.7 512;" xml:space="preserve">
<style type="text/css">
	.st0{fill:#334B61;}
</style>
<g id="Слой_2">
	<g id="Layer_1">
		<path class="st0" d="M61.5,414.5c26.6,0,48.2-21.6,48.2-48.2c0-26.6-21.6-48.2-48.2-48.2s-48.2,21.6-48.2,48.2
			C13.4,392.9,34.9,414.4,61.5,414.5z M61.5,333.9c17.9,0,32.3,14.5,32.3,32.3c0,17.9-14.5,32.3-32.3,32.3s-32.3-14.5-32.3-32.3l0,0
			C29.2,348.4,43.7,333.9,61.5,333.9L61.5,333.9z"/>
		<path class="st0" d="M59.4,416.5C26.6,416.5,0,443.1,0,475.9V504c0,4.4,3.6,8,8,8h102.3c4.3,0,7.8-3.5,7.9-7.8l0.6-28.2
			c0-0.1,0-0.1,0-0.2C118.8,443.1,92.2,416.5,59.4,416.5z M102.5,496.1H15.9v-20.2c0-24.1,19.5-43.6,43.5-43.6
			c24.1,0,43.6,19.5,43.6,43.5l0,0L102.5,496.1z"/>
		<path class="st0" d="M337.2,318c-26.6,0-48.2,21.6-48.2,48.2c0,26.6,21.6,48.2,48.2,48.2s48.2-21.6,48.2-48.2
			C385.4,339.6,363.8,318,337.2,318z M337.2,398.6c-17.9,0-32.3-14.5-32.3-32.3s14.5-32.3,32.3-32.3s32.3,14.5,32.3,32.3
			C369.5,384.1,355,398.6,337.2,398.6L337.2,398.6z"/>
		<path class="st0" d="M339.3,416.5c-32.8,0-59.4,26.6-59.4,59.4c0,0.1,0,0.1,0,0.2l0.6,28.2c0.1,4.3,3.6,7.8,7.9,7.8h102.4
			c4.4,0,8-3.6,8-8v-28.1C398.7,443.1,372.1,416.5,339.3,416.5z M382.8,496.1h-86.6l-0.4-20.3c0-24,19.5-43.5,43.6-43.5
			c24,0,43.5,19.5,43.5,43.6V496.1z"/>
		<path class="st0" d="M152.6,366.2c0,26.6,21.6,48.2,48.2,48.2s48.2-21.6,48.2-48.2c0-26.6-21.6-48.2-48.2-48.2
			C174.3,318,152.7,339.6,152.6,366.2z M233.2,366.2c0,17.9-14.5,32.3-32.3,32.3s-32.3-14.5-32.3-32.3c0-17.9,14.5-32.3,32.3-32.3
			C218.7,333.9,233.2,348.4,233.2,366.2L233.2,366.2z"/>
		<path class="st0" d="M198.8,416.5c-32.8,0-59.4,26.6-59.4,59.4V504c0,4.4,3.6,8,8,8h102.3c4.3,0,7.8-3.5,7.9-7.8l0.6-28.2
			c0-0.1,0-0.1,0-0.2C258.2,443.1,231.6,416.5,198.8,416.5z M241.9,496.1h-86.6v-20.2c0-24,19.5-43.6,43.5-43.6
			c24,0,43.6,19.5,43.6,43.5L241.9,496.1z"/>
		<path class="st0" d="M242,78.3c0.8,2.3,1.4,4.8,1.8,7.2c1.1,4.3,5.4,6.9,9.7,5.8c3.8-0.9,6.3-4.5,6-8.4c-0.5-3.3-1.3-6.6-2.4-9.8
			c-1.7-4.1-6.5-5.9-10.5-4.2C243,70.6,241.1,74.5,242,78.3z"/>
		<path class="st0" d="M199.4,47.7c13.4,0,26.1,5.9,34.6,16.2c3.2,3.1,8.3,3,11.3-0.2c2.6-2.7,3-6.8,0.9-10
			c-11.6-13.9-28.7-21.9-46.8-21.9c-4.4,0.5-7.6,4.5-7.1,8.8C192.8,44.4,195.7,47.3,199.4,47.7L199.4,47.7z"/>
		<path class="st0" d="M157.7,175.6c-0.2,0.6-0.2,1.3-0.3,1.9v59.4c0,4.4,3.6,8,8,8h26v22.3h-132c-4.4,0-8,3.6-8,8v21.2
			c0.5,4.4,4.5,7.6,8.8,7.1c3.7-0.4,6.6-3.3,7.1-7.1V283h124v13.3c0.5,4.4,4.5,7.6,8.8,7.1c3.7-0.4,6.6-3.3,7.1-7.1V283h115.6v13.3
			c0.5,4.4,4.5,7.6,8.8,7.1c3.7-0.4,6.6-3.3,7.1-7.1v-21.2c0-4.4-3.6-8-8-8H207.3v-22.2h26c4.4,0,8-3.6,8-8v-59.3
			c0-0.7-0.1-1.3-0.3-1.9c45.8-23,64.2-78.7,41.3-124.5c-23-45.8-78.7-64.2-124.5-41.3s-64.2,78.7-41.3,124.5
			C125.5,152.2,140,166.7,157.7,175.6L157.7,175.6z M186.1,109.2h26.5v59.3c-8.8,1.6-17.7,1.6-26.5,0V109.2z M199.4,229h-26v-13.8
			h51.9V229H199.4z M225.4,185.5v13.8h-52v-13.8L225.4,185.5L225.4,185.5z M199.4,15.9c42.4,0,76.9,34.4,76.9,76.8
			c0,31.2-18.8,59.3-47.7,71.1v-54.7h9c4.4,0.5,8.3-2.7,8.8-7.1c0.5-4.4-2.7-8.3-7.1-8.8c-0.6-0.1-1.2-0.1-1.8,0h-9v-4.8
			c0.5-4.4-2.7-8.3-7.1-8.8c-4.4-0.5-8.3,2.7-8.8,7.1c-0.1,0.6-0.1,1.2,0,1.8v4.8h-26.5v-4.8c0.5-4.4-2.7-8.3-7.1-8.8
			c-4.4-0.5-8.3,2.7-8.8,7.1c-0.1,0.6-0.1,1.2,0,1.8v4.8h-9c-4.4-0.5-8.3,2.7-8.8,7.1c-0.5,4.4,2.7,8.3,7.1,8.8
			c0.6,0.1,1.2,0.1,1.8,0h9v54.7c-39.3-16.1-58.1-61-42-100.2C140.1,34.7,168.2,15.9,199.4,15.9L199.4,15.9z"/>
		<path class="st0" d="M38.4,75.3h33c4.4,0.5,8.3-2.7,8.8-7.1c0.5-4.4-2.7-8.3-7.1-8.8c-0.6-0.1-1.2-0.1-1.8,0h-33
			c-4.4,0.5-7.6,4.5-7.1,8.8C31.8,72,34.7,74.9,38.4,75.3z"/>
		<path class="st0" d="M75,88.8l-21,21c-2.8,3.4-2.2,8.5,1.2,11.2c2.9,2.3,7.1,2.3,10,0l21-21c3.5-2.8,4-7.8,1.2-11.2
			s-7.8-4-11.2-1.2C75.8,87.9,75.4,88.3,75,88.8z"/>
		<path class="st0" d="M74.8,46c2.7,3.5,7.7,4.1,11.2,1.4c3.5-2.7,4.1-7.7,1.4-11.2c-0.4-0.5-0.9-1-1.4-1.4l-21-21
			c-3.5-2.7-8.5-2-11.2,1.5c-2.2,2.9-2.2,6.9,0,9.8L74.8,46z"/>
		<path class="st0" d="M327.9,67.4c0,4.4,3.6,8,8,8h33c4.4,0.5,8.3-2.7,8.8-7.1c0.5-4.4-2.7-8.3-7.1-8.8c-0.6-0.1-1.2-0.1-1.8,0h-33
			C331.5,59.5,327.9,63,327.9,67.4z"/>
		<path class="st0" d="M342,121c2.7,3.5,7.8,4,11.2,1.3c3.5-2.7,4-7.8,1.3-11.2c-0.4-0.5-0.8-0.9-1.3-1.3l-21-21
			c-3.5-2.7-8.5-2.2-11.2,1.3c-2.3,2.9-2.3,7,0,10L342,121z"/>
		<path class="st0" d="M326.8,48.4c2.1,0,4.1-0.8,5.6-2.3l21-21c2.7-3.5,2.2-8.5-1.3-11.2c-2.9-2.3-7-2.3-10,0l-21,21
			c-3.1,3.1-3.1,8.1,0,11.2C322.7,47.5,324.7,48.3,326.8,48.4L326.8,48.4z"/>
	</g>
</g>
</svg>
