<svg xmlns="http://www.w3.org/2000/svg" viewBox="0 0 398.72 512"><defs><style>.cls-1{fill:#334b61;}</style></defs><title>brainstorm</title><g id="Слой_2" data-name="Слой 2"><g id="Layer_1" data-name="Layer 1"><path class="cls-1" d="M61.55,414.48a48.23,48.23,0,1,0-48.23-48.23A48.29,48.29,0,0,0,61.55,414.48Zm0-80.56a32.33,32.33,0,1,1-32.33,32.33A32.37,32.37,0,0,1,61.55,333.91Z"/><path class="cls-1" d="M59.43,416.45A59.5,59.5,0,0,0,0,475.89V504a8,8,0,0,0,8,8H110.32a8,8,0,0,0,7.95-7.78l.6-28.16c0-.06,0-.11,0-.17A59.5,59.5,0,0,0,59.43,416.45Zm43.1,79.65H15.9V475.89A43.53,43.53,0,0,1,103,475.8Z"/><path class="cls-1" d="M337.17,318a48.23,48.23,0,1,0,48.23,48.23A48.29,48.29,0,0,0,337.17,318Zm0,80.56a32.33,32.33,0,1,1,32.33-32.33A32.37,32.37,0,0,1,337.17,398.58Z"/><path class="cls-1" d="M339.29,416.45a59.5,59.5,0,0,0-59.43,59.43c0,.06,0,.11,0,.17l.6,28.16A8,8,0,0,0,288.4,512H390.77a8,8,0,0,0,8-8V475.89A59.5,59.5,0,0,0,339.29,416.45Zm43.53,79.65H296.18l-.43-20.29a43.53,43.53,0,0,1,87.07.08V496.1Z"/><path class="cls-1" d="M152.65,366.24A48.23,48.23,0,1,0,200.88,318,48.29,48.29,0,0,0,152.65,366.24Zm80.56,0a32.33,32.33,0,1,1-32.33-32.33A32.37,32.37,0,0,1,233.21,366.24Z"/><path class="cls-1" d="M198.76,416.45a59.5,59.5,0,0,0-59.43,59.43V504a8,8,0,0,0,8,8H249.64a8,8,0,0,0,7.95-7.78l.6-28.16c0-.06,0-.11,0-.17A59.5,59.5,0,0,0,198.76,416.45Zm43.1,79.65H155.23V475.89a43.53,43.53,0,0,1,87.07-.08Z"/><path class="cls-1" d="M242,78.34a44.83,44.83,0,0,1,1.79,7.2A8,8,0,0,0,259.53,83a60.71,60.71,0,0,0-2.42-9.76A8,8,0,0,0,242,78.34Z"/><path class="cls-1" d="M199.36,47.7A45,45,0,0,1,234,63.93a8,8,0,0,0,12.21-10.19,60.84,60.84,0,0,0-46.8-21.93,8,8,0,0,0,0,15.9Z"/><path class="cls-1" d="M157.73,175.63a7.94,7.94,0,0,0-.25,1.93v59.36a8,8,0,0,0,8,8h26v22.26h-132a8,8,0,0,0-8,8v21.2a8,8,0,0,0,15.9,0V283h124v13.25a8,8,0,0,0,15.9,0V283H322.85v13.25a8,8,0,0,0,15.9,0v-21.2a8,8,0,0,0-8-8H207.31V244.87h26a8,8,0,0,0,8-8V177.56a8,8,0,0,0-.25-1.93,92.75,92.75,0,1,0-83.25,0Zm28.38-66.44h26.5v59.26a75.8,75.8,0,0,1-26.5,0ZM199.36,229h-26V215.19h51.94V229Zm26-43.46v13.78H173.39V185.51h51.94Zm-26-169.61a76.84,76.84,0,0,1,29.15,147.95V109.18h9a8,8,0,1,0,0-15.9h-9V88.51a8,8,0,1,0-15.9,0v4.77h-26.5V88.51a8,8,0,1,0-15.9,0v4.77h-9a8,8,0,1,0,0,15.9h9v54.66A76.84,76.84,0,0,1,199.36,15.9Z"/><path class="cls-1" d="M38.42,75.34h33a8,8,0,1,0,0-15.9h-33a8,8,0,0,0,0,15.9Z"/><path class="cls-1" d="M75,88.75l-21,21A8,8,0,0,0,65.24,121l21-21A8,8,0,1,0,75,88.75Z"/><path class="cls-1" d="M74.77,46A8,8,0,1,0,86,34.78l-21-21A8,8,0,0,0,53.78,25Z"/><path class="cls-1" d="M327.85,67.39a8,8,0,0,0,8,8h33a8,8,0,1,0,0-15.9h-33A8,8,0,0,0,327.85,67.39Z"/><path class="cls-1" d="M342,121a8,8,0,1,0,11.24-11.24l-21-21A8,8,0,0,0,321,100Z"/><path class="cls-1" d="M326.81,48.35A7.93,7.93,0,0,0,332.43,46l21-21a8,8,0,0,0-11.24-11.24l-21,21a7.95,7.95,0,0,0,5.62,13.57Z"/></g></g></svg>