<svg xmlns="http://www.w3.org/2000/svg" viewBox="0 0 511.26 512"><defs><style>.cls-1{fill:#334b61;}</style></defs><title>clock</title><g id="Слой_2" data-name="Слой 2"><g id="Layer_1" data-name="Layer 1"><path class="cls-1" d="M0,256C0,115.2,115.2,0,256,0A253.82,253.82,0,0,1,418.13,57.89V8.53c0-5.12,3.41-8.53,8.53-8.53s8.53,3.41,8.53,8.53V76.8h0v8.53H358.4c-5.12,0-8.53-3.41-8.53-8.53s3.41-8.53,8.53-8.53h45.7c-42-33.35-94-51.2-148.1-51.2C124.59,17.07,17.07,124.59,17.07,256c0,5.12-3.41,8.53-8.53,8.53S0,261.12,0,256Zm443.73,0c0,103.25-84.48,187.73-187.73,187.73S68.27,359.25,68.27,256,152.75,68.27,256,68.27,443.73,152.75,443.73,256Zm-17.07,0c0-93.87-76.8-170.67-170.67-170.67S85.33,162.13,85.33,256,162.13,426.67,256,426.67,426.67,349.87,426.67,256Zm-34.13,8.53H409.6c5.12,0,8.53-3.41,8.53-8.53s-3.41-8.53-8.53-8.53H392.53c-5.12,0-8.53,3.41-8.53,8.53S387.41,264.53,392.53,264.53ZM256,128c5.12,0,8.53-3.41,8.53-8.53V102.4c0-5.12-3.41-8.53-8.53-8.53s-8.53,3.41-8.53,8.53v17.07C247.47,124.59,250.88,128,256,128Zm0,256c-5.12,0-8.53,3.41-8.53,8.53V409.6c0,5.12,3.41,8.53,8.53,8.53s8.53-3.41,8.53-8.53V392.53C264.53,387.41,261.12,384,256,384ZM119.47,247.47H102.4c-5.12,0-8.53,3.41-8.53,8.53s3.41,8.53,8.53,8.53h17.07c5.12,0,8.53-3.41,8.53-8.53S124.59,247.47,119.47,247.47Zm170.67,0A34.23,34.23,0,0,1,256,281.6a33.84,33.84,0,0,1-17.39-4.8l-70.51,70.51a8.25,8.25,0,0,1-11.95,0,8.25,8.25,0,0,1,0-11.95l70.51-70.51a33.84,33.84,0,0,1-4.8-17.39,34.27,34.27,0,0,1,25.6-33V170.67c0-5.12,3.41-8.53,8.53-8.53s8.53,3.41,8.53,8.53v43.75A34.27,34.27,0,0,1,290.13,247.47Zm-17.07,0a17.07,17.07,0,1,0-30,11.13,8.4,8.4,0,0,1,1.75,1.75,17,17,0,0,0,28.2-12.89ZM48.64,373.76c-2.56-4.27-7.68-6-11.95-3.41s-6,7.68-3.41,11.95A9,9,0,0,0,41,386.56a7.69,7.69,0,0,0,4.27-.85C49.49,383.15,51.2,378,48.64,373.76ZM113.49,448c-3.41-2.56-9.39-1.71-11.95,1.71s-1.71,9.39,1.71,11.95c1.71.85,3.41.85,5.12,1.71a7.76,7.76,0,0,0,6.83-3.41C117.76,456.53,116.91,450.56,113.49,448ZM81.92,432.64a9.14,9.14,0,0,0,.85,11.95,12.33,12.33,0,0,0,6,1.71,9.22,9.22,0,0,0,6-2.56,9.14,9.14,0,0,0-.85-11.95A9.14,9.14,0,0,0,81.92,432.64ZM36.69,352.43c-1.71-4.27-6.83-6-11.09-4.27s-6,6.83-4.27,11.09c1.71,2.56,5.12,5.12,7.68,5.12.85,0,2.56,0,3.41-.85C36.69,361.81,38.4,356.69,36.69,352.43Zm28.16,61.44c-3.41,3.41-4.27,8.53-.85,11.95,1.71,1.71,4.27,2.56,6,1.71,2.56,0,4.27,0,6-1.71,3.41-3.41,4.27-8.53.85-11.95C74.24,410.45,68.27,410.45,64.85,413.87Zm-3.41-19.63c-2.56-3.41-7.68-4.27-11.95-1.71-3.41,3.41-4.27,8.53-1.71,11.95,1.71,2.56,4.27,4.27,6.83,3.41a12.13,12.13,0,0,0,5.12-1.71C63.15,403.63,64,398.51,61.44,394.24ZM502.61,273.92c5.12,0,9.39-3.41,8.53-8.53,0-4.27-4.27-8.53-8.53-8.53s-8.53,4.27-8.53,8.53S498.35,273.92,502.61,273.92ZM11.09,290.13c5.12-.85,8.53-5.12,7.68-9.39-.85-5.12-5.12-8.53-9.39-7.68-5.12.85-8.53,5.12-7.68,9.39,0,4.27,3.41,7.68,8.53,7.68Zm4.27,25.6c5.12-.85,7.68-6,6.83-10.24-.85-5.12-6-7.68-10.24-6.83-5.12.85-7.68,6-6.83,10.24a9.19,9.19,0,0,0,8.53,6.83Zm11.95,13.65a7.57,7.57,0,0,0-10.24-6c-4.27,1.71-6.83,6.83-5.12,11.09,1.71,3.41,5.12,5.12,7.68,6h2.56C26.45,338.77,29,333.65,27.31,329.39Zm464.21,2.56c-4.27-1.71-9.39.85-11.09,5.12s.85,9.39,5.12,11.09c.85.85,1.71.85,3.41.85a8.2,8.2,0,0,0,7.68-6C498.35,338.77,495.79,333.65,491.52,331.95ZM410.45,437.76c-3.41,3.41-4.27,8.53-.85,11.95a5.72,5.72,0,0,0,6.83,2.56c1.71,0,3.41,0,5.12-1.71,3.41-3.41,4.27-8.53.85-11.95S413.87,434.35,410.45,437.76Zm46.08-37.55c-3.41-2.56-9.39-1.71-11.95,1.71s-1.71,9.39,1.71,11.95c1.71,1.71,3.41,2.56,5.12,1.71a7.76,7.76,0,0,0,6.83-3.41C460.8,408.75,459.95,402.77,456.53,400.21Zm-27.31,21.33a8.25,8.25,0,0,0,0,11.95,12.33,12.33,0,0,0,6,1.71,15.82,15.82,0,0,0,6-1.71,8.45,8.45,0,0,0-11.95-11.95Zm-58.88,44.37c-4.27,2.56-6,7.68-3.41,11.95a5.8,5.8,0,0,0,6.83,3.41c1.71,0,3.41,0,4.27-.85a8.21,8.21,0,0,0-7.68-14.51Zm20.48-12.8c-3.41,2.56-4.27,7.68-1.71,11.95,1.71,2.56,4.27,3.41,6.83,4.27a12.13,12.13,0,0,0,5.12-1.71c3.41-2.56,4.27-7.68,1.71-11.95S395.09,450.56,390.83,453.12ZM471,378.88c-4.27-2.56-9.39-1.71-11.95,2.56s-1.71,9.39,2.56,11.95a12.13,12.13,0,0,0,5.12,1.71c2.56,0,5.12-1.71,6.83-4.27C476.16,386.56,475.31,381.44,471,378.88Zm27.31-70.83c-4.27-1.71-9.39,1.71-10.24,6-1.71,4.27,1.71,9.39,6,10.24.85,0,.85,0,1.71.85a8.31,8.31,0,0,0,8.53-6.83C506,314,502.61,308.91,498.35,308.05Zm3.41-25.6a10,10,0,0,0-9.39,7.68c-.85,4.27,2.56,8.53,7.68,9.39h.85c4.27,0,7.68-3.41,8.53-7.68A10,10,0,0,0,501.76,282.45Zm-20.48,74.24c-4.27-1.71-9.39,0-11.09,4.27s0,9.39,4.27,11.09c1.71,0,2.56.85,3.41.85q5.12,0,7.68-5.12C487.25,363.52,485.55,358.4,481.28,356.69ZM250.88,494.93a8.53,8.53,0,1,0,0,17.07c5.12,0,8.53-3.41,8.53-8.53C259.41,499.2,255.15,494.93,250.88,494.93Zm-48.64-6.83c-4.27-.85-9.39,2.56-10.24,6.83s2.56,9.39,6.83,10.24c0,.85.85.85,1.71,0a8.31,8.31,0,0,0,8.53-6.83C209.92,494.08,206.51,489,202.24,488.11Zm-23-6c-4.27-1.71-9.39.85-11.09,5.12s.85,9.39,5.12,11.09a6.45,6.45,0,0,1,3.41.85,8.2,8.2,0,0,0,7.68-6C186,489,183.47,483.84,179.2,482.13Zm46.93,11.09c-4.27,0-8.53,2.56-9.39,7.68a10,10,0,0,0,7.68,9.39h.85c4.27,0,7.68-3.41,8.53-7.68A10,10,0,0,0,226.13,493.23ZM347.31,477c-4.27,1.71-6,6.83-4.27,11.09,1.71,2.56,5.12,5.12,7.68,5.12.85,0,2.56-.85,3.41-.85,4.27-1.71,6-6.83,4.27-11.09S351.57,475.31,347.31,477Zm-192-4.27c-4.27-1.71-9.39,0-11.09,4.27s0,9.39,4.27,11.09c.85.85,2.56.85,3.41.85q5.12,0,7.68-5.12C161.28,479.57,159.57,474.45,155.31,472.75Zm145.07,17.92c-4.27.85-7.68,6-6.83,10.24a8.31,8.31,0,0,0,8.53,6.83h1.71c4.27-.85,7.68-6,6.83-10.24C309.76,492.37,304.64,489.81,300.37,490.67Zm24.75-5.12a7.57,7.57,0,0,0-6,10.24,8.2,8.2,0,0,0,7.68,6h2.56a7.57,7.57,0,0,0,6-10.24C334.51,487.25,329.39,484.69,325.12,485.55ZM134.83,460.8c-4.27-1.71-9.39-.85-11.95,3.41s-1.71,9.39,2.56,11.95c.85.85,2.56.85,4.27.85a9,9,0,0,0,7.68-4.27C139.95,468.48,139.09,463.36,134.83,460.8Zm140.8,33.28a10,10,0,0,0-7.68,9.39c.85,4.27,4.27,7.68,8.53,7.68h.85a8.58,8.58,0,0,0-1.71-17.07Z"/></g></g></svg>