<svg xmlns="http://www.w3.org/2000/svg" viewBox="0 0 460.86 595.28"><defs><style>.cls-1{fill:#fff;}.cls-2{fill:#3d4a5a;}</style></defs><title>consult</title><g id="Слой_2" data-name="Слой 2"><g id="Слой_1-2" data-name="Слой 1"><g id="Слой_2-2" data-name="Слой 2"><path class="cls-1" d="M402.72,153.14c46.21,92-29.8,116-159.79,174C156.68,365.62,72.42,244.3,72.42,157s76.06-145.9,170.51-145.9S363.56,75.16,402.72,153.14Z"/><path class="cls-1" d="M433.93,541.64c0,75.5-81.78,41.5-193.9,41.5s-226.1,35-212.1-41.5c19.34-105.66,90.89-194.5,203-194.5S433.93,434.22,433.93,541.64Z"/></g><g id="Layer_1" data-name="Layer 1"><path class="cls-2" d="M230.43,336C114,336,19.2,430.8,19.2,547.27v48H441.66v-48C441.66,430.8,346.9,336,230.43,336Zm85,39.31c-27.33,59.09-67.28,144.6-84.48,179.51L145.47,375.32a189.81,189.81,0,0,1,170,0Zm14.35,14.73,24.09,104.38L254,551.53C267.08,525,289.58,477,329.79,390.08ZM208.58,552.53,107,494.47l24.15-104.62ZM38.4,547.27a191.67,191.67,0,0,1,71-148.94L85.06,504.06l126,72H38.4Zm384,28.8H249.78l126-72L351.4,398.33a191.68,191.68,0,0,1,71,148.94v28.8h0Z"/><path class="cls-2" d="M350.16,278.43h24.29a28.84,28.84,0,0,0,28.8-28.8v-28.8h-19.2v28.8a9.61,9.61,0,0,1-9.6,9.6H363.26a152.49,152.49,0,0,0,20.79-76.81c0-84.7-68.92-153.62-153.62-153.62S76.81,97.72,76.81,182.42,145.73,336,230.43,336A153.31,153.31,0,0,0,350.16,278.43ZM96,182.42C96,108.3,156.31,48,230.43,48s134.42,60.3,134.42,134.42a133.56,133.56,0,0,1-24.26,76.81H276.67a28.77,28.77,0,0,0-27-19.2h-38.4a28.8,28.8,0,0,0,0,57.61h38.4a28.77,28.77,0,0,0,27-19.2h47.66a133.94,133.94,0,0,1-93.89,38.41C156.31,316.84,96,256.54,96,182.42Zm163.22,86.41a9.61,9.61,0,0,1-9.6,9.6h-38.4a9.6,9.6,0,0,1,0-19.2h38.4A9.61,9.61,0,0,1,259.23,268.83Z"/><path class="cls-2" d="M230.43,19.2A163.37,163.37,0,0,1,384.59,128.65l18.14-6.32a182.49,182.49,0,0,0-344.58,0l18.14,6.33A163.37,163.37,0,0,1,230.43,19.2Z"/><path class="cls-2" d="M76.81,249.63h-9.6a67.21,67.21,0,0,1,0-134.42h9.6Z"/><path class="cls-2" d="M393.65,249.63H384V115.21h9.6a67.21,67.21,0,0,1,0,134.42Z"/></g></g></g></svg>