<?xml version="1.0" encoding="utf-8"?>
<!-- Generator: Adobe Illustrator 21.0.0, SVG Export Plug-In . SVG Version: 6.00 Build 0)  -->
<svg version="1.1" id="Слой_1" xmlns="http://www.w3.org/2000/svg" xmlns:xlink="http://www.w3.org/1999/xlink" x="0px" y="0px"
	 viewBox="0 0 438.9 566.9" style="enable-background:new 0 0 438.9 566.9;" xml:space="preserve">
<style type="text/css">
	.st0{fill:#334B61;}
</style>
<path id="Слой_2" class="st0" d="M219.4,320c-110.9,0-201.2,90.3-201.2,201.2v45.7h402.3v-45.7C420.6,410.3,330.4,320,219.4,320
	z M300.5,357.4c-26,56.3-64.1,137.7-80.5,171l-81.4-171C189.5,331.9,249.5,331.9,300.5,357.4z M314.1,371.4l22.9,99.5l-95.1,54.3
	C254.4,500,275.8,454.3,314.1,371.4L314.1,371.4z M198.6,526.2l-96.8-55.3l23-99.6L198.6,526.2z M36.6,521.2
	c0-55.1,24.9-107.2,67.7-141.8L81,480.1l120,68.6H36.6L36.6,521.2z M402.3,548.6H237.9l120-68.6l-23.2-100.7
	c42.8,34.7,67.7,86.8,67.7,141.8L402.3,548.6L402.3,548.6L402.3,548.6z M333.5,265.2h23.1c15.1,0,27.4-12.3,27.4-27.4v-27.4h-18.2
	v27.4c0,5-4.1,9.1-9.1,9.1H346c13-22.2,19.8-47.4,19.8-73.2c0-80.7-65.6-146.3-146.3-146.3S73.2,93.1,73.2,173.7
	S138.8,320,219.5,320C263.8,320,305.8,299.8,333.5,265.2z M91.5,173.7C91.4,103,148.6,45.7,219.3,45.6
	c70.7-0.1,128.1,57.2,128.2,127.8c0,26.3-8,51.9-23.1,73.5h-60.9c-3.9-10.9-14.2-18.3-25.8-18.3h-36.6c-15.2,0-27.4,12.3-27.4,27.4
	c0,15.2,12.3,27.4,27.4,27.4h36.6c11.6,0,21.9-7.4,25.8-18.3h45.4c-50.4,49.5-131.4,48.7-180.9-1.8
	C104.5,239.5,91.4,207.3,91.5,173.7L91.5,173.7z M246.9,256c0,5-4.1,9.1-9.1,9.1h-36.6c-5.1,0-9.1-4.1-9.1-9.1s4.1-9.1,9.1-9.1l0,0
	h36.6C242.8,246.9,246.9,251,246.9,256z M219.4,18.3c66.1,0,125,41.8,146.8,104.2l17.3-6C351.9,25.9,252.8-21.9,162.2,9.7
	c-50,17.5-89.3,56.8-106.8,106.8l17.3,6C94.5,60.1,153.3,18.3,219.4,18.3z M73.2,237.7H64c-35.3,0-64-28.7-64-64s28.7-64,64-64h9.1
	L73.2,237.7L73.2,237.7z M374.9,237.7h-9.1v-128h9.1c35.3,0,64,28.7,64,64S410.2,237.7,374.9,237.7z"/>
</svg>
