<svg xmlns="http://www.w3.org/2000/svg" viewBox="0 0 438.91 566.93"><defs><style>.cls-1{fill:#3d4a5a;}</style></defs><title>consult</title><g id="Слой_2" data-name="Слой 2"><g id="Layer_1" data-name="Layer 1"><path class="cls-1" d="M219.45,320C108.53,320,18.29,410.28,18.29,521.21v45.72H420.62V521.21C420.62,410.28,330.38,320,219.45,320Zm81,37.44c-26,56.27-64.07,137.71-80.46,171l-81.42-171a180.77,180.77,0,0,1,161.88,0Zm13.67,14L337,470.92l-95.11,54.35C254.35,500,275.79,454.33,314.09,371.5ZM198.65,526.22l-96.77-55.29,23-99.63Zm-162.08-5a182.55,182.55,0,0,1,67.67-141.85L81,480.05l120,68.59H36.57Zm365.76,27.43H237.88l120-68.59L334.67,379.36a182.55,182.55,0,0,1,67.67,141.85v27.43h0Z"/><path class="cls-1" d="M333.48,265.18h23.14A27.47,27.47,0,0,0,384,237.74V210.31H365.76v27.43a9.15,9.15,0,0,1-9.15,9.14H346a145.23,145.23,0,0,0,19.8-73.15c0-80.67-65.64-146.3-146.3-146.3S73.15,93.07,73.15,173.74,138.79,320,219.46,320A146,146,0,0,0,333.48,265.18Zm-242-91.44a128,128,0,1,1,232.93,73.15H263.49a27.39,27.39,0,0,0-25.75-18.29H201.17a27.43,27.43,0,0,0,0,54.87h36.58a27.39,27.39,0,0,0,25.75-18.29h45.39A127.9,127.9,0,0,1,91.44,173.74ZM246.89,256a9.15,9.15,0,0,1-9.15,9.14H201.17a9.14,9.14,0,0,1,0-18.29h36.58A9.16,9.16,0,0,1,246.89,256Z"/><path class="cls-1" d="M219.45,18.29A155.59,155.59,0,0,1,366.27,122.52l17.27-6a173.8,173.8,0,0,0-328.17,0l17.27,6A155.59,155.59,0,0,1,219.45,18.29Z"/><path class="cls-1" d="M73.15,237.74H64a64,64,0,0,1,0-128h9.14v128Z"/><path class="cls-1" d="M374.9,237.74h-9.15v-128h9.15a64,64,0,0,1,0,128Z"/></g></g></svg>