<svg xmlns="http://www.w3.org/2000/svg" viewBox="0 0 506.18 512"><defs><style>.cls-1{fill:#334b61;}</style></defs><title>content</title><g id="Слой_2" data-name="Слой 2"><g id="Layer_1" data-name="Layer 1"><path class="cls-1" d="M40.73,314.18H325.82V40.73H40.73Zm17.45-17.45V263.14l102.25-80.72L308.36,281v15.69Zm250.18-36.67-81.67-54.45,32.82-28.72,48.86,34.2v49Zm0-201.87v131.6l-50.05-35-46.67,40.83-52.08-34.72-101.39,80V58.18Z"/><path class="cls-1" d="M366.55,157.09V0H0V354.91H139.64V512H506.18V157.09ZM197.82,354.91H366.55V215.27H448V453.82H197.82ZM17.45,17.45H349.09v320H17.45ZM488.73,494.55H157.09V354.91h23.27V471.27H465.45V197.82H366.55V174.55H488.73Z"/><path class="cls-1" d="M119.27,151.27a37.82,37.82,0,1,0-37.82-37.82A37.86,37.86,0,0,0,119.27,151.27Zm0-58.18a20.36,20.36,0,1,1-20.36,20.36A20.39,20.39,0,0,1,119.27,93.09Z"/><rect class="cls-1" x="194.91" y="87.27" width="81.45" height="17.45"/><rect class="cls-1" x="177.45" y="122.18" width="23.27" height="17.45"/><rect class="cls-1" x="212.36" y="122.18" width="23.27" height="17.45"/></g></g></svg>