<?xml version="1.0" encoding="utf-8"?>
<!-- Generator: Adobe Illustrator 21.0.0, SVG Export Plug-In . SVG Version: 6.00 Build 0)  -->
<svg version="1.1" id="Слой_1" xmlns="http://www.w3.org/2000/svg" xmlns:xlink="http://www.w3.org/1999/xlink" x="0px" y="0px"
	 viewBox="0 0 506.2 512" style="enable-background:new 0 0 506.2 512;" xml:space="preserve">
<style type="text/css">
	.st0{fill:#334B61;}
</style>
<path id="Слой_2" class="st0" d="M40.7,314.2h285.1V40.7H40.7V314.2z M58.2,296.7v-33.6l102.2-80.7L308.4,281v15.7L58.2,296.7z
	 M308.4,260.1l-81.7-54.4l32.8-28.7l48.9,34.2L308.4,260.1L308.4,260.1z M308.4,58.2v131.6l-50-35l-46.7,40.8l-52.1-34.7l-101.4,80
	V58.2L308.4,58.2z M366.5,157.1V0H0v354.9h139.6V512h366.5V157.1H366.5z M197.8,354.9h168.7V215.3H448v238.6H197.8V354.9z
	 M17.5,17.5h331.6v320H17.5V17.5z M488.7,494.6H157.1V354.9h23.3v116.4h285.1V197.8h-98.9v-23.3h122.2V494.6z M119.3,151.3
	c20.9,0,37.8-16.9,37.8-37.8s-16.9-37.8-37.8-37.8s-37.8,16.9-37.8,37.8l0,0C81.5,134.3,98.4,151.2,119.3,151.3z M119.3,93.1
	c11.2,0,20.4,9.1,20.4,20.4s-9.1,20.4-20.4,20.4s-20.4-9.1-20.4-20.4l0,0C98.9,102.2,108,93.1,119.3,93.1z M194.9,87.3h81.4v17.5
	h-81.4V87.3z M177.4,122.2h23.3v17.5h-23.3V122.2z M212.4,122.2h23.3v17.5h-23.3V122.2z"/>
</svg>
