<svg xmlns="http://www.w3.org/2000/svg" viewBox="0 0 588.52 595.28"><defs><style>.cls-1{fill:#fff;}.cls-2{fill:#3d4a5a;}</style></defs><title>content</title><g id="Слой_2" data-name="Слой 2"><g id="Слой_1-2" data-name="Слой 1"><g id="Слой_2-2" data-name="Слой 2"><rect class="cls-1" x="14.76" y="9.14" width="398" height="389"/><rect class="cls-1" x="173.76" y="194.14" width="407" height="384"/></g><g id="Layer_1" data-name="Layer 1"><path class="cls-2" d="M47.35,47.35V365.29H378.82V47.35ZM358.52,345H67.65V305.94l118.88-93.86,172,114.66Zm0-42.64-95-63.3,38.16-33.39,56.8,39.76Zm0-81.7-58.2-40.74-54.26,47.47L185.52,187,67.65,280.09V67.65H358.52v153Z"/><path class="cls-2" d="M426.17,182.64V0H0V412.64H162.35V595.28H588.52V182.64Zm0,67.65h94.7V527.64H230v-115H426.17V250.29ZM20.29,392.34v-372H405.87v372ZM568.22,575H182.64V412.64H209.7V547.93H541.16V230h-115V202.94H568.22V575Z"/><path class="cls-2" d="M138.67,87.94a44,44,0,1,0,44,44A44,44,0,0,0,138.67,87.94Zm0,67.65a23.68,23.68,0,1,1,23.68-23.68A23.7,23.7,0,0,1,138.67,155.58Z"/><rect class="cls-2" x="226.61" y="101.47" width="94.7" height="20.29"/><rect class="cls-2" x="206.32" y="142.06" width="27.06" height="20.29"/><rect class="cls-2" x="246.91" y="142.06" width="27.06" height="20.29"/></g></g></g></svg>