<svg xmlns="http://www.w3.org/2000/svg" viewBox="0 0 512 375.47"><defs><style>.cls-1{fill:#fff;}.cls-2{fill:#334b61;}</style></defs><title>credit-card</title><g id="Слой_2" data-name="Слой 2"><g id="Layer_1" data-name="Layer 1"><path class="cls-1" d="M476.16,366.93H35.84A27,27,0,0,1,8.53,339.63V35.84A27,27,0,0,1,35.84,8.53H476.16a27,27,0,0,1,27.31,27.31V339.63a27,27,0,0,1-27.31,27.31Z"/><path class="cls-2" d="M476.16,375.47H35.84A36.06,36.06,0,0,1,0,339.63V35.84A36.06,36.06,0,0,1,35.84,0H476.16A36.06,36.06,0,0,1,512,35.84V339.63A36.06,36.06,0,0,1,476.16,375.47ZM35.84,17.07A18.94,18.94,0,0,0,17.07,35.84V339.63A18.94,18.94,0,0,0,35.84,358.4H476.16a18.94,18.94,0,0,0,18.77-18.77V35.84a18.94,18.94,0,0,0-18.77-18.77Z"/><path class="cls-1" d="M401.07,110.93a51.2,51.2,0,1,1-51.2-51.2,51.35,51.35,0,0,1,51.2,51.2Z"/><path class="cls-2" d="M349.87,170.67a59.73,59.73,0,1,1,59.73-59.73A59.37,59.37,0,0,1,349.87,170.67Zm0-102.4a42.67,42.67,0,1,0,42.67,42.67A42.25,42.25,0,0,0,349.87,68.27Z"/><path class="cls-1" d="M460.8,110.93a51.2,51.2,0,1,1-51.2-51.2,51.35,51.35,0,0,1,51.2,51.2Z"/><path class="cls-2" d="M409.6,170.67a59.73,59.73,0,1,1,59.73-59.73A59.37,59.37,0,0,1,409.6,170.67Zm0-102.4a42.67,42.67,0,1,0,42.67,42.67A42.25,42.25,0,0,0,409.6,68.27Z"/><path class="cls-2" d="M204.8,128H187.73c-5.12,0-8.53-3.41-8.53-8.53s3.41-8.53,8.53-8.53H204.8c5.12,0,8.53,3.41,8.53,8.53S209.92,128,204.8,128Zm-51.2,0h-8.53c-5.12,0-8.53-3.41-8.53-8.53s3.41-8.53,8.53-8.53h8.53c5.12,0,8.53,3.41,8.53,8.53S158.72,128,153.6,128Zm-42.67,0H93.87c-5.12,0-8.53-3.41-8.53-8.53s3.41-8.53,8.53-8.53h17.07c5.12,0,8.53,3.41,8.53,8.53S116.05,128,110.93,128Zm-51.2,0H51.2c-5.12,0-8.53-3.41-8.53-8.53s3.41-8.53,8.53-8.53h8.53c5.12,0,8.53,3.41,8.53,8.53S64.85,128,59.73,128Zm179.2-42.67h-76.8c-5.12,0-8.53-3.41-8.53-8.53s3.41-8.53,8.53-8.53h76.8c5.12,0,8.53,3.41,8.53,8.53S244.05,85.33,238.93,85.33ZM128,85.33H51.2c-5.12,0-8.53-3.41-8.53-8.53s3.41-8.53,8.53-8.53H128c5.12,0,8.53,3.41,8.53,8.53S133.12,85.33,128,85.33Z"/><polygon class="cls-1" points="51.2 256 128 256 128 307.2 51.2 307.2 51.2 256"/><path class="cls-2" d="M136.53,315.73H42.67V247.47h93.87Zm-76.8-17.07h59.73V264.53H59.73Z"/><polygon class="cls-1" points="162.13 256 238.93 256 238.93 307.2 162.13 307.2 162.13 256"/><path class="cls-2" d="M247.47,315.73H153.6V247.47h93.87Zm-76.8-17.07H230.4V264.53H170.67Z"/><polygon class="cls-1" points="273.07 256 349.87 256 349.87 307.2 273.07 307.2 273.07 256"/><path class="cls-2" d="M358.4,315.73H264.53V247.47H358.4Zm-76.8-17.07h59.73V264.53H281.6Z"/><polygon class="cls-1" points="384 256 460.8 256 460.8 307.2 384 307.2 384 256"/><path class="cls-2" d="M469.33,315.73H375.47V247.47h93.87Zm-76.8-17.07h59.73V264.53H392.53Z"/></g></g></svg>