<?xml version="1.0" encoding="utf-8"?>
<!-- Generator: Adobe Illustrator 21.0.0, SVG Export Plug-In . SVG Version: 6.00 Build 0)  -->
<svg version="1.1" id="Слой_1" xmlns="http://www.w3.org/2000/svg" xmlns:xlink="http://www.w3.org/1999/xlink" x="0px" y="0px"
	 viewBox="0 0 511.9 505" style="enable-background:new 0 0 511.9 505;" xml:space="preserve">
<style type="text/css">
	.st0{fill:#334B61;}
</style>
<path id="Layer_1" class="st0" d="M476.2,437.7H35.8C16.1,437.5,0.1,421.6,0,401.8V98c0.1-19.7,16.1-35.7,35.8-35.8h440.3
	c19.7,0.1,35.7,16.1,35.8,35.8v303.8C511.9,421.6,495.9,437.5,476.2,437.7z M35.8,79.3C25.5,79.4,17.1,87.7,17,98.1v303.8
	c0.1,10.3,8.4,18.7,18.8,18.8h440.3c10.3-0.1,18.7-8.4,18.8-18.8V98c-0.1-10.3-8.4-18.7-18.8-18.8L35.8,79.3L35.8,79.3z
	 M409.6,113.4c-10.9,0-21.1,2.9-29.9,8c-8.8-5.1-19-8-29.9-8c-33,0-59.7,26.7-59.7,59.7s26.7,59.7,59.7,59.7c0.2,0,0.5,0,0.7,0
	c10.7-0.1,20.7-2.9,29.3-7.9c8.8,5,18.9,7.9,29.7,7.9c0.2,0,0.5,0,0.7,0c32.8-0.2,59.2-26.9,59-59.7
	C469.3,140.2,442.6,113.4,409.6,113.4z M349.9,215.8c-23.6,0-42.7-19.1-42.7-42.7s19.1-42.7,42.7-42.7c0.3,0,0.6,0,0.8,0
	c5.1,0.1,10,1,14.5,2.7c-9.5,10.6-15.3,24.6-15.3,39.9s5.8,29.3,15.2,39.8C360.4,214.8,355.2,215.8,349.9,215.8z M409.6,215.8
	c-23.6,0-42.7-19.1-42.7-42.7s19.1-42.7,42.7-42.7c0.3,0,0.6,0,0.8,0c23.3,0.2,42.1,19.3,41.8,42.7
	C452.3,196.7,433.2,215.8,409.6,215.8z M204.8,190.2h-17.1c-5.1,0-8.5-3.4-8.5-8.5s3.4-8.5,8.5-8.5h17.1c5.1,0,8.5,3.4,8.5,8.5
	S209.9,190.2,204.8,190.2z M153.6,190.2h-8.5c-5.1,0-8.5-3.4-8.5-8.5s3.4-8.5,8.5-8.5h8.5c5.1,0,8.5,3.4,8.5,8.5
	S158.7,190.2,153.6,190.2z M110.9,190.2h-17c-5.1,0-8.5-3.4-8.5-8.5s3.4-8.5,8.5-8.5H111c5.1,0,8.5,3.4,8.5,8.5
	S116.1,190.2,110.9,190.2z M59.7,190.2h-8.5c-5.1,0-8.5-3.4-8.5-8.5s3.4-8.5,8.5-8.5h8.5c5.1,0,8.5,3.4,8.5,8.5
	S64.8,190.2,59.7,190.2z M238.9,147.5h-76.8c-5.1,0-8.5-3.4-8.5-8.5s3.4-8.5,8.5-8.5h76.8c5.1,0,8.5,3.4,8.5,8.5
	S244.1,147.5,238.9,147.5L238.9,147.5z M128,147.5H51.2c-5.1,0-8.5-3.4-8.5-8.5s3.4-8.5,8.5-8.5H128c5.1,0,8.5,3.4,8.5,8.5
	S133.1,147.5,128,147.5z M136.5,377.9H42.7v-68.3h93.9L136.5,377.9z M59.7,360.9h59.7v-34.1H59.7V360.9z M247.5,377.9h-93.9v-68.3
	h93.9V377.9z M170.7,360.9h59.7v-34.1h-59.7V360.9z M358.4,377.9h-93.9v-68.3h93.9V377.9z M281.6,360.9h59.7v-34.1h-59.7V360.9z
	 M469.3,377.9h-93.9v-68.3h93.9V377.9z M392.5,360.9h59.7v-34.1h-59.7V360.9z"/>
</svg>
