<svg xmlns="http://www.w3.org/2000/svg" viewBox="0 0 512 512"><defs><style>.cls-1{fill:#334b61;}</style></defs><title>designer</title><g id="Слой_2" data-name="Слой 2"><g id="Layer_1" data-name="Layer 1"><path class="cls-1" d="M256,300.87a29,29,0,1,0,29,29A29.06,29.06,0,0,0,256,300.87Zm0,42.23a13.2,13.2,0,1,1,13.2-13.2A13.21,13.21,0,0,1,256,343.09Z"/><path class="cls-1" d="M493.53,0H18.47A18.5,18.5,0,0,0,0,18.47V377.4a18.5,18.5,0,0,0,18.47,18.47H168.91v58.06H144.25L129.74,512H382.26l-14.52-58.06H343.09V395.88H493.53A18.5,18.5,0,0,0,512,377.4V18.47A18.5,18.5,0,0,0,493.53,0ZM18.47,15.84H493.53a2.67,2.67,0,0,1,2.64,2.64V269.2H475.05V36.95H36.95V269.2H15.84V18.47A2.67,2.67,0,0,1,18.47,15.84Zm245.44,227h29V227h-29V190h44.87V174.19H263.92V137.24h29V121.4h-29V95h79.18V269.2H263.92ZM248.08,79.18v190H232.25V169.92L192.66,77.55l-39.59,92.37V269.2H52.78V52.78H459.22V269.2H358.93v-190ZM173,163.63l19.66-45.88,19.66,45.88Zm-4.09,15.84h15.84V269.2H168.91Zm31.67,0h15.84V269.2H200.58ZM362,496.16H150l6.6-26.39H355.39Zm-34.73-42.23H184.74V395.88H327.26ZM493.53,380H18.47a2.67,2.67,0,0,1-2.64-2.64V285H496.16V377.4A2.67,2.67,0,0,1,493.53,380Z"/><polygon class="cls-1" points="73.9 176.82 89.73 176.82 89.73 95.01 129.32 95.01 129.32 79.17 73.9 79.17 73.9 176.82"/><rect class="cls-1" x="73.9" y="192.66" width="15.84" height="21.11"/><polygon class="cls-1" points="438.1 203.22 422.27 203.22 422.27 232.25 382.68 232.25 382.68 248.08 438.1 248.08 438.1 203.22"/></g></g></svg>