<svg xmlns="http://www.w3.org/2000/svg" viewBox="0 0 595.28 595.28"><defs><style>.cls-1{fill:#fff;stroke:#3d4a5a;stroke-miterlimit:10;}.cls-2{fill:#3d4a5a;}</style></defs><title>designer</title><g id="Слой_2" data-name="Слой 2"><g id="Слой_1-2" data-name="Слой 1"><g id="Слой_2-2" data-name="Слой 2"><rect class="cls-1" x="4.64" y="8.17" width="578.5" height="439.97"/><rect class="cls-1" x="202.14" y="436.14" width="187" height="100"/><rect class="cls-1" x="170.14" y="536.14" width="256" height="52"/></g><g id="Layer_1" data-name="Layer 1"><path class="cls-2" d="M297.64,349.8a33.75,33.75,0,1,0,33.75,33.75A33.79,33.79,0,0,0,297.64,349.8Zm0,49.1A15.34,15.34,0,1,1,313,383.56,15.36,15.36,0,0,1,297.64,398.9Z"/><path class="cls-2" d="M573.8,0H21.48A21.5,21.5,0,0,0,0,21.48V438.79a21.5,21.5,0,0,0,21.48,21.48h174.9v67.51H167.71l-16.87,67.51h293.6l-16.88-67.51H398.9V460.27H573.8a21.5,21.5,0,0,0,21.48-21.48V21.48A21.5,21.5,0,0,0,573.8,0ZM413.19,546.18l7.67,30.68H174.42l7.67-30.68Zm-198.4-18.41V460.27h165.7v67.51Zm362.08-89a3.11,3.11,0,0,1-3.07,3.07H21.48a3.11,3.11,0,0,1-3.07-3.07V331.39H576.87v107.4ZM288.43,92.05V313H270V197.56L224,90.17l-46,107.4V313H61.37V61.37H533.91V313H417.31V92.05H288.43Zm18.41,171.83v-43H359V202.52H306.85v-43H340.6V141.15H306.85V110.46H398.9V313H306.85V282.3H340.6V263.89H306.85ZM201.14,190.24,224,136.9l22.86,53.34Zm13.66,18.41V313H196.38V208.65Zm18.41,0h18.41V313H233.2ZM576.87,313H552.32V43H43V313H18.41V21.48a3.11,3.11,0,0,1,3.07-3.07H573.8a3.11,3.11,0,0,1,3.07,3.07V313Z"/><polygon class="cls-2" points="85.92 92.05 85.92 205.59 104.33 205.59 104.33 110.46 150.35 110.46 150.35 92.05 85.92 92.05"/><rect class="cls-2" x="85.92" y="224" width="18.41" height="24.55"/><polygon class="cls-2" points="490.95 236.27 490.95 270.02 444.93 270.02 444.93 288.43 509.36 288.43 509.36 236.27 490.95 236.27"/></g></g></g></svg>