<?xml version="1.0" encoding="utf-8"?>
<!-- Generator: Adobe Illustrator 21.0.0, SVG Export Plug-In . SVG Version: 6.00 Build 0)  -->
<svg version="1.1" id="Слой_1" xmlns="http://www.w3.org/2000/svg" xmlns:xlink="http://www.w3.org/1999/xlink" x="0px" y="0px"
	 viewBox="0 0 512 512" style="enable-background:new 0 0 512 512;" xml:space="preserve">
<style type="text/css">
	.st0{fill:#334B61;}
</style>
<g id="Слой_2">
	<g id="Layer_1">
		<path class="st0" d="M256,300.9c-16,0-29,13-29,29s13,29,29,29s29-13,29-29l0,0C285,313.9,272,300.9,256,300.9z M256,343.1
			c-7.3,0-13.2-5.9-13.2-13.2c0-7.3,5.9-13.2,13.2-13.2c7.3,0,13.2,5.9,13.2,13.2C269.2,337.2,263.3,343.1,256,343.1L256,343.1z"/>
		<path class="st0" d="M493.5,0H18.5C8.3,0,0,8.3,0,18.5v358.9c0,10.2,8.3,18.5,18.5,18.5h150.4v58.1h-24.7L129.7,512h252.5
			l-14.5-58.1h-24.7v-58.1h150.4c10.2,0,18.5-8.3,18.5-18.5V18.5C512,8.3,503.7,0,493.5,0z M18.5,15.8h475.1c1.5,0,2.6,1.2,2.6,2.6
			v250.7H475V37H37v232.3H15.8V18.5C15.9,17,17,15.9,18.5,15.8z M263.9,242.8h29V227h-29v-37h44.9v-15.8h-44.9v-36.9h29v-15.8h-29
			V95h79.2v174.2h-79.2L263.9,242.8z M248.1,79.2v190h-15.8v-99.3l-39.6-92.4l-39.6,92.4v99.3H52.8V52.8h406.4v216.4H358.9v-190
			L248.1,79.2z M173,163.6l19.7-45.9l19.7,45.9H173z M168.9,179.5h15.8v89.7h-15.8V179.5z M200.6,179.5h15.8v89.7h-15.8V179.5z
			 M362,496.2H150l6.6-26.4h198.8L362,496.2z M327.3,453.9H184.7v-58h142.5L327.3,453.9z M493.5,380H18.5c-1.5,0-2.6-1.2-2.6-2.6
			V285h480.3v92.4C496.1,378.8,495,380,493.5,380z"/>
		<polygon class="st0" points="73.9,176.8 89.7,176.8 89.7,95 129.3,95 129.3,79.2 73.9,79.2 		"/>
		<rect x="73.9" y="192.7" class="st0" width="15.8" height="21.1"/>
		<polygon class="st0" points="438.1,203.2 422.3,203.2 422.3,232.3 382.7,232.3 382.7,248.1 438.1,248.1 		"/>
	</g>
</g>
</svg>
