<svg xmlns="http://www.w3.org/2000/svg" viewBox="0 0 511.26 512"><defs><style>.cls-1{fill:#334b61;}.cls-2{fill:#fff;}</style></defs><title>hour-pay</title><g id="Слой_2" data-name="Слой 2"><g id="Layer_1" data-name="Layer 1"><path class="cls-1" d="M8.53,264.53C3.41,264.53,0,261.12,0,256,0,115.2,115.2,0,256,0c65.71,0,128.85,24.75,176.64,70.83a8.45,8.45,0,0,1-11.95,11.95C376.32,40.11,317.44,17.07,256,17.07,124.59,17.07,17.07,124.59,17.07,256,17.07,261.12,13.65,264.53,8.53,264.53Z"/><path class="cls-2" d="M256,435.2A179.2,179.2,0,1,1,435.2,256,179.18,179.18,0,0,1,256,435.2Z"/><path class="cls-1" d="M256,443.73C152.75,443.73,68.27,359.25,68.27,256S152.75,68.27,256,68.27,443.73,152.75,443.73,256,359.25,443.73,256,443.73Zm0-358.4c-93.87,0-170.67,76.8-170.67,170.67S162.13,426.67,256,426.67,426.67,349.87,426.67,256,349.87,85.33,256,85.33Z"/><path class="cls-1" d="M256,418.13c-5.12,0-8.53-3.41-8.53-8.53V392.53c0-5.12,3.41-8.53,8.53-8.53s8.53,3.41,8.53,8.53V409.6C264.53,414.72,261.12,418.13,256,418.13Zm153.6-153.6H392.53c-5.12,0-8.53-3.41-8.53-8.53s3.41-8.53,8.53-8.53H409.6c5.12,0,8.53,3.41,8.53,8.53S414.72,264.53,409.6,264.53Zm-290.13,0H102.4c-5.12,0-8.53-3.41-8.53-8.53s3.41-8.53,8.53-8.53h17.07c5.12,0,8.53,3.41,8.53,8.53S124.59,264.53,119.47,264.53ZM256,128c-5.12,0-8.53-3.41-8.53-8.53V102.4c0-5.12,3.41-8.53,8.53-8.53s8.53,3.41,8.53,8.53v17.07C264.53,124.59,261.12,128,256,128Z"/><path class="cls-1" d="M256,281.6a34.13,34.13,0,1,1,34.13-34.13A34.23,34.23,0,0,1,256,281.6Zm0-51.2a17.07,17.07,0,1,0,17.07,17.07A17.12,17.12,0,0,0,256,230.4Z"/><path class="cls-1" d="M162.13,349.87a7.75,7.75,0,0,1-6-2.56,8.25,8.25,0,0,1,0-11.95l75.95-75.95a8.45,8.45,0,1,1,11.95,11.95l-75.95,75.95A7.75,7.75,0,0,1,162.13,349.87ZM256,230.4c-5.12,0-8.53-3.41-8.53-8.53v-51.2c0-5.12,3.41-8.53,8.53-8.53s8.53,3.41,8.53,8.53v51.2C264.53,227,261.12,230.4,256,230.4ZM435.2,85.33H358.4c-5.12,0-8.53-3.41-8.53-8.53s3.41-8.53,8.53-8.53h59.73V8.53c0-5.12,3.41-8.53,8.53-8.53s8.53,3.41,8.53,8.53Z"/><path class="cls-1" d="M250.88,512a8.55,8.55,0,0,1-8.53-8.53h0a8.55,8.55,0,0,1,8.53-8.53h0c4.27,0,8.53,4.27,8.53,8.53h0c0,5.12-3.41,8.53-8.53,8.53Zm17.07-8.53a10,10,0,0,1,7.68-9.39h0a10,10,0,0,1,9.39,7.68h0a10,10,0,0,1-7.68,9.39h-.85C272.21,511.15,268.8,507.73,267.95,503.47Zm-43.52,6.83a10,10,0,0,1-7.68-9.39h0c.85-5.12,5.12-7.68,9.39-7.68h0a10,10,0,0,1,7.68,9.39h0c-.85,4.27-4.27,7.68-8.53,7.68h-.85Zm69.12-9.39c-.85-4.27,2.56-9.39,6.83-10.24h0c4.27-.85,9.39,1.71,10.24,6.83h0c.85,4.27-2.56,9.39-6.83,10.24h-1.71A8.31,8.31,0,0,1,293.55,500.91Zm-94.72,4.27c-4.27-.85-7.68-6-6.83-10.24h0c.85-4.27,6-7.68,10.24-6.83h0c4.27.85,7.68,6,6.83,10.24h0a8.31,8.31,0,0,1-8.53,6.83h0C199.68,506,198.83,506,198.83,505.17Zm120.32-9.39a7.57,7.57,0,0,1,6-10.24h0c4.27-.85,9.39,1.71,10.24,6h0a7.57,7.57,0,0,1-6,10.24h-2.56A8.2,8.2,0,0,1,319.15,495.79Zm-145.92,2.56c-4.27-1.71-6.83-6.83-5.12-11.09h0c1.71-4.27,6.83-6.83,11.09-5.12h0c4.27,1.71,6.83,6.83,5.12,11.09h0a8.2,8.2,0,0,1-7.68,6h0A6.45,6.45,0,0,0,173.23,498.35ZM343,488.11c-1.71-4.27,0-9.39,4.27-11.09h0c4.27-1.71,9.39,0,11.09,4.27h0c1.71,4.27,0,9.39-4.27,11.09h0c-.85,0-2.56.85-3.41.85h0C348.16,493.23,344.75,490.67,343,488.11Zm-194.56,0c-4.27-1.71-6-6.83-4.27-11.09h0c1.71-4.27,6.83-6,11.09-4.27h0c4.27,1.71,6,6.83,4.27,11.09h0Q157,489,151.89,489h0C151,489,149.33,489,148.48,488.11Zm218.45-10.24c-2.56-4.27-.85-9.39,3.41-11.95h0a7.53,7.53,0,0,1,11.09,3.41h0A7.53,7.53,0,0,1,378,480.43h0c-.85.85-2.56.85-4.27.85h0A5.8,5.8,0,0,1,366.93,477.87Zm-241.49-1.71c-4.27-2.56-5.12-7.68-2.56-11.95h0c2.56-4.27,7.68-5.12,11.95-3.41h0c4.27,2.56,5.12,7.68,2.56,11.95h0a9,9,0,0,1-7.68,4.27h0C128,477,126.29,477,125.44,476.16Zm263.68-11.09c-2.56-4.27-1.71-9.39,1.71-11.95h0c4.27-2.56,9.39-1.71,11.95,2.56h0c2.56,4.27,1.71,9.39-1.71,11.95h0a12.13,12.13,0,0,1-5.12,1.71h0C393.39,468.48,390.83,467.63,389.12,465.07Zm-285.87-3.41c-3.41-2.56-4.27-8.53-1.71-11.95h0c2.56-3.41,8.53-4.27,11.95-1.71h0c3.41,2.56,4.27,8.53,1.71,11.95h0a7.76,7.76,0,0,1-6.83,3.41h0C106.67,462.51,105,462.51,103.25,461.65ZM409.6,449.71c-3.41-3.41-2.56-8.53.85-11.95h0c3.41-3.41,8.53-2.56,11.95.85h0c3.41,3.41,2.56,8.53-.85,11.95h0c-1.71,1.71-3.41,1.71-5.12,1.71h0A5.72,5.72,0,0,1,409.6,449.71ZM82.77,444.59h0a9.14,9.14,0,0,1-.85-11.95h0a9.14,9.14,0,0,1,11.95-.85h0a9.14,9.14,0,0,1,.85,11.95h0a9.22,9.22,0,0,1-6,2.56h0A12.33,12.33,0,0,1,82.77,444.59Zm346.45-11.09a8.25,8.25,0,0,1,0-11.95h0a8.25,8.25,0,0,1,11.95,0h0a8.25,8.25,0,0,1,0,11.95h0a15.82,15.82,0,0,1-6,1.71h0A12.33,12.33,0,0,1,429.23,433.49ZM64,425.81h0c-3.41-3.41-2.56-8.53.85-11.95h0c3.41-3.41,9.39-3.41,11.95,0h0c3.41,3.41,2.56,8.53-.85,11.95h0c-1.71,1.71-3.41,1.71-6,1.71h0C68.27,428.37,65.71,427.52,64,425.81Zm382.29-11.95c-3.41-2.56-4.27-8.53-1.71-11.95h0c2.56-3.41,8.53-4.27,11.95-1.71h0c3.41,2.56,4.27,8.53,1.71,11.95h0a7.76,7.76,0,0,1-6.83,3.41h0C449.71,416.43,448,415.57,446.29,413.87ZM47.79,404.48h0c-2.56-3.41-1.71-8.53,1.71-11.95h0c4.27-2.56,9.39-1.71,11.95,1.71h0c2.56,4.27,1.71,9.39-1.71,11.95h0a12.13,12.13,0,0,1-5.12,1.71h0C52.05,408.75,49.49,407,47.79,404.48Zm413.87-11.09c-4.27-2.56-5.12-7.68-2.56-11.95h0c2.56-4.27,7.68-5.12,11.95-2.56h0c4.27,2.56,5.12,7.68,2.56,11.95h0c-1.71,2.56-4.27,4.27-6.83,4.27h0A12.13,12.13,0,0,1,461.65,393.39ZM33.28,382.29c-2.56-4.27-.85-9.39,3.41-11.95h0c4.27-2.56,9.39-.85,11.95,3.41h0c2.56,4.27.85,9.39-3.41,11.95h0a7.69,7.69,0,0,1-4.27.85h0A9,9,0,0,1,33.28,382.29Zm441.17-10.24c-4.27-1.71-6-6.83-4.27-11.09h0c1.71-4.27,6.83-6,11.09-4.27h0c4.27,1.71,6,6.83,4.27,11.09h0q-2.56,5.12-7.68,5.12h0C477,372.91,476.16,372.05,474.45,372.05ZM21.33,359.25c-1.71-4.27,0-9.39,4.27-11.09h0c4.27-1.71,9.39,0,11.09,4.27h0c1.71,4.27,0,9.39-4.27,11.09h0c-.85.85-2.56.85-3.41.85h0C26.45,364.37,23,361.81,21.33,359.25Zm464.21-11.09c-4.27-1.71-6.83-6.83-5.12-11.09h0c1.71-4.27,6.83-6.83,11.09-5.12h0c4.27,1.71,6.83,6.83,5.12,11.09h0a8.2,8.2,0,0,1-7.68,6h0C487.25,349,486.4,349,485.55,348.16ZM11.95,334.51c-1.71-4.27.85-9.39,5.12-11.09h0a7.57,7.57,0,0,1,10.24,6h0c1.71,4.27-.85,9.39-5.12,11.09H19.63C17.07,339.63,13.65,337.92,11.95,334.51Zm482.13-10.24c-4.27-.85-7.68-6-6-10.24h0c.85-4.27,6-7.68,10.24-6h0c4.27.85,7.68,6,6,10.24h0a8.31,8.31,0,0,1-8.53,6.83h0C494.93,324.27,494.93,324.27,494.08,324.27Zm-489-15.36h0c-.85-4.27,1.71-9.39,6.83-10.24h0c4.27-.85,9.39,1.71,10.24,6.83h0c.85,4.27-1.71,9.39-6.83,10.24H13.65A9.19,9.19,0,0,1,5.12,308.91Zm494.93-9.39c-5.12-.85-8.53-5.12-7.68-9.39h0a10,10,0,0,1,9.39-7.68h0a10,10,0,0,1,7.68,9.39h0c-.85,4.27-4.27,7.68-8.53,7.68h-.85ZM1.71,282.45c-.85-4.27,2.56-8.53,7.68-9.39h0c4.27-.85,8.53,2.56,9.39,7.68h0c.85,4.27-2.56,8.53-7.68,9.39h-.85C5.12,290.13,1.71,286.72,1.71,282.45Zm500.91-8.53c-4.27,0-8.53-4.27-8.53-8.53h0c0-4.27,4.27-8.53,8.53-8.53h0c4.27,0,8.53,4.27,8.53,8.53h0c.85,5.12-3.41,8.53-8.53,8.53ZM0,256c0-5.12,3.41-8.53,8.53-8.53h0A8.55,8.55,0,0,1,17.07,256h0c0,4.27-4.27,8.53-8.53,8.53h0A8.55,8.55,0,0,1,0,256Z"/></g></g></svg>