<?xml version="1.0" encoding="utf-8"?>
<!-- Generator: Adobe Illustrator 21.0.0, SVG Export Plug-In . SVG Version: 6.00 Build 0)  -->
<svg version="1.1" id="Слой_1" xmlns="http://www.w3.org/2000/svg" xmlns:xlink="http://www.w3.org/1999/xlink" x="0px" y="0px"
	 viewBox="0 0 511.3 512" style="enable-background:new 0 0 511.3 512;" xml:space="preserve">
<style type="text/css">
	.st0{fill:#334B61;}
	.st1{fill:#FFFFFF;}
</style>
<g id="Слой_2">
	<g id="Layer_1">
		<path class="st0" d="M8.5,264.5c-5.1,0-8.5-3.4-8.5-8.5C0,115.2,115.2,0,256,0c65.7,0,128.9,24.8,176.6,70.8c3.3,3.3,3.3,8.7,0,12
			c-3.3,3.3-8.6,3.3-11.9,0C376.3,40.1,317.4,17.1,256,17.1C124.6,17.1,17.1,124.6,17.1,256C17.1,261.1,13.6,264.5,8.5,264.5z"/>
		<path class="st1" d="M256,435.2C157,435.2,76.8,355,76.8,256S157,76.8,256,76.8S435.2,157,435.2,256
			C435.2,355,355,435.2,256,435.2C256,435.2,256,435.2,256,435.2z"/>
		<path class="st0" d="M256,443.7c-103.3,0-187.7-84.5-187.7-187.7S152.8,68.3,256,68.3S443.7,152.8,443.7,256
			S359.3,443.7,256,443.7z M256,85.3c-93.9,0-170.7,76.8-170.7,170.7S162.1,426.7,256,426.7S426.7,349.9,426.7,256
			S349.9,85.3,256,85.3L256,85.3z"/>
		<path class="st0" d="M256,418.1c-5.1,0-8.5-3.4-8.5-8.5v-17.1c0-5.1,3.4-8.5,8.5-8.5s8.5,3.4,8.5,8.5v17.1
			C264.5,414.7,261.1,418.1,256,418.1z M409.6,264.5h-17.1c-5.1,0-8.5-3.4-8.5-8.5s3.4-8.5,8.5-8.5h17.1c5.1,0,8.5,3.4,8.5,8.5
			S414.7,264.5,409.6,264.5z M119.5,264.5h-17.1c-5.1,0-8.5-3.4-8.5-8.5s3.4-8.5,8.5-8.5h17.1c5.1,0,8.5,3.4,8.5,8.5
			S124.6,264.5,119.5,264.5z M256,128c-5.1,0-8.5-3.4-8.5-8.5v-17.1c0-5.1,3.4-8.5,8.5-8.5s8.5,3.4,8.5,8.5v17.1
			C264.5,124.6,261.1,128,256,128z"/>
		<path class="st0" d="M256,281.6c-18.8,0-34.1-15.3-34.1-34.1c0-18.8,15.3-34.1,34.1-34.1c18.8,0,34.1,15.3,34.1,34.1
			C290.1,266.3,274.8,281.5,256,281.6z M256,230.4c-9.4,0-17.1,7.6-17.1,17.1s7.6,17.1,17.1,17.1c9.4,0,17.1-7.6,17.1-17.1
			C273,238.1,265.4,230.4,256,230.4L256,230.4z"/>
		<path class="st0" d="M162.1,349.9c-2.3,0.1-4.5-0.9-6-2.6c-3.3-3.1-3.4-8.4-0.3-11.7c0.1-0.1,0.2-0.2,0.3-0.3l75.9-76
			c3.3-3.3,8.6-3.3,12,0c3.3,3.3,3.3,8.6,0,11.9c0,0,0,0,0,0l-75.9,76C166.6,349,164.4,349.9,162.1,349.9z M256,230.4
			c-5.1,0-8.5-3.4-8.5-8.5v-51.2c0-5.1,3.4-8.5,8.5-8.5s8.5,3.4,8.5,8.5v51.2C264.5,227,261.1,230.4,256,230.4z M435.2,85.3h-76.8
			c-5.1,0-8.5-3.4-8.5-8.5s3.4-8.5,8.5-8.5h59.7V8.5c0-5.1,3.4-8.5,8.5-8.5s8.5,3.4,8.5,8.5L435.2,85.3z"/>
		<path class="st0" d="M250.9,512c-4.7,0-8.5-3.8-8.5-8.5l0,0c0-4.7,3.8-8.5,8.5-8.5l0,0c4.3,0,8.5,4.3,8.5,8.5l0,0
			C259.4,508.6,256,512,250.9,512z M268,503.5c0.2-4.5,3.3-8.3,7.7-9.4l0,0c4.5,0.2,8.3,3.3,9.4,7.7l0,0c-0.2,4.5-3.3,8.3-7.7,9.4
			h-0.9C272.2,511.2,268.8,507.7,268,503.5z M224.4,510.3c-4.4-1-7.5-4.9-7.7-9.4l0,0c0.9-5.1,5.1-7.7,9.4-7.7l0,0
			c4.4,1,7.5,4.9,7.7,9.4l0,0c-0.9,4.3-4.3,7.7-8.5,7.7H224.4L224.4,510.3z M293.6,500.9c-0.9-4.3,2.6-9.4,6.8-10.2l0,0
			c4.3-0.9,9.4,1.7,10.2,6.8l0,0c0.9,4.3-2.6,9.4-6.8,10.2h-1.7C297.9,507.9,294.3,505,293.6,500.9L293.6,500.9z M198.8,505.2
			c-4.3-0.9-7.7-6-6.8-10.2l0,0c0.9-4.3,6-7.7,10.2-6.8l0,0c4.3,0.9,7.7,6,6.8,10.2l0,0c-0.7,4.1-4.4,7-8.5,6.8l0,0
			C199.7,506,198.8,506,198.8,505.2L198.8,505.2z M319.2,495.8c-1.5-3.9,0.4-8.3,4.3-9.8c0.5-0.2,1.1-0.4,1.7-0.4l0,0
			c4.3-0.9,9.4,1.7,10.2,6l0,0c1.5,3.9-0.4,8.3-4.3,9.8c-0.5,0.2-1.1,0.4-1.7,0.4h-2.6C323.2,501.7,320.1,499.3,319.2,495.8
			L319.2,495.8z M173.2,498.3c-4.3-1.7-6.8-6.8-5.1-11.1l0,0c1.7-4.3,6.8-6.8,11.1-5.1l0,0c4.3,1.7,6.8,6.8,5.1,11.1l0,0
			c-1,3.5-4.1,5.9-7.7,6l0,0C175.6,498.6,174.4,498.3,173.2,498.3L173.2,498.3z M343,488.1c-1.7-4.3,0-9.4,4.3-11.1l0,0
			c4.3-1.7,9.4,0,11.1,4.3l0,0c1.7,4.3,0,9.4-4.3,11.1l0,0c-0.9,0-2.6,0.9-3.4,0.9l0,0C348.2,493.2,344.8,490.7,343,488.1z
			 M148.4,488.1c-4.3-1.7-6-6.8-4.3-11.1l0,0c1.7-4.3,6.8-6,11.1-4.3l0,0c4.3,1.7,6,6.8,4.3,11.1l0,0c-1.7,3.4-4.2,5.2-7.6,5.2l0,0
			C151,489,149.3,489,148.4,488.1L148.4,488.1z M366.9,477.9c-2.6-4.3-0.9-9.4,3.4-12l0,0c3.5-2.3,8.1-1.3,10.4,2.2
			c0.3,0.4,0.5,0.8,0.7,1.3l0,0c2.3,3.5,1.3,8.1-2.1,10.4c-0.4,0.3-0.8,0.5-1.3,0.7l0,0c-0.9,0.9-2.6,0.9-4.3,0.9l0,0
			C370.9,482,368,480.5,366.9,477.9L366.9,477.9z M125.4,476.2c-4.3-2.6-5.1-7.7-2.6-12l0,0c2.6-4.3,7.7-5.1,11.9-3.4l0,0
			c4.3,2.6,5.1,7.7,2.6,12l0,0c-1.6,2.7-4.6,4.3-7.7,4.3l0,0C128,477,126.3,477,125.4,476.2L125.4,476.2z M389.1,465.1
			c-2.6-4.3-1.7-9.4,1.7-12l0,0c4.3-2.6,9.4-1.7,12,2.6l0,0c2.6,4.3,1.7,9.4-1.7,12l0,0c-1.6,0.9-3.3,1.5-5.1,1.7l0,0
			C393.4,468.5,390.8,467.6,389.1,465.1L389.1,465.1z M103.2,461.7c-3.4-2.6-4.3-8.5-1.7-12l0,0c2.6-3.4,8.5-4.3,11.9-1.7l0,0
			c3.4,2.6,4.3,8.5,1.7,12l0,0c-1.5,2.3-4.1,3.5-6.8,3.4l0,0C106.7,462.5,105,462.5,103.2,461.7L103.2,461.7z M409.6,449.7
			c-3.4-3.4-2.6-8.5,0.9-12l0,0c3.4-3.4,8.5-2.6,12,0.9l0,0c3.4,3.4,2.6,8.5-0.9,12l0,0c-1.7,1.7-3.4,1.7-5.1,1.7l0,0
			C413.8,453.2,411,452.1,409.6,449.7z M82.8,444.6L82.8,444.6c-3.2-3.2-3.6-8.3-0.8-12l0,0c3.2-3.2,8.3-3.6,11.9-0.9l0,0
			c3.2,3.2,3.6,8.3,0.8,12l0,0c-1.6,1.6-3.8,2.5-6,2.6l0,0C86.6,446.2,84.6,445.7,82.8,444.6z M429.2,433.5
			c-3.3-3.1-3.4-8.4-0.3-11.7c0.1-0.1,0.2-0.2,0.3-0.3l0,0c3.1-3.3,8.4-3.4,11.7-0.3c0.1,0.1,0.2,0.2,0.3,0.3l0,0
			c3.3,3.1,3.4,8.4,0.3,11.7c-0.1,0.1-0.2,0.2-0.3,0.3l0,0c-1.9,1-3.9,1.5-6,1.7l0,0C433.1,435.2,431,434.6,429.2,433.5L429.2,433.5
			z M64,425.8L64,425.8c-3.4-3.4-2.6-8.5,0.8-12l0,0c3.4-3.4,9.4-3.4,11.9,0l0,0c3.4,3.4,2.6,8.5-0.8,12l0,0c-1.7,1.7-3.4,1.7-6,1.7
			l0,0C68.3,428.4,65.7,427.5,64,425.8z M446.3,413.9c-3.4-2.6-4.3-8.5-1.7-12l0,0c2.6-3.4,8.5-4.3,12-1.7l0,0
			c3.4,2.6,4.3,8.5,1.7,12l0,0c-1.5,2.3-4.1,3.5-6.8,3.4l0,0C449.7,416.4,448,415.6,446.3,413.9L446.3,413.9z M47.8,404.5
			L47.8,404.5c-2.6-3.4-1.7-8.5,1.7-12l0,0c4.3-2.6,9.4-1.7,12,1.7l0,0c2.6,4.3,1.7,9.4-1.7,12l0,0c-1.6,0.9-3.3,1.5-5.1,1.7l0,0
			C52,408.8,49.5,407,47.8,404.5z M461.7,393.4c-4.3-2.6-5.1-7.7-2.6-12l0,0c2.6-4.3,7.7-5.1,12-2.6l0,0c4.3,2.6,5.1,7.7,2.6,12l0,0
			c-1.7,2.6-4.3,4.3-6.8,4.3l0,0C465,394.9,463.2,394.3,461.7,393.4L461.7,393.4z M33.3,382.3c-2.6-4.3-0.8-9.4,3.4-12l0,0
			c4.3-2.6,9.4-0.9,12,3.4l0,0c2.6,4.3,0.8,9.4-3.4,12l0,0c-1.3,0.7-2.8,1-4.3,0.9l0,0C37.8,386.6,34.9,384.9,33.3,382.3z
			 M474.5,372.1c-4.3-1.7-6-6.8-4.3-11.1l0,0c1.7-4.3,6.8-6,11.1-4.3l0,0c4.3,1.7,6,6.8,4.3,11.1l0,0c-1.7,3.4-4.3,5.1-7.7,5.1l0,0
			C477,372.9,476.2,372.1,474.5,372.1L474.5,372.1z M21.3,359.3c-1.7-4.3,0-9.4,4.3-11.1l0,0c4.3-1.7,9.4,0,11.1,4.3l0,0
			c1.7,4.3,0,9.4-4.3,11.1l0,0c-0.9,0.9-2.6,0.9-3.4,0.9l0,0C26.5,364.4,23,361.8,21.3,359.3z M485.5,348.2
			c-4.3-1.7-6.8-6.8-5.1-11.1l0,0c1.7-4.3,6.8-6.8,11.1-5.1l0,0c4.3,1.7,6.8,6.8,5.1,11.1l0,0c-1,3.5-4.1,5.9-7.7,6l0,0
			C487.3,349,486.4,349,485.5,348.2L485.5,348.2z M11.9,334.5c-1.7-4.3,0.9-9.4,5.1-11.1l0,0c3.9-1.5,8.3,0.4,9.8,4.3
			c0.2,0.5,0.4,1.1,0.4,1.7l0,0c1.7,4.3-0.9,9.4-5.1,11.1h-2.6C17.1,339.6,13.6,337.9,11.9,334.5z M494.1,324.3
			c-4.3-0.9-7.7-6-6-10.2l0,0c0.9-4.3,6-7.7,10.2-6l0,0c4.3,0.9,7.7,6,6,10.2l0,0c-0.7,4.1-4.4,7-8.5,6.8l0,0
			C494.9,324.3,494.9,324.3,494.1,324.3L494.1,324.3z M5.1,308.9L5.1,308.9c-0.8-4.3,1.7-9.4,6.8-10.2l0,0c4.3-0.9,9.4,1.7,10.2,6.8
			l0,0c0.9,4.3-1.7,9.4-6.8,10.2h-1.7C9.6,315.6,6.2,312.8,5.1,308.9L5.1,308.9z M500,299.5c-5.1-0.9-8.5-5.1-7.7-9.4l0,0
			c1-4.4,4.9-7.5,9.4-7.7l0,0c4.4,1,7.5,4.9,7.7,9.4l0,0c-0.9,4.3-4.3,7.7-8.5,7.7H500L500,299.5z M1.7,282.5
			c-0.9-4.3,2.6-8.5,7.7-9.4l0,0c4.3-0.9,8.5,2.6,9.4,7.7l0,0c0.9,4.3-2.6,8.5-7.7,9.4h-0.9C5.1,290.1,1.7,286.7,1.7,282.5z
			 M502.6,273.9c-4.3,0-8.5-4.3-8.5-8.5l0,0c0-4.3,4.3-8.5,8.5-8.5l0,0c4.3,0,8.5,4.3,8.5,8.5l0,0
			C512,270.5,507.7,273.9,502.6,273.9z M0,256c0-5.1,3.4-8.5,8.5-8.5l0,0c4.7,0,8.5,3.8,8.5,8.5l0,0c0,4.3-4.3,8.5-8.5,8.5l0,0
			C3.8,264.5,0,260.7,0,256z"/>
	</g>
</g>
</svg>
