<svg xmlns="http://www.w3.org/2000/svg" viewBox="0 0 459.22 512"><defs><style>.cls-1{fill:#334b61;}</style></defs><title>html</title><g id="Слой_2" data-name="Слой 2"><g id="Layer_1" data-name="Layer 1"><path class="cls-1" d="M459.22,184.74H432.82v-107L321.84,0H26.39V184.74H0V390.6H26.39V512H432.82V390.6h26.39Zm-132-161.59L399.54,73.9H327.26Zm-285-7.32h269.2v73.9H417v95H42.23ZM417,496.16H42.23V390.6H417Zm26.39-121.4H15.84V200.58H443.38Z"/><rect class="cls-1" x="87.09" y="432.82" width="285.03" height="15.84"/><rect class="cls-1" x="409.07" y="216.41" width="21.11" height="15.84"/><rect class="cls-1" x="409.07" y="343.09" width="21.11" height="15.84"/><rect class="cls-1" x="29.03" y="343.09" width="21.11" height="15.84"/><rect class="cls-1" x="29.03" y="216.41" width="21.11" height="15.84"/><polygon class="cls-1" points="118.83 54.74 69.79 97.65 118.83 140.56 129.25 128.64 93.84 97.65 129.25 66.66 118.83 54.74"/><rect class="cls-1" x="106.65" y="92.38" width="113.95" height="15.83" transform="translate(28.16 236.24) rotate(-76.61)"/><polygon class="cls-1" points="203.28 66.66 238.7 97.65 203.28 128.64 213.71 140.56 262.75 97.65 213.71 54.74 203.28 66.66"/><polygon class="cls-1" points="89.73 292.95 129.32 292.95 129.32 340.45 145.16 340.45 145.16 229.61 129.32 229.61 129.32 277.11 89.73 277.11 89.73 229.61 73.9 229.61 73.9 340.45 89.73 340.45 89.73 292.95"/><polygon class="cls-1" points="180.12 340.45 195.96 340.45 195.96 246.76 220.37 246.76 220.37 230.93 155.71 230.93 155.71 246.76 180.12 246.76 180.12 340.45"/><path class="cls-1" d="M246.76,252.07c6.18,10.59,14.73,26.68,21.95,41.12l7.08,14.16,7.08-14.16c7.22-14.44,15.77-30.53,21.95-41.12v88.38h15.84V238.85a12.28,12.28,0,0,0-12.54-12.54c-5.11,0-8.36,3.82-13.71,12.38-3,4.73-6.71,11.29-11.14,19.48-2.65,4.88-5.23,9.79-7.47,14.1-2.24-4.31-4.83-9.21-7.47-14.1-4.43-8.19-8.18-14.74-11.14-19.48-5.35-8.56-8.6-12.38-13.71-12.38a12.28,12.28,0,0,0-12.54,12.54V340.45h15.84Z"/><polygon class="cls-1" points="391.26 323.3 348.37 323.3 348.37 229.61 332.54 229.61 332.54 339.13 391.26 339.13 391.26 323.3"/></g></g></svg>