<svg xmlns="http://www.w3.org/2000/svg" viewBox="0 0 533.92 595.28"><defs><style>.cls-1{fill:#fff;}.cls-2{fill:#3d4a5a;}</style></defs><title>html</title><g id="Слой_2" data-name="Слой 2"><g id="Слой_1-2" data-name="Слой 1"><g id="Слой_2-2" data-name="Слой 2"><g id="Слой_1-2-2" data-name="Слой 1-2"><g id="Слой_2-2-2" data-name="Слой 2-2"><rect class="cls-1" x="30.68" width="472.54" height="595.28"/><rect class="cls-1" y="214.79" width="519.46" height="227.35"/></g><g id="Layer_1" data-name="Layer 1"><path class="cls-2" d="M503.22,214.79V90.44L374.19,0H30.68V214.79H0V454.13H30.68V595.28H503.23V454.13h30.69V214.79ZM380.49,26.92l84,59h-84ZM49.09,18.41h313v85.92H484.82V214.79H49.09ZM484.82,576.87H49.09V454.13H484.82ZM515.5,435.72H18.41V233.2H515.5Z"/><rect class="cls-2" x="101.26" y="503.23" width="331.39" height="18.41"/><rect class="cls-2" x="475.61" y="251.61" width="24.55" height="18.41"/><rect class="cls-2" x="475.61" y="398.9" width="24.55" height="18.41"/><rect class="cls-2" x="33.75" y="398.9" width="24.55" height="18.41"/><rect class="cls-2" x="33.75" y="251.61" width="24.55" height="18.41"/><polygon class="cls-2" points="150.28 77.5 138.16 63.65 81.14 113.53 138.16 163.42 150.28 149.56 109.1 113.53 150.28 77.5"/><rect class="cls-2" x="123.99" y="107.4" width="132.48" height="18.41" transform="translate(32.74 274.66) rotate(-76.61)"/><polygon class="cls-2" points="248.47 63.65 236.35 77.5 277.52 113.53 236.35 149.56 248.47 163.42 305.48 113.53 248.47 63.65"/><polygon class="cls-2" points="150.35 266.95 150.35 322.19 104.33 322.19 104.33 266.95 85.92 266.95 85.92 395.83 104.33 395.83 104.33 340.6 150.35 340.6 150.35 395.83 168.76 395.83 168.76 266.95 150.35 266.95"/><polygon class="cls-2" points="181.04 268.49 181.04 286.9 209.42 286.9 209.42 395.83 227.83 395.83 227.83 286.9 256.22 286.9 256.22 268.49 181.04 268.49"/><path class="cls-2" d="M358.24,263.12c-6,0-9.72,4.44-15.94,14.4-3.44,5.51-7.8,13.12-13,22.64-3.08,5.68-6.08,11.38-8.69,16.39-2.6-5-5.61-10.71-8.69-16.39-5.16-9.52-9.52-17.14-13-22.64-6.22-10-10-14.4-15.94-14.4-9.47,0-14.58,7.51-14.58,14.58V395.83h18.5V293.07c7.19,12.31,17.13,31,25.52,47.81l8.23,16.47,8.23-16.47c8.39-16.79,18.33-35.5,25.52-47.81V395.83h18.41V277.69C372.82,270.63,367.71,263.12,358.24,263.12Z"/><polygon class="cls-2" points="405.04 375.89 405.04 266.95 386.63 266.95 386.63 394.3 454.9 394.3 454.9 375.89 405.04 375.89"/></g></g></g></g></g></svg>