<?xml version="1.0" encoding="utf-8"?>
<!-- Generator: Adobe Illustrator 21.0.0, SVG Export Plug-In . SVG Version: 6.00 Build 0)  -->
<svg version="1.1" id="Слой_1" xmlns="http://www.w3.org/2000/svg" xmlns:xlink="http://www.w3.org/1999/xlink" x="0px" y="0px"
	 viewBox="0 0 459.2 512" style="enable-background:new 0 0 459.2 512;" xml:space="preserve">
<style type="text/css">
	.st0{fill:#334B61;}
</style>
<g id="Слой_2">
	<g id="Layer_1">
		<path class="st0" d="M459.2,184.7h-26.4v-107L321.8,0H26.4v184.7H0v205.9h26.4V512h406.4V390.6h26.4L459.2,184.7z M327.2,23.2
			l72.3,50.7h-72.3L327.2,23.2z M42.2,15.8h269.2v73.9H417v95H42.2L42.2,15.8z M417,496.2H42.2V390.6H417V496.2z M443.4,374.8H15.8
			V200.6h427.5L443.4,374.8z"/>
		<rect x="87.1" y="432.8" class="st0" width="285" height="15.8"/>
		<rect x="409.1" y="216.4" class="st0" width="21.1" height="15.8"/>
		<rect x="409.1" y="343.1" class="st0" width="21.1" height="15.8"/>
		<rect x="29" y="343.1" class="st0" width="21.1" height="15.8"/>
		<rect x="29" y="216.4" class="st0" width="21.1" height="15.8"/>
		<polygon class="st0" points="118.8,54.7 69.8,97.7 118.8,140.6 129.3,128.6 93.8,97.7 129.3,66.7 		"/>
		
			<rect x="106.6" y="92.4" transform="matrix(0.2316 -0.9728 0.9728 0.2316 28.1668 236.2371)" class="st0" width="114" height="15.8"/>
		<polygon class="st0" points="203.3,66.7 238.7,97.7 203.3,128.6 213.7,140.6 262.8,97.7 213.7,54.7 		"/>
		<polygon class="st0" points="89.7,293 129.3,293 129.3,340.5 145.2,340.5 145.2,229.6 129.3,229.6 129.3,277.1 89.7,277.1 
			89.7,229.6 73.9,229.6 73.9,340.5 89.7,340.5 		"/>
		<polygon class="st0" points="180.1,340.5 196,340.5 196,246.8 220.4,246.8 220.4,230.9 155.7,230.9 155.7,246.8 180.1,246.8 		"/>
		<path class="st0" d="M246.8,252.1c6.2,10.6,14.7,26.7,21.9,41.1l7.1,14.2l7.1-14.2c7.2-14.4,15.8-30.5,22-41.1v88.4h15.8V238.9
			c0.1-6.8-5.2-12.4-12-12.5c-0.2,0-0.4,0-0.5,0c-5.1,0-8.4,3.8-13.7,12.4c-3,4.7-6.7,11.3-11.1,19.5c-2.6,4.9-5.2,9.8-7.5,14.1
			c-2.2-4.3-4.8-9.2-7.5-14.1c-4.4-8.2-8.2-14.7-11.1-19.5c-5.4-8.6-8.6-12.4-13.7-12.4c-6.8-0.1-12.4,5.2-12.5,12
			c0,0.2,0,0.4,0,0.5v101.6h15.8L246.8,252.1z"/>
		<polygon class="st0" points="391.3,323.3 348.4,323.3 348.4,229.6 332.5,229.6 332.5,339.1 391.3,339.1 		"/>
	</g>
</g>
</svg>
