<?xml version="1.0" encoding="utf-8"?>
<!-- Generator: Adobe Illustrator 21.0.0, SVG Export Plug-In . SVG Version: 6.00 Build 0)  -->
<svg version="1.1" id="Слой_1" xmlns="http://www.w3.org/2000/svg" xmlns:xlink="http://www.w3.org/1999/xlink" x="0px" y="0px"
	 viewBox="0 0 491.5 491.5" style="enable-background:new 0 0 491.5 491.5;" xml:space="preserve">
<style type="text/css">
	.st0{fill:#334B61;}
</style>
<path id="Слой_2" class="st0" d="M460.8,230.5V215c0-118.6-96.5-215-215-215s-215,96.5-215,215v15.5
	c-33.9,25.4-40.9,73.4-15.5,107.4c14.5,19.4,37.3,30.8,61.5,30.8h15.4V215H76.8c-8.7,0-17.4,1.5-25.6,4.5V215
	c0-107.3,87.3-194.6,194.6-194.6S440.3,107.8,440.3,215v4.5c-8.2-2.9-16.9-4.5-25.6-4.5h-15.4v153.6h15.4c5.2,0,10.3-0.5,15.4-1.5
	v63c0,11.3-9.2,20.5-20.5,20.5H295.1c-4.3-12.2-15.9-20.4-28.8-20.5h-30.7c-17,0-30.7,13.8-30.7,30.7s13.8,30.7,30.7,30.7h30.7
	c13,0,24.5-8.2,28.8-20.5h114.5c22.6,0,41-18.4,41-41l0,0v-70.3c37.4-19.7,51.8-66,32.1-103.5C477.4,246.1,469.9,237.4,460.8,230.5z
	 M71.7,235.8V348c-31-2.8-53.8-30.2-51-61.2C23.1,259.7,44.6,238.2,71.7,235.8z M266.2,471h-30.7c-5.7,0-10.2-4.6-10.2-10.2
	c0-5.7,4.6-10.2,10.2-10.2h30.7c5.7,0,10.2,4.6,10.2,10.2C276.5,466.4,271.9,471,266.2,471z M419.8,347.9V235.8
	c31,2.8,53.8,30.2,51,61.2C468.4,324,446.9,345.5,419.8,347.9L419.8,347.9z M122.9,143.4v163.8h20.5v37.9l68.1-37.9h157.2V143.4
	H122.9z M348.2,286.7h-142l-42.3,23.5v-23.5h-20.6V163.8h204.8v122.9H348.2z M163.9,194.6h163.8v20.5H163.9V194.6z M194.7,235.5
	h102.4V256H194.7V235.5z"/>
</svg>
