<svg xmlns="http://www.w3.org/2000/svg" viewBox="0 0 491.52 491.52"><defs><style>.cls-1{fill:#334b61;}</style></defs><title>manager</title><g id="Слой_2" data-name="Слой 2"><g id="Layer_1" data-name="Layer 1"><path class="cls-1" d="M460.8,230.54V215c0-118.57-96.47-215-215-215s-215,96.46-215,215v15.51A76.7,76.7,0,0,0,76.8,368.64H92.16V215H76.8a76.28,76.28,0,0,0-25.6,4.48V215c0-107.28,87.28-194.56,194.56-194.56S440.32,107.76,440.32,215v4.48a76.28,76.28,0,0,0-25.6-4.48H399.36v153.6h15.36a76.83,76.83,0,0,0,15.36-1.55v63a20.5,20.5,0,0,1-20.48,20.48H295.07a30.67,30.67,0,0,0-28.83-20.48H235.52a30.72,30.72,0,0,0,0,61.44h30.72A30.67,30.67,0,0,0,295.07,471H409.6a41,41,0,0,0,41-41V359.71A76.62,76.62,0,0,0,460.8,230.54ZM71.68,235.75V347.93a56.32,56.32,0,0,1,0-112.18ZM266.24,471H235.52a10.24,10.24,0,1,1,0-20.48h30.72a10.24,10.24,0,1,1,0,20.48Zm153.6-123.11V235.75a56.32,56.32,0,0,1,0,112.18Z"/><path class="cls-1" d="M122.88,143.36V307.2H143.4v37.9l68.09-37.9H368.68V143.36ZM348.2,286.72h-142l-42.29,23.54V286.72H143.36V163.84H348.2Z"/><rect class="cls-1" x="163.94" y="194.56" width="163.84" height="20.48"/><rect class="cls-1" x="194.66" y="235.52" width="102.4" height="20.48"/></g></g></svg>