<?xml version="1.0" encoding="utf-8"?>
<!-- Generator: Adobe Illustrator 21.0.0, SVG Export Plug-In . SVG Version: 6.00 Build 0)  -->
<svg version="1.1" id="Слой_1" xmlns="http://www.w3.org/2000/svg" xmlns:xlink="http://www.w3.org/1999/xlink" x="0px" y="0px"
	 viewBox="0 0 520.5 566.9" style="enable-background:new 0 0 520.5 566.9;" xml:space="preserve">
<style type="text/css">
	.st0{fill:#334B61;}
</style>
<path class="st0" d="M270.8,261H240v-59.2h33.3c5.4,0,10.4,0.5,15,1.6c4.6,1.1,8.7,2.7,12.1,5.1c3.5,2.3,6.2,5.3,8.2,9
	c2,3.7,3,8.1,3,13.4c0,6.1-1.1,11.1-3.3,15c-2.2,3.9-5.2,6.9-8.9,9.2c-3.7,2.3-8.1,3.8-13.1,4.7C281.5,260.6,276.3,261,270.8,261z
	 M476.2,316c-5.2,20.2-13.2,39.5-23.8,57.4l31.3,31.3l-78.9,78.9l-31.3-31.3c-3.7,2.1-7.6,4.2-11.7,6.3c2.7,11.5-2.3,23.4-12.3,29.6
	c7.5,12.9,3.4,29.4-9.3,37.2c2.4,4.2,3.7,8.9,3.7,13.7c0,15.4-12.5,27.9-27.9,27.9H204.5c-15.4,0-27.9-12.5-27.9-27.9
	c0-4.8,1.3-9.5,3.7-13.6c-12.7-7.8-16.8-24.3-9.3-37.2c-10-6.2-14.9-18.1-12.3-29.6c-4.1-2.1-8.1-4.1-11.7-6.3l-31.4,31.3
	l-78.9-78.9l31.3-31.3c-10.6-17.9-18.6-37.3-23.8-57.5H0V204.5h44.3c5.2-20.2,13.2-39.6,23.8-57.5l-31.3-31.4l78.9-78.8L147,68.1
	c17.9-10.6,37.3-18.6,57.5-23.8V0H316v44.3c20.2,5.2,39.5,13.2,57.5,23.8l31.3-31.3l78.9,78.9L452.4,147
	c10.6,17.9,18.6,37.3,23.8,57.5h44.3V316H476.2z M325.3,539c0-5.1-4.2-9.3-9.3-9.3H204.5c-5.1,0-9.3,4.2-9.3,9.3
	c0,5.1,4.2,9.3,9.3,9.3H316C321.1,548.3,325.3,544.2,325.3,539z M334.6,501.9c0-5.1-4.2-9.3-9.3-9.3H195.2c-5.1,0-9.3,4.2-9.3,9.3
	c0,5.1,4.2,9.3,9.3,9.3h130.1C330.4,511.2,334.6,507,334.6,501.9z M343.9,464.7c0-5.1-4.2-9.3-9.3-9.3H185.9c-5.1,0-9.3,4.2-9.3,9.3
	s4.2,9.3,9.3,9.3h148.7C339.7,474,343.9,469.8,343.9,464.7z M216.4,281.5v17.6h-12.2v16.8h12.2v45H240v-45h71.7v-16.8H240v-17.6
	h30.8c8.4,0,16.5-0.8,24.4-2.3c7.9-1.5,14.8-4.3,20.9-8.1c6.1-3.9,10.9-9.1,14.6-15.6c3.7-6.5,5.5-14.7,5.5-24.7
	c0-9.8-2.5-18.8-7.4-27c-5-8.1-11.6-13.8-19.9-17c-8.2-3.3-20.3-4.9-36.4-4.9h-56v79h-12.2v20.5H216.4z M461.4,297.4h40.4V223h-40.5
	l-1.6-7.3c-5.1-23.1-14.3-45.2-27-65.2l-4-6.3l28.6-28.6L404.8,63l-28.6,28.6l-6.3-4c-20-12.7-42.1-21.9-65.2-27l-7.3-1.6V18.6
	h-74.3v40.5l-7.3,1.6c-23.1,5.1-45.2,14.3-65.2,27l-6.3,4l-28.6-28.6l-52.6,52.6l28.6,28.6l-4,6.3c-12.7,20-21.9,42.1-27,65.2
	L59,223H18.6v74.4h40.5l1.6,7.3c5.1,23.1,14.3,45.2,27,65.2l4,6.3l-28.6,28.6l52.6,52.6l28.6-28.6l6.3,4c5.9,3.7,12,7,18.2,10
	c2.4-1.9,5-3.3,7.8-4.3v-12.9c0-25.8-10.2-51.7-28.6-72.9c-23.7-27.2-36.7-62.2-36.5-98.3c0.5-77.8,64-144.1,141.7-147.6
	c82-4,151.6,59.3,155.6,141.3c1.9,38.9-11.6,76.9-37.5,106c-17.6,19.7-27.4,45.1-27.4,71.5v12.9c2.8,1,5.5,2.5,7.8,4.4
	c6.3-3,12.3-6.3,18.2-10l6.3-4l28.6,28.6l52.6-52.6l-28.6-28.6l4-6.3c12.7-20,21.9-42.1,27-65.2L461.4,297.4z"/>
</svg>
