<svg xmlns="http://www.w3.org/2000/svg" viewBox="0 0 520.46 566.93"><defs><style>.cls-1{fill:#334b61;}.cls-2{isolation:isolate;font-size:250px;fill:#fff;font-family:ArialMT, Arial;}</style></defs><title>pay-after-work</title><g id="Слой_2" data-name="Слой 2"><g id="Layer_1" data-name="Layer 1"><path class="cls-1" d="M343.87,455.4H176.58V430.51c0-25.82-10.16-51.71-28.6-72.92a148.18,148.18,0,0,1-36.46-98.26c.46-77.83,64-144.06,141.67-147.65a148.59,148.59,0,0,1,118.1,247.26,107.39,107.39,0,0,0-27.42,71.5v25Z"/><path class="cls-1" d="M520.46,316V204.46H476.19A221.33,221.33,0,0,0,452.35,147l31.31-31.32L404.81,36.79,373.49,68.1A221,221,0,0,0,316,44.27V0H204.46V44.27A221.34,221.34,0,0,0,147,68.1L115.64,36.79,36.79,115.64,68.11,147a221,221,0,0,0-23.84,57.5H0V316H44.27a221.33,221.33,0,0,0,23.84,57.5L36.79,404.81l78.85,78.85L147,452.34c3.66,2.12,7.61,4.2,11.73,6.27A27.47,27.47,0,0,0,171,488.2a27.47,27.47,0,0,0,9.29,37.18A27.58,27.58,0,0,0,176.58,539a27.92,27.92,0,0,0,27.88,27.88H316A27.92,27.92,0,0,0,343.87,539a27.56,27.56,0,0,0-3.73-13.67,27.46,27.46,0,0,0,9.29-37.18,27.47,27.47,0,0,0,12.3-29.6c4.11-2.06,8.07-4.15,11.73-6.27l31.34,31.33,78.85-78.85-31.31-31.32A220.68,220.68,0,0,0,476.18,316h44.28ZM185.88,474a9.29,9.29,0,0,1,0-18.59h148.7a9.29,9.29,0,1,1,0,18.59H185.88Zm46.47-115a45,45,0,0,0,17.43,3.5h1.16v27.88h18.59V362.46h1.16a45,45,0,0,0,17.43-3.5v77.85H232.35V359ZM334.58,501.87a9.3,9.3,0,0,1-9.29,9.29H195.17a9.29,9.29,0,0,1,0-18.59H325.29A9.3,9.3,0,0,1,334.58,501.87ZM316,548.34H204.47a9.29,9.29,0,0,1,0-18.59H316a9.29,9.29,0,1,1,0,18.59Zm143.8-243.66a202.71,202.71,0,0,1-27,65.21l-4,6.29,28.63,28.63-52.57,52.57-28.63-28.63-6.29,4a193,193,0,0,1-18.24,10,27.62,27.62,0,0,0-17.06-6H306.7V344.35A44.84,44.84,0,0,0,316,317.16v-2.32a45.36,45.36,0,0,0-45.31-45.31H249.77a26.75,26.75,0,0,1-26.72-26.72v-2.32a26.75,26.75,0,0,1,26.72-26.72h20.91a26.75,26.75,0,0,1,26.72,26.72v1.16H316v-1.16a45.36,45.36,0,0,0-45.31-45.31h-1.16V167.29H250.94v27.88h-1.16a45.36,45.36,0,0,0-45.31,45.31v2.32a45.36,45.36,0,0,0,45.31,45.31h20.91a26.75,26.75,0,0,1,26.72,26.72v2.32a26.75,26.75,0,0,1-26.72,26.72H249.77c-14.73,0-26.72-9.29-26.72-27.88H204.47c0,9.29,3.54,20.75,9.29,28.36v92.46H185.88a27.62,27.62,0,0,0-17.06,6,192.73,192.73,0,0,1-18.24-10l-6.29-4-28.63,28.63L63.08,404.81,91.7,376.18l-4-6.29a202.58,202.58,0,0,1-27-65.21l-1.62-7.28H18.59V223H59.05l1.62-7.28a202.68,202.68,0,0,1,27-65.21l4-6.29L63.08,115.64l52.57-52.56L144.28,91.7l6.29-4a202.54,202.54,0,0,1,65.21-27l7.28-1.62V18.59H297.4V59.05l7.28,1.62a202.67,202.67,0,0,1,65.21,27l6.29,4,28.64-28.63,52.56,52.57-28.62,28.63,4,6.29a202.56,202.56,0,0,1,27,65.21l1.62,7.28h40.47V297.4H461.41Z"/><text class="cls-2" transform="translate(200.73 360.97)">₽</text></g></g></svg>