<svg xmlns="http://www.w3.org/2000/svg" viewBox="0 0 546.48 595.28"><defs><style>.cls-1{fill:#fff;}.cls-2{fill:#3d4a5a;}</style></defs><title>pay-after-work</title><g id="Слой_2" data-name="Слой 2"><g id="Layer_1" data-name="Layer 1"><ellipse class="cls-1" cx="271.24" cy="277.14" rx="220.5" ry="230"/><rect class="cls-1" x="76.2" y="85.57" width="91" height="81"/><rect class="cls-1" x="387.7" y="68.92" width="86.1" height="97.44" transform="translate(48.3 348.11) rotate(-46.35)"/><rect class="cls-1" x="480.74" y="218.2" width="52.99" height="99.94"/><rect class="cls-1" x="226.74" y="11.14" width="95" height="58"/><rect class="cls-1" x="185.41" y="478.17" width="176.77" height="69.44"/><rect class="cls-1" x="200.74" y="543.14" width="148" height="41"/><rect class="cls-1" x="5.74" y="218.2" width="70.46" height="99.94"/><rect class="cls-1" x="78.1" y="379.83" width="95" height="91.64" transform="translate(-256.8 200.43) rotate(-43.06)"/><rect class="cls-1" x="375.1" y="373.82" width="95" height="91.64" transform="translate(-172.68 401.6) rotate(-43.06)"/><rect class="cls-1" x="71.61" y="76.6" width="91.01" height="81" transform="translate(-48.46 121.01) rotate(-46.35)"/><path class="cls-2" d="M361.07,478.17H185.41V452c0-27.11-10.67-54.3-30-76.57A155.59,155.59,0,0,1,117.1,272.3c.49-81.72,67.22-151.27,148.75-155a156,156,0,0,1,124,259.63A112.76,112.76,0,0,0,361.07,452v26.2Z"/><path class="cls-2" d="M546.48,331.79V214.69H500a232.42,232.42,0,0,0-25-60.38l32.88-32.89L425.05,38.63,392.17,71.51a232.05,232.05,0,0,0-60.38-25V0H214.69V46.48a232.38,232.38,0,0,0-60.38,25L121.42,38.63,38.63,121.43l32.88,32.89a232,232,0,0,0-25,60.38H0v117.1H46.48a232.42,232.42,0,0,0,25,60.38L38.63,425.06l82.79,82.79L154.33,475c3.84,2.23,8,4.41,12.32,6.59a28.84,28.84,0,0,0,12.92,31.07,28.84,28.84,0,0,0,9.76,39A29,29,0,0,0,185.41,566a29.31,29.31,0,0,0,29.28,29.28h117.1A29.31,29.31,0,0,0,361.07,566a29,29,0,0,0-3.91-14.35,28.84,28.84,0,0,0,9.76-39,28.84,28.84,0,0,0,12.92-31.08c4.31-2.17,8.47-4.35,12.32-6.59L425,507.84,507.84,425,475,392.16a231.73,231.73,0,0,0,25-60.38h46.49ZM195.17,497.69a9.76,9.76,0,1,1,0-19.52H351.31a9.76,9.76,0,1,1,0,19.52H195.17ZM244,376.91a47.27,47.27,0,0,0,18.3,3.68h1.22v29.28H283V380.59h1.22a47.27,47.27,0,0,0,18.3-3.68v81.75H244V376.91h0ZM351.31,527a9.76,9.76,0,0,1-9.76,9.76H204.93a9.76,9.76,0,1,1,0-19.52H341.55A9.76,9.76,0,0,1,351.31,527Zm-19.52,48.79H214.69a9.76,9.76,0,0,1,0-19.52h117.1a9.76,9.76,0,1,1,0,19.52Zm151-255.84a212.8,212.8,0,0,1-28.38,68.47L450.19,395l30.06,30.07-55.2,55.19L395,450.19l-6.61,4.21a203,203,0,0,1-19.16,10.55,29,29,0,0,0-17.92-6.29H322V361.57A47.08,47.08,0,0,0,331.79,333v-2.44A47.63,47.63,0,0,0,284.22,283h-22a28.09,28.09,0,0,1-28.05-28.06v-2.44a28.09,28.09,0,0,1,28.05-28.06h22a28.09,28.09,0,0,1,28.05,28.06v1.22h19.52v-1.22a47.63,47.63,0,0,0-47.57-47.57H283V175.65H263.48v29.28h-1.22a47.63,47.63,0,0,0-47.57,47.57v2.44a47.63,47.63,0,0,0,47.57,47.57h22a28.09,28.09,0,0,1,28.05,28.05V333a28.09,28.09,0,0,1-28.05,28.06h-22c-15.47,0-28.05-9.76-28.05-29.28H214.69c0,9.76,3.72,21.79,9.76,29.77v97.09H195.17a29,29,0,0,0-17.92,6.29,202.27,202.27,0,0,1-19.16-10.55l-6.61-4.21-30.07,30.06L66.23,425.05,96.29,395l-4.21-6.61A212.69,212.69,0,0,1,63.7,319.91L62,312.27H19.52V234.2H62l1.7-7.64a212.8,212.8,0,0,1,28.38-68.47l4.21-6.61L66.23,121.42l55.19-55.19,30.07,30.06,6.61-4.21A212.73,212.73,0,0,1,226.56,63.7L234.2,62V19.52h78.07V62l7.64,1.7a212.8,212.8,0,0,1,68.47,28.38L395,96.29l30.06-30.06,55.2,55.19-30.06,30.07,4.21,6.61a212.76,212.76,0,0,1,28.38,68.47l1.7,7.64H527v78.07H484.47Z"/><path class="cls-1" d="M236.15,309.73v21.55H324v20.64H236.15v55.22h-29V351.92h-15V331.28h15V309.73h-15V284.59h15V187.77H275.8q29.48,0,44.59,6t24.39,20.8a62.29,62.29,0,0,1,9.13,33.07q0,18.26-6.73,30.23a53,53,0,0,1-17.88,19.08,73.52,73.52,0,0,1-25.59,10,154,154,0,0,1-29.85,2.85H236.15Zm37.71-25.14A113.16,113.16,0,0,0,293,283a45.25,45.25,0,0,0,16-5.76A30.78,30.78,0,0,0,319.94,266q4-7.11,4-18.33,0-9.72-3.66-16.46a30.69,30.69,0,0,0-10-11A44,44,0,0,0,295.4,214,82.85,82.85,0,0,0,277,212H236.15v72.57h37.71Z"/></g></g></svg>