<?xml version="1.0" encoding="utf-8"?>
<!-- Generator: Adobe Illustrator 21.0.0, SVG Export Plug-In . SVG Version: 6.00 Build 0)  -->
<svg version="1.1" id="Слой_1" xmlns="http://www.w3.org/2000/svg" xmlns:xlink="http://www.w3.org/1999/xlink" x="0px" y="0px"
	 viewBox="0 0 512 448.7" style="enable-background:new 0 0 512 448.7;" xml:space="preserve">
<style type="text/css">
	.st0{fill:#334B61;}
</style>
<path id="Слой_2" class="st0" d="M0,0v448.7h512V0H0z M496.2,15.8v58.1H15.8V15.8H496.2z M15.8,432.8V89.7h480.3v343.1
	L15.8,432.8z M39.6,37h21.1v15.8H39.6V37z M71.3,37h21.1v15.8H71.3V37z M451.3,37h21.1v15.8h-21.1V37z M37,411.7h438.1V110.9H37
	V411.7z M52.8,126.7h406.4v269.2H52.8L52.8,126.7z M176.5,171.2l-90.1,90.1l90.1,90l11.2-11.2l-78.8-78.9l78.8-78.9L176.5,171.2z
	 M324.3,182.4l78.9,78.9l-78.9,78.9l11.2,11.2l90-90l-90-90.1L324.3,182.4z M206.6,347.6l84.4-179.5l14.3,6.7l-84.4,179.5
	L206.6,347.6z"/>
</svg>
