<svg xmlns="http://www.w3.org/2000/svg" viewBox="0 0 595.28 521.64"><defs><style>.cls-1{fill:#fff;}.cls-2{fill:#3d4a5a;}</style></defs><title>php</title><g id="Слой_2" data-name="Слой 2"><g id="Слой_1-2" data-name="Слой 1"><g id="Слой_2-2" data-name="Слой 2"><rect class="cls-1" x="10.14" width="573" height="513.32"/></g><g id="Layer_1" data-name="Layer 1"><path class="cls-2" d="M0,0V521.64H595.28V0ZM576.87,503.23H18.41V104.33H576.87v398.9Zm0-417.31H18.41V18.41H576.87V85.92Z"/><rect class="cls-2" x="46.03" y="42.96" width="24.55" height="18.41"/><rect class="cls-2" x="82.85" y="42.96" width="24.55" height="18.41"/><rect class="cls-2" x="524.71" y="42.96" width="24.55" height="18.41"/><path class="cls-2" d="M43,128.87V478.68H552.32V128.87Zm491,331.39H61.37v-313H533.91v313Z"/><polygon class="cls-2" points="218.23 212.09 205.22 199.08 100.52 303.78 205.22 408.48 218.23 395.46 126.55 303.78 218.23 212.09"/><polygon class="cls-2" points="390.07 199.08 377.05 212.09 468.73 303.78 377.05 395.46 390.07 408.48 494.76 303.78 390.07 199.08"/><rect class="cls-2" x="182.35" y="294.57" width="230.59" height="18.41" transform="translate(-103.95 443.75) rotate(-64.8)"/></g></g></g></svg>