<?xml version="1.0" encoding="utf-8"?>
<!-- Generator: Adobe Illustrator 21.0.0, SVG Export Plug-In . SVG Version: 6.00 Build 0)  -->
<svg version="1.1" id="Слой_1" xmlns="http://www.w3.org/2000/svg" xmlns:xlink="http://www.w3.org/1999/xlink" x="0px" y="0px"
	 viewBox="0 0 477.2 512" style="enable-background:new 0 0 477.2 512;" xml:space="preserve">
<style type="text/css">
	.st0{fill:#334B61;}
</style>
<path id="Слой_2" class="st0" d="M234.3,281.6c30.9,0,56-25.1,56-56s-25.1-56-56-56s-56,25.1-56,56S203.3,281.6,234.3,281.6z
	 M234.3,185.9c21.9,0,39.7,17.8,39.7,39.7s-17.8,39.7-39.7,39.7s-39.7-17.8-39.7-39.7v0C194.6,203.7,212.4,185.9,234.3,185.9
	L234.3,185.9z M234.3,395.7c-23.7,0-42.9,19.2-42.9,42.9c0,20.9,30.4,62.1,36.4,70.1c2.7,3.6,7.8,4.3,11.4,1.6
	c0.6-0.5,1.1-1,1.6-1.6c6.1-8,36.4-49.3,36.4-70.1C277.2,414.9,258,395.7,234.3,395.7z M234.3,490c-12.6-18.1-26.6-41.7-26.6-51.4
	c0-14.7,11.9-26.6,26.6-26.6c14.7,0,26.6,11.9,26.6,26.6C260.9,448.3,246.9,471.9,234.3,490L234.3,490z M351.1,300.2V147.3
	c0-0.1,0-0.2,0-0.2s0-0.3,0-0.5s0-0.2,0-0.4s0-0.3-0.1-0.4s0-0.2-0.1-0.4s-0.1-0.3-0.1-0.4s-0.1-0.3-0.1-0.4s-0.1-0.3-0.1-0.4
	l-0.2-0.4l-0.2-0.3c-0.1-0.1-0.1-0.3-0.2-0.4l-0.2-0.3c-0.1-0.1-0.2-0.3-0.3-0.4l-0.1-0.2L240.7,3.1c-2.8-3.5-7.9-4.2-11.4-1.4
	c-0.5,0.4-1,0.9-1.4,1.4L119.1,142.3l-0.1,0.2c-0.1,0.1-0.2,0.3-0.3,0.4l-0.2,0.3l-0.2,0.4l-0.2,0.3c-0.1,0.1-0.1,0.3-0.2,0.4
	s-0.1,0.3-0.1,0.4s-0.1,0.3-0.1,0.4s-0.1,0.3-0.1,0.4s-0.1,0.2-0.1,0.4s0,0.3-0.1,0.4s0,0.2,0,0.4s0,0.3,0,0.5s0,0.2,0,0.2v152.9
	l-80,71.5c-3.4,3-3.7,8.1-0.7,11.5c1.5,1.7,3.8,2.7,6.1,2.7h382.6c4.5,0,8.2-3.6,8.2-8.1c0-2.3-1-4.5-2.7-6.1L351.1,300.2z
	 M334.8,295.7H133.7V155.5h201.1V295.7z M133.7,312h201.1v57.6H133.7V312z M234.3,21.4l92,117.8h-184L234.3,21.4z M117.4,322.1v47.5
	H64.3L117.4,322.1z M351.1,369.6v-47.5l53.1,47.5H351.1z M216.9,238.1c2.2,0,4.2-0.9,5.8-2.4l21.7-21.7c3.2-3.2,3.2-8.3,0-11.5
	c-3.2-3.2-8.3-3.2-11.5,0l-21.7,21.8c-3.2,3.2-3.2,8.3,0,11.5C212.6,237.2,214.7,238.1,216.9,238.1L216.9,238.1z M232.8,237.2
	c-3.2,3.2-3.2,8.3,0,11.5s8.3,3.2,11.5,0l13-13c3.2-3.2,3.2-8.3,0-11.5c-3.2-3.2-8.3-3.2-11.5,0L232.8,237.2z M469.1,252.2
	c-4.5,0-8.1,3.6-8.1,8.2l0,0v147.8c0,4.5,3.7,8.2,8.2,8.2s8.2-3.7,8.2-8.2V260.4C477.2,255.8,473.6,252.2,469.1,252.2
	C469.1,252.2,469.1,252.2,469.1,252.2z M416.9,285.9c4.5,0,8.1-3.6,8.1-8.1v-52.2c0-4.5-3.7-8.2-8.2-8.2s-8.2,3.7-8.2,8.2v52.2
	C408.7,282.2,412.4,285.9,416.9,285.9C416.9,285.9,416.9,285.9,416.9,285.9z M8.1,260.9c-4.5,0-8.1,3.6-8.1,8.1v174
	c0,4.5,3.7,8.2,8.2,8.2s8.2-3.7,8.2-8.2V269C16.3,264.5,12.6,260.9,8.1,260.9z M60.3,277.2c4.5,0,8.2-3.6,8.2-8.1c0,0,0,0,0-0.1
	v-78.2c0-4.5-3.7-8.2-8.2-8.2s-8.2,3.7-8.2,8.2V269C52.1,273.5,55.8,277.2,60.3,277.2C60.3,277.2,60.3,277.2,60.3,277.2z"/>
</svg>
