<svg xmlns="http://www.w3.org/2000/svg" viewBox="0 0 477.21 512"><defs><style>.cls-1{fill:#334b61;}</style></defs><title>rocket</title><g id="Слой_2" data-name="Слой 2"><g id="Layer_1" data-name="Layer 1"><path class="cls-1" d="M234.26,281.55a56,56,0,1,0-56-56A56,56,0,0,0,234.26,281.55Zm0-95.66a39.68,39.68,0,1,1-39.68,39.68A39.72,39.72,0,0,1,234.26,185.89Z"/><path class="cls-1" d="M234.26,395.69a43,43,0,0,0-42.94,42.94c0,20.89,30.35,62.09,36.44,70.14a8.15,8.15,0,0,0,13,0c6.09-8,36.44-49.25,36.44-70.14A43,43,0,0,0,234.26,395.69Zm0,94.29c-12.65-18.06-26.63-41.71-26.63-51.35a26.63,26.63,0,0,1,53.27,0C260.89,448.27,246.9,471.91,234.26,490Z"/><path class="cls-1" d="M351.12,300.19V147.3c0-.08,0-.16,0-.24s0-.32,0-.48,0-.23,0-.35,0-.29-.07-.44-.05-.24-.08-.37-.07-.27-.1-.41-.08-.25-.12-.38-.09-.25-.14-.37l-.17-.38-.16-.34c-.07-.13-.14-.26-.22-.39l-.18-.3c-.09-.13-.18-.26-.28-.39l-.14-.19L240.68,3.13a8.15,8.15,0,0,0-12.85,0L119.13,142.28l-.14.19c-.09.13-.19.26-.28.39l-.18.3-.22.39-.16.34c-.06.13-.11.25-.17.38s-.09.25-.14.37-.08.25-.12.38-.07.27-.1.41-.06.24-.08.37,0,.29-.07.44,0,.23,0,.35,0,.32,0,.48,0,.16,0,.24V300.19L37.5,371.68a8.15,8.15,0,0,0,5.44,14.23H425.58A8.15,8.15,0,0,0,431,371.67Zm-16.31-4.51H133.71V155.45h201.1ZM133.71,312h201.1V369.6H133.71ZM234.26,21.4l92,117.75h-184ZM117.4,322.07V369.6H64.28ZM351.12,369.6V322.07l53.12,47.53Z"/><path class="cls-1" d="M216.87,238.06a8.12,8.12,0,0,0,5.76-2.39l21.74-21.74a8.15,8.15,0,0,0-11.53-11.53L211.1,224.15a8.15,8.15,0,0,0,5.76,13.92Z"/><path class="cls-1" d="M232.84,237.19a8.15,8.15,0,1,0,11.53,11.53l13-13a8.15,8.15,0,1,0-11.53-11.53Z"/><path class="cls-1" d="M469.06,252.2a8.15,8.15,0,0,0-8.15,8.15V408.19a8.15,8.15,0,1,0,16.31,0V260.35A8.15,8.15,0,0,0,469.06,252.2Z"/><path class="cls-1" d="M416.88,285.89a8.15,8.15,0,0,0,8.15-8.15V225.56a8.15,8.15,0,1,0-16.31,0v52.18A8.15,8.15,0,0,0,416.88,285.89Z"/><path class="cls-1" d="M8.15,260.89A8.15,8.15,0,0,0,0,269V443a8.15,8.15,0,1,0,16.31,0V269A8.15,8.15,0,0,0,8.15,260.89Z"/><path class="cls-1" d="M60.33,277.2A8.15,8.15,0,0,0,68.48,269V190.78a8.15,8.15,0,1,0-16.31,0V269A8.15,8.15,0,0,0,60.33,277.2Z"/></g></g></svg>