<?xml version="1.0" encoding="utf-8"?>
<!-- Generator: Adobe Illustrator 21.0.0, SVG Export Plug-In . SVG Version: 6.00 Build 0)  -->
<svg version="1.1" id="Слой_1" xmlns="http://www.w3.org/2000/svg" xmlns:xlink="http://www.w3.org/1999/xlink" x="0px" y="0px"
	 viewBox="0 0 512 497.6" style="enable-background:new 0 0 512 497.6;" xml:space="preserve">
<style type="text/css">
	.st0{fill:#334B61;}
</style>
<path id="Слой_2" class="st0" d="M127.7,153.9H59.3c-4.4,0-8,3.6-8,8v68.4c0,4.4,3.6,8,8,8h68.4c4.4,0,8-3.6,8-8c0,0,0,0,0,0
	v-68.4C135.7,157.5,132.2,153.9,127.7,153.9C127.7,153.9,127.7,153.9,127.7,153.9z M119.7,222.3H67.3V170h52.4L119.7,222.3z
	 M161.9,238.4h68.4c4.4,0,8-3.6,8-8v-68.4c0-4.4-3.6-8-8-8h-68.4c-4.4,0-8,3.6-8,8v68.4C153.9,234.8,157.5,238.4,161.9,238.4
	C161.9,238.4,161.9,238.4,161.9,238.4z M170,170h52.4v52.4H170V170z M127.7,256.5H59.3c-4.4,0-8,3.6-8,8V333c0,4.4,3.6,8,8,8h68.4
	c4.4,0,8-3.6,8-8l0,0v-68.5C135.7,260.1,132.2,256.5,127.7,256.5C127.7,256.5,127.7,256.5,127.7,256.5z M119.7,324.9H67.3v-52.4
	h52.4L119.7,324.9z M392.3,210.1V59.3c0-4.4-3.6-8-8-8h-34.8V8c0-4.4-3.6-8-8-8h-34.2c-4.4,0-8,3.6-8,8v43.3h-78V8c0-4.4-3.6-8-8-8
	H179c-4.4,0-8,3.6-8,8v43.3H93V8c0-4.4-3.6-8-8-8H50.8c-4.4,0-8,3.6-8,8v43.3H8c-4.4,0-8,3.6-8,8v307.9c0,4.4,3.6,8,8,8h216.1
	c11.1,70.5,71.8,122.4,143.1,122.4c79.9,0,144.8-65,144.8-144.8C511.9,282.5,461.5,222.3,392.3,210.1z M315.3,16h18.2v86.6h-18.2V16
	z M187.1,16h18.2v86.6h-18.2V16z M58.8,16H77v86.6H58.8V16z M16,67.3h26.8v43.3c0,4.4,3.6,8,8,8H85c4.4,0,8-3.6,8-8V67.3h78v43.3
	c0,4.4,3.6,8,8,8h34.2c4.4,0,8-3.6,8-8V67.3h78v43.3c0,4.4,3.6,8,8,8h34.2c4.4,0,8-3.6,8-8V67.3h26.7v140.9c-3-0.2-6.1-0.3-9.1-0.3
	c-8.7,0-17.4,0.8-26,2.4v-48.4c0-4.4-3.6-8-8-8h-68.5c-4.4,0-8,3.6-8,8v68.4c0,4.4,3.6,8,8,8h13.8c-13.3,10.4-24.8,23-33.8,37.2
	c-2.2,3.5-4.3,7.2-6.2,10.9v-22c0-4.4-3.6-8-8-8h-68.4c-4.4,0-8,3.6-8,8V333c0,4.4,3.6,8,8,8h60.9c-0.3,3.9-0.5,7.8-0.5,11.8
	c0,2.1,0.1,4.3,0.1,6.4H16V67.3z M304.1,222.3h-31.6V170H325v44.2C317.8,216.4,310.9,219.1,304.1,222.3L304.1,222.3z M222.3,272.6
	V325H170v-52.4L222.3,272.6z M367.1,481.6c-65.9,0.2-121.3-49.6-128.1-115.2l0,0c-0.5-4.5-0.7-9-0.7-13.6
	c-0.1-48.8,27.5-93.5,71.2-115.2l0,0c8.1-4.1,16.7-7.3,25.4-9.6l0,0c10.5-2.7,21.3-4,32.2-4c5.4,0,10.8,0.3,16.1,1l0,0
	c64.3,8,112.7,63,112.7,127.8C495.8,423.9,438.2,481.4,367.1,481.6L367.1,481.6z M478.5,313.2c-1.5-4.2-6.1-6.3-10.2-4.9
	c-4.2,1.5-6.3,6.1-4.9,10.2c3.9,11,5.9,22.6,5.9,34.2c0,4.4,3.6,8,8,8s8-3.6,8-8C485.3,339.3,483,325.9,478.5,313.2z M464.3,285.6
	c-15.6-22.6-38.6-39-65-46.6c-4.3-1.2-8.7,1.3-9.9,5.5s1.3,8.7,5.5,9.9c22.8,6.5,42.7,20.7,56.2,40.3c2.5,3.6,7.5,4.5,11.2,2
	S466.9,289.3,464.3,285.6L464.3,285.6z M367.2,261.9c-50.2,0-90.8,40.7-90.8,90.8s40.7,90.8,90.8,90.8s90.8-40.7,90.8-90.8
	c0,0,0,0,0,0C457.9,302.6,417.3,262,367.2,261.9z M367.2,427.6c-41.3,0-74.8-33.5-74.8-74.8s33.5-74.8,74.8-74.8
	s74.8,33.5,74.8,74.8l0,0C441.9,394.1,408.5,427.5,367.2,427.6z M414.2,350.6h-39v-39c0-4.4-3.6-8-8-8s-8,3.6-8,8v47
	c0,4.4,3.6,8,8,8h47c4.4,0,8-3.6,8-8S418.6,350.6,414.2,350.6z"/>
</svg>
