<svg xmlns="http://www.w3.org/2000/svg" viewBox="0 0 512 497.59"><defs><style>.cls-1{fill:#334b61;}</style></defs><title>schedule</title><g id="Слой_2" data-name="Слой 2"><g id="Layer_1" data-name="Layer 1"><path class="cls-1" d="M127.73,153.92H59.32a8,8,0,0,0-8,8v68.41a8,8,0,0,0,8,8h68.41a8,8,0,0,0,8-8V161.94A8,8,0,0,0,127.73,153.92Zm-8,68.41H67.34V170h52.38Z"/><path class="cls-1" d="M161.94,238.36h68.41a8,8,0,0,0,8-8V161.94a8,8,0,0,0-8-8H161.94a8,8,0,0,0-8,8v68.41A8,8,0,0,0,161.94,238.36ZM170,170h52.38v52.38H170Z"/><path class="cls-1" d="M127.73,256.53H59.32a8,8,0,0,0-8,8V333a8,8,0,0,0,8,8h68.41a8,8,0,0,0,8-8V264.55A8,8,0,0,0,127.73,256.53Zm-8,68.41H67.34V272.57h52.38Z"/><path class="cls-1" d="M392.28,210.1V59.32a8,8,0,0,0-8-8H349.53V8a8,8,0,0,0-8-8h-34.2a8,8,0,0,0-8,8V51.31h-78V8a8,8,0,0,0-8-8H179a8,8,0,0,0-8,8V51.31H93V8a8,8,0,0,0-8-8H50.77a8,8,0,0,0-8,8V51.31H8a8,8,0,0,0-8,8V367.16a8,8,0,0,0,8,8H224.07a144.86,144.86,0,0,0,143.1,122.41c79.86,0,144.84-65,144.84-144.84A145,145,0,0,0,392.28,210.1ZM315.32,16h18.17v86.58H315.32V16ZM187.06,16h18.17v86.58H187.06V16ZM58.79,16H77v86.58H58.79V16ZM16,67.34H42.76v43.29a8,8,0,0,0,8,8H85a8,8,0,0,0,8-8V67.34h78v43.29a8,8,0,0,0,8,8h34.2a8,8,0,0,0,8-8V67.34h78v43.29a8,8,0,0,0,8,8h34.2a8,8,0,0,0,8-8V67.34h26.72V208.2c-3-.19-6.06-.28-9.09-.28A145.86,145.86,0,0,0,341,210.3V161.94a8,8,0,0,0-8-8H264.55a8,8,0,0,0-8,8v68.41a8,8,0,0,0,8,8h13.8a145.38,145.38,0,0,0-33.78,37.24c-2.24,3.55-4.3,7.2-6.21,10.91v-22a8,8,0,0,0-8-8H161.94a8,8,0,0,0-8,8V333a8,8,0,0,0,8,8h60.89c-.32,3.91-.49,7.83-.49,11.78,0,2.12.06,4.26.15,6.39H16Zm288.13,155H272.57V170h52.38v44.23A144.61,144.61,0,0,0,304.16,222.33Zm-81.83,50.24v52.38H170V272.57Zm144.84,209a128.42,128.42,0,0,1-128.09-115.2v0a131,131,0,0,1-.71-13.57,128.21,128.21,0,0,1,71.21-115.23h0A128.11,128.11,0,0,1,335,228h0A129.22,129.22,0,0,1,367.16,224a130.62,130.62,0,0,1,16.11,1h0c64.25,8,112.69,63,112.69,127.8A129,129,0,0,1,367.16,481.56Z"/><path class="cls-1" d="M478.45,313.16a8,8,0,1,0-15.1,5.39,101.54,101.54,0,0,1,5.89,34.21,8,8,0,1,0,16,0A117.51,117.51,0,0,0,478.45,313.16Z"/><path class="cls-1" d="M464.31,285.64a118.66,118.66,0,0,0-65-46.56,8,8,0,1,0-4.36,15.43,102.59,102.59,0,0,1,56.23,40.26,8,8,0,0,0,13.18-9.13Z"/><path class="cls-1" d="M367.16,261.92A90.84,90.84,0,1,0,458,352.75,90.94,90.94,0,0,0,367.16,261.92Zm0,165.64a74.8,74.8,0,1,1,74.8-74.8A74.89,74.89,0,0,1,367.16,427.56Z"/><path class="cls-1" d="M414.2,350.6h-39v-39a8,8,0,1,0-16,0v47a8,8,0,0,0,8,8h47a8,8,0,1,0,0-16Z"/></g></g></svg>