<svg id="Layer_1" data-name="Layer 1" xmlns="http://www.w3.org/2000/svg" viewBox="0 0 820.7 346.75">
    <defs>
        <style>
            .cls-1 {
            fill: #231f20;
            }
        </style>
    </defs>
    <title>logo</title>
    <path class="cls-1" d="M163.19,303.21v75.91c-12.55,13.18-31.68,21.65-59.28,21.65-60.54,0-92.54-44.85-92.54-100.38,0-55.2,30.43-102.26,88.14-102.26,29.49,0,50.5,7.22,64,18.19L157.86,227c-13.49-9.72-30.11-17.57-58.34-17.57-48.93,0-75,42-75,91,0,49.25,27.6,89.09,79.36,89.09,20.7,0,35.13-5,46.11-13.49V303.21Z" transform="translate(-11.37 -126.08)"></path>
    <path class="cls-1" d="M237.81,126.08V472.83H224.64V126.08Z" transform="translate(-11.37 -126.08)"></path>
    <path class="cls-1" d="M443.55,202.84V396.07H430.37L319.65,223.54V396.07H306.47V202.84h13.18L430.37,376V202.84Z" transform="translate(-11.37 -126.08)"></path>
    <path class="cls-1" d="M618.37,396.07l-68.69-91.28H522.39v91.28H509.85V202.84h12.54v91.28H547.8l66.5-91.28H628.1l-68.39,95,74.66,98.18Z" transform="translate(-11.37 -126.08)"></path>
    <path class="cls-1" d="M745.2,202.84h14.12l72.77,193.23H819.54L793.5,328H712.88l-24.46,68.07H675.87ZM717,316.71h72.46L752.1,219.78Z" transform="translate(-11.37 -126.08)"></path>
</svg>