<svg id="Режим_изоляции" data-name="Режим изоляции" xmlns="http://www.w3.org/2000/svg" viewBox="0 0 124.14 124.14"><defs><style>.cls-1{fill:#fff;}.cls-2{fill:#344c62;}</style></defs><title>6</title><path class="cls-1" d="M749.71,1741.13H741.4l-7.78-5.84-6-5.48-4.07-8.13-2.3-10.43,2.83-9.37s3.18-5.84,3.71-6.19,9.9-9,10.61-9.37,11.32-3.36,11.32-3.36v-8.13l4.77-8,6.54-6,8.13-3.89,7.07-2.48,15.56,2.48,6.54,5,5.3,7.07,3.18,7.07,1.24,6.54v6.9l-1.95,4.24,5-1.95,5.66-.35,7.25.53,5.66,2.65,5.84,3.18s2.12,5.13,2.83,6.37a55.24,55.24,0,0,1,2.65,6.37c.18.71,1.41,7.6,1.41,7.6l-1.24,6.54-1.95,7.07-6,5.13-9.19,4.24-12.91.82-.53,33.13-57.29.88.53-34Z" transform="translate(-720.06 -1652.55)"/><path class="cls-2" d="M817.12,1689.47a27.22,27.22,0,0,0-8.79,1.46,31.08,31.08,0,0,0-3.24-22.88,1.82,1.82,0,1,0-3.16,1.82,27.4,27.4,0,0,1,1.76,23.63,1.84,1.84,0,0,0,2.54,2.28A23.44,23.44,0,1,1,817.12,1740h-4v-19.56a1.84,1.84,0,0,0-.53-1.29L797,1703.61a1.84,1.84,0,0,0-1.29-.53h-4v-11.9h4a1.84,1.84,0,0,0,1.29-3.11l-13.6-13.6a1.82,1.82,0,0,0-2.58,0l-13.6,13.6a1.84,1.84,0,0,0,1.29,3.11h4v11.9H753a1.82,1.82,0,0,0-1.82,1.82V1740H751a27.33,27.33,0,0,1-1.82-54.6,1.82,1.82,0,0,0,1.7-1.84v0a27.33,27.33,0,0,1,45.66-20.27,1.82,1.82,0,0,0,2.45-2.7,31,31,0,0,0-51.71,21.37,31,31,0,0,0,3.72,61.72h.12v31.22a1.82,1.82,0,0,0,1.82,1.82h58.3a1.82,1.82,0,0,0,1.82-1.82v-31.22h4a27.09,27.09,0,0,0,0-54.17Zm-19.56,19.82,9.33,9.33h-9.33Zm-15.43-31,9.21,9.21h-1.43a1.82,1.82,0,0,0-1.82,1.82v42.88h-11.9v-42.88a1.82,1.82,0,0,0-1.82-1.82h-1.43ZM809.46,1773H754.8v-66.32h17.73v27.33a1.82,1.82,0,0,0,1.82,1.82h15.55a1.82,1.82,0,0,0,1.82-1.82v-27.33h2.19v13.73a1.82,1.82,0,0,0,1.82,1.82h13.73V1773Z" transform="translate(-720.06 -1652.55)"/><path class="cls-2" d="M791.85,1741.95H772.42a1.82,1.82,0,0,0,0,3.64h19.43a1.82,1.82,0,0,0,0-3.64Z" transform="translate(-720.06 -1652.55)"/><path class="cls-2" d="M791.85,1749.72H772.42a1.82,1.82,0,0,0,0,3.64h19.43a1.82,1.82,0,1,0,0-3.64Z" transform="translate(-720.06 -1652.55)"/><path class="cls-2" d="M791.85,1757.5H772.42a1.82,1.82,0,0,0,0,3.64h19.43a1.82,1.82,0,1,0,0-3.64Z" transform="translate(-720.06 -1652.55)"/></svg>