<svg id="Режим_изоляции" data-name="Режим изоляции" xmlns="http://www.w3.org/2000/svg" viewBox="0 0 107.4 107.97"><defs><style>.cls-1{fill:#fff;}.cls-2{fill:#344c62;}</style></defs><title>3</title><path class="cls-1" d="M1725,1001.86l-3.31,1-24.44,7.45-5.37,1.63h-67.06V921.61a8.67,8.67,0,0,1,1.73-17.16h72.83a8.68,8.68,0,0,1,8.67,8.67v35.4l4,.57a4.43,4.43,0,0,1-.63,8.82,4.54,4.54,0,0,1-.63-.05l-3.19-.45,2.16,19.39,6.89,15.17,4.69-1.17Z" transform="translate(-1617.93 -904.45)"/><path class="cls-2" d="M1725,1001.86l-3.68-11.06-4.69,1.17-6.89-15.17-2.16-19.39,3.19.45a4.54,4.54,0,0,0,.63.05,4.43,4.43,0,0,0,.63-8.82l-4-.57v-35.4a8.68,8.68,0,0,0-8.67-8.67h-72.83a8.67,8.67,0,0,0-1.73,17.16V1012h69.29l.13.47,3.34-1-.33-1.15-2.65-9.26,1-.25,22.52-5.63,1-.23,2.64,7.92.32,1,3.28-1.1ZM1708,952l3.6.51a1,1,0,0,1,.77,1.26,1,1,0,0,1-1,.65l-3.65-.52Zm-8.56-44.1a5.22,5.22,0,0,1,5.2,5.21V944l-3.47-2V918.32h-1.73a5.2,5.2,0,1,1,0-10.41ZM1681.7,950.2l-8.35-1.19-.76-1.53a6.49,6.49,0,0,0-.33-.58l8.23,1.18,22.74,3.25,1.32.19-.32,1.9-5.38-.77Zm3.42,6-3.2,3.2-5.41-4.05-1.27-2.54,8.64,1.23ZM1666,942.67l-5.58,1.86-.81.12c0-.11,0-.22,0-.33a15.53,15.53,0,0,1,3.46-9.78,15.35,15.35,0,0,1,3.08,6.39s0,0,0,0A5.35,5.35,0,0,0,1666,942.67Zm-4.11,8.06.27,2.15a15.22,15.22,0,0,1-2.1-4.79c.24,0,.48-.08.73-.11l1.16,1.15A5.37,5.37,0,0,0,1661.84,950.73Zm-1.3,5.83a15.46,15.46,0,0,1-12.67,3.07,15.48,15.48,0,0,1,8.83-10.5A18.86,18.86,0,0,0,1660.54,956.56Zm-4.4-11a18.93,18.93,0,0,0-11.58,13,15.59,15.59,0,1,1,16-26.49,19,19,0,0,0-4.46,12.24C1656.07,944.75,1656.12,945.17,1656.14,945.6Zm-8.72,17.47a19.57,19.57,0,0,0,3.45.33,19,19,0,0,0,12-4.3l.2,1.64,12.22,12.2a15.58,15.58,0,0,1-27.91-9.54C1647.4,963.29,1647.41,963.18,1647.42,963.07Zm18.06-31a15.5,15.5,0,0,1,20.57,1.13L1684,932l-14.63,5.32c-.22.09-.42.22-.62.32A19.21,19.21,0,0,0,1665.48,932.09Zm4,9.73a1.72,1.72,0,0,1,1.11-1.22l13.11-4.77L1703,947.12l.08.68-8.62-1.23-11.79-1.68-1.41-2.47-7.33,1.22-4.39-.63A1.73,1.73,0,0,1,1669.43,941.82Zm-48-28.7a5.22,5.22,0,0,1,5.2-5.21h65.94a8.5,8.5,0,0,0,0,10.41h-65.94A5.21,5.21,0,0,1,1621.39,913.12Zm6.94,95.36v-86.7h69.35V940l-4.9-2.86a19,19,0,0,0-29.77-7.53,19.07,19.07,0,1,0-19,32.48c0,.43-.06.86-.06,1.3a19,19,0,0,0,33.85,12l1.44,1.44L1691,986.94l3.52,10.57-4.19,1.05,2.84,9.92Zm77.51-13.8-7.95,2L1694,984.93l-12.4-10.62-15.18-15.19-1.11-8.82a2.23,2.23,0,0,1,.07-.86l.08-.21a2.22,2.22,0,0,1,.81-1,2.34,2.34,0,0,1,2.93.38,2,2,0,0,1,.31.45l1.58,3.16,2.71,5.42,8.47,6.35,7.2-7.2-1.21-2.12,15.84,2.27,2.29,20.56,6.89,15.37Z" transform="translate(-1617.93 -904.45)"/></svg>