<svg xmlns="http://www.w3.org/2000/svg" viewBox="0 0 52 60">
        <g data-name="Capa 1">
            <circle cx="31" cy="52" r="1"/>
            <circle cx="35" cy="52" r="1"/>
            <circle cx="39" cy="52" r="1"/>
            <circle cx="29" cy="33" r="1"/>
            <circle cx="31" cy="22" r="1"/>
            <circle cx="35" cy="22" r="1"/>
            <circle cx="33" cy="20" r="1"/>
            <circle cx="35" cy="18" r="1"/>
            <circle cx="31" cy="26" r="1"/>
            <circle cx="29" cy="24" r="1"/>
            <circle cx="33" cy="24" r="1"/>
            <circle cx="29" cy="36" r="1"/>
            <circle cx="29" cy="39" r="1"/>
            <circle cx="29" cy="42" r="1"/>
            <circle cx="29" cy="45" r="1"/>
            <circle cx="29" cy="48" r="1"/>
            <circle cx="33" cy="50" r="1"/>
            <circle cx="37" cy="50" r="1"/>
            <path d="M20,11H15a1,1,0,0,0,0,2h5a1,1,0,0,0,0-2Z"/>
            <path d="M20,18H10a1,1,0,0,0,0,2H20a1,1,0,0,0,0-2Z"/>
            <path d="M20,25H5a1,1,0,0,0,0,2H20a1,1,0,0,0,0-2Z"/>
            <path d="M20,32H1a1,1,0,0,0,0,2H20a1,1,0,0,0,0-2Z"/>
            <path d="M20,39H7a1,1,0,0,0,0,2H20a1,1,0,0,0,0-2Z"/>
            <path d="M20,46H13a1,1,0,0,0,0,2h7a1,1,0,0,0,0-2Z"/>
            <path d="M49,54H44V48A20.43,20.43,0,0,0,33.29,30,20.43,20.43,0,0,0,44,12V6h5a3,3,0,0,0,0-6H26a1,1,0,0,0,0,2H49a1,1,0,0,1,0,2H26a1,1,0,0,0,0,2H42v6A18.45,18.45,0,0,1,30.62,29.08h0l0,0a1,1,0,0,0-.29.2,1,1,0,0,0-.16.24.86.86,0,0,0-.05.08h0a1,1,0,0,0,0,.76h0a1,1,0,0,0,.19.29l.07.06a1,1,0,0,0,.22.15l.05,0A18.45,18.45,0,0,1,42,48v6a1,1,0,0,0-2,0H38a1,1,0,0,0-2,0H34a1,1,0,0,0-2,0H30a1,1,0,0,0-2,0H26a1,1,0,0,0,0,2H49a1,1,0,0,1,0,2H26a1,1,0,0,0,0,2H49a3,3,0,0,0,0-6Z"/>
        </g>
    </g>
</svg>