<svg xmlns="http://www.w3.org/2000/svg" viewBox="0 0 259.69 295.24">
    <g data-name="Слой 2">
        <g data-name="Layer 1">
            <path d="M259.69.09,232,20.81l-27.84,64.9H181.78l-8.79-19h5.74a19,19,0,0,0,19-19V28.57h9.52V0H178.73V28.57h9.52V47.71a9.46,9.46,0,0,1-9.52,9.43H168.6L156.42,30.81,171,23.54,123.26,3.1,112,42.38A42.84,42.84,0,1,0,45.4,78.54v7.18H33.87l-.74,3.91a107.17,107.17,0,0,0-.64,36.65L0,184.17l35.88,8.2v60H83.49v42.86H197.78V228.88a124.11,124.11,0,0,0,52.34-101.94V109.57a110.6,110.6,0,0,0-1.82-19.9l-.7-3.95h-9.35l21.43-51.34V.09Zm-71.43,19V9.61h9.52v9.52Zm-17,66.58H153.23l-8.66-19H162.5ZM129.44,16.12l18.93,8.11-4.47,2.19,14.2,30.72H140.24l-11.6-25.47-4.26,2.15Zm13.32,69.6H121.59V76.28a9.61,9.61,0,0,1,9.52-9.61h3Zm-18.7-41.06,5.78,12.71a19,19,0,0,0-17.78,18.92v9.43H93V78.54a43,43,0,0,0,18.18-27.45Zm-88.19-1.7a33.33,33.33,0,1,1,50,28.84L83.5,73.16V85.71H74V56.35a14.28,14.28,0,1,0-9.52,0V85.71H54.92V73.16l-2.38-1.38A33.45,33.45,0,0,1,35.88,42.95Zm33.33,4.76A4.76,4.76,0,1,1,74,42.95,4.77,4.77,0,0,1,69.21,47.71ZM239.59,95.24a100,100,0,0,1,1,14.29v17.4a116,116,0,0,1-50.29,95.55l-2.1,1.43v61.8H93V242.86H45.4V184.77l-30.86-7L42.41,128l-.27-1.7a98.24,98.24,0,0,1-.33-31.09H239.59Zm-11.65-9.53H214.52l23.74-55.34,10.56,5.26Zm22.22-60-5.27-2.63,5.27-3.94Z"/>
            <path d="M78.73,123.81c-7.88,0-14.29-4.76-14.29-14.29H54.92c0,14.29,10.68,23.81,23.81,23.81s23.81-9.52,23.81-23.81H93C93,119,86.61,123.81,78.73,123.81Z"/>
        </g>
    </g>
</svg>