<svg id="Режим_изоляции" data-name="Режим изоляции" xmlns="http://www.w3.org/2000/svg" viewBox="0 0 107.98 107.98"><defs><style>.cls-1{fill:#fff;}.cls-2{fill:#344c62;}</style></defs><title>1</title><path class="cls-1" d="M1540.19,368.81v17.85h-19.25v67.67a11.24,11.24,0,0,1-11.22,11.23h-66.28a11.25,11.25,0,0,1-11.23-11.23V439.9h17.53V368.81A11.25,11.25,0,0,1,1461,357.58h68A11.25,11.25,0,0,1,1540.19,368.81Z" transform="translate(-1432.21 -357.58)"/><path class="cls-2" d="M1529,357.58h-68a11.25,11.25,0,0,0-11.23,11.23V439.9h-17.53v14.43a11.25,11.25,0,0,0,11.23,11.23h66.28a11.24,11.24,0,0,0,11.22-11.23V386.66h19.25V368.81A11.25,11.25,0,0,0,1529,357.58Zm-85.52,104.77a8,8,0,0,1-8-8V443.11h63.07v11.22a11.21,11.21,0,0,0,3.38,8Zm74.3-93.54v85.52a8,8,0,1,1-16,0V439.9H1453V368.81a8,8,0,0,1,8-8h60.14A11.2,11.2,0,0,0,1517.74,368.81ZM1537,383.45h-16V368.81a8,8,0,0,1,16,0Z" transform="translate(-1432.21 -357.58)"/><polygon class="cls-2" points="57.2 88.74 57.2 91.94 59.87 91.94 59.87 94.62 63.08 94.62 63.08 88.74 57.2 88.74"/><rect class="cls-2" x="59.87" y="97.82" width="3.21" height="3.21"/><rect class="cls-2" x="50.78" y="88.74" width="3.21" height="3.21"/><polygon class="cls-2" points="98.36 14.65 98.36 19.46 93.55 19.46 93.55 22.67 101.56 22.67 101.56 14.65 98.36 14.65"/><rect class="cls-2" x="40.31" y="12.4" width="25.66" height="3.21"/><rect class="cls-2" x="27.48" y="23.09" width="51.32" height="3.21"/><rect class="cls-2" x="27.48" y="31.65" width="51.32" height="3.21"/><rect class="cls-2" x="27.48" y="40.2" width="51.32" height="3.21"/><rect class="cls-2" x="27.48" y="48.75" width="51.32" height="3.21"/><rect class="cls-2" x="43.51" y="57.31" width="3.21" height="3.21"/><rect class="cls-2" x="49.93" y="57.31" width="3.21" height="3.21"/><rect class="cls-2" x="27.48" y="57.31" width="12.83" height="3.21"/><path class="cls-2" d="M1502,418.52a9.08,9.08,0,1,0,9.09,9.09A9.1,9.1,0,0,0,1502,418.52Zm0,15a5.88,5.88,0,1,1,5.88-5.88A5.89,5.89,0,0,1,1502,433.49Z" transform="translate(-1432.21 -357.58)"/><polygon class="cls-2" points="6.42 88.74 6.42 95.69 9.62 95.69 9.62 91.94 16.36 91.94 16.36 88.74 6.42 88.74"/><rect class="cls-2" x="25.98" y="88.74" width="3.21" height="3.21"/><rect class="cls-2" x="19.57" y="88.74" width="3.21" height="3.21"/></svg>