<svg id="Слой_1" data-name="Слой 1" xmlns="http://www.w3.org/2000/svg" viewBox="0 0 488.25 224.5"><defs><style>.cls-1{fill:none;}.cls-2{fill:#e01e1d;}</style></defs><title>logo2</title><path d="M80,593.56l10.5,17.5h-15l-7-14v14h-13v-35h13v14l6-14h15Z" transform="translate(-55.46 -387.3)"/><path d="M111.46,611.81c-11.5,0-19.5-8-19.5-18.25s8-18.25,19.5-18.25,19.5,8,19.5,18.25S123,611.81,111.46,611.81Zm0-24.25a6,6,0,1,0,5.5,6A5.67,5.67,0,0,0,111.46,587.56Z" transform="translate(-55.46 -387.3)"/><path d="M155,611.06l-6-19.5v19.5H136v-35h18.5l5.75,19,5.75-19h18.5v35h-13v-19.5l-6,19.5Z" transform="translate(-55.46 -387.3)"/><path d="M220.46,576.06v11.5H211v23.5H198v-23.5h-9.5v-11.5Z" transform="translate(-55.46 -387.3)"/><path d="M237.46,601.06h15v10h-28v-35h27v10h-14v2.5h13v10h-13Z" transform="translate(-55.46 -387.3)"/><path d="M274.46,575.31c9.5,0,14,5.5,14,5.5l-6,9.5s-3-2.75-6.5-2.75a6,6,0,0,0,0,12c3.5,0,6.5-2.75,6.5-2.75l6,9.5s-4.5,5.5-14,5.5a18.25,18.25,0,1,1,0-36.5Z" transform="translate(-55.46 -387.3)"/><path d="M305.46,588.06h8v-12h13v35h-13v-12h-8v12h-13v-35h13Z" transform="translate(-55.46 -387.3)"/><path d="M368.46,576.06v11h-13v4H366v10h-10.5v10h-13v-35Z" transform="translate(-55.46 -387.3)"/><path d="M390,611.81c-11.5,0-19.5-8-19.5-18.25s8-18.25,19.5-18.25,19.5,8,19.5,18.25S401.46,611.81,390,611.81Zm0-24.25a6,6,0,1,0,5.5,6A5.67,5.67,0,0,0,390,587.56Z" transform="translate(-55.46 -387.3)"/><path d="M434,611.06l-6-11.5h-.5v11.5h-13v-35s7-.5,14.5-.5c11,0,16,5,16,12.25s-4.5,9.75-4.5,9.75l8.5,13.5Zm-5-20.5a2.76,2.76,0,1,0,0-5.5h-1.5v5.5Z" transform="translate(-55.46 -387.3)"/><path d="M464,601.06h15v10H451v-35h27v10H464v2.5h13v10H464Z" transform="translate(-55.46 -387.3)"/><path d="M496.21,600.06c0-2.5-13.5-2.5-13.5-13.5,0-5.75,5.5-11.25,14.25-11.25,9,0,13.5,5.5,13.5,5.5l-4.75,7.5s-3-2.75-6.5-2.75c-1.25,0-2,.75-2,1.5,0,2.5,13.5,2.5,13.5,13.5,0,5.75-5.5,11.25-14.25,11.25-11,0-15.5-6-15.5-6l4.75-7.5a13.62,13.62,0,0,0,8.5,3.25C495.46,601.56,496.21,600.81,496.21,600.06Z" transform="translate(-55.46 -387.3)"/><path d="M543.71,576.06v11.5h-9.5v23.5h-13v-23.5h-9.5v-11.5Z" transform="translate(-55.46 -387.3)"/><polygon class="cls-1" points="295.56 102.93 216.4 125.07 224.43 129.71 295.56 106 295.56 102.93"/><polygon class="cls-1" points="243.12 140.5 274.66 122.29 234.67 135.62 243.12 140.5"/><polygon class="cls-1" points="295.56 49.67 243.12 19.39 190.68 49.67 190.68 110.22 198.71 114.86 216.13 109.75 198.71 114.86 207.03 119.66 221.73 115.34 207.03 119.66 216.4 125.07 295.56 102.93 295.56 49.67"/><polygon class="cls-1" points="295.56 106 224.43 129.71 234.67 135.62 274.66 122.29 295.56 110.22 295.56 106"/><polygon class="cls-2" points="295.56 110.22 274.66 122.29 312.36 109.73 312.36 100.4 295.56 106 295.56 110.22"/><polygon class="cls-2" points="224.43 129.71 203.13 136.8 213.38 142.72 234.67 135.62 224.43 129.71"/><polygon class="cls-2" points="224.78 149.3 243.12 159.89 312.36 119.92 312.36 116.15 224.78 149.3"/><polygon class="cls-2" points="207.03 119.66 184.76 126.19 193.77 131.4 216.4 125.07 207.03 119.66"/><polygon class="cls-2" points="190.68 110.22 190.68 49.67 243.12 19.39 295.56 49.67 295.56 102.93 312.36 98.23 312.36 39.97 243.12 0 173.89 39.97 173.89 119.92 176.44 121.39 198.71 114.86 190.68 110.22"/><path class="cls-2" d="M274.51,468.91l8.63,14.38H270.81l-5.75-11.5v11.5H254.38V454.54h10.68V466l4.93-11.5h12.32Z" transform="translate(-55.46 -387.3)"/><path class="cls-2" d="M314.75,454.54V464h-7.8v19.3H296.26V464h-7.8v-9.45Z" transform="translate(-55.46 -387.3)"/><path class="cls-2" d="M345.13,454.54v9H334.45v3.29h8.63v8.21h-8.63v8.21H323.77V454.54Z" transform="translate(-55.46 -387.3)"/></svg>