<svg id="Режим_изоляции" data-name="Режим изоляции" xmlns="http://www.w3.org/2000/svg" viewBox="0 0 131.94 108.53"><defs><style>.cls-1{fill:#fff;}.cls-2{fill:#344c62;}</style></defs><title>2</title><path class="cls-1" d="M854.64,687.4V764a8.53,8.53,0,0,1-8.51,8.52H807.82v10.64h14.9v4.25h-68.1v-4.25h14.9V772.53H731.21A8.52,8.52,0,0,1,722.7,764V687.4a8.52,8.52,0,0,1,8.51-8.51H846.13A8.52,8.52,0,0,1,854.64,687.4Z" transform="translate(-722.7 -678.89)"/><path class="cls-2" d="M846.13,678.89H731.21a8.52,8.52,0,0,0-8.51,8.51V764a8.52,8.52,0,0,0,8.51,8.52h38.31v10.64h-14.9v4.25h68.1v-4.25h-14.9V772.53h38.31a8.53,8.53,0,0,0,8.51-8.52V687.4A8.52,8.52,0,0,0,846.13,678.89ZM803.57,783.17h-29.8V772.53h29.8ZM850.38,764a4.26,4.26,0,0,1-4.25,4.26H731.21A4.26,4.26,0,0,1,727,764V687.4a4.26,4.26,0,0,1,4.26-4.26H846.13a4.26,4.26,0,0,1,4.25,4.26Z" transform="translate(-722.7 -678.89)"/><path class="cls-2" d="M731.21,687.4V764H846.13V687.4Zm110.66,72.36H735.47v-68.1h106.4Z" transform="translate(-722.7 -678.89)"/><circle class="cls-2" cx="19.15" cy="19.15" r="2.13"/><circle class="cls-2" cx="25.53" cy="19.15" r="2.13"/><circle class="cls-2" cx="31.92" cy="19.15" r="2.13"/><path class="cls-2" d="M739.72,704.43V730h29.8V704.43Zm25.54,21.28H744v-17h21.28Z" transform="translate(-722.7 -678.89)"/><path class="cls-2" d="M773.77,704.43V730h29.8V704.43Zm25.54,21.28H778v-17h21.28Z" transform="translate(-722.7 -678.89)"/><path class="cls-2" d="M807.82,704.43V730h29.8V704.43Zm25.54,21.28H812.08v-17h21.28Z" transform="translate(-722.7 -678.89)"/><rect class="cls-2" x="17.02" y="55.33" width="63.84" height="4.26"/><rect class="cls-2" x="17.02" y="63.84" width="63.84" height="4.26"/><rect class="cls-2" x="17.02" y="72.35" width="63.84" height="4.26"/><rect class="cls-2" x="87.25" y="55.33" width="27.67" height="4.26"/><rect class="cls-2" x="87.25" y="63.84" width="27.67" height="4.26"/><rect class="cls-2" x="87.25" y="72.35" width="27.67" height="4.26"/></svg>