<svg xmlns="http://www.w3.org/2000/svg" viewBox="0 0 456.91 512">
    <g data-name="Слой 2">
        <g data-name="Capa 1">
            <path d="M259.83,105.86a286.65,286.65,0,0,0-31.37-1.72c-60.72,0-117.88,19-160.94,53.38C24,192.32,0,238.74,0,288.22c0,29.52,8.86,58.86,25.62,84.85,16.1,25,39.51,47,67.72,63.65a7.29,7.29,0,1,0,7.42-12.54c-54.77-32.39-86.19-81.94-86.19-136,0-93.47,95.95-169.51,213.88-169.51a272.15,272.15,0,0,1,29.77,1.63,7.29,7.29,0,1,0,1.6-14.48Z"/>
            <path d="M389.93,157.94a7.29,7.29,0,1,0-9.14,11.35c39.69,31.93,61.55,74.17,61.55,118.93v.23a12.55,12.55,0,0,1-4.43,9.6,13.2,13.2,0,0,1-10.54,3.07c-34.26-5-66.81-7.11-91.64-6-32.18,1.44-48.62,7.91-51.76,20.35-2.2,8.75,2.94,18.09,15.71,28.54,9.76,8,23.91,16.64,42.05,25.72a34.8,34.8,0,0,1,.1,62.22c-33.94,16.87-73.15,25.79-113.38,25.79a270.68,270.68,0,0,1-37.7-2.63,7.29,7.29,0,0,0-2,14.43,285.3,285.3,0,0,0,39.74,2.77c42.47,0,83.93-9.45,119.87-27.32a49.37,49.37,0,0,0-.07-88.3C305,335.07,297.38,321.92,298.11,319c.54-2.15,8.47-8,38.27-9.35,23.94-1.07,55.51,1,88.89,5.86a27.78,27.78,0,0,0,22.16-6.46,27.29,27.29,0,0,0,9.48-20.62v-.24C456.91,239,433.13,192.7,389.93,157.94Z"/>
            <path d="M400.28,10.44,400.2,10l-.08-.53L400,8.88A10.46,10.46,0,0,0,385.73.79l-1.08.45,0,0A411,411,0,0,0,334.85,25.9l-.3.17-1.78,1.07a222.44,222.44,0,0,0-22.25,15.1c-.17.13-.32.28-.48.42-8.93,7-16.65,14.63-21.81,22.52-10.45,16-11,37.69-9.81,52.55a15.14,15.14,0,0,0-12.24,7.65l-7.65,13.54A15.16,15.16,0,0,0,262,158a823.59,823.59,0,0,0-61.69,89.62A7.29,7.29,0,0,0,212.82,255a805.54,805.54,0,0,1,61.84-89.58l41.53,23.49c-9.4,25.44-40.17,103-88.72,169.45-30.57,41.86-72.29,96-101.91,134.06-3.42,4.4-7.68,6.09-10.84,4.3s-3.91-6.3-1.9-11.51c17.35-45,42.25-108.66,62.36-156.43,4.72-11.2,10.1-22.79,16-34.44a7.29,7.29,0,1,0-13-6.58c-6,12-11.57,23.85-16.42,35.36C141.57,371.08,116.61,434.89,99.23,480c-5.41,14,.29,24.89,8.33,29.43a20.27,20.27,0,0,0,10,2.59c6.49,0,13.64-3,19.55-10.62C166.74,463.25,208.56,409,239.24,367c48.4-66.27,79.48-143.16,89.89-171a15,15,0,0,0,4.9.83,15.23,15.23,0,0,0,4.07-.56,15,15,0,0,0,9.13-7.14l7.65-13.54A15,15,0,0,0,356.3,164a15.28,15.28,0,0,0-1.15-2.93c13.37-6.61,31.63-18.28,40-35.49a88.79,88.79,0,0,0,6.95-22.94c0-.15.09-.3.11-.46a192.72,192.72,0,0,0,2.54-29.28c0-.18,0-.35,0-.53q0-.79,0-1.59C405,46.06,402,21.91,400.28,10.44ZM342.2,168.36l-7.65,13.54a.55.55,0,0,1-.35.27.54.54,0,0,1-.43-.05l-62.33-35.25a.57.57,0,0,1-.22-.78l7.65-13.54a.57.57,0,0,1,.5-.29.57.57,0,0,1,.28.07L342,167.58a.57.57,0,0,1,.22.78ZM382,119.26c-8,16.49-29.59,27.38-39.73,31.73l-48.53-27.45c-1.49-10.93-3.3-35.06,6.72-50.4a72.64,72.64,0,0,1,12.57-14c.11.64.2,1.27.29,1.85,1,6.41,2.58,17.14,14.56,20.79,9.07,2.76,15.62-1.42,19.53-3.92.59-.38,1.32-.84,1.9-1.17a18.39,18.39,0,0,1,2,2.82,59.46,59.46,0,0,1,5.56,13.38c2.52,8,5.64,18,21.31,18,.56,0,1.14,0,1.74,0,1.78-.08,3.62-.25,5.49-.49A58.47,58.47,0,0,1,382,119.26Zm8.21-51.36q0,1,0,2.1a199.86,199.86,0,0,1-1.67,25,57.53,57.53,0,0,1-9.29,1.23c-1.73.07-4.77.06-5.71-.91s-1.85-3.82-2.79-6.82A72.74,72.74,0,0,0,363.8,72.1c-2.16-3.65-5.68-8.65-11.28-10a12.23,12.23,0,0,0-2.83-.34c-4.16,0-7.54,2.16-10.13,3.82-3.48,2.22-5,3-7.44,2.26-2.68-.82-3.38-2.25-4.4-9a37.68,37.68,0,0,0-2.33-9.48c3.28-2.34,6.73-4.65,10.32-6.92l1.93-1.2.19-.12a388.61,388.61,0,0,1,48.57-24.8,394,394,0,0,1,3.8,51.11C390.2,67.58,390.2,67.75,390.2,67.91Z"/>
            <path d="M169.86,140.22a33.9,33.9,0,1,0,33.9,33.9A33.94,33.94,0,0,0,169.86,140.22Zm0,53.23a19.33,19.33,0,1,1,19.33-19.33A19.35,19.35,0,0,1,169.86,193.45Z"/>
            <path d="M99.19,198.65a33.9,33.9,0,1,0,33.9,33.9A33.94,33.94,0,0,0,99.19,198.65Zm0,53.23a19.33,19.33,0,1,1,19.33-19.33A19.35,19.35,0,0,1,99.19,251.88Z"/>
            <path d="M85.67,294.24a33.9,33.9,0,1,0,33.9,33.9A33.94,33.94,0,0,0,85.67,294.24Zm0,53.23A19.33,19.33,0,1,1,105,328.15,19.35,19.35,0,0,1,85.67,347.48Z"/>
        </g>
    </g>
</svg>