<svg id="Режим_изоляции" data-name="Режим изоляции" xmlns="http://www.w3.org/2000/svg" viewBox="0 0 114.64 107.98"><defs><style>.cls-1{fill:#fff;}.cls-2{fill:#344c62;}</style></defs><title>5</title><path class="cls-1" d="M1707.74,1423.53l4.51-6.38s7.93-7.34,8.4-7.87,9.84-8.62,9.84-8.62l-1.29-6.37-4.82,1.56-10.27,11.35-8.55,7.31-3.11-2.18-7.31-5.75-9.8-4.51-11.76-2h-13.13c-.62,0-13.53,4-13.53,4l-12.91,9.33-12,17.26-2.33,14.27v13.73l4,11.91,8.71,13.29s6.53,4.3,6.84,5.34,11.2,6.48,11.2,6.48l12,3,12.62.62,10.87-3,10.11-5.13,8.55-6.38,6.84-9.33,4.2-7.15,2.33-9.64,3.15-11.72s-1.61-6.7-5.63-9.12-22.69,7.23-21.65,2.37a1,1,0,0,1-.87-1.63l7.11-8.36Z" transform="translate(-1617.37 -1392.97)"/><path class="cls-2" d="M1691.36,1417.92a8.8,8.8,0,0,0-3-6.11,8.9,8.9,0,0,0-14.79,7.17,8.8,8.8,0,0,0,3,6.11,8.9,8.9,0,0,0,14.79-7.17Zm-4.86,4.09a5.4,5.4,0,0,1-7.61.45,5.35,5.35,0,0,1-.44-7.57,5.4,5.4,0,0,1,7.61-.45,5.35,5.35,0,0,1,.44,7.57Z" transform="translate(-1617.37 -1392.97)"/><path class="cls-2" d="M1665.64,1417.63a8.88,8.88,0,0,0-8.87-8.35l-.54,0a8.87,8.87,0,0,0,.51,17.73l.54,0A8.9,8.9,0,0,0,1665.64,1417.63Zm-8.57,5.88a5.36,5.36,0,1,1-.63-10.71h.33a5.36,5.36,0,0,1,.3,10.72Z" transform="translate(-1617.37 -1392.97)"/><path class="cls-2" d="M1647.23,1435.55a8.8,8.8,0,0,0-3-6.11,8.9,8.9,0,0,0-14.79,7.17,8.8,8.8,0,0,0,3,6.11,8.9,8.9,0,0,0,14.79-7.17Zm-4.86,4.09a5.4,5.4,0,0,1-7.61.45,5.35,5.35,0,0,1-.44-7.57,5.4,5.4,0,0,1,7.61-.45,5.35,5.35,0,0,1,.44,7.57Z" transform="translate(-1617.37 -1392.97)"/><path class="cls-2" d="M1646.91,1461.19a8.88,8.88,0,0,0-8.87-8.35l-.54,0a8.87,8.87,0,0,0,.51,17.73l.54,0A8.9,8.9,0,0,0,1646.91,1461.19Zm-8.57,5.88a5.37,5.37,0,1,1-.63-10.71h.33a5.36,5.36,0,0,1,.3,10.72Z" transform="translate(-1617.37 -1392.97)"/><path class="cls-2" d="M1664.86,1479.52a8.8,8.8,0,0,0-3-6.11,8.9,8.9,0,0,0-14.79,7.17,8.8,8.8,0,0,0,3,6.11,8.9,8.9,0,0,0,14.79-7.17Zm-4.85,4.09a5.4,5.4,0,0,1-7.61.45,5.35,5.35,0,0,1-.44-7.57,5.4,5.4,0,0,1,7.61-.45,5.35,5.35,0,0,1,.44,7.57Z" transform="translate(-1617.37 -1392.97)"/><path class="cls-2" d="M1690.58,1479.82a8.88,8.88,0,0,0-8.87-8.35l-.54,0a8.87,8.87,0,0,0,.51,17.73l.54,0A8.9,8.9,0,0,0,1690.58,1479.82Zm-8.57,5.88a5.37,5.37,0,1,1-.63-10.71h.33a5.36,5.36,0,0,1,.3,10.72Z" transform="translate(-1617.37 -1392.97)"/><path class="cls-2" d="M1709,1461.89a8.8,8.8,0,0,0-3-6.11,8.9,8.9,0,0,0-14.79,7.17,8.8,8.8,0,0,0,3,6.11,8.9,8.9,0,0,0,14.79-7.17Zm-4.85,4.09a5.4,5.4,0,0,1-7.61.45,5.35,5.35,0,0,1-.44-7.57,5.4,5.4,0,0,1,7.61-.45,5.35,5.35,0,0,1,.44,7.57Z" transform="translate(-1617.37 -1392.97)"/><path class="cls-2" d="M1730.81,1394.16a4.14,4.14,0,0,0-3-1.19,5.08,5.08,0,0,0-3.55,1.52l-8.7,8.69h0l-8.14,8.14-2,1.51a10.4,10.4,0,0,0-2.35-2.91,51.94,51.94,0,0,0-85.77,39.34,51.28,51.28,0,0,0,15.17,36.57,52,52,0,0,0,82.94-13,1.75,1.75,0,1,0-3.12-1.61,48.21,48.21,0,1,1-11.5-58.6,6.93,6.93,0,0,1,1.82,2.44,281.18,281.18,0,0,0-29.72,27.12l-.18,0c-3,.93-5.69,3.24-8.19,7a73.85,73.85,0,0,0-5.17,10.07,62.63,62.63,0,0,1-3.24,6.57,2.11,2.11,0,0,0,2.9,2.91,62.6,62.6,0,0,1,6.59-3.24c1-.47,2.12-1,3.22-1.47a1.75,1.75,0,0,0-1.49-3.18c-1.07.5-2.14,1-3.17,1.44s-2,.9-3,1.34c.44-.94.89-1.94,1.34-3a71.24,71.24,0,0,1,4.9-9.58,14.06,14.06,0,0,1,5.27-5.21l.31.31-1.46,1.46a1.75,1.75,0,1,0,2.48,2.48l1.46-1.46.65.65-3.18,3.18a1.75,1.75,0,0,0,2.48,2.48l3.18-3.18.31.31a14.06,14.06,0,0,1-5.21,5.27,1.75,1.75,0,1,0,1.92,2.93c3.8-2.49,6.11-5.17,7-8.18,0-.06,0-.13,0-.19q5.06-4.8,9.91-9.89l.19.21a8.05,8.05,0,0,0,11.35,0l1.41-1.41a7,7,0,0,1,11.85,4.33,48.1,48.1,0,0,1-2,18,1.75,1.75,0,0,0,3.35,1A51.59,51.59,0,0,0,1721,1445a10.46,10.46,0,0,0-17.83-6.54l-1.41,1.41a4.54,4.54,0,0,1-6.39,0l-.26-.28q3.75-4,7.33-8.19a1.75,1.75,0,1,0-2.66-2.29l-1.93,2.21-4.22-4.22q7.2-6.32,14.8-12.12l1.53,1.53c-1.84,2.41-3.74,4.82-5.65,7.16a1.75,1.75,0,1,0,2.72,2.22c2.24-2.74,4.45-5.56,6.58-8.39l16.84-16.84a5.1,5.1,0,0,0,1.5-3.18A4.2,4.2,0,0,0,1730.81,1394.16Zm-50,54.89-4.93-4.93,2-2,5,5Zm4.55-4.44-5-5,1.82-1.81,5,5Zm4.26-4.34-4.95-4.95,1.87-1.77,4.86,4.86Zm5.9-6.34-1.73,1.9-4.68-4.68,1.91-1.73Zm16.78-20.07-1.22-1.21,5.75-5.75,1.22,1.21Zm16.17-16.66a1.61,1.61,0,0,1-.48,1l-7.46,7.46-1.22-1.22,7.46-7.45a1.58,1.58,0,0,1,1.07-.49.67.67,0,0,1,.47.16A.72.72,0,0,1,1728.49,1397.2Z" transform="translate(-1617.37 -1392.97)"/></svg>