<svg id="Режим_изоляции" data-name="Режим изоляции" xmlns="http://www.w3.org/2000/svg" viewBox="0 0 101.81 124.14"><defs><style>.cls-1{fill:#fff;}.cls-2{fill:#344c62;}</style></defs><title>4</title><path class="cls-1" d="M846.08,1217.36s-7.34,43.67-50.86,48.72c-46.06,0-49.2-49.81-49.2-49.81l35.55-62.59h30.69Z" transform="translate(-744.32 -1151.51)"/><path class="cls-2" d="M814.2,1225.5l-5.28-33.78,3.34-38a2,2,0,0,0-2-2.17H780.94a2,2,0,0,0-2,2.14l2.78,37.27a2,2,0,0,0-.17.55l-5.32,34a2,2,0,0,0,.19,1.2l17,34a2,2,0,0,0,3.57,0l17-34A2,2,0,0,0,814.2,1225.5Zm-6.1-70-3,34.29H785.64l-2.56-34.29Zm-12.88,66.19a5.45,5.45,0,1,1,5.45-5.45A5.46,5.46,0,0,1,795.22,1221.69Zm2,29.7v-25.93a9.44,9.44,0,1,0-4,0v25.93l-13-25.9,5-31.71h20l5,31.71Z" transform="translate(-744.32 -1151.51)"/><path class="cls-2" d="M834.56,1261H823.93a2,2,0,0,0-2,2v3.32H768.51V1263a2,2,0,0,0-2-2H755.88a2,2,0,0,0-2,2v10.63a2,2,0,0,0,2,2h10.63a2,2,0,0,0,2-2v-3.32h53.43v3.32a2,2,0,0,0,2,2h10.63a2,2,0,0,0,2-2V1263A2,2,0,0,0,834.56,1261Zm-70,10.63h-6.65V1265h6.65Zm68.05,0h-6.65V1265h6.65Z" transform="translate(-744.32 -1151.51)"/><path class="cls-2" d="M844.13,1213.18a2,2,0,0,0-2,2,46.92,46.92,0,1,1-93.84,0,2,2,0,0,0-4,0,50.91,50.91,0,0,0,101.81,0A2,2,0,0,0,844.13,1213.18Z" transform="translate(-744.32 -1151.51)"/></svg>