<?xml version="1.0" encoding="iso-8859-1"?>
<!-- Generator: Adobe Illustrator 19.0.0, SVG Export Plug-In . SVG Version: 6.00 Build 0)  -->
<svg version="1.1" id="Capa_1" xmlns="http://www.w3.org/2000/svg" xmlns:xlink="http://www.w3.org/1999/xlink" x="0px" y="0px"
	 viewBox="0 0 512 512" style="enable-background:new 0 0 512 512;" xml:space="preserve">
<g>
	<g>
		<path d="M400.282,152.297c-12.338,0-24.627,2.063-36.247,6.036c2.448-9.949,3.683-20.183,3.683-30.584
			c0-22.411-5.888-44.462-17.029-63.767c-2.075-3.596-6.673-4.827-10.265-2.753c-3.594,2.074-4.826,6.67-2.752,10.265
			c9.824,17.024,15.017,36.477,15.017,56.255c0,14.223-2.613,28.086-7.768,41.204c-2.488,6.331,4.455,12.571,10.488,9.401
			c13.742-7.215,29.259-11.029,44.874-11.029c53.314,0,96.689,43.375,96.689,96.689c0,53.314-43.375,96.689-96.689,96.689H383.75
			v-80.658c0-1.974-0.805-3.918-2.2-5.313l-64.125-64.125c-1.397-1.397-3.34-2.201-5.314-2.201h-16.532v-49.096h16.532
			c6.55,0,9.95-8.191,5.314-12.828l-56.11-56.11c-2.936-2.935-7.693-2.935-10.628,0l-56.11,56.11
			c-4.637,4.637-1.237,12.828,5.313,12.828h16.532v49.096h-80.658c-4.151,0-7.515,3.365-7.515,7.515v144.783h-0.501
			c-62.154,0-112.72-50.566-112.72-112.72c0-59.182,46.21-108.582,105.201-112.465c3.982-0.263,7.064-3.59,7.022-7.579l-0.004-0.191
			c0-62.154,50.566-112.72,112.72-112.72c28.009,0,54.86,10.341,75.609,29.118c3.077,2.783,7.829,2.548,10.614-0.529
			c2.784-3.077,2.548-7.829-0.529-10.615C302.145,11.721,271.713,0,239.969,0c-68.232,0-124.14,53.769-127.581,121.16
			C48.829,128.793,0,183.22,0,247.984c0,70.442,57.308,127.75,127.75,127.75h0.501v128.751c0,4.15,3.364,7.515,7.515,7.515h240.47
			c4.151,0,7.515-3.365,7.515-7.515V375.734h16.532c61.601,0,111.718-50.117,111.718-111.718S461.883,152.297,400.282,152.297z
			 M319.624,234.063l38.469,38.469h-38.469V234.063z M256,106.314l37.968,37.968h-5.906c-4.151,0-7.515,3.365-7.515,7.515v176.845
			h-49.096V151.796c0-4.15-3.364-7.515-7.515-7.515h-5.906L256,106.314z M368.72,496.971H143.28V223.436h73.143v112.72
			c0,4.15,3.364,7.515,7.515,7.515h64.125c4.151,0,7.515-3.365,7.515-7.515v-112.72h9.018v56.611c0,4.15,3.364,7.515,7.515,7.515
			h56.611V496.971z"/>
	</g>
</g>
<g>
	<g>
		<path d="M296.078,368.72h-80.157c-4.151,0-7.515,3.365-7.515,7.515c0,4.15,3.364,7.515,7.515,7.515h80.157
			c4.151,0,7.515-3.365,7.515-7.515C303.593,372.085,300.229,368.72,296.078,368.72z"/>
	</g>
</g>
<g>
	<g>
		<path d="M296.078,400.783h-80.157c-4.151,0-7.515,3.365-7.515,7.515c0,4.15,3.364,7.515,7.515,7.515h80.157
			c4.151,0,7.515-3.365,7.515-7.515C303.593,404.147,300.229,400.783,296.078,400.783z"/>
	</g>
</g>
<g>
	<g>
		<path d="M296.078,432.845h-80.157c-4.151,0-7.515,3.365-7.515,7.515c0,4.15,3.364,7.515,7.515,7.515h80.157
			c4.151,0,7.515-3.365,7.515-7.515C303.593,436.21,300.229,432.845,296.078,432.845z"/>
	</g>
</g>
<g>
</g>
<g>
</g>
<g>
</g>
<g>
</g>
<g>
</g>
<g>
</g>
<g>
</g>
<g>
</g>
<g>
</g>
<g>
</g>
<g>
</g>
<g>
</g>
<g>
</g>
<g>
</g>
<g>
</g>
</svg>
