<svg xmlns="http://www.w3.org/2000/svg" viewBox="0 0 512 512"><defs><style>.cls-1{fill:#fff;stroke:#000;stroke-miterlimit:10;}.cls-2{fill:#4e6476;}</style></defs><title>analytics</title><g id="Слой_2" data-name="Слой 2"><path class="cls-1" d="M7,504H388V430s66,77,69,74,23,.09,23,.09L500,492l5-25-80-83,4-31s8-19.35,9-22.68S431,278,431,278l-30-41-15-11,3-153L321,7H7Z"/></g><g id="Layer_1" data-name="Layer 1"><path class="cls-2" d="M74.32,231.23h49.55V148.65H74.32Zm16.52-66.06h16.52v49.55H90.84Z"/><path class="cls-2" d="M140.39,231.23h49.55v-99.1H140.39Zm16.52-82.58h16.52v66.06H156.9Z"/><path class="cls-2" d="M181.68,396.39H115.61V330.32h-8.26a74.32,74.32,0,1,0,74.32,74.32Zm-74.32,66.06a57.81,57.81,0,0,1-8.26-115V412.9h65.48A57.9,57.9,0,0,1,107.35,462.45Z"/><rect class="cls-2" x="181.68" y="462.45" width="148.65" height="16.52"/><rect class="cls-2" x="346.84" y="462.45" width="16.52" height="16.52"/><path class="cls-2" d="M512,189.94V132.13H454.19v16.52h29.61L403.5,229c-2.3-2-4.67-3.91-7.11-5.75V70.9L325.48,0H0V512H396.39V465.87l8.26-8.26L448.06,501a37.45,37.45,0,1,0,53-53l-43.41-43.41L468.29,394l-11.68-11.68L445.94,393l-14-14a123.09,123.09,0,0,0-16.79-138.36l80.31-80.31v29.61ZM330.32,28.19l37.87,37.87H330.32Zm49.55,54.39v130a123,123,0,0,0-16.52-7.18V82.58Zm-33,0V200.69a124.36,124.36,0,0,0-24.77-2.49V99.1H272.52V208.61A122.84,122.84,0,0,0,256,217.47V66.06H206.45V231.23h31.69A124.88,124.88,0,0,0,223,248.06v-.31H49.55V49.55H313.81v33Zm-41.29,33v83.81A122.69,122.69,0,0,0,289,202.8V115.61Zm-66.06-33V214.71H223V82.58Zm140.39,412.9H16.52v-479H313.81V33H33V264.26H212.6a123,123,0,0,0-14.4,57.81c0,1.07.13,2.1.16,3.15a74.15,74.15,0,0,0-58-27.93h-8.26v82.58H212.6A123.51,123.51,0,0,0,379,432l.88.88ZM197.61,363.35h-49v-49A58,58,0,0,1,197.61,363.35Zm291.74,96.38a20.94,20.94,0,1,1-29.61,29.61l-43.41-43.41,29.61-29.61Zm-55.09-55.09-29.61,29.61L396.39,426v-5.08a124.55,124.55,0,0,0,26.71-27.44Zm-4.84-82.58a107.66,107.66,0,1,1-37.6-81.44L380.14,252.3A90.92,90.92,0,1,0,391.83,264l11.68-11.68A106.83,106.83,0,0,1,429.42,322.06ZM327.9,327.9l52.17-52.17a74.51,74.51,0,1,1-11.68-11.68l-52.17,52.17Z"/></g></svg>