<svg xmlns="http://www.w3.org/2000/svg" viewBox="0 0 511.99 512"><defs><style>.cls-1{fill:#fff;stroke:#000;stroke-miterlimit:10;}.cls-2{fill:#546a7a;}</style></defs><title>chat</title><g id="Слой_2" data-name="Слой 2"><path class="cls-1" d="M10,505l117-30,36,15s50.67,5,50.33,6,59.73-6,59.73-6L321,464l34-27,27-36,12-22,109,30L470,308l11-22,13-41-1-84-16-41L443,70,398,35,346,12,294,6,228,19,167,56l-39,52-8.53,15L76,160s-40,52-40,55-20,58-20,58l3,59.8L29,374l14,25Z" transform="translate(-0.01)"/></g><g id="Capa_1" data-name="Capa 1"><path class="cls-2" d="M511.56,406.9l-33.26-99.81A205.31,205.31,0,0,0,505.09,205.6C505.08,92.24,412.85,0,299.48,0A205.77,205.77,0,0,0,112.73,119.79C49.68,154.95,6.92,222.29,6.92,299.48A205.34,205.34,0,0,0,33.72,401L.44,500.77A8.53,8.53,0,0,0,8.53,512a8.65,8.65,0,0,0,2.18-.28L119.83,483a206.08,206.08,0,0,0,92.69,22.08c80.75,0,150.75-46.81,184.35-114.71l104.41,27.47a8.77,8.77,0,0,0,2.18.28,8.53,8.53,0,0,0,8.09-11.23ZM212.52,488a189.13,189.13,0,0,1-64.44-11.42l28.25-6.29a8.54,8.54,0,1,0-3.69-16.67L119,465.58c-.06,0-.1.06-.16.07a1,1,0,0,1-.16,0l-97,25.55,29.5-88.51a8.47,8.47,0,0,0-.76-7.06A188.25,188.25,0,0,1,24,299.47c0-73.74,42.58-137.69,104.41-168.66,1.08-.54,2.14-1.09,3.23-1.61,1.72-.82,3.47-1.6,5.22-2.36s3.23-1.4,4.87-2.06c1.44-.59,2.89-1.17,4.36-1.72,2.44-.91,4.9-1.78,7.37-2.59.76-.26,1.51-.53,2.28-.78,3.51-1.11,7.06-2.12,10.62-3l.54-.13c3.34-.83,6.69-1.55,10.07-2.2.75-.15,1.5-.27,2.25-.4q4.24-.76,8.52-1.32l2.82-.36c2.76-.32,5.52-.57,8.29-.77.93-.07,1.85-.16,2.78-.21,3.63-.21,7.26-.34,10.9-.34,104,0,188.55,84.59,188.55,188.55q0,4.93-.26,9.82c-.08,1.56-.24,3.11-.36,4.66s-.22,3.35-.39,5c-.19,1.83-.45,3.64-.69,5.45-.18,1.37-.33,2.76-.55,4.12-.28,1.81-.63,3.59-1,5.38-.26,1.37-.49,2.76-.78,4.13-.35,1.67-.76,3.32-1.15,5-.36,1.49-.69,3-1.08,4.47s-.84,3-1.28,4.48-.95,3.26-1.47,4.88c-.44,1.35-.9,2.69-1.37,4-.6,1.73-1.21,3.47-1.86,5.19-.48,1.26-1,2.52-1.49,3.77-.69,1.72-1.41,3.43-2.15,5.13C356.07,441.45,289.65,488,212.52,488Zm191.4-113.43c.15-.36.23-.73.38-1.1q3-7.82,5.43-15.92c.26-.87.49-1.73.74-2.6,1.48-5.29,2.78-10.65,3.84-16.1.18-.92.33-1.84.49-2.76,1-5.49,1.8-11,2.35-16.66.07-.67.09-1.36.15-2,.51-5.91.83-11.87.83-17.91,0-113.37-92.24-205.61-205.61-205.61-6.08,0-12.07.32-18,.84l-1.43.11c-5.9.55-11.72,1.39-17.46,2.43l-1.48.26q-8.58,1.63-16.89,4l-1.88.54q-8,2.33-15.81,5.28c-.39.15-.8.25-1.19.39A188.75,188.75,0,0,1,299.48,17.07c104,0,188.54,84.58,188.54,188.54a188.27,188.27,0,0,1-26.38,96.17,8.51,8.51,0,0,0-.76,7.06l29.5,88.5Z" transform="translate(-0.01)"/><path class="cls-2" d="M119.47,264.53a34.13,34.13,0,1,0,34.13,34.13A34.17,34.17,0,0,0,119.47,264.53Zm0,51.2a17.07,17.07,0,1,1,17.07-17.07A17.08,17.08,0,0,1,119.47,315.73Z" transform="translate(-0.01)"/><path class="cls-2" d="M213.33,264.53a34.13,34.13,0,1,0,34.13,34.13A34.17,34.17,0,0,0,213.33,264.53Zm0,51.2a17.07,17.07,0,1,1,17.07-17.07A17.08,17.08,0,0,1,213.33,315.73Z" transform="translate(-0.01)"/><path class="cls-2" d="M307.2,264.53a34.13,34.13,0,1,0,34.13,34.13A34.17,34.17,0,0,0,307.2,264.53Zm0,51.2a17.07,17.07,0,1,1,17.07-17.07A17.08,17.08,0,0,1,307.2,315.73Z" transform="translate(-0.01)"/></g></svg>