<svg xmlns="http://www.w3.org/2000/svg" viewBox="0 0 512 495.55">
    <g>
        <g>
            <path d="M289.53,87.57a129.7,129.7,0,1,0,38,91.71A128.85,128.85,0,0,0,289.53,87.57ZM116.55,98a115,115,0,0,1,194.61,62.15L270.9,199.53a26.28,26.28,0,0,0-34.77,8.33L177,189.29c0-.17,0-.34,0-.51a26.32,26.32,0,1,0-49.17,13L96.76,234A115.13,115.13,0,0,1,116.55,98Zm153,124.46A11.55,11.55,0,1,1,258,210.92,11.56,11.56,0,0,1,269.56,222.47ZM162.2,188.78a11.55,11.55,0,1,1-11.55-11.55A11.56,11.56,0,0,1,162.2,188.78Zm116.88,71.76a115,115,0,0,1-174.21-13.67l33.57-34.79a26.28,26.28,0,0,0,34.1-8.7L231.71,222c0,.17,0,.34,0,.51a26.32,26.32,0,1,0,49.54-12.38l31.51-30.81A114.18,114.18,0,0,1,279.08,260.54Z"/>
            <path d="M132.41,103.93l9.69,11.15a85.26,85.26,0,0,1,83.81-16l4.86-13.95A100.07,100.07,0,0,0,132.41,103.93Z"/>
            <path d="M249.73,94.06,242,106.68a84.81,84.81,0,0,1,11.15,8.11l9.63-11.2A99.78,99.78,0,0,0,249.73,94.06Z"/>
            <path d="M215.49,262.39a85.16,85.16,0,0,1-49.4-4.26l-5.49,13.71A99.74,99.74,0,0,0,197.74,279a100.76,100.76,0,0,0,20.79-2.18Z"/>
            <path d="M382.83,297.94l-10.72,10.72L345.5,280.22A179.45,179.45,0,0,0,368.24,125l21.11-20.64a26.31,26.31,0,0,0,35.91-35.12l45.32-44.31v22.9h14.77V0H437.51V14.77h22.34L415.13,58.5A26.3,26.3,0,0,0,378.83,94l-16.18,15.82a177.91,177.91,0,0,0-38.34-57C254.56-17,141.08-17,71.33,52.79,9.2,114.92,2.41,211.75,51,281.46L38.54,294.36a26.36,26.36,0,1,0,10.63,10.26L60,293.35q5.31,6.4,11.3,12.42a179.19,179.19,0,0,0,227,21.47L325,355.74l-11.09,11.09L443.1,495.55,512,426.65Zm19-228.3a11.55,11.55,0,1,1-11.55,11.55A11.56,11.56,0,0,1,401.82,69.64ZM26.32,329.21a11.55,11.55,0,1,1,11.55-11.55A11.56,11.56,0,0,1,26.32,329.21Zm55.45-33.89c-64-64-64-168.1,0-232.09a164.3,164.3,0,0,1,232.09,0c64,64,64,168.1,0,232.09S145.76,359.31,81.77,295.32ZM310.3,318.37a179.95,179.95,0,0,0,26.23-26.13l25.14,26.86-26.18,26.18Zm132.79,156.3L334.85,366.81l48-48L491.09,426.67Z"/>
            <polygon
                    points="382.85 340.25 361.71 361.39 372.15 371.83 382.85 361.14 423.61 401.91 434.06 391.46 382.85 340.25"/>
            <rect x="439.58" y="407.05" width="14.77" height="15.48" transform="translate(-162.39 437.55) rotate(-45)"/>
            <rect x="80.03" y="365.64" width="14.77" height="16.09"/>
            <rect x="80.03" y="455.84" width="14.77" height="16.09"/>
            <rect x="201.68" y="396.68" width="14.77" height="16.09"/>
            <rect x="413.37" y="263.83" width="14.77" height="16.09"/>
            <rect x="430.13" y="135.66" width="14.77" height="16.09"/>
            <rect x="479.08" y="203.53" width="14.77" height="16.09"/>
        </g>
    </g>
</svg>