<svg xmlns="http://www.w3.org/2000/svg" viewBox="0 0 512 407.79">
    <g>
        <g>
            <path d="M448.39,32.06H63.61a7.5,7.5,0,0,0,0,15H448.39a7.5,7.5,0,0,0,0-15Z"/>
            <path d="M448.39,320.65H63.61a7.5,7.5,0,1,0,0,15H448.39a7.5,7.5,0,0,0,0-15Z"/>
            <path d="M496.48,352.71H488V31.55A31.58,31.58,0,0,0,456.4,0H55.6A31.58,31.58,0,0,0,24,31.55V352.71H15.52A15.53,15.53,0,0,0,0,368.23v16a23.56,23.56,0,0,0,23.53,23.53H488.47A23.56,23.56,0,0,0,512,384.26v-16A15.53,15.53,0,0,0,496.48,352.71ZM39,31.55A16.57,16.57,0,0,1,55.6,15H456.4A16.57,16.57,0,0,1,473,31.55V352.71H39ZM497,384.26h0a8.54,8.54,0,0,1-8.53,8.53H23.53A8.54,8.54,0,0,1,15,384.26v-16a.52.52,0,0,1,.52-.52h209c0,.17,0,.34,0,.52a7.5,7.5,0,0,0,7.5,7.5H280a7.5,7.5,0,0,0,7.5-7.5c0-.17,0-.35,0-.52h209a.52.52,0,0,1,.52.52v16Z"/>
            <path d="M331.11,143l-20.31-5.08V107.35a15.52,15.52,0,0,0-21.09-14.48l-92,35.39H159a23.56,23.56,0,0,0-23.53,23.53v32.06a23.56,23.56,0,0,0,14.91,21.89l23.73,71.2a15.49,15.49,0,0,0,14.72,10.61H212a15.52,15.52,0,0,0,14.72-20.42l-18.57-55.71,81.55,31.36a15.52,15.52,0,0,0,21.08-14.48V197.73l20.31-5.08a15.49,15.49,0,0,0,11.75-15.05V158A15.5,15.5,0,0,0,331.11,143ZM150.48,183.86V151.79a8.54,8.54,0,0,1,8.53-8.53h32.58v49.13H159A8.54,8.54,0,0,1,150.48,183.86Zm62,88a.52.52,0,0,1-.49.68H188.84a.51.51,0,0,1-.49-.35l-21.6-64.81H191Zm83.29-43.57a.52.52,0,0,1-.7.48l-88.51-34V140.91l88.51-34a.52.52,0,0,1,.7.48Zm32.07-50.7a.51.51,0,0,1-.39.5l-16.67,4.17V153.38l16.67,4.17a.52.52,0,0,1,.39.5Z"/>
            <path d="M407.51,160.32H367.43a7.5,7.5,0,0,0,0,15h40.08a7.5,7.5,0,0,0,0-15Z"/>
            <path d="M382.16,124.39A7.5,7.5,0,0,0,372.09,121l-16,8a7.5,7.5,0,1,0,6.71,13.42l16-8A7.5,7.5,0,0,0,382.16,124.39Z"/>
            <path d="M378.8,201.2l-16-8a7.5,7.5,0,0,0-6.71,13.42l16,8a7.5,7.5,0,0,0,6.71-13.42Z"/>
        </g>
    </g>
</svg>