<svg xmlns="http://www.w3.org/2000/svg" viewBox="0 0 296.67 60.64"><defs><style>.cls-1{fill:#c80d22}.cls-2{fill:#221f1c}</style></defs><title>logo</title><g id="Слой_2" data-name="Слой 2"><g id="Layer_1" data-name="Layer 1"><path class="cls-1" d="M60.41 25.94a.75.75 0 0 0-.64-.77 9 9 0 0 1-6.42-4.07 2 2 0 0 1-.41-1c-1-3.55.67-7.06 1.3-8.27a.72.72 0 0 0-.2-1L49 6a.84.84 0 0 0-1.1 0c-4.07 3-9.24 1.09-9.24 1.09-3.53-1.43-3.9-5-4.37-6.39a1 1 0 0 0-.79-.64l-7-.06a.75.75 0 0 0-.77.64A9.6 9.6 0 0 1 21 7.45c-3.54 1.5-7-.36-8.25-1a.87.87 0 0 0-1 .11l-5 4.94a.84.84 0 0 0-.07 1.07 9.05 9.05 0 0 1 .92 8.59c-1.77 3.46-5.68 4.59-7 5A1 1 0 0 0 0 27l.16 7a.75.75 0 0 0 .64.77 9.66 9.66 0 0 1 6.73 4.56l.26.62c1 3.55-.67 7.06-1.3 8.27a.72.72 0 0 0 .2 1l5 4.88a.84.84 0 0 0 1.07.07 8.46 8.46 0 0 1 7.5-1.5 2.27 2.27 0 0 1 .63.26c3.29 1.85 5 5.83 5.32 7.14a1 1 0 0 0 .78.61l7-.16a.75.75 0 0 0 .77-.64 9.51 9.51 0 0 1 5-6.79l.44-.19c3.6-1.11 7.24.59 8.54 1.19a.72.72 0 0 0 1-.2l4.85-5.08a.84.84 0 0 0 .07-1.07 9.91 9.91 0 0 1-1.37-8.19 2.25 2.25 0 0 1 .36-.88A11.61 11.61 0 0 1 60 33.75a1 1 0 0 0 .61-.78zM30 48.35a18 18 0 1 1 18.31-17.7A18 18 0 0 1 30 48.35z"/><path class="cls-1" d="M35.28 30.06a4.38 4.38 0 0 1-.87 1.2 5.09 5.09 0 0 1-3.67 1.54l-3.22-.05.16-9.75 3 .05a5.45 5.45 0 0 1 3.81 1.21 4 4 0 0 1 1.17 2l7 .12a9.13 9.13 0 0 0-2.75-6.19c-1.91-1.85-4.76-2.65-8.52-2.72l-11.07-.19h-.21l-.41 24a16.41 16.41 0 0 0 7.58 3.53l.11-6.59 4.08.07a11.22 11.22 0 0 0 8-3 9.71 9.71 0 0 0 3-5.18z"/><path class="cls-2" d="M91.53 27.08c0 4.64-3.3 7.7-9.42 7.7h-3.44v5.54c0 .77-.39 1-1 1h-3.59c-.65 0-1-.2-1-1v-20c0-.6.21-1 1-1h8.06c6.17.03 9.39 3.16 9.39 7.76zm-5.41.1c0-1.73-1.22-3.13-4-3.13h-3.45v6.24h3.44c2.79-.01 4.01-1.44 4.01-3.11zm27.94 7.07c0 5.27-5.37 7.54-9.64 7.54s-9.57-2.27-9.57-7.54v-7.87c0-5.27 5.3-7.54 9.57-7.54s9.64 2.27 9.64 7.54zm-5.63-7.4c0-2.13-1.65-3.37-4-3.37s-4 1.23-4 3.37v6.94c0 2.13 1.65 3.37 4 3.37s4-1.23 4-3.37zm19.07 14.94c-4.26 0-9.6-2.3-9.6-7.54v-7.87c0-5.24 5.34-7.54 9.6-7.54 4.44 0 8.85 2.1 9.32 6.34 0 .8-.29 1-1.11 1h-3.44c-.75 0-.79-.63-1.07-1-.75-1.1-1.76-1.6-3.69-1.6-2.37 0-4 1.23-4 3.33v6.94c0 2.13 1.61 3.33 4 3.33 1.93 0 3.48-.67 3.76-2.27.11-.67.18-1.2 1-1.2h3.51c.79 0 1.07.33 1.07 1.13-.04 4.25-4.91 6.95-9.35 6.95zm30.77-21.48v2.77c0 .6-.21 1-1 1h-5.48v16.24c0 .77-.39 1-1 1h-3.55c-.65 0-1-.2-1-1V24h-5.52c-.82 0-1-.37-1-1v-2.69c0-.6.22-1 1-1h16.63c.71.04.92.4.92 1zm12.43 21.48c-4.26 0-9.6-2.3-9.6-7.54v-7.87c0-5.24 5.34-7.54 9.6-7.54 4.44 0 8.85 2.1 9.32 6.34 0 .8-.29 1-1.11 1h-3.44c-.75 0-.79-.63-1.07-1-.75-1.1-1.76-1.6-3.69-1.6-2.37 0-4 1.23-4 3.33v6.94c0 2.13 1.61 3.33 4 3.33 1.93 0 3.48-.67 3.76-2.27.11-.67.18-1.2 1-1.2h3.51c.79 0 1.07.33 1.07 1.13-.05 4.25-4.91 6.95-9.35 6.95zm31.92-4.2v2.73c0 .6-.21 1-1 1h-16.09c-.82 0-1-.37-1-1v-20c0-.6.21-1 1-1H201c.82 0 1 .37 1 1v2.77c0 .6-.22 1-1 1h-10.85v3.63h9.6c.82 0 1 .37 1 1v2.6c0 .6-.21 1-1 1h-9.6v4.4h11.43c.83-.1 1.04.28 1.04.87zm22.83-10.51c0 4.64-3.3 7.7-9.42 7.7h-3.44v5.54c0 .77-.39 1-1 1H208c-.65 0-1-.2-1-1v-20c0-.6.21-1 1-1h8.06c6.16.03 9.39 3.16 9.39 7.76zm-5.41.1c0-1.73-1.22-3.13-4-3.13h-3.44v6.24h3.4c2.82-.01 4-1.44 4-3.11zm29.51 7.71c0 4.23-3.55 6.4-8.53 6.4h-10.53c-.82 0-1-.37-1-1v-20c0-.6.21-1 1-1h10c5.84 0 8.35 2.9 8.35 6a4.66 4.66 0 0 1-2.62 4.57 5.3 5.3 0 0 1 3.33 5.03zm-5.7-.5c0-1.57-1.25-2-3-2h-.82c-.82 0-1-.37-1-1v-2.54c0-.6.21-1 1-1h.47c2.08 0 3-.7 3-2 0-1.5-1.11-1.87-3-1.87h-5.45v12.57h6c1.8 0 2.81-.66 2.81-2.16zm14.73-15.04c.64 0 1 .2 1 1v11.54l7.6-11.4c.47-.67.72-1.13 1.61-1.13h3.37c.82 0 1 .37 1 1v20c0 .77-.39 1-1 1h-3.55c-.64 0-1-.2-1-1V28.72L260 40.15c-.47.67-.72 1.13-1.61 1.13h-3.26c-.82 0-1-.37-1-1v-20c0-.77.39-1 1-1zm28.77 22.44c-4.26 0-9.6-2.3-9.6-7.54v-7.87c0-5.24 5.34-7.54 9.6-7.54 4.44 0 8.85 2.1 9.32 6.34 0 .8-.29 1-1.11 1h-3.44c-.75 0-.79-.63-1.07-1-.75-1.1-1.76-1.6-3.69-1.6-2.36 0-4 1.23-4 3.33v6.94c0 2.13 1.61 3.33 4 3.33 1.94 0 3.48-.67 3.76-2.27.11-.67.18-1.2 1-1.2h3.51c.79 0 1.08.33 1.08 1.13-.04 4.25-4.92 6.95-9.36 6.95z"/></g></g></svg>