<?xml version="1.0" encoding="iso-8859-1"?>
<!-- Generator: Adobe Illustrator 19.0.0, SVG Export Plug-In . SVG Version: 6.00 Build 0)  -->
<svg version="1.1" id="Capa_1" xmlns="http://www.w3.org/2000/svg" xmlns:xlink="http://www.w3.org/1999/xlink" x="0px" y="0px"
	 viewBox="0 0 496 496" style="enable-background:new 0 0 496 496;" xml:space="preserve">
<g>
	<g>
		<g>
			<path d="M352.208,84.648l-13.888,7.92c4.248,7.464,7.576,15.504,9.872,23.92l1.304,4.768L376,126.552v34.888l-26.496,5.296
				l-1.304,4.768c-2.296,8.416-5.624,16.464-9.872,23.92l-2.456,4.288l14.976,22.464l-24.664,24.664l-22.464-14.976l-4.296,2.456
				c-3.648,2.088-7.488,3.904-11.424,5.544V222.36c29.312-14.968,48-45.144,48-78.36c0-48.52-39.48-88-88-88
				c-48.52,0-88,39.48-88,88c0,33.2,18.68,63.392,48,78.368v17.496c-3.928-1.632-7.76-3.456-11.424-5.544l-4.296-2.456
				l-22.464,14.976l-29.304-29.304L129.2,228.848l38.584,38.584l25.248-16.84c4.792,2.472,9.832,4.504,14.96,6.312V401.64
				L234.728,464h26.544L288,401.64V256.904c5.136-1.816,10.176-3.84,14.96-6.312l25.248,16.84l43.224-43.224l-16.84-25.248
				c3.04-5.888,5.584-12.064,7.616-18.448l29.792-5.96V113.44l-29.792-5.96C359.672,99.504,356.32,91.832,352.208,84.648z
				 M250.728,448h-5.456l-17.144-40h39.736L250.728,448z M224,392V208h16v184H224z M272,392h-16V208h16V392z M272,192h-48v-16h48
				V192z M272,160h-48v-32c0-4.416,3.584-8,8-8h32c4.416,0,8,3.584,8,8V160z M264,104h-32c-13.232,0-24,10.768-24,24v75.736
				c-19.72-13.224-32-35.456-32-59.736c0-39.704,32.296-72,72-72s72,32.296,72,72c0,24.288-12.288,46.52-32,59.736V128
				C288,114.768,277.232,104,264,104z"/>
			<path d="M133.792,107.488L104,113.448v61.112l29.792,5.96c2.536,7.984,5.888,15.648,10,22.832l13.888-7.92
				c-4.248-7.464-7.576-15.504-9.872-23.92l-1.304-4.768L120,161.448V126.56l26.496-5.296l1.304-4.768
				c2.296-8.416,5.624-16.464,9.872-23.92l2.456-4.288l-14.976-22.464l24.664-24.664l22.464,14.976l4.288-2.456
				c7.464-4.248,15.504-7.568,23.92-9.872l4.768-1.304L230.552,16h34.888l5.296,26.496l4.768,1.304
				c8.416,2.304,16.464,5.624,23.92,9.872l4.288,2.456l22.464-14.976l29.304,29.304l11.312-11.312L328.208,20.56L302.96,37.408
				c-5.888-3.04-12.064-5.584-18.448-7.616L278.552,0H217.44l-5.96,29.792c-6.384,2.032-12.552,4.576-18.448,7.616l-25.24-16.848
				L124.56,63.792L141.4,89.04C138.368,94.928,135.824,101.104,133.792,107.488z"/>
			<polygon points="88,144 16,144 16,96 120,96 120,80 0,80 0,160 88,160 			"/>
			<polygon points="376,80 376,96 480,96 480,144 408,144 408,160 496,160 496,80 			"/>
			<polygon points="480,480 16,480 16,176 0,176 0,496 496,496 496,176 480,176 			"/>
			<rect x="32" y="112" width="16" height="16"/>
			<rect x="64" y="112" width="16" height="16"/>
			<polygon points="464,288 304,288 304,432 320,432 320,304 464,304 			"/>
			<polygon points="304,448 304,464 464,464 464,320 448,320 448,448 			"/>
			<path d="M32,464h160v-80H32V464z M48,400h128v48H48V400z"/>
			<path d="M192,288H32v80h160V288z M176,352H48v-48h128V352z"/>
			<polygon points="120,208 120,192 32,192 32,272 136,272 136,256 48,256 48,208 			"/>
		</g>
	</g>
</g>
<g>
</g>
<g>
</g>
<g>
</g>
<g>
</g>
<g>
</g>
<g>
</g>
<g>
</g>
<g>
</g>
<g>
</g>
<g>
</g>
<g>
</g>
<g>
</g>
<g>
</g>
<g>
</g>
<g>
</g>
</svg>
