<?xml version="1.0" encoding="utf-8"?>
<!-- Generator: Adobe Illustrator 19.2.1, SVG Export Plug-In . SVG Version: 6.00 Build 0)  -->
<svg version="1.1" id="Слой_1" xmlns="http://www.w3.org/2000/svg" xmlns:xlink="http://www.w3.org/1999/xlink" x="0px" y="0px"
	 viewBox="0 0 464 367" style="enable-background:new 0 0 464 367;" xml:space="preserve">
<style type="text/css">
	.st0{fill:#334B61;}
</style>
<g>
	<path class="st0" d="M412,211.1c13.2,0,24-9,24-20.2s-10.8-20.2-24-20.2c-0.1,0-0.1,0-0.2,0h-19.6l0,0c-2.3,0-4.2,1.6-4.2,3.6v43.9
		h-4.2c-2.3,0-1.6,1.8-1.6,3.8s-0.8,3.3,1.6,3.3h4.2v20.2c0,2,1.6,1.8,3.9,1.8s4.6,0.2,4.6-1.8v-20.2H412c1.6,0.3-0.7-1.1,0-3.3
		c0.6-1.9,2.3-3.8,0-3.8h-15.5v-7.1H412z M412,177.9h0.1c8.5,0.1,15.4,5.9,15.4,13c0,7.2-7,13-15.5,13h-15.5v-26.1H412V177.9z"/>
</g>
<g>
	<path class="st0" d="M77.9,237.1c10.8,0,19.4-3.6,25.8-10.8c6.4-7.2,9.6-17.5,9.6-31V181c-3.5,6-8.1,10.6-13.9,13.9
		c-5.8,3.3-12.3,4.9-19.5,4.9c-13,0-23.4-4.5-31.3-13.5s-11.9-20.6-11.9-34.9c0-14.4,4.2-26.4,12.5-36.1s18.6-14.6,30.8-14.6
		c13.7,0,24.7,4.5,33,13.4c8.3,9,12.4,22,12.4,39V195c0,16.5-4.4,29.2-13.1,38.3s-20.2,13.6-34.4,13.6c-5.1,0-10.2-0.5-15.3-1.5
		s-10-2.5-14.6-4.5l2.1-9.8c4.4,2.1,8.8,3.6,13.1,4.5C67.6,236.6,72.5,237.1,77.9,237.1z M79.9,189.8c8.5,0,15.5-2.2,21.2-6.5
		c5.7-4.3,9.7-9.7,12.2-16v-15c0-13.5-2.9-23.7-8.8-30.9c-5.9-7.1-13.9-10.7-24-10.7c-9.2,0-16.7,4-22.7,11.9s-8.9,17.5-8.9,28.8
		c0,10.9,2.8,20.1,8.4,27.4C62.8,186.2,70.3,189.8,79.9,189.8z"/>
	<path class="st0" d="M242.3,189.8c0,18.4-4,32.5-11.9,42.4c-7.9,9.9-19,14.8-33.1,14.8c-14.1,0-25.1-5-33.2-14.9
		c-8-9.9-12.1-24-12.1-42.3v-31.7c0-18.3,4-32.4,11.9-42.4s19-14.9,33.1-14.9c14.1,0,25.2,5,33.2,14.9s12,24.1,12,42.4v31.7H242.3z
		 M230.5,156.1c0-14.6-2.9-25.8-8.6-33.6c-5.7-7.8-14-11.8-24.9-11.8s-19.1,3.9-24.8,11.8c-5.7,7.8-8.5,19-8.5,33.6v35.4
		c0,14.4,2.9,25.6,8.6,33.6s14,12,24.9,12c10.8,0,19.1-4,24.8-11.9s8.5-19.2,8.5-33.7V156.1z"/>
	<path class="st0" d="M358.9,189.8c0,18.4-4,32.5-11.9,42.4c-7.9,9.9-19,14.8-33.1,14.8s-25.1-5-33.2-14.9c-8-9.9-12.1-24-12.1-42.3
		v-31.7c0-18.3,4-32.4,11.9-42.4s19-14.9,33.1-14.9s25.2,5,33.2,14.9s12,24.1,12,42.4v31.7H358.9z M347.1,156.1
		c0-14.6-2.9-25.8-8.6-33.6s-14-11.8-24.9-11.8s-19.1,3.9-24.8,11.8c-5.7,7.8-8.5,19-8.5,33.6v35.4c0,14.4,2.9,25.6,8.6,33.6
		s14,12,24.9,12c10.8,0,19.1-4,24.8-11.9c5.7-7.9,8.5-19.2,8.5-33.7V156.1z"/>
</g>
</svg>
