<svg xmlns="http://www.w3.org/2000/svg" viewBox="0 0 81.48 44.46"><defs><style>.cls-1{fill:#fff;}</style></defs><title>arrow-down</title><g id="Слой_2" data-name="Слой 2"><g id="Слой_1-2" data-name="Слой 1"><path class="cls-1" d="M4.07,0H16.79q5.47,0,10,5.46L40.74,22,54.64,5.46Q59.15,0,64.63,0H77.34q2.73,0,3.77,1.67a2.41,2.41,0,0,1,.37,1.24,4.15,4.15,0,0,1-1.11,2.54L50.58,40.74a10.4,10.4,0,0,1-8.06,3.72H38.89a9.93,9.93,0,0,1-8-3.72L1,5.46A4.31,4.31,0,0,1,0,2.91,2.2,2.2,0,0,1,.37,1.67Q1.33,0,4.07,0Z"/></g></g></svg>