<svg xmlns="http://www.w3.org/2000/svg" xmlns:xlink="http://www.w3.org/1999/xlink" viewBox="0 0 473 272">
  <defs>
    <style>
      .cls-1 {
        fill: #dfdfdf;
      }

      .cls-2 {
        fill: #fafafa;
      }

      .cls-3 {
        fill: url(#Безымянный_градиент_18);
      }

      .cls-4 {
        fill: url(#Безымянный_градиент_18-2);
      }

      .cls-5 {
        fill: #dbc86d;
      }

      .cls-6 {
        fill: #efd86f;
      }

      .cls-7 {
        fill: url(#Безымянный_градиент_18-3);
      }

      .cls-8 {
        fill: #fdf7d8;
      }

      .cls-9 {
        fill: #8f5814;
      }

      .cls-10 {
        fill: #d95555;
      }

      .cls-11 {
        fill: #565656;
      }

      .cls-12 {
        fill: #d6b535;
      }

      .cls-13 {
        fill: #ffed7e;
      }
    </style>
    <radialGradient id="Безымянный_градиент_18" data-name="Безымянный градиент 18" cx="6" cy="163.5" r="2" gradientUnits="userSpaceOnUse">
      <stop offset="0" stop-color="#ffee82"/>
      <stop offset="1" stop-color="#e5c63d"/>
    </radialGradient>
    <radialGradient id="Безымянный_градиент_18-2" cx="467" r="2" xlink:href="#Безымянный_градиент_18"/>
    <radialGradient id="Безымянный_градиент_18-3" cx="251" cy="208.25" r="170.9" xlink:href="#Безымянный_градиент_18"/>
  </defs>
  <title>btrx</title>
  <g id="Слой_1" data-name="Слой 1">
    <g>
      <path class="cls-1" d="M487.5,283v86.91a23.61,23.61,0,0,1-23.59,23.59H38.09A23.61,23.61,0,0,1,14.5,369.91V283h4v4h465v-4Z" transform="translate(-14.5 -121.5)"/>
      <path class="cls-2" d="M483.5,145.09V283h-4V145.09a15.6,15.6,0,0,0-15.59-15.59H38.09A15.6,15.6,0,0,0,22.5,145.09V283h-4V145.09A19.59,19.59,0,0,1,38.09,125.5H463.91A19.59,19.59,0,0,1,483.5,145.09Z" transform="translate(-14.5 -121.5)"/>
      <path class="cls-2" d="M483.5,287v82.91a19.59,19.59,0,0,1-19.59,19.59H38.09A19.59,19.59,0,0,1,18.5,369.91V287Z" transform="translate(-14.5 -121.5)"/>
      <rect class="cls-3" x="4" y="161.5" width="4" height="4"/>
      <rect class="cls-4" x="465" y="161.5" width="4" height="4"/>
      <path class="cls-5" d="M487.5,145.09V287h-4v-4h-4V145.09a15.6,15.6,0,0,0-15.59-15.59H38.09A15.6,15.6,0,0,0,22.5,145.09V283h-4v4h-4V145.09A23.61,23.61,0,0,1,38.09,121.5H463.91A23.61,23.61,0,0,1,487.5,145.09Z" transform="translate(-14.5 -121.5)"/>
      <path class="cls-6" d="M483.5,145.09V287h-4V145.09a15.6,15.6,0,0,0-15.59-15.59H38.09A15.6,15.6,0,0,0,22.5,145.09V287h-4V145.09A19.59,19.59,0,0,1,38.09,125.5H463.91A19.59,19.59,0,0,1,483.5,145.09Z" transform="translate(-14.5 -121.5)"/>
      <path class="cls-7" d="M479.5,145.09V287H22.5V145.09A15.6,15.6,0,0,1,38.09,129.5H463.91A15.6,15.6,0,0,1,479.5,145.09Z" transform="translate(-14.5 -121.5)"/>
      <g>
        <path class="cls-8" d="M168,164a4,4,0,0,0-1.55-3.28,6.67,6.67,0,0,0-4.22-1.22,6,6,0,0,0-3.82,1.21,3.79,3.79,0,0,0-1.53,3.12h-5.29a7.5,7.5,0,0,1,1.39-4.45,9.05,9.05,0,0,1,3.84-3,13.29,13.29,0,0,1,5.42-1.08q5.25,0,8.16,2.29a7.69,7.69,0,0,1,2.91,6.4,6.38,6.38,0,0,1-1.26,3.82,8.48,8.48,0,0,1-3.53,2.75,8,8,0,0,1,3.92,2.68,7.2,7.2,0,0,1,1.35,4.46,7.82,7.82,0,0,1-3.15,6.54,13.41,13.41,0,0,1-8.4,2.43,14.32,14.32,0,0,1-5.85-1.15,8.78,8.78,0,0,1-3.93-3.15,8.14,8.14,0,0,1-1.31-4.58h5.29a4.16,4.16,0,0,0,1.64,3.33,6.31,6.31,0,0,0,4.16,1.35,7.2,7.2,0,0,0,4.52-1.32,4.15,4.15,0,0,0,1.71-3.44,4.45,4.45,0,0,0-1.5-3.75,7.08,7.08,0,0,0-4.4-1.17H159v-4.2h3.4Q168,168.55,168,164Z" transform="translate(-14.5 -121.5)"/>
        <path class="cls-8" d="M203.15,171.74a18.76,18.76,0,0,1-1.55,7.88,11.75,11.75,0,0,1-4.44,5.21,13,13,0,0,1-13.27,0,11.92,11.92,0,0,1-4.49-5.18,18.16,18.16,0,0,1-1.61-7.75v-1.72a18.6,18.6,0,0,1,1.58-7.89,11.92,11.92,0,0,1,4.47-5.24,13.05,13.05,0,0,1,13.25,0,11.77,11.77,0,0,1,4.46,5.17,18.56,18.56,0,0,1,1.6,7.84Zm-5.31-1.6q0-5.08-1.92-7.79a6.78,6.78,0,0,0-10.83,0q-1.94,2.7-2,7.63v1.76q0,5,2,7.79a6.32,6.32,0,0,0,5.45,2.75,6.25,6.25,0,0,0,5.43-2.69q1.9-2.69,1.9-7.85Z" transform="translate(-14.5 -121.5)"/>
        <path class="cls-8" d="M231.83,155.66v30.57h-5.29V159.94h-9.36l-.55,11.82a33.9,33.9,0,0,1-1.35,8.6,8.71,8.71,0,0,1-3,4.46,8.94,8.94,0,0,1-5.29,1.41h-1.34V182l.84-.06a4.13,4.13,0,0,0,2.82-1.28,7.52,7.52,0,0,0,1.51-3.37,40.89,40.89,0,0,0,.72-6.65l.59-15Z" transform="translate(-14.5 -121.5)"/>
        <path class="cls-8" d="M262.61,171.74a18.76,18.76,0,0,1-1.55,7.88,11.76,11.76,0,0,1-4.44,5.21,13,13,0,0,1-13.27,0,11.92,11.92,0,0,1-4.49-5.18,18.16,18.16,0,0,1-1.61-7.75v-1.72a18.6,18.6,0,0,1,1.58-7.89,11.92,11.92,0,0,1,4.47-5.24,13.05,13.05,0,0,1,13.25,0A11.77,11.77,0,0,1,261,162.2a18.54,18.54,0,0,1,1.6,7.84Zm-5.31-1.6q0-5.08-1.92-7.79a6.78,6.78,0,0,0-10.83,0q-1.94,2.7-2,7.63v1.76q0,5,2,7.79a6.32,6.32,0,0,0,5.45,2.75,6.25,6.25,0,0,0,5.43-2.69q1.9-2.69,1.9-7.85Z" transform="translate(-14.5 -121.5)"/>
        <path class="cls-8" d="M288.21,159.94h-9.53v26.29h-5.27V159.94H264v-4.28h24.25Z" transform="translate(-14.5 -121.5)"/>
        <path class="cls-8" d="M316,171.74a18.75,18.75,0,0,1-1.55,7.88,11.75,11.75,0,0,1-4.44,5.21,13,13,0,0,1-13.27,0,11.92,11.92,0,0,1-4.49-5.18,18.15,18.15,0,0,1-1.61-7.75v-1.72a18.6,18.6,0,0,1,1.58-7.89,11.91,11.91,0,0,1,4.47-5.24A13.05,13.05,0,0,1,310,157a11.77,11.77,0,0,1,4.46,5.17A18.55,18.55,0,0,1,316,170Zm-5.31-1.6q0-5.08-1.92-7.79a6.78,6.78,0,0,0-10.83,0Q296,165,296,170v1.76q0,5,2,7.79a6.32,6.32,0,0,0,5.45,2.75,6.25,6.25,0,0,0,5.43-2.69q1.9-2.69,1.9-7.85Z" transform="translate(-14.5 -121.5)"/>
        <path class="cls-8" d="M340,155.66h5.31v30.57H340V164.45l-13.42,21.77h-5.31V155.66h5.31v21.79Zm.17-7.79a5.45,5.45,0,0,1-1.85,4.28,8.25,8.25,0,0,1-9.87,0,5.45,5.45,0,0,1-1.85-4.28h3.82a2.87,2.87,0,0,0,.79,2.15,3,3,0,0,0,2.17.77,2.94,2.94,0,0,0,2.16-.77,2.89,2.89,0,0,0,.78-2.15Z" transform="translate(-14.5 -121.5)"/>
        <path class="cls-8" d="M68.84,223.31a9.42,9.42,0,0,1-3,6.27,9.82,9.82,0,0,1-6.71,2.21,9,9,0,0,1-7.27-3.25,13.08,13.08,0,0,1-2.73-8.7v-2.46a14.58,14.58,0,0,1,1.27-6.28A9.52,9.52,0,0,1,54,206.93a10.06,10.06,0,0,1,5.41-1.45A9.25,9.25,0,0,1,66,207.76a9.53,9.53,0,0,1,2.87,6.3H65.45a7.36,7.36,0,0,0-1.91-4.44,5.77,5.77,0,0,0-4.1-1.37,6,6,0,0,0-5.07,2.39q-1.84,2.39-1.84,6.81v2.48a11.29,11.29,0,0,0,1.74,6.63A5.62,5.62,0,0,0,59.14,229a6.49,6.49,0,0,0,4.32-1.27,7.07,7.07,0,0,0,2-4.44Z" transform="translate(-14.5 -121.5)"/>
        <path class="cls-8" d="M87.56,219.6H76.46v9.07H89.35v2.76H73.09V205.83H89.17v2.76H76.46v8.24H87.56Z" transform="translate(-14.5 -121.5)"/>
        <path class="cls-8" d="M96.56,221.41v10H93.19V205.83h9.44a9.48,9.48,0,0,1,6.58,2.14,7.27,7.27,0,0,1,2.38,5.68,7.17,7.17,0,0,1-2.33,5.74q-2.33,2-6.67,2Zm0-2.76h6.06a6.06,6.06,0,0,0,4.15-1.28,4.67,4.67,0,0,0,1.44-3.69,4.82,4.82,0,0,0-1.44-3.66,5.68,5.68,0,0,0-4-1.43H96.56Z" transform="translate(-14.5 -121.5)"/>
        <path class="cls-8" d="M133.22,208.59H125v22.83h-3.36V208.59h-8.21v-2.76h19.79Z" transform="translate(-14.5 -121.5)"/>
        <path class="cls-8" d="M152.8,205.83h3.38v25.59H152.8V211.7l-12.6,19.72H136.8V205.83h3.39v19.72Z" transform="translate(-14.5 -121.5)"/>
        <path class="cls-8" d="M174.6,208.4h.54a10.8,10.8,0,0,1,5.29,1.35,9.52,9.52,0,0,1,3.72,3.68,10.47,10.47,0,0,1,1.33,5.25,10.6,10.6,0,0,1-1.34,5.29,9.54,9.54,0,0,1-3.69,3.7,10.76,10.76,0,0,1-5.24,1.36h-.62v3.45h-3.27V229h-.49a10.78,10.78,0,0,1-5.33-1.34,9.49,9.49,0,0,1-3.73-3.69,11.21,11.21,0,0,1,0-10.58,9.49,9.49,0,0,1,3.73-3.69,10.78,10.78,0,0,1,5.33-1.34h.49v-3.62h3.27Zm-3.76,2.65a6.86,6.86,0,0,0-5.23,2,9.22,9.22,0,0,0,0,11.27,6.93,6.93,0,0,0,5.27,2h.46V211.05Zm3.76,0v15.31h.49a6.75,6.75,0,0,0,5.25-2.07,8,8,0,0,0,1.89-5.62,7.92,7.92,0,0,0-1.89-5.57,6.86,6.86,0,0,0-5.32-2.06Z" transform="translate(-14.5 -121.5)"/>
        <path class="cls-8" d="M205.51,205.83h3.38v25.59h-3.37V211.7l-12.6,19.72h-3.39V205.83h3.39v19.72Z" transform="translate(-14.5 -121.5)"/>
        <path class="cls-8" d="M214.79,205.83h3.39v22.83H230.8V205.83h3.38V228.6h2.69l-.32,9h-3v-6.17H214.79Z" transform="translate(-14.5 -121.5)"/>
        <path class="cls-8" d="M256.77,205.83h3.38v25.59h-3.37V211.7l-12.6,19.72h-3.39V205.83h3.39v19.72Z" transform="translate(-14.5 -121.5)"/>
        <path class="cls-8" d="M269.32,221.41v10h-3.37V205.83h9.44A9.48,9.48,0,0,1,282,208a7.27,7.27,0,0,1,2.38,5.68A7.17,7.17,0,0,1,282,219.4q-2.33,2-6.67,2Zm0-2.76h6.06a6.06,6.06,0,0,0,4.15-1.28,4.67,4.67,0,0,0,1.44-3.69,4.82,4.82,0,0,0-1.44-3.66,5.68,5.68,0,0,0-4-1.43h-6.26Z" transform="translate(-14.5 -121.5)"/>
        <path class="cls-8" d="M308,219.46a15.83,15.83,0,0,1-1.27,6.57,9.59,9.59,0,0,1-3.59,4.28,9.9,9.9,0,0,1-14.41-4.25,15.19,15.19,0,0,1-1.33-6.37v-1.85a15.64,15.64,0,0,1,1.28-6.52,9.49,9.49,0,0,1,9-5.84A9.92,9.92,0,0,1,303.1,207a9.57,9.57,0,0,1,3.61,4.31,15.91,15.91,0,0,1,1.27,6.57Zm-3.36-1.65q0-4.55-1.83-7a6,6,0,0,0-5.12-2.43,6,6,0,0,0-5,2.43,11.24,11.24,0,0,0-1.89,6.76v1.88a11.49,11.49,0,0,0,1.85,6.93,6.5,6.5,0,0,0,10.17.14q1.79-2.38,1.85-6.83Z" transform="translate(-14.5 -121.5)"/>
        <path class="cls-8" d="M312.68,231.43V205.83H321q4.17,0,6.27,1.72a6.21,6.21,0,0,1,2.1,5.1,5.2,5.2,0,0,1-1,3.17,6.61,6.61,0,0,1-2.78,2.14,5.94,5.94,0,0,1,3.28,2.21,6.33,6.33,0,0,1,1.2,3.88,6.85,6.85,0,0,1-2.23,5.41,9.23,9.23,0,0,1-6.31,2Zm3.38-14.68h5.1a5.34,5.34,0,0,0,3.54-1.11,3.72,3.72,0,0,0,1.33-3,3.66,3.66,0,0,0-1.23-3.07,6,6,0,0,0-3.74-1h-5Zm0,2.71v9.21h5.57a5.37,5.37,0,0,0,3.72-1.22,4.29,4.29,0,0,0,1.36-3.37q0-4.62-5-4.62Z" transform="translate(-14.5 -121.5)"/>
        <path class="cls-8" d="M348.87,224.73H338.14l-2.41,6.7h-3.48L342,205.83h3l9.79,25.59h-3.46Zm-9.7-2.76h8.7l-4.36-12Z" transform="translate(-14.5 -121.5)"/>
        <path class="cls-8" d="M377.53,231.43h-3.39V219.6h-12.9v11.83h-3.37V205.83h3.38v11h12.9v-11h3.39Z" transform="translate(-14.5 -121.5)"/>
        <path class="cls-8" d="M402.83,231.43h-3.39V219.6h-12.9v11.83h-3.37V205.83h3.38v11h12.9v-11h3.39Z" transform="translate(-14.5 -121.5)"/>
        <path class="cls-8" d="M412,216.27h6.36a9.28,9.28,0,0,1,6.26,2.06,6.93,6.93,0,0,1,2.25,5.45,7.09,7.09,0,0,1-2.27,5.52,9.12,9.12,0,0,1-6.19,2.13h-9.79V205.83H412Zm0,2.76v9.63h6.17a5.43,5.43,0,0,0,3.91-1.34,4.74,4.74,0,0,0,1.4-3.59,4.44,4.44,0,0,0-1.34-3.42,5.53,5.53,0,0,0-3.82-1.29Zm21.34,12.39H430V205.83h3.38Z" transform="translate(-14.5 -121.5)"/>
        <path class="cls-8" d="M455.37,205.83h3.38v25.59h-3.37V211.7l-12.6,19.72h-3.39V205.83h3.39v19.72Zm-.95-6.38a4.38,4.38,0,0,1-1.45,3.43,6.23,6.23,0,0,1-7.62,0,4.37,4.37,0,0,1-1.46-3.42h2.65a2.66,2.66,0,0,0,.67,1.92,2.58,2.58,0,0,0,2,.69,2.4,2.4,0,0,0,2.62-2.62Z" transform="translate(-14.5 -121.5)"/>
        <path class="cls-8" d="M197,274.63H193.6V251.79H181v22.83H177.6V249H197Z" transform="translate(-14.5 -121.5)"/>
        <path class="cls-8" d="M216.9,267.93H206.17l-2.41,6.7h-3.48L210.06,249h3l9.79,25.59h-3.46Zm-9.7-2.76h8.7l-4.36-12Z" transform="translate(-14.5 -121.5)"/>
        <path class="cls-8" d="M229.26,264.61v10h-3.37V249h9.44a9.48,9.48,0,0,1,6.58,2.14,7.27,7.27,0,0,1,2.38,5.68,7.17,7.17,0,0,1-2.33,5.74q-2.33,2-6.67,2Zm0-2.76h6.06a6.07,6.07,0,0,0,4.15-1.28,4.67,4.67,0,0,0,1.44-3.69,4.82,4.82,0,0,0-1.44-3.66,5.68,5.68,0,0,0-4-1.43h-6.26Z" transform="translate(-14.5 -121.5)"/>
        <path class="cls-8" d="M265.92,251.79H257.7v22.83h-3.36V251.79h-8.21V249h19.79Z" transform="translate(-14.5 -121.5)"/>
        <path class="cls-8" d="M289,274.63h-3.39V262.8h-12.9v11.83h-3.37V249h3.38v11h12.9V249H289Z" transform="translate(-14.5 -121.5)"/>
        <path class="cls-8" d="M309.13,262.8H298v9.07h12.88v2.76H294.66V249h16.08v2.76H298V260h11.09Z" transform="translate(-14.5 -121.5)"/>
        <path class="cls-8" d="M318.14,264.61v10h-3.37V249h9.44a9.48,9.48,0,0,1,6.58,2.14,7.27,7.27,0,0,1,2.38,5.68,7.17,7.17,0,0,1-2.33,5.74q-2.33,2-6.67,2Zm0-2.76h6.06a6.07,6.07,0,0,0,4.15-1.28,4.67,4.67,0,0,0,1.44-3.69,4.82,4.82,0,0,0-1.44-3.66,5.68,5.68,0,0,0-4-1.43h-6.26Z" transform="translate(-14.5 -121.5)"/>
      </g>
      <g>
        <path class="cls-9" d="M168,162a4,4,0,0,0-1.55-3.28,6.67,6.67,0,0,0-4.22-1.22,6,6,0,0,0-3.82,1.21,3.79,3.79,0,0,0-1.53,3.12h-5.29a7.5,7.5,0,0,1,1.39-4.45,9.05,9.05,0,0,1,3.84-3,13.29,13.29,0,0,1,5.42-1.08q5.25,0,8.16,2.29a7.69,7.69,0,0,1,2.91,6.4,6.38,6.38,0,0,1-1.26,3.82,8.48,8.48,0,0,1-3.53,2.75,8,8,0,0,1,3.92,2.68,7.2,7.2,0,0,1,1.35,4.46,7.82,7.82,0,0,1-3.15,6.54,13.41,13.41,0,0,1-8.4,2.43,14.32,14.32,0,0,1-5.85-1.15,8.78,8.78,0,0,1-3.93-3.15,8.14,8.14,0,0,1-1.31-4.58h5.29a4.16,4.16,0,0,0,1.64,3.33,6.31,6.31,0,0,0,4.16,1.35,7.2,7.2,0,0,0,4.52-1.32,4.15,4.15,0,0,0,1.71-3.44,4.45,4.45,0,0,0-1.5-3.75,7.08,7.08,0,0,0-4.4-1.17H159v-4.2h3.4Q168,166.55,168,162Z" transform="translate(-14.5 -121.5)"/>
        <path class="cls-9" d="M203.15,169.74a18.76,18.76,0,0,1-1.55,7.88,11.75,11.75,0,0,1-4.44,5.21,13,13,0,0,1-13.27,0,11.92,11.92,0,0,1-4.49-5.18,18.16,18.16,0,0,1-1.61-7.75v-1.72a18.6,18.6,0,0,1,1.58-7.89,11.92,11.92,0,0,1,4.47-5.24,13.05,13.05,0,0,1,13.25,0,11.77,11.77,0,0,1,4.46,5.17,18.56,18.56,0,0,1,1.6,7.84Zm-5.31-1.6q0-5.08-1.92-7.79a6.78,6.78,0,0,0-10.83,0q-1.94,2.7-2,7.63v1.76q0,5,2,7.79a6.32,6.32,0,0,0,5.45,2.75,6.25,6.25,0,0,0,5.43-2.69q1.9-2.69,1.9-7.85Z" transform="translate(-14.5 -121.5)"/>
        <path class="cls-9" d="M231.83,153.66v30.57h-5.29V157.94h-9.36l-.55,11.82a33.9,33.9,0,0,1-1.35,8.6,8.71,8.71,0,0,1-3,4.46,8.94,8.94,0,0,1-5.29,1.41h-1.34V180l.84-.06a4.13,4.13,0,0,0,2.82-1.28,7.52,7.52,0,0,0,1.51-3.37,40.89,40.89,0,0,0,.72-6.65l.59-15Z" transform="translate(-14.5 -121.5)"/>
        <path class="cls-9" d="M262.61,169.74a18.76,18.76,0,0,1-1.55,7.88,11.76,11.76,0,0,1-4.44,5.21,13,13,0,0,1-13.27,0,11.92,11.92,0,0,1-4.49-5.18,18.16,18.16,0,0,1-1.61-7.75v-1.72a18.6,18.6,0,0,1,1.58-7.89,11.92,11.92,0,0,1,4.47-5.24,13.05,13.05,0,0,1,13.25,0A11.77,11.77,0,0,1,261,160.2a18.54,18.54,0,0,1,1.6,7.84Zm-5.31-1.6q0-5.08-1.92-7.79a6.78,6.78,0,0,0-10.83,0q-1.94,2.7-2,7.63v1.76q0,5,2,7.79a6.32,6.32,0,0,0,5.45,2.75,6.25,6.25,0,0,0,5.43-2.69q1.9-2.69,1.9-7.85Z" transform="translate(-14.5 -121.5)"/>
        <path class="cls-9" d="M288.21,157.94h-9.53v26.29h-5.27V157.94H264v-4.28h24.25Z" transform="translate(-14.5 -121.5)"/>
        <path class="cls-9" d="M316,169.74a18.75,18.75,0,0,1-1.55,7.88,11.75,11.75,0,0,1-4.44,5.21,13,13,0,0,1-13.27,0,11.92,11.92,0,0,1-4.49-5.18,18.15,18.15,0,0,1-1.61-7.75v-1.72a18.6,18.6,0,0,1,1.58-7.89,11.91,11.91,0,0,1,4.47-5.24A13.05,13.05,0,0,1,310,155a11.77,11.77,0,0,1,4.46,5.17A18.55,18.55,0,0,1,316,168Zm-5.31-1.6q0-5.08-1.92-7.79a6.78,6.78,0,0,0-10.83,0Q296,163,296,168v1.76q0,5,2,7.79a6.32,6.32,0,0,0,5.45,2.75,6.25,6.25,0,0,0,5.43-2.69q1.9-2.69,1.9-7.85Z" transform="translate(-14.5 -121.5)"/>
        <path class="cls-9" d="M340,153.66h5.31v30.57H340V162.45l-13.42,21.77h-5.31V153.66h5.31v21.79Zm.17-7.79a5.45,5.45,0,0,1-1.85,4.28,8.25,8.25,0,0,1-9.87,0,5.45,5.45,0,0,1-1.85-4.28h3.82a2.87,2.87,0,0,0,.79,2.15,3,3,0,0,0,2.17.77,2.94,2.94,0,0,0,2.16-.77,2.89,2.89,0,0,0,.78-2.15Z" transform="translate(-14.5 -121.5)"/>
        <path class="cls-9" d="M68.84,221.31a9.42,9.42,0,0,1-3,6.27,9.82,9.82,0,0,1-6.71,2.21,9,9,0,0,1-7.27-3.25,13.08,13.08,0,0,1-2.73-8.7v-2.46a14.58,14.58,0,0,1,1.27-6.28A9.52,9.52,0,0,1,54,204.93a10.06,10.06,0,0,1,5.41-1.45A9.25,9.25,0,0,1,66,205.76a9.53,9.53,0,0,1,2.87,6.3H65.45a7.36,7.36,0,0,0-1.91-4.44,5.77,5.77,0,0,0-4.1-1.37,6,6,0,0,0-5.07,2.39q-1.84,2.39-1.84,6.81v2.48a11.29,11.29,0,0,0,1.74,6.63A5.62,5.62,0,0,0,59.14,227a6.49,6.49,0,0,0,4.32-1.27,7.07,7.07,0,0,0,2-4.44Z" transform="translate(-14.5 -121.5)"/>
        <path class="cls-9" d="M87.56,217.6H76.46v9.07H89.35v2.76H73.09V203.83H89.17v2.76H76.46v8.24H87.56Z" transform="translate(-14.5 -121.5)"/>
        <path class="cls-9" d="M96.56,219.41v10H93.19V203.83h9.44a9.48,9.48,0,0,1,6.58,2.14,7.27,7.27,0,0,1,2.38,5.68,7.17,7.17,0,0,1-2.33,5.74q-2.33,2-6.67,2Zm0-2.76h6.06a6.06,6.06,0,0,0,4.15-1.28,4.67,4.67,0,0,0,1.44-3.69,4.82,4.82,0,0,0-1.44-3.66,5.68,5.68,0,0,0-4-1.43H96.56Z" transform="translate(-14.5 -121.5)"/>
        <path class="cls-9" d="M133.22,206.59H125v22.83h-3.36V206.59h-8.21v-2.76h19.79Z" transform="translate(-14.5 -121.5)"/>
        <path class="cls-9" d="M152.8,203.83h3.38v25.59H152.8V209.7l-12.6,19.72H136.8V203.83h3.39v19.72Z" transform="translate(-14.5 -121.5)"/>
        <path class="cls-9" d="M174.6,206.4h.54a10.8,10.8,0,0,1,5.29,1.35,9.52,9.52,0,0,1,3.72,3.68,10.47,10.47,0,0,1,1.33,5.25,10.6,10.6,0,0,1-1.34,5.29,9.54,9.54,0,0,1-3.69,3.7,10.76,10.76,0,0,1-5.24,1.36h-.62v3.45h-3.27V227h-.49a10.78,10.78,0,0,1-5.33-1.34,9.49,9.49,0,0,1-3.73-3.69,11.21,11.21,0,0,1,0-10.58,9.49,9.49,0,0,1,3.73-3.69,10.78,10.78,0,0,1,5.33-1.34h.49v-3.62h3.27Zm-3.76,2.65a6.86,6.86,0,0,0-5.23,2,9.22,9.22,0,0,0,0,11.27,6.93,6.93,0,0,0,5.27,2h.46V209.05Zm3.76,0v15.31h.49a6.75,6.75,0,0,0,5.25-2.07,8,8,0,0,0,1.89-5.62,7.92,7.92,0,0,0-1.89-5.57,6.86,6.86,0,0,0-5.32-2.06Z" transform="translate(-14.5 -121.5)"/>
        <path class="cls-9" d="M205.51,203.83h3.38v25.59h-3.37V209.7l-12.6,19.72h-3.39V203.83h3.39v19.72Z" transform="translate(-14.5 -121.5)"/>
        <path class="cls-9" d="M214.79,203.83h3.39v22.83H230.8V203.83h3.38V226.6h2.69l-.32,9h-3v-6.17H214.79Z" transform="translate(-14.5 -121.5)"/>
        <path class="cls-9" d="M256.77,203.83h3.38v25.59h-3.37V209.7l-12.6,19.72h-3.39V203.83h3.39v19.72Z" transform="translate(-14.5 -121.5)"/>
        <path class="cls-9" d="M269.32,219.41v10h-3.37V203.83h9.44A9.48,9.48,0,0,1,282,206a7.27,7.27,0,0,1,2.38,5.68A7.17,7.17,0,0,1,282,217.4q-2.33,2-6.67,2Zm0-2.76h6.06a6.06,6.06,0,0,0,4.15-1.28,4.67,4.67,0,0,0,1.44-3.69,4.82,4.82,0,0,0-1.44-3.66,5.68,5.68,0,0,0-4-1.43h-6.26Z" transform="translate(-14.5 -121.5)"/>
        <path class="cls-9" d="M308,217.46a15.83,15.83,0,0,1-1.27,6.57,9.59,9.59,0,0,1-3.59,4.28,9.9,9.9,0,0,1-14.41-4.25,15.19,15.19,0,0,1-1.33-6.37v-1.85a15.64,15.64,0,0,1,1.28-6.52,9.49,9.49,0,0,1,9-5.84A9.92,9.92,0,0,1,303.1,205a9.57,9.57,0,0,1,3.61,4.31,15.91,15.91,0,0,1,1.27,6.57Zm-3.36-1.65q0-4.55-1.83-7a6,6,0,0,0-5.12-2.43,6,6,0,0,0-5,2.43,11.24,11.24,0,0,0-1.89,6.76v1.88a11.49,11.49,0,0,0,1.85,6.93,6.5,6.5,0,0,0,10.17.14q1.79-2.38,1.85-6.83Z" transform="translate(-14.5 -121.5)"/>
        <path class="cls-9" d="M312.68,229.43V203.83H321q4.17,0,6.27,1.72a6.21,6.21,0,0,1,2.1,5.1,5.2,5.2,0,0,1-1,3.17,6.61,6.61,0,0,1-2.78,2.14,5.94,5.94,0,0,1,3.28,2.21,6.33,6.33,0,0,1,1.2,3.88,6.85,6.85,0,0,1-2.23,5.41,9.23,9.23,0,0,1-6.31,2Zm3.38-14.68h5.1a5.34,5.34,0,0,0,3.54-1.11,3.72,3.72,0,0,0,1.33-3,3.66,3.66,0,0,0-1.23-3.07,6,6,0,0,0-3.74-1h-5Zm0,2.71v9.21h5.57a5.37,5.37,0,0,0,3.72-1.22,4.29,4.29,0,0,0,1.36-3.37q0-4.62-5-4.62Z" transform="translate(-14.5 -121.5)"/>
        <path class="cls-9" d="M348.87,222.73H338.14l-2.41,6.7h-3.48L342,203.83h3l9.79,25.59h-3.46Zm-9.7-2.76h8.7l-4.36-12Z" transform="translate(-14.5 -121.5)"/>
        <path class="cls-9" d="M377.53,229.43h-3.39V217.6h-12.9v11.83h-3.37V203.83h3.38v11h12.9v-11h3.39Z" transform="translate(-14.5 -121.5)"/>
        <path class="cls-9" d="M402.83,229.43h-3.39V217.6h-12.9v11.83h-3.37V203.83h3.38v11h12.9v-11h3.39Z" transform="translate(-14.5 -121.5)"/>
        <path class="cls-9" d="M412,214.27h6.36a9.28,9.28,0,0,1,6.26,2.06,6.93,6.93,0,0,1,2.25,5.45,7.09,7.09,0,0,1-2.27,5.52,9.12,9.12,0,0,1-6.19,2.13h-9.79V203.83H412Zm0,2.76v9.63h6.17a5.43,5.43,0,0,0,3.91-1.34,4.74,4.74,0,0,0,1.4-3.59,4.44,4.44,0,0,0-1.34-3.42,5.53,5.53,0,0,0-3.82-1.29Zm21.34,12.39H430V203.83h3.38Z" transform="translate(-14.5 -121.5)"/>
        <path class="cls-9" d="M455.37,203.83h3.38v25.59h-3.37V209.7l-12.6,19.72h-3.39V203.83h3.39v19.72Zm-.95-6.38a4.38,4.38,0,0,1-1.45,3.43,6.23,6.23,0,0,1-7.62,0,4.37,4.37,0,0,1-1.46-3.42h2.65a2.66,2.66,0,0,0,.67,1.92,2.58,2.58,0,0,0,2,.69,2.4,2.4,0,0,0,2.62-2.62Z" transform="translate(-14.5 -121.5)"/>
        <path class="cls-9" d="M197,272.63H193.6V249.79H181v22.83H177.6V247H197Z" transform="translate(-14.5 -121.5)"/>
        <path class="cls-9" d="M216.9,265.93H206.17l-2.41,6.7h-3.48L210.06,247h3l9.79,25.59h-3.46Zm-9.7-2.76h8.7l-4.36-12Z" transform="translate(-14.5 -121.5)"/>
        <path class="cls-9" d="M229.26,262.61v10h-3.37V247h9.44a9.48,9.48,0,0,1,6.58,2.14,7.27,7.27,0,0,1,2.38,5.68,7.17,7.17,0,0,1-2.33,5.74q-2.33,2-6.67,2Zm0-2.76h6.06a6.07,6.07,0,0,0,4.15-1.28,4.67,4.67,0,0,0,1.44-3.69,4.82,4.82,0,0,0-1.44-3.66,5.68,5.68,0,0,0-4-1.43h-6.26Z" transform="translate(-14.5 -121.5)"/>
        <path class="cls-9" d="M265.92,249.79H257.7v22.83h-3.36V249.79h-8.21V247h19.79Z" transform="translate(-14.5 -121.5)"/>
        <path class="cls-9" d="M289,272.63h-3.39V260.8h-12.9v11.83h-3.37V247h3.38v11h12.9V247H289Z" transform="translate(-14.5 -121.5)"/>
        <path class="cls-9" d="M309.13,260.8H298v9.07h12.88v2.76H294.66V247h16.08v2.76H298V258h11.09Z" transform="translate(-14.5 -121.5)"/>
        <path class="cls-9" d="M318.14,262.61v10h-3.37V247h9.44a9.48,9.48,0,0,1,6.58,2.14,7.27,7.27,0,0,1,2.38,5.68,7.17,7.17,0,0,1-2.33,5.74q-2.33,2-6.67,2Zm0-2.76h6.06a6.07,6.07,0,0,0,4.15-1.28,4.67,4.67,0,0,0,1.44-3.69,4.82,4.82,0,0,0-1.44-3.66,5.68,5.68,0,0,0-4-1.43h-6.26Z" transform="translate(-14.5 -121.5)"/>
      </g>
      <g>
        <g id="layer1">
          <path id="path821" class="cls-10" d="M128.88,367.86a26,26,0,0,1-18.71-36,25.29,25.29,0,0,1,5.12-7.52l2-2,.14,11.81c.13,11.3.16,11.87.7,13.29a16.8,16.8,0,0,0,4.19,6.63,16.35,16.35,0,0,0,18.93,3.21,16.74,16.74,0,0,0,9.3-15.83,15.56,15.56,0,0,0-4.91-10.72,16.32,16.32,0,0,0-8.26-4.61c-3.11-.65-3-.75-3,1.89v2.27l1.71.31a12.05,12.05,0,0,1,9.6,14.25,11.68,11.68,0,0,1-3,5.64,12,12,0,0,1-19.59-3,14,14,0,0,1-.68-1.89c-1-4.24-.35-13.18-.35-13.18L122,319.32l.77-.4a5,5,0,0,1,.9-.4c.07,0,.17,6,.21,13.33,0,0-.94,9.61.22,13.29.17.53.48,1.44.48,1.44a10.4,10.4,0,0,0,4.75,4.88,8.9,8.9,0,0,0,4.78,1.1,10.58,10.58,0,0,0,9.29-6.42,10.2,10.2,0,0,0-6.69-13.57c-2.38-.7-2.34-.74-2.34,1.85v2.27l1.14.31a5.58,5.58,0,0,1,2.15,9.48,5.32,5.32,0,0,1-4,1.45,5.49,5.49,0,0,1-5.35-5.52c0-4.31-.09-12.07-.09-12.07L128.18,317l.59-.15c.33-.08,1.64-.28,2.93-.44,4.35-.56,10.79.87,15.12,3.34A26.56,26.56,0,0,1,159,335.67c.64,2.31.71,3,.71,6.68s-.07,4.38-.7,6.64a25.9,25.9,0,0,1-18.15,18.38,19,19,0,0,1-6.26.76,27.7,27.7,0,0,1-5.76-.28Z" transform="translate(-14.5 -121.5)"/>
        </g>
        <g>
          <path class="cls-11" d="M181.69,358H176v-18l-5.57,1.63v-4.29l10.72-3.71h.52Z" transform="translate(-14.5 -121.5)"/>
          <path class="cls-11" d="M204.35,349.72a8.92,8.92,0,0,1-1.37,4.5,8.3,8.3,0,0,1-3.53,3,12,12,0,0,1-5.19,1.07,9.59,9.59,0,0,1-7.58-3.14q-2.77-3.14-2.77-8.85v-1.21a14.78,14.78,0,0,1,1.25-6.28,9.46,9.46,0,0,1,3.6-4.16,10,10,0,0,1,5.43-1.47,10.53,10.53,0,0,1,7.14,2.34A9.24,9.24,0,0,1,204.4,342h-5.87a4.38,4.38,0,0,0-1.12-3.2,4.62,4.62,0,0,0-3.22-1,3.52,3.52,0,0,0-3.22,1.64,10.56,10.56,0,0,0-1.07,5.25v1.73q0,3.91,1,5.58a3.59,3.59,0,0,0,3.38,1.68,4.52,4.52,0,0,0,3.1-1,4.06,4.06,0,0,0,1.14-3Z" transform="translate(-14.5 -121.5)"/>
          <path class="cls-11" d="M242.49,338.1H231.91V342h3a12.55,12.55,0,0,1,5.13,1,7.79,7.79,0,0,1,3.43,2.79,7.74,7.74,0,0,1-1.48,10,10.81,10.81,0,0,1-7.19,2.25H226V333.57h16.5Zm-10.58,8.4v7h3a3.93,3.93,0,0,0,2.84-1,3.44,3.44,0,0,0,1-2.6,3.09,3.09,0,0,0-1-2.43,4.2,4.2,0,0,0-2.88-.92Z" transform="translate(-14.5 -121.5)"/>
          <path class="cls-11" d="M262.86,333.57h5.89V358h-5.89v-15.4L254.09,358H248.2V333.57h5.89V349Z" transform="translate(-14.5 -121.5)"/>
          <path class="cls-11" d="M292.8,338.11h-7.33V358h-5.89V338.11h-7.2v-4.54H292.8Z" transform="translate(-14.5 -121.5)"/>
          <path class="cls-11" d="M303,349.7V358h-5.89V333.57h9.74a11.35,11.35,0,0,1,5,1,7.78,7.78,0,0,1,3.34,2.93,8,8,0,0,1,1.18,4.32,7.07,7.07,0,0,1-2.56,5.71,10.61,10.61,0,0,1-7,2.14Zm0-4.54h3.86a3.64,3.64,0,0,0,2.61-.86,3.18,3.18,0,0,0,.9-2.42,3.93,3.93,0,0,0-.92-2.73,3.26,3.26,0,0,0-2.52-1H303Z" transform="translate(-14.5 -121.5)"/>
          <path class="cls-11" d="M334.85,333.57h5.89V358h-5.89v-15.4L326.08,358h-5.89V333.57h5.89V349Z" transform="translate(-14.5 -121.5)"/>
          <path class="cls-11" d="M354.06,348.33h-2.78V358h-5.89V333.57h5.89V343h2.26l4.7-9.44h7.13l-6.71,11.27L366.2,358h-7Z" transform="translate(-14.5 -121.5)"/>
          <path class="cls-11" d="M386.61,349.72a8.92,8.92,0,0,1-1.37,4.5,8.3,8.3,0,0,1-3.53,3,12,12,0,0,1-5.19,1.07,9.59,9.59,0,0,1-7.58-3.14q-2.77-3.14-2.77-8.85v-1.21a14.78,14.78,0,0,1,1.25-6.28,9.47,9.47,0,0,1,3.6-4.16,10,10,0,0,1,5.43-1.47,10.53,10.53,0,0,1,7.14,2.34,9.24,9.24,0,0,1,3.07,6.45h-5.87a4.37,4.37,0,0,0-1.12-3.2,4.62,4.62,0,0,0-3.22-1,3.52,3.52,0,0,0-3.22,1.64,10.55,10.55,0,0,0-1.07,5.25v1.73q0,3.91,1,5.58a3.59,3.59,0,0,0,3.38,1.68,4.52,4.52,0,0,0,3.1-1,4.06,4.06,0,0,0,1.14-3Z" transform="translate(-14.5 -121.5)"/>
        </g>
        <circle class="cls-11" cx="201.53" cy="224.35" r="3.94"/>
      </g>
    </g>
  </g>
  <g id="Слой_2" data-name="Слой 2">
    <rect class="cls-12" y="171.5" width="473" height="4"/>
    <rect class="cls-13" y="175.5" width="473" height="4"/>
    <rect class="cls-6" x="6.5" y="154.5" width="1.5" height="11"/>
    <rect class="cls-6" x="465" y="154.5" width="1.5" height="11"/>
  </g>
</svg>
