<?xml version="1.0" encoding="utf-8"?>
<!-- Generator: Adobe Illustrator 19.2.1, SVG Export Plug-In . SVG Version: 6.00 Build 0)  -->
<svg version="1.1" id="Слой_1" xmlns="http://www.w3.org/2000/svg" xmlns:xlink="http://www.w3.org/1999/xlink" x="0px" y="0px"
	 viewBox="0 0 223 215" style="enable-background:new 0 0 223 215;" xml:space="preserve">
<style type="text/css">
	.st0{fill:#464646;}
</style>
<g>
	<path class="st0" d="M47.9,67.9H126c3.1,0,5.6-2.5,5.6-5.6s-2.5-5.6-5.6-5.6H47.9c-3.1,0-5.6,2.5-5.6,5.6S44.8,67.9,47.9,67.9
		L47.9,67.9z M47.9,67.9"/>
	<path class="st0" d="M47.9,87.2H126c3.1,0,5.6-2.5,5.6-5.6c0-3.1-2.5-5.6-5.6-5.6H47.9c-3.1,0-5.6,2.5-5.6,5.6
		C42.3,84.7,44.8,87.2,47.9,87.2L47.9,87.2z M47.9,87.2"/>
	<path class="st0" d="M89.2,152.9H47.9c-3.1,0-5.6,2.5-5.6,5.6c0,3.1,2.5,5.6,5.6,5.6h41.3c3.1,0,5.6-2.5,5.6-5.6
		C94.8,155.4,92.3,152.9,89.2,152.9L89.2,152.9z M89.2,152.9"/>
	<path class="st0" d="M205.4,26.7l-16.5-9.9c-1.3-0.8-2.8-1-4.2-0.6c-1.4,0.4-2.7,1.3-3.4,2.6l-28.7,47.8V32.6
		c0-3.1-2.5-5.6-5.6-5.6H21.6c-3.1,0-5.6,2.5-5.6,5.6v157.8c0,3.1,2.5,5.6,5.6,5.6H147c3.1,0,5.6-2.5,5.6-5.6v-64.9l54.7-91.2
		C208.9,31.7,208.1,28.3,205.4,26.7L205.4,26.7z M133.1,136.3l-9.3,7.7l2.4-11.8l53.7-89.5l6.9,4.1L133.1,136.3z M192.6,37.2
		l-6.9-4.1l2.3-3.8l6.9,4.1L192.6,37.2z M27.2,184.8V38.2h114.2v46.9l-9.9,16.5c0-0.3,0.1-0.5,0.1-0.8c0-3.1-2.5-5.6-5.6-5.6H47.9
		c-3.1,0-5.6,2.5-5.6,5.6c0,3.1,2.5,5.6,5.6,5.6H126c1.2,0,2.4-0.4,3.3-1.1l-5.5,9.1h-76c-3.1,0-5.6,2.5-5.6,5.6
		c0,3.1,2.5,5.6,5.6,5.6h69.2l-1,1.6c-0.3,0.5-0.6,1.1-0.7,1.8l-1,4.7H47.9c-3.1,0-5.6,2.5-5.6,5.6c0,3.1,2.5,5.6,5.6,5.6h64.3
		l-2.6,12.5c-0.5,2.3,0.6,4.7,2.6,5.9c0.9,0.5,1.9,0.8,2.9,0.8c1.3,0,2.5-0.4,3.6-1.3l22.3-18.5c0.2-0.1,0.3-0.3,0.4-0.4v40.9H27.2z
		 M27.2,184.8"/>
</g>
</svg>
