<?xml version="1.0" encoding="iso-8859-1"?>
<!-- Generator: Adobe Illustrator 21.0.0, SVG Export Plug-In . SVG Version: 6.00 Build 0)  -->
<svg version="1.1" id="Layer_1" xmlns="http://www.w3.org/2000/svg" xmlns:xlink="http://www.w3.org/1999/xlink" x="0px" y="0px"
	 viewBox="-49 141 512 512" style="enable-background:new -49 141 512 512;" xml:space="preserve">
<path style="fill:#344C62;" d="M454.983,145.276H-40.983c-4.427,0-8.017,3.589-8.017,8.017v102.614v384.802
	c0,4.427,3.589,8.017,8.017,8.017h495.967c4.428,0,8.017-3.589,8.017-8.017V255.906V153.292
	C463,148.865,459.412,145.276,454.983,145.276z M446.967,161.309v86.58H-32.967v-86.58H446.967z M-32.967,632.691V263.923h479.933
	v368.768H-32.967z"/>
<path style="fill:#344C62;" d="M283.96,195.514h94.063c4.428,0,8.017-3.589,8.017-8.017s-3.588-8.017-8.017-8.017H283.96
	c-4.428,0-8.017,3.589-8.017,8.017S279.532,195.514,283.96,195.514z"/>
<path style="fill:#344C62;" d="M403.676,195.514h17.102c4.428,0,8.017-3.589,8.017-8.017s-3.588-8.017-8.017-8.017h-17.102
	c-4.428,0-8.017,3.589-8.017,8.017S399.248,195.514,403.676,195.514z"/>
<path style="fill:#344C62;" d="M215.551,238.269c18.566,0,33.67-15.105,33.67-33.67s-15.105-33.67-33.67-33.67
	s-33.67,15.105-33.67,33.67S196.986,238.269,215.551,238.269z M215.551,186.962c9.725,0,17.637,7.912,17.637,17.637
	s-7.912,17.637-17.637,17.637c-9.725,0-17.637-7.912-17.637-17.637S205.826,186.962,215.551,186.962z"/>
<path style="fill:#344C62;" d="M121.489,238.269c18.566,0,33.67-15.105,33.67-33.67s-15.105-33.67-33.67-33.67
	s-33.67,15.105-33.67,33.67S102.923,238.269,121.489,238.269z M121.489,186.962c9.725,0,17.637,7.912,17.637,17.637
	s-7.912,17.637-17.637,17.637c-9.725,0-17.637-7.912-17.637-17.637S111.764,186.962,121.489,186.962z"/>
<path style="fill:#344C62;" d="M27.426,238.269c18.566,0,33.67-15.105,33.67-33.67s-15.105-33.67-33.67-33.67
	s-33.67,15.105-33.67,33.67S8.86,238.269,27.426,238.269z M27.426,186.962c9.725,0,17.637,7.912,17.637,17.637
	s-7.912,17.637-17.637,17.637s-17.637-7.912-17.637-17.637S17.701,186.962,27.426,186.962z"/>
<path style="fill:#344C62;" d="M119.877,373.063c0.174-6.422-2.163-12.527-6.582-17.191s-10.389-7.327-16.81-7.501
	c-6.403-0.175-12.526,2.164-17.19,6.582l-81.236,76.96c-4.866,4.61-7.602,11.098-7.507,17.801
	c0.095,6.703,3.015,13.112,8.011,17.581L79.8,539.982c4.417,3.951,10.109,6.126,16.028,6.126c0.001,0,0.002,0,0.003,0
	c6.837,0,13.371-2.92,17.929-8.014c8.842-9.883,7.996-25.117-1.887-33.96l-61.769-55.267l62.274-58.995
	C117.039,385.454,119.703,379.484,119.877,373.063z M101.348,378.232l-68.594,64.983c-1.627,1.541-2.534,3.693-2.502,5.935
	c0.032,2.24,1,4.365,2.67,5.86l68.258,61.073c3.294,2.947,3.577,8.025,0.63,11.32c-1.541,1.723-3.665,2.672-5.982,2.672
	c-1.971,0-3.867-0.725-5.339-2.043L9.254,455.348c-1.665-1.49-2.639-3.626-2.671-5.86c-0.031-2.234,0.881-4.397,2.502-5.933
	l81.236-76.96c1.501-1.422,3.449-2.198,5.508-2.198c0.074,0,0.149,0.001,0.222,0.003c2.141,0.058,4.13,0.946,5.603,2.5
	c1.473,1.554,2.252,3.589,2.194,5.73C103.791,374.77,102.903,376.76,101.348,378.232z"/>
<path style="fill:#344C62;" d="M415.942,431.914l-81.236-76.96c-9.626-9.119-24.878-8.709-34.001,0.919
	c-9.119,9.626-8.707,24.878,0.919,33.999l62.274,58.995l-61.769,55.267c-9.882,8.843-10.728,24.076-1.887,33.961
	c4.558,5.092,11.092,8.013,17.927,8.013c0.001,0,0.002,0,0.003,0c5.921,0,11.614-2.176,16.029-6.127l81.236-72.685
	c4.997-4.471,7.917-10.88,8.01-17.583C423.543,443.011,420.807,436.523,415.942,431.914z M407.416,449.489
	c-0.031,2.233-1.004,4.369-2.67,5.859l-81.236,72.685c-1.472,1.317-3.367,2.043-5.339,2.043h-0.001
	c-2.314,0-4.438-0.949-5.979-2.671c-2.948-3.294-2.666-8.373,0.629-11.321l68.257-61.073c1.671-1.494,2.639-3.619,2.67-5.86
	c0.032-2.241-0.875-4.393-2.502-5.935l-68.594-64.983c-3.209-3.04-3.347-8.125-0.307-11.333c1.574-1.661,3.696-2.499,5.822-2.499
	c1.98,0,3.965,0.727,5.511,2.193l81.236,76.96c1.623,1.536,2.533,3.699,2.502,5.933v0.002H407.416z"/>
<path style="fill:#344C62;" d="M257.481,360.122c0-0.001-0.001-0.001-0.001-0.001c-11.495-6.614-26.226-2.647-32.842,8.843
	l-81.236,141.094c-6.618,11.492-2.65,26.225,8.843,32.843c3.648,2.099,7.792,3.21,11.983,3.21c8.585,0,16.577-4.619,20.857-12.053
	l81.236-141.093c3.205-5.567,4.051-12.05,2.382-18.252C267.033,368.509,263.047,363.327,257.481,360.122z M252.427,384.964
	l-81.235,141.094c-1.427,2.479-4.096,4.019-6.963,4.019c-1.409,0-2.749-0.36-3.985-1.071c-3.831-2.205-5.153-7.117-2.948-10.948
	l81.237-141.094c1.481-2.573,4.184-4.014,6.961-4.014c1.356,0,2.73,0.344,3.987,1.068c1.856,1.068,3.184,2.795,3.74,4.862
	C253.778,380.947,253.496,383.108,252.427,384.964z"/>
</svg>
