<?xml version="1.0" encoding="utf-8"?>
<!-- Generator: Adobe Illustrator 21.0.0, SVG Export Plug-In . SVG Version: 6.00 Build 0)  -->
<svg version="1.1" id="Слой_1" xmlns="http://www.w3.org/2000/svg" xmlns:xlink="http://www.w3.org/1999/xlink" x="0px" y="0px"
	 viewBox="0 0 101.1 139.3" style="enable-background:new 0 0 101.1 139.3;" xml:space="preserve">
<style type="text/css">
	.st0{fill:#FFFFFF;}
	.st1{fill:#FF141F;}
</style>
<path class="st0" d="M78.1,29.6c6.1-6.4,12.3-12.7,18.2-19.2c1.3-1.4,1.6-3.7,2.4-5.6c-1.9-0.7-3.7-1.9-5.6-1.9
	c-8.4-0.2-16.7-0.4-25,0.1c-3,0.2-6.7,1.5-8.7,3.6C42.4,24.2,25.6,42,8.8,59.8c-7,7.5-7,12.9,0.1,20.4c16.6,17.6,33.3,35,49.8,52.6
	c2.8,3,5.8,4.4,10,4.3c8.3-0.3,16.7-0.1,25-0.2c1.6,0,3.3-0.9,4.9-1.4c-0.6-2-0.7-4.4-1.9-5.8c-7.8-8.4-15.8-16.7-23.7-25
	C62.1,93.2,51.2,81.8,39.9,69.9C53,56.2,65.6,42.9,78.1,29.6z"/>
<path class="st1" d="M73.1,104.7c7.9,8.3,16,16.5,23.7,25c1.2,1.4,1.3,3.9,1.9,5.8c-1.6,0.5-3.3,1.4-4.9,1.4
	c-8.3,0.2-16.7-0.1-25,0.2c-4.2,0.2-7.2-1.3-10-4.3C42.3,115.2,25.6,97.8,9,80.2c-7.1-7.5-7.2-12.9-0.1-20.4
	C25.7,42,42.4,24.2,59.5,6.6c2-2.1,5.7-3.4,8.7-3.6c8.3-0.5,16.7-0.3,25-0.1c1.9,0.1,3.7,1.3,5.6,1.9C98,6.7,97.7,9,96.4,10.4
	c-5.9,6.5-12.1,12.8-18.2,19.2C65.6,42.9,53,56.2,39.9,69.9C51.3,81.8,62.2,93.3,73.1,104.7z"/>
</svg>
