<?xml version="1.0" encoding="utf-8"?>
<!-- Generator: Adobe Illustrator 21.0.0, SVG Export Plug-In . SVG Version: 6.00 Build 0)  -->
<svg version="1.1" id="Слой_1" xmlns="http://www.w3.org/2000/svg" xmlns:xlink="http://www.w3.org/1999/xlink" x="0px" y="0px"
	 viewBox="0 0 101.1 139.3" style="enable-background:new 0 0 101.1 139.3;" xml:space="preserve">
<style type="text/css">
	.st0{fill:#FFFFFF;}
	.st1{fill:#FF141F;}
</style>
<path class="st0" d="M62.5,69.9c-11.3,11.9-22.2,23.3-33.1,34.8c-7.9,8.3-15.9,16.6-23.7,25c-1.2,1.4-1.3,3.8-1.9,5.8
	c1.6,0.5,3.3,1.4,4.9,1.4c8.3,0.1,16.7-0.1,25,0.2c4.2,0.1,7.2-1.3,10-4.3c16.5-17.6,33.2-35,49.8-52.6c7.1-7.5,7.1-12.9,0.1-20.4
	C76.8,42,60,24.2,43,6.6c-2-2.1-5.7-3.4-8.7-3.6C26,2.5,17.7,2.7,9.3,2.9c-1.9,0-3.7,1.2-5.6,1.9C4.5,6.7,4.8,9,6.1,10.4
	c5.9,6.5,12.1,12.8,18.2,19.2C36.8,42.9,49.4,56.2,62.5,69.9z"/>
<path class="st1" d="M62.5,69.9c-13.1-13.7-25.7-27-38.3-40.3C18.1,23.2,11.9,16.9,6,10.4C4.7,9,4.4,6.7,3.6,4.8
	C5.5,4.2,7.3,3,9.2,2.9c8.3-0.2,16.7-0.4,25,0.1c3,0.2,6.7,1.5,8.7,3.6C60,24.2,76.7,42,93.5,59.8c7.1,7.5,7,12.9-0.1,20.4
	c-16.6,17.6-33.3,35-49.8,52.6c-2.8,3-5.8,4.5-10,4.3c-8.3-0.3-16.7,0-25-0.2c-1.6,0-3.3-0.9-4.9-1.4c0.6-1.9,0.7-4.4,1.9-5.8
	c7.7-8.5,15.8-16.7,23.7-25C40.2,93.3,51.1,81.8,62.5,69.9z"/>
</svg>
