<?xml version="1.0" encoding="utf-8"?>
<!-- Generator: Adobe Illustrator 19.2.1, SVG Export Plug-In . SVG Version: 6.00 Build 0)  -->
<svg version="1.1" id="Слой_1" xmlns="http://www.w3.org/2000/svg" xmlns:xlink="http://www.w3.org/1999/xlink" x="0px" y="0px"
	 viewBox="0 0 266.9 230.9" style="enable-background:new 0 0 266.9 230.9;" xml:space="preserve">
<style type="text/css">
	.st0{fill:#FFFFFF;}
	.st1{fill:#FF141F;}
</style>
<path class="st0" d="M44.4,118.5c4.8-5.1,9.3-9.9,13.9-14.7C72.5,88.8,86.8,74,101,58.9c1.3-1.4,1.6-3.7,2.3-5.6
	c-1.9-0.7-3.7-1.9-5.6-1.9c-8-0.2-16,0.1-24-0.2c-4.4-0.2-7.6,1.4-10.5,4.5C46.4,73.5,29.6,91.2,12.8,109
	c-6.1,6.4-6.3,12.4-0.1,18.9c17.1,18.2,34.2,36.3,51.6,54.3c1.8,1.9,5.1,3.1,7.8,3.3c8.5,0.4,17,0.3,25.5,0.1c1.9,0,3.8-1.1,5.7-1.7
	c-0.8-2-1.2-4.5-2.6-6c-7.8-8.5-15.8-16.7-23.7-25C66.2,141.4,55.5,130.1,44.4,118.5z"/>
<path class="st0" d="M220.9,118.7c-11.3,11.9-22.2,23.3-33.1,34.8c-7.9,8.3-15.9,16.6-23.7,25c-1.2,1.4-1.3,3.8-1.9,5.8
	c1.6,0.5,3.3,1.4,4.9,1.4c8.3,0.1,16.7-0.1,25,0.2c4.2,0.1,7.2-1.3,10-4.3c16.5-17.6,33.2-35,49.8-52.6c7.1-7.5,7.1-12.9,0.1-20.4
	c-16.8-17.8-33.6-35.6-50.6-53.2c-2-2.1-5.7-3.4-8.7-3.6c-8.3-0.5-16.6-0.3-25-0.1c-1.9,0-3.7,1.2-5.6,1.9c0.8,1.9,1.1,4.2,2.4,5.6
	c5.9,6.5,12.1,12.8,18.2,19.2C195.2,91.7,207.8,105,220.9,118.7z"/>
<path class="st1" d="M44.4,118.5c11,11.6,21.8,22.9,32.6,34.2c7.9,8.3,15.9,16.5,23.7,25c1.4,1.5,1.7,4,2.6,6
	c-1.9,0.6-3.8,1.7-5.7,1.7c-8.5,0.2-17,0.3-25.5-0.1c-2.7-0.1-6-1.4-7.8-3.3c-17.4-17.9-34.5-36.1-51.6-54.3
	c-6.1-6.5-5.9-12.4,0.1-18.9c16.8-17.8,33.7-35.5,50.5-53.3c2.9-3.1,6-4.7,10.5-4.5c8,0.3,16,0,24,0.2c1.9,0.1,3.8,1.3,5.6,1.9
	c-0.8,1.9-1,4.2-2.3,5.6c-14.1,15-28.4,29.9-42.6,44.9C53.7,108.6,49.2,113.4,44.4,118.5z"/>
<path class="st1" d="M220.9,118.7c-13.1-13.7-25.7-27-38.3-40.3c-6.1-6.4-12.3-12.7-18.2-19.2c-1.3-1.4-1.6-3.7-2.4-5.6
	c1.9-0.6,3.7-1.8,5.6-1.9c8.3-0.2,16.7-0.4,25,0.1c3,0.2,6.7,1.5,8.7,3.6c17.1,17.6,33.8,35.4,50.6,53.2c7.1,7.5,7,12.9-0.1,20.4
	c-16.6,17.6-33.3,35-49.8,52.6c-2.8,3-5.8,4.5-10,4.3c-8.3-0.3-16.7,0-25-0.2c-1.6,0-3.3-0.9-4.9-1.4c0.6-1.9,0.7-4.4,1.9-5.8
	c7.7-8.5,15.8-16.7,23.7-25C198.6,142.1,209.5,130.6,220.9,118.7z"/>
</svg>
