<?xml version="1.0" encoding="utf-8"?>
<!-- Generator: Adobe Illustrator 19.2.1, SVG Export Plug-In . SVG Version: 6.00 Build 0)  -->
<svg version="1.1" id="Слой_1" xmlns="http://www.w3.org/2000/svg" xmlns:xlink="http://www.w3.org/1999/xlink" x="0px" y="0px"
	 viewBox="0 0 703.9 328.9" style="enable-background:new 0 0 703.9 328.9;" xml:space="preserve">
<style type="text/css">
	.st0{fill:#344C62;}
	.st1{fill:#FF141F;}
</style>
<g>
	<g>
		<path class="st0" d="M210.3,102c-0.9,2.4-1.4,3.5-1.7,4.7c-6.2,22.1-12.5,44.2-18.7,66.3c-2.4,8.5-6.7,11.9-15.4,11.9
			c-3.7,0-7.3,0-11,0c-9.4,0-13.6-3.1-16.2-12.2c-9.1-31.8-18.2-63.7-27.3-95.5c-1.6-5.8-3.5-11.5-4.8-17.3
			c-1.5-6.6,0.2-8.6,6.9-8.6c5.5,0,11,0,16.5,0c8.4,0.1,13.2,3.7,15.5,12c5.3,19.6,10.4,39.2,15.6,58.9c0.4,1.4,0.9,2.7,2.3,4
			c2.7-10.3,5.4-20.5,8.1-30.8c2.8-10.6,5.5-21.3,8.3-31.9c2.6-9.8,5.8-12.3,15.8-12.3c4.5,0,9,0,13.5,0c8.3,0,11.9,2.8,14.1,11.2
			c4.8,18.2,9.5,36.4,14.2,54.6c0.8,3,1.6,6,2.8,10.2c0.9-2.1,1.4-3.1,1.6-4.1c5.3-19.8,10.5-39.6,15.7-59.3
			c2.4-8.9,6.9-12.5,16.1-12.5c5.5,0,11,0,16.5,0c6.3,0,8.2,2.3,6.5,8.5c-4.9,17.8-10.1,35.5-15.1,53.3c-5.7,20-11.4,40-17.1,60
			c-2.5,8.8-6.7,11.9-15.9,11.9c-3.8,0-7.7,0-11.5,0c-8.2,0-12.7-3.4-14.9-11.3c-6.2-21.9-12.3-43.9-18.4-65.8
			C211.7,106.3,211.2,104.8,210.3,102z"/>
		<path class="st0" d="M494,54.6c4.2-1.2,7.5-2.2,10.8-3.1c15.6-4,31.1-4.7,45.9,2.6c16.7,8.2,25.2,22.7,28.8,40.3
			c3.2,15.3,3.2,30.8,0.2,46.2c-4.9,25.1-19.8,40.5-45.1,45.3c-24.9,4.7-49,1.2-72.2-9c-3.5-1.5-4.8-3.6-4.8-7.6
			c0.1-49.7,0.1-99.3,0.1-149c0-9.3,1.1-10.3,10.4-10.3c6,0,12,0,18,0c6.3,0,7.9,1.5,7.9,8c0.1,10.2,0,20.3,0,30.5
			C494,50.4,494,52.2,494,54.6z M494.1,118.8c0,10.7,0.2,21.3-0.1,32c-0.1,4,1.4,5.9,5.2,6.2c6.8,0.5,13.6,1.5,20.4,1.4
			c9.8-0.2,17.7-4.4,21-14c5.9-17.5,5.8-35.3-0.2-52.8c-2.5-7.1-8-11.2-15.4-12.9c-9-2-17.4,0.2-26,2.6c-3.7,1-5,2.8-5,6.6
			C494.2,98.2,494,108.5,494.1,118.8z"/>
		<path class="st0" d="M352.1,132.7c-1,16.1,8.5,26.8,23.7,27.5c10.2,0.5,19.4-1.2,26.3-10c1.9-2.4,6.3-3.5,9.7-4
			c4.6-0.7,9.3-0.2,14-0.2c6.4,0,9,2.8,8.6,9.3c-0.8,12.6-7.1,21.6-18.6,26c-7.8,3-16.3,5-24.6,5.7c-10.2,0.8-20.8,0.9-30.8-0.9
			c-22.1-3.9-36.1-17.6-42.2-39.1c-5.5-19.3-5.5-38.9,0.4-58.1c6.7-22,21.7-35.5,44.6-39.2c11.6-1.9,23.3-1.7,34.6,1.8
			c23.5,7.3,35.2,24.6,38.9,47.9c1.3,8.5,1.1,17.2,1.3,25.9c0.1,5.6-2,7.4-7.6,7.4c-24,0-48,0-72,0
			C356.4,132.7,354.4,132.7,352.1,132.7z M401.1,105.1c-0.5-10.3-2.1-19.9-11.3-25.5c-8.9-5.4-18.7-5.3-27.4,0.4
			c-8.8,5.7-10.5,15.1-10.8,25.1C368.2,105.1,384.5,105.1,401.1,105.1z"/>
		<path class="st1" d="M44.4,118.5c11,11.6,21.8,22.9,32.6,34.2c7.9,8.3,15.9,16.5,23.7,25c1.4,1.5,1.7,4,2.6,6
			c-1.9,0.6-3.8,1.7-5.7,1.7c-8.5,0.2-17,0.3-25.5-0.1c-2.7-0.1-6-1.4-7.8-3.3c-17.4-17.9-34.5-36.1-51.6-54.3
			c-6.1-6.5-5.9-12.4,0.1-18.9C29.6,91,46.5,73.3,63.3,55.5c2.9-3.1,6-4.7,10.5-4.5c8,0.3,16,0,24,0.2c1.9,0.1,3.8,1.3,5.6,1.9
			c-0.8,1.9-1,4.2-2.3,5.6c-14.1,15-28.4,29.9-42.6,44.9C53.7,108.6,49.2,113.4,44.4,118.5z"/>
		<path class="st1" d="M650.9,118.7c-13.1-13.7-25.7-27-38.3-40.3c-6.1-6.4-12.3-12.7-18.2-19.2c-1.3-1.4-1.6-3.7-2.4-5.6
			c1.9-0.6,3.7-1.8,5.6-1.9c8.3-0.2,16.7-0.4,25,0.1c3,0.2,6.7,1.5,8.7,3.6c17.1,17.6,33.8,35.4,50.6,53.2c7.1,7.5,7,12.9-0.1,20.4
			c-16.6,17.6-33.3,35-49.8,52.6c-2.8,3-5.8,4.5-10,4.3c-8.3-0.3-16.7,0-25-0.2c-1.6,0-3.3-0.9-4.9-1.4c0.6-1.9,0.7-4.4,1.9-5.8
			c7.7-8.5,15.8-16.7,23.7-25C628.6,142.1,639.5,130.6,650.9,118.7z"/>
		<path class="st1" d="M450.8,286c0.6,7.1,2,12.8,8.4,15.6c6.5,2.8,13.8,1.2,18.8-3.8c2.5-2.5,14.3-4.3,16.9-2.3
			c1,0.8,1.6,2.5,1.6,3.9c0.1,4.9-1.9,9.1-5.7,12.2c-12.5,10-41.3,8-51.7-4c-8.7-10.1-9.6-22.4-8.4-34.9c0.5-5.5,2.1-11.1,4.3-16.2
			c3.3-8,9.8-13.2,18.1-15.1c23.7-5.5,43.9,4,45.4,32.1c0.8,15.2,0.6,12.5-11.7,12.6C475,286.1,463.2,286,450.8,286z M451.1,270.9
			c8.9,0,17.7,0,26.6,0c0.9-9.7-4.1-16-12.6-16.2C456,254.5,450.6,260.6,451.1,270.9z"/>
		<path class="st1" d="M238.3,286c0.6,7.3,1.9,13.3,8.6,15.6c6.8,2.4,13.4,2.1,18.7-3.9c2.2-2.5,13.6-4.2,16.5-2.3
			c0.9,0.6,1.5,2.1,1.7,3.3c0.8,6.1-2.4,12.2-8.8,14.9c-12.7,5.4-25.8,6.3-38.8,1.1c-7.7-3.1-12.8-9-15.4-16.8
			c-4.3-12.9-4.3-25.9,0.3-38.7c3.4-9.4,10.2-15.8,20-18c24.4-5.5,43.8,5.3,45,32.7c0.6,15.1,0.1,11.9-11.3,12.1
			c-10.2,0.2-20.3,0-30.5,0C242.5,286,240.7,286,238.3,286z M238.6,270.8c9,0,18,0,27,0c-0.3-10.9-5-16.2-13.9-16.1
			C243.2,254.9,238.5,260.6,238.6,270.8z"/>
		<path class="st1" d="M317,249.6c7.5-6.5,14.4-10.3,23.2-9.8c10.1,0.6,18.5,6,21.6,15.7c1.6,5.2,2.5,10.7,2.7,16.2
			c0.4,12.7,0,25.3,0.2,38c0,4.3-1.2,6.7-6,6.2c-2.3-0.3-4.7,0-7,0c-6.8,0-7.2-0.4-7.2-7.4c0-12.2,0.1-24.3,0-36.5
			c0-6.1-0.3-12.5-7-15.3c-6.7-2.9-12.1,0.7-16.5,5.3c-2,2.1-3.7,5.6-3.8,8.5c-0.4,13.2-0.3,26.3-0.1,39.5c0.1,4.6-1.5,6.2-6.1,6
			c-15.9-0.4-13.8,2.2-13.9-13.7c-0.1-18,0-36,0-54c0-6,0.5-6.5,6.6-6.5c1.8,0,3.7,0.1,5.5,0C314,241.2,318.1,241.6,317,249.6z"/>
		<path class="st1" d="M178.7,239.9c7.9-0.2,15.6,0.9,22.6,5.1c6.5,3.8,9.6,9.6,9.5,17c0,1.5-2.1,4-3.4,4.1
			c-6.2,0.6-12.3,1.3-16.6-5.7c-3.3-5.4-9.7-5.2-15.4-4.3c-5.3,0.9-8.5,4.3-9.9,9.4c-2.4,8.7-2.4,17.4-0.1,26.2
			c1.5,5.7,5.3,9.2,11.2,10c6.2,0.8,12,0.1,16-5.6c3.1-4.4,12.1-7,16.9-4.6c1.2,0.6,2.2,2.9,2.1,4.4c-0.3,8-3.9,14.2-11.2,17.5
			c-12.9,5.7-26.2,6.5-39.2,0.9c-12.1-5.2-16.7-16-17.5-28.2c-0.5-7.7-0.1-15.7,1.7-23.2C148.8,247.4,160.5,239.9,178.7,239.9z"/>
		<path class="st1" d="M399.9,246c5.6,0,10.4,0.1,15.2,0c3.4-0.1,4.7,1.3,4.8,4.7c0.5,11,0.6,11-10.5,11c-9.5,0-9.5,0-9.5,9.4
			c0,6-0.2,12,0.1,18c0.5,10.3,5.1,14,15.4,13.1c2.6-0.2,7.2,0,7.7,1.2c1.2,3.2,0.8,7.1,0.5,10.7c-0.1,0.9-2.2,2.3-3.4,2.4
			c-7.3,0.4-14.7,1.4-21.8,0.4c-11.3-1.6-17.8-10.2-18.2-24c-0.5-23.1-0.2-46.3-0.2-69.4c0-3.1,1.5-4.5,4.6-4.4
			c3.5,0.1,7,0.1,10.5,0s4.8,1.5,4.8,4.8C399.8,230.9,399.9,238,399.9,246z"/>
		<path class="st1" d="M530.5,249c2.3-1.5,3.6-2.6,5.1-3.2c3.9-1.8,7.7-4.1,11.8-5.1c11.8-2.9,15.3,0.6,12.9,12.5
			c-0.3,1.5-2.5,3.3-4.1,3.8c-2.1,0.6-4.6,0.2-6.9-0.1c-6.6-0.7-11.8,1.8-15.7,6.9c-1.6,2.1-2.8,5-2.8,7.5
			c-0.3,12.8-0.2,25.6-0.1,38.4c0.1,4.5-1.5,6.2-6.1,6.1c-16.1-0.5-13.8,2.5-13.9-14c-0.1-18,0.1-35.9-0.1-53.9
			c0-4.7,1.6-6.8,6.4-6.3c2.1,0.2,4.3,0.2,6.5,0C528,241.2,531.4,242.2,530.5,249z"/>
	</g>
</g>
</svg>
