<svg xmlns="http://www.w3.org/2000/svg" viewBox="0 0 24 24" width="60" height="60">
	<defs>
		<style>.cls-1{fill:#fff;}.cls-2{fill:#344c62;}.cls-3{fill:#ff141f;}</style>
	</defs>
	<g id="Слой_2" data-name="Слой 2">
		<g id="Слой_1-2" data-name="Слой 1">
			<g id="Слой_2-2" data-name="Слой 2">
				<path class="cls-1" d="M12,1A11,11,0,1,1,1,12,11,11,0,0,1,12,1m0-1A12,12,0,1,0,24,12,12,12,0,0,0,12,0Z"/>
			</g>
			<g id="Слой_3" data-name="Слой 3">
				<circle class="cls-1" cx="12" cy="12" r="9.75"/>
				<path class="cls-2"
				      d="M11.88,11.42c0,.1-.06.15-.07.21-.27,1-.56,2-.84,3a.62.62,0,0,1-.69.53h-.5a.64.64,0,0,1-.72-.53h0L7.88,10.31c-.07-.26-.15-.5-.22-.77s0-.39.31-.39H8.7a.64.64,0,0,1,.67.53q.35,1.31.69,2.63a.35.35,0,0,0,.1.18l.36-1.37L10.9,9.7c.13-.48.26-.55.7-.55h.62a.55.55,0,0,1,.63.46v0l.64,2.44c0,.14.07.27.13.45a1.09,1.09,0,0,0,.07-.19q.35-1.32.7-2.64a.65.65,0,0,1,.72-.56h.73c.28,0,.36.1.29.38-.22.8-.45,1.59-.67,2.38l-.77,2.68a.62.62,0,0,1-.71.53h-.5a.61.61,0,0,1-.66-.5c-.27-1-.55-2-.82-2.93Z"/>
				<path class="cls-3"
				      d="M4.49,12.15l1.45,1.52c.36.37.71.73,1.06,1.11a1,1,0,0,1,.11.27.92.92,0,0,1-.26.07H5.72A.55.55,0,0,1,5.37,15c-.77-.8-1.53-1.61-2.3-2.42A.54.54,0,0,1,3,11.81l.09-.09L5.33,9.34a.56.56,0,0,1,.47-.2H6.87a1,1,0,0,1,.25.09A.84.84,0,0,1,7,9.47l-1.9,2Z"/>
				<path class="cls-3"
				      d="M19.25,12.16l-1.71-1.79c-.27-.28-.55-.56-.81-.85a.85.85,0,0,1-.1-.25,1.1,1.1,0,0,1,.25-.09H18a.63.63,0,0,1,.39.16c.76.78,1.5,1.58,2.26,2.38a.55.55,0,0,1,0,.91c-.74.78-1.5,1.56-2.23,2.35a.53.53,0,0,1-.44.19H16.86a.8.8,0,0,1-.22-.06.77.77,0,0,1,.08-.26c.34-.38.7-.74,1.06-1.11Z"/>
			</g>
		</g>
	</g>
</svg>