<?xml version="1.0" encoding="utf-8"?>
<!-- Generator: Adobe Illustrator 19.2.1, SVG Export Plug-In . SVG Version: 6.00 Build 0)  -->
<svg version="1.1" id="Слой_1" xmlns="http://www.w3.org/2000/svg" xmlns:xlink="http://www.w3.org/1999/xlink" x="0px" y="0px"
	 viewBox="0 0 56 63" style="enable-background:new 0 0 56 63;" xml:space="preserve">
<style type="text/css">
	.st0{fill:#334B61;}
</style>
<g>
	<path class="st0" d="M9.4,20.4l-1.2-1.2C7.4,19.8,7,20.7,7,21.7v21.6c0,1.6,1.3,2.9,2.9,2.9h25.3l-1.6-1.6H9.9
		c-0.7,0-1.3-0.6-1.3-1.3v-1.7h22l-7-7h-15v-13C8.6,21.1,8.9,20.6,9.4,20.4L9.4,20.4z"/>
	<path class="st0" d="M47.5,44.5l1.2,1.2c0.7-0.5,1.2-1.4,1.2-2.4V21.7c0-1.6-1.3-2.9-2.9-2.9H21.8l1.6,1.6H47
		c0.7,0,1.3,0.6,1.3,1.3v13H37.7l7,7h3.6v1.7C48.3,43.8,48,44.2,47.5,44.5L47.5,44.5z"/>
	<path class="st0" d="M11.5,20.3l14.3,14.3l7,7l3,3l11,11l4.8-4.8L47,46.2l-1.6-1.6l-3-3L21.2,20.3l-1.6-1.6L9.8,9L5,13.8l4.9,4.9
		L11.5,20.3z"/>
</g>
</svg>
