<?xml version="1.0" encoding="utf-8"?>
<!-- Generator: Adobe Illustrator 19.2.1, SVG Export Plug-In . SVG Version: 6.00 Build 0)  -->
<svg version="1.1" id="Слой_1" xmlns="http://www.w3.org/2000/svg" xmlns:xlink="http://www.w3.org/1999/xlink" x="0px" y="0px"
	 viewBox="0 0 292 267.5" style="enable-background:new 0 0 292 267.5;" xml:space="preserve">
<style type="text/css">
	.st0{clip-path:url(#SVGID_2_);}
	svg{
	fill: #334b61;
	}
</style>
<g>
	<path d="M82.9,177.5c-3.7-2.9-8.4-4.5-13.1-4.5c-6.4,0-12.4,2.9-16.5,7.9c-3.5,4.4-5.1,9.8-4.5,15.4c0.6,5.6,3.4,10.6,7.8,14
		c3.7,2.9,8.4,4.6,13.1,4.6c6.4,0,12.4-2.9,16.5-7.9c3.5-4.4,5.1-9.8,4.5-15.4C90.1,186,87.3,181,82.9,177.5L82.9,177.5z M78.7,201
		c-2.2,2.7-5.5,4.3-9,4.3c-2.6,0-5.1-0.9-7.2-2.5c-2.4-1.9-3.9-4.6-4.2-7.6c-0.3-3,0.5-5.9,2.4-8.3c2.2-2.7,5.5-4.3,9-4.3
		c2.6,0,5.1,0.9,7.2,2.5c2.4,1.9,3.9,4.6,4.2,7.6C81.5,195.7,80.6,198.6,78.7,201L78.7,201z M78.7,201"/>
	<path d="M167.3,128.4c3.2,0,6.2-0.7,9.1-2.1c5.1-2.4,8.9-6.7,10.8-12c1.8-5.3,1.5-10.9-0.9-16c-3.5-7.2-10.9-11.8-19-11.8
		c-3.2,0-6.2,0.7-9.1,2.1c-5.1,2.4-8.9,6.7-10.8,12c-1.8,5.3-1.5,10.9,0.9,16C151.8,123.7,159.2,128.4,167.3,128.4L167.3,128.4z
		 M156.4,103.7c1-2.9,3.1-5.2,5.8-6.5c1.6-0.8,3.3-1.1,5-1.1c4.4,0,8.5,2.5,10.4,6.4c1.3,2.7,1.5,5.8,0.5,8.6
		c-1,2.9-3.1,5.2-5.8,6.5c-1.6,0.8-3.2,1.1-5,1.1c-4.4,0-8.5-2.5-10.4-6.4C155.6,109.6,155.4,106.6,156.4,103.7L156.4,103.7z
		 M156.4,103.7"/>
	<path d="M115,94.5c1.5,0.3,3.1,0.5,4.7,0.5c9.9,0,18.3-6.7,20.5-16.3c1.2-5.4,0.3-11-2.7-15.7c-3-4.8-7.7-8.1-13.2-9.3
		c-1.6-0.4-3.1-0.5-4.7-0.5c-9.9,0-18.3,6.7-20.5,16.3c-1.3,5.4-0.3,11,2.7,15.7C104.8,89.9,109.5,93.2,115,94.5L115,94.5z
		 M108.5,71.5c1.2-5.2,5.8-8.8,11.2-8.8c0.9,0,1.7,0.1,2.6,0.3c3,0.7,5.6,2.5,7.2,5.1c1.6,2.6,2.1,5.6,1.5,8.5
		c-1.2,5.1-5.9,8.8-11.2,8.8c-0.9,0-1.7-0.1-2.6-0.3c-3-0.7-5.6-2.5-7.2-5.1C108.4,77.5,107.8,74.5,108.5,71.5L108.5,71.5z
		 M108.5,71.5"/>
	<g>
		<defs>
			<rect id="SVGID_1_" x="15" y="22" width="260.9" height="234"/>
		</defs>
		<clipPath id="SVGID_2_">
			<use xlink:href="#SVGID_1_"  style="overflow:visible;"/>
		</clipPath>
		<path class="st0" d="M76.9,106.4c4.4-3.5,7.2-8.5,7.8-14.1c0.6-5.6-1-11-4.5-15.4c-4-5-10-7.9-16.5-7.9c-4.7,0-9.4,1.6-13.1,4.5
			c-4.4,3.5-7.2,8.5-7.8,14c-0.6,5.6,1,11,4.5,15.4c4,5,10,7.9,16.5,7.9C68.5,111,73.2,109.4,76.9,106.4L76.9,106.4z M54.8,97.1
			c-1.9-2.4-2.8-5.3-2.4-8.3c0.3-3,1.8-5.7,4.2-7.6c2.1-1.6,4.5-2.5,7.2-2.5c3.5,0,6.8,1.6,9,4.3c1.9,2.4,2.8,5.3,2.4,8.3
			c-0.3,3-1.8,5.7-4.2,7.6c-2.1,1.6-4.5,2.5-7.1,2.5C60.3,101.4,57,99.8,54.8,97.1L54.8,97.1z M54.8,97.1"/>
		<path class="st0" d="M273.2,59.5c-0.8-0.8-2.3-1.8-4.6-1.8c-2.7,0-10,0-54.2,37.6c-0.9,0.8-1.8,1.5-2.7,2.3
			c-7.9-20.6-21.8-38.9-39.6-52.2C151.6,30.1,127.2,22,101.5,22h0c-17.3,0-38.4,6.1-55,15.8C26.2,49.7,15,65.7,15,82.8
			c0,20.6,11.6,29.2,21,36.1c7.6,5.6,13.6,10.1,13.6,19.9c0,9.8-6,14.2-13.6,19.9c-9.3,6.9-21,15.5-20.9,36.1
			c0,17.1,11.2,33,31.5,45c16.6,9.8,37.7,15.8,55,15.8h0c31.4,0,61-12.1,83.2-34.2c21.9-21.8,34.2-50.6,34.5-81.3
			c7.5-8.5,14.7-16.9,21.3-24.9c11.3-13.6,19.9-24.8,25.8-33.3C274,70.6,277.4,63.7,273.2,59.5L273.2,59.5z M178.1,214.6
			c-20.4,20.2-47.6,31.4-76.5,31.4h0c-31,0-76.9-21.5-76.9-51.2c0-15.8,8.3-21.9,17.1-28.4c8.2-6.1,17.5-13,17.5-27.6
			c0-14.6-9.3-21.5-17.5-27.6c-8.8-6.5-17.1-12.7-17.1-28.4c0-18.2,16.8-30.8,26.8-36.7c15-8.8,34.6-14.5,50.1-14.5h0
			c23.6,0,46,7.4,64.8,21.4c17.4,12.9,30.6,31,37.6,51.2c-20.8,18.2-43.4,39.1-60.2,56c-27.9,3.6-31.7,22.2-34.5,35.8
			c-2.4,11.6-3.9,17.2-12.9,18c-2.2,0.2-4,1.8-4.4,4c-0.3,2.2,0.9,4.3,2.9,5.2c0.6,0.2,14.3,5.8,30.3,5.8h0
			c11.2,0,20.8-2.7,28.5-8.1c9.5-6.6,16-17,19.2-31c11-11.1,23.5-24.5,35.9-38.3C206.1,175.5,195.4,197.5,178.1,214.6L178.1,214.6z
			 M163.4,189.1c-5.1,20.2-17.9,30.4-38.1,30.4h0c-5.3,0-10.4-0.7-14.7-1.6c5.1-5.2,6.7-13.1,8.1-19.9c2.6-13,5.1-25.2,25.5-28.2
			L163.4,189.1z M229.7,113.3c-19,22.7-42.1,48.1-61,67.5l-2.9-3l-13-13c17.2-17.1,39.2-37.5,59.8-55.4c2.4-2.1,4.8-4.1,7.1-6.1
			c23.9-20.4,36.4-29.2,42.8-33.1C258.7,76.6,249.9,89.2,229.7,113.3L229.7,113.3z M229.7,113.3"/>
	</g>
</g>
</svg>
