<?xml version="1.0" encoding="iso-8859-1"?>
<!-- Generator: Adobe Illustrator 21.0.0, SVG Export Plug-In . SVG Version: 6.00 Build 0)  -->
<svg version="1.1" id="Layer_1" xmlns="http://www.w3.org/2000/svg" xmlns:xlink="http://www.w3.org/1999/xlink" x="0px" y="0px"
	 viewBox="-49 141 512 512" style="enable-background:new -49 141 512 512;" xml:space="preserve">
<path style="fill:#344C62;" d="M35.369,202.706c-5.738,0-11.131,2.234-15.19,6.292c-8.375,8.377-8.374,22.005-0.001,30.375
	c4.057,4.062,9.452,6.296,15.191,6.296c5.739,0,11.133-2.237,15.187-6.293c8.376-8.374,8.376-22,0.002-30.377
	C46.503,204.941,41.108,202.706,35.369,202.706z M39.472,228.296c-1.096,1.096-2.552,1.7-4.102,1.7c-1.55,0-3.008-0.604-4.107-1.704
	c-2.263-2.263-2.263-5.947,0.001-8.212c1.097-1.096,2.555-1.7,4.106-1.7c1.55,0,3.008,0.602,4.104,1.7
	C41.738,222.345,41.739,226.029,39.472,228.296z"/>
<path style="fill:#344C62;" d="M305.803,397.009l59.367-59.356c2.174,0.855,4.512,1.314,6.925,1.314
	c5.045,0,9.779-1.957,13.323-5.501l0.648-0.646c2.705-2.706,4.477-6.098,5.172-9.79c3.692-0.694,7.084-2.467,9.794-5.175
	l0.632-0.632c2.705-2.706,4.478-6.099,5.173-9.79c3.693-0.695,7.089-2.469,9.806-5.185l0.622-0.625
	c3.555-3.553,5.513-8.289,5.513-13.334c0-2.412-0.46-4.747-1.316-6.922l7.35-7.348c3.06-3.061,3.062-8.023,0.001-11.082
	c-3.06-3.062-8.023-3.061-11.082-0.001l-6.245,6.244l-76.642-76.631l35.175-35.17c0.881-0.879,2.368-0.879,3.245-0.001
	l73.401,73.387c0.573,0.574,0.658,1.259,0.658,1.619c-0.001,0.359-0.087,1.047-0.659,1.621l-6.972,6.972
	c-3.06,3.059-3.062,8.022-0.001,11.081c3.06,3.062,8.023,3.061,11.082,0.001l6.972-6.971c3.385-3.385,5.25-7.896,5.251-12.702
	c0-4.809-1.865-9.32-5.251-12.704l-73.397-73.388c-7.003-7.003-18.401-7.003-25.408,0l-36.286,36.281
	c-2.175-0.856-4.512-1.316-6.925-1.316c-5.046,0-9.78,1.956-13.331,5.506l-0.644,0.643c-2.705,2.705-4.476,6.098-5.171,9.789
	c-3.691,0.695-7.081,2.465-9.781,5.163l-0.648,0.647c-2.771,2.772-4.484,6.198-5.16,9.785c-3.696,0.694-7.096,2.467-9.813,5.182
	l-0.628,0.629c-3.553,3.553-5.51,8.288-5.51,13.333c0,2.413,0.459,4.749,1.314,6.925l-59.349,59.338L53.667,144.822
	c-2.462-2.464-5.743-3.821-9.237-3.821c-3.493,0-6.773,1.357-9.236,3.82l-80.324,80.34c-5.09,5.092-5.09,13.378,0.001,18.472
	L108.2,396.993L-25.235,530.402c-1.826,1.831-3.057,4.135-3.555,6.657l-19.96,100.354c-0.85,4.267,0.483,8.654,3.561,11.733
	c2.457,2.457,5.722,3.809,9.195,3.809h0.001c0.85,0,1.703-0.084,2.536-0.249L5.91,644.88c0.003,0,61.017-12.128,61.017-12.128
	c2.535-0.506,4.837-1.74,6.65-3.558l5.939-5.937c0.006-0.007,0.015-0.013,0.021-0.02l127.456-127.433l153.343,153.373
	c2.463,2.464,5.744,3.821,9.237,3.821c3.494,0,6.774-1.357,9.236-3.82l80.325-80.341c5.09-5.091,5.09-13.377-0.001-18.471
	L305.803,397.009z M352.98,327.677l-58.258,58.248l-18.155-18.16l58.254-58.245L352.98,327.677z M390.578,306.144l-0.631,0.632
	c-0.799,0.799-1.752,0.917-2.25,0.917c-0.078,0-0.171-0.005-0.271-0.014c-0.424-0.528-0.875-1.039-1.36-1.525l-88.206-88.19
	c-0.382-0.382-0.916-0.719-1.25-1.136c-0.345-0.432-0.31-0.846-0.146-1.417c0.218-0.762,0.73-1.301,1.285-1.834
	c1.285-1.234,3.298-1.465,4.632-0.127l88.203,88.191c0.799,0.799,0.918,1.75,0.918,2.247
	C391.502,304.387,391.383,305.338,390.578,306.144z M312.836,198.494l0.642-0.642c0.801-0.8,1.755-0.92,2.253-0.92
	s1.452,0.119,2.251,0.918l88.206,88.193c0.799,0.798,0.918,1.75,0.918,2.245c0,0.496-0.119,1.448-0.933,2.262l-0.623,0.625
	c-0.8,0.8-1.754,0.92-2.252,0.92c-0.078,0-0.173-0.005-0.274-0.014c-0.424-0.528-0.874-1.039-1.359-1.525l-88.202-88.191
	c-0.487-0.486-0.999-0.936-1.528-1.361c-0.008-0.097-0.014-0.189-0.014-0.266C311.921,200.242,312.04,199.288,312.836,198.494z
	 M281.648,229.677c1.411-1.415,3.46-2.302,5.13-0.629l88.207,88.191c3.015,3.01-2.127,8.144-5.142,5.134l-88.206-88.191
	C280.417,232.961,280.43,230.895,281.648,229.677C283.057,228.263,280.43,230.895,281.648,229.677z M276.337,251.047l18.158,18.156
	l-16.757,16.754c-3.062,3.061-3.062,8.023-0.001,11.082c3.059,3.062,8.022,3.061,11.081,0.001l16.76-16.756l18.158,18.155
	l-58.252,58.243l-18.155-18.159l13.278-13.274c3.061-3.06,3.062-8.023,0.001-11.082c-3.06-3.062-8.023-3.061-11.083-0.001
	l-13.278,13.274l-18.155-18.158L276.337,251.047z M119.282,408.076l18.154,18.158l-94.532,94.517c-1.496-3.1-3.515-5.973-6.024-8.48
	c-3.882-3.881-8.633-6.594-13.824-7.986L119.282,408.076z M-32.597,636.555l5.037-25.333l20.3,20.297L-32.597,636.555z
	 M80.792,599.794l-0.762,0.783c-0.001,0.001-0.002,0.002-0.003,0.003l-16.962,16.959l-51.833,10.303l-35.114-35.107l10.307-51.827
	l17.057-17.053l0.704-0.677c2.858-2.769,6.662-4.293,10.711-4.293c4.147,0,8.019,1.588,10.902,4.47
	c3.66,3.66,5.232,8.883,4.203,13.972c-0.52,2.574,0.283,5.237,2.138,7.092c1.857,1.859,4.519,2.663,7.093,2.143
	c1.02-0.206,2.059-0.31,3.092-0.31c4.112,0,7.979,1.602,10.889,4.512c3.66,3.659,5.232,8.884,4.203,13.973
	c-0.519,2.574,0.283,5.237,2.14,7.093c1.856,1.856,4.518,2.66,7.093,2.141c1.021-0.206,2.062-0.31,3.094-0.31
	c4.111,0,7.976,1.602,10.886,4.512C86.541,584.085,86.614,593.784,80.792,599.794z M99.682,580.931
	c-1.361-5.088-4.013-9.886-7.97-13.843c-2.508-2.508-5.371-4.532-8.472-6.029l23.768-23.765c3.062-3.059,3.062-8.023,0.001-11.081
	c-3.061-3.062-8.023-3.061-11.082-0.002l-24.512,24.508c-1.535-4.081-3.933-7.853-7.119-11.04c-3.185-3.184-6.94-5.586-11.032-7.122
	l95.254-95.237l18.155,18.158l-43.579,43.572c-3.062,3.061-3.062,8.023-0.001,11.082c3.061,3.062,8.022,3.06,11.081,0.001
	l43.58-43.572l18.156,18.16L99.682,580.931z M440.704,565.102L146.957,271.296c-3.059-3.062-8.022-3.061-11.082-0.001
	c-3.061,3.06-3.062,8.022-0.001,11.082l293.749,293.809l-60.051,60.063l-15.383-15.386l26.218-26.224
	c3.06-3.062,3.06-8.023-0.001-11.083c-3.06-3.06-8.023-3.06-11.082,0.001l-26.215,26.222l-14.626-14.63l10.34-10.342
	c3.059-3.062,3.059-8.023-0.002-11.082c-3.059-3.062-8.022-3.059-11.082,0.001l-10.338,10.339l-14.628-14.631l10.34-10.341
	c3.059-3.062,3.059-8.023-0.002-11.084c-3.06-3.062-8.022-3.059-11.082,0.002l-10.338,10.34l-14.626-14.631l10.327-10.329
	c3.06-3.059,3.06-8.023-0.001-11.081c-3.059-3.059-8.022-3.06-11.081,0.001l-10.325,10.326l-14.629-14.631l25.462-25.466
	c3.06-3.06,3.059-8.023-0.001-11.082c-3.06-3.058-8.023-3.059-11.083,0.001l-25.46,25.464l-14.626-14.63l10.328-10.329
	c3.06-3.06,3.059-8.023-0.001-11.083c-3.06-3.059-8.023-3.059-11.083,0.001l-10.326,10.327l-14.628-14.631l10.327-10.328
	c3.061-3.06,3.059-8.023-0.001-11.083c-3.061-3.059-8.023-3.059-11.083,0.001l-10.325,10.326l-14.628-14.631l10.327-10.328
	c3.061-3.06,3.059-8.023-0.001-11.082c-3.061-3.059-8.023-3.059-11.082,0.001l-10.325,10.326l-14.626-14.63l25.461-25.467
	c3.061-3.062,3.059-8.023-0.001-11.082c-3.061-3.059-8.023-3.059-11.083,0.001l-25.459,25.465l-14.628-14.631l10.327-10.329
	c3.061-3.061,3.059-8.023-0.001-11.082s-8.023-3.061-11.083,0.001l-10.325,10.326L97.1,363.722l10.327-10.329
	c3.059-3.062,3.059-8.023-0.002-11.083c-3.061-3.062-8.022-3.061-11.082,0.001l-10.324,10.327l-14.628-14.63l10.34-10.342
	c3.061-3.061,3.061-8.023-0.001-11.082c-3.061-3.059-8.023-3.059-11.082,0.001L60.31,326.926l-14.628-14.631L71.9,286.071
	c3.061-3.06,3.061-8.023-0.001-11.083c-3.061-3.059-8.023-3.059-11.083,0.001L34.602,301.21l-14.629-14.631l10.34-10.342
	c3.059-3.062,3.059-8.023-0.002-11.083c-3.061-3.062-8.022-3.061-11.082,0.001L8.892,275.496l-14.625-14.629l10.34-10.342
	c3.059-3.062,3.059-8.023-0.002-11.081c-3.061-3.062-8.022-3.062-11.083,0l-10.337,10.34l-15.383-15.388l60.051-60.061
	l81.906,81.921c1.531,1.531,3.536,2.296,5.542,2.296c2.005,0,4.011-0.765,5.541-2.295c3.062-3.061,3.062-8.023,0.001-11.081
	l-81.909-81.925l5.497-5.499l401.772,401.852L440.704,565.102z"/>
</svg>
