<?xml version="1.0" encoding="iso-8859-1"?>
<!-- Generator: Adobe Illustrator 21.0.0, SVG Export Plug-In . SVG Version: 6.00 Build 0)  -->
<svg version="1.1" id="&#x421;&#x43B;&#x43E;&#x439;_1"
	 xmlns="http://www.w3.org/2000/svg" xmlns:xlink="http://www.w3.org/1999/xlink" x="0px" y="0px" viewBox="0 0 50.375 49.625"
	 style="enable-background:new 0 0 50.375 49.625;" xml:space="preserve">
<g>
	<path style="fill:#344C62;" d="M9.648,6.426c-1.984,0-3.597,1.613-3.597,3.597c0,1.989,1.613,3.602,3.597,3.602
		c1.989,0,3.602-1.613,3.602-3.602C13.25,8.039,11.637,6.426,9.648,6.426L9.648,6.426z M9.648,12.023c-1.101,0-2-0.894-2-2
		c0-1.101,0.899-2,2-2c1.106,0,2,0.899,2,2C11.648,11.129,10.754,12.023,9.648,12.023L9.648,12.023z"/>
	<path style="fill:#344C62;" d="M42.051,8.824c0,0.442-0.36,0.801-0.801,0.801s-0.801-0.359-0.801-0.801
		c0-0.441,0.36-0.801,0.801-0.801S42.051,8.383,42.051,8.824L42.051,8.824z"/>
	<path style="fill:#344C62;" d="M38.852,8.824c0,0.442-0.36,0.801-0.801,0.801c-0.442,0-0.801-0.359-0.801-0.801
		c0-0.441,0.359-0.801,0.801-0.801C38.492,8.023,38.852,8.383,38.852,8.824L38.852,8.824z"/>
	<path style="fill:#344C62;" d="M43.648,11.227c0,0.441-0.355,0.796-0.796,0.796c-0.446,0-0.801-0.355-0.801-0.796
		c0-0.446,0.355-0.801,0.801-0.801C43.293,10.426,43.648,10.781,43.648,11.227L43.648,11.227z"/>
	<path style="fill:#344C62;" d="M40.449,11.227c0,0.441-0.355,0.796-0.801,0.796c-0.441,0-0.796-0.355-0.796-0.796
		c0-0.446,0.355-0.801,0.796-0.801C40.094,10.426,40.449,10.781,40.449,11.227L40.449,11.227z"/>
	<path style="fill:#344C62;" d="M35.648,8.824c0,0.442-0.355,0.801-0.796,0.801c-0.446,0-0.801-0.359-0.801-0.801
		c0-0.441,0.355-0.801,0.801-0.801C35.293,8.023,35.648,8.383,35.648,8.824L35.648,8.824z"/>
	<path style="fill:#344C62;" d="M37.25,11.227c0,0.441-0.359,0.796-0.801,0.796c-0.441,0-0.801-0.355-0.801-0.796
		c0-0.446,0.36-0.801,0.801-0.801C36.891,10.426,37.25,10.781,37.25,11.227L37.25,11.227z"/>
	<path style="fill:#344C62;" d="M32.449,8.824c0,0.442-0.355,0.801-0.801,0.801c-0.441,0-0.796-0.359-0.796-0.801
		c0-0.441,0.355-0.801,0.796-0.801C32.094,8.023,32.449,8.383,32.449,8.824L32.449,8.824z"/>
	<path style="fill:#344C62;" d="M34.051,11.227c0,0.441-0.36,0.796-0.801,0.796s-0.801-0.355-0.801-0.796
		c0-0.446,0.36-0.801,0.801-0.801S34.051,10.781,34.051,11.227L34.051,11.227z"/>
	<path style="fill:#344C62;" d="M29.25,8.824c0,0.442-0.359,0.801-0.801,0.801c-0.441,0-0.801-0.359-0.801-0.801
		c0-0.441,0.36-0.801,0.801-0.801C28.891,8.023,29.25,8.383,29.25,8.824L29.25,8.824z"/>
	<path style="fill:#344C62;" d="M30.852,11.227c0,0.441-0.36,0.796-0.801,0.796c-0.442,0-0.801-0.355-0.801-0.796
		c0-0.446,0.359-0.801,0.801-0.801C30.492,10.426,30.852,10.781,30.852,11.227L30.852,11.227z"/>
	<path style="fill:#344C62;" d="M49.25,14.738V5.312c0-2.035-1.652-3.687-3.688-3.687H4.938c-2.036,0-3.688,1.652-3.688,3.687v9.426
		c0,1.176,0.562,2.211,1.422,2.887c-0.86,0.676-1.422,1.711-1.422,2.887v9.425c0,1.176,0.562,2.211,1.422,2.887
		C1.812,33.5,1.25,34.535,1.25,35.711v9.426c0,2.035,1.652,3.687,3.688,3.687h40.624c2.032,0,3.688-1.652,3.688-3.687v-9.426
		c0-1.176-0.562-2.211-1.422-2.887c0.86-0.676,1.422-1.711,1.422-2.887v-9.425c0-1.176-0.562-2.211-1.422-2.887
		C48.688,16.949,49.25,15.914,49.25,14.738L49.25,14.738z M47.648,35.711v9.426c0,1.152-0.933,2.086-2.086,2.086H4.938
		c-1.153,0.004-2.086-0.934-2.086-2.086v-9.426c0-1.149,0.933-2.086,2.086-2.086h40.624C46.715,33.625,47.648,34.562,47.648,35.711
		L47.648,35.711z M47.648,20.512v9.425c0,1.153-0.933,2.086-2.086,2.086H4.938c-1.153,0-2.086-0.933-2.086-2.086v-9.425
		c0-1.153,0.933-2.086,2.086-2.086h40.624C46.715,18.426,47.648,19.359,47.648,20.512L47.648,20.512z M4.938,16.824
		c-1.153,0-2.086-0.933-2.086-2.086V5.312c0-1.152,0.933-2.085,2.086-2.085h40.624c1.153,0,2.086,0.933,2.086,2.085v9.426
		c0,1.149-0.933,2.086-2.086,2.086H4.938z"/>
	<path style="fill:#344C62;" d="M9.648,28.824c1.989,0,3.602-1.613,3.602-3.597c0-1.989-1.613-3.602-3.602-3.602
		c-1.984,0-3.597,1.613-3.597,3.602C6.051,27.211,7.664,28.824,9.648,28.824L9.648,28.824z M9.648,23.227c1.106,0,2,0.894,2,2
		c0,1.101-0.894,2-2,2c-1.101,0-2-0.899-2-2C7.648,24.121,8.547,23.227,9.648,23.227L9.648,23.227z"/>
	<path style="fill:#344C62;" d="M42.051,24.023c0,0.446-0.36,0.801-0.801,0.801s-0.801-0.355-0.801-0.801
		c0-0.441,0.36-0.796,0.801-0.796S42.051,23.582,42.051,24.023L42.051,24.023z"/>
	<path style="fill:#344C62;" d="M38.852,24.023c0,0.446-0.36,0.801-0.801,0.801c-0.442,0-0.801-0.355-0.801-0.801
		c0-0.441,0.359-0.796,0.801-0.796C38.492,23.227,38.852,23.582,38.852,24.023L38.852,24.023z"/>
	<path style="fill:#344C62;" d="M43.648,26.426c0,0.441-0.355,0.801-0.796,0.801c-0.446,0-0.801-0.36-0.801-0.801
		c0-0.442,0.355-0.801,0.801-0.801C43.293,25.625,43.648,25.984,43.648,26.426L43.648,26.426z"/>
	<path style="fill:#344C62;" d="M40.449,26.426c0,0.441-0.355,0.801-0.801,0.801c-0.441,0-0.796-0.36-0.796-0.801
		c0-0.442,0.355-0.801,0.796-0.801C40.094,25.625,40.449,25.984,40.449,26.426L40.449,26.426z"/>
	<path style="fill:#344C62;" d="M35.648,24.023c0,0.446-0.355,0.801-0.796,0.801c-0.446,0-0.801-0.355-0.801-0.801
		c0-0.441,0.355-0.796,0.801-0.796C35.293,23.227,35.648,23.582,35.648,24.023L35.648,24.023z"/>
	<path style="fill:#344C62;" d="M37.25,26.426c0,0.441-0.359,0.801-0.801,0.801c-0.441,0-0.801-0.36-0.801-0.801
		c0-0.442,0.36-0.801,0.801-0.801C36.891,25.625,37.25,25.984,37.25,26.426L37.25,26.426z"/>
	<path style="fill:#344C62;" d="M32.449,24.023c0,0.446-0.355,0.801-0.801,0.801c-0.441,0-0.796-0.355-0.796-0.801
		c0-0.441,0.355-0.796,0.796-0.796C32.094,23.227,32.449,23.582,32.449,24.023L32.449,24.023z"/>
	<path style="fill:#344C62;" d="M34.051,26.426c0,0.441-0.36,0.801-0.801,0.801s-0.801-0.36-0.801-0.801
		c0-0.442,0.36-0.801,0.801-0.801S34.051,25.984,34.051,26.426L34.051,26.426z"/>
	<path style="fill:#344C62;" d="M29.25,24.023c0,0.446-0.359,0.801-0.801,0.801c-0.441,0-0.801-0.355-0.801-0.801
		c0-0.441,0.36-0.796,0.801-0.796C28.891,23.227,29.25,23.582,29.25,24.023L29.25,24.023z"/>
	<path style="fill:#344C62;" d="M30.852,26.426c0,0.441-0.36,0.801-0.801,0.801c-0.442,0-0.801-0.36-0.801-0.801
		c0-0.442,0.359-0.801,0.801-0.801C30.492,25.625,30.852,25.984,30.852,26.426L30.852,26.426z"/>
	<path style="fill:#344C62;" d="M9.648,44.023c1.989,0,3.602-1.613,3.602-3.597c0-1.985-1.613-3.602-3.602-3.602
		c-1.984,0-3.597,1.617-3.597,3.602C6.051,42.41,7.664,44.023,9.648,44.023L9.648,44.023z M9.648,38.426c1.106,0,2,0.894,2,2
		c0,1.101-0.894,2-2,2c-1.101,0-2-0.899-2-2C7.648,39.32,8.547,38.426,9.648,38.426L9.648,38.426z"/>
	<path style="fill:#344C62;" d="M42.051,39.227c0,0.441-0.36,0.796-0.801,0.796s-0.801-0.355-0.801-0.796
		c0-0.446,0.36-0.801,0.801-0.801S42.051,38.781,42.051,39.227L42.051,39.227z"/>
	<path style="fill:#344C62;" d="M38.852,39.227c0,0.441-0.36,0.796-0.801,0.796c-0.442,0-0.801-0.355-0.801-0.796
		c0-0.446,0.359-0.801,0.801-0.801C38.492,38.426,38.852,38.781,38.852,39.227L38.852,39.227z"/>
	<path style="fill:#344C62;" d="M43.648,41.625c0,0.441-0.355,0.801-0.796,0.801c-0.446,0-0.801-0.36-0.801-0.801
		s0.355-0.801,0.801-0.801C43.293,40.824,43.648,41.184,43.648,41.625L43.648,41.625z"/>
	<path style="fill:#344C62;" d="M40.449,41.625c0,0.441-0.355,0.801-0.801,0.801c-0.441,0-0.796-0.36-0.796-0.801
		s0.355-0.801,0.796-0.801C40.094,40.824,40.449,41.184,40.449,41.625L40.449,41.625z"/>
	<path style="fill:#344C62;" d="M35.648,39.227c0,0.441-0.355,0.796-0.796,0.796c-0.446,0-0.801-0.355-0.801-0.796
		c0-0.446,0.355-0.801,0.801-0.801C35.293,38.426,35.648,38.781,35.648,39.227L35.648,39.227z"/>
	<path style="fill:#344C62;" d="M37.25,41.625c0,0.441-0.359,0.801-0.801,0.801c-0.441,0-0.801-0.36-0.801-0.801
		s0.36-0.801,0.801-0.801C36.891,40.824,37.25,41.184,37.25,41.625L37.25,41.625z"/>
	<path style="fill:#344C62;" d="M32.449,39.227c0,0.441-0.355,0.796-0.801,0.796c-0.441,0-0.796-0.355-0.796-0.796
		c0-0.446,0.355-0.801,0.796-0.801C32.094,38.426,32.449,38.781,32.449,39.227L32.449,39.227z"/>
	<path style="fill:#344C62;" d="M34.051,41.625c0,0.441-0.36,0.801-0.801,0.801s-0.801-0.36-0.801-0.801s0.36-0.801,0.801-0.801
		S34.051,41.184,34.051,41.625L34.051,41.625z"/>
	<path style="fill:#344C62;" d="M29.25,39.227c0,0.441-0.359,0.796-0.801,0.796c-0.441,0-0.801-0.355-0.801-0.796
		c0-0.446,0.36-0.801,0.801-0.801C28.891,38.426,29.25,38.781,29.25,39.227L29.25,39.227z"/>
	<path style="fill:#344C62;" d="M30.852,41.625c0,0.441-0.36,0.801-0.801,0.801c-0.442,0-0.801-0.36-0.801-0.801
		s0.359-0.801,0.801-0.801C30.492,40.824,30.852,41.184,30.852,41.625L30.852,41.625z"/>
</g>
</svg>
