<?xml version="1.0" encoding="utf-8"?>
<!-- Generator: Adobe Illustrator 21.0.0, SVG Export Plug-In . SVG Version: 6.00 Build 0)  -->
<svg version="1.1" id="Слой_1" xmlns="http://www.w3.org/2000/svg" xmlns:xlink="http://www.w3.org/1999/xlink" x="0px" y="0px"
	 viewBox="0 0 265.9 268.9" style="enable-background:new 0 0 265.9 268.9;" xml:space="preserve">
<style type="text/css">
	.st0{fill:#344C62;}
</style>
<g id="Слой_1-2">
	<path class="st0" d="M265.2,124.8h-12.8V65.7c0-14.2-11.5-25.7-25.7-25.7h-17.4L191.4,8c-4.1-7.5-13.5-10.1-21-6c0,0,0,0,0,0
		l-68.3,38H25.7C11.5,40,0,51.5,0,65.7v176.5c0,14.2,11.5,25.7,25.7,25.7h200.9c14.2,0,25.7-11.5,25.7-25.7v-51.8h12.9V124.8z
		 M226.6,50.3c7.8,0,14.4,5.9,15.3,13.8h-19.3L215,50.3H226.6z M175.4,10.9c2.5-1.3,5.6-0.4,7,2l28.4,51H80.1L175.4,10.9z
		 M242.1,242.2c0,8.5-6.9,15.4-15.4,15.4H25.7c-8.5,0-15.4-6.9-15.4-15.4V65.7c0-8.5,6.9-15.4,15.4-15.4h57.9L58.9,64h-30
		c-2.8,0-5.1,2.3-5.1,5.1c0,2.8,2.3,5.1,5.1,5.1c0,0,0,0,0,0h213.1v50.5h-37.6c-17.5,0-31.6,14.2-31.7,31.7v2.2
		c0,17.5,14.2,31.6,31.7,31.7h37.6V242.2z M254.9,180.1h-50.5c-11.8,0-21.4-9.6-21.4-21.4v-2.2c0-11.8,9.6-21.4,21.4-21.4h50.4
		L254.9,180.1z M220.2,158c0,6.3-5.1,11.3-11.4,11.3s-11.3-5.1-11.3-11.4c0-6.3,5.1-11.3,11.3-11.3S220.2,151.7,220.2,158
		C220.2,158,220.2,158,220.2,158z"/>
	<path class="st0" d="M114.2,169.6c18.6,0,33.8-13.8,33.8-30.8s-15.2-30.8-33.8-30.8H86.3c-4.7,0-5.3-0.2-5.7,0.3s-0.1,0.6-0.2,2.9
		c0,1,0,1.8-0.1,2.3v66.9h-6c-0.7,0-1.3,0.2-1.9,0.6c-0.9,0.8-0.6,1.9-0.6,4.9c0,3.4-0.5,4.7,0.5,5.3c0.6,0.3,1.3,0.3,2,0.1h6v30.8
		c-0.2,0.7-0.1,1.4,0.4,2c0.8,0.9,2.3,0.2,5.6,0.2s4.8,0.7,5.6-0.2c0.4-0.6,0.6-1.3,0.4-2v-30.7h21.9c0.5,0.1,1,0.1,1.5-0.1
		c0.6-0.3,1-1.1,1-5.3c0-3.7-0.3-4.6-1.1-5.1c-0.4-0.2-0.9-0.4-1.4-0.3H92.3v-10.9H114.2z M114.2,119h0.2c12,0.1,21.7,9,21.7,19.9
		s-9.8,19.9-21.9,19.9H92.3V119L114.2,119z"/>
</g>
</svg>
