<?xml version="1.0" encoding="utf-8"?>
<!-- Generator: Adobe Illustrator 19.2.1, SVG Export Plug-In . SVG Version: 6.00 Build 0)  -->
<svg version="1.1" id="Слой_1" xmlns="http://www.w3.org/2000/svg" xmlns:xlink="http://www.w3.org/1999/xlink" x="0px" y="0px"
	 viewBox="0 0 313 328" style="enable-background:new 0 0 313 328;" xml:space="preserve">
<style type="text/css">
	.st0{clip-path:url(#SVGID_2_);}
</style>
<g>
	<g>
		<g>
			<defs>
				<rect id="SVGID_1_" x="28" y="32" width="265.9" height="268.8"/>
			</defs>
			<clipPath id="SVGID_2_">
				<use xlink:href="#SVGID_1_"  style="overflow:visible;"/>
			</clipPath>
			<path class="st0" d="M293.2,156.7h-12.9V97.6c0-14.2-11.5-25.7-25.7-25.7h-17.4l-17.8-32c-2.7-4.9-7.9-7.9-13.5-7.9
				c-2.6,0-5.2,0.7-7.5,1.9l-68.4,38H53.7C39.5,71.9,28,83.4,28,97.6v176.5c0,14.2,11.5,25.7,25.7,25.7h200.9
				c14.2,0,25.7-11.5,25.7-25.7v-51.8h12.9L293.2,156.7L293.2,156.7z M254.7,82.2c7.9,0,14.4,6,15.3,13.7h-19.3L243,82.2H254.7z
				 M203.5,42.9c2.4-1.4,5.7-0.4,7,2l28.4,51H108.1L203.5,42.9z M270.1,274.1c0,8.5-6.9,15.4-15.4,15.4h-201
				c-8.5,0-15.4-6.9-15.4-15.4V97.6c0-8.5,6.9-15.4,15.4-15.4h57.9L86.9,95.9h-30c-2.8,0-5.1,2.3-5.1,5.1c0,2.8,2.3,5.1,5.1,5.1
				h213.2v50.6h-37.6c-17.5,0-31.7,14.2-31.7,31.7v2.2c0,17.5,14.2,31.7,31.7,31.7h37.6V274.1z M282.9,212h-50.5
				c-11.8,0-21.4-9.6-21.4-21.4v-2.2c0-11.8,9.6-21.4,21.4-21.4h50.5V212z M248.2,189.9c0,6.3-5.1,11.4-11.4,11.4
				c-6.3,0-11.4-5.1-11.4-11.4c0-6.3,5.1-11.4,11.4-11.4C243.1,178.6,248.2,183.7,248.2,189.9L248.2,189.9z"/>
		</g>
	</g>
</g>
<g>
	<path d="M150,195c18.7,0,34-15.3,34-34c0-18.7-15.3-34-34-34c-0.1,0-0.1,0-0.2,0H122c0,0,0,0,0,0c-3.3,0-6,2.7-6,6v74h-6
		c-3.3,0-6,2.7-6,6c0,3.3,2.7,6,6,6h6v34c0,3.3,2.7,6,6,6c3.3,0,6-2.7,6-6v-34h22c3.3,0,6-2.7,6-6c0-3.3-2.7-6-6-6h-22v-12H150z
		 M150,139c0.1,0,0.1,0,0.2,0c12,0.1,21.8,9.9,21.8,22c0,12.1-9.9,22-22,22h-22v-44H150z M150,139"/>
</g>
</svg>
