<svg xmlns="http://www.w3.org/2000/svg" viewBox="0 0 679.05 307.98"><defs><style>.cls-1{fill:#344c62;}.cls-2{fill:#ff141f;}.cls-3{fill:#fff;}</style></defs><title>webCenter-logo</title><g id="Слой_2" data-name="Слой 2"><g id="Слой_1-2" data-name="Слой 1"><path class="cls-1" d="M202.16,92c-.86,2.37-1.35,3.51-1.69,4.7q-9.37,33.14-18.7,66.29c-2.4,8.52-6.74,11.9-15.4,11.93-3.66,0-7.33,0-11,0-9.45,0-13.57-3.12-16.18-12.23q-13.66-47.75-27.29-95.5c-1.64-5.76-3.5-11.47-4.8-17.3-1.49-6.65.24-8.6,6.9-8.63,5.5,0,11,0,16.49,0,8.44.07,13.23,3.73,15.45,12,5.26,19.61,10.42,39.24,15.63,58.86a8,8,0,0,0,2.25,4q4-15.4,8.08-30.79c2.77-10.62,5.49-21.26,8.26-31.89,2.55-9.8,5.75-12.26,15.79-12.26,4.5,0,9,0,13.49,0,8.31,0,11.9,2.81,14.09,11.17Q230.7,79.67,237.75,107c.78,3,1.62,6,2.77,10.17.87-2.14,1.38-3.08,1.64-4.08q7.89-29.66,15.72-59.33c2.35-8.9,6.9-12.45,16.11-12.49,5.5,0,11,0,16.49,0,6.28,0,8.2,2.35,6.5,8.46C292,67.47,286.94,85.22,281.87,103q-8.55,30-17.14,60c-2.51,8.79-6.66,11.91-15.88,11.94-3.83,0-7.66,0-11.49,0-8.2,0-12.67-3.36-14.9-11.26Q213.2,130.73,204,97.8C203.59,96.25,203,94.74,202.16,92Z"/><path class="cls-1" d="M485.94,44.55c4.18-1.2,7.46-2.23,10.8-3.08,15.56-4,31.07-4.72,45.89,2.56,16.71,8.21,25.18,22.71,28.85,40.34a116.21,116.21,0,0,1,.24,46.17c-4.86,25.1-19.84,40.54-45.09,45.26-24.9,4.66-49,1.19-72.24-9-3.51-1.53-4.84-3.6-4.83-7.57.15-49.65.08-99.31.1-149C449.66,1.06,450.77,0,460,0c6,0,12,0,18,0,6.33,0,7.87,1.54,7.91,8,.06,10.16,0,20.33,0,30.49C485.94,40.32,485.94,42.09,485.94,44.55Zm0,64.22c0,10.65.16,21.31-.08,32-.09,4,1.38,5.88,5.23,6.17,6.79.5,13.58,1.52,20.35,1.41,9.76-.16,17.71-4.39,21-14a80.17,80.17,0,0,0-.24-52.81c-2.46-7.13-8-11.2-15.36-12.86-9-2-17.43.2-26,2.61-3.71,1-5,2.76-5,6.61C486.1,88.13,485.94,98.45,485.94,108.77Z"/><path class="cls-1" d="M344,122.67c-1,16.13,8.53,26.83,23.69,27.51,10.25.46,19.36-1.21,26.32-10,1.92-2.43,6.29-3.52,9.72-4,4.56-.67,9.3-.18,14-.16,6.42,0,9,2.84,8.57,9.26-.81,12.56-7.08,21.65-18.64,26a90.73,90.73,0,0,1-24.64,5.69c-10.2.79-20.76.89-30.79-.87C330.09,172.18,316,158.42,310,137a101.7,101.7,0,0,1,.41-58.13C317.1,56.8,332,43.37,355,39.65c11.62-1.88,23.32-1.74,34.64,1.79,23.49,7.32,35.19,24.64,38.85,47.93,1.33,8.49,1.13,17.24,1.3,25.88.11,5.57-2,7.39-7.6,7.4q-36,0-72,0Zm49-27.61c-.48-10.3-2.06-19.89-11.35-25.48-8.94-5.38-18.67-5.26-27.43.4S343.7,85,343.43,95.06Z"/><path class="cls-2" d="M36.3,108.42l32.59,34.24c7.92,8.32,15.93,16.55,23.68,25,1.39,1.52,1.73,4,2.55,6-1.91.6-3.8,1.67-5.72,1.72-8.49.19-17,.34-25.46-.07a12.66,12.66,0,0,1-7.84-3.28q-26-26.91-51.6-54.28c-6.11-6.5-5.95-12.45.14-18.89C21.45,81.13,38.33,63.42,55.1,45.61c2.93-3.11,6-4.7,10.48-4.52,8,.33,16,0,24,.19,1.89.05,3.75,1.26,5.62,1.93-.75,1.9-1,4.24-2.32,5.63-14.12,15-28.42,29.93-42.65,44.88C45.63,98.5,41.1,103.33,36.3,108.42Z"/><path class="cls-2" d="M642.75,108.64l-38.3-40.26c-6.08-6.39-12.27-12.7-18.18-19.24-1.29-1.43-1.61-3.73-2.37-5.62,1.87-.65,3.73-1.81,5.62-1.85,8.32-.2,16.67-.4,25,.08a14.16,14.16,0,0,1,8.68,3.58c17.05,17.56,33.84,35.37,50.6,53.2,7.06,7.52,7,12.88-.06,20.37-16.57,17.56-33.26,35-49.79,52.6a12.16,12.16,0,0,1-10,4.32c-8.32-.29-16.65,0-25-.15-1.64,0-3.27-.93-4.91-1.43.61-1.95.68-4.39,1.93-5.76,7.74-8.48,15.75-16.72,23.67-25Z"/><path class="cls-2" d="M442.68,275.9c.61,7.14,2,12.83,8.39,15.61a16.75,16.75,0,0,0,18.75-3.83c2.51-2.54,14.3-4.34,16.91-2.3a5.52,5.52,0,0,1,1.64,3.85,14.73,14.73,0,0,1-5.74,12.18c-12.5,10-41.3,8-51.74-4-8.75-10.05-9.55-22.43-8.37-34.89a56.44,56.44,0,0,1,4.3-16.25A25.24,25.24,0,0,1,445,231.16c23.66-5.54,43.87,4,45.44,32.09.85,15.22.6,12.49-11.69,12.63C466.93,276,455.14,275.9,442.68,275.9Zm.33-15.08h26.57c.85-9.69-4.13-16-12.63-16.17C447.91,244.41,442.49,250.57,443,260.82Z"/><path class="cls-2" d="M230.23,275.9c.6,7.29,1.94,13.28,8.56,15.59,6.77,2.36,13.43,2.15,18.74-3.92,2.23-2.55,13.63-4.16,16.51-2.34a4.91,4.91,0,0,1,1.68,3.26,14.17,14.17,0,0,1-8.76,14.9c-12.71,5.4-25.83,6.32-38.84,1.12-7.66-3.06-12.79-9-15.38-16.8A58,58,0,0,1,213,249c3.38-9.39,10.19-15.76,20-18,24.44-5.49,43.82,5.28,45,32.74.62,15.11.13,11.89-11.26,12.08-10.16.17-20.32,0-30.48,0Zm.28-15.19h27c-.32-10.9-5-16.21-13.92-16.06C235.14,244.78,230.37,250.54,230.5,260.7Z"/><path class="cls-2" d="M308.89,239.5c7.5-6.52,14.41-10.29,23.24-9.79,10.06.58,18.52,6,21.56,15.69a60.69,60.69,0,0,1,2.68,16.16c.38,12.65,0,25.33.17,38,0,4.34-1.23,6.71-6,6.18a65.23,65.23,0,0,0-7,0c-6.76,0-7.2-.43-7.22-7.44,0-12.16.06-24.33,0-36.49,0-6.09-.29-12.46-7-15.32s-12.11.71-16.46,5.28a14.21,14.21,0,0,0-3.76,8.54c-.4,13.15-.31,26.32-.1,39.48.07,4.58-1.54,6.15-6.12,6-15.95-.41-13.77,2.18-13.85-13.71-.09-18,0-36,0-54,0-6,.47-6.46,6.59-6.51,1.83,0,3.68.12,5.5,0C305.9,231.14,310,231.55,308.89,239.5Z"/><path class="cls-2" d="M170.61,229.79c7.95-.18,15.61.94,22.59,5.05a18.11,18.11,0,0,1,9.47,17c0,1.47-2.12,4-3.45,4.13-6.22.59-12.29,1.26-16.56-5.74-3.29-5.4-9.68-5.24-15.45-4.27-5.29.89-8.52,4.32-9.9,9.41a50.21,50.21,0,0,0-.09,26.16c1.49,5.73,5.33,9.24,11.15,10,6.17.85,12,.11,16-5.57,3.12-4.37,12.13-7,16.87-4.63,1.19.59,2.19,2.92,2.14,4.41-.28,8-3.89,14.22-11.22,17.5-12.86,5.74-26.18,6.54-39.22.9-12.06-5.22-16.71-16-17.52-28.16a81,81,0,0,1,1.67-23.21C140.69,237.3,152.36,229.79,170.61,229.79Z"/><path class="cls-2" d="M391.76,235.94c5.59,0,10.39.1,15.19,0,3.4-.1,4.7,1.35,4.84,4.72.47,11,.56,11-10.48,11-9.54,0-9.54,0-9.53,9.41,0,6-.19,12,.1,18,.5,10.31,5.14,14,15.4,13.08,2.63-.23,7.24,0,7.69,1.23,1.19,3.21.82,7.09.52,10.66-.08.91-2.16,2.31-3.38,2.37-7.27.38-14.7,1.42-21.8.38-11.31-1.65-17.84-10.18-18.17-24-.54-23.13-.18-46.28-.22-69.42,0-3.14,1.48-4.52,4.61-4.44,3.49.09,7,.13,10.49,0s4.8,1.5,4.77,4.8C391.72,220.84,391.76,228,391.76,235.94Z"/><path class="cls-2" d="M522.38,239a53,53,0,0,1,5.08-3.25c3.88-1.83,7.68-4.1,11.78-5.12,11.76-2.91,15.31.59,12.91,12.54-.31,1.53-2.48,3.32-4.13,3.8-2.13.62-4.62.18-6.93-.06a16.68,16.68,0,0,0-15.7,6.87,13.77,13.77,0,0,0-2.84,7.53c-.28,12.8-.24,25.62-.07,38.42.06,4.49-1.5,6.21-6.12,6.07-16.15-.48-13.82,2.52-13.92-14-.11-18,.08-35.93-.09-53.9,0-4.72,1.57-6.82,6.38-6.33a34,34,0,0,0,6.48,0C519.89,231.1,523.25,232.08,522.38,239Z"/><path class="cls-3" d="M485.94,108.77c0-10.32.16-20.64-.08-31-.09-3.86,1.25-5.57,5-6.61,8.54-2.41,17-4.62,26-2.61,7.36,1.65,12.9,5.73,15.36,12.86a80.17,80.17,0,0,1,.24,52.81c-3.24,9.66-11.19,13.88-21,14-6.78.11-13.57-.9-20.35-1.41-3.85-.28-5.32-2.16-5.23-6.17C486.1,130.08,485.94,119.42,485.94,108.77Z"/><path class="cls-3" d="M393,95.06H343.43c.27-10,1.94-19.37,10.77-25.08s18.48-5.77,27.43-.4C390.92,75.17,392.5,84.75,393,95.06Z"/><path class="cls-3" d="M443,260.82c-.52-10.25,4.9-16.4,13.94-16.17,8.5.22,13.48,6.48,12.63,16.17Z"/><path class="cls-3" d="M230.5,260.7c-.13-10.16,4.64-15.92,13.09-16.06,8.88-.15,13.6,5.16,13.92,16.06Z"/></g></g></svg>