<svg xmlns="http://www.w3.org/2000/svg" viewBox="0 0 512 512">
    <defs>
        <style>.cls-1{fill:#fff;}.cls-2{fill:#4e6476;}</style>
    </defs>
    <title>advertising</title>
    <g id="Слой_2" data-name="Слой 2">
        <path class="cls-1"
              d="M11.38,489.5l27.71,13.9H480.91l18-13.9,6-22.84h-24V192l-26.29-24.25H272V118.1l16-16.45h32l59.8,20.58L392.71,136l15.89-1,4.17-12.75,6.75-101.44-6.75-17.1-24,8.15-7.94,9.91-85.4,23.53s-12.9-10.6-15.39-10.6-21.85-2-21.85-2-20.36,2-23.34,3S224,45.29,224,45.29L129.55,27.73,120,12.84l-8-5L94.79,20.79l-3,21.56,1,38,3,25.82,2,21.85L112,138l8-2,7.56-13.74,96.44-29v20.51l16,1.34v51.64l-174.62,1-26.29,13.9L31.24,457.72l-25.82,7Z"/>
    </g>
    <g id="Capa_1" data-name="Capa 1">
        <path class="cls-2"
              d="M504,456H488V200a40,40,0,0,0-40-40H280V118.53a24,24,0,0,0,13.9-12.81L377,126.5a23.94,23.94,0,0,0,47-6.5V24a23.94,23.94,0,0,0-47-6.5L293.9,38.28A24,24,0,0,0,272,24H240a24,24,0,0,0-21.9,14.28L135,17.5A23.94,23.94,0,0,0,88,24v96a23.94,23.94,0,0,0,47,6.5l83.1-20.78A24,24,0,0,0,232,118.53V160H64a40,40,0,0,0-40,40V456H8a8,8,0,0,0-8,8v8a40,40,0,0,0,40,40H472a40,40,0,0,0,40-40v-8A8,8,0,0,0,504,456ZM392,24a8,8,0,0,1,16,0v96a8,8,0,0,1-16,0ZM296,54.25l80-20v75.5l-80-20ZM120,120a8,8,0,0,1-16,0V24a8,8,0,0,1,16,0Zm96-30.25-80,20V34.25l80,20ZM232,48a8,8,0,0,1,8-8h32a8,8,0,0,1,8,8V96a8,8,0,0,1-8,8H240a8,8,0,0,1-8-8Zm32,72v40H248V120ZM40,200a24,24,0,0,1,24-24H448a24,24,0,0,1,24,24V456H40ZM472,496H40a24,24,0,0,1-24-24H496A24,24,0,0,1,472,496Z"/>
        <path class="cls-2"
              d="M448,192H64a8,8,0,0,0-8,8V432a8,8,0,0,0,8,8H448a8,8,0,0,0,8-8V200A8,8,0,0,0,448,192Zm-8,232H72V208H440Z"/>
        <path class="cls-2"
              d="M457.54,42.35,445.3,52.65a24,24,0,0,1-2.94,33.82l10.3,12.25A40.06,40.06,0,0,0,457.54,42.35Z"/>
        <path class="cls-2"
              d="M482,21.76,469.8,32.06a56.08,56.08,0,0,1-6.86,78.9l10.29,12.25A72.09,72.09,0,0,0,482,21.76Z"/>
        <path class="cls-2"
              d="M77.66,57.54,67.35,45.29a40.06,40.06,0,0,0-4.9,56.36L74.7,91.35A24,24,0,0,1,77.66,57.54Z"/>
        <path class="cls-2"
              d="M57.06,33,46.78,20.79A72.08,72.08,0,0,0,38,122.23l12.25-10.3A56.07,56.07,0,0,1,57.06,33Z"/>
        <path class="cls-2"
              d="M198.81,227.79A8,8,0,0,0,192,224H160a8,8,0,0,0-8,8,8,8,0,0,1-16,0,8,8,0,0,0-8-8H96a8,8,0,0,0-7.16,11.58L104,265.89V328a8,8,0,0,0,8,8h64a8,8,0,0,0,8-8V265.89l15.16-30.31A8,8,0,0,0,198.81,227.79Zm-30,32.63A7.92,7.92,0,0,0,168,264v56H120V264a8,8,0,0,0-.84-3.58L108.94,240h12.42a24,24,0,0,0,45.26,0h12.42Z"/>
        <path class="cls-2"
              d="M328,224H296a8,8,0,0,0-8,8,8,8,0,0,1-16,0,8,8,0,0,0-8-8H232a8,8,0,0,0-8,8v32a8,8,0,0,0,8,8h8v56a8,8,0,0,0,8,8h64a8,8,0,0,0,8-8V272h8a8,8,0,0,0,8-8V232A8,8,0,0,0,328,224Zm-8,32h-8a8,8,0,0,0-8,8v56H256V264a8,8,0,0,0-8-8h-8V240h17.37a24,24,0,0,0,45.26,0H320Z"/>
        <rect class="cls-2" x="104" y="352" width="16" height="16"/>
        <rect class="cls-2" x="136" y="352" width="16" height="16"/>
        <rect class="cls-2" x="168" y="352" width="16" height="16"/>
        <rect class="cls-2" x="240" y="352" width="16" height="16"/>
        <rect class="cls-2" x="272" y="352" width="16" height="16"/>
        <rect class="cls-2" x="304" y="352" width="16" height="16"/>
        <rect class="cls-2" x="104" y="384" width="80" height="16"/>
        <rect class="cls-2" x="240" y="384" width="80" height="16"/>
        <path class="cls-2"
              d="M386.67,339.36l12.7-6.34a8,8,0,0,0-1-14.74l-50.91-17a8,8,0,0,0-10.12,10.11l17,50.91a8,8,0,0,0,7,5.45l.57,0a8,8,0,0,0,7.15-4.42l6.34-12.7,26.1,26.09,11.31-11.31ZM369.59,330a8,8,0,0,0-3.58,3.58l-2.67,5.35-5.81-17.41,17.41,5.81Z"/>
    </g>
</svg>