<?xml version="1.0" encoding="utf-8"?>
<!-- Generator: Adobe Illustrator 21.0.0, SVG Export Plug-In . SVG Version: 6.00 Build 0)  -->
<svg version="1.1" id="Слой_1" xmlns="http://www.w3.org/2000/svg" xmlns:xlink="http://www.w3.org/1999/xlink" x="0px" y="0px"
	 viewBox="0 0 472 626" style="enable-background:new 0 0 472 626;" xml:space="preserve">
<style type="text/css">
	.st0{fill:#FFFFFF;}
	.st1{fill:#3D4A5A;}
</style>
<g id="Слой_2">
	<path class="st0" d="M418.1,536.2c0,15.7-12.3,28.3-27.5,28.3H52c-15.2,0-27.5-12.7-27.5-28.3v-481c0-15.7,12.3-28.3,27.5-28.3
		h338.7c15.2,0,27.5,12.7,27.5,28.3V536.2z"/>
	<path class="st0" d="M350.9,559.6c0,13.2-10.7,23.9-23.9,23.9l0,0c-13.2,0-23.9-10.7-23.9-23.9v-27.1c0-13.2,10.7-23.9,23.9-23.9
		l0,0c13.2,0,23.9,10.7,23.9,23.9V559.6z"/>
	<path class="st0" d="M383.1,555c0,10.8,8.7,19.5,19.5,19.5h1c10.8,0,19.5-8.7,19.5-19.5l0,0c0-10.8-8.7-19.5-19.5-19.5h-1
		C391.9,535.5,383.1,544.3,383.1,555L383.1,555z"/>
</g>
<g id="Capa_1">
	<g>
		<path class="st1" d="M341.4,258.2c0,7.3-5.8,13.1-13.1,13.1H106.6c-7.3,0-13.1-5.8-13.1-13.1c0-7.3,5.8-13.1,13.1-13.1h221
			C334.9,244.4,341.4,250.2,341.4,258.2z M89.2,176.8v-58.9c0-11.6,9.4-21.8,21.8-21.8h210.1c11.6,0,21.8,9.4,21.8,21.8v58.9
			c0,11.6-9.4,21.8-21.8,21.8H111C98.6,198.6,89.2,189.1,89.2,176.8z M116.1,171.7H316V123H116.1V171.7L116.1,171.7z M430.9,475.5
			L430.1,586c0,22.5-15.3,24-18.2,24c-4.4,0-9.4-1.5-13.8-5.1l-36.3-30.6l-34.9,29.1c-3.6,2.9-9.4,7.3-16,7.3c-8,0-16-5.8-17.4-17.4
			c0-0.7,0-0.7,0-1.5V570H50.6C31,570,15,554,15,534.4V51c0-19.7,16-35.6,35.6-35.6h338c19.7,0,35.6,16,35.6,35.6v272.6
			c10.9,8,19.7,18.9,26.2,31.2C472.3,395.6,462.8,445.8,430.9,475.5z M426.5,368c-5.8-10.9-14.5-20.3-24.7-26.9
			c-2.2-1.5-4.4-2.2-5.8-3.6c-0.7,0-1.5-0.7-2.2-0.7c-2.9-1.5-5.1-2.2-8-3.6c0,0,0,0-0.7,0c-15.3-5.1-32.7-5.1-48,0.7h-0.7
			c-2.9,1.5-5.8,2.2-8.8,4.4c-24.7,13.1-38.5,38.5-38.5,64.7l0,0l0,0c0,11.6,2.9,23.3,8.8,34.9c1.5,2.9,2.9,5.1,5.1,8
			c0.7,0.7,0.7,1.5,1.5,2.2c1.5,2.2,2.9,3.6,4.4,5.1c0.7,0.7,0.7,0.7,1.5,1.5c2.2,2.2,4.4,4.4,6.5,5.8l0.7,0.7
			c2.2,1.5,3.6,2.9,5.8,4.4l0.7,0.7c0.7,0,0.7,0.7,1.5,0.7s1.5,0.7,2.2,0.7c0.7,0.7,2.2,0.7,2.9,1.5c16.7,8,35.6,9.4,53.8,4.4
			c0.7,0,2.2-0.7,2.9-0.7s0.7,0,1.5-0.7c0.7,0,1.5-0.7,2.2-0.7c2.2-0.7,4.4-2.2,6.5-2.9c2.2-1.5,4.4-2.2,5.8-3.6
			c2.2-1.5,3.6-2.9,5.8-4.4C435.2,437.8,443.9,399.2,426.5,368z M293.5,541.7v-51.6H106.6c-7.3,0-13.1-5.8-13.1-13.1
			s5.8-13.1,13.1-13.1h175.2l0,0c-0.7-1.5-1.5-2.2-2.9-3.6c-0.7-0.7-1.5-1.5-1.5-2.2c-1.5-1.5-2.2-3.6-3.6-5.8l-0.7-0.7
			c-1.5-2.9-2.9-5.8-4.4-9.4l0,0c-2.9-8-5.1-16-6.5-24H106.6c-7.3,0-13.1-5.8-13.1-13.1s5.8-13.1,13.1-13.1h155.6
			c0.7-5.1,1.5-10.2,2.9-15.3c3.6-10.9,8.8-21.1,15.3-29.8H106.6c-7.3,0-13.1-5.8-13.1-13.1c0-7.3,5.8-13.1,13.1-13.1h202.8
			c1.5-0.7,2.9-1.5,4.4-2.9c2.9-1.5,5.8-2.9,9.4-4.4h0.7c11.6-5.1,24.7-7.3,37.8-7.3c12.4,0,24,2.2,34.9,6.5l0,0V51
			c0-5.1-3.6-8.8-8.8-8.8H50.6c-5.1,0-8.8,3.6-8.8,8.8v481.3c0,5.1,3.6,8.8,8.8,8.8h242.8L293.5,541.7L293.5,541.7L293.5,541.7z
			 M403.9,494.4c-0.7,0-0.7,0-1.5,0.7c0,0-0.7,0-0.7,0.7H401c-1.5,0.7-2.9,0.7-4.4,1.5c-0.7,0-0.7,0-1.5,0.7c-0.7,0-1.5,0.7-2.2,0.7
			c0,0,0,0-0.7,0c0,0,0,0-0.7,0s-0.7,0-1.5,0.7h-0.7c-0.7,0-1.5,0-2.2,0.7c-0.7,0-2.2,0.7-3.6,0.7c-0.7,0-2.2,0.7-2.9,0.7l0,0l0,0
			c-1.5,0-2.9,0.7-5.1,0.7c-0.7,0-2.2,0-2.9,0.7h-0.7c-0.7,0-0.7,0-1.5,0l0,0c-0.7,0-0.7,0-1.5,0c-2.2,0-4.4,0-5.8,0l0,0l0,0
			c-0.7,0-0.7,0-1.5,0s-0.7,0-1.5,0l0,0l0,0c-2.2,0-5.1,0-7.3-0.7l0,0l0,0l0,0h-0.7h-0.7c-9.4-0.7-18.9-3.6-26.9-7.3l0,0l0,0
			c-0.7-0.7-2.2-0.7-2.9-1.5l0,0l-0.7,79.2l32.7-27.6c2.2-2.2,5.8-2.9,8.8-2.9c3,0,6.5,0.7,8.8,2.9l32.7,27.6L403.9,494.4z"/>
	</g>
</g>
</svg>
