<?xml version="1.0" encoding="utf-8"?>
<!-- Generator: Adobe Illustrator 16.0.0, SVG Export Plug-In . SVG Version: 6.00 Build 0)  -->
<!DOCTYPE svg PUBLIC "-//W3C//DTD SVG 1.1//EN" "http://www.w3.org/Graphics/SVG/1.1/DTD/svg11.dtd">
<svg version="1.1" id="Слой_1" xmlns="http://www.w3.org/2000/svg" xmlns:xlink="http://www.w3.org/1999/xlink" x="0px" y="0px"
	 width="164.523px" height="226.396px" viewBox="0 0 164.523 226.396" enable-background="new 0 0 164.523 226.396"
	 xml:space="preserve">
<g id="Слой_2" display="none">
	<path display="inline" fill="#FFFFFF" d="M1278.533,360.483c0,60.922,2.767,106.687-58.699,106.687
		c-61.465,0-163.882-45.765-163.882-106.687c0-60.92,46.308-108.729,107.771-108.729
		C1225.189,251.756,1278.533,299.563,1278.533,360.483z"/>
</g>
<ellipse fill="#FFFFFF" cx="83.734" cy="22.475" rx="20.793" ry="20.25"/>
<rect x="1.259" y="19.571" fill="#FFFFFF" width="162.327" height="205.69"/>
<g id="Capa_1" display="none">
	<g display="inline">
		<path fill="#3D4A5A" d="M1124.722,257.53c3.029,0,5.49-2.454,5.49-5.49v-5.49c0-3.036-2.461-5.49-5.49-5.49s-5.49,2.454-5.49,5.49
			v5.49C1119.23,255.073,1121.691,257.53,1124.722,257.53z"/>
		<path fill="#3D4A5A" d="M1119.23,482.651v5.49c0,3.036,2.461,5.491,5.49,5.491s5.49-2.455,5.49-5.491v-5.49
			c0-3.036-2.461-5.491-5.49-5.491C1121.691,477.158,1119.23,479.615,1119.23,482.651z"/>
		<path fill="#3D4A5A" d="M1245.519,372.836c3.029,0,5.49-2.455,5.49-5.491s-2.461-5.49-5.49-5.49h-5.49
			c-3.031,0-5.49,2.454-5.49,5.49s2.459,5.491,5.49,5.491H1245.519z"/>
		<path fill="#3D4A5A" d="M1003.926,361.854c-3.031,0-5.492,2.454-5.492,5.49s2.461,5.491,5.492,5.491h5.49
			c3.031,0,5.49-2.455,5.49-5.491s-2.459-5.49-5.49-5.49H1003.926z"/>
		<path fill="#3D4A5A" d="M1206.254,291.297c1.406,0,2.813-0.537,3.883-1.607l3.881-3.882c2.148-2.146,2.148-5.617,0-7.766
			c-2.146-2.146-5.613-2.146-7.764,0l-3.881,3.883c-2.148,2.146-2.148,5.616,0,7.765
			C1203.443,290.765,1204.849,291.297,1206.254,291.297z"/>
		<path fill="#3D4A5A" d="M1039.308,444.993l-3.883,3.883c-2.146,2.146-2.146,5.617,0,7.766c1.07,1.07,2.479,1.606,3.883,1.606
			s2.813-0.536,3.881-1.606l3.885-3.883c2.146-2.146,2.146-5.616,0-7.766C1044.924,442.848,1041.449,442.848,1039.308,444.993z"/>
		<path fill="#3D4A5A" d="M1047.072,281.925l-3.883-3.883c-2.146-2.146-5.617-2.146-7.766,0c-2.146,2.146-2.146,5.617,0,7.766
			l3.883,3.882c1.07,1.07,2.477,1.607,3.883,1.607c1.404,0,2.811-0.537,3.883-1.607
			C1049.219,287.547,1049.219,284.072,1047.072,281.925z"/>
		<path fill="#3D4A5A" d="M1124.722,203.286C1033.894,203.286,960,277.181,960,368.01s73.895,164.723,164.723,164.723
			c19.637,0,38.869-3.432,57.182-10.208c2.844-1.049,4.295-4.211,3.246-7.05c-1.057-2.854-4.207-4.305-7.059-3.245
			c-17.088,6.314-35.041,9.521-53.369,9.521c-84.771,0-153.742-68.972-153.742-153.741c0-84.771,68.971-153.742,153.742-153.742
			s153.74,68.97,153.74,153.742c0,18.338-3.207,36.288-9.525,53.362c-1.049,2.852,0.4,6.009,3.244,7.057
			c2.846,1.07,6.002-0.396,7.057-3.238c6.775-18.301,10.209-37.535,10.209-57.181
			C1289.445,277.181,1215.551,203.286,1124.722,203.286z"/>
	</g>
	<g display="inline">
		<path fill="#3D4A5A" d="M1209.039,475.781v9.771h39.83v9.361h-39.83v25.039h-13.164v-25.039h-6.785v-9.361h6.785v-9.771h-6.785
			v-11.397h6.785V420.48h31.145c8.912,0,15.652,0.906,20.223,2.715c4.614,1.765,8.301,4.908,11.061,9.434
			c2.762,4.522,4.143,9.521,4.143,14.994c0,5.521-1.02,10.09-3.057,13.707c-2.035,3.619-4.736,6.503-8.105,8.651
			c-3.371,2.149-7.238,3.653-11.604,4.513s-8.879,1.289-13.536,1.289L1209.039,475.781L1209.039,475.781z M1226.138,464.383
			c3.029,0,5.928-0.238,8.688-0.713c2.758-0.477,5.178-1.348,7.26-2.612c2.08-1.268,3.732-2.977,4.953-5.123
			c1.223-2.148,1.832-4.92,1.832-8.313c0-2.938-0.555-5.429-1.662-7.464c-1.107-2.036-2.623-3.696-4.547-4.985
			c-1.922-1.29-4.172-2.229-6.75-2.816c-2.58-0.587-5.361-0.882-8.348-0.882h-18.523v32.91L1226.138,464.383L1226.138,464.383z"/>
	</g>
	<g display="inline">
		<path fill="#3D4A5A" d="M1093.701,350.324c0,5.188-0.732,9.854-2.195,14.001c-1.465,4.15-3.602,8.207-6.406,12.172
			c-9.027,12.813-15.924,19.22-20.682,19.22c-1.465,0-2.686-0.55-3.662-1.647c-0.977-1.099-1.463-2.38-1.463-3.844
			c0-1.098,0.486-2.229,1.463-3.386c0.609-0.671,1.922-1.982,3.938-3.938c4.881-4.636,8.754-9.271,11.623-13.909h-0.094
			c-2.379,1.1-5.275,1.646-8.691,1.646c-5.553,0-10.066-2.196-13.545-6.589c-3.172-4.026-4.76-8.906-4.76-14.644
			c0-6.589,2.15-12.094,6.451-16.519c4.303-4.422,9.746-6.634,16.336-6.634c6.953,0,12.385,2.316,16.289,6.953
			C1091.9,337.546,1093.701,343.248,1093.701,350.324z M1071.646,337.148c-3.234,0-5.768,1.175-7.598,3.523
			c-1.83,2.348-2.744,5.17-2.744,8.465c0,3.417,0.764,6.162,2.287,8.234c1.707,2.319,4.209,3.479,7.504,3.479
			c3.232,0,5.813-1.037,7.732-3.112c1.922-2.073,2.883-4.727,2.883-7.961c0-3.538-0.764-6.437-2.287-8.694
			C1077.595,338.461,1075.002,337.148,1071.646,337.148z"/>
		<path fill="#3D4A5A" d="M1148.881,360.941c0,9.457-1.646,17.205-4.941,23.244c-4.146,7.627-10.555,11.438-19.217,11.438
			c-8.664,0-15.068-3.813-19.219-11.438c-3.293-6.039-4.941-13.787-4.941-23.244c0-9.456,1.617-17.173,4.854-23.152
			c4.146-7.626,10.584-11.438,19.309-11.438s15.16,3.813,19.311,11.438C1147.263,343.768,1148.881,351.485,1148.881,360.941z
			 M1136.984,360.895c0-5.928-0.672-10.91-2.014-14.944c-2.074-6.052-5.461-9.077-10.156-9.077c-4.82,0-8.236,2.995-10.25,8.985
			c-1.404,4.035-2.105,9.047-2.105,15.036c0,16.138,4.119,24.205,12.355,24.205c4.758,0,8.145-3.056,10.156-9.168
			C1136.312,371.96,1136.984,366.947,1136.984,360.895z"/>
		<path fill="#3D4A5A" d="M1202.14,360.941c0,9.457-1.646,17.205-4.939,23.244c-4.148,7.627-10.557,11.438-19.218,11.438
			c-8.663,0-15.069-3.813-19.22-11.438c-3.293-6.039-4.939-13.787-4.939-23.244c0-9.456,1.616-17.173,4.852-23.152
			c4.146-7.626,10.584-11.438,19.311-11.438c8.723,0,15.159,3.813,19.309,11.438C1200.523,343.768,1202.14,351.485,1202.14,360.941z
			 M1190.244,360.895c0-5.928-0.672-10.91-2.012-14.944c-2.076-6.052-5.461-9.077-10.158-9.077c-4.82,0-8.236,2.995-10.25,8.985
			c-1.404,4.035-2.105,9.047-2.105,15.036c0,16.138,4.119,24.205,12.355,24.205c4.758,0,8.145-3.056,10.158-9.168
			C1189.572,371.96,1190.244,366.947,1190.244,360.895z"/>
	</g>
</g>
<g id="Слой_4" display="none">
	<g display="inline">
		<path fill="#3D4A5A" d="M1120.685,456.55c-10.305,0-18.688,8.382-18.688,18.688c0,10.308,8.383,18.688,18.688,18.688
			c10.307,0,18.688-8.382,18.688-18.688C1139.374,464.931,1130.99,456.55,1120.685,456.55z M1120.685,483.244
			c-4.413,0-8.008-3.593-8.008-8.009s3.594-8.009,8.008-8.009c4.416,0,8.011,3.593,8.011,8.009
			C1128.694,479.652,1125.107,483.244,1120.685,483.244z"/>
		<path fill="#3D4A5A" d="M1006.076,304.7l18.875,18.875c1.04,1.041,2.408,1.564,3.772,1.564c1.366,0,2.733-0.524,3.775-1.564
			c2.088-2.088,2.088-5.462,0-7.55l-11.704-11.704c5.878-8.89,5.878-20.556,0-29.446l23.407-23.414
			c8.655,5.758,20.785,5.758,29.453,0l11.702,11.705c2.088,2.087,5.464,2.087,7.551,0c2.088-2.088,2.088-5.462,0-7.551l-18.88-18.88
			l-3.774,3.775c-6.055,6.049-16.601,6.049-22.654,0l-3.773-3.775l-37.756,37.755l3.773,3.774c6.242,6.248,6.242,16.407,0,22.654
			L1006.076,304.7z"/>
		<path fill="#3D4A5A" d="M1165.023,342.836c-5.877,8.891-5.877,20.557,0,29.445l-23.406,23.413c-8.667-5.761-20.797-5.761-29.453,0
			l-11.703-11.704c-2.088-2.088-5.463-2.088-7.551,0c-2.087,2.088-2.087,5.462,0,7.55l18.881,18.883l3.772-3.775
			c6.057-6.056,16.603-6.045,22.654,0l3.777,3.775l37.753-37.757l-3.775-3.773c-6.238-6.246-6.238-16.408,0-22.655l3.775-3.772
			l-18.874-18.875c-2.088-2.089-5.461-2.089-7.55,0c-2.088,2.088-2.088,5.462,0,7.55L1165.023,342.836z"/>
		<circle fill="#3D4A5A" cx="1187.3" cy="357.555" r="5.34"/>
		<circle fill="#3D4A5A" cx="1126.891" cy="417.967" r="5.339"/>
		<path fill="#3D4A5A" d="M1062.706,232.966c2.087-2.088,4.046-5.468,1.965-7.551c-2.087-2.087-5.467-2.087-7.552,0
			c-2.087,2.088-4.047,5.467-1.964,7.551C1057.244,235.048,1060.624,235.048,1062.706,232.966z"/>
		<circle fill="#3D4A5A" cx="998.525" cy="289.595" r="5.339"/>
		<path fill="#3D4A5A" d="M1208.786,389.806c0-4.698-0.765-9.313-2.205-13.776l18.448-18.447l-24.32-24.626
			c5.035-4.483,8.077-10.943,8.077-17.901c0-13.247-10.78-24.027-24.027-24.027c-0.972,0-1.933,0.097-2.883,0.213
			c0.116-0.949,0.213-1.904,0.213-2.883c0-13.247-10.78-24.026-24.025-24.026c-0.973,0-1.934,0.097-2.884,0.213
			c0.118-0.949,0.215-1.905,0.215-2.882c0-13.248-10.781-24.027-24.027-24.027c-0.973,0-1.932,0.097-2.884,0.214
			c0.116-0.951,0.213-1.906,0.213-2.885c0-13.919-9.279-24.026-22.063-24.026c-6.982,0-14.029,3.021-18.922,7.593l-26.75-27.082
			l-100.23,98.105l49.353,49.356c-2.639,3.854-4.188,8.508-4.188,13.521c0,8.351,4.295,15.708,10.779,20.011
			c0.32,0.428,0.705,0.86,1.207,1.288l57.427,57.211v9.59h-10.679v69.412h96.109h42.713V440.53h-10.676v-16.173
			C1202.987,415.701,1208.786,403.256,1208.786,389.806z M1016.567,352.43c0-3.509,1.389-6.68,3.604-9.063l0.816-0.747
			c1.856-1.695,4.091-2.817,6.442-3.289c0.809-0.153,1.631-0.251,2.479-0.251h11.751h41.642c7.36,0,13.352,5.986,13.352,13.351
			c0,0.864-0.098,1.702-0.257,2.523c-1.125,5.617-5.928,10.104-11.854,10.675l-1.585,0.148h-30.917h-15.099h-7.032
			C1022.558,365.778,1016.567,359.794,1016.567,352.43z M1062.711,293.37c16.653-16.653,43.751-16.653,60.404,0
			c8.068,8.067,12.51,18.801,12.51,30.205s-4.441,22.139-12.51,30.206c-5.366,5.365-12.024,9.124-19.212,11.024
			c0.578-0.955,1.08-1.959,1.521-2.995c0.027-0.064,0.044-0.138,0.075-0.202c0.507-1.224,0.886-2.505,1.188-3.819
			c0.082-0.341,0.149-0.679,0.217-1.02c0.255-1.415,0.437-2.851,0.437-4.34c0-13.248-10.78-24.028-24.026-24.028h-32.812
			C1049.021,315.49,1053.43,302.65,1062.711,293.37z M1198.107,315.053c0,4.047-1.854,7.807-4.906,10.295l-18.624-18.859
			c2.498-2.974,6.188-4.79,10.182-4.79C1192.123,301.704,1198.107,307.691,1198.107,315.053z M1171.411,288.357
			c0,3.968-1.8,7.636-4.741,10.129l-18.624-18.858c2.493-2.866,6.104-4.624,10.017-4.624
			C1165.425,275.008,1171.411,280.994,1171.411,288.357z M1144.713,261.66c0,3.881-1.74,7.475-4.575,9.963l-18.624-18.854
			c2.487-2.762,6.02-4.453,9.85-4.453C1138.728,248.312,1144.713,254.297,1144.713,261.66z M1106.633,221.614
			c7.863,0,11.385,6.707,11.385,13.349c0,3.803-1.677,7.311-4.404,9.793l-18.421-18.65
			C1098.094,223.472,1102.452,221.614,1106.633,221.614z M1060.83,206.514l20.848,21.103l-0.462,1.046l26.698,26.695l3.06,3.061
			l23.641,23.639l3.059,3.059l23.64,23.64l3.059,3.06l26.698,26.696l0.084-0.038l18.829,19.062l-82.998,82.997h-0.178l-64.07-64.071
			h20.576c0.547,0,1.059-0.124,1.599-0.161c2.66,0.405,5.323,0.625,7.977,0.625c14.061,0,27.729-5.542,37.775-15.593
			c10.087-10.085,15.642-23.491,15.642-37.754c0-14.262-5.555-27.674-15.642-37.755c-20.813-20.813-54.69-20.813-75.509,0
			c-11.314,11.314-16.831,26.862-15.377,42.587h-9.862c-1.411,0-2.793,0.171-4.165,0.421c-0.442,0.081-0.881,0.166-1.313,0.269
			c-0.993,0.24-1.965,0.545-2.915,0.907c-0.828,0.311-1.616,0.684-2.396,1.084c-0.392,0.203-0.795,0.368-1.175,0.587L975.92,289.64
			L1060.83,206.514z M1084.1,424.427c-0.237-0.208-0.49-0.396-0.96-0.747l-47.396-47.224h11.889l64.072,64.073h-25.72v-14.513
			L1084.1,424.427z M1075.302,499.263V451.21h40.994h3.989c0.741,0,1.475,0.058,2.199,0.11l4.398,4.4l2.921-2.921
			c11.752,3.981,20.24,15.095,20.24,28.171v18.292L1075.302,499.263L1075.302,499.263z M1192.767,499.263h-32.035v-18.292
			c0-11.779-5.096-22.367-13.154-29.762h45.189V499.263L1192.767,499.263z M1142.081,440.531l19.911-19.911l35.759-35.759
			c0.24,1.634,0.356,3.279,0.356,4.945c0,10.972-5.063,21.075-13.896,27.717l-2.125,1.604v21.404H1142.081z"/>
	</g>
</g>
<g id="Слой_5" display="none">
	<g display="inline">
		<path fill="#3D4A5A" d="M1280.347,271.51h-21.351v-10.676v-32.025v-21.432c0-8.785-7.146-15.933-15.933-15.933h-21.513
			c-8.784,0-15.933,7.146-15.933,15.933v21.432v32.025v10.676H960.09v176.142h245.53v12.094l21.35,37.364v9.255
			c0,2.951,2.394,5.338,5.339,5.338c2.946,0,5.338-2.387,5.338-5.338v-9.255l21.352-37.364v-12.094h21.351L1280.347,271.51
			L1280.347,271.51z M1248.321,250.16h-32.024v-10.676h32.024V250.16z M1216.297,207.379c0-2.897,2.359-5.257,5.257-5.257h21.511
			c2.898,0,5.259,2.358,5.259,5.257v21.432h-32.024L1216.297,207.379L1216.297,207.379z M970.767,436.976V282.185h234.854v154.791
			H970.767z M1232.308,484.93l-12.151-21.267h24.309L1232.308,484.93z M1248.321,452.989h-32.024v-5.337V271.51v-10.676h32.024
			v10.676v176.142V452.989z M1269.672,436.976h-10.675V282.185h10.675V436.976z"/>
		<path fill="#3D4A5A" d="M1168.258,330.224h-16.013c-2.946,0-5.338,2.385-5.338,5.337c0,2.951,2.392,5.338,5.338,5.338h16.013
			c2.946,0,5.338-2.387,5.338-5.338S1171.204,330.224,1168.258,330.224z"/>
		<path fill="#3D4A5A" d="M1072.181,319.551h16.014c2.944,0,5.338-2.389,5.338-5.338c0-2.953-2.393-5.337-5.338-5.337h-16.014
			c-2.944,0-5.339,2.385-5.339,5.337C1066.843,317.161,1069.235,319.551,1072.181,319.551z"/>
		<path fill="#3D4A5A" d="M1168.258,308.873h-37.363c-2.944,0-5.338,2.387-5.338,5.339c0,2.949,2.394,5.338,5.338,5.338h37.363
			c2.946,0,5.338-2.389,5.338-5.338C1173.595,311.26,1171.204,308.873,1168.258,308.873z"/>
		<path fill="#3D4A5A" d="M1109.545,319.551c1.387,0,2.775-0.587,3.79-1.548c0.959-1.017,1.548-2.402,1.548-3.79
			c0-1.391-0.589-2.781-1.548-3.791c-2.029-1.977-5.604-1.977-7.58,0c-0.961,1.01-1.548,2.399-1.548,3.791
			c0,1.387,0.587,2.773,1.548,3.79C1106.769,318.963,1108.103,319.551,1109.545,319.551z"/>
		<path fill="#3D4A5A" d="M1088.193,335.562c0,2.951,2.393,5.338,5.338,5.338h37.36c2.947,0,5.341-2.387,5.341-5.338
			c0-2.952-2.394-5.337-5.341-5.337h-37.36C1090.586,330.224,1088.193,332.61,1088.193,335.562z"/>
		<path fill="#3D4A5A" d="M1072.181,340.9c1.39,0,2.774-0.587,3.79-1.548c0.96-1.014,1.548-2.402,1.548-3.79
			c0-1.446-0.588-2.781-1.548-3.79c-2.027-1.975-5.604-1.975-7.581,0c-0.961,1.009-1.548,2.344-1.548,3.79
			c0,1.388,0.587,2.775,1.548,3.79C1069.406,340.312,1070.74,340.9,1072.181,340.9z"/>
		<path fill="#3D4A5A" d="M1018.804,314.751v-5.878c0-2.95-2.391-5.338-5.338-5.338c-2.945,0-5.338,2.388-5.338,5.338v5.897
			c-5.822,1.185-11.128,4.276-15.04,8.903c-3.262,3.854-4.771,8.786-4.237,13.895c0.545,5.228,3.233,10.071,7.381,13.295
			l11.896,9.25v29.026c-6.195-2.21-10.674-8.081-10.674-15.031c0-2.952-2.393-5.338-5.338-5.338c-2.947,0-5.338,2.387-5.338,5.338
			c0,12.885,9.186,23.667,21.35,26.149v4.689c0,2.952,2.393,5.337,5.338,5.337c2.947,0,5.338-2.386,5.338-5.337v-4.708
			c5.823-1.185,11.129-4.274,15.047-8.901c3.264-3.865,4.769-8.798,4.232-13.905c-0.549-5.22-3.234-10.063-7.381-13.279
			l-11.898-9.261v-29.027c6.197,2.211,10.676,8.082,10.676,15.032c0,2.952,2.393,5.337,5.34,5.337c2.944,0,5.337-2.386,5.337-5.337
			C1040.155,328.014,1030.969,317.233,1018.804,314.751z M1024.146,372.576c1.862,1.448,3.074,3.63,3.32,5.97
			c0.229,2.188-0.399,4.284-1.768,5.897c-1.857,2.193-4.259,3.73-6.896,4.67v-20.7L1024.146,372.576z M1002.787,342.437
			c-1.869-1.452-3.075-3.635-3.32-5.979c-0.224-2.184,0.4-4.273,1.769-5.893c1.854-2.193,4.259-3.729,6.896-4.671v20.694
			L1002.787,342.437z"/>
		<path fill="#3D4A5A" d="M1088.968,369.722c-11.688,6.085-15.628,17.727-17.06,29.795c-2.209-1.854-4.419-3.7-6.624-5.551
			c-5.23-4.382-12.821,3.127-7.547,7.547c4.99,4.185,9.985,8.364,14.978,12.548c3.512,2.946,8.951,1.083,9.111-3.773
			c0.39-11.562,0.935-25.311,12.533-31.349C1100.449,375.771,1095.058,366.552,1088.968,369.722z"/>
		<path fill="#3D4A5A" d="M1124.463,391.015c-7.392,1.713-15.805,11.117-21.009,0.563c-3.037-6.157-12.249-0.757-9.218,5.388
			c2.759,5.6,8.007,9.517,14.246,10.307c3.17,0.401,6.034-0.048,9.01-1.206c2.183-0.85,10.34-6.977,12.101-3.828
			c3.351,6,12.574,0.62,9.218-5.386C1135.945,391.723,1130.142,389.696,1124.463,391.015z"/>
	</g>
</g>
<g id="Слой_6" display="none">
	<g display="inline">
		<path fill="#3D4A5A" d="M1055.324,297.657c1.83-0.835,2.634-2.993,1.796-4.826c-0.838-1.83-2.994-2.643-4.827-1.795
			c-2.523,1.149-4.873,2.661-6.974,4.482c-1.521,1.319-1.686,3.621-0.37,5.141c0.722,0.83,1.738,1.258,2.755,1.258
			c0.845,0,1.697-0.291,2.386-0.89C1051.667,299.657,1053.427,298.525,1055.324,297.657z"/>
		<path fill="#3D4A5A" d="M1068.045,295.691h7.285c2.015,0,3.645-1.629,3.645-3.645s-1.63-3.643-3.645-3.643h-7.285
			c-2.015,0-3.643,1.628-3.643,3.643S1066.03,295.691,1068.045,295.691z"/>
		<path fill="#3D4A5A" d="M1089.901,295.691h7.284c2.016,0,3.645-1.629,3.645-3.645s-1.629-3.643-3.645-3.643h-7.284
			c-2.017,0-3.645,1.628-3.645,3.643C1086.258,294.061,1087.886,295.691,1089.901,295.691z"/>
		<path fill="#3D4A5A" d="M1075.33,339.404h-7.285c-2.015,0-3.643,1.628-3.643,3.644c0,2.014,1.628,3.644,3.643,3.644h7.285
			c2.015,0,3.644-1.629,3.644-3.644C1078.973,341.031,1077.344,339.404,1075.33,339.404z"/>
		<path fill="#3D4A5A" d="M1119.043,339.404h-7.285c-2.015,0-3.643,1.628-3.643,3.644c0,2.014,1.628,3.644,3.643,3.644h7.285
			c2.015,0,3.642-1.629,3.642-3.644C1122.685,341.031,1121.057,339.404,1119.043,339.404z"/>
		<path fill="#3D4A5A" d="M1097.187,339.404h-7.284c-2.017,0-3.645,1.628-3.645,3.644c0,2.014,1.628,3.644,3.645,3.644h7.284
			c2.016,0,3.645-1.629,3.645-3.644C1100.831,341.031,1099.201,339.404,1097.187,339.404z"/>
		<path fill="#3D4A5A" d="M1055.324,337.437c-1.896-0.868-3.653-2-5.229-3.369c-1.521-1.313-3.816-1.15-5.141,0.368
			c-1.315,1.519-1.15,3.821,0.367,5.139c2.103,1.821,4.446,3.33,6.972,4.484c0.493,0.226,1.006,0.331,1.513,0.331
			c1.384,0,2.703-0.79,3.314-2.126C1057.955,340.434,1057.154,338.271,1055.324,337.437z"/>
		<path fill="#3D4A5A" d="M1140.899,339.404h-7.285c-2.017,0-3.645,1.628-3.645,3.644c0,2.014,1.629,3.644,3.645,3.644h7.285
			c2.015,0,3.644-1.629,3.644-3.644C1144.543,341.031,1142.914,339.404,1140.899,339.404z"/>
		<path fill="#3D4A5A" d="M1206.469,339.404h-7.285c-2.016,0-3.644,1.628-3.644,3.644c0,2.014,1.628,3.644,3.644,3.644h7.285
			c2.017,0,3.644-1.629,3.644-3.644C1210.111,341.031,1208.483,339.404,1206.469,339.404z"/>
		<path fill="#3D4A5A" d="M1228.324,339.404h-7.284c-2.017,0-3.646,1.628-3.646,3.644c0,2.014,1.629,3.644,3.646,3.644h7.284
			c2.016,0,3.644-1.629,3.644-3.644C1231.968,341.031,1230.34,339.404,1228.324,339.404z"/>
		<path fill="#3D4A5A" d="M1162.756,339.404h-7.285c-2.015,0-3.644,1.628-3.644,3.644c0,2.014,1.629,3.644,3.644,3.644h7.285
			c2.016,0,3.643-1.629,3.643-3.644C1166.398,341.031,1164.771,339.404,1162.756,339.404z"/>
		<path fill="#3D4A5A" d="M1184.612,339.404h-7.285c-2.015,0-3.646,1.628-3.646,3.644c0,2.014,1.631,3.644,3.646,3.644h7.285
			c2.015,0,3.643-1.629,3.643-3.644C1188.255,341.031,1186.627,339.404,1184.612,339.404z"/>
		<path fill="#3D4A5A" d="M1055.324,446.719c-1.896-0.867-3.653-2-5.229-3.37c-1.521-1.315-3.816-1.15-5.141,0.368
			c-1.315,1.52-1.15,3.819,0.367,5.141c2.103,1.821,4.446,3.33,6.972,4.484c0.493,0.226,1.006,0.331,1.513,0.331
			c1.384,0,2.703-0.792,3.314-2.128C1057.955,449.717,1057.154,447.552,1055.324,446.719z"/>
		<path fill="#3D4A5A" d="M1097.187,448.685h-7.284c-2.017,0-3.645,1.628-3.645,3.644s1.628,3.644,3.645,3.644h7.284
			c2.016,0,3.645-1.627,3.645-3.644C1100.83,450.313,1099.201,448.685,1097.187,448.685z"/>
		<path fill="#3D4A5A" d="M1075.33,448.685h-7.285c-2.015,0-3.643,1.628-3.643,3.644s1.628,3.644,3.643,3.644h7.285
			c2.015,0,3.644-1.627,3.644-3.644C1078.973,450.313,1077.344,448.685,1075.33,448.685z"/>
		<path fill="#3D4A5A" d="M1162.756,448.685h-7.285c-2.015,0-3.644,1.628-3.644,3.644s1.629,3.644,3.644,3.644h7.285
			c2.016,0,3.643-1.627,3.643-3.644C1166.396,450.313,1164.771,448.685,1162.756,448.685z"/>
		<path fill="#3D4A5A" d="M1173.683,452.327c0,2.016,1.629,3.644,3.646,3.644h7.285c2.015,0,3.643-1.627,3.643-3.644
			c0-2.016-1.628-3.644-3.643-3.644h-7.285C1175.312,448.685,1173.683,450.313,1173.683,452.327z"/>
		<path fill="#3D4A5A" d="M1199.183,455.97h7.285c2.017,0,3.644-1.627,3.644-3.644c0-2.016-1.627-3.644-3.644-3.644h-7.285
			c-2.016,0-3.644,1.628-3.644,3.644C1195.54,454.344,1197.168,455.97,1199.183,455.97z"/>
		<path fill="#3D4A5A" d="M1140.899,448.685h-7.285c-2.017,0-3.645,1.628-3.645,3.644s1.629,3.644,3.645,3.644h7.285
			c2.015,0,3.644-1.627,3.644-3.644C1144.543,450.313,1142.914,448.685,1140.899,448.685z"/>
		<path fill="#3D4A5A" d="M1221.04,455.97h7.284c2.016,0,3.644-1.627,3.644-3.644c0-2.016-1.628-3.644-3.644-3.644h-7.284
			c-2.016,0-3.644,1.628-3.644,3.644C1217.396,454.344,1219.024,455.97,1221.04,455.97z"/>
		<path fill="#3D4A5A" d="M1119.043,448.685h-7.285c-2.015,0-3.643,1.628-3.643,3.644s1.628,3.644,3.643,3.644h7.285
			c2.015,0,3.642-1.627,3.642-3.644C1122.685,450.313,1121.057,448.685,1119.043,448.685z"/>
		<path fill="#3D4A5A" d="M1195.54,394.045c0,8.034,6.535,14.569,14.57,14.569c8.036,0,14.569-6.536,14.569-14.569
			c0-8.035-6.534-14.571-14.569-14.571S1195.54,386.01,1195.54,394.045z M1210.11,386.76c4.019,0,7.286,3.267,7.286,7.285
			c0,4.018-3.27,7.284-7.286,7.284c-4.018,0-7.285-3.267-7.285-7.284C1202.825,390.025,1206.094,386.76,1210.11,386.76z"/>
		<path fill="#3D4A5A" d="M1191.687,273.835l-19.804-19.803c-1.612-1.613-4.247-1.613-5.859,0l-7.453,7.453l-7.453-7.453
			c-1.613-1.613-4.246-1.613-5.86,0l-19.801,19.803h-61.053c-16.067,0-29.144,13.074-29.144,29.143v141.512
			c0,14.364,11.688,26.053,26.055,26.053h192.51v-50.997v-50.999v-36.428v-7.285v-50.998H1191.687L1191.687,273.835z
			 M1168.955,261.406l12.43,12.43l50.997,50.999h-19.638l-41.042-41.047c-1.541-1.497-3.956-1.493-5.533,0.04l-41.002,41.007
			h-19.638l58.193-58.192l0,0L1168.955,261.406z M1202.446,324.833h-66.979l33.487-33.488L1202.446,324.833z M1148.185,261.406
			l5.233,5.234l-58.189,58.192h-10.472l50.998-50.999L1148.185,261.406z M1064.402,281.12h53.766l-7.507,7.507
			c-1.104,0.357-1.949,1.199-2.306,2.308l-33.899,33.898h-10.054c-12.056,0-21.856-9.804-21.856-21.855
			C1042.546,290.923,1052.348,281.12,1064.402,281.12z M1246.538,412.258h-40.069c-10.044,0-18.214-8.17-18.214-18.213
			c0-10.042,8.17-18.216,18.214-18.216h40.069V412.258z M1246.538,339.404h-3.646c-2.014,0-3.642,1.628-3.642,3.644
			c0,2.014,1.628,3.644,3.642,3.644h3.646v21.854h-40.069c-14.058,0-25.5,11.441-25.5,25.5c0,14.057,11.442,25.499,25.5,25.499
			h40.069v29.142h-3.646c-2.014,0-3.642,1.628-3.642,3.644s1.628,3.644,3.642,3.644h3.646v7.286h-185.226
			c-10.347,0-18.769-8.417-18.769-18.769v-8.026c0.851-0.91,1.258-2.197,0.878-3.478c-0.582-1.989-0.878-4.061-0.878-6.156v-99.65
			c0.851-0.91,1.258-2.196,0.878-3.476c-0.067-0.235-0.095-0.48-0.154-0.719c0.325,0.347,0.657,0.688,1.002,1.015
			c0.313,0.302,0.638,0.591,0.964,0.879c0.409,0.354,0.822,0.7,1.25,1.036c0.343,0.271,0.69,0.528,1.046,0.783
			c0.438,0.317,0.896,0.615,1.354,0.906c0.368,0.233,0.736,0.459,1.115,0.678c0.48,0.274,0.974,0.528,1.468,0.775
			c0.384,0.192,0.768,0.386,1.159,0.561c0.521,0.23,1.053,0.437,1.584,0.637c0.393,0.147,0.783,0.303,1.187,0.434
			c0.57,0.187,1.152,0.335,1.735,0.487c0.387,0.099,0.768,0.216,1.158,0.3c0.659,0.142,1.33,0.235,2.003,0.331
			c0.336,0.048,0.664,0.117,1.002,0.154c1.021,0.107,2.058,0.17,3.103,0.17h13.898h10.301h10.471h10.303h18.053h83.072h18.042
			h10.303h7.7L1246.538,339.404L1246.538,339.404z M1242.685,324.833l-29.143-29.143h0.211c2.017,0,3.645-1.628,3.645-3.645
			c0-2.015-1.628-3.643-3.645-3.643h-7.285c-0.063,0-0.111,0.033-0.176,0.037l-7.321-7.321h47.566v43.712h-3.853V324.833z"/>
		<path fill="#3D4A5A" d="M1235.61,288.406h-7.286c-2.017,0-3.645,1.629-3.645,3.643c0,2.015,1.628,3.645,3.645,3.645h7.286
			c2.015,0,3.643-1.629,3.643-3.645C1239.253,290.032,1237.625,288.406,1235.61,288.406z"/>
	</g>
</g>
<g id="Слой_7">
	<g>
		<g>
			<path fill="#3D4A5A" d="M161.01,18.75h-41.246h-12.521C104.068,7.726,94,0,82.264,0C70.527,0,60.461,7.726,57.285,18.75h-12.52
				H3.518c-1.942,0-3.519,1.573-3.519,3.516v200.613c0,1.943,1.575,3.518,3.519,3.518h157.488c1.941,0,3.518-1.574,3.518-3.518
				V22.264C164.525,20.322,162.951,18.75,161.01,18.75z M48.281,37.262V25.779h11.801c0.02,0,0.033-0.003,0.051-0.003
				c0.077,0,0.152-0.005,0.229-0.012c0.04-0.003,0.081-0.007,0.121-0.011c0.076-0.009,0.149-0.021,0.226-0.033
				c0.04-0.009,0.082-0.015,0.123-0.021c0.069-0.017,0.14-0.035,0.208-0.055c0.042-0.014,0.085-0.022,0.128-0.037
				c0.064-0.021,0.125-0.046,0.188-0.068c0.046-0.018,0.09-0.034,0.133-0.053c0.063-0.026,0.117-0.056,0.174-0.084
				c0.045-0.022,0.089-0.044,0.132-0.067c0.058-0.031,0.111-0.065,0.164-0.103c0.04-0.023,0.081-0.05,0.121-0.076
				c0.054-0.038,0.107-0.08,0.161-0.12c0.035-0.027,0.07-0.055,0.104-0.083c0.054-0.045,0.104-0.093,0.153-0.143
				c0.03-0.027,0.063-0.057,0.089-0.085c0.054-0.052,0.101-0.104,0.147-0.161c0.022-0.029,0.053-0.062,0.078-0.092
				c0.044-0.056,0.086-0.11,0.127-0.169c0.022-0.036,0.052-0.07,0.073-0.105c0.036-0.056,0.069-0.111,0.104-0.169
				c0.025-0.042,0.051-0.085,0.073-0.131c0.026-0.052,0.053-0.104,0.076-0.158s0.05-0.105,0.069-0.159
				c0.021-0.048,0.037-0.097,0.057-0.146c0.021-0.063,0.043-0.126,0.063-0.189c0.015-0.045,0.023-0.091,0.034-0.138
				c0.017-0.068,0.033-0.138,0.046-0.209c0.003-0.019,0.01-0.035,0.012-0.053c1.538-9.164,9.409-15.814,18.716-15.814
				c9.307,0,17.178,6.65,18.715,15.814c0.004,0.021,0.01,0.038,0.012,0.058c0.012,0.058,0.025,0.114,0.037,0.172
				c0.012,0.052,0.025,0.104,0.041,0.154c0.016,0.056,0.031,0.106,0.051,0.162c0.018,0.055,0.037,0.106,0.059,0.158
				c0.02,0.049,0.037,0.096,0.059,0.142c0.025,0.059,0.055,0.114,0.082,0.171c0.02,0.038,0.041,0.078,0.061,0.117
				c0.035,0.062,0.072,0.121,0.111,0.181c0.02,0.03,0.039,0.063,0.061,0.094c0.047,0.067,0.094,0.13,0.145,0.193
				c0.016,0.021,0.033,0.044,0.051,0.064c0.068,0.081,0.143,0.161,0.217,0.237c0,0.001,0.002,0.001,0.002,0.002
				c0.076,0.075,0.154,0.146,0.236,0.215c0.031,0.026,0.066,0.051,0.1,0.075c0.051,0.04,0.102,0.08,0.152,0.116
				c0.043,0.029,0.088,0.055,0.131,0.082c0.047,0.029,0.092,0.059,0.143,0.086c0.047,0.026,0.094,0.05,0.143,0.073
				c0.049,0.024,0.098,0.05,0.146,0.071c0.047,0.021,0.098,0.042,0.145,0.062c0.055,0.021,0.109,0.042,0.164,0.06
				c0.047,0.017,0.092,0.031,0.139,0.047c0.064,0.019,0.129,0.033,0.193,0.049c0.041,0.01,0.082,0.021,0.123,0.027
				c0.082,0.017,0.166,0.028,0.25,0.038c0.023,0.004,0.051,0.01,0.076,0.012c0.111,0.011,0.227,0.019,0.342,0.019
				c0.002,0,0.004,0,0.006,0h11.801v11.483v9.608H48.287v-9.611H48.281L48.281,37.262z M44.767,53.903h74.995
				c1.939,0,3.516-1.574,3.516-3.516v-9.608h19.219v129.837h-32.107c-1.941,0-3.516,1.574-3.516,3.515v32.107h-84.84V40.779H41.25
				v9.608C41.25,52.33,42.824,53.903,44.767,53.903z M137.523,177.646l-23.621,23.621v-23.621H137.523z M157.494,219.362H7.033
				V25.779H41.25v7.968H18.519c-1.941,0-3.517,1.574-3.517,3.517v172.49c0,1.942,1.574,3.518,3.517,3.518h91.87
				c0.115,0,0.23-0.009,0.348-0.02c0.053-0.006,0.104-0.016,0.156-0.021c0.061-0.011,0.121-0.019,0.184-0.029
				c0.061-0.011,0.117-0.028,0.176-0.043c0.055-0.013,0.105-0.025,0.156-0.04c0.059-0.02,0.113-0.039,0.17-0.062
				c0.053-0.018,0.104-0.034,0.156-0.057c0.053-0.021,0.102-0.048,0.152-0.072c0.055-0.022,0.105-0.047,0.158-0.073
				c0.049-0.027,0.094-0.058,0.143-0.085c0.053-0.03,0.104-0.061,0.15-0.094c0.053-0.033,0.102-0.071,0.15-0.108
				c0.043-0.031,0.086-0.062,0.125-0.096c0.086-0.066,0.166-0.142,0.242-0.218c0.004-0.005,0.012-0.009,0.016-0.015l35.623-35.623
				c0.006-0.004,0.008-0.01,0.014-0.016c0.078-0.077,0.15-0.158,0.221-0.242c0.033-0.042,0.063-0.083,0.096-0.125
				c0.037-0.052,0.076-0.102,0.109-0.151c0.031-0.05,0.063-0.102,0.096-0.154c0.025-0.046,0.057-0.093,0.082-0.141
				c0.025-0.054,0.053-0.108,0.076-0.162c0.023-0.05,0.049-0.099,0.07-0.148c0.021-0.055,0.039-0.106,0.059-0.161
				c0.021-0.056,0.041-0.109,0.059-0.164c0.018-0.057,0.027-0.108,0.041-0.163c0.016-0.058,0.031-0.112,0.043-0.169
				c0.012-0.064,0.02-0.128,0.027-0.193c0.01-0.049,0.018-0.097,0.021-0.146c0.01-0.117,0.02-0.233,0.018-0.352V37.262
				c0-1.94-1.572-3.517-3.516-3.517h-22.734v-7.968h34.221L157.494,219.362L157.494,219.362z"/>
		</g>
	</g>
	<g>
		<g>
			<path fill="#3D4A5A" d="M82.263,67.497c-24.685,0-44.765,20.081-44.765,44.763c0,24.684,20.08,44.764,44.765,44.764
				c24.684,0,44.764-20.08,44.764-44.764C127.027,87.577,106.947,67.497,82.263,67.497z M82.263,149.992
				c-20.807,0-37.731-16.926-37.731-37.732c0-20.806,16.927-37.73,37.731-37.73c20.805,0,37.731,16.926,37.731,37.73
				C119.996,133.066,103.068,149.992,82.263,149.992z"/>
		</g>
	</g>
	<g>
		<g>
			<path fill="#3D4A5A" d="M103.498,93.837c-1.373-1.374-3.598-1.374-4.971,0l-30.326,30.326l-8.763-8.764
				c-1.373-1.372-3.6-1.372-4.973,0c-1.373,1.374-1.373,3.599,0,4.972l11.25,11.249c0.688,0.687,1.586,1.031,2.483,1.031
				c0.899,0,1.801-0.346,2.485-1.031l32.811-32.812C104.871,97.435,104.871,95.21,103.498,93.837z"/>
		</g>
	</g>
</g>
</svg>
