<?xml version="1.0" encoding="utf-8"?>
<!-- Generator: Adobe Illustrator 21.0.0, SVG Export Plug-In . SVG Version: 6.00 Build 0)  -->
<svg version="1.1" id="Слой_1" xmlns="http://www.w3.org/2000/svg" xmlns:xlink="http://www.w3.org/1999/xlink" x="0px" y="0px"
	 viewBox="0 0 164.5 226.4" style="enable-background:new 0 0 164.5 226.4;" xml:space="preserve">
<style type="text/css">
	.st0{fill:#3D4A5A;}
</style>
<path id="Слой_7" class="st0" d="M161,18.8h-41.2h-12.5C104.1,7.7,94,0,82.3,0c-11.7,0-21.8,7.7-25,18.8H44.8H3.5
	c-1.9,0-3.5,1.6-3.5,3.5v200.6c0,1.9,1.6,3.5,3.5,3.5H161c1.9,0,3.5-1.6,3.5-3.5V22.3C164.5,20.3,163,18.8,161,18.8z M48.3,37.3
	V25.8h11.8c0,0,0,0,0.1,0c0.1,0,0.2,0,0.2,0c0,0,0.1,0,0.1,0c0.1,0,0.1,0,0.2,0c0,0,0.1,0,0.1,0c0.1,0,0.1,0,0.2-0.1
	c0,0,0.1,0,0.1,0c0.1,0,0.1,0,0.2-0.1c0,0,0.1,0,0.1-0.1c0.1,0,0.1-0.1,0.2-0.1c0,0,0.1,0,0.1-0.1c0.1,0,0.1-0.1,0.2-0.1
	c0,0,0.1,0,0.1-0.1c0.1,0,0.1-0.1,0.2-0.1c0,0,0.1-0.1,0.1-0.1c0.1,0,0.1-0.1,0.2-0.1c0,0,0.1-0.1,0.1-0.1c0.1-0.1,0.1-0.1,0.1-0.2
	c0,0,0.1-0.1,0.1-0.1c0-0.1,0.1-0.1,0.1-0.2c0,0,0.1-0.1,0.1-0.1c0-0.1,0.1-0.1,0.1-0.2c0,0,0.1-0.1,0.1-0.1c0-0.1,0.1-0.1,0.1-0.2
	s0-0.1,0.1-0.2c0,0,0-0.1,0.1-0.1c0-0.1,0-0.1,0.1-0.2c0,0,0-0.1,0-0.1c0-0.1,0-0.1,0-0.2c0,0,0,0,0-0.1C65.1,13.7,73,7,82.3,7
	s17.2,6.7,18.7,15.8c0,0,0,0,0,0.1c0,0.1,0,0.1,0,0.2c0,0.1,0,0.1,0,0.2c0,0.1,0,0.1,0.1,0.2c0,0.1,0,0.1,0.1,0.2c0,0,0,0.1,0.1,0.1
	c0,0.1,0.1,0.1,0.1,0.2c0,0,0,0.1,0.1,0.1c0,0.1,0.1,0.1,0.1,0.2c0,0,0,0.1,0.1,0.1c0,0.1,0.1,0.1,0.1,0.2c0,0,0,0,0.1,0.1
	c0.1,0.1,0.1,0.2,0.2,0.2c0,0,0,0,0,0c0.1,0.1,0.2,0.1,0.2,0.2c0,0,0.1,0.1,0.1,0.1c0.1,0,0.1,0.1,0.2,0.1c0,0,0.1,0.1,0.1,0.1
	c0,0,0.1,0.1,0.1,0.1c0,0,0.1,0,0.1,0.1c0,0,0.1,0,0.1,0.1c0,0,0.1,0,0.1,0.1c0.1,0,0.1,0,0.2,0.1c0,0,0.1,0,0.1,0
	c0.1,0,0.1,0,0.2,0c0,0,0.1,0,0.1,0c0.1,0,0.2,0,0.3,0c0,0,0.1,0,0.1,0c0.1,0,0.2,0,0.3,0c0,0,0,0,0,0h11.8v11.5v9.6h-68L48.3,37.3
	L48.3,37.3L48.3,37.3z M44.8,53.9h75c1.9,0,3.5-1.6,3.5-3.5v-9.6h19.2v129.8h-32.1c-1.9,0-3.5,1.6-3.5,3.5v32.1H22V40.8h19.2v9.6
	C41.3,52.3,42.8,53.9,44.8,53.9z M137.5,177.6l-23.6,23.6v-23.6H137.5z M157.5,219.4H7V25.8h34.2v8H18.5c-1.9,0-3.5,1.6-3.5,3.5
	v172.5c0,1.9,1.6,3.5,3.5,3.5h91.9c0.1,0,0.2,0,0.3,0c0.1,0,0.1,0,0.2,0c0.1,0,0.1,0,0.2,0c0.1,0,0.1,0,0.2,0c0.1,0,0.1,0,0.2,0
	c0.1,0,0.1,0,0.2-0.1c0.1,0,0.1,0,0.2-0.1c0.1,0,0.1,0,0.2-0.1c0.1,0,0.1,0,0.2-0.1c0,0,0.1-0.1,0.1-0.1c0.1,0,0.1-0.1,0.2-0.1
	c0.1,0,0.1-0.1,0.2-0.1c0,0,0.1-0.1,0.1-0.1c0.1-0.1,0.2-0.1,0.2-0.2c0,0,0,0,0,0l35.6-35.6c0,0,0,0,0,0c0.1-0.1,0.1-0.2,0.2-0.2
	c0,0,0.1-0.1,0.1-0.1c0-0.1,0.1-0.1,0.1-0.2c0-0.1,0.1-0.1,0.1-0.2c0,0,0.1-0.1,0.1-0.1c0-0.1,0.1-0.1,0.1-0.2c0-0.1,0-0.1,0.1-0.1
	c0-0.1,0-0.1,0.1-0.2c0-0.1,0-0.1,0.1-0.2c0-0.1,0-0.1,0-0.2c0-0.1,0-0.1,0-0.2c0-0.1,0-0.1,0-0.2c0,0,0-0.1,0-0.1
	c0-0.1,0-0.2,0-0.4V37.3c0-1.9-1.6-3.5-3.5-3.5h-22.7v-8h34.2L157.5,219.4L157.5,219.4z M82.3,67.5c-24.7,0-44.8,20.1-44.8,44.8
	c0,24.7,20.1,44.8,44.8,44.8c24.7,0,44.8-20.1,44.8-44.8C127,87.6,106.9,67.5,82.3,67.5z M82.3,150c-20.8,0-37.7-16.9-37.7-37.7
	s16.9-37.7,37.7-37.7c20.8,0,37.7,16.9,37.7,37.7C120,133.1,103.1,150,82.3,150z M103.5,93.8c-1.4-1.4-3.6-1.4-5,0l-30.3,30.3
	l-8.8-8.8c-1.4-1.4-3.6-1.4-5,0c-1.4,1.4-1.4,3.6,0,5l11.3,11.2c0.7,0.7,1.6,1,2.5,1c0.9,0,1.8-0.3,2.5-1l32.8-32.8
	C104.9,97.4,104.9,95.2,103.5,93.8z"/>
</svg>
