<?xml version="1.0" encoding="utf-8"?>
<!-- Generator: Adobe Illustrator 21.0.0, SVG Export Plug-In . SVG Version: 6.00 Build 0)  -->
<svg version="1.1" id="Слой_1" xmlns="http://www.w3.org/2000/svg" xmlns:xlink="http://www.w3.org/1999/xlink" x="0px" y="0px"
	 viewBox="0 0 595.3 583.3" style="enable-background:new 0 0 595.3 583.3;" xml:space="preserve">
<style type="text/css">
	.st0{fill:#FFFFFF;stroke:#000000;stroke-miterlimit:10;}
	.st1{fill:#3D4A5A;}
</style>
<g id="Слой_2">
	<rect y="0" class="st0" width="595.3" height="582.6"/>
</g>
<g id="Capa_1">
	<g>
		<path id="rect34754" class="st1" d="M174.8,0c-3,0.1-5.8,1.3-7.9,3.4L132,38.3c-4.6,4.5-4.7,11.9-0.2,16.5
			c4.5,4.6,11.9,4.7,16.5,0.2c0.1-0.1,0.1-0.1,0.2-0.2l15.1-15.1v100h-23.3c-6.4-0.1-11.7,5-11.8,11.5c-0.1,6.4,5,11.7,11.5,11.8
			c0.1,0,0.2,0,0.3,0h33c1.2,0.2,2.5,0.2,3.8,0h21.4c6.4,0.1,11.7-5,11.8-11.5c0.1-6.4-5-11.7-11.5-11.8c-0.1,0-0.2,0-0.3,0h-11.6
			V11.6c0-6.4-5.2-11.6-11.6-11.6C175,0,174.9,0,174.8,0z M303.2,0c-3,0.1-5.8,1.3-7.9,3.4l-34.9,34.9c-4.6,4.5-4.8,11.8-0.3,16.5
			c4.5,4.6,11.8,4.8,16.5,0.3c0.1-0.1,0.2-0.2,0.3-0.3l15.1-15.1v100h-23.3c-6.4-0.1-11.7,5-11.8,11.5c-0.1,6.4,5,11.7,11.5,11.8
			c0.1,0,0.2,0,0.3,0h33c1.3,0.2,2.5,0.2,3.8,0h21.4c6.4,0.1,11.7-5,11.8-11.5c0.1-6.4-5-11.7-11.5-11.8c-0.1,0-0.2,0-0.3,0h-11.6
			V11.6C315.2,5.2,310,0,303.5,0C303.4,0,303.3,0,303.2,0z M40.9,0.1C18.5,0.1,0.2,18.5,0.2,40.8v81.5c0,22.4,18.4,40.8,40.8,40.8
			s40.8-18.4,40.8-40.8V40.8C81.7,18.5,63.3,0.1,40.9,0.1z M426.1,0.1c-22.4,0-40.8,18.4-40.8,40.8v81.5c0,22.4,18.4,40.8,40.8,40.8
			s40.8-18.4,40.8-40.8V40.8C466.9,18.5,448.5,0.1,426.1,0.1z M554.5,0.1c-22.4,0-40.8,18.4-40.8,40.8v81.5
			c0,22.4,18.4,40.8,40.8,40.8s40.8-18.4,40.8-40.8V40.8C595.3,18.5,576.9,0.1,554.5,0.1z M40.9,23.4c9.9,0,17.5,7.6,17.5,17.5v81.5
			c0,9.9-7.6,17.5-17.5,17.5s-17.5-7.6-17.5-17.5V40.8C23.5,31,31,23.4,40.9,23.4z M426.1,23.4c9.9,0,17.5,7.6,17.5,17.5v81.5
			c0,9.9-7.6,17.5-17.5,17.5s-17.5-7.6-17.5-17.5V40.8C408.7,31,416.2,23.4,426.1,23.4z M554.5,23.4c9.9,0,17.5,7.6,17.5,17.5v81.5
			c0,9.9-7.6,17.5-17.5,17.5s-17.5-7.6-17.5-17.5V40.8C537.1,31,544.7,23.4,554.5,23.4z M46.4,209.7c-3,0.1-5.8,1.3-7.9,3.4
			L3.6,248.1c-4.5,4.5-4.5,11.9,0,16.5c4.5,4.5,11.9,4.5,16.5,0l15-15v100H11.8c-6.4-0.1-11.7,5-11.8,11.5
			c-0.1,6.4,5,11.7,11.5,11.8c0.1,0,0.2,0,0.3,0h33c1.3,0.2,2.5,0.2,3.8,0H70c6.4,0.1,11.7-5,11.8-11.5c0.1-6.4-5-11.7-11.5-11.8
			c-0.1,0-0.2,0-0.3,0H58.4V221.4c0-6.4-5.2-11.6-11.6-11.6C46.6,209.7,46.5,209.7,46.4,209.7z M303.2,209.7c-3,0.1-5.8,1.3-7.9,3.4
			l-34.9,34.9c-4.6,4.5-4.7,11.9-0.2,16.5c4.5,4.6,11.9,4.7,16.5,0.2c0.1-0.1,0.1-0.1,0.2-0.2l15.1-15.1v100h-23.3
			c-6.4-0.1-11.7,5-11.8,11.5c-0.1,6.4,5,11.7,11.5,11.8c0.1,0,0.2,0,0.3,0h33c1.3,0.2,2.5,0.2,3.8,0h21.4c6.4,0.1,11.7-5,11.8-11.5
			c0.1-6.4-5-11.7-11.5-11.8c-0.1,0-0.2,0-0.3,0h-11.6V221.4c0-6.4-5.2-11.6-11.6-11.6C303.4,209.7,303.3,209.7,303.2,209.7z
			 M431.6,209.7c-3,0.1-5.8,1.3-7.9,3.4l-34.9,34.9c-4.6,4.5-4.7,11.9-0.2,16.5c4.5,4.6,11.9,4.7,16.5,0.2c0.1-0.1,0.1-0.1,0.2-0.2
			l15.1-15.1v100H397c-6.4-0.1-11.7,5-11.8,11.5c-0.1,6.4,5,11.7,11.5,11.8c0.1,0,0.2,0,0.3,0h33c1.3,0.2,2.5,0.2,3.8,0h21.4
			c6.4,0.1,11.7-5,11.8-11.5c0.1-6.4-5-11.7-11.5-11.8c-0.1,0-0.2,0-0.3,0h-11.6V221.4c0-6.4-5.2-11.6-11.6-11.6
			C431.8,209.7,431.7,209.7,431.6,209.7z M169.3,209.8c-22.4,0-40.8,18.4-40.8,40.8v81.5c0,22.4,18.4,40.8,40.8,40.8
			s40.8-18.4,40.8-40.8v-81.5C210.1,228.2,191.7,209.8,169.3,209.8z M554.5,209.8c-22.4,0-40.8,18.4-40.8,40.8v81.5
			c0,22.4,18.4,40.8,40.8,40.8s40.8-18.4,40.8-40.8v-81.5C595.3,228.2,576.9,209.8,554.5,209.8z M169.3,233.1
			c9.9,0,17.5,7.6,17.5,17.5v81.5c0,9.9-7.6,17.5-17.5,17.5s-17.5-7.6-17.5-17.5v-81.5C151.9,240.7,159.4,233.1,169.3,233.1z
			 M554.5,233.1c9.9,0,17.5,7.6,17.5,17.5v81.5c0,9.9-7.6,17.5-17.5,17.5s-17.5-7.6-17.5-17.5v-81.5
			C537.1,240.7,544.7,233.1,554.5,233.1z M46.4,419.5c-3,0.1-5.8,1.3-7.9,3.4L3.6,457.8c-4.5,4.5-4.5,11.9,0,16.5s11.9,4.5,16.5,0
			l15-15v100H11.8c-6.4-0.1-11.7,5-11.8,11.5c-0.1,6.4,5,11.7,11.5,11.8c0.1,0,0.2,0,0.3,0h33c1.3,0.2,2.5,0.2,3.8,0H70
			c6.4,0.1,11.7-5,11.8-11.5c0.1-6.4-5-11.7-11.5-11.8c-0.1,0-0.2,0-0.3,0H58.4V431.1c0-6.4-5.2-11.6-11.6-11.6
			C46.6,419.5,46.5,419.5,46.4,419.5z M174.8,419.5c-3,0.1-5.8,1.3-7.9,3.4L132,457.8c-4.5,4.5-4.5,11.9,0,16.5
			c4.5,4.5,11.9,4.5,16.5,0l15.1-15v100h-23.3c-6.4-0.1-11.7,5-11.8,11.5c-0.1,6.4,5,11.7,11.5,11.8c0.1,0,0.2,0,0.3,0h33
			c1.2,0.2,2.5,0.2,3.8,0h21.4c6.4,0.1,11.7-5,11.8-11.5c0.1-6.4-5-11.7-11.5-11.8c-0.1,0-0.2,0-0.3,0h-11.6V431.1
			c0-6.4-5.2-11.6-11.6-11.6C175,419.5,174.9,419.5,174.8,419.5z M303.2,419.5c-3,0.1-5.8,1.3-7.9,3.4l-34.9,34.9
			c-4.6,4.5-4.7,11.9-0.2,16.5c4.5,4.6,11.9,4.7,16.5,0.2c0.1-0.1,0.1-0.1,0.2-0.2l15.1-15.1v100h-23.3c-6.4-0.1-11.7,5-11.8,11.5
			c-0.1,6.4,5,11.7,11.5,11.8c0.1,0,0.2,0,0.3,0h33c1.3,0.2,2.5,0.2,3.8,0h21.4c6.4,0.1,11.7-5,11.8-11.5c0.1-6.4-5-11.7-11.5-11.8
			c-0.1,0-0.2,0-0.3,0h-11.6V431.1c0-6.4-5.2-11.6-11.6-11.6C303.4,419.5,303.3,419.5,303.2,419.5z M431.6,419.5
			c-3,0.1-5.8,1.3-7.9,3.4l-34.9,34.9c-4.6,4.5-4.7,11.9-0.2,16.5c4.5,4.6,11.9,4.7,16.5,0.2c0.1-0.1,0.1-0.1,0.2-0.2l15.1-15.1v100
			H397c-6.4-0.1-11.7,5-11.8,11.5c-0.1,6.4,5,11.7,11.5,11.8c0.1,0,0.2,0,0.3,0h33c1.3,0.2,2.5,0.2,3.8,0h21.4
			c6.4,0.1,11.7-5,11.8-11.5c0.1-6.4-5-11.7-11.5-11.8c-0.1,0-0.2,0-0.3,0h-11.6V431.1c0-6.4-5.2-11.6-11.6-11.6
			C431.8,419.5,431.7,419.5,431.6,419.5z M554.5,419.6c-22.4,0-40.8,18.4-40.8,40.8v81.5c0,22.4,18.4,40.8,40.8,40.8
			s40.8-18.4,40.8-40.8v-81.5C595.3,437.9,576.9,419.6,554.5,419.6z M554.5,442.8c9.9,0,17.5,7.6,17.5,17.5v81.5
			c0,9.9-7.6,17.5-17.5,17.5s-17.5-7.6-17.5-17.5v-81.5C537.1,450.4,544.7,442.8,554.5,442.8z"/>
	</g>
</g>
</svg>
