<?xml version="1.0" encoding="utf-8"?>
<!-- Generator: Adobe Illustrator 21.0.0, SVG Export Plug-In . SVG Version: 6.00 Build 0)  -->
<svg version="1.1" id="Слой_1" xmlns="http://www.w3.org/2000/svg" xmlns:xlink="http://www.w3.org/1999/xlink" x="0px" y="0px"
	 viewBox="0 0 401 361" style="enable-background:new 0 0 401 361;" xml:space="preserve">
<style type="text/css">
	.st0{fill:none;stroke:#FF141F;stroke-width:4;stroke-miterlimit:10;}
</style>
<title>bone</title>
<g>
	<path class="st0" d="M87.1,167.2c-10.1,6.2-15.5,13.3-16,21.3L42.8,293.2c-0.1,0.3-0.2,0.7-0.2,1.1c-0.6,1.2-0.9,2.4-0.9,3.8
		c0,16.5,18.8,30.4,54.5,40.3c32,8.9,74.5,13.8,119.6,13.8c40.6-0.1,81-5.3,120.3-15.4c12.7-3.2,25.2-7.2,37.4-11.9
		c15.2-6.1,17.6-9.1,18.9-11.9c0.7-1.7,0.9-3.6,0.4-5.3l0,0l-32.3-119c-0.9-13.9-16.3-25.1-45.9-33.3C288.1,148,253,144,215.8,144
		c-8.7,0-17.6,0.3-26.7,0.7l-28.7-42.9c21.7-20.3,22.7-54.4,2.4-76c-18.1-19.5-47.5-22.7-69.4-7.9c-11.3,7.6-19.2,19.3-22.2,32.6
		C41.9,46,14.5,66.1,10,95.5c-4.4,28.4,14.4,55.2,42.6,60.8c11.5,2.3,23.5,0.7,34-4.5l7.8,11.4C91.7,164.5,89.3,165.8,87.1,167.2
		 M205,159.9c3.6-0.1,7.2-0.1,10.8-0.1l0,0c35.8,0,69.4,3.8,94.5,10.8c27,7.5,34.2,15.8,34.2,19.1c0,3.9-9.1,12.1-34.2,19.1
		c-19.6,5.4-44.3,9-71.2,10.3l-39.6-59C201.3,160,203.1,159.9,205,159.9 M90.8,133.3c-1.9-0.5-3.9-0.3-5.7,0.7l0,0
		c-0.6,0.3-1.1,0.7-1.6,1.1c-17.4,11.6-40.8,6.9-52.4-10.5s-6.9-40.8,10.5-52.4c9.9-6.6,22.4-8.1,33.6-4.2c4.2,1.5,8.7-0.7,10.2-4.9
		c0.3-0.7,0.4-1.5,0.4-2.3c0.4-12,6.5-23,16.4-29.7c17.2-11.8,40.7-7.4,52.5,9.8s7.4,40.7-9.8,52.5c-3.6,2.5-4.5,7.4-2.1,11
		L220,219.5h-4.4c-22.6,0.1-45.1-1.6-67.4-5c-0.2-0.6-0.5-1.2-0.9-1.7l-51.9-76.3C94.4,134.9,92.7,133.8,90.8,133.3 M95.4,180.8
		c2.1-1.3,4.8-2.7,8-4.1l0,0l22.7,33.4c-1.7-0.4-3.4-0.9-5-1.3c-25.1-7-34.2-15.3-34.2-19.1C87,188,89,184.7,95.4,180.8
		 M327.6,322.3c-36.6,9-74.1,13.6-111.8,13.8c-43.7,0-84.6-4.7-115.3-13.2c-28.4-7.9-41.8-17.6-42.7-24.1c0.2-0.4,0.4-0.9,0.5-1.4
		l23.8-88.5c7.7,5.9,19.3,11,34.8,15.3c26.5,7.4,61.6,11.4,98.8,11.4s72.3-4.1,98.8-11.4c15.5-4.3,27.1-9.4,34.8-15.4l26.4,97.4
		C369.2,309.5,353.1,315.9,327.6,322.3L327.6,322.3z"/>
</g>
</svg>
