<svg xmlns="http://www.w3.org/2000/svg" xmlns:xlink="http://www.w3.org/1999/xlink" viewBox="0 0 384.01 343.32"><title>bone</title><g class="cls-2"><path fill="#ff141f" d="M383.73,299.39l-32.27-119c-.85-13.9-16.26-25.11-45.86-33.32-26.5-7.35-61.59-11.41-98.82-11.41-8.67,0-17.64.26-26.7.74L151.38,93.53A53.78,53.78,0,0,0,84.4,9.8a53.15,53.15,0,0,0-22.18,32.6A53.74,53.74,0,0,0,43.61,148.23a53.31,53.31,0,0,0,34-4.53l7.79,11.45c-14.87,7-22.68,15.49-23.28,25.2L33.85,285.07a8.62,8.62,0,0,0-.2,1.06,8,8,0,0,0-.93,3.75c0,16.46,18.84,30.38,54.5,40.26,32,8.88,74.5,13.77,119.57,13.77a485.78,485.78,0,0,0,120.31-15.41,321.1,321.1,0,0,0,37.38-11.89c15.23-6.06,17.61-9.09,18.86-11.91a8,8,0,0,0,.4-5.32Zm-177-147.77c35.82,0,69.4,3.84,94.54,10.82,27,7.5,34.18,15.79,34.18,19.12,0,3.86-9.1,12.14-34.18,19.1-19.61,5.44-44.33,9-71.24,10.27l-39.56-59c5.5-.19,10.95-.3,16.26-.3ZM76.16,125.92A8.92,8.92,0,0,0,74.6,127a37.8,37.8,0,1,1-8.3-67.09A8,8,0,0,0,76.94,52.7,37.53,37.53,0,0,1,93.37,23,37.78,37.78,0,0,1,136.1,85.36a8,8,0,0,0-2.08,11l77.15,115.07-4.39,0a428.79,428.79,0,0,1-67.44-5,8,8,0,0,0-.87-1.7L86.55,128.47a8,8,0,0,0-10.39-2.56Zm18.32,42.65L117.22,202q-2.55-.64-5-1.32C87.13,193.7,78,185.43,78,181.56c0-2.25,3.57-7.36,16.45-13Zm224.07,145.6a471.45,471.45,0,0,1-111.77,13.75c-43.67,0-84.61-4.68-115.3-13.19-28.43-7.88-41.75-17.61-42.71-24.1a8.19,8.19,0,0,0,.52-1.4l23.84-88.49q11.5,8.85,34.79,15.34c26.51,7.36,61.61,11.41,98.85,11.41s72.31-4.05,98.82-11.41q23.29-6.46,34.81-15.35l26.41,97.41c-6.66,3.3-22.74,9.7-48.27,16Zm0,0"/></g></svg>