<?xml version="1.0" encoding="utf-8"?>
<!-- Generator: Adobe Illustrator 21.0.0, SVG Export Plug-In . SVG Version: 6.00 Build 0)  -->
<svg version="1.1" id="Слой_1" xmlns="http://www.w3.org/2000/svg" xmlns:xlink="http://www.w3.org/1999/xlink" x="0px" y="0px"
	 viewBox="0 0 841 1080" style="enable-background:new 0 0 841 1080;" xml:space="preserve">
<style type="text/css">
	.st0{fill:#3D4A5A;}
</style>
<path id="Layer_1" class="st0" d="M129.8,670.8c-56.1,0-101.7,45.6-101.7,101.7s45.6,101.7,101.7,101.7s101.7-45.6,101.7-101.7
	C231.6,716.4,185.9,670.8,129.8,670.8z M129.8,840.7c-37.6,0-68.2-30.6-68.2-68.2c0-37.6,30.6-68.2,68.2-68.2S198,735,198,772.6
	C198,810.2,167.4,840.7,129.8,840.7z M125.4,878.5C56.2,878.5,0,934.7,0,1003.8v59.4c0,9.3,7.5,16.8,16.8,16.8h215.9
	c9.1,0,16.6-7.3,16.8-16.4l1.3-59.4c0-0.1,0-0.2,0-0.4C250.7,934.7,194.5,878.5,125.4,878.5z M216.3,1046.5H33.5v-42.6
	c0-50.6,41.2-91.8,91.8-91.8c50.6,0,91.7,41.1,91.8,91.7L216.3,1046.5z M711.2,670.8c-56.1,0-101.7,45.6-101.7,101.7
	s45.6,101.7,101.7,101.7s101.7-45.6,101.7-101.7C812.9,716.4,767.3,670.8,711.2,670.8z M711.2,840.7c-37.6,0-68.2-30.6-68.2-68.2
	c0-37.6,30.6-68.2,68.2-68.2c37.6,0,68.2,30.6,68.2,68.2C779.4,810.2,748.8,840.7,711.2,840.7z M715.7,878.5
	c-69.1,0-125.4,56.2-125.4,125.4c0,0.1,0,0.2,0,0.4l1.3,59.4c0.2,9.1,7.6,16.4,16.8,16.4h215.9c9.3,0,16.8-7.5,16.8-16.8v-59.4
	C841,934.7,784.8,878.5,715.7,878.5z M624.8,1046.5l-0.9-42.8c0.1-50.6,41.3-91.7,91.8-91.7c50.6,0,91.8,41.2,91.8,91.8v42.6
	L624.8,1046.5L624.8,1046.5z M423.7,670.8c-56.1,0-101.7,45.6-101.7,101.7s45.6,101.7,101.7,101.7c56.1,0,101.7-45.6,101.7-101.7
	C525.5,716.4,479.8,670.8,423.7,670.8z M423.7,840.7c-37.6,0-68.2-30.6-68.2-68.2c0-37.6,30.6-68.2,68.2-68.2
	c37.6,0,68.2,30.6,68.2,68.2C491.9,810.2,461.3,840.7,423.7,840.7z M419.3,878.5c-69.1,0-125.4,56.2-125.4,125.4v59.4
	c0,9.3,7.5,16.8,16.8,16.8h215.9c9.1,0,16.6-7.3,16.8-16.4l1.3-59.4c0-0.1,0-0.2,0-0.4C544.6,934.7,488.4,878.5,419.3,878.5z
	 M510.2,1046.5H327.4v-42.6c0-50.6,41.2-91.8,91.8-91.8c50.6,0,91.7,41.1,91.8,91.7L510.2,1046.5z M547.5,175.1
	c-1.1-7-2.8-13.9-5.1-20.6c-3-8.8-12.5-13.5-21.3-10.5c-8.8,3-13.5,12.5-10.5,21.3c1.7,4.9,2.9,10,3.8,15.2
	c1.3,8.2,8.5,14.1,16.5,14.1c0.9,0,1.8-0.1,2.7-0.2C542.7,192.8,548.9,184.2,547.5,175.1z M519.2,113.3
	c-24.6-29.4-60.5-46.3-98.7-46.3c-9.3,0-16.8,7.5-16.8,16.8c0,9.3,7.5,16.8,16.8,16.8c28.2,0,54.8,12.5,73,34.2c3.3,4,8.1,6,12.9,6
	c3.8,0,7.6-1.3,10.7-3.9C524.2,131,525.2,120.5,519.2,113.3z M697.8,563.5H437.3v-47h54.8c9.3,0,16.8-7.5,16.8-16.8v-62.6v-62.6
	c0-1.4-0.2-2.8-0.5-4.1c63.9-32.2,107.8-98.5,107.8-174.8C616.2,87.8,528.4,0,420.5,0S224.9,87.8,224.9,195.7
	c0,76.3,43.9,142.6,107.8,174.8c-0.3,1.3-0.5,2.7-0.5,4.1v62.6v62.6c0,9.3,7.5,16.8,16.8,16.8h54.8v47H125.4
	c-9.3,0-16.8,7.5-16.8,16.8V625c0,9.3,7.5,16.8,16.8,16.8c9.3,0,16.8-7.5,16.8-16.8V597h261.6V625c0,9.3,7.5,16.8,16.8,16.8
	c9.3,0,16.8-7.5,16.8-16.8V597H681V625c0,9.3,7.5,16.8,16.8,16.8c9.3,0,16.8-7.5,16.8-16.8v-44.7C714.6,571,707.1,563.5,697.8,563.5
	z M475.3,420.4H365.7v-29.1h54.8h54.8L475.3,420.4L475.3,420.4z M392.6,355.3v-125h55.9v125c-9.1,1.6-18.4,2.5-28,2.5
	S401.7,356.9,392.6,355.3z M359,186.7v10.1h-19c-9.3,0-16.8,7.5-16.8,16.8c0,9.3,7.5,16.8,16.8,16.8h19v115.3
	c-59-24.3-100.6-82.3-100.6-150c0-89.4,72.7-162.1,162.1-162.1s162.1,72.7,162.1,162.1c0,67.6-41.6,125.7-100.6,150V230.3h19
	c9.3,0,16.8-7.5,16.8-16.8c0-9.3-7.5-16.8-16.8-16.8h-19v-10.1c0-9.3-7.5-16.8-16.8-16.8s-16.8,7.5-16.8,16.8v10.1h-55.9v-10.1
	c0-9.3-7.5-16.8-16.8-16.8C366.5,169.9,359,177.4,359,186.7z M420.5,483h-54.8v-29.1h109.6V483H420.5z M150.6,125.4H81
	c-9.3,0-16.8,7.5-16.8,16.8c0,9.3,7.5,16.8,16.8,16.8h69.6c9.3,0,16.8-7.5,16.8-16.8C167.4,132.9,159.9,125.4,150.6,125.4z
	 M181.9,187.2c-6.6-6.5-17.2-6.5-23.7,0l-44.3,44.3c-6.6,6.6-6.6,17.2,0,23.7c3.3,3.3,7.6,4.9,11.9,4.9c4.3,0,8.6-1.6,11.9-4.9
	l44.3-44.3C188.4,204.4,188.4,193.8,181.9,187.2z M181.4,73.4l-44.3-44.3c-6.6-6.5-17.2-6.5-23.7,0c-6.6,6.6-6.6,17.2,0,23.7
	l44.3,44.3c3.3,3.3,7.6,4.9,11.9,4.9s8.6-1.6,11.9-4.9C188,90.5,188,79.9,181.4,73.4z M777.9,125.4h-69.6c-9.3,0-16.8,7.5-16.8,16.8
	c0,9.3,7.5,16.8,16.8,16.8h69.6c9.3,0,16.8-7.5,16.8-16.8C794.7,132.9,787.2,125.4,777.9,125.4z M745,231.5l-44.3-44.3
	c-6.6-6.5-17.2-6.5-23.7,0c-6.5,6.6-6.5,17.2,0,23.7l44.3,44.3c3.3,3.3,7.6,4.9,11.9,4.9c4.3,0,8.6-1.6,11.9-4.9
	C751.6,248.6,751.6,238,745,231.5z M745.5,29.1c-6.6-6.5-17.2-6.5-23.7,0l-44.3,44.3c-6.5,6.6-6.5,17.2,0,23.7
	c3.3,3.3,7.6,4.9,11.9,4.9c4.3,0,8.6-1.6,11.9-4.9l44.3-44.3C752,46.3,752,35.6,745.5,29.1z"/>
</svg>
