<?xml version="1.0" encoding="utf-8"?>
<!-- Generator: Adobe Illustrator 21.0.0, SVG Export Plug-In . SVG Version: 6.00 Build 0)  -->
<svg version="1.1" id="Слой_1" xmlns="http://www.w3.org/2000/svg" xmlns:xlink="http://www.w3.org/1999/xlink" x="0px" y="0px"
	 viewBox="0 0 517 633" style="enable-background:new 0 0 517 633;" xml:space="preserve">
<style type="text/css">
	.st0{fill:#FFFFFF;}
	.st1{fill:#3D4A5A;}
</style>
<g id="Слой_2">
	<ellipse class="st0" cx="253.6" cy="127" rx="93.6" ry="98.5"/>
	<rect x="212.1" y="225.5" class="st0" width="77" height="68"/>
	<ellipse class="st0" cx="94.1" cy="443" rx="45" ry="45.5"/>
	<ellipse class="st0" cx="255.1" cy="443" rx="43" ry="45.5"/>
	<ellipse class="st0" cx="411.5" cy="446.5" rx="48.4" ry="49"/>
	<path class="st0" d="M478.1,611.5c-33.6-14-31.6-7-66.6-7s-53.7,24-53.7-7c0-59.6,23.8-87,58.9-87
		C486,510.5,486.1,614.9,478.1,611.5z"/>
</g>
<g id="Layer_1">
	<g>
		<g>
			<path class="st1" d="M93.4,390.1c-30.9,0-56.1,25.2-56.1,56.1c0,30.9,25.2,56.1,56.1,56.1c30.9,0,56.1-25.2,56.1-56.1
				S124.3,390.1,93.4,390.1z M93.4,483.8c-20.7,0-37.6-16.9-37.6-37.6c0-20.7,16.9-37.6,37.6-37.6c20.7,0,37.6,16.9,37.6,37.6
				C131,466.9,114.1,483.8,93.4,483.8z"/>
		</g>
	</g>
	<g>
		<g>
			<path class="st1" d="M91,504.6c-38.1,0-69.1,31-69.1,69.1v32.7c0,5.1,4.1,9.2,9.2,9.2h119c5,0,9.1-4,9.2-9l0.7-32.7
				c0-0.1,0-0.1,0-0.2C160.1,535.6,129.1,504.6,91,504.6z M141.1,597.2H40.3v-23.5c0-27.9,22.7-50.6,50.6-50.6
				c27.9,0,50.6,22.7,50.6,50.5L141.1,597.2z"/>
		</g>
	</g>
	<g>
		<g>
			<path class="st1" d="M413.9,390.1c-30.9,0-56.1,25.2-56.1,56.1c0,30.9,25.2,56.1,56.1,56.1c30.9,0,56.1-25.2,56.1-56.1
				S444.8,390.1,413.9,390.1z M413.9,483.8c-20.7,0-37.6-16.9-37.6-37.6c0-20.7,16.9-37.6,37.6-37.6s37.6,16.9,37.6,37.6
				C451.5,466.9,434.6,483.8,413.9,483.8z"/>
		</g>
	</g>
	<g>
		<g>
			<path class="st1" d="M416.3,504.6c-38.1,0-69.1,31-69.1,69.1c0,0.1,0,0.1,0,0.2l0.7,32.7c0.1,5,4.2,9,9.2,9h119
				c5.1,0,9.2-4.1,9.2-9.2v-32.7C485.4,535.6,454.4,504.6,416.3,504.6z M366.2,597.2l-0.5-23.6c0-27.9,22.7-50.5,50.6-50.5
				c27.9,0,50.6,22.7,50.6,50.6v23.5H366.2L366.2,597.2z"/>
		</g>
	</g>
	<g>
		<g>
			<path class="st1" d="M255.4,390.1c-30.9,0-56.1,25.2-56.1,56.1c0,30.9,25.2,56.1,56.1,56.1c30.9,0,56.1-25.2,56.1-56.1
				S286.3,390.1,255.4,390.1z M255.4,483.8c-20.7,0-37.6-16.9-37.6-37.6c0-20.7,16.9-37.6,37.6-37.6c20.7,0,37.6,16.9,37.6,37.6
				C293,466.9,276.1,483.8,255.4,483.8z"/>
		</g>
	</g>
	<g>
		<g>
			<path class="st1" d="M252.9,504.6c-38.1,0-69.1,31-69.1,69.1v32.7c0,5.1,4.1,9.2,9.2,9.2h119c5,0,9.1-4,9.2-9l0.7-32.7
				c0-0.1,0-0.1,0-0.2C322,535.6,291,504.6,252.9,504.6z M303,597.2H202.3v-23.5c0-27.9,22.7-50.6,50.6-50.6
				c27.9,0,50.6,22.7,50.6,50.5L303,597.2z"/>
		</g>
	</g>
	<g>
		<g>
			<path class="st1" d="M323.6,116.9c-0.6-3.8-1.6-7.7-2.8-11.4c-1.6-4.8-6.9-7.4-11.7-5.8c-4.8,1.6-7.4,6.9-5.8,11.7
				c0.9,2.7,1.6,5.5,2.1,8.4c0.7,4.5,4.7,7.8,9.1,7.8c0.5,0,1,0,1.5-0.1C321,126.7,324.4,121.9,323.6,116.9z"/>
		</g>
	</g>
	<g>
		<g>
			<path class="st1" d="M308.1,82.9c-13.5-16.2-33.4-25.5-54.4-25.5c-5.1,0-9.2,4.1-9.2,9.2s4.1,9.2,9.2,9.2
				c15.5,0,30.2,6.9,40.2,18.9c1.8,2.2,4.5,3.3,7.1,3.3c2.1,0,4.2-0.7,5.9-2.1C310.8,92.6,311.3,86.8,308.1,82.9z"/>
		</g>
	</g>
	<g>
		<g>
			<path class="st1" d="M406.5,331H262.9v-25.9h30.2c5.1,0,9.2-4.1,9.2-9.2v-34.5v-34.5c0-0.8-0.1-1.5-0.3-2.2
				c35.2-17.8,59.4-54.3,59.4-96.4c0-59.5-48.4-107.8-107.8-107.8c-59.5,0-107.8,48.4-107.8,107.8c0,42.1,24.2,78.6,59.4,96.4
				c-0.2,0.7-0.3,1.5-0.3,2.2v34.5v34.5c0,5.1,4.1,9.2,9.2,9.2h30.2V331H91c-5.1,0-9.2,4.1-9.2,9.2v24.6c0,5.1,4.1,9.2,9.2,9.2
				c5.1,0,9.2-4.1,9.2-9.2v-15.4h144.2v15.4c0,5.1,4.1,9.2,9.2,9.2s9.2-4.1,9.2-9.2v-15.4h134.3v15.4c0,5.1,4.1,9.2,9.2,9.2
				c5.1,0,9.2-4.1,9.2-9.2v-24.6C415.7,335.1,411.6,331,406.5,331z M283.8,252.1h-60.4v-16h30.2h30.2L283.8,252.1L283.8,252.1z
				 M238.2,216.2v-68.9H269v68.9c-5,0.9-10.1,1.4-15.4,1.4C248.4,217.6,243.2,217.1,238.2,216.2z M219.7,123.3v5.5h-10.5
				c-5.1,0-9.2,4.1-9.2,9.2s4.1,9.2,9.2,9.2h10.5v63.6c-32.5-13.4-55.5-45.4-55.5-82.7c0-49.3,40.1-89.4,89.4-89.4
				c49.3,0,89.4,40.1,89.4,89.4c0,37.3-23,69.3-55.5,82.7v-63.6H298c5.1,0,9.2-4.1,9.2-9.2c0-5.1-4.1-9.2-9.2-9.2h-10.5v-5.5
				c0-5.1-4.1-9.2-9.2-9.2c-5.1,0-9.2,4.1-9.2,9.2v5.5h-30.8v-5.5c0-5.1-4.1-9.2-9.2-9.2C223.9,114.1,219.7,118.2,219.7,123.3z
				 M253.6,286.6h-30.2v-16h60.4v16H253.6z"/>
		</g>
	</g>
	<g>
		<g>
			<path class="st1" d="M104.9,89.5H66.5c-5.1,0-9.2,4.1-9.2,9.2c0,5.1,4.1,9.2,9.2,9.2h38.3c5.1,0,9.2-4.1,9.2-9.2
				C114.1,93.6,110,89.5,104.9,89.5z"/>
		</g>
	</g>
	<g>
		<g>
			<path class="st1" d="M122.1,123.6c-3.6-3.6-9.5-3.6-13.1,0L84.6,148c-3.6,3.6-3.6,9.5,0,13.1c1.8,1.8,4.2,2.7,6.5,2.7
				c2.4,0,4.7-0.9,6.5-2.7l24.4-24.4C125.7,133,125.7,127.2,122.1,123.6z"/>
		</g>
	</g>
	<g>
		<g>
			<path class="st1" d="M121.9,60.8L97.5,36.4c-3.6-3.6-9.5-3.6-13.1,0c-3.6,3.6-3.6,9.5,0,13.1l24.4,24.4c1.8,1.8,4.2,2.7,6.5,2.7
				c2.4,0,4.7-0.9,6.5-2.7C125.5,70.3,125.5,64.4,121.9,60.8z"/>
		</g>
	</g>
	<g>
		<g>
			<path class="st1" d="M450.6,89.5h-38.3c-5.1,0-9.2,4.1-9.2,9.2c0,5.1,4.1,9.2,9.2,9.2h38.3c5.1,0,9.2-4.1,9.2-9.2
				C459.9,93.6,455.7,89.5,450.6,89.5z"/>
		</g>
	</g>
	<g>
		<g>
			<path class="st1" d="M432.5,148l-24.4-24.4c-3.6-3.6-9.5-3.6-13.1,0c-3.6,3.6-3.6,9.5,0,13.1l24.4,24.4c1.8,1.8,4.2,2.7,6.5,2.7
				s4.7-0.9,6.5-2.7C436.1,157.4,436.1,151.6,432.5,148z"/>
		</g>
	</g>
	<g>
		<g>
			<path class="st1" d="M432.8,36.4c-3.6-3.6-9.5-3.6-13.1,0l-24.4,24.4c-3.6,3.6-3.6,9.5,0,13.1c1.8,1.8,4.2,2.7,6.5,2.7
				s4.7-0.9,6.5-2.7l24.4-24.4C436.4,45.9,436.4,40,432.8,36.4z"/>
		</g>
	</g>
</g>
</svg>
