<?xml version="1.0" encoding="utf-8"?>
<!-- Generator: Adobe Illustrator 16.0.0, SVG Export Plug-In . SVG Version: 6.00 Build 0)  -->
<!DOCTYPE svg PUBLIC "-//W3C//DTD SVG 1.1//EN" "http://www.w3.org/Graphics/SVG/1.1/DTD/svg11.dtd">
<svg version="1.1" id="Слой_1" xmlns="http://www.w3.org/2000/svg" xmlns:xlink="http://www.w3.org/1999/xlink" x="0px" y="0px"
	 width="841.049px" height="1080px" viewBox="0 0 841.049 1080" enable-background="new 0 0 841.049 1080" xml:space="preserve">
<g id="Слой_2">
	<path fill="#FFFFFF" d="M609.466,1049.373c0,6.627,5.373,12,12,12h88.65c6.629,0,12-5.373,12-12v-60.721c0-6.627-5.371-12-12-12
		h-88.65c-6.627,0-12,5.373-12,12V1049.373z"/>
	<path fill="#FFFFFF" d="M824.883,1049.373c0,6.627-5.372,12-12,12H703.564c-6.628,0-12-5.373-12-12v-40.064c0-6.627,5.372-12,12-12
		h109.318c6.628,0,12,5.373,12,12V1049.373z"/>
	<ellipse fill="#FFFFFF" cx="427.721" cy="197.746" rx="196.142" ry="173.559"/>
	<path fill="#FFFFFF" d="M491.849,485.317c0,6.627-5.373,12-12,12H371.032c-6.627,0-12-5.373-12-12V357.615c0-6.627,5.373-12,12-12
		h108.816c6.627,0,12,5.373,12,12V485.317L491.849,485.317z"/>
	<ellipse fill="#FFFFFF" cx="133.979" cy="768.637" rx="69.718" ry="73.807"/>
	<ellipse fill="#FFFFFF" cx="425.757" cy="777.592" rx="83.922" ry="82.762"/>
	<ellipse fill="#FFFFFF" cx="704.462" cy="768.637" rx="80.602" ry="73.807"/>
	<ellipse fill="#FFFFFF" cx="715.684" cy="982.509" rx="91.821" ry="63.954"/>
	<ellipse fill="#FFFFFF" cx="722.117" cy="948.152" rx="62.946" ry="56.218"/>
	<ellipse fill="#FFFFFF" cx="121.69" cy="976.653" rx="109.889" ry="84.721"/>
	<ellipse fill="#FFFFFF" cx="423.725" cy="976.653" rx="101.739" ry="84.721"/>
	<path fill="#FFFFFF" d="M55.981,830.444c0,6.627,5.373,12,12,12h49.858c6.627,0,12-5.373,12-12V737.34c0-6.627-5.373-12-12-12
		H67.981c-6.627,0-12,5.373-12,12V830.444z"/>
	<path fill="#FFFFFF" d="M232.697,1067.998c0,6.627-5.373,12-12,12H133.69c-6.628,0-12-5.373-12-12v-51.631c0-6.627,5.372-12,12-12
		h87.007c6.627,0,12,5.373,12,12V1067.998z"/>
	<path fill="#FFFFFF" d="M28.101,1049.373c0,6.627,5.373,12,12,12h81.59c6.627,0,12-5.373,12-12v-33.006c0-6.627-5.373-12-12-12
		h-81.59c-6.627,0-12,5.373-12,12V1049.373z"/>
	<path fill="#FFFFFF" d="M321.985,1049.373c0,6.627,5.373,12,12,12h34.854c6.627,0,12-5.373,12-12v-54.865c0-6.627-5.373-12-12-12
		h-34.854c-6.627,0-12,5.373-12,12V1049.373z"/>
	<path fill="#FFFFFF" d="M528.674,1049.373c0,6.627-5.372,12-12,12h-41.229c-6.628,0-12-5.373-12-12v-33.006c0-6.627,5.372-12,12-12
		h41.229c6.628,0,12,5.373,12,12V1049.373z"/>
</g>
<g id="Layer_1">
	<g>
		<g>
			<path fill="#3D4A5A" d="M129.84,670.809c-56.1,0-101.739,45.639-101.739,101.738s45.641,101.74,101.739,101.74
				c56.098,0,101.739-45.641,101.739-101.74C231.579,716.449,185.938,670.809,129.84,670.809z M129.84,840.748
				c-37.604,0-68.198-30.598-68.198-68.197c0-37.602,30.597-68.199,68.198-68.199c37.601,0,68.198,30.598,68.198,68.199
				C198.038,810.151,167.441,840.748,129.84,840.748z"/>
		</g>
	</g>
	<g>
		<g>
			<path fill="#3D4A5A" d="M125.368,878.455c-69.129,0-125.369,56.238-125.369,125.365v59.408c0,9.266,7.511,16.77,16.771,16.77
				h215.929c9.123,0,16.571-7.291,16.767-16.412l1.27-59.406c0.002-0.117,0.005-0.236,0.005-0.357
				C250.737,934.696,194.497,878.455,125.368,878.455z M216.282,1046.459H33.538v-42.637c0-50.635,41.194-91.826,91.83-91.826
				c50.576,0,91.732,41.102,91.83,91.652L216.282,1046.459z"/>
		</g>
	</g>
	<g>
		<g>
			<path fill="#3D4A5A" d="M711.206,670.809c-56.1,0-101.739,45.639-101.739,101.738s45.641,101.74,101.739,101.74
				c56.098,0,101.738-45.641,101.738-101.74C812.944,716.449,767.306,670.809,711.206,670.809z M711.206,840.748
				c-37.604,0-68.198-30.598-68.198-68.197c0-37.602,30.597-68.199,68.198-68.199c37.604,0,68.197,30.598,68.197,68.199
				C779.403,810.151,748.809,840.748,711.206,840.748z"/>
		</g>
	</g>
	<g>
		<g>
			<path fill="#3D4A5A" d="M715.677,878.455c-69.129,0-125.369,56.238-125.369,125.365c0,0.121,0.003,0.238,0.005,0.359
				l1.271,59.404c0.193,9.121,7.643,16.414,16.766,16.414h215.931c9.265,0,16.771-7.508,16.771-16.77v-59.406
				C841.048,934.696,784.808,878.455,715.677,878.455z M624.761,1046.459l-0.916-42.807c0.089-50.561,41.251-91.656,91.83-91.656
				c50.638,0,91.828,41.193,91.828,91.826v42.641H624.761V1046.459z"/>
		</g>
	</g>
	<g>
		<g>
			<path fill="#3D4A5A" d="M423.725,670.809c-56.099,0-101.739,45.639-101.739,101.738s45.639,101.74,101.739,101.74
				c56.099,0,101.739-45.641,101.739-101.74C525.464,716.449,479.823,670.809,423.725,670.809z M423.725,840.748
				c-37.604,0-68.198-30.598-68.198-68.197c0-37.602,30.598-68.199,68.198-68.199c37.604,0,68.198,30.598,68.198,68.199
				C491.923,810.151,461.329,840.748,423.725,840.748z"/>
		</g>
	</g>
	<g>
		<g>
			<path fill="#3D4A5A" d="M419.253,878.455c-69.129,0-125.367,56.238-125.367,125.365v59.408c0,9.266,7.508,16.77,16.77,16.77
				h215.928c9.123,0,16.57-7.291,16.765-16.412l1.271-59.406c0.002-0.117,0.004-0.236,0.004-0.357
				C544.622,934.696,488.381,878.455,419.253,878.455z M510.167,1046.459H327.425v-42.637c0-50.635,41.193-91.826,91.828-91.826
				c50.575,0,91.731,41.102,91.828,91.652L510.167,1046.459z"/>
		</g>
	</g>
	<g>
		<g>
			<path fill="#3D4A5A" d="M547.452,175.089c-1.123-6.969-2.844-13.898-5.108-20.592c-2.972-8.776-12.498-13.479-21.263-10.51
				c-8.776,2.974-13.482,12.49-10.512,21.264c1.674,4.938,2.938,10.047,3.771,15.186c1.331,8.239,8.45,14.103,16.537,14.103
				c0.887,0,1.786-0.07,2.691-0.219C542.712,192.844,548.929,184.235,547.452,175.089z"/>
		</g>
	</g>
	<g>
		<g>
			<path fill="#3D4A5A" d="M519.239,113.349c-24.556-29.402-60.537-46.267-98.717-46.267c-9.265,0-16.77,7.507-16.77,16.77
				c0,9.265,7.508,16.771,16.77,16.771c28.209,0,54.809,12.475,72.97,34.227c3.315,3.972,8.081,6.021,12.882,6.021
				c3.791,0,7.604-1.276,10.741-3.898C524.226,131.037,525.175,120.459,519.239,113.349z"/>
		</g>
	</g>
	<g>
		<g>
			<path fill="#3D4A5A" d="M697.79,563.479H437.292v-46.954h54.782c9.266,0,16.771-7.508,16.771-16.77v-62.608v-62.608
				c0-1.406-0.192-2.766-0.521-4.072c63.908-32.229,107.849-98.479,107.849-174.809C616.176,87.771,528.406,0.003,420.522,0.003
				S224.869,87.771,224.869,195.655c0,76.33,43.94,142.579,107.85,174.81c-0.327,1.306-0.521,2.666-0.521,4.072v62.608v62.608
				c0,9.264,7.508,16.77,16.771,16.77h54.782v46.956H125.368c-9.265,0-16.77,7.508-16.77,16.77v44.723
				c0,9.264,7.508,16.77,16.77,16.77c9.266,0,16.771-7.508,16.771-16.77v-27.949h261.614v27.949c0,9.264,7.508,16.77,16.77,16.77
				c9.266,0,16.77-7.508,16.77-16.77v-27.949h243.727v27.949c0,9.264,7.507,16.77,16.77,16.77c9.266,0,16.771-7.508,16.771-16.77
				v-44.723C714.559,570.987,707.054,563.479,697.79,563.479z M475.305,420.375H365.74v-29.068h54.782h54.782V420.375z
				 M392.573,355.305V230.314h55.9v124.991c-9.087,1.588-18.417,2.462-27.951,2.462S401.658,356.891,392.573,355.305z
				 M359.032,186.71v10.062h-19.006c-9.264,0-16.77,7.507-16.77,16.771c0,9.265,7.508,16.77,16.77,16.77h19.006v115.305
				c-58.979-24.271-100.621-82.335-100.621-149.964c0-89.389,72.724-162.11,162.111-162.11s162.111,72.723,162.111,162.11
				c0,67.631-41.644,125.691-100.621,149.964V230.31h19.006c9.264,0,16.77-7.507,16.77-16.77c0-9.266-7.508-16.771-16.77-16.771
				h-19.006v-10.062c0-9.266-7.507-16.771-16.771-16.771s-16.77,7.507-16.77,16.771v10.062h-55.9v-10.062
				c0-9.266-7.508-16.771-16.77-16.771C366.538,169.94,359.032,177.447,359.032,186.71z M420.522,482.984H365.74v-29.069h109.564
				v29.069H420.522z"/>
		</g>
	</g>
	<g>
		<g>
			<path fill="#3D4A5A" d="M150.599,125.38H81.031c-9.265,0-16.77,7.507-16.77,16.77c0,9.266,7.507,16.771,16.77,16.771h69.567
				c9.264,0,16.77-7.508,16.77-16.771C167.368,132.885,159.862,125.38,150.599,125.38z"/>
		</g>
	</g>
	<g>
		<g>
			<path fill="#3D4A5A" d="M181.883,187.212c-6.552-6.548-17.169-6.548-23.72,0l-44.271,44.271c-6.55,6.552-6.55,17.168,0,23.718
				c3.275,3.273,7.568,4.91,11.857,4.91c4.291,0,8.586-1.637,11.858-4.91l44.272-44.271
				C188.433,204.378,188.433,193.761,181.883,187.212z"/>
		</g>
	</g>
	<g>
		<g>
			<path fill="#3D4A5A" d="M181.434,73.371l-44.272-44.271c-6.551-6.548-17.168-6.548-23.717,0c-6.55,6.552-6.55,17.168,0,23.718
				l44.271,44.271c3.274,3.272,7.567,4.91,11.857,4.91s8.585-1.638,11.858-4.91C187.983,90.537,187.983,79.921,181.434,73.371z"/>
		</g>
	</g>
	<g>
		<g>
			<path fill="#3D4A5A" d="M777.901,125.38h-69.566c-9.266,0-16.771,7.509-16.771,16.77c0,9.266,7.507,16.771,16.771,16.771h69.566
				c9.264,0,16.771-7.508,16.771-16.771C794.673,132.885,787.165,125.38,777.901,125.38z"/>
		</g>
	</g>
	<g>
		<g>
			<path fill="#3D4A5A" d="M745.042,231.483l-44.271-44.271c-6.552-6.548-17.168-6.548-23.718,0c-6.549,6.552-6.549,17.168,0,23.718
				l44.27,44.271c3.276,3.273,7.568,4.91,11.859,4.91c4.29,0,8.583-1.637,11.858-4.91
				C751.591,248.649,751.591,238.033,745.042,231.483z"/>
		</g>
	</g>
	<g>
		<g>
			<path fill="#3D4A5A" d="M745.491,29.099c-6.553-6.548-17.169-6.548-23.719,0l-44.271,44.271c-6.549,6.552-6.549,17.168,0,23.718
				c3.276,3.272,7.566,4.91,11.857,4.91c4.29,0,8.585-1.638,11.858-4.91l44.271-44.271C752.04,46.265,752.04,35.649,745.491,29.099z
				"/>
		</g>
	</g>
</g>
</svg>
