<?xml version="1.0" encoding="utf-8"?>
<!-- Generator: Adobe Illustrator 16.0.0, SVG Export Plug-In . SVG Version: 6.00 Build 0)  -->
<!DOCTYPE svg PUBLIC "-//W3C//DTD SVG 1.1//EN" "http://www.w3.org/Graphics/SVG/1.1/DTD/svg11.dtd">
<svg version="1.1" id="Слой_1" xmlns="http://www.w3.org/2000/svg" xmlns:xlink="http://www.w3.org/1999/xlink" x="0px" y="0px"
	 width="1080px" height="1080px" viewBox="0 0 1080 1080" enable-background="new 0 0 1080 1080" xml:space="preserve">
<g id="Слой_2">
	<rect x="35.27" y="17.474" fill="#FFFFFF" width="1014.102" height="1026.103"/>
</g>
<g id="Layer_1">
	<g>
		<g>
			<rect x="945" y="90.207" fill="#3D4A5A" width="45" height="45"/>
		</g>
	</g>
	<g>
		<g>
			<rect x="855" y="90.207" fill="#3D4A5A" width="45" height="45"/>
		</g>
	</g>
	<g>
		<g>
			<rect x="765" y="90.207" fill="#3D4A5A" width="45" height="45"/>
		</g>
	</g>
	<g>
		<g>
			<rect x="112.5" y="90.207" fill="#3D4A5A" width="585" height="45"/>
		</g>
	</g>
	<g>
		<g>
			<path fill="#3D4A5A" d="M0,0.207v1080h1080v-1080H0z M1035,1035.207H45v-810h990V1035.207z M1035,180.207H45v-135h990V180.207z"
				/>
		</g>
	</g>
	<g>
		<g>
			<polygon fill="#3D4A5A" points="225,697.914 225,540.414 180,540.414 180,562.914 157.5,562.914 157.5,607.914 180,607.914 
				180,697.914 157.5,697.914 157.5,742.914 247.5,742.914 247.5,697.914 			"/>
		</g>
	</g>
	<g>
		<g>
			<polygon fill="#3D4A5A" points="562.5,697.914 562.5,540.414 517.5,540.414 517.5,562.914 495,562.914 495,607.914 
				517.5,607.914 517.5,697.914 495,697.914 495,742.914 585,742.914 585,697.914 			"/>
		</g>
	</g>
	<g>
		<g>
			<polygon fill="#3D4A5A" points="720,697.914 720,540.414 675,540.414 675,562.914 652.5,562.914 652.5,607.914 675,607.914 
				675,697.914 652.5,697.914 652.5,742.914 742.5,742.914 742.5,697.914 			"/>
		</g>
	</g>
	<g>
		<g>
			<path fill="#3D4A5A" d="M360,540.414c-37.222,0-67.5,30.278-67.5,67.5v67.5c0,37.223,30.278,67.5,67.5,67.5
				s67.5-30.277,67.5-67.5v-67.5C427.5,570.694,397.222,540.414,360,540.414z M382.5,675.414c0,12.403-10.097,22.5-22.5,22.5
				s-22.5-10.097-22.5-22.5v-67.5c0-12.402,10.097-22.5,22.5-22.5s22.5,10.098,22.5,22.5V675.414z"/>
		</g>
	</g>
	<g>
		<g>
			<path fill="#3D4A5A" d="M855,540.414c-37.222,0-67.5,30.278-67.5,67.5v67.5c0,37.223,30.278,67.5,67.5,67.5
				s67.5-30.277,67.5-67.5v-67.5C922.5,570.694,892.222,540.414,855,540.414z M877.5,675.414c0,12.403-10.097,22.5-22.5,22.5
				s-22.5-10.097-22.5-22.5v-67.5c0-12.402,10.097-22.5,22.5-22.5s22.5,10.098,22.5,22.5V675.414z"/>
		</g>
	</g>
	<g>
		<g>
			<polygon fill="#3D4A5A" points="225,450.207 225,292.707 180,292.707 180,315.207 157.5,315.207 157.5,360.207 180,360.207 
				180,450.207 157.5,450.207 157.5,495.207 247.5,495.207 247.5,450.207 			"/>
		</g>
	</g>
	<g>
		<g>
			<polygon fill="#3D4A5A" points="382.5,450.207 382.5,292.707 337.5,292.707 337.5,315.207 315,315.207 315,360.207 
				337.5,360.207 337.5,450.207 315,450.207 315,495.207 405,495.207 405,450.207 			"/>
		</g>
	</g>
	<g>
		<g>
			<polygon fill="#3D4A5A" points="720,450.207 720,292.707 675,292.707 675,315.207 652.5,315.207 652.5,360.207 675,360.207 
				675,450.207 652.5,450.207 652.5,495.207 742.5,495.207 742.5,450.207 			"/>
		</g>
	</g>
	<g>
		<g>
			<path fill="#3D4A5A" d="M540,292.707c-37.222,0-67.5,30.276-67.5,67.5v67.5c0,37.221,30.278,67.5,67.5,67.5
				s67.5-30.279,67.5-67.5v-67.5C607.5,322.985,577.222,292.707,540,292.707z M562.5,427.707c0,12.402-10.097,22.5-22.5,22.5
				s-22.5-10.098-22.5-22.5v-67.5c0-12.404,10.097-22.502,22.5-22.502s22.5,10.098,22.5,22.502V427.707z"/>
		</g>
	</g>
	<g>
		<g>
			<path fill="#3D4A5A" d="M855,292.707c-37.222,0-67.5,30.276-67.5,67.5v67.5c0,37.221,30.278,67.5,67.5,67.5
				s67.5-30.279,67.5-67.5v-67.5C922.5,322.985,892.222,292.707,855,292.707z M877.5,427.707c0,12.402-10.097,22.5-22.5,22.5
				s-22.5-10.098-22.5-22.5v-67.5c0-12.404,10.097-22.502,22.5-22.502s22.5,10.098,22.5,22.502V427.707z"/>
		</g>
	</g>
	<g>
		<g>
			<polygon fill="#3D4A5A" points="225,945.207 225,787.707 180,787.707 180,810.207 157.5,810.207 157.5,855.207 180,855.207 
				180,945.207 157.5,945.207 157.5,990.207 247.5,990.207 247.5,945.207 			"/>
		</g>
	</g>
	<g>
		<g>
			<polygon fill="#3D4A5A" points="382.5,945.207 382.5,787.707 337.5,787.707 337.5,810.207 315,810.207 315,855.207 
				337.5,855.207 337.5,945.207 315,945.207 315,990.207 405,990.207 405,945.207 			"/>
		</g>
	</g>
	<g>
		<g>
			<polygon fill="#3D4A5A" points="720,945.207 720,787.707 675,787.707 675,810.207 652.5,810.207 652.5,855.207 675,855.207 
				675,945.207 652.5,945.207 652.5,990.207 742.5,990.207 742.5,945.207 			"/>
		</g>
	</g>
	<g>
		<g>
			<path fill="#3D4A5A" d="M540,787.707c-37.222,0-67.5,30.276-67.5,67.5v67.5c0,37.221,30.278,67.5,67.5,67.5
				s67.5-30.279,67.5-67.5v-67.5C607.5,817.985,577.222,787.707,540,787.707z M562.5,922.707c0,12.402-10.097,22.5-22.5,22.5
				s-22.5-10.098-22.5-22.5v-67.5c0-12.404,10.097-22.5,22.5-22.5s22.5,10.096,22.5,22.5V922.707z"/>
		</g>
	</g>
	<g>
		<g>
			<path fill="#3D4A5A" d="M855,787.707c-37.222,0-67.5,30.276-67.5,67.5v67.5c0,37.221,30.278,67.5,67.5,67.5
				s67.5-30.279,67.5-67.5v-67.5C922.5,817.985,892.222,787.707,855,787.707z M877.5,922.707c0,12.402-10.097,22.5-22.5,22.5
				s-22.5-10.098-22.5-22.5v-67.5c0-12.404,10.097-22.5,22.5-22.5s22.5,10.096,22.5,22.5V922.707z"/>
		</g>
	</g>
</g>
</svg>
