<?xml version="1.0" encoding="utf-8"?>
<!-- Generator: Adobe Illustrator 21.0.0, SVG Export Plug-In . SVG Version: 6.00 Build 0)  -->
<svg version="1.1" id="Слой_1" xmlns="http://www.w3.org/2000/svg" xmlns:xlink="http://www.w3.org/1999/xlink" x="0px" y="0px"
	 viewBox="0 0 1080 1080" style="enable-background:new 0 0 1080 1080;" xml:space="preserve">
<style type="text/css">
	.st0{fill:#3D4A5A;}
</style>
<path id="Layer_1" class="st0" d="M945,90.2h45v45h-45V90.2z M855,90.2h45v45h-45V90.2z M765,90.2h45v45h-45V90.2z M112.5,90.2h585
	v45h-585V90.2z M0,0.2v1080h1080V0.2L0,0.2L0,0.2z M1035,1035.2H45v-810h990V1035.2z M1035,180.2H45v-135h990V180.2z M225,697.9
	V540.4h-45v22.5h-22.5v45H180v90h-22.5v45h90v-45H225z M562.5,697.9V540.4h-45v22.5H495v45h22.5v90H495v45h90v-45H562.5z M720,697.9
	V540.4h-45v22.5h-22.5v45H675v90h-22.5v45h90v-45H720z M360,540.4c-37.2,0-67.5,30.3-67.5,67.5v67.5c0,37.2,30.3,67.5,67.5,67.5
	s67.5-30.3,67.5-67.5v-67.5C427.5,570.7,397.2,540.4,360,540.4z M382.5,675.4c0,12.4-10.1,22.5-22.5,22.5s-22.5-10.1-22.5-22.5
	v-67.5c0-12.4,10.1-22.5,22.5-22.5s22.5,10.1,22.5,22.5V675.4z M855,540.4c-37.2,0-67.5,30.3-67.5,67.5v67.5
	c0,37.2,30.3,67.5,67.5,67.5s67.5-30.3,67.5-67.5v-67.5C922.5,570.7,892.2,540.4,855,540.4z M877.5,675.4
	c0,12.4-10.1,22.5-22.5,22.5s-22.5-10.1-22.5-22.5v-67.5c0-12.4,10.1-22.5,22.5-22.5s22.5,10.1,22.5,22.5V675.4z M225,450.2V292.7
	h-45v22.5h-22.5v45H180v90h-22.5v45h90v-45H225z M382.5,450.2V292.7h-45v22.5H315v45h22.5v90H315v45h90v-45H382.5z M720,450.2V292.7
	h-45v22.5h-22.5v45H675v90h-22.5v45h90v-45H720z M540,292.7c-37.2,0-67.5,30.3-67.5,67.5v67.5c0,37.2,30.3,67.5,67.5,67.5
	s67.5-30.3,67.5-67.5v-67.5C607.5,323,577.2,292.7,540,292.7z M562.5,427.7c0,12.4-10.1,22.5-22.5,22.5s-22.5-10.1-22.5-22.5v-67.5
	c0-12.4,10.1-22.5,22.5-22.5s22.5,10.1,22.5,22.5V427.7z M855,292.7c-37.2,0-67.5,30.3-67.5,67.5v67.5c0,37.2,30.3,67.5,67.5,67.5
	s67.5-30.3,67.5-67.5v-67.5C922.5,323,892.2,292.7,855,292.7z M877.5,427.7c0,12.4-10.1,22.5-22.5,22.5s-22.5-10.1-22.5-22.5v-67.5
	c0-12.4,10.1-22.5,22.5-22.5s22.5,10.1,22.5,22.5V427.7z M225,945.2V787.7h-45v22.5h-22.5v45H180v90h-22.5v45h90v-45H225z
	 M382.5,945.2V787.7h-45v22.5H315v45h22.5v90H315v45h90v-45H382.5z M720,945.2V787.7h-45v22.5h-22.5v45H675v90h-22.5v45h90v-45H720z
	 M540,787.7c-37.2,0-67.5,30.3-67.5,67.5v67.5c0,37.2,30.3,67.5,67.5,67.5s67.5-30.3,67.5-67.5v-67.5
	C607.5,818,577.2,787.7,540,787.7z M562.5,922.7c0,12.4-10.1,22.5-22.5,22.5s-22.5-10.1-22.5-22.5v-67.5c0-12.4,10.1-22.5,22.5-22.5
	s22.5,10.1,22.5,22.5V922.7z M855,787.7c-37.2,0-67.5,30.3-67.5,67.5v67.5c0,37.2,30.3,67.5,67.5,67.5s67.5-30.3,67.5-67.5v-67.5
	C922.5,818,892.2,787.7,855,787.7z M877.5,922.7c0,12.4-10.1,22.5-22.5,22.5s-22.5-10.1-22.5-22.5v-67.5c0-12.4,10.1-22.5,22.5-22.5
	s22.5,10.1,22.5,22.5V922.7z"/>
</svg>
