<svg xmlns="http://www.w3.org/2000/svg" viewBox="0 0 491.71 452.34"><defs><style>.cls-1{fill:#334b61;}</style></defs><title>clip1_1</title><g id="Слой_2" data-name="Слой 2"><g id="Layer_1" data-name="Layer 1"><path class="cls-1" d="M87.2,452.34A87.24,87.24,0,0,1,25.51,303.41L295.2,33.71A115.12,115.12,0,0,1,491.71,115.1,114.28,114.28,0,0,1,458,196.48L245.7,408.77a16.31,16.31,0,1,1-23.07-23.07l212.3-212.28A82.48,82.48,0,0,0,318.26,56.78L48.58,326.48a54.69,54.69,0,0,0,0,77.23c20.64,20.62,56.59,20.62,77.23,0L306.9,222.61a26.62,26.62,0,0,0,7.74-18.69,26.44,26.44,0,0,0-45.12-18.69L145.85,308.92a16.31,16.31,0,1,1-23.07-23.07L246.46,162.17A59.05,59.05,0,1,1,330,245.68L148.88,426.78A86.68,86.68,0,0,1,87.2,452.34Z"/></g></g></svg>