<?xml version="1.0" encoding="utf-8"?>
<!-- Generator: Adobe Illustrator 16.0.0, SVG Export Plug-In . SVG Version: 6.00 Build 0)  -->
<!DOCTYPE svg PUBLIC "-//W3C//DTD SVG 1.1//EN" "http://www.w3.org/Graphics/SVG/1.1/DTD/svg11.dtd">
<svg version="1.1" id="Слой_1" xmlns="http://www.w3.org/2000/svg" xmlns:xlink="http://www.w3.org/1999/xlink" x="0px" y="0px"
	 width="232.617px" height="232.55px" viewBox="0 0 232.617 232.55" enable-background="new 0 0 232.617 232.55"
	 xml:space="preserve">
<g id="Слой_2">
	<rect x="4.248" y="42.999" fill="#FFFFFF" width="220.867" height="153.022"/>
	<rect x="10.248" y="185.572" fill="#FFFFFF" width="118.666" height="18.45"/>
	<rect x="116.308" y="180.688" fill="#FFFFFF" width="108.809" height="23.333"/>
	<rect x="82.542" y="12.688" fill="#FFFFFF" width="52.527" height="42.001"/>
	<rect x="108.806" y="3.354" fill="#FFFFFF" width="15.441" height="16.668"/>
	<rect x="97.548" y="5.481" fill="#FFFFFF" width="18.76" height="7.207"/>
	<rect x="119.58" y="5.481" fill="#FFFFFF" width="15.49" height="10.541"/>
	<rect x="135.07" y="12.688" fill="#FFFFFF" width="15.006" height="34.063"/>
	<rect x="138.248" y="24.022" fill="#FFFFFF" width="32.465" height="30.667"/>
	<rect x="142.572" y="20.022" fill="#FFFFFF" width="15.008" height="13.666"/>
	<polygon fill="#FFFFFF" points="200.248,39.248 92.486,99.328 35.748,35.496 119.58,-1.806 	"/>
</g>
<g id="Слой_1_1_">
	<g id="Capa_1" display="none">
		<g display="inline">
			<path fill="#3D4A5A" d="M39.802,11.716c3.029,0,5.49-2.454,5.49-5.489v-5.49c0-3.037-2.461-5.491-5.49-5.491
				s-5.49,2.454-5.49,5.491v5.49C34.31,9.259,36.771,11.716,39.802,11.716z"/>
			<path fill="#3D4A5A" d="M34.31,236.837v5.49c0,3.036,2.461,5.491,5.49,5.491s5.49-2.455,5.49-5.491v-5.49
				c0-3.036-2.461-5.491-5.49-5.491C36.771,231.344,34.31,233.801,34.31,236.837z"/>
			<path fill="#3D4A5A" d="M160.599,127.022c3.029,0,5.49-2.455,5.49-5.491s-2.461-5.49-5.49-5.49h-5.49
				c-3.031,0-5.49,2.454-5.49,5.49s2.459,5.491,5.49,5.491H160.599z"/>
			<path fill="#3D4A5A" d="M-80.995,116.041c-3.031,0-5.492,2.454-5.492,5.49s2.461,5.491,5.492,5.491h5.49
				c3.031,0,5.49-2.455,5.49-5.491s-2.459-5.49-5.49-5.49H-80.995z"/>
			<path fill="#3D4A5A" d="M121.333,45.483c1.406,0,2.814-0.537,3.883-1.607l3.881-3.882c2.148-2.146,2.148-5.617,0-7.765
				c-2.145-2.146-5.613-2.146-7.764,0l-3.881,3.883c-2.148,2.146-2.148,5.615,0,7.764C118.523,44.952,119.929,45.483,121.333,45.483
				z"/>
			<path fill="#3D4A5A" d="M-45.612,199.179l-3.883,3.883c-2.145,2.146-2.145,5.617,0,7.766c1.07,1.07,2.479,1.606,3.883,1.606
				s2.813-0.536,3.881-1.606l3.885-3.883c2.146-2.146,2.146-5.616,0-7.766C-39.997,197.035-43.471,197.035-45.612,199.179z"/>
			<path fill="#3D4A5A" d="M-37.848,36.112l-3.883-3.883c-2.146-2.146-5.617-2.146-7.766,0c-2.145,2.146-2.145,5.617,0,7.765
				l3.883,3.882c1.07,1.07,2.477,1.607,3.883,1.607c1.404,0,2.811-0.537,3.883-1.607C-35.702,41.733-35.702,38.258-37.848,36.112z"
				/>
			<path fill="#3D4A5A" d="M39.802-42.527c-90.828,0-164.723,73.895-164.723,164.723s73.895,164.723,164.723,164.723
				c19.637,0,38.869-3.432,57.182-10.208c2.844-1.049,4.295-4.211,3.246-7.05c-1.057-2.854-4.207-4.305-7.059-3.245
				c-17.088,6.314-35.041,9.521-53.369,9.521c-84.771,0-153.742-68.972-153.742-153.741c0-84.771,68.971-153.742,153.742-153.742
				s153.74,68.97,153.74,153.742c0,18.338-3.207,36.288-9.525,53.362c-1.049,2.852,0.4,6.009,3.244,7.057
				c2.846,1.07,6.002-0.396,7.057-3.238c6.775-18.301,10.209-37.535,10.209-57.181C204.525,31.368,130.63-42.527,39.802-42.527z"/>
		</g>
		<g display="inline">
			<path fill="#3D4A5A" d="M124.119,229.967v9.771h39.83v9.361h-39.83v25.039h-13.164V249.1h-6.785v-9.361h6.785v-9.771h-6.785
				V218.57h6.785v-43.903h31.145c8.912,0,15.652,0.906,20.223,2.715c4.615,1.765,8.301,4.908,11.061,9.434
				c2.762,4.522,4.143,9.521,4.143,14.994c0,5.521-1.02,10.09-3.057,13.707c-2.035,3.619-4.736,6.503-8.105,8.651
				c-3.371,2.149-7.238,3.653-11.604,4.513c-4.367,0.859-8.879,1.289-13.537,1.289L124.119,229.967L124.119,229.967z
				 M141.218,218.569c3.029,0,5.928-0.238,8.688-0.713c2.758-0.477,5.178-1.348,7.26-2.612c2.08-1.268,3.732-2.977,4.953-5.123
				c1.223-2.148,1.832-4.92,1.832-8.313c0-2.938-0.555-5.429-1.662-7.464c-1.107-2.036-2.623-3.696-4.547-4.985
				c-1.922-1.29-4.172-2.229-6.75-2.816c-2.58-0.587-5.361-0.882-8.348-0.882h-18.523v32.91L141.218,218.569L141.218,218.569z"/>
		</g>
		<g display="inline">
			<path fill="#3D4A5A" d="M8.781,104.51c0,5.188-0.732,9.854-2.195,14.001c-1.465,4.15-3.602,8.207-6.406,12.172
				c-9.027,12.813-15.924,19.22-20.682,19.22c-1.465,0-2.686-0.55-3.662-1.647c-0.977-1.099-1.463-2.38-1.463-3.844
				c0-1.098,0.486-2.229,1.463-3.386c0.609-0.671,1.922-1.982,3.938-3.938c4.881-4.636,8.754-9.271,11.623-13.909h-0.094
				c-2.379,1.1-5.275,1.646-8.691,1.646c-5.553,0-10.066-2.196-13.545-6.589c-3.172-4.026-4.76-8.906-4.76-14.644
				c0-6.589,2.15-12.094,6.451-16.519c4.303-4.422,9.746-6.634,16.336-6.634c6.953,0,12.385,2.316,16.289,6.953
				C6.98,91.732,8.781,97.434,8.781,104.51z M-13.274,91.334c-3.234,0-5.768,1.175-7.598,3.523c-1.83,2.348-2.744,5.17-2.744,8.465
				c0,3.417,0.764,6.162,2.287,8.234c1.707,2.319,4.209,3.479,7.504,3.479c3.232,0,5.813-1.037,7.732-3.112
				c1.922-2.073,2.883-4.727,2.883-7.961c0-3.538-0.764-6.437-2.287-8.694C-7.325,92.647-9.918,91.334-13.274,91.334z"/>
			<path fill="#3D4A5A" d="M63.96,115.127c0,9.457-1.645,17.205-4.941,23.244c-4.146,7.627-10.555,11.438-19.217,11.438
				c-8.664,0-15.068-3.813-19.219-11.438c-3.293-6.039-4.941-13.787-4.941-23.244c0-9.456,1.617-17.173,4.854-23.152
				c4.146-7.626,10.584-11.438,19.309-11.438s15.16,3.813,19.311,11.438C62.343,97.955,63.96,105.671,63.96,115.127z
				 M52.064,115.082c0-5.928-0.672-10.91-2.014-14.944c-2.074-6.052-5.461-9.077-10.156-9.077c-4.82,0-8.236,2.995-10.25,8.985
				c-1.404,4.035-2.105,9.047-2.105,15.036c0,16.138,4.119,24.205,12.355,24.205c4.758,0,8.145-3.056,10.156-9.168
				C51.392,126.146,52.064,121.133,52.064,115.082z"/>
			<path fill="#3D4A5A" d="M117.22,115.127c0,9.457-1.645,17.205-4.939,23.244c-4.148,7.627-10.557,11.438-19.217,11.438
				c-8.664,0-15.07-3.813-19.221-11.438c-3.293-6.039-4.939-13.787-4.939-23.244c0-9.456,1.617-17.173,4.852-23.152
				c4.146-7.626,10.584-11.438,19.311-11.438c8.723,0,15.16,3.813,19.309,11.438C115.603,97.955,117.22,105.671,117.22,115.127z
				 M105.324,115.082c0-5.928-0.672-10.91-2.012-14.944c-2.076-6.052-5.461-9.077-10.158-9.077c-4.82,0-8.236,2.995-10.25,8.985
				c-1.404,4.035-2.105,9.047-2.105,15.036c0,16.138,4.119,24.205,12.355,24.205c4.758,0,8.145-3.056,10.158-9.168
				C104.652,126.146,105.324,121.133,105.324,115.082z"/>
		</g>
	</g>
	<g id="Слой_4" display="none">
		<g display="inline">
			<path fill="#3D4A5A" d="M35.765,210.736c-10.305,0-18.688,8.382-18.688,18.688c0,10.308,8.383,18.688,18.688,18.688
				c10.307,0,18.689-8.382,18.689-18.688C54.455,219.118,46.07,210.736,35.765,210.736z M35.765,237.43
				c-4.412,0-8.008-3.593-8.008-8.009s3.594-8.009,8.008-8.009c4.416,0,8.012,3.593,8.012,8.009
				C43.775,233.838,40.187,237.43,35.765,237.43z"/>
			<path fill="#3D4A5A" d="M-78.844,58.886l18.875,18.875c1.041,1.041,2.408,1.564,3.773,1.564s2.732-0.524,3.775-1.564
				c2.088-2.088,2.088-5.462,0-7.55l-11.705-11.704c5.879-8.89,5.879-20.556,0-29.446l23.408-23.414
				c8.654,5.758,20.785,5.758,29.453,0L0.437,17.352c2.088,2.088,5.465,2.088,7.551,0c2.088-2.088,2.088-5.461,0-7.551
				l-18.879-18.88l-3.775,3.775c-6.055,6.049-16.6,6.049-22.654,0l-3.773-3.775L-78.85,28.676l3.773,3.774
				c6.242,6.248,6.242,16.407,0,22.654L-78.844,58.886z"/>
			<path fill="#3D4A5A" d="M80.103,97.022c-5.877,8.891-5.877,20.557,0,29.445L56.697,149.88c-8.666-5.761-20.797-5.761-29.453,0
				l-11.703-11.704c-2.088-2.088-5.463-2.088-7.551,0c-2.086,2.088-2.086,5.462,0,7.55l18.881,18.883l3.773-3.775
				c6.057-6.056,16.602-6.045,22.654,0l3.777,3.775l37.752-37.757l-3.775-3.773c-6.238-6.246-6.238-16.408,0-22.655l3.775-3.772
				L75.955,77.776c-2.088-2.089-5.461-2.089-7.551,0c-2.088,2.088-2.088,5.462,0,7.55L80.103,97.022z"/>
			<circle fill="#3D4A5A" cx="102.38" cy="111.742" r="5.34"/>
			<circle fill="#3D4A5A" cx="41.972" cy="172.153" r="5.339"/>
			<path fill="#3D4A5A" d="M-22.213-12.847c2.086-2.088,4.045-5.469,1.965-7.551c-2.088-2.088-5.467-2.088-7.553,0
				s-4.047,5.467-1.963,7.551C-27.676-10.765-24.295-10.765-22.213-12.847z"/>
			<circle fill="#3D4A5A" cx="-86.395" cy="43.781" r="5.339"/>
			<path fill="#3D4A5A" d="M123.867,143.993c0-4.698-0.766-9.313-2.205-13.776l18.447-18.447l-24.32-24.626
				c5.035-4.483,8.078-10.943,8.078-17.901c0-13.247-10.781-24.027-24.027-24.027c-0.973,0-1.934,0.097-2.883,0.213
				c0.115-0.948,0.213-1.903,0.213-2.883c0-13.247-10.781-24.026-24.025-24.026c-0.973,0-1.934,0.097-2.885,0.213
				c0.119-0.949,0.215-1.905,0.215-2.881c0-13.248-10.781-24.028-24.027-24.028c-0.973,0-1.932,0.097-2.883,0.214
				c0.115-0.951,0.213-1.906,0.213-2.885c0-13.918-9.279-24.026-22.064-24.026c-6.982,0-14.029,3.022-18.922,7.593l-26.75-27.082
				l-100.23,98.105l49.354,49.356c-2.639,3.854-4.189,8.508-4.189,13.521c0,8.351,4.295,15.708,10.779,20.011
				c0.32,0.428,0.705,0.86,1.207,1.288l57.428,57.211v9.59h-10.68v69.412h96.109h42.713v-69.414h-10.676v-16.173
				C118.068,169.887,123.867,157.442,123.867,143.993z M-68.352,106.617c0-3.509,1.389-6.68,3.604-9.063l0.816-0.747
				c1.855-1.695,4.09-2.817,6.441-3.289c0.809-0.153,1.631-0.251,2.48-0.251h11.75h41.643c7.359,0,13.352,5.986,13.352,13.351
				c0,0.864-0.098,1.702-0.258,2.523c-1.125,5.617-5.928,10.104-11.854,10.675l-1.586,0.148h-30.916h-15.1h-7.031
				C-62.362,119.964-68.352,113.98-68.352,106.617z M-22.209,47.557c16.654-16.654,43.752-16.654,60.404,0
				c8.068,8.066,12.51,18.8,12.51,30.204s-4.441,22.139-12.51,30.206c-5.365,5.365-12.023,9.124-19.211,11.024
				c0.578-0.955,1.08-1.959,1.52-2.995c0.027-0.064,0.045-0.138,0.076-0.202c0.506-1.224,0.885-2.505,1.188-3.819
				c0.082-0.341,0.15-0.679,0.217-1.02c0.256-1.415,0.438-2.851,0.438-4.34c0-13.248-10.781-24.028-24.027-24.028h-32.811
				C-35.899,69.676-31.489,56.836-22.209,47.557z M113.187,69.24c0,4.047-1.854,7.807-4.906,10.295L89.658,60.675
				c2.498-2.974,6.188-4.79,10.182-4.79C107.203,55.89,113.187,61.877,113.187,69.24z M86.492,42.543
				c0,3.968-1.801,7.637-4.742,10.129L63.126,33.815c2.492-2.867,6.104-4.625,10.016-4.625
				C80.505,29.194,86.492,35.18,86.492,42.543z M59.792,15.846c0,3.881-1.74,7.475-4.574,9.963L36.593,6.956
				c2.488-2.762,6.02-4.453,9.85-4.453C53.808,2.499,59.792,8.483,59.792,15.846z M21.712-24.2c7.863,0,11.385,6.707,11.385,13.349
				c0,3.803-1.676,7.311-4.404,9.793l-18.42-18.65C13.175-22.341,17.533-24.2,21.712-24.2z M-24.09-39.299l20.848,21.103
				l-0.461,1.047L22.994,9.544l3.061,3.062l23.641,23.638l3.059,3.059l23.639,23.64l3.059,3.06l26.699,26.696l0.084-0.038
				l18.828,19.062l-82.998,82.997h-0.178l-64.07-64.071h20.576c0.547,0,1.059-0.124,1.6-0.161c2.66,0.405,5.322,0.625,7.977,0.625
				c14.061,0,27.729-5.542,37.775-15.593c10.086-10.085,15.641-23.491,15.641-37.754c0-14.262-5.555-27.674-15.641-37.755
				c-20.814-20.813-54.691-20.813-75.51,0c-11.314,11.314-16.83,26.862-15.377,42.587h-9.861c-1.412,0-2.793,0.171-4.166,0.421
				c-0.441,0.081-0.881,0.166-1.313,0.269c-0.994,0.24-1.965,0.545-2.916,0.907c-0.828,0.311-1.615,0.684-2.395,1.084
				c-0.393,0.203-0.795,0.368-1.176,0.587L-109,43.827L-24.09-39.299z M-0.819,178.614c-0.238-0.208-0.49-0.396-0.961-0.747
				l-47.395-47.224h11.889l64.072,64.073H1.066v-14.513L-0.819,178.614z M-9.618,253.45v-48.054h40.994h3.99
				c0.74,0,1.475,0.058,2.199,0.11l4.398,4.4l2.92-2.921c11.752,3.981,20.24,15.095,20.24,28.171v18.292L-9.618,253.45
				L-9.618,253.45z M107.847,253.45H75.812v-18.292c0-11.779-5.096-22.367-13.154-29.762h45.189V253.45L107.847,253.45z
				 M57.162,194.717l19.91-19.911l35.76-35.759c0.24,1.634,0.355,3.279,0.355,4.945c0,10.972-5.063,21.075-13.895,27.717
				l-2.125,1.604v21.404H57.162z"/>
		</g>
	</g>
	<g id="Слой_5" display="none">
		<g display="inline">
			<path fill="#3D4A5A" d="M195.427,25.697h-21.35V15.022v-32.026v-21.431c0-8.786-7.146-15.934-15.934-15.934h-21.512
				c-8.785,0-15.934,7.146-15.934,15.934v21.431v32.026v10.675h-245.529v176.142h245.531v12.094l21.35,37.364v9.255
				c0,2.951,2.393,5.338,5.338,5.338c2.947,0,5.338-2.387,5.338-5.338v-9.255l21.352-37.364v-12.094h21.352V25.697H195.427z
				 M163.402,4.346h-32.025V-6.33h32.025V4.346z M131.376-38.435c0-2.897,2.359-5.256,5.258-5.256h21.51
				c2.898,0,5.26,2.357,5.26,5.256v21.432h-32.025L131.376-38.435L131.376-38.435z M-114.153,191.163V36.372h234.855v154.791
				H-114.153z M147.388,239.117l-12.15-21.267h24.309L147.388,239.117z M163.402,207.175h-32.025v-5.337V25.697V15.022h32.025
				v10.675v176.142V207.175z M184.751,191.163h-10.674V36.372h10.674V191.163z"/>
			<path fill="#3D4A5A" d="M83.337,84.411H67.326c-2.947,0-5.338,2.385-5.338,5.337c0,2.951,2.391,5.338,5.338,5.338h16.012
				c2.947,0,5.338-2.387,5.338-5.338S86.285,84.411,83.337,84.411z"/>
			<path fill="#3D4A5A" d="M-12.739,73.737H3.275c2.945,0,5.338-2.389,5.338-5.338c0-2.953-2.393-5.337-5.338-5.337h-16.014
				c-2.943,0-5.338,2.385-5.338,5.337C-18.077,71.347-15.684,73.737-12.739,73.737z"/>
			<path fill="#3D4A5A" d="M83.337,63.059H45.974c-2.943,0-5.338,2.387-5.338,5.339c0,2.949,2.395,5.338,5.338,5.338h37.363
				c2.947,0,5.338-2.389,5.338-5.338C88.675,65.446,86.285,63.059,83.337,63.059z"/>
			<path fill="#3D4A5A" d="M24.625,73.737c1.387,0,2.775-0.587,3.791-1.548c0.959-1.017,1.547-2.402,1.547-3.79
				c0-1.391-0.588-2.781-1.547-3.791c-2.029-1.977-5.605-1.977-7.58,0c-0.961,1.01-1.549,2.399-1.549,3.791
				c0,1.387,0.588,2.773,1.549,3.79C21.849,73.149,23.183,73.737,24.625,73.737z"/>
			<path fill="#3D4A5A" d="M3.273,89.749c0,2.951,2.393,5.338,5.338,5.338h37.361c2.947,0,5.34-2.387,5.34-5.338
				c0-2.952-2.393-5.337-5.34-5.337H8.611C5.666,84.411,3.273,86.796,3.273,89.749z"/>
			<path fill="#3D4A5A" d="M-12.739,95.086c1.391,0,2.775-0.587,3.791-1.548c0.959-1.014,1.547-2.402,1.547-3.79
				c0-1.446-0.588-2.781-1.547-3.79c-2.027-1.975-5.605-1.975-7.582,0c-0.961,1.009-1.547,2.344-1.547,3.79
				c0,1.388,0.586,2.775,1.547,3.79C-15.514,94.499-14.18,95.086-12.739,95.086z"/>
			<path fill="#3D4A5A" d="M-66.116,68.937v-5.878c0-2.95-2.391-5.338-5.338-5.338c-2.945,0-5.338,2.388-5.338,5.338v5.897
				c-5.822,1.185-11.127,4.276-15.039,8.903c-3.262,3.854-4.771,8.786-4.238,13.895c0.545,5.228,3.234,10.071,7.381,13.295
				l11.896,9.25v29.026c-6.195-2.21-10.674-8.081-10.674-15.031c0-2.952-2.393-5.338-5.338-5.338c-2.947,0-5.338,2.387-5.338,5.338
				c0,12.885,9.186,23.667,21.35,26.149v4.689c0,2.952,2.393,5.337,5.338,5.337c2.947,0,5.338-2.386,5.338-5.337v-4.708
				c5.824-1.185,11.129-4.274,15.047-8.901c3.264-3.865,4.77-8.798,4.232-13.905c-0.549-5.22-3.234-10.063-7.381-13.279
				l-11.898-9.261V80.051c6.197,2.211,10.676,8.082,10.676,15.032c0,2.952,2.393,5.337,5.34,5.337c2.945,0,5.338-2.386,5.338-5.337
				C-44.764,82.201-53.95,71.419-66.116,68.937z M-60.774,126.762c1.863,1.448,3.074,3.63,3.32,5.97
				c0.23,2.188-0.398,4.284-1.768,5.897c-1.857,2.193-4.258,3.73-6.896,4.67v-20.7L-60.774,126.762z M-82.133,96.624
				c-1.869-1.452-3.074-3.635-3.32-5.979c-0.223-2.184,0.4-4.273,1.77-5.893c1.854-2.193,4.258-3.729,6.895-4.671v20.694
				L-82.133,96.624z"/>
			<path fill="#3D4A5A" d="M4.048,123.909c-11.688,6.085-15.629,17.727-17.061,29.795c-2.209-1.854-4.418-3.7-6.623-5.551
				c-5.23-4.382-12.822,3.127-7.547,7.547c4.99,4.185,9.984,8.364,14.977,12.548c3.512,2.946,8.951,1.083,9.111-3.773
				c0.391-11.562,0.936-25.311,12.533-31.349C15.529,129.958,10.138,120.739,4.048,123.909z"/>
			<path fill="#3D4A5A" d="M39.542,145.202c-7.391,1.713-15.805,11.117-21.008,0.563c-3.037-6.157-12.25-0.757-9.219,5.388
				c2.76,5.6,8.008,9.517,14.246,10.307c3.17,0.401,6.035-0.048,9.01-1.206c2.184-0.85,10.34-6.977,12.102-3.828
				c3.35,6,12.574,0.62,9.217-5.386C51.025,145.91,45.222,143.882,39.542,145.202z"/>
		</g>
	</g>
	<g id="Слой_6" display="none">
		<g display="inline">
			<path fill="#3D4A5A" d="M-29.596,51.843c1.83-0.835,2.635-2.993,1.797-4.825c-0.838-1.83-2.994-2.644-4.828-1.795
				c-2.523,1.148-4.873,2.66-6.973,4.481c-1.521,1.319-1.686,3.621-0.371,5.141c0.723,0.83,1.738,1.258,2.756,1.258
				c0.844,0,1.697-0.291,2.385-0.89C-33.252,53.843-31.493,52.711-29.596,51.843z"/>
			<path fill="#3D4A5A" d="M-16.875,49.877h7.285c2.016,0,3.645-1.629,3.645-3.645S-7.575,42.59-9.59,42.59h-7.285
				c-2.014,0-3.643,1.628-3.643,3.643S-18.889,49.877-16.875,49.877z"/>
			<path fill="#3D4A5A" d="M4.982,49.877h7.283c2.016,0,3.645-1.629,3.645-3.645s-1.629-3.643-3.645-3.643H4.982
				c-2.018,0-3.645,1.628-3.645,3.643S2.966,49.877,4.982,49.877z"/>
			<path fill="#3D4A5A" d="M-9.59,93.59h-7.285c-2.014,0-3.643,1.628-3.643,3.644c0,2.014,1.629,3.644,3.643,3.644h7.285
				c2.016,0,3.645-1.629,3.645-3.644C-5.946,95.217-7.575,93.59-9.59,93.59z"/>
			<path fill="#3D4A5A" d="M34.123,93.59h-7.285c-2.014,0-3.643,1.628-3.643,3.644c0,2.014,1.629,3.644,3.643,3.644h7.285
				c2.016,0,3.643-1.629,3.643-3.644C37.765,95.217,36.138,93.59,34.123,93.59z"/>
			<path fill="#3D4A5A" d="M12.267,93.59H4.984c-2.018,0-3.645,1.628-3.645,3.644c0,2.014,1.627,3.644,3.645,3.644h7.283
				c2.016,0,3.645-1.629,3.645-3.644C15.912,95.217,14.281,93.59,12.267,93.59z"/>
			<path fill="#3D4A5A" d="M-29.596,91.624c-1.895-0.868-3.652-2-5.229-3.369c-1.521-1.313-3.816-1.15-5.141,0.368
				c-1.316,1.519-1.15,3.821,0.367,5.139c2.102,1.821,4.445,3.33,6.971,4.484c0.494,0.226,1.006,0.331,1.514,0.331
				c1.383,0,2.703-0.79,3.314-2.126C-26.965,94.621-27.766,92.458-29.596,91.624z"/>
			<path fill="#3D4A5A" d="M55.98,93.59h-7.285c-2.018,0-3.645,1.628-3.645,3.644c0,2.014,1.629,3.644,3.645,3.644h7.285
				c2.014,0,3.643-1.629,3.643-3.644C59.623,95.217,57.994,93.59,55.98,93.59z"/>
			<path fill="#3D4A5A" d="M121.548,93.59h-7.285c-2.016,0-3.643,1.628-3.643,3.644c0,2.014,1.627,3.644,3.643,3.644h7.285
				c2.018,0,3.645-1.629,3.645-3.644C125.191,95.217,123.564,93.59,121.548,93.59z"/>
			<path fill="#3D4A5A" d="M143.404,93.59h-7.283c-2.018,0-3.646,1.628-3.646,3.644c0,2.014,1.629,3.644,3.646,3.644h7.283
				c2.016,0,3.645-1.629,3.645-3.644C147.048,95.217,145.419,93.59,143.404,93.59z"/>
			<path fill="#3D4A5A" d="M77.835,93.59H70.55c-2.014,0-3.643,1.628-3.643,3.644c0,2.014,1.629,3.644,3.643,3.644h7.285
				c2.016,0,3.643-1.629,3.643-3.644C81.478,95.217,79.851,93.59,77.835,93.59z"/>
			<path fill="#3D4A5A" d="M99.693,93.59h-7.285c-2.016,0-3.646,1.628-3.646,3.644c0,2.014,1.631,3.644,3.646,3.644h7.285
				c2.014,0,3.643-1.629,3.643-3.644C103.335,95.217,101.707,93.59,99.693,93.59z"/>
			<path fill="#3D4A5A" d="M-29.596,200.905c-1.895-0.867-3.652-2-5.229-3.37c-1.521-1.315-3.816-1.15-5.141,0.368
				c-1.316,1.52-1.15,3.819,0.367,5.141c2.102,1.821,4.445,3.33,6.971,4.484c0.494,0.226,1.006,0.331,1.514,0.331
				c1.383,0,2.703-0.792,3.314-2.128C-26.965,203.903-27.766,201.739-29.596,200.905z"/>
			<path fill="#3D4A5A" d="M12.267,202.872H4.984c-2.018,0-3.645,1.628-3.645,3.644s1.627,3.644,3.645,3.644h7.283
				c2.016,0,3.645-1.627,3.645-3.644C15.91,204.5,14.281,202.872,12.267,202.872z"/>
			<path fill="#3D4A5A" d="M-9.59,202.872h-7.285c-2.014,0-3.643,1.628-3.643,3.644s1.629,3.644,3.643,3.644h7.285
				c2.016,0,3.645-1.627,3.645-3.644C-5.946,204.5-7.575,202.872-9.59,202.872z"/>
			<path fill="#3D4A5A" d="M77.835,202.872H70.55c-2.014,0-3.643,1.628-3.643,3.644s1.629,3.644,3.643,3.644h7.285
				c2.016,0,3.643-1.627,3.643-3.644C81.476,204.5,79.851,202.872,77.835,202.872z"/>
			<path fill="#3D4A5A" d="M88.763,206.513c0,2.016,1.629,3.644,3.646,3.644h7.285c2.014,0,3.643-1.627,3.643-3.644
				c0-2.016-1.629-3.644-3.643-3.644H92.41C90.392,202.872,88.763,204.5,88.763,206.513z"/>
			<path fill="#3D4A5A" d="M114.263,210.157h7.285c2.018,0,3.645-1.627,3.645-3.644c0-2.016-1.627-3.644-3.645-3.644h-7.285
				c-2.016,0-3.643,1.628-3.643,3.644C110.621,208.53,112.248,210.157,114.263,210.157z"/>
			<path fill="#3D4A5A" d="M55.98,202.872h-7.285c-2.018,0-3.645,1.628-3.645,3.644s1.629,3.644,3.645,3.644h7.285
				c2.014,0,3.643-1.627,3.643-3.644C59.623,204.5,57.994,202.872,55.98,202.872z"/>
			<path fill="#3D4A5A" d="M136.121,210.157h7.283c2.016,0,3.645-1.627,3.645-3.644c0-2.016-1.629-3.644-3.645-3.644h-7.283
				c-2.016,0-3.645,1.628-3.645,3.644C132.476,208.53,134.105,210.157,136.121,210.157z"/>
			<path fill="#3D4A5A" d="M34.123,202.872h-7.285c-2.014,0-3.643,1.628-3.643,3.644s1.629,3.644,3.643,3.644h7.285
				c2.016,0,3.643-1.627,3.643-3.644C37.765,204.5,36.138,202.872,34.123,202.872z"/>
			<path fill="#3D4A5A" d="M110.621,148.231c0,8.034,6.535,14.569,14.57,14.569s14.568-6.536,14.568-14.569
				c0-8.035-6.533-14.571-14.568-14.571S110.621,140.196,110.621,148.231z M125.191,140.946c4.018,0,7.285,3.267,7.285,7.285
				c0,4.018-3.27,7.284-7.285,7.284c-4.018,0-7.285-3.267-7.285-7.284C117.906,144.211,121.173,140.946,125.191,140.946z"/>
			<path fill="#3D4A5A" d="M106.767,28.022L86.964,8.218c-1.613-1.612-4.248-1.612-5.859,0l-7.453,7.453l-7.453-7.453
				c-1.613-1.612-4.246-1.612-5.861,0L40.537,28.022h-61.053c-16.066,0-29.143,13.074-29.143,29.142v141.512
				c0,14.364,11.688,26.053,26.055,26.053h192.51v-50.997v-50.999V86.304v-7.285V28.022H106.767L106.767,28.022z M84.035,15.592
				l12.43,12.43l50.998,50.999h-19.639L86.783,37.975c-1.541-1.498-3.957-1.494-5.533,0.039L40.248,79.021H20.609l58.193-58.192l0,0
				L84.035,15.592z M117.527,79.019h-66.98l33.488-33.488L117.527,79.019z M63.265,15.592l5.234,5.234L10.31,79.019H-0.163
				L50.835,28.02L63.265,15.592z M-20.518,35.307h53.766l-7.506,7.506c-1.105,0.357-1.949,1.199-2.307,2.308l-33.898,33.898h-10.055
				c-12.055,0-21.855-9.804-21.855-21.855C-42.374,45.11-32.571,35.307-20.518,35.307z M161.619,166.444h-40.07
				c-10.043,0-18.213-8.17-18.213-18.213c0-10.042,8.17-18.216,18.213-18.216h40.07V166.444z M161.619,93.59h-3.646
				c-2.014,0-3.641,1.628-3.641,3.644c0,2.014,1.627,3.644,3.641,3.644h3.646v21.854h-40.07c-14.057,0-25.5,11.441-25.5,25.5
				c0,14.057,11.443,25.499,25.5,25.499h40.07v29.142h-3.646c-2.014,0-3.641,1.628-3.641,3.644s1.627,3.644,3.641,3.644h3.646v7.286
				H-23.608c-10.346,0-18.768-8.417-18.768-18.769v-8.026c0.85-0.91,1.258-2.197,0.877-3.478c-0.582-1.989-0.877-4.061-0.877-6.156
				v-99.65c0.85-0.91,1.258-2.196,0.877-3.476c-0.066-0.235-0.094-0.48-0.154-0.719c0.326,0.347,0.658,0.688,1.002,1.015
				c0.313,0.302,0.639,0.591,0.965,0.879c0.408,0.354,0.822,0.7,1.25,1.036c0.342,0.271,0.689,0.528,1.045,0.783
				c0.439,0.317,0.896,0.615,1.354,0.906c0.369,0.233,0.736,0.459,1.115,0.678c0.48,0.274,0.975,0.528,1.469,0.775
				c0.383,0.192,0.768,0.386,1.158,0.561c0.521,0.23,1.053,0.437,1.584,0.637c0.393,0.147,0.783,0.303,1.188,0.434
				c0.57,0.187,1.152,0.335,1.734,0.487c0.387,0.099,0.768,0.216,1.158,0.3c0.66,0.142,1.33,0.235,2.004,0.331
				c0.336,0.048,0.664,0.117,1.002,0.154c1.021,0.107,2.057,0.17,3.102,0.17h13.898H3.675h10.471h10.303h18.053h83.072h18.043
				h10.303h7.699V93.59L161.619,93.59z M157.765,79.019l-29.143-29.143h0.211c2.018,0,3.645-1.628,3.645-3.644
				s-1.627-3.644-3.645-3.644h-7.285c-0.063,0-0.111,0.033-0.176,0.037l-7.32-7.321h47.566v43.712h-3.854V79.019z"/>
			<path fill="#3D4A5A" d="M150.691,42.592h-7.287c-2.016,0-3.645,1.629-3.645,3.643c0,2.015,1.629,3.645,3.645,3.645h7.287
				c2.014,0,3.643-1.629,3.643-3.645C154.333,44.218,152.705,42.592,150.691,42.592z"/>
		</g>
	</g>
	<g id="Слой_7" display="none">
		<g display="inline">
			<g>
				<path fill="#3D4A5A" d="M168.142,13.71h-41.246h-12.521c-3.174-11.022-13.24-18.75-24.977-18.75
					c-11.738,0-21.803,7.728-24.979,18.75H51.9H10.652c-1.943,0-3.52,1.573-3.52,3.517v200.612c0,1.943,1.576,3.518,3.52,3.518
					h157.486c1.943,0,3.52-1.574,3.52-3.518V17.225C171.658,15.283,170.083,13.71,168.142,13.71z M55.414,32.223V20.74h11.801
					c0.02,0,0.033-0.003,0.051-0.003c0.078,0,0.152-0.004,0.23-0.012c0.039-0.002,0.08-0.007,0.121-0.011
					c0.076-0.009,0.148-0.021,0.225-0.032c0.041-0.01,0.082-0.016,0.123-0.022c0.07-0.017,0.141-0.035,0.209-0.054
					c0.041-0.015,0.084-0.023,0.127-0.037c0.064-0.021,0.125-0.047,0.189-0.069c0.045-0.017,0.09-0.034,0.133-0.053
					c0.063-0.026,0.117-0.056,0.174-0.084c0.045-0.022,0.088-0.044,0.131-0.067c0.059-0.031,0.111-0.064,0.164-0.102
					c0.041-0.024,0.082-0.051,0.121-0.077c0.055-0.038,0.107-0.08,0.162-0.12c0.035-0.027,0.07-0.055,0.104-0.083
					c0.055-0.045,0.104-0.093,0.154-0.142c0.029-0.028,0.063-0.058,0.088-0.086c0.055-0.052,0.102-0.104,0.148-0.16
					c0.021-0.03,0.053-0.063,0.078-0.092c0.043-0.057,0.086-0.111,0.127-0.17c0.021-0.035,0.051-0.07,0.072-0.105
					c0.037-0.055,0.07-0.111,0.105-0.169c0.025-0.042,0.051-0.085,0.072-0.13c0.027-0.053,0.053-0.105,0.076-0.159
					s0.051-0.104,0.07-0.159c0.021-0.048,0.037-0.097,0.057-0.146c0.02-0.063,0.043-0.125,0.063-0.189
					c0.014-0.045,0.023-0.091,0.033-0.137C70.64,18,70.656,17.93,70.669,17.86c0.002-0.02,0.01-0.036,0.012-0.053
					c1.537-9.164,9.408-15.815,18.715-15.815s17.178,6.651,18.717,15.815c0.002,0.02,0.008,0.037,0.012,0.057
					c0.01,0.058,0.023,0.115,0.037,0.172c0.012,0.052,0.025,0.104,0.039,0.154c0.016,0.056,0.031,0.106,0.051,0.162
					c0.018,0.055,0.037,0.106,0.059,0.158c0.021,0.049,0.039,0.096,0.059,0.143c0.025,0.058,0.055,0.113,0.084,0.17
					c0.02,0.039,0.039,0.078,0.061,0.117c0.035,0.062,0.072,0.121,0.109,0.181c0.021,0.03,0.039,0.063,0.063,0.094
					c0.045,0.067,0.094,0.13,0.145,0.193c0.016,0.021,0.033,0.044,0.049,0.065c0.07,0.08,0.143,0.16,0.217,0.236
					c0,0.001,0.002,0.001,0.002,0.002c0.076,0.075,0.156,0.146,0.236,0.215c0.031,0.026,0.066,0.051,0.1,0.075
					c0.051,0.04,0.104,0.08,0.154,0.116c0.043,0.029,0.086,0.055,0.129,0.082c0.047,0.029,0.094,0.059,0.143,0.086
					c0.047,0.027,0.096,0.05,0.143,0.074c0.049,0.023,0.1,0.049,0.146,0.07s0.098,0.043,0.146,0.062
					c0.055,0.022,0.107,0.042,0.162,0.06c0.049,0.018,0.094,0.031,0.141,0.047c0.064,0.019,0.129,0.033,0.193,0.049
					c0.041,0.01,0.082,0.021,0.123,0.027c0.08,0.018,0.164,0.028,0.248,0.038c0.023,0.004,0.051,0.011,0.078,0.013
					c0.111,0.01,0.227,0.018,0.342,0.018c0.002,0,0.004,0,0.006,0h11.801v11.484v9.607H55.421v-9.611H55.414L55.414,32.223z
					 M51.9,48.864h74.994c1.939,0,3.518-1.574,3.518-3.516V35.74h19.217v129.837h-32.107c-1.939,0-3.516,1.574-3.516,3.515v32.107
					h-84.84V35.74h19.219v9.608C48.384,47.291,49.958,48.864,51.9,48.864z M144.656,172.607l-23.621,23.621v-23.621H144.656z
					 M164.628,214.323H14.167V20.74h34.217v7.968H25.652c-1.941,0-3.516,1.574-3.516,3.518v172.489c0,1.942,1.574,3.518,3.516,3.518
					h91.869c0.115,0,0.23-0.009,0.348-0.02c0.055-0.006,0.104-0.016,0.158-0.021c0.059-0.011,0.119-0.019,0.182-0.029
					c0.061-0.011,0.119-0.028,0.176-0.043c0.055-0.013,0.105-0.025,0.158-0.04c0.057-0.02,0.111-0.039,0.168-0.062
					c0.053-0.018,0.104-0.034,0.158-0.057c0.051-0.021,0.102-0.048,0.15-0.072c0.055-0.022,0.105-0.047,0.158-0.073
					c0.049-0.027,0.096-0.058,0.143-0.085c0.053-0.03,0.104-0.061,0.152-0.094c0.051-0.033,0.1-0.071,0.15-0.108
					c0.041-0.031,0.084-0.062,0.125-0.096c0.084-0.066,0.164-0.142,0.24-0.218c0.006-0.005,0.012-0.009,0.018-0.015l35.623-35.623
					c0.004-0.004,0.008-0.01,0.014-0.016c0.076-0.077,0.148-0.158,0.219-0.242c0.033-0.042,0.064-0.083,0.096-0.125
					c0.037-0.052,0.076-0.102,0.109-0.151s0.064-0.102,0.096-0.154c0.025-0.046,0.057-0.093,0.082-0.141
					c0.027-0.054,0.055-0.108,0.076-0.162c0.023-0.05,0.051-0.099,0.07-0.148c0.021-0.055,0.039-0.106,0.059-0.161
					c0.021-0.056,0.041-0.109,0.061-0.164c0.016-0.057,0.025-0.108,0.041-0.163c0.014-0.058,0.031-0.112,0.041-0.169
					c0.014-0.064,0.021-0.128,0.027-0.193c0.01-0.049,0.02-0.097,0.021-0.146c0.012-0.117,0.02-0.233,0.018-0.352V32.223
					c0-1.94-1.572-3.517-3.516-3.517H130.41v-7.968h34.221L164.628,214.323L164.628,214.323z"/>
			</g>
		</g>
		<g display="inline">
			<g>
				<path fill="#3D4A5A" d="M89.396,62.458c-24.684,0-44.764,20.081-44.764,44.763c0,24.684,20.08,44.764,44.764,44.764
					s44.764-20.08,44.764-44.764C134.16,82.538,114.08,62.458,89.396,62.458z M89.396,144.953c-20.807,0-37.73-16.926-37.73-37.732
					c0-20.806,16.926-37.73,37.73-37.73c20.807,0,37.732,16.926,37.732,37.73C127.13,128.027,110.203,144.953,89.396,144.953z"/>
			</g>
		</g>
		<g display="inline">
			<g>
				<path fill="#3D4A5A" d="M110.632,88.797c-1.373-1.374-3.6-1.374-4.971,0l-30.326,30.326l-8.764-8.764
					c-1.373-1.372-3.6-1.372-4.973,0c-1.373,1.374-1.373,3.599,0,4.972l11.25,11.249c0.688,0.687,1.586,1.031,2.484,1.031
					s1.801-0.346,2.484-1.031l32.813-32.812C112.003,92.396,112.003,90.17,110.632,88.797z"/>
			</g>
		</g>
	</g>
	<g id="Слой_8" display="none">
		<g display="inline">
			<g>
				<path d="M151.199,135.365l-9.768-62.509l6.174-70.375c0.09-1.031-0.256-2.051-0.955-2.814c-0.699-0.763-1.686-1.195-2.721-1.195
					H89.65c-1.027,0-2.006,0.426-2.705,1.18c-0.697,0.75-1.051,1.76-0.975,2.783l5.143,68.955c-0.152,0.317-0.262,0.659-0.318,1.021
					l-9.838,62.954c-0.117,0.757,0.004,1.533,0.346,2.218l31.479,62.954c0.625,1.25,1.9,2.038,3.299,2.038s2.674-0.789,3.299-2.038
					l31.479-62.954C151.197,136.898,151.316,136.121,151.199,135.365z M139.904,5.848l-5.566,63.442H98.353L93.625,5.848H139.904z
					 M116.078,128.309c-5.561,0-10.082-4.521-10.082-10.082c0-5.559,4.521-10.08,10.082-10.08s10.084,4.521,10.084,10.08
					C126.162,123.789,121.638,128.309,116.078,128.309z M119.767,183.26v-47.969c7.861-1.698,13.771-8.703,13.771-17.063
					c0-9.629-7.832-17.46-17.459-17.46s-17.459,7.831-17.459,17.46c0,8.36,5.908,15.364,13.77,17.063v47.969l-23.961-47.923
					l9.166-58.669h36.969l9.166,58.669L119.767,183.26z"/>
			</g>
		</g>
		<g display="inline">
			<g>
				<path d="M188.867,201.098h-19.672c-2.037,0-3.689,1.651-3.689,3.688v6.146H66.652v-6.146c0-2.037-1.65-3.688-3.689-3.688H43.289
					c-2.035,0-3.688,1.651-3.688,3.688v19.673c0,2.037,1.65,3.688,3.688,3.688h19.674c2.039,0,3.689-1.652,3.689-3.688v-6.148
					h98.854v6.148c0,2.037,1.65,3.688,3.689,3.688h19.672c2.037,0,3.688-1.652,3.688-3.688v-19.673
					C192.556,202.751,190.904,201.098,188.867,201.098z M59.273,220.773H46.976v-12.297h12.297V220.773z M185.177,220.773h-12.295
					v-12.297h12.295V220.773z"/>
			</g>
		</g>
		<g display="inline">
			<g>
				<path d="M206.574,112.572c-2.039,0-3.689,1.65-3.689,3.688c0,47.864-38.941,86.808-86.807,86.808s-86.807-38.941-86.807-86.808
					c0-2.038-1.65-3.688-3.689-3.688c-2.037,0-3.688,1.65-3.688,3.688c0,51.934,42.252,94.185,94.186,94.185
					c51.932,0,94.182-42.251,94.182-94.185C210.261,114.222,208.611,112.572,206.574,112.572z"/>
			</g>
		</g>
	</g>
	<g id="Слой_9">
		<g>
			<g>
				<g>
					<path fill="#3D4A5A" d="M213.857,35.496h-16.982c-1.559-2.822-3.945-5.179-6.949-6.604L132.197,1.547
						c-9.871-4.675-21.91-4.675-31.781,0L42.697,28.891c-3.01,1.426-5.393,3.777-6.949,6.604H18.759
						c-10.342,0-18.758,8.415-18.758,18.759v135.067c0,10.344,8.416,18.76,18.758,18.76h48.773v15.008H52.527v7.503h127.563v-7.503
						h-15.006v-15.008h48.773c10.344,0,18.76-8.416,18.76-18.76V54.255C232.617,43.911,224.201,35.496,213.857,35.496z
						 M45.906,35.676l57.721-27.344c3.939-1.864,8.326-2.852,12.682-2.852s8.742,0.986,12.684,2.852l57.723,27.344
						c2.814,1.332,4.635,4.206,4.635,7.324s-1.818,5.991-4.635,7.324l-57.723,27.343c-7.879,3.73-17.484,3.73-25.363,0
						L45.908,50.325c-2.814-1.333-4.637-4.206-4.637-7.324S43.091,37.007,45.906,35.676z M128.986,115.184
						c-7.863,3.733-17.488,3.733-25.359,0L45.906,87.84c-2.814-1.332-4.637-4.206-4.637-7.323s1.82-5.99,4.637-7.327l15.375-7.282
						l39.135,18.541c4.938,2.338,10.434,3.571,15.893,3.571s10.955-1.233,15.891-3.571l39.139-18.541l15.369,7.281
						c2.822,1.337,4.641,4.211,4.641,7.328s-1.816,5.991-4.633,7.323L128.986,115.184z M171.335,103.426l15.369,7.282
						c2.822,1.335,4.641,4.209,4.641,7.328c0,3.114-1.816,5.991-4.633,7.327l-57.727,27.341c-7.863,3.729-17.488,3.729-25.359,0
						L45.91,125.364c-2.818-1.336-4.641-4.213-4.641-7.327c0-3.118,1.82-5.993,4.637-7.328l15.375-7.282l39.135,18.538
						c4.934,2.341,10.428,3.576,15.893,3.576c5.467,0,10.959-1.234,15.891-3.576L171.335,103.426z M157.58,223.089H75.039v-15.008
						h82.541V223.089z M225.113,189.322c0,6.207-5.049,11.256-11.256,11.256H18.759c-6.205,0-11.254-5.049-11.254-11.256v-3.75
						h217.607V189.322z M225.113,178.068H7.505V54.255C7.505,48.049,12.554,43,18.759,43h15.01c0,6.003,3.508,11.537,8.93,14.107
						l9.818,4.65l-9.822,4.652c-5.422,2.57-8.926,8.106-8.926,14.106c0,6.005,3.508,11.536,8.93,14.106l9.818,4.653l-9.826,4.65
						c-5.418,2.57-8.922,8.108-8.922,14.107s3.504,11.533,8.93,14.105l57.719,27.34c4.936,2.342,10.43,3.574,15.895,3.574
						c5.467,0,10.959-1.232,15.889-3.574l57.73-27.34c5.42-2.572,8.926-8.106,8.926-14.105s-3.506-11.537-8.932-14.107l-9.82-4.65
						l9.82-4.653c5.422-2.57,8.932-8.104,8.932-14.106c0-6-3.506-11.537-8.932-14.106l-9.82-4.652l9.82-4.65
						c5.422-2.57,8.932-8.104,8.932-14.107h15.006c6.207,0,11.256,5.05,11.256,11.255v123.813L225.113,178.068L225.113,178.068z"/>
					<path fill="#3D4A5A" d="M116.308,58.006c10.346,0,18.762-6.73,18.762-15.007s-8.416-15.007-18.762-15.007
						c-10.344,0-18.76,6.73-18.76,15.007S105.964,58.006,116.308,58.006z M116.308,35.496c6.104,0,11.258,3.438,11.258,7.504
						s-5.154,7.503-11.258,7.503c-6.1,0-11.256-3.438-11.256-7.503S110.208,35.496,116.308,35.496z"/>
					<rect x="142.572" y="39.248" fill="#3D4A5A" width="7.504" height="7.503"/>
					<rect x="157.58" y="39.248" fill="#3D4A5A" width="7.504" height="7.503"/>
					<rect x="82.542" y="39.248" fill="#3D4A5A" width="7.504" height="7.503"/>
					<rect x="67.533" y="39.248" fill="#3D4A5A" width="7.506" height="7.503"/>
				</g>
			</g>
		</g>
	</g>
</g>
</svg>
