<?xml version="1.0" encoding="utf-8"?>
<!-- Generator: Adobe Illustrator 21.0.0, SVG Export Plug-In . SVG Version: 6.00 Build 0)  -->
<svg version="1.1" id="Слой_1" xmlns="http://www.w3.org/2000/svg" xmlns:xlink="http://www.w3.org/1999/xlink" x="0px" y="0px"
	 viewBox="0 0 232.6 232.6" style="enable-background:new 0 0 232.6 232.6;" xml:space="preserve">
<style type="text/css">
	.st0{display:none;}
	.st1{display:inline;}
	.st2{fill:#3D4A5A;}
</style>
<g id="Слой_1_1_">
	<g id="Capa_1" class="st0">
		<g class="st1">
			<path class="st2" d="M39.8,11.7c3,0,5.5-2.5,5.5-5.5V0.7c0-3-2.5-5.5-5.5-5.5s-5.5,2.5-5.5,5.5v5.5C34.3,9.3,36.8,11.7,39.8,11.7
				z"/>
			<path class="st2" d="M34.3,236.8v5.5c0,3,2.5,5.5,5.5,5.5s5.5-2.5,5.5-5.5v-5.5c0-3-2.5-5.5-5.5-5.5
				C36.8,231.3,34.3,233.8,34.3,236.8z"/>
			<path class="st2" d="M160.6,127c3,0,5.5-2.5,5.5-5.5s-2.5-5.5-5.5-5.5h-5.5c-3,0-5.5,2.5-5.5,5.5s2.5,5.5,5.5,5.5H160.6z"/>
			<path class="st2" d="M-81,116c-3,0-5.5,2.5-5.5,5.5S-84,127-81,127h5.5c3,0,5.5-2.5,5.5-5.5s-2.5-5.5-5.5-5.5H-81z"/>
			<path class="st2" d="M121.3,45.5c1.4,0,2.8-0.5,3.9-1.6l3.9-3.9c2.1-2.1,2.1-5.6,0-7.8c-2.1-2.1-5.6-2.1-7.8,0l-3.9,3.9
				c-2.1,2.1-2.1,5.6,0,7.8C118.5,45,119.9,45.5,121.3,45.5z"/>
			<path class="st2" d="M-45.6,199.2l-3.9,3.9c-2.1,2.1-2.1,5.6,0,7.8c1.1,1.1,2.5,1.6,3.9,1.6s2.8-0.5,3.9-1.6l3.9-3.9
				c2.1-2.1,2.1-5.6,0-7.8C-40,197-43.5,197-45.6,199.2z"/>
			<path class="st2" d="M-37.8,36.1l-3.9-3.9c-2.1-2.1-5.6-2.1-7.8,0c-2.1,2.1-2.1,5.6,0,7.8l3.9,3.9c1.1,1.1,2.5,1.6,3.9,1.6
				c1.4,0,2.8-0.5,3.9-1.6C-35.7,41.7-35.7,38.3-37.8,36.1z"/>
			<path class="st2" d="M39.8-42.5c-90.8,0-164.7,73.9-164.7,164.7S-51,286.9,39.8,286.9c19.6,0,38.9-3.4,57.2-10.2
				c2.8-1,4.3-4.2,3.2-7c-1.1-2.9-4.2-4.3-7.1-3.2c-17.1,6.3-35,9.5-53.4,9.5c-84.8,0-153.7-69-153.7-153.7
				c0-84.8,69-153.7,153.7-153.7s153.7,69,153.7,153.7c0,18.3-3.2,36.3-9.5,53.4c-1,2.9,0.4,6,3.2,7.1c2.8,1.1,6-0.4,7.1-3.2
				c6.8-18.3,10.2-37.5,10.2-57.2C204.5,31.4,130.6-42.5,39.8-42.5z"/>
		</g>
		<g class="st1">
			<path class="st2" d="M124.1,230v9.8h39.8v9.4h-39.8v25H111v-25h-6.8v-9.4h6.8V230h-6.8v-11.4h6.8v-43.9h31.1
				c8.9,0,15.7,0.9,20.2,2.7c4.6,1.8,8.3,4.9,11.1,9.4c2.8,4.5,4.1,9.5,4.1,15c0,5.5-1,10.1-3.1,13.7c-2,3.6-4.7,6.5-8.1,8.7
				c-3.4,2.1-7.2,3.7-11.6,4.5c-4.4,0.9-8.9,1.3-13.5,1.3L124.1,230L124.1,230z M141.2,218.6c3,0,5.9-0.2,8.7-0.7
				c2.8-0.5,5.2-1.3,7.3-2.6c2.1-1.3,3.7-3,5-5.1c1.2-2.1,1.8-4.9,1.8-8.3c0-2.9-0.6-5.4-1.7-7.5c-1.1-2-2.6-3.7-4.5-5
				c-1.9-1.3-4.2-2.2-6.8-2.8c-2.6-0.6-5.4-0.9-8.3-0.9h-18.5v32.9L141.2,218.6L141.2,218.6z"/>
		</g>
		<g class="st1">
			<path class="st2" d="M8.8,104.5c0,5.2-0.7,9.9-2.2,14c-1.5,4.2-3.6,8.2-6.4,12.2c-9,12.8-15.9,19.2-20.7,19.2
				c-1.5,0-2.7-0.6-3.7-1.6c-1-1.1-1.5-2.4-1.5-3.8c0-1.1,0.5-2.2,1.5-3.4c0.6-0.7,1.9-2,3.9-3.9c4.9-4.6,8.8-9.3,11.6-13.9h-0.1
				c-2.4,1.1-5.3,1.6-8.7,1.6c-5.6,0-10.1-2.2-13.5-6.6c-3.2-4-4.8-8.9-4.8-14.6c0-6.6,2.2-12.1,6.5-16.5c4.3-4.4,9.7-6.6,16.3-6.6
				c7,0,12.4,2.3,16.3,7C7,91.7,8.8,97.4,8.8,104.5z M-13.3,91.3c-3.2,0-5.8,1.2-7.6,3.5s-2.7,5.2-2.7,8.5c0,3.4,0.8,6.2,2.3,8.2
				c1.7,2.3,4.2,3.5,7.5,3.5c3.2,0,5.8-1,7.7-3.1c1.9-2.1,2.9-4.7,2.9-8c0-3.5-0.8-6.4-2.3-8.7C-7.3,92.6-9.9,91.3-13.3,91.3z"/>
			<path class="st2" d="M64,115.1c0,9.5-1.6,17.2-4.9,23.2c-4.1,7.6-10.6,11.4-19.2,11.4c-8.7,0-15.1-3.8-19.2-11.4
				c-3.3-6-4.9-13.8-4.9-23.2c0-9.5,1.6-17.2,4.9-23.2c4.1-7.6,10.6-11.4,19.3-11.4S55,84.4,59.1,92C62.3,98,64,105.7,64,115.1z
				 M52.1,115.1c0-5.9-0.7-10.9-2-14.9c-2.1-6.1-5.5-9.1-10.2-9.1c-4.8,0-8.2,3-10.3,9c-1.4,4-2.1,9-2.1,15
				c0,16.1,4.1,24.2,12.4,24.2c4.8,0,8.1-3.1,10.2-9.2C51.4,126.1,52.1,121.1,52.1,115.1z"/>
			<path class="st2" d="M117.2,115.1c0,9.5-1.6,17.2-4.9,23.2c-4.1,7.6-10.6,11.4-19.2,11.4c-8.7,0-15.1-3.8-19.2-11.4
				c-3.3-6-4.9-13.8-4.9-23.2c0-9.5,1.6-17.2,4.9-23.2c4.1-7.6,10.6-11.4,19.3-11.4c8.7,0,15.2,3.8,19.3,11.4
				C115.6,98,117.2,105.7,117.2,115.1z M105.3,115.1c0-5.9-0.7-10.9-2-14.9c-2.1-6.1-5.5-9.1-10.2-9.1c-4.8,0-8.2,3-10.3,9
				c-1.4,4-2.1,9-2.1,15c0,16.1,4.1,24.2,12.4,24.2c4.8,0,8.1-3.1,10.2-9.2C104.7,126.1,105.3,121.1,105.3,115.1z"/>
		</g>
	</g>
	<g id="Слой_4" class="st0">
		<g class="st1">
			<path class="st2" d="M35.8,210.7c-10.3,0-18.7,8.4-18.7,18.7c0,10.3,8.4,18.7,18.7,18.7c10.3,0,18.7-8.4,18.7-18.7
				C54.5,219.1,46.1,210.7,35.8,210.7z M35.8,237.4c-4.4,0-8-3.6-8-8s3.6-8,8-8c4.4,0,8,3.6,8,8C43.8,233.8,40.2,237.4,35.8,237.4z"
				/>
			<path class="st2" d="M-78.8,58.9L-60,77.8c1,1,2.4,1.6,3.8,1.6s2.7-0.5,3.8-1.6c2.1-2.1,2.1-5.5,0-7.6l-11.7-11.7
				c5.9-8.9,5.9-20.6,0-29.4l23.4-23.4c8.7,5.8,20.8,5.8,29.5,0L0.4,17.4c2.1,2.1,5.5,2.1,7.6,0c2.1-2.1,2.1-5.5,0-7.6L-10.9-9.1
				l-3.8,3.8c-6.1,6-16.6,6-22.7,0l-3.8-3.8l-37.8,37.8l3.8,3.8c6.2,6.2,6.2,16.4,0,22.7L-78.8,58.9z"/>
			<path class="st2" d="M80.1,97c-5.9,8.9-5.9,20.6,0,29.4l-23.4,23.4c-8.7-5.8-20.8-5.8-29.5,0l-11.7-11.7c-2.1-2.1-5.5-2.1-7.6,0
				c-2.1,2.1-2.1,5.5,0,7.6l18.9,18.9l3.8-3.8c6.1-6.1,16.6-6,22.7,0l3.8,3.8l37.8-37.8l-3.8-3.8c-6.2-6.2-6.2-16.4,0-22.7l3.8-3.8
				L76,77.8c-2.1-2.1-5.5-2.1-7.6,0c-2.1,2.1-2.1,5.5,0,7.6L80.1,97z"/>
			<circle class="st2" cx="102.4" cy="111.7" r="5.3"/>
			<circle class="st2" cx="42" cy="172.2" r="5.3"/>
			<path class="st2" d="M-22.2-12.8c2.1-2.1,4-5.5,2-7.6c-2.1-2.1-5.5-2.1-7.6,0s-4,5.5-2,7.6C-27.7-10.8-24.3-10.8-22.2-12.8z"/>
			<circle class="st2" cx="-86.4" cy="43.8" r="5.3"/>
			<path class="st2" d="M123.9,144c0-4.7-0.8-9.3-2.2-13.8l18.4-18.4l-24.3-24.6c5-4.5,8.1-10.9,8.1-17.9c0-13.2-10.8-24-24-24
				c-1,0-1.9,0.1-2.9,0.2c0.1-0.9,0.2-1.9,0.2-2.9c0-13.2-10.8-24-24-24c-1,0-1.9,0.1-2.9,0.2c0.1-0.9,0.2-1.9,0.2-2.9
				c0-13.2-10.8-24-24-24c-1,0-1.9,0.1-2.9,0.2c0.1-1,0.2-1.9,0.2-2.9c0-13.9-9.3-24-22.1-24c-7,0-14,3-18.9,7.6L-24-54.4
				l-100.2,98.1l49.4,49.4c-2.6,3.9-4.2,8.5-4.2,13.5c0,8.4,4.3,15.7,10.8,20c0.3,0.4,0.7,0.9,1.2,1.3l57.4,57.2v9.6h-10.7v69.4
				h96.1h42.7v-69.4h-10.7v-16.2C118.1,169.9,123.9,157.4,123.9,144z M-68.4,106.6c0-3.5,1.4-6.7,3.6-9.1l0.8-0.7
				c1.9-1.7,4.1-2.8,6.4-3.3c0.8-0.2,1.6-0.3,2.5-0.3h11.8h41.6c7.4,0,13.4,6,13.4,13.4c0,0.9-0.1,1.7-0.3,2.5
				c-1.1,5.6-5.9,10.1-11.9,10.7L-2,120h-30.9H-48h-7C-62.4,120-68.4,114-68.4,106.6z M-22.2,47.6c16.7-16.7,43.8-16.7,60.4,0
				c8.1,8.1,12.5,18.8,12.5,30.2S46.3,99.9,38.2,108c-5.4,5.4-12,9.1-19.2,11c0.6-1,1.1-2,1.5-3c0-0.1,0-0.1,0.1-0.2
				c0.5-1.2,0.9-2.5,1.2-3.8c0.1-0.3,0.1-0.7,0.2-1c0.3-1.4,0.4-2.9,0.4-4.3c0-13.2-10.8-24-24-24h-32.8
				C-35.9,69.7-31.5,56.8-22.2,47.6z M113.2,69.2c0,4-1.9,7.8-4.9,10.3L89.7,60.7c2.5-3,6.2-4.8,10.2-4.8
				C107.2,55.9,113.2,61.9,113.2,69.2z M86.5,42.5c0,4-1.8,7.6-4.7,10.1L63.1,33.8c2.5-2.9,6.1-4.6,10-4.6
				C80.5,29.2,86.5,35.2,86.5,42.5z M59.8,15.8c0,3.9-1.7,7.5-4.6,10L36.6,7c2.5-2.8,6-4.5,9.9-4.5C53.8,2.5,59.8,8.5,59.8,15.8z
				 M21.7-24.2c7.9,0,11.4,6.7,11.4,13.3c0,3.8-1.7,7.3-4.4,9.8L10.3-19.7C13.2-22.3,17.5-24.2,21.7-24.2z M-24.1-39.3l20.8,21.1
				l-0.5,1L23,9.5l3.1,3.1l23.6,23.6l3.1,3.1l23.6,23.6l3.1,3.1l26.7,26.7l0.1,0l18.8,19.1l-83,83h-0.2l-64.1-64.1h20.6
				c0.5,0,1.1-0.1,1.6-0.2c2.7,0.4,5.3,0.6,8,0.6c14.1,0,27.7-5.5,37.8-15.6C55.8,105.4,61.4,92,61.4,77.8
				c0-14.3-5.6-27.7-15.6-37.8C24.9,19.2-8.9,19.2-29.8,40c-11.3,11.3-16.8,26.9-15.4,42.6H-55c-1.4,0-2.8,0.2-4.2,0.4
				c-0.4,0.1-0.9,0.2-1.3,0.3c-1,0.2-2,0.5-2.9,0.9c-0.8,0.3-1.6,0.7-2.4,1.1c-0.4,0.2-0.8,0.4-1.2,0.6l-42-42L-24.1-39.3z
				 M-0.8,178.6c-0.2-0.2-0.5-0.4-1-0.7l-47.4-47.2h11.9l64.1,64.1H1.1v-14.5L-0.8,178.6z M-9.6,253.5v-48.1h41h4
				c0.7,0,1.5,0.1,2.2,0.1l4.4,4.4l2.9-2.9c11.8,4,20.2,15.1,20.2,28.2v18.3L-9.6,253.5L-9.6,253.5z M107.8,253.5h-32v-18.3
				c0-11.8-5.1-22.4-13.2-29.8h45.2V253.5L107.8,253.5z M57.2,194.7l19.9-19.9l35.8-35.8c0.2,1.6,0.4,3.3,0.4,4.9
				c0,11-5.1,21.1-13.9,27.7l-2.1,1.6v21.4L57.2,194.7L57.2,194.7z"/>
		</g>
	</g>
	<g id="Слой_5" class="st0">
		<g class="st1">
			<path class="st2" d="M195.4,25.7h-21.4V15v-32v-21.4c0-8.8-7.1-15.9-15.9-15.9h-21.5c-8.8,0-15.9,7.1-15.9,15.9V-17v32v10.7
				h-245.5v176.1h245.5v12.1l21.3,37.4v9.3c0,3,2.4,5.3,5.3,5.3c2.9,0,5.3-2.4,5.3-5.3v-9.3l21.4-37.4v-12.1h21.4L195.4,25.7
				L195.4,25.7z M163.4,4.3h-32V-6.3h32L163.4,4.3L163.4,4.3z M131.4-38.4c0-2.9,2.4-5.3,5.3-5.3h21.5c2.9,0,5.3,2.4,5.3,5.3V-17
				h-32L131.4-38.4L131.4-38.4z M-114.2,191.2V36.4h234.9v154.8H-114.2z M147.4,239.1l-12.1-21.3h24.3L147.4,239.1z M163.4,207.2
				h-32v-5.3V25.7V15h32v10.7v176.1L163.4,207.2L163.4,207.2z M184.8,191.2h-10.7V36.4h10.7V191.2z"/>
			<path class="st2" d="M83.3,84.4h-16c-2.9,0-5.3,2.4-5.3,5.3c0,3,2.4,5.3,5.3,5.3h16c2.9,0,5.3-2.4,5.3-5.3S86.3,84.4,83.3,84.4z"
				/>
			<path class="st2" d="M-12.7,73.7h16c2.9,0,5.3-2.4,5.3-5.3c0-3-2.4-5.3-5.3-5.3h-16c-2.9,0-5.3,2.4-5.3,5.3
				C-18.1,71.3-15.7,73.7-12.7,73.7z"/>
			<path class="st2" d="M83.3,63.1H46c-2.9,0-5.3,2.4-5.3,5.3c0,2.9,2.4,5.3,5.3,5.3h37.4c2.9,0,5.3-2.4,5.3-5.3
				C88.7,65.4,86.3,63.1,83.3,63.1z"/>
			<path class="st2" d="M24.6,73.7c1.4,0,2.8-0.6,3.8-1.5c1-1,1.5-2.4,1.5-3.8c0-1.4-0.6-2.8-1.5-3.8c-2-2-5.6-2-7.6,0
				c-1,1-1.5,2.4-1.5,3.8c0,1.4,0.6,2.8,1.5,3.8C21.8,73.1,23.2,73.7,24.6,73.7z"/>
			<path class="st2" d="M3.3,89.7c0,3,2.4,5.3,5.3,5.3H46c2.9,0,5.3-2.4,5.3-5.3c0-3-2.4-5.3-5.3-5.3H8.6
				C5.7,84.4,3.3,86.8,3.3,89.7z"/>
			<path class="st2" d="M-12.7,95.1c1.4,0,2.8-0.6,3.8-1.5c1-1,1.5-2.4,1.5-3.8c0-1.4-0.6-2.8-1.5-3.8c-2-2-5.6-2-7.6,0
				c-1,1-1.5,2.3-1.5,3.8c0,1.4,0.6,2.8,1.5,3.8C-15.5,94.5-14.2,95.1-12.7,95.1z"/>
			<path class="st2" d="M-66.1,68.9v-5.9c0-3-2.4-5.3-5.3-5.3c-2.9,0-5.3,2.4-5.3,5.3V69c-5.8,1.2-11.1,4.3-15,8.9
				c-3.3,3.9-4.8,8.8-4.2,13.9c0.5,5.2,3.2,10.1,7.4,13.3l11.9,9.3v29c-6.2-2.2-10.7-8.1-10.7-15c0-3-2.4-5.3-5.3-5.3
				c-2.9,0-5.3,2.4-5.3,5.3c0,12.9,9.2,23.7,21.3,26.1v4.7c0,3,2.4,5.3,5.3,5.3c2.9,0,5.3-2.4,5.3-5.3v-4.7c5.8-1.2,11.1-4.3,15-8.9
				c3.3-3.9,4.8-8.8,4.2-13.9c-0.5-5.2-3.2-10.1-7.4-13.3l-11.9-9.3v-29c6.2,2.2,10.7,8.1,10.7,15c0,3,2.4,5.3,5.3,5.3
				c2.9,0,5.3-2.4,5.3-5.3C-44.8,82.2-54,71.4-66.1,68.9z M-60.8,126.8c1.9,1.4,3.1,3.6,3.3,6c0.2,2.2-0.4,4.3-1.8,5.9
				c-1.9,2.2-4.3,3.7-6.9,4.7v-20.7L-60.8,126.8z M-82.1,96.6c-1.9-1.5-3.1-3.6-3.3-6c-0.2-2.2,0.4-4.3,1.8-5.9
				c1.9-2.2,4.3-3.7,6.9-4.7v20.7L-82.1,96.6z"/>
			<path class="st2" d="M4,123.9C-7.6,130-11.6,141.6-13,153.7c-2.2-1.9-4.4-3.7-6.6-5.6c-5.2-4.4-12.8,3.1-7.5,7.5
				c5,4.2,10,8.4,15,12.5c3.5,2.9,9,1.1,9.1-3.8c0.4-11.6,0.9-25.3,12.5-31.3C15.5,130,10.1,120.7,4,123.9z"/>
			<path class="st2" d="M39.5,145.2c-7.4,1.7-15.8,11.1-21,0.6c-3-6.2-12.3-0.8-9.2,5.4c2.8,5.6,8,9.5,14.2,10.3c3.2,0.4,6,0,9-1.2
				c2.2-0.9,10.3-7,12.1-3.8c3.3,6,12.6,0.6,9.2-5.4C51,145.9,45.2,143.9,39.5,145.2z"/>
		</g>
	</g>
	<g id="Слой_6" class="st0">
		<g class="st1">
			<path class="st2" d="M-29.6,51.8c1.8-0.8,2.6-3,1.8-4.8c-0.8-1.8-3-2.6-4.8-1.8c-2.5,1.1-4.9,2.7-7,4.5c-1.5,1.3-1.7,3.6-0.4,5.1
				c0.7,0.8,1.7,1.3,2.8,1.3c0.8,0,1.7-0.3,2.4-0.9C-33.3,53.8-31.5,52.7-29.6,51.8z"/>
			<path class="st2" d="M-16.9,49.9h7.3c2,0,3.6-1.6,3.6-3.6s-1.6-3.6-3.6-3.6h-7.3c-2,0-3.6,1.6-3.6,3.6S-18.9,49.9-16.9,49.9z"/>
			<path class="st2" d="M5,49.9h7.3c2,0,3.6-1.6,3.6-3.6s-1.6-3.6-3.6-3.6H5c-2,0-3.6,1.6-3.6,3.6S3,49.9,5,49.9z"/>
			<path class="st2" d="M-9.6,93.6h-7.3c-2,0-3.6,1.6-3.6,3.6c0,2,1.6,3.6,3.6,3.6h7.3c2,0,3.6-1.6,3.6-3.6
				C-5.9,95.2-7.6,93.6-9.6,93.6z"/>
			<path class="st2" d="M34.1,93.6h-7.3c-2,0-3.6,1.6-3.6,3.6c0,2,1.6,3.6,3.6,3.6h7.3c2,0,3.6-1.6,3.6-3.6
				C37.8,95.2,36.1,93.6,34.1,93.6z"/>
			<path class="st2" d="M12.3,93.6H5c-2,0-3.6,1.6-3.6,3.6c0,2,1.6,3.6,3.6,3.6h7.3c2,0,3.6-1.6,3.6-3.6
				C15.9,95.2,14.3,93.6,12.3,93.6z"/>
			<path class="st2" d="M-29.6,91.6c-1.9-0.9-3.7-2-5.2-3.4c-1.5-1.3-3.8-1.2-5.1,0.4c-1.3,1.5-1.2,3.8,0.4,5.1
				c2.1,1.8,4.4,3.3,7,4.5c0.5,0.2,1,0.3,1.5,0.3c1.4,0,2.7-0.8,3.3-2.1C-27,94.6-27.8,92.5-29.6,91.6z"/>
			<path class="st2" d="M56,93.6h-7.3c-2,0-3.6,1.6-3.6,3.6c0,2,1.6,3.6,3.6,3.6H56c2,0,3.6-1.6,3.6-3.6C59.6,95.2,58,93.6,56,93.6z
				"/>
			<path class="st2" d="M121.5,93.6h-7.3c-2,0-3.6,1.6-3.6,3.6c0,2,1.6,3.6,3.6,3.6h7.3c2,0,3.6-1.6,3.6-3.6
				C125.2,95.2,123.6,93.6,121.5,93.6z"/>
			<path class="st2" d="M143.4,93.6h-7.3c-2,0-3.6,1.6-3.6,3.6c0,2,1.6,3.6,3.6,3.6h7.3c2,0,3.6-1.6,3.6-3.6
				C147,95.2,145.4,93.6,143.4,93.6z"/>
			<path class="st2" d="M77.8,93.6h-7.3c-2,0-3.6,1.6-3.6,3.6c0,2,1.6,3.6,3.6,3.6h7.3c2,0,3.6-1.6,3.6-3.6
				C81.5,95.2,79.9,93.6,77.8,93.6z"/>
			<path class="st2" d="M99.7,93.6h-7.3c-2,0-3.6,1.6-3.6,3.6c0,2,1.6,3.6,3.6,3.6h7.3c2,0,3.6-1.6,3.6-3.6
				C103.3,95.2,101.7,93.6,99.7,93.6z"/>
			<path class="st2" d="M-29.6,200.9c-1.9-0.9-3.7-2-5.2-3.4c-1.5-1.3-3.8-1.1-5.1,0.4c-1.3,1.5-1.2,3.8,0.4,5.1
				c2.1,1.8,4.4,3.3,7,4.5c0.5,0.2,1,0.3,1.5,0.3c1.4,0,2.7-0.8,3.3-2.1C-27,203.9-27.8,201.7-29.6,200.9z"/>
			<path class="st2" d="M12.3,202.9H5c-2,0-3.6,1.6-3.6,3.6s1.6,3.6,3.6,3.6h7.3c2,0,3.6-1.6,3.6-3.6
				C15.9,204.5,14.3,202.9,12.3,202.9z"/>
			<path class="st2" d="M-9.6,202.9h-7.3c-2,0-3.6,1.6-3.6,3.6s1.6,3.6,3.6,3.6h7.3c2,0,3.6-1.6,3.6-3.6
				C-5.9,204.5-7.6,202.9-9.6,202.9z"/>
			<path class="st2" d="M77.8,202.9h-7.3c-2,0-3.6,1.6-3.6,3.6s1.6,3.6,3.6,3.6h7.3c2,0,3.6-1.6,3.6-3.6
				C81.5,204.5,79.9,202.9,77.8,202.9z"/>
			<path class="st2" d="M88.8,206.5c0,2,1.6,3.6,3.6,3.6h7.3c2,0,3.6-1.6,3.6-3.6c0-2-1.6-3.6-3.6-3.6h-7.3
				C90.4,202.9,88.8,204.5,88.8,206.5z"/>
			<path class="st2" d="M114.3,210.2h7.3c2,0,3.6-1.6,3.6-3.6c0-2-1.6-3.6-3.6-3.6h-7.3c-2,0-3.6,1.6-3.6,3.6
				C110.6,208.5,112.2,210.2,114.3,210.2z"/>
			<path class="st2" d="M56,202.9h-7.3c-2,0-3.6,1.6-3.6,3.6s1.6,3.6,3.6,3.6H56c2,0,3.6-1.6,3.6-3.6C59.6,204.5,58,202.9,56,202.9z
				"/>
			<path class="st2" d="M136.1,210.2h7.3c2,0,3.6-1.6,3.6-3.6c0-2-1.6-3.6-3.6-3.6h-7.3c-2,0-3.6,1.6-3.6,3.6
				C132.5,208.5,134.1,210.2,136.1,210.2z"/>
			<path class="st2" d="M34.1,202.9h-7.3c-2,0-3.6,1.6-3.6,3.6s1.6,3.6,3.6,3.6h7.3c2,0,3.6-1.6,3.6-3.6
				C37.8,204.5,36.1,202.9,34.1,202.9z"/>
			<path class="st2" d="M110.6,148.2c0,8,6.5,14.6,14.6,14.6s14.6-6.5,14.6-14.6c0-8-6.5-14.6-14.6-14.6S110.6,140.2,110.6,148.2z
				 M125.2,140.9c4,0,7.3,3.3,7.3,7.3s-3.3,7.3-7.3,7.3c-4,0-7.3-3.3-7.3-7.3C117.9,144.2,121.2,140.9,125.2,140.9z"/>
			<path class="st2" d="M106.8,28L87,8.2c-1.6-1.6-4.2-1.6-5.9,0l-7.5,7.5l-7.5-7.5c-1.6-1.6-4.2-1.6-5.9,0L40.5,28h-61.1
				c-16.1,0-29.1,13.1-29.1,29.1v141.5c0,14.4,11.7,26.1,26.1,26.1h192.5v-51v-51V86.3V79V28H106.8L106.8,28z M84,15.6L96.5,28
				l51,51h-19.6l-41-41c-1.5-1.5-4-1.5-5.5,0l-41,41H20.6l58.2-58.2l0,0L84,15.6z M117.5,79h-67L84,45.5L117.5,79z M63.3,15.6
				l5.2,5.2L10.3,79H-0.2l51-51L63.3,15.6z M-20.5,35.3h53.8l-7.5,7.5c-1.1,0.4-1.9,1.2-2.3,2.3L-10.5,79h-10.1
				c-12.1,0-21.9-9.8-21.9-21.9C-42.4,45.1-32.6,35.3-20.5,35.3z M161.6,166.4h-40.1c-10,0-18.2-8.2-18.2-18.2
				c0-10,8.2-18.2,18.2-18.2h40.1V166.4z M161.6,93.6H158c-2,0-3.6,1.6-3.6,3.6c0,2,1.6,3.6,3.6,3.6h3.6v21.9h-40.1
				c-14.1,0-25.5,11.4-25.5,25.5c0,14.1,11.4,25.5,25.5,25.5h40.1v29.1H158c-2,0-3.6,1.6-3.6,3.6s1.6,3.6,3.6,3.6h3.6v7.3H-23.6
				c-10.3,0-18.8-8.4-18.8-18.8v-8c0.8-0.9,1.3-2.2,0.9-3.5c-0.6-2-0.9-4.1-0.9-6.2V81.4c0.8-0.9,1.3-2.2,0.9-3.5
				c-0.1-0.2-0.1-0.5-0.2-0.7c0.3,0.3,0.7,0.7,1,1c0.3,0.3,0.6,0.6,1,0.9c0.4,0.4,0.8,0.7,1.3,1c0.3,0.3,0.7,0.5,1,0.8
				c0.4,0.3,0.9,0.6,1.4,0.9c0.4,0.2,0.7,0.5,1.1,0.7c0.5,0.3,1,0.5,1.5,0.8c0.4,0.2,0.8,0.4,1.2,0.6c0.5,0.2,1.1,0.4,1.6,0.6
				c0.4,0.1,0.8,0.3,1.2,0.4c0.6,0.2,1.2,0.3,1.7,0.5c0.4,0.1,0.8,0.2,1.2,0.3c0.7,0.1,1.3,0.2,2,0.3c0.3,0,0.7,0.1,1,0.2
				c1,0.1,2.1,0.2,3.1,0.2h13.9H3.7h10.5h10.3h18.1h83.1h18h10.3h7.7V93.6L161.6,93.6z M157.8,79l-29.1-29.1h0.2
				c2,0,3.6-1.6,3.6-3.6s-1.6-3.6-3.6-3.6h-7.3c-0.1,0-0.1,0-0.2,0l-7.3-7.3h47.6V79L157.8,79L157.8,79L157.8,79z"/>
			<path class="st2" d="M150.7,42.6h-7.3c-2,0-3.6,1.6-3.6,3.6c0,2,1.6,3.6,3.6,3.6h7.3c2,0,3.6-1.6,3.6-3.6
				C154.3,44.2,152.7,42.6,150.7,42.6z"/>
		</g>
	</g>
	<g id="Слой_7" class="st0">
		<g class="st1">
			<g>
				<path class="st2" d="M168.1,13.7h-41.2h-12.5C111.2,2.7,101.1-5,89.4-5c-11.7,0-21.8,7.7-25,18.8H51.9H10.7
					c-1.9,0-3.5,1.6-3.5,3.5v200.6c0,1.9,1.6,3.5,3.5,3.5h157.5c1.9,0,3.5-1.6,3.5-3.5V17.2C171.7,15.3,170.1,13.7,168.1,13.7z
					 M55.4,32.2V20.7h11.8c0,0,0,0,0.1,0c0.1,0,0.2,0,0.2,0c0,0,0.1,0,0.1,0c0.1,0,0.1,0,0.2,0c0,0,0.1,0,0.1,0c0.1,0,0.1,0,0.2-0.1
					c0,0,0.1,0,0.1,0c0.1,0,0.1,0,0.2-0.1c0,0,0.1,0,0.1-0.1c0.1,0,0.1-0.1,0.2-0.1c0,0,0.1,0,0.1-0.1c0.1,0,0.1-0.1,0.2-0.1
					c0,0,0.1-0.1,0.1-0.1c0.1,0,0.1-0.1,0.2-0.1c0,0,0.1-0.1,0.1-0.1c0.1,0,0.1-0.1,0.2-0.1c0,0,0.1-0.1,0.1-0.1
					c0.1-0.1,0.1-0.1,0.1-0.2c0,0,0.1-0.1,0.1-0.1c0-0.1,0.1-0.1,0.1-0.2c0,0,0.1-0.1,0.1-0.1c0-0.1,0.1-0.1,0.1-0.2
					c0,0,0.1-0.1,0.1-0.1c0-0.1,0.1-0.1,0.1-0.2s0.1-0.1,0.1-0.2c0,0,0-0.1,0.1-0.1c0-0.1,0-0.1,0.1-0.2c0,0,0-0.1,0-0.1
					c0-0.1,0-0.1,0-0.2c0,0,0,0,0-0.1C72.2,8.6,80.1,2,89.4,2s17.2,6.7,18.7,15.8c0,0,0,0,0,0.1c0,0.1,0,0.1,0,0.2
					c0,0.1,0,0.1,0,0.2c0,0.1,0,0.1,0.1,0.2c0,0.1,0,0.1,0.1,0.2c0,0,0,0.1,0.1,0.1c0,0.1,0.1,0.1,0.1,0.2c0,0,0,0.1,0.1,0.1
					c0,0.1,0.1,0.1,0.1,0.2c0,0,0,0.1,0.1,0.1c0,0.1,0.1,0.1,0.1,0.2c0,0,0,0,0,0.1c0.1,0.1,0.1,0.2,0.2,0.2c0,0,0,0,0,0
					c0.1,0.1,0.2,0.1,0.2,0.2c0,0,0.1,0.1,0.1,0.1c0.1,0,0.1,0.1,0.2,0.1c0,0,0.1,0.1,0.1,0.1c0,0,0.1,0.1,0.1,0.1
					c0,0,0.1,0,0.1,0.1c0,0,0.1,0,0.1,0.1s0.1,0,0.1,0.1c0.1,0,0.1,0,0.2,0.1c0,0,0.1,0,0.1,0c0.1,0,0.1,0,0.2,0c0,0,0.1,0,0.1,0
					c0.1,0,0.2,0,0.2,0c0,0,0.1,0,0.1,0c0.1,0,0.2,0,0.3,0c0,0,0,0,0,0h11.8v11.5v9.6h-68L55.4,32.2L55.4,32.2L55.4,32.2z
					 M51.9,48.9h75c1.9,0,3.5-1.6,3.5-3.5v-9.6h19.2v129.8h-32.1c-1.9,0-3.5,1.6-3.5,3.5v32.1H29.2V35.7h19.2v9.6
					C48.4,47.3,50,48.9,51.9,48.9z M144.7,172.6L121,196.2v-23.6H144.7z M164.6,214.3H14.2V20.7h34.2v8H25.7c-1.9,0-3.5,1.6-3.5,3.5
					v172.5c0,1.9,1.6,3.5,3.5,3.5h91.9c0.1,0,0.2,0,0.3,0c0.1,0,0.1,0,0.2,0c0.1,0,0.1,0,0.2,0c0.1,0,0.1,0,0.2,0c0.1,0,0.1,0,0.2,0
					c0.1,0,0.1,0,0.2-0.1c0.1,0,0.1,0,0.2-0.1c0.1,0,0.1,0,0.2-0.1c0.1,0,0.1,0,0.2-0.1c0,0,0.1-0.1,0.1-0.1c0.1,0,0.1-0.1,0.2-0.1
					c0.1,0,0.1-0.1,0.2-0.1c0,0,0.1-0.1,0.1-0.1c0.1-0.1,0.2-0.1,0.2-0.2c0,0,0,0,0,0l35.6-35.6c0,0,0,0,0,0
					c0.1-0.1,0.1-0.2,0.2-0.2c0,0,0.1-0.1,0.1-0.1c0-0.1,0.1-0.1,0.1-0.2s0.1-0.1,0.1-0.2c0,0,0.1-0.1,0.1-0.1
					c0-0.1,0.1-0.1,0.1-0.2c0-0.1,0.1-0.1,0.1-0.1c0-0.1,0-0.1,0.1-0.2c0-0.1,0-0.1,0.1-0.2c0-0.1,0-0.1,0-0.2c0-0.1,0-0.1,0-0.2
					c0-0.1,0-0.1,0-0.2c0,0,0-0.1,0-0.1c0-0.1,0-0.2,0-0.4V32.2c0-1.9-1.6-3.5-3.5-3.5h-22.7v-8h34.2L164.6,214.3L164.6,214.3z"/>
			</g>
		</g>
		<g class="st1">
			<g>
				<path class="st2" d="M89.4,62.5c-24.7,0-44.8,20.1-44.8,44.8c0,24.7,20.1,44.8,44.8,44.8s44.8-20.1,44.8-44.8
					C134.2,82.5,114.1,62.5,89.4,62.5z M89.4,145c-20.8,0-37.7-16.9-37.7-37.7s16.9-37.7,37.7-37.7c20.8,0,37.7,16.9,37.7,37.7
					C127.1,128,110.2,145,89.4,145z"/>
			</g>
		</g>
		<g class="st1">
			<g>
				<path class="st2" d="M110.6,88.8c-1.4-1.4-3.6-1.4-5,0l-30.3,30.3l-8.8-8.8c-1.4-1.4-3.6-1.4-5,0c-1.4,1.4-1.4,3.6,0,5
					l11.3,11.2c0.7,0.7,1.6,1,2.5,1s1.8-0.3,2.5-1l32.8-32.8C112,92.4,112,90.2,110.6,88.8z"/>
			</g>
		</g>
	</g>
	<g id="Слой_8" class="st0">
		<g class="st1">
			<g>
				<path d="M151.2,135.4l-9.8-62.5l6.2-70.4c0.1-1-0.3-2.1-1-2.8s-1.7-1.2-2.7-1.2H89.7c-1,0-2,0.4-2.7,1.2c-0.7,0.8-1.1,1.8-1,2.8
					l5.1,69c-0.2,0.3-0.3,0.7-0.3,1l-9.8,63c-0.1,0.8,0,1.5,0.3,2.2l31.5,63c0.6,1.3,1.9,2,3.3,2s2.7-0.8,3.3-2l31.5-63
					C151.2,136.9,151.3,136.1,151.2,135.4z M139.9,5.8l-5.6,63.4h-36L93.6,5.8H139.9z M116.1,128.3c-5.6,0-10.1-4.5-10.1-10.1
					c0-5.6,4.5-10.1,10.1-10.1s10.1,4.5,10.1,10.1C126.2,123.8,121.6,128.3,116.1,128.3z M119.8,183.3v-48
					c7.9-1.7,13.8-8.7,13.8-17.1c0-9.6-7.8-17.5-17.5-17.5s-17.5,7.8-17.5,17.5c0,8.4,5.9,15.4,13.8,17.1v48l-24-47.9l9.2-58.7h37
					l9.2,58.7L119.8,183.3z"/>
			</g>
		</g>
		<g class="st1">
			<g>
				<path d="M188.9,201.1h-19.7c-2,0-3.7,1.7-3.7,3.7v6.1H66.7v-6.1c0-2-1.7-3.7-3.7-3.7H43.3c-2,0-3.7,1.7-3.7,3.7v19.7
					c0,2,1.7,3.7,3.7,3.7H63c2,0,3.7-1.7,3.7-3.7v-6.1h98.9v6.1c0,2,1.6,3.7,3.7,3.7h19.7c2,0,3.7-1.7,3.7-3.7v-19.7
					C192.6,202.8,190.9,201.1,188.9,201.1z M59.3,220.8H47v-12.3h12.3C59.3,208.5,59.3,220.8,59.3,220.8z M185.2,220.8h-12.3v-12.3
					h12.3V220.8z"/>
			</g>
		</g>
		<g class="st1">
			<g>
				<path d="M206.6,112.6c-2,0-3.7,1.7-3.7,3.7c0,47.9-38.9,86.8-86.8,86.8s-86.8-38.9-86.8-86.8c0-2-1.6-3.7-3.7-3.7
					c-2,0-3.7,1.7-3.7,3.7c0,51.9,42.3,94.2,94.2,94.2c51.9,0,94.2-42.3,94.2-94.2C210.3,114.2,208.6,112.6,206.6,112.6z"/>
			</g>
		</g>
	</g>
	<path id="Слой_9" class="st2" d="M213.9,35.5h-17c-1.6-2.8-3.9-5.2-6.9-6.6L132.2,1.5c-9.9-4.7-21.9-4.7-31.8,0L42.7,28.9
		c-3,1.4-5.4,3.8-6.9,6.6h-17C8.4,35.5,0,43.9,0,54.3v135.1c0,10.3,8.4,18.8,18.8,18.8h48.8v15h-15v7.5h127.6v-7.5h-15v-15h48.8
		c10.3,0,18.8-8.4,18.8-18.8V54.3C232.6,43.9,224.2,35.5,213.9,35.5z M45.9,35.7l57.7-27.3c3.9-1.9,8.3-2.9,12.7-2.9s8.7,1,12.7,2.9
		l57.7,27.3c2.8,1.3,4.6,4.2,4.6,7.3s-1.8,6-4.6,7.3L129,77.7c-7.9,3.7-17.5,3.7-25.4,0L45.9,50.3c-2.8-1.3-4.6-4.2-4.6-7.3
		S43.1,37,45.9,35.7z M129,115.2c-7.9,3.7-17.5,3.7-25.4,0L45.9,87.8c-2.8-1.3-4.6-4.2-4.6-7.3s1.8-6,4.6-7.3l15.4-7.3l39.1,18.5
		c4.9,2.3,10.4,3.6,15.9,3.6s11-1.2,15.9-3.6l39.1-18.5l15.4,7.3c2.8,1.3,4.6,4.2,4.6,7.3s-1.8,6-4.6,7.3L129,115.2z M171.3,103.4
		l15.4,7.3c2.8,1.3,4.6,4.2,4.6,7.3c0,3.1-1.8,6-4.6,7.3L129,152.7c-7.9,3.7-17.5,3.7-25.4,0l-57.7-27.3c-2.8-1.3-4.6-4.2-4.6-7.3
		c0-3.1,1.8-6,4.6-7.3l15.4-7.3l39.1,18.5c4.9,2.3,10.4,3.6,15.9,3.6c5.5,0,11-1.2,15.9-3.6L171.3,103.4z M157.6,223.1H75v-15h82.5
		V223.1z M225.1,189.3c0,6.2-5,11.3-11.3,11.3H18.8c-6.2,0-11.3-5-11.3-11.3v-3.8h217.6L225.1,189.3L225.1,189.3z M225.1,178.1H7.5
		V54.3c0-6.2,5-11.3,11.3-11.3h15c0,6,3.5,11.5,8.9,14.1l9.8,4.7l-9.8,4.7c-5.4,2.6-8.9,8.1-8.9,14.1c0,6,3.5,11.5,8.9,14.1l9.8,4.7
		l-9.8,4.7c-5.4,2.6-8.9,8.1-8.9,14.1s3.5,11.5,8.9,14.1l57.7,27.3c4.9,2.3,10.4,3.6,15.9,3.6c5.5,0,11-1.2,15.9-3.6l57.7-27.3
		c5.4-2.6,8.9-8.1,8.9-14.1s-3.5-11.5-8.9-14.1l-9.8-4.7l9.8-4.7c5.4-2.6,8.9-8.1,8.9-14.1c0-6-3.5-11.5-8.9-14.1l-9.8-4.7l9.8-4.7
		c5.4-2.6,8.9-8.1,8.9-14.1h15c6.2,0,11.3,5,11.3,11.3L225.1,178.1L225.1,178.1L225.1,178.1z M116.3,58c10.3,0,18.8-6.7,18.8-15
		s-8.4-15-18.8-15c-10.3,0-18.8,6.7-18.8,15S106,58,116.3,58z M116.3,35.5c6.1,0,11.3,3.4,11.3,7.5s-5.2,7.5-11.3,7.5
		c-6.1,0-11.3-3.4-11.3-7.5S110.2,35.5,116.3,35.5z M142.6,39.2h7.5v7.5h-7.5V39.2z M157.6,39.2h7.5v7.5h-7.5V39.2z M82.5,39.2H90
		v7.5h-7.5V39.2z M67.5,39.2H75v7.5h-7.5V39.2z"/>
</g>
</svg>
