<?xml version="1.0" encoding="utf-8"?>
<!-- Generator: Adobe Illustrator 21.0.0, SVG Export Plug-In . SVG Version: 6.00 Build 0)  -->
<svg version="1.1" id="Слой_1" xmlns="http://www.w3.org/2000/svg" xmlns:xlink="http://www.w3.org/1999/xlink" x="0px" y="0px"
	 viewBox="0 0 595.3 618" style="enable-background:new 0 0 595.3 618;" xml:space="preserve">
<style type="text/css">
	.st0{fill:#FFFFFF;}
	.st1{fill:#3D4A5A;}
</style>
<g id="Слой_2">
	<path class="st0" d="M583.2,182.3c0,15.7-12.7,28.3-28.3,28.3H38.5c-15.7,0-28.3-12.7-28.3-28.3V52.9c0-15.7,12.7-28.3,28.3-28.3
		h516.4c15.7,0,28.3,12.7,28.3,28.3V182.3z"/>
	<path class="st0" d="M590.1,374.2c0,15.7-12.7,28.3-28.3,28.3H41.6c-15.7,0-28.3-12.7-28.3-28.3V248c0-15.7,12.7-28.3,28.3-28.3
		h520.2c15.7,0,28.3,12.7,28.3,28.3L590.1,374.2L590.1,374.2z"/>
	<path class="st0" d="M583.2,559.6c0,15.7-12.7,28.3-28.3,28.3H41.6c-15.7,0-28.3-12.7-28.3-28.3V438.9c0-15.7,12.7-28.3,28.3-28.3
		h513.2c15.7,0,28.3,12.7,28.3,28.3V559.6z"/>
</g>
<g id="Capa_1">
	<g>
		<path class="st1" d="M104.2,76.9c-24.6,0-44.6,20-44.6,44.6s20,44.6,44.6,44.6s44.6-20,44.6-44.6S128.8,76.9,104.2,76.9z
			 M104.2,146.3c-13.7,0-24.8-11.1-24.8-24.8c0-13.7,11.1-24.8,24.8-24.8c13.7,0,24.8,11.1,24.8,24.8
			C129,135.2,117.8,146.3,104.2,146.3z"/>
		<circle class="st1" cx="496.1" cy="106.6" r="9.9"/>
		<circle class="st1" cx="456.4" cy="106.6" r="9.9"/>
		<circle class="st1" cx="515.9" cy="136.4" r="9.9"/>
		<circle class="st1" cx="476.2" cy="136.4" r="9.9"/>
		<circle class="st1" cx="416.7" cy="106.6" r="9.9"/>
		<circle class="st1" cx="436.5" cy="136.4" r="9.9"/>
		<circle class="st1" cx="377" cy="106.6" r="9.9"/>
		<circle class="st1" cx="396.9" cy="136.4" r="9.9"/>
		<circle class="st1" cx="337.3" cy="106.6" r="9.9"/>
		<circle class="st1" cx="357.2" cy="136.4" r="9.9"/>
		<path class="st1" d="M595.3,180V63.1c0-25.2-20.5-45.7-45.7-45.7H45.7C20.5,17.4,0,37.9,0,63.1V180c0,14.6,7,27.4,17.6,35.8
			C7,224.2,0,237,0,251.6v116.9c0,14.6,7,27.4,17.6,35.8C7,412.7,0,425.5,0,440.1V557c0,25.2,20.5,45.7,45.7,45.7h503.8
			c25.2,0,45.7-20.5,45.7-45.7V440.1c0-14.6-7-27.4-17.6-35.8c10.7-8.4,17.6-21.2,17.6-35.8V251.6c0-14.6-7-27.4-17.6-35.8
			C588.3,207.4,595.3,194.6,595.3,180z M575.4,440.1V557c0,14.3-11.6,25.9-25.9,25.9H45.7c-14.3,0-25.9-11.6-25.9-25.9V440.1
			c0-14.3,11.6-25.9,25.9-25.9h503.8C563.8,414.2,575.4,425.8,575.4,440.1z M575.4,251.6v116.9c0,14.3-11.6,25.9-25.9,25.9H45.7
			c-14.3,0-25.9-11.6-25.9-25.9V251.6c0-14.3,11.6-25.9,25.9-25.9h503.8C563.8,225.7,575.4,237.3,575.4,251.6z M45.7,205.9
			c-14.3,0-25.9-11.6-25.9-25.9V63.1c0-14.3,11.6-25.9,25.9-25.9h503.8c14.3,0,25.9,11.6,25.9,25.9V180c0,14.3-11.6,25.9-25.9,25.9
			L45.7,205.9L45.7,205.9z"/>
		<path class="st1" d="M104.2,354.7c24.6,0,44.6-20,44.6-44.6s-20-44.6-44.6-44.6s-44.6,20-44.6,44.6S79.6,354.7,104.2,354.7z
			 M104.2,285.2c13.7,0,24.8,11.1,24.8,24.8s-11.1,24.8-24.8,24.8c-13.7,0-24.8-11.1-24.8-24.8S90.5,285.2,104.2,285.2z"/>
		<circle class="st1" cx="496.1" cy="295.2" r="9.9"/>
		<circle class="st1" cx="456.4" cy="295.2" r="9.9"/>
		<circle class="st1" cx="515.9" cy="324.9" r="9.9"/>
		<circle class="st1" cx="476.2" cy="324.9" r="9.9"/>
		<circle class="st1" cx="416.7" cy="295.2" r="9.9"/>
		<circle class="st1" cx="436.5" cy="324.9" r="9.9"/>
		<circle class="st1" cx="377" cy="295.2" r="9.9"/>
		<circle class="st1" cx="396.9" cy="324.9" r="9.9"/>
		<circle class="st1" cx="337.3" cy="295.2" r="9.9"/>
		<circle class="st1" cx="357.2" cy="324.9" r="9.9"/>
		<path class="st1" d="M104.2,543.2c24.6,0,44.6-20,44.6-44.6s-20-44.6-44.6-44.6s-44.6,20-44.6,44.6
			C59.5,523.2,79.6,543.2,104.2,543.2z M104.2,473.7c13.7,0,24.8,11.1,24.8,24.8s-11.1,24.8-24.8,24.8c-13.7,0-24.8-11.1-24.8-24.8
			S90.5,473.7,104.2,473.7z"/>
		<circle class="st1" cx="496.1" cy="483.7" r="9.9"/>
		<circle class="st1" cx="456.4" cy="483.7" r="9.9"/>
		<circle class="st1" cx="515.9" cy="513.4" r="9.9"/>
		<circle class="st1" cx="476.2" cy="513.4" r="9.9"/>
		<circle class="st1" cx="416.7" cy="483.7" r="9.9"/>
		<circle class="st1" cx="436.5" cy="513.4" r="9.9"/>
		<circle class="st1" cx="377" cy="483.7" r="9.9"/>
		<circle class="st1" cx="396.9" cy="513.4" r="9.9"/>
		<circle class="st1" cx="337.3" cy="483.7" r="9.9"/>
		<circle class="st1" cx="357.2" cy="513.4" r="9.9"/>
	</g>
</g>
</svg>
