<?xml version="1.0" encoding="utf-8"?>
<!-- Generator: Adobe Illustrator 21.0.0, SVG Export Plug-In . SVG Version: 6.00 Build 0)  -->
<svg version="1.1" id="Слой_1" xmlns="http://www.w3.org/2000/svg" xmlns:xlink="http://www.w3.org/1999/xlink" x="0px" y="0px"
	 viewBox="0 0 595.3 632" style="enable-background:new 0 0 595.3 632;" xml:space="preserve">
<style type="text/css">
	.st0{fill:#FFFFFF;}
	.st1{fill:#3D4A5A;}
</style>
<g id="Слой_2">
	<ellipse class="st0" cx="274.6" cy="313.3" rx="252.5" ry="238.7"/>
	<ellipse class="st0" cx="271" cy="129" rx="248.8" ry="96.5"/>
	<ellipse class="st0" cx="449.1" cy="478.5" rx="124" ry="123"/>
	<ellipse class="st0" cx="210.1" cy="407" rx="188" ry="29.5"/>
	<ellipse class="st0" cx="226.1" cy="500.8" rx="204" ry="51.2"/>
	<ellipse class="st0" cx="266.6" cy="552" rx="163.5" ry="32.5"/>
	<ellipse class="st0" cx="114.2" cy="442" rx="95.9" ry="77.5"/>
	<ellipse class="st0" cx="200.6" cy="343" rx="140.5" ry="117.5"/>
</g>
<g id="Capa_1">
	<g>
		<path class="st1" d="M532.6,372.1v-2.9V249.2v-5.2V118.6v-5.2c0-1.9-0.6-3.6-1.5-5.1C519,63.5,429,19.4,271.5,19.4
			C114.1,19.4,24.1,63.5,12,108.3c-0.9,1.5-1.5,3.2-1.5,5.1v5.2v125.3v5.2v120.1v5.2v125.3c0,1.7,0.4,3.3,1.2,4.7
			c12.3,51.1,122.7,89.3,259.9,89.3c33.1,0,65.2-2.3,95.8-6.7c22.8,17.2,51,27.6,81.7,27.6c74.9,0,135.8-60.9,135.8-135.8
			C584.8,435.6,564.3,397,532.6,372.1z M498.7,352.7c-1.5-0.6-2.9-1.1-4.4-1.6c-3.2-1.1-6.5-2.2-9.9-3.1c-1.7-0.4-3.3-0.9-5-1.3
			c-3.4-0.8-6.9-1.4-10.4-1.9c-1.5-0.2-3.1-0.5-4.6-0.7c-5-0.6-10.1-0.9-15.3-0.9c-4.3,0-8.6,0.3-12.8,0.7c-1.4,0.1-2.8,0.4-4.2,0.5
			c-2.8,0.4-5.6,0.8-8.4,1.3c-1.6,0.3-3.2,0.7-4.7,1c-2.6,0.6-5.1,1.2-7.6,2c-1.5,0.4-3,0.9-4.6,1.4c-2.6,0.9-5.2,1.8-7.8,2.9
			c-1.2,0.5-2.5,1-3.7,1.5c-3.5,1.5-6.8,3.1-10.1,4.9c-0.3,0.1-0.5,0.3-0.8,0.4c-3.7,2-7.4,4.3-10.9,6.6c-0.4,0.3-0.8,0.6-1.1,0.8
			c-3,2.1-6,4.3-8.8,6.6c-0.7,0.6-1.4,1.2-2,1.7c-2.5,2.1-4.9,4.3-7.3,6.6c-0.7,0.7-1.4,1.4-2.1,2.1c-2.2,2.3-4.4,4.7-6.5,7.1
			c-0.6,0.8-1.3,1.5-1.9,2.2c-2.1,2.6-4.1,5.3-6,8c-0.5,0.7-1,1.3-1.5,2c-2.3,3.4-4.4,6.9-6.4,10.5c-0.2,0.3-0.3,0.6-0.4,0.9
			c-1.7,3.3-3.4,6.6-4.9,10.1c-0.9,2-1.6,4.1-2.4,6.1c-0.6,1.7-1.3,3.3-1.8,5c-0.8,2.4-1.5,4.9-2.2,7.4c-0.2,0.8-0.5,1.6-0.7,2.4
			c-4.2,0.3-8.3,0.5-12.5,0.7c-2.8,0.1-5.6,0.3-8.3,0.4c-8.4,0.3-16.7,0.5-25.1,0.5c-8.6,0-17.1-0.2-25.4-0.5
			c-5-0.2-9.9-0.5-14.8-0.8c-3.1-0.2-6.3-0.3-9.3-0.5c-6.5-0.5-12.8-1.1-19.1-1.7c-1.3-0.1-2.6-0.2-3.8-0.4
			c-7.2-0.8-14.1-1.7-20.9-2.7c-0.3,0-0.5-0.1-0.8-0.1c-35.3-5.2-65.6-13.2-89.3-22.6c-0.2-0.1-0.4-0.1-0.5-0.2
			c-4.3-1.7-8.4-3.5-12.3-5.4c-0.5-0.2-1-0.5-1.5-0.7c-3.5-1.7-6.7-3.4-9.8-5.1c-0.8-0.4-1.6-0.9-2.3-1.3c-2.7-1.6-5.1-3.2-7.5-4.8
			c-0.9-0.6-1.9-1.3-2.7-1.9c-2-1.5-3.7-2.9-5.4-4.4c-1-0.8-1.9-1.7-2.8-2.5c-1.4-1.3-2.6-2.7-3.7-4c-0.8-1-1.6-2-2.3-3
			c-0.9-1.3-1.7-2.5-2.4-3.8c-0.6-1.1-1.1-2.1-1.5-3.2c-0.5-1.2-0.9-2.5-1.2-3.7c-0.4-1.7-0.8-3.4-0.8-5.1v-85.7
			c0.2,0.2,0.4,0.3,0.6,0.5c2.4,2.1,4.9,4.3,7.7,6.3c39.4,29.7,118,52.8,231.9,52.8c113.6,0,192.1-23,231.6-52.6
			c3-2.2,5.7-4.5,8.3-6.8c0.1-0.1,0.2-0.1,0.3-0.2v75c-0.6-0.3-1.1-0.5-1.7-0.8C506.3,355.9,502.5,354.2,498.7,352.7z M37.6,163.5
			c3.1,2.5,6.5,4.9,10.2,7.3c0.8,0.5,1.6,1,2.4,1.5c3.1,1.9,6.3,3.8,9.7,5.6c1.3,0.7,2.5,1.3,3.8,2c3.8,1.9,7.8,3.8,12,5.7
			c0.7,0.3,1.3,0.6,2,0.9c4.9,2.1,10.1,4.1,15.5,6c1.5,0.5,3.1,1,4.6,1.6c4.3,1.5,8.8,2.8,13.4,4.2c1.7,0.5,3.3,1,5,1.5
			c6.1,1.7,12.4,3.3,19,4.8c0.9,0.2,1.9,0.4,2.8,0.6c5.8,1.3,11.9,2.5,18.1,3.6c2.1,0.4,4.3,0.7,6.4,1.1c5.9,1,12,1.9,18.3,2.7
			c1.6,0.2,3.1,0.4,4.8,0.6c7.8,0.9,15.8,1.7,24.1,2.4c2,0.2,4.2,0.3,6.2,0.4c6.6,0.5,13.4,0.9,20.3,1.2c2.5,0.1,5,0.2,7.6,0.3
			c9,0.3,18.2,0.5,27.7,0.5s18.7-0.2,27.7-0.5c2.6-0.1,5.1-0.2,7.6-0.3c6.9-0.3,13.7-0.7,20.3-1.2c2.1-0.2,4.2-0.3,6.2-0.4
			c8.3-0.7,16.3-1.5,24.1-2.4c1.6-0.2,3.2-0.4,4.8-0.6c6.3-0.8,12.3-1.7,18.3-2.7c2.2-0.4,4.3-0.7,6.4-1.1
			c6.2-1.1,12.3-2.3,18.1-3.6c0.9-0.2,1.9-0.4,2.8-0.6c6.6-1.5,12.9-3.1,19-4.8c1.7-0.5,3.3-1,5-1.5c4.6-1.3,9.1-2.7,13.4-4.2
			c1.5-0.5,3.1-1,4.6-1.6c5.4-1.9,10.6-3.9,15.5-6c0.7-0.3,1.3-0.6,2-0.9c4.2-1.8,8.2-3.7,12-5.7c1.3-0.7,2.6-1.3,3.8-2
			c3.4-1.8,6.7-3.7,9.7-5.6c0.8-0.5,1.6-1,2.4-1.5c3.7-2.4,7-4.8,10.2-7.3c0.8-0.6,1.5-1.3,2.2-1.9c1.4-1.1,2.8-2.2,4-3.4v85.7
			c0,1.7-0.4,3.4-0.8,5.1c-0.3,1.2-0.7,2.4-1.2,3.7c-0.4,1.1-1,2.2-1.5,3.2c-0.7,1.2-1.4,2.5-2.3,3.7c-0.7,1-1.5,2-2.4,3
			c-1.1,1.3-2.3,2.7-3.7,4c-0.9,0.9-1.9,1.7-2.8,2.6c-1.7,1.5-3.4,2.9-5.4,4.3c-0.9,0.7-1.9,1.3-2.8,2c-2.3,1.6-4.7,3.2-7.4,4.7
			c-0.8,0.5-1.6,0.9-2.4,1.4c-3.1,1.7-6.2,3.4-9.7,5.1c-0.5,0.2-1.1,0.5-1.6,0.7c-3.9,1.8-7.9,3.6-12.2,5.3
			c-0.2,0.1-0.4,0.2-0.6,0.2c-23.7,9.4-54,17.4-89.2,22.6c-0.3,0-0.5,0.1-0.8,0.1c-6.8,1-13.8,1.9-20.9,2.7
			c-1.3,0.1-2.6,0.2-3.8,0.4c-6.3,0.6-12.6,1.3-19.1,1.7c-3.1,0.2-6.3,0.3-9.4,0.5c-4.9,0.3-9.8,0.6-14.8,0.8
			c-8.3,0.3-16.8,0.5-25.4,0.5s-17.1-0.2-25.4-0.5c-5-0.2-9.9-0.5-14.8-0.8c-3.1-0.2-6.3-0.3-9.3-0.5c-6.5-0.5-12.8-1.1-19.1-1.7
			c-1.3-0.1-2.6-0.2-3.8-0.4c-7.2-0.8-14.1-1.7-20.9-2.7c-0.3,0-0.5-0.1-0.8-0.1c-35.3-5.2-65.6-13.2-89.3-22.6
			c-0.2-0.1-0.4-0.1-0.5-0.2c-4.3-1.7-8.4-3.5-12.3-5.4c-0.5-0.2-1-0.5-1.5-0.7c-3.5-1.7-6.7-3.4-9.8-5.1c-0.8-0.4-1.6-0.9-2.3-1.3
			c-2.7-1.6-5.1-3.2-7.5-4.8c-0.9-0.6-1.9-1.3-2.7-1.9c-2-1.5-3.7-2.9-5.4-4.4c-1-0.8-1.9-1.7-2.8-2.5c-1.4-1.3-2.6-2.7-3.7-4
			c-0.8-1-1.6-2-2.3-3c-0.9-1.3-1.7-2.5-2.4-3.8c-0.6-1.1-1.1-2.1-1.5-3.2c-0.5-1.2-0.9-2.5-1.2-3.7c-0.4-1.7-0.8-3.4-0.8-5.1v-85.7
			c1.3,1.1,2.7,2.3,4,3.4C36.1,162.2,36.8,162.9,37.6,163.5z M271.5,40.3c141.6,0,240.2,41.3,240.2,78.3s-98.6,78.3-240.2,78.3
			c-141.6,0-240.2-41.3-240.2-78.3S130,40.3,271.5,40.3z M271.5,572.9c-136.2,0-233.9-38.7-239.9-74.8c-0.1-0.5-0.2-0.9-0.3-1.4
			v-87.9c0.2,0.2,0.4,0.3,0.6,0.5c2.4,2.1,4.9,4.3,7.7,6.3c39.4,29.7,118,52.8,231.9,52.8c8.3,0,16.7-0.2,25-0.5
			c2.5-0.1,5-0.2,7.5-0.3c3.3-0.1,6.6-0.2,9.9-0.4c-0.4,4-0.5,7.9-0.5,11.7c0,4.4,0.3,8.8,0.7,13.2c0.1,1.4,0.4,2.8,0.6,4.2
			c0.4,2.9,0.8,5.9,1.3,8.8c0.3,1.5,0.7,3,1.1,4.6c0.6,2.7,1.3,5.4,2.1,8.1c0.4,1.4,0.9,2.9,1.4,4.3c0.9,2.7,1.9,5.4,2.9,8
			c0.5,1.3,1.1,2.5,1.6,3.8c1.2,2.7,2.5,5.4,3.9,8c0.6,1.1,1.2,2.2,1.8,3.3c1.5,2.7,3.1,5.3,4.7,7.8c0.7,1,1.3,2,2,3
			c1.7,2.5,3.6,4.9,5.5,7.3c0.8,1,1.6,2,2.4,2.9c0.7,0.8,1.3,1.6,1.9,2.4C322.8,571.5,297.5,572.9,271.5,572.9z M449.1,593.8
			c-27.6,0-52.9-9.8-72.7-26c-3.1-2.5-6-5.2-8.7-7.9c-1.1-1.1-2.2-2.4-3.2-3.6c-1.6-1.7-3.2-3.4-4.6-5.3c-1.2-1.5-2.4-3.1-3.6-4.7
			c-1.2-1.6-2.3-3.2-3.4-4.8c-1.1-1.7-2.2-3.5-3.2-5.2c-1-1.7-1.9-3.4-2.8-5.1c-0.9-1.8-1.8-3.6-2.6-5.4c-0.8-1.9-1.6-3.8-2.3-5.7
			c-0.7-1.7-1.3-3.5-1.9-5.3c-0.7-2.2-1.3-4.4-1.9-6.6c-0.4-1.6-0.9-3.2-1.3-4.9c-0.6-2.6-1-5.3-1.3-7.9c-0.2-1.3-0.5-2.7-0.6-4.1
			c-0.4-4.1-0.7-8.2-0.7-12.3c0-3.6,0.2-7.1,0.5-10.6c0.3-3.4,0.8-6.9,1.5-10.5c0.5-2.8,1.2-5.6,1.9-8.3c0.2-0.8,0.4-1.5,0.6-2.3
			c0.7-2.3,1.4-4.5,2.2-6.8c0.4-1.2,0.9-2.4,1.3-3.7c0.7-1.8,1.5-3.7,2.4-5.5c0.7-1.6,1.5-3.1,2.2-4.6c0.8-1.5,1.5-2.9,2.3-4.3
			c1-1.8,2.1-3.6,3.3-5.4c0.7-1.1,1.4-2.2,2.1-3.3c1.5-2.1,3-4.2,4.6-6.2c0.6-0.7,1.1-1.4,1.6-2.1c2.2-2.6,4.4-5.1,6.9-7.5
			c0.1-0.1,0.1-0.1,0.2-0.2c5.1-5.1,10.6-9.6,16.6-13.7c0.7-0.5,1.4-0.9,2.1-1.3c2.2-1.4,4.5-2.8,6.8-4.1c1.1-0.6,2.1-1.1,3.2-1.7
			c2-1,4.1-2,6.1-3c1.3-0.6,2.6-1.1,3.9-1.6c2-0.8,4-1.5,6-2.2c1.4-0.5,2.8-0.9,4.2-1.3c2.1-0.6,4.2-1.1,6.3-1.6
			c1.4-0.3,2.8-0.7,4.2-1c2.3-0.4,4.7-0.8,7.1-1.1c1.2-0.2,2.5-0.4,3.7-0.5c3.6-0.3,7.3-0.5,11-0.5c3.6,0,7.1,0.2,10.5,0.5
			c1.1,0.1,2.2,0.2,3.2,0.4c2.4,0.3,4.9,0.7,7.2,1.1c1.2,0.2,2.3,0.4,3.5,0.7c2.5,0.6,5.1,1.2,7.5,1.9c0.8,0.2,1.7,0.4,2.5,0.7
			c3.1,1,6,2.1,9,3.3c1.4,0.6,2.8,1.2,4.2,1.9c1.6,0.7,3.2,1.5,4.8,2.3c1.6,0.8,3.1,1.6,4.6,2.5c1.3,0.8,2.6,1.5,3.8,2.3
			c1.6,1,3.2,2,4.7,3c29.7,20.8,49.3,55.2,49.3,94.2C564,542.3,512.4,593.8,449.1,593.8z"/>
		<path class="st1" d="M511.7,468.5h-52.2v-52.2c0-5.8-4.7-10.4-10.4-10.4c-5.8,0-10.4,4.7-10.4,10.4v52.2h-52.2
			c-5.8,0-10.4,4.7-10.4,10.4s4.7,10.4,10.4,10.4h52.2v52.2c0,5.8,4.7,10.4,10.4,10.4c5.8,0,10.4-4.7,10.4-10.4v-52.2h52.2
			c5.8,0,10.4-4.7,10.4-10.4S517.5,468.5,511.7,468.5z"/>
	</g>
</g>
</svg>
