<?xml version="1.0" encoding="utf-8"?>
<!-- Generator: Adobe Illustrator 16.0.0, SVG Export Plug-In . SVG Version: 6.00 Build 0)  -->
<!DOCTYPE svg PUBLIC "-//W3C//DTD SVG 1.1//EN" "http://www.w3.org/Graphics/SVG/1.1/DTD/svg11.dtd">
<svg version="1.1" id="Слой_1" xmlns="http://www.w3.org/2000/svg" xmlns:xlink="http://www.w3.org/1999/xlink" x="0px" y="0px"
	 width="205.175px" height="208.688px" viewBox="0 0 205.175 208.688" enable-background="new 0 0 205.175 208.688"
	 xml:space="preserve">
<g id="Слой_2">
	<rect x="6.731" y="6.658" fill="#FFFFFF" width="198.583" height="198.804"/>
</g>
<g id="Слой_1_1_">
	<g id="Capa_1" display="none">
		<g display="inline">
			<path fill="#3D4A5A" d="M41.56-12.606c3.029,0,5.49-2.453,5.49-5.489v-5.49c0-3.037-2.461-5.491-5.49-5.491
				s-5.49,2.454-5.49,5.491v5.49C36.067-15.063,38.528-12.606,41.56-12.606z"/>
			<path fill="#3D4A5A" d="M36.067,212.515v5.49c0,3.037,2.461,5.492,5.49,5.492s5.49-2.455,5.49-5.492v-5.49
				c0-3.035-2.461-5.49-5.49-5.49C38.528,207.023,36.067,209.48,36.067,212.515z"/>
			<path fill="#3D4A5A" d="M162.356,102.699c3.029,0,5.49-2.455,5.49-5.491s-2.461-5.49-5.49-5.49h-5.49
				c-3.031,0-5.49,2.454-5.49,5.49s2.459,5.491,5.49,5.491H162.356z"/>
			<path fill="#3D4A5A" d="M-79.237,91.718c-3.031,0-5.492,2.454-5.492,5.49s2.461,5.491,5.492,5.491h5.49
				c3.031,0,5.49-2.455,5.49-5.491s-2.459-5.49-5.49-5.49H-79.237z"/>
			<path fill="#3D4A5A" d="M123.09,21.161c1.406,0,2.814-0.538,3.883-1.608l3.881-3.882c2.148-2.146,2.148-5.617,0-7.765
				c-2.145-2.146-5.613-2.146-7.764,0l-3.881,3.883c-2.148,2.146-2.148,5.616,0,7.764C120.28,20.629,121.686,21.161,123.09,21.161z"
				/>
			<path fill="#3D4A5A" d="M-43.854,174.857l-3.883,3.883c-2.145,2.146-2.145,5.617,0,7.766c1.07,1.07,2.479,1.607,3.883,1.607
				s2.813-0.537,3.881-1.607l3.885-3.883c2.146-2.146,2.146-5.615,0-7.766C-38.239,172.712-41.714,172.712-43.854,174.857z"/>
			<path fill="#3D4A5A" d="M-36.091,11.789l-3.883-3.883c-2.146-2.146-5.617-2.146-7.766,0c-2.145,2.146-2.145,5.617,0,7.765
				l3.883,3.882c1.07,1.07,2.477,1.608,3.883,1.608c1.404,0,2.811-0.538,3.883-1.608C-33.944,17.411-33.944,13.936-36.091,11.789z"
				/>
			<path fill="#3D4A5A" d="M41.56-66.849c-90.828,0-164.723,73.895-164.723,164.723c0,90.829,73.895,164.724,164.723,164.724
				c19.637,0,38.869-3.432,57.181-10.209c2.844-1.049,4.295-4.211,3.246-7.049c-1.057-2.855-4.207-4.305-7.059-3.246
				c-17.087,6.314-35.041,9.521-53.369,9.521c-84.771,0-153.742-68.971-153.742-153.741c0-84.771,68.971-153.742,153.742-153.742
				c84.771,0,153.74,68.97,153.74,153.742c0,18.339-3.207,36.288-9.525,53.362c-1.049,2.852,0.4,6.01,3.244,7.057
				c2.846,1.07,6.002-0.396,7.057-3.238c6.775-18.301,10.209-37.535,10.209-57.181C206.282,7.045,132.387-66.849,41.56-66.849z"/>
		</g>
		<g display="inline">
			<path fill="#3D4A5A" d="M125.875,205.646v9.771h39.83v9.361h-39.83v25.039h-13.164v-25.039h-6.785v-9.361h6.785v-9.771h-6.785
				v-11.398h6.785v-43.902h31.145c8.912,0,15.652,0.906,20.223,2.715c4.615,1.764,8.301,4.908,11.061,9.434
				c2.762,4.521,4.143,9.521,4.143,14.994c0,5.521-1.02,10.09-3.057,13.707c-2.035,3.619-4.736,6.502-8.105,8.65
				c-3.371,2.15-7.238,3.654-11.604,4.514c-4.367,0.859-8.879,1.289-13.537,1.289L125.875,205.646L125.875,205.646z
				 M142.975,194.247c3.029,0,5.928-0.238,8.688-0.713c2.758-0.477,5.178-1.348,7.26-2.613c2.08-1.268,3.732-2.977,4.953-5.123
				c1.223-2.148,1.832-4.92,1.832-8.313c0-2.939-0.555-5.43-1.662-7.465s-2.623-3.695-4.547-4.984
				c-1.922-1.291-4.172-2.23-6.75-2.816c-2.58-0.588-5.361-0.883-8.348-0.883h-18.523v32.91H142.975L142.975,194.247z"/>
		</g>
		<g display="inline">
			<path fill="#3D4A5A" d="M10.538,80.188c0,5.188-0.732,9.854-2.195,14.001c-1.465,4.15-3.602,8.207-6.406,12.172
				c-9.027,12.814-15.924,19.221-20.682,19.221c-1.465,0-2.686-0.551-3.662-1.648s-1.463-2.379-1.463-3.844
				c0-1.098,0.486-2.229,1.463-3.385c0.609-0.672,1.922-1.982,3.938-3.938c4.881-4.637,8.754-9.272,11.623-13.91H-6.94
				c-2.379,1.1-5.275,1.646-8.691,1.646c-5.553,0-10.066-2.196-13.545-6.589c-3.172-4.026-4.76-8.906-4.76-14.644
				c0-6.589,2.15-12.094,6.451-16.519c4.303-4.422,9.746-6.634,16.336-6.634c6.953,0,12.385,2.316,16.289,6.953
				C8.737,67.409,10.538,73.112,10.538,80.188z M-11.517,67.012c-3.234,0-5.768,1.175-7.598,3.523
				c-1.83,2.348-2.744,5.17-2.744,8.465c0,3.417,0.764,6.162,2.287,8.234c1.707,2.319,4.209,3.479,7.504,3.479
				c3.232,0,5.813-1.037,7.732-3.112c1.922-2.073,2.883-4.727,2.883-7.961c0-3.538-0.764-6.437-2.287-8.694
				C-5.567,68.324-8.161,67.012-11.517,67.012z"/>
			<path fill="#3D4A5A" d="M65.718,90.805c0,9.457-1.645,17.206-4.941,23.245c-4.146,7.627-10.555,11.438-19.217,11.438
				c-8.664,0-15.068-3.813-19.219-11.438c-3.293-6.039-4.941-13.788-4.941-23.245c0-9.456,1.617-17.173,4.854-23.152
				c4.146-7.626,10.584-11.438,19.309-11.438s15.16,3.813,19.311,11.438C64.101,73.632,65.718,81.349,65.718,90.805z M53.821,90.759
				c0-5.928-0.672-10.91-2.014-14.944c-2.074-6.052-5.461-9.077-10.156-9.077c-4.82,0-8.236,2.995-10.25,8.985
				c-1.404,4.035-2.105,9.047-2.105,15.036c0,16.139,4.119,24.205,12.355,24.205c4.758,0,8.145-3.055,10.156-9.168
				C53.149,101.823,53.821,96.811,53.821,90.759z"/>
			<path fill="#3D4A5A" d="M118.977,90.805c0,9.457-1.645,17.206-4.939,23.245c-4.148,7.627-10.557,11.438-19.216,11.438
				c-8.664,0-15.07-3.813-19.221-11.438c-3.293-6.039-4.939-13.788-4.939-23.245c0-9.456,1.617-17.173,4.852-23.152
				c4.146-7.626,10.584-11.438,19.311-11.438c8.722,0,15.16,3.813,19.308,11.438C117.36,73.632,118.977,81.349,118.977,90.805z
				 M107.081,90.759c0-5.928-0.672-10.91-2.012-14.944c-2.076-6.052-5.461-9.077-10.158-9.077c-4.82,0-8.236,2.995-10.25,8.985
				c-1.404,4.035-2.105,9.047-2.105,15.036c0,16.139,4.119,24.205,12.355,24.205c4.758,0,8.145-3.055,10.158-9.168
				C106.409,101.823,107.081,96.811,107.081,90.759z"/>
		</g>
	</g>
	<g id="Слой_4" display="none">
		<g display="inline">
			<path fill="#3D4A5A" d="M37.522,186.413c-10.305,0-18.688,8.383-18.688,18.688c0,10.309,8.383,18.689,18.688,18.689
				c10.307,0,18.689-8.383,18.689-18.689C56.212,194.796,47.827,186.413,37.522,186.413z M37.522,213.109
				c-4.412,0-8.008-3.594-8.008-8.01s3.594-8.008,8.008-8.008c4.416,0,8.012,3.592,8.012,8.008
				C45.532,209.517,41.944,213.109,37.522,213.109z"/>
			<path fill="#3D4A5A" d="M-77.087,34.564l18.875,18.875c1.041,1.041,2.408,1.564,3.773,1.564s2.732-0.524,3.775-1.564
				c2.088-2.088,2.088-5.462,0-7.55l-11.705-11.704c5.879-8.89,5.879-20.556,0-29.445l23.408-23.414
				c8.654,5.757,20.785,5.757,29.453,0L2.194-6.969c2.088,2.087,5.465,2.087,7.551,0c2.088-2.088,2.088-5.462,0-7.552l-18.879-18.88
				l-3.775,3.775c-6.055,6.049-16.6,6.049-22.654,0l-3.773-3.775L-77.093,4.354l3.773,3.774c6.242,6.248,6.242,16.408,0,22.654
				L-77.087,34.564z"/>
			<path fill="#3D4A5A" d="M81.86,72.699c-5.877,8.891-5.877,20.557,0,29.445l-23.406,23.413c-8.666-5.76-20.797-5.76-29.453,0
				l-11.703-11.703c-2.088-2.088-5.463-2.088-7.551,0c-2.086,2.088-2.086,5.461,0,7.549l18.881,18.883l3.773-3.775
				c6.057-6.055,16.602-6.045,22.654,0l3.777,3.775l37.751-37.757l-3.775-3.773c-6.238-6.246-6.238-16.408,0-22.655l3.775-3.772
				L77.712,53.453c-2.088-2.089-5.461-2.089-7.551,0c-2.088,2.088-2.088,5.462,0,7.55L81.86,72.699z"/>
			<circle fill="#3D4A5A" cx="104.137" cy="87.419" r="5.34"/>
			<circle fill="#3D4A5A" cx="43.729" cy="147.83" r="5.339"/>
			<path fill="#3D4A5A" d="M-20.456-37.17c2.086-2.088,4.045-5.468,1.965-7.551c-2.088-2.087-5.467-2.087-7.553,0
				c-2.086,2.088-4.047,5.467-1.963,7.551C-25.919-35.088-22.538-35.088-20.456-37.17z"/>
			<circle fill="#3D4A5A" cx="-84.638" cy="19.459" r="5.339"/>
			<path fill="#3D4A5A" d="M125.624,119.671c0-4.699-0.766-9.314-2.205-13.777l18.447-18.447l-24.32-24.626
				c5.035-4.483,8.078-10.943,8.078-17.901c0-13.247-10.781-24.027-24.027-24.027c-0.973,0-1.934,0.098-2.883,0.213
				c0.115-0.948,0.213-1.903,0.213-2.883c0-13.247-10.781-24.025-24.025-24.025c-0.973,0-1.934,0.096-2.885,0.213
				c0.119-0.95,0.215-1.906,0.215-2.882c0-13.248-10.781-24.028-24.027-24.028c-0.973,0-1.932,0.097-2.883,0.214
				c0.115-0.951,0.213-1.906,0.213-2.884c0-13.919-9.279-24.027-22.064-24.027c-6.982,0-14.029,3.022-18.922,7.593l-26.75-27.081
				l-100.23,98.104l49.354,49.356c-2.639,3.854-4.189,8.508-4.189,13.521c0,8.351,4.295,15.708,10.779,20.011
				c0.32,0.428,0.705,0.86,1.207,1.288l57.428,57.211v9.59h-10.68v69.412h96.109h42.712v-69.414h-10.676v-16.172
				C119.825,145.566,125.624,133.12,125.624,119.671z M-66.595,82.294c0-3.509,1.389-6.68,3.604-9.063l0.816-0.747
				c1.855-1.695,4.09-2.817,6.441-3.289c0.809-0.153,1.631-0.251,2.48-0.251h11.75H0.14c7.359,0,13.352,5.986,13.352,13.351
				c0,0.864-0.098,1.702-0.258,2.523C12.108,90.435,7.306,94.921,1.38,95.492l-1.586,0.148h-30.916h-15.1h-7.031
				C-60.604,95.642-66.595,89.657-66.595,82.294z M-20.452,23.235c16.654-16.653,43.752-16.653,60.404,0
				c8.068,8.066,12.51,18.8,12.51,30.204s-4.441,22.139-12.51,30.206c-5.365,5.365-12.023,9.124-19.211,11.024
				c0.578-0.955,1.08-1.959,1.52-2.995c0.027-0.064,0.045-0.138,0.076-0.202c0.506-1.224,0.885-2.505,1.188-3.819
				c0.082-0.341,0.15-0.679,0.217-1.02c0.256-1.415,0.438-2.851,0.438-4.34c0-13.248-10.781-24.028-24.027-24.028h-32.811
				C-34.142,45.354-29.731,32.514-20.452,23.235z M114.944,44.917c0,4.047-1.854,7.807-4.906,10.295L91.415,36.353
				c2.498-2.974,6.187-4.79,10.181-4.79C108.959,31.568,114.944,37.555,114.944,44.917z M88.249,18.221
				c0,3.968-1.801,7.637-4.742,10.129L64.884,9.492c2.492-2.867,6.104-4.624,10.016-4.624C82.263,4.872,88.249,10.859,88.249,18.221
				z M61.55-8.475c0,3.881-1.74,7.474-4.574,9.963L38.351-17.367c2.488-2.761,6.02-4.453,9.85-4.453
				C55.565-21.824,61.55-15.839,61.55-8.475z M23.47-48.522c7.863,0,11.385,6.707,11.385,13.35c0,3.802-1.676,7.31-4.404,9.793
				L12.03-44.031C14.933-46.664,19.29-48.522,23.47-48.522z M-22.333-63.622l20.848,21.104l-0.461,1.046l26.697,26.694l3.061,3.062
				l23.641,23.638l3.059,3.059l23.639,23.64l3.059,3.06l26.699,26.696l0.084-0.038l18.828,19.062l-82.998,82.997h-0.178
				l-64.07-64.07H0.149c0.547,0,1.059-0.125,1.6-0.162c2.66,0.406,5.322,0.625,7.977,0.625c14.061,0,27.729-5.542,37.775-15.593
				c10.086-10.085,15.641-23.491,15.641-37.754c0-14.262-5.555-27.674-15.641-37.755c-20.814-20.813-54.691-20.813-75.51,0
				c-11.314,11.314-16.83,26.862-15.377,42.587h-9.861c-1.412,0-2.793,0.171-4.166,0.421c-0.441,0.081-0.881,0.166-1.313,0.269
				c-0.994,0.24-1.965,0.545-2.916,0.907c-0.828,0.311-1.615,0.684-2.395,1.084c-0.393,0.203-0.795,0.368-1.176,0.587
				l-42.031-42.037L-22.333-63.622z M0.938,154.292c-0.238-0.209-0.49-0.396-0.961-0.748l-47.395-47.223h11.889l64.072,64.072H2.823
				v-14.512L0.938,154.292z M-7.86,229.128v-48.055h40.994h3.99c0.74,0,1.475,0.059,2.199,0.111l4.398,4.4l2.92-2.922
				c11.752,3.982,20.24,15.096,20.24,28.172v18.291H-7.86V229.128z M109.604,229.128H77.569v-18.293
				c0-11.779-5.096-22.367-13.154-29.762h45.189V229.128L109.604,229.128z M58.919,170.396l19.91-19.912l35.759-35.758
				c0.24,1.633,0.355,3.279,0.355,4.945c0,10.971-5.063,21.074-13.895,27.717l-2.125,1.604v21.404H58.919z"/>
		</g>
	</g>
	<g id="Слой_5" display="none">
		<g display="inline">
			<path fill="#3D4A5A" d="M197.184,1.374h-21.35V-9.301v-32.026v-21.431c0-8.786-7.146-15.934-15.934-15.934h-21.512
				c-8.785,0-15.934,7.146-15.934,15.934v21.431v32.026V1.374h-245.529v176.143h245.531v12.094l21.35,37.363v9.256
				c0,2.951,2.393,5.338,5.338,5.338c2.947,0,5.338-2.387,5.338-5.338v-9.256l21.352-37.363v-12.094h21.352V1.374H197.184z
				 M165.159-19.975h-32.025v-10.677h32.025V-19.975z M133.133-62.757c0-2.898,2.359-5.257,5.258-5.257h21.51
				c2.898,0,5.26,2.357,5.26,5.257v21.431h-32.025L133.133-62.757L133.133-62.757z M-112.396,166.841V12.049h234.855v154.792
				H-112.396z M149.145,214.794l-12.15-21.266h24.309L149.145,214.794z M165.159,182.853h-32.025v-5.336V1.374V-9.301h32.025V1.374
				v176.143V182.853z M186.508,166.841h-10.674V12.049h10.674V166.841z"/>
			<path fill="#3D4A5A" d="M85.095,60.088H69.083c-2.947,0-5.338,2.385-5.338,5.337c0,2.951,2.391,5.338,5.338,5.338h16.012
				c2.947,0,5.338-2.387,5.338-5.338S88.042,60.088,85.095,60.088z"/>
			<path fill="#3D4A5A" d="M-10.981,49.414H5.032c2.945,0,5.338-2.389,5.338-5.338c0-2.953-2.393-5.337-5.338-5.337h-16.014
				c-2.943,0-5.338,2.385-5.338,5.337C-16.319,47.025-13.927,49.414-10.981,49.414z"/>
			<path fill="#3D4A5A" d="M85.095,38.737H47.731c-2.943,0-5.338,2.387-5.338,5.339c0,2.949,2.395,5.338,5.338,5.338h37.363
				c2.947,0,5.338-2.389,5.338-5.338C90.433,41.123,88.042,38.737,85.095,38.737z"/>
			<path fill="#3D4A5A" d="M26.382,49.414c1.387,0,2.775-0.587,3.791-1.548c0.959-1.017,1.547-2.402,1.547-3.79
				c0-1.391-0.588-2.781-1.547-3.791c-2.029-1.977-5.605-1.977-7.58,0c-0.961,1.01-1.549,2.399-1.549,3.791
				c0,1.387,0.588,2.773,1.549,3.79C23.606,48.826,24.94,49.414,26.382,49.414z"/>
			<path fill="#3D4A5A" d="M5.03,65.426c0,2.951,2.393,5.338,5.338,5.338h37.361c2.947,0,5.34-2.387,5.34-5.338
				c0-2.952-2.393-5.337-5.34-5.337H10.368C7.423,60.088,5.03,62.474,5.03,65.426z"/>
			<path fill="#3D4A5A" d="M-10.981,70.764c1.391,0,2.775-0.587,3.791-1.548c0.959-1.014,1.547-2.402,1.547-3.79
				c0-1.446-0.588-2.781-1.547-3.79c-2.027-1.975-5.605-1.975-7.582,0c-0.961,1.009-1.547,2.344-1.547,3.79
				c0,1.388,0.586,2.775,1.547,3.79C-13.757,70.176-12.423,70.764-10.981,70.764z"/>
			<path fill="#3D4A5A" d="M-64.358,44.615v-5.878c0-2.95-2.391-5.338-5.338-5.338c-2.945,0-5.338,2.388-5.338,5.338v5.897
				c-5.822,1.185-11.127,4.276-15.039,8.903c-3.262,3.854-4.771,8.786-4.238,13.895c0.545,5.228,3.234,10.071,7.381,13.295
				l11.896,9.25v29.026c-6.195-2.209-10.674-8.08-10.674-15.032c0-2.952-2.393-5.337-5.338-5.337c-2.947,0-5.338,2.387-5.338,5.337
				c0,12.885,9.186,23.668,21.35,26.151v4.689c0,2.951,2.393,5.336,5.338,5.336c2.947,0,5.338-2.385,5.338-5.336v-4.709
				c5.824-1.184,11.129-4.273,15.047-8.9c3.264-3.865,4.77-8.799,4.232-13.906c-0.549-5.22-3.234-10.063-7.381-13.279l-11.898-9.261
				V55.729c6.197,2.211,10.676,8.082,10.676,15.032c0,2.952,2.393,5.337,5.34,5.337c2.945,0,5.338-2.386,5.338-5.337
				C-43.007,57.878-52.192,47.097-64.358,44.615z M-59.017,102.44c1.863,1.448,3.074,3.63,3.32,5.97
				c0.23,2.188-0.398,4.285-1.768,5.898c-1.857,2.193-4.258,3.73-6.896,4.67V98.277L-59.017,102.44z M-80.376,72.301
				c-1.869-1.452-3.074-3.635-3.32-5.979c-0.223-2.184,0.4-4.273,1.77-5.893c1.854-2.193,4.258-3.729,6.895-4.671v20.694
				L-80.376,72.301z"/>
			<path fill="#3D4A5A" d="M5.806,99.586c-11.688,6.085-15.629,17.728-17.061,29.796c-2.209-1.855-4.418-3.701-6.623-5.551
				c-5.23-4.383-12.822,3.127-7.547,7.547c4.99,4.184,9.984,8.363,14.977,12.547c3.512,2.947,8.951,1.084,9.111-3.773
				c0.391-11.561,0.936-25.311,12.533-31.348C17.286,105.636,11.896,96.416,5.806,99.586z"/>
			<path fill="#3D4A5A" d="M41.3,120.88c-7.391,1.713-15.805,11.117-21.008,0.563c-3.037-6.158-12.25-0.758-9.219,5.387
				c2.76,5.6,8.008,9.518,14.246,10.307c3.17,0.402,6.035-0.047,9.01-1.205c2.184-0.85,10.34-6.977,12.102-3.828
				c3.35,6,12.574,0.619,9.217-5.387C52.782,121.587,46.979,119.56,41.3,120.88z"/>
		</g>
	</g>
	<g id="Слой_6" display="none">
		<g display="inline">
			<path fill="#3D4A5A" d="M-27.839,27.521c1.83-0.835,2.635-2.992,1.797-4.825c-0.838-1.83-2.994-2.644-4.828-1.795
				c-2.523,1.148-4.873,2.66-6.973,4.481c-1.521,1.32-1.686,3.621-0.371,5.141c0.723,0.83,1.738,1.258,2.756,1.258
				c0.844,0,1.697-0.291,2.385-0.89C-31.495,29.521-29.735,28.389-27.839,27.521z"/>
			<path fill="#3D4A5A" d="M-15.118,25.555h7.285c2.016,0,3.645-1.629,3.645-3.644c0-2.017-1.629-3.644-3.645-3.644h-7.285
				c-2.014,0-3.643,1.628-3.643,3.644C-18.761,23.925-17.132,25.555-15.118,25.555z"/>
			<path fill="#3D4A5A" d="M6.739,25.555h7.283c2.016,0,3.645-1.629,3.645-3.644c0-2.017-1.629-3.644-3.645-3.644H6.739
				c-2.018,0-3.645,1.628-3.645,3.644C3.095,23.925,4.724,25.555,6.739,25.555z"/>
			<path fill="#3D4A5A" d="M-7.833,69.268h-7.285c-2.014,0-3.643,1.628-3.643,3.644c0,2.014,1.629,3.644,3.643,3.644h7.285
				c2.016,0,3.645-1.629,3.645-3.644C-4.188,70.895-5.817,69.268-7.833,69.268z"/>
			<path fill="#3D4A5A" d="M35.88,69.268h-7.285c-2.014,0-3.643,1.628-3.643,3.644c0,2.014,1.629,3.644,3.643,3.644h7.285
				c2.016,0,3.643-1.629,3.643-3.644C39.522,70.895,37.896,69.268,35.88,69.268z"/>
			<path fill="#3D4A5A" d="M14.024,69.268H6.741c-2.018,0-3.645,1.628-3.645,3.644c0,2.014,1.627,3.644,3.645,3.644h7.283
				c2.016,0,3.645-1.629,3.645-3.644C17.669,70.895,16.038,69.268,14.024,69.268z"/>
			<path fill="#3D4A5A" d="M-27.839,67.301c-1.895-0.868-3.652-2-5.229-3.369c-1.521-1.313-3.816-1.15-5.141,0.368
				c-1.316,1.519-1.15,3.821,0.367,5.139c2.102,1.821,4.445,3.33,6.971,4.484c0.494,0.226,1.006,0.331,1.514,0.331
				c1.383,0,2.703-0.79,3.314-2.126C-25.208,70.298-26.009,68.135-27.839,67.301z"/>
			<path fill="#3D4A5A" d="M57.737,69.268h-7.285c-2.018,0-3.645,1.628-3.645,3.644c0,2.014,1.629,3.644,3.645,3.644h7.285
				c2.014,0,3.643-1.629,3.643-3.644C61.38,70.895,59.751,69.268,57.737,69.268z"/>
			<path fill="#3D4A5A" d="M123.305,69.268h-7.285c-2.016,0-3.643,1.628-3.643,3.644c0,2.014,1.627,3.644,3.643,3.644h7.285
				c2.018,0,3.645-1.629,3.645-3.644C126.948,70.895,125.321,69.268,123.305,69.268z"/>
			<path fill="#3D4A5A" d="M145.161,69.268h-7.283c-2.018,0-3.646,1.628-3.646,3.644c0,2.014,1.629,3.644,3.646,3.644h7.283
				c2.016,0,3.645-1.629,3.645-3.644C148.805,70.895,147.176,69.268,145.161,69.268z"/>
			<path fill="#3D4A5A" d="M79.593,69.268h-7.285c-2.014,0-3.643,1.628-3.643,3.644c0,2.014,1.629,3.644,3.643,3.644h7.285
				c2.016,0,3.643-1.629,3.643-3.644C83.235,70.895,81.608,69.268,79.593,69.268z"/>
			<path fill="#3D4A5A" d="M101.45,69.268h-7.285c-2.016,0-3.646,1.628-3.646,3.644c0,2.014,1.631,3.644,3.646,3.644h7.285
				c2.014,0,3.643-1.629,3.643-3.644C105.092,70.895,103.463,69.268,101.45,69.268z"/>
			<path fill="#3D4A5A" d="M-27.839,176.583c-1.895-0.867-3.652-2-5.229-3.371c-1.521-1.314-3.816-1.15-5.141,0.369
				c-1.316,1.52-1.15,3.818,0.367,5.141c2.102,1.82,4.445,3.33,6.971,4.484c0.494,0.225,1.006,0.33,1.514,0.33
				c1.383,0,2.703-0.791,3.314-2.127C-25.208,179.581-26.009,177.417-27.839,176.583z"/>
			<path fill="#3D4A5A" d="M14.024,178.55H6.741c-2.018,0-3.645,1.627-3.645,3.643s1.627,3.645,3.645,3.645h7.283
				c2.016,0,3.645-1.627,3.645-3.645C17.667,180.177,16.038,178.55,14.024,178.55z"/>
			<path fill="#3D4A5A" d="M-7.833,178.55h-7.285c-2.014,0-3.643,1.627-3.643,3.643s1.629,3.645,3.643,3.645h7.285
				c2.016,0,3.645-1.627,3.645-3.645C-4.188,180.177-5.817,178.55-7.833,178.55z"/>
			<path fill="#3D4A5A" d="M79.593,178.55h-7.285c-2.014,0-3.643,1.627-3.643,3.643s1.629,3.645,3.643,3.645h7.285
				c2.016,0,3.643-1.627,3.643-3.645C83.233,180.177,81.608,178.55,79.593,178.55z"/>
			<path fill="#3D4A5A" d="M90.521,182.191c0,2.016,1.629,3.645,3.646,3.645h7.285c2.014,0,3.643-1.627,3.643-3.645
				c0-2.016-1.629-3.643-3.643-3.643h-7.285C92.149,178.55,90.521,180.177,90.521,182.191z"/>
			<path fill="#3D4A5A" d="M116.02,185.835h7.285c2.018,0,3.645-1.627,3.645-3.645c0-2.016-1.627-3.643-3.645-3.643h-7.285
				c-2.016,0-3.643,1.627-3.643,3.643C112.377,184.208,114.004,185.835,116.02,185.835z"/>
			<path fill="#3D4A5A" d="M57.737,178.55h-7.285c-2.018,0-3.645,1.627-3.645,3.643s1.629,3.645,3.645,3.645h7.285
				c2.014,0,3.643-1.627,3.643-3.645C61.38,180.177,59.751,178.55,57.737,178.55z"/>
			<path fill="#3D4A5A" d="M137.877,185.835h7.283c2.016,0,3.645-1.627,3.645-3.645c0-2.016-1.629-3.643-3.645-3.643h-7.283
				c-2.016,0-3.645,1.627-3.645,3.643C134.233,184.208,135.862,185.835,137.877,185.835z"/>
			<path fill="#3D4A5A" d="M35.88,178.55h-7.285c-2.014,0-3.643,1.627-3.643,3.643s1.629,3.645,3.643,3.645h7.285
				c2.016,0,3.643-1.627,3.643-3.645C39.522,180.177,37.896,178.55,35.88,178.55z"/>
			<path fill="#3D4A5A" d="M112.377,123.909c0,8.033,6.535,14.568,14.57,14.568s14.568-6.535,14.568-14.568
				c0-8.035-6.533-14.572-14.568-14.572S112.377,115.874,112.377,123.909z M126.948,116.624c4.018,0,7.285,3.266,7.285,7.285
				c0,4.018-3.27,7.283-7.285,7.283c-4.018,0-7.285-3.266-7.285-7.283C119.663,119.89,122.93,116.624,126.948,116.624z"/>
			<path fill="#3D4A5A" d="M108.524,3.699L88.722-16.104c-1.613-1.612-4.248-1.612-5.859,0l-7.453,7.453l-7.453-7.453
				c-1.613-1.612-4.246-1.612-5.861,0L42.294,3.699h-61.053c-16.066,0-29.143,13.074-29.143,29.142v141.512
				c0,14.365,11.688,26.053,26.055,26.053h192.509v-50.996v-51V61.982v-7.285V3.699H108.524L108.524,3.699z M85.792-8.73L98.221,3.7
				l50.998,50.998h-19.639L88.54,13.653c-1.541-1.497-3.957-1.493-5.533,0.04L42.005,54.698H22.366L80.56-3.494l0,0L85.792-8.73z
				 M119.284,54.697h-66.98l33.488-33.488L119.284,54.697z M65.022-8.73l5.234,5.234L12.067,54.697H1.595L52.593,3.698L65.022-8.73z
				 M-18.761,10.985h53.766l-7.506,7.507c-1.105,0.356-1.949,1.199-2.307,2.307L-8.706,54.697h-10.055
				c-12.055,0-21.855-9.804-21.855-21.855C-40.616,20.787-30.813,10.985-18.761,10.985z M163.375,142.122h-40.07
				c-10.043,0-18.213-8.17-18.213-18.213s8.17-18.217,18.213-18.217h40.07V142.122z M163.375,69.268h-3.646
				c-2.014,0-3.641,1.628-3.641,3.644c0,2.014,1.627,3.644,3.641,3.644h3.646v21.854h-40.07c-14.057,0-25.5,11.441-25.5,25.5
				c0,14.057,11.443,25.5,25.5,25.5h40.07v29.141h-3.646c-2.014,0-3.641,1.629-3.641,3.645s1.627,3.643,3.641,3.643h3.646v7.287
				H-21.851c-10.346,0-18.768-8.418-18.768-18.77v-8.025c0.85-0.91,1.258-2.197,0.877-3.479c-0.582-1.988-0.877-4.061-0.877-6.156
				v-99.65c0.85-0.91,1.258-2.196,0.877-3.476c-0.066-0.235-0.094-0.48-0.154-0.719c0.326,0.347,0.658,0.688,1.002,1.015
				c0.313,0.302,0.639,0.591,0.965,0.879c0.408,0.354,0.822,0.7,1.25,1.036c0.342,0.271,0.689,0.528,1.045,0.783
				c0.439,0.317,0.896,0.615,1.354,0.906c0.369,0.233,0.736,0.459,1.115,0.678c0.48,0.274,0.975,0.528,1.469,0.775
				c0.383,0.192,0.768,0.386,1.158,0.561c0.521,0.23,1.053,0.437,1.584,0.637c0.393,0.147,0.783,0.303,1.188,0.434
				c0.57,0.187,1.152,0.335,1.734,0.487c0.387,0.099,0.768,0.216,1.158,0.3c0.66,0.142,1.33,0.235,2.004,0.331
				c0.336,0.048,0.664,0.117,1.002,0.154c1.021,0.107,2.057,0.17,3.102,0.17h13.898H5.433h10.471h10.303h18.053h83.072h18.043
				h10.303h7.699V69.268L163.375,69.268z M159.522,54.697l-29.143-29.143h0.211c2.018,0,3.645-1.628,3.645-3.644
				s-1.627-3.644-3.645-3.644h-7.285c-0.063,0-0.111,0.033-0.176,0.037l-7.32-7.32h47.566v43.711h-3.854V54.697z"/>
			<path fill="#3D4A5A" d="M152.448,18.27h-7.287c-2.016,0-3.645,1.63-3.645,3.644s1.629,3.644,3.645,3.644h7.287
				c2.014,0,3.643-1.629,3.643-3.644C156.09,19.896,154.461,18.27,152.448,18.27z"/>
		</g>
	</g>
	<g id="Слой_7" display="none">
		<g display="inline">
			<g>
				<path fill="#3D4A5A" d="M169.899-10.612h-41.246h-12.521c-3.174-11.022-13.24-18.75-24.976-18.75
					c-11.738,0-21.803,7.728-24.979,18.75h-12.52H12.409c-1.943,0-3.52,1.573-3.52,3.517v200.612c0,1.943,1.576,3.518,3.52,3.518
					h157.486c1.943,0,3.52-1.574,3.52-3.518V-7.096C173.415-9.04,171.84-10.612,169.899-10.612z M57.171,7.902V-3.583h11.801
					c0.02,0,0.033-0.002,0.051-0.002c0.078,0,0.152-0.005,0.23-0.012c0.039-0.003,0.08-0.008,0.121-0.012
					c0.076-0.009,0.148-0.021,0.225-0.032c0.041-0.01,0.082-0.016,0.123-0.022c0.07-0.016,0.141-0.035,0.209-0.054
					c0.041-0.015,0.084-0.023,0.127-0.037c0.064-0.021,0.125-0.046,0.189-0.069c0.045-0.017,0.09-0.034,0.133-0.053
					c0.063-0.026,0.117-0.055,0.174-0.084c0.045-0.022,0.088-0.043,0.131-0.067c0.059-0.03,0.111-0.064,0.164-0.102
					c0.041-0.024,0.082-0.05,0.121-0.077c0.055-0.038,0.107-0.08,0.162-0.12c0.035-0.026,0.07-0.054,0.104-0.083
					c0.055-0.045,0.104-0.093,0.154-0.142c0.029-0.028,0.063-0.058,0.088-0.085c0.055-0.053,0.102-0.105,0.148-0.161
					c0.021-0.03,0.053-0.063,0.078-0.092C71.747-4.945,71.79-5,71.831-5.057c0.021-0.036,0.051-0.07,0.072-0.106
					c0.037-0.055,0.07-0.111,0.105-0.169c0.025-0.042,0.051-0.085,0.072-0.13c0.027-0.052,0.053-0.105,0.076-0.159
					c0.023-0.053,0.051-0.104,0.07-0.159c0.021-0.048,0.037-0.097,0.057-0.146c0.02-0.063,0.043-0.126,0.063-0.19
					c0.014-0.045,0.023-0.091,0.033-0.137c0.018-0.069,0.033-0.138,0.047-0.209c0.002-0.02,0.01-0.036,0.012-0.053
					c1.537-9.164,9.408-15.815,18.715-15.815c9.306,0,17.177,6.651,18.716,15.815c0.002,0.02,0.008,0.037,0.012,0.057
					c0.01,0.058,0.023,0.115,0.037,0.172c0.012,0.052,0.025,0.104,0.039,0.155c0.016,0.055,0.031,0.105,0.051,0.162
					c0.018,0.054,0.037,0.105,0.059,0.157c0.021,0.05,0.039,0.097,0.059,0.143c0.025,0.058,0.055,0.114,0.084,0.17
					c0.02,0.039,0.039,0.079,0.061,0.118c0.035,0.061,0.072,0.121,0.109,0.18c0.021,0.031,0.039,0.063,0.063,0.094
					c0.045,0.067,0.094,0.13,0.145,0.193c0.016,0.021,0.033,0.044,0.049,0.065c0.07,0.08,0.143,0.16,0.217,0.236
					c0,0.001,0.002,0.001,0.002,0.002c0.076,0.075,0.156,0.147,0.236,0.215c0.031,0.026,0.066,0.052,0.1,0.075
					c0.051,0.04,0.104,0.08,0.154,0.116c0.043,0.03,0.086,0.055,0.129,0.082c0.047,0.03,0.094,0.059,0.143,0.086
					c0.047,0.027,0.096,0.05,0.143,0.074c0.049,0.023,0.1,0.049,0.146,0.071c0.047,0.021,0.098,0.042,0.146,0.061
					c0.055,0.022,0.107,0.042,0.162,0.06c0.049,0.018,0.094,0.031,0.141,0.048c0.064,0.018,0.129,0.032,0.193,0.049
					c0.041,0.009,0.082,0.02,0.123,0.026c0.08,0.018,0.164,0.028,0.248,0.038c0.023,0.004,0.051,0.011,0.078,0.013
					c0.111,0.011,0.227,0.018,0.342,0.018c0.002,0,0.004,0,0.006,0h11.801V7.905v9.607H57.179v-9.61H57.171L57.171,7.902z
					 M53.657,24.541h74.994c1.939,0,3.518-1.574,3.518-3.515v-9.609h19.217v129.838h-32.107c-1.939,0-3.516,1.574-3.516,3.514
					v32.107H30.923V11.417h19.219v9.609C50.142,22.968,51.716,24.541,53.657,24.541z M146.413,148.284l-23.621,23.621v-23.621
					H146.413z M166.385,190.001H15.925V-3.583h34.217v7.968H27.409c-1.941,0-3.516,1.574-3.516,3.518v172.489
					c0,1.943,1.574,3.518,3.516,3.518h91.869c0.115,0,0.23-0.008,0.348-0.02c0.055-0.006,0.104-0.016,0.158-0.02
					c0.059-0.012,0.119-0.02,0.182-0.029c0.061-0.012,0.119-0.029,0.176-0.043c0.055-0.014,0.105-0.025,0.158-0.041
					c0.057-0.02,0.111-0.039,0.168-0.061c0.053-0.018,0.104-0.035,0.158-0.057c0.051-0.021,0.102-0.049,0.15-0.072
					c0.055-0.023,0.105-0.047,0.158-0.074c0.049-0.027,0.096-0.057,0.143-0.084c0.053-0.031,0.104-0.061,0.152-0.094
					c0.051-0.033,0.1-0.072,0.15-0.109c0.041-0.031,0.084-0.061,0.125-0.096c0.084-0.066,0.164-0.141,0.24-0.217
					c0.006-0.006,0.012-0.01,0.018-0.016l35.623-35.623c0.004-0.004,0.008-0.01,0.014-0.016c0.076-0.076,0.148-0.158,0.219-0.242
					c0.033-0.041,0.064-0.082,0.096-0.125c0.037-0.051,0.076-0.102,0.109-0.15c0.033-0.051,0.064-0.102,0.096-0.154
					c0.025-0.047,0.057-0.094,0.082-0.141c0.027-0.055,0.055-0.109,0.076-0.162c0.023-0.051,0.051-0.1,0.07-0.148
					c0.021-0.055,0.039-0.107,0.059-0.162c0.021-0.055,0.041-0.109,0.061-0.164c0.016-0.057,0.025-0.107,0.041-0.162
					c0.014-0.059,0.031-0.113,0.041-0.17c0.014-0.064,0.021-0.127,0.027-0.193c0.01-0.049,0.02-0.096,0.021-0.145
					c0.012-0.117,0.02-0.234,0.018-0.352V7.902c0-1.941-1.572-3.518-3.516-3.518h-22.732v-7.968h34.221L166.385,190.001
					L166.385,190.001z"/>
			</g>
		</g>
		<g display="inline">
			<g>
				<path fill="#3D4A5A" d="M91.153,38.135c-24.684,0-44.764,20.081-44.764,44.763c0,24.684,20.08,44.764,44.764,44.764
					c24.683,0,44.763-20.08,44.763-44.764C135.917,58.215,115.836,38.135,91.153,38.135z M91.153,120.63
					c-20.807,0-37.73-16.926-37.73-37.732c0-20.806,16.926-37.73,37.73-37.73c20.806,0,37.732,16.926,37.732,37.73
					C128.887,103.704,111.959,120.63,91.153,120.63z"/>
			</g>
		</g>
		<g display="inline">
			<g>
				<path fill="#3D4A5A" d="M112.389,64.475c-1.373-1.374-3.6-1.374-4.971,0L77.093,94.801l-8.764-8.764
					c-1.373-1.372-3.6-1.372-4.973,0c-1.373,1.374-1.373,3.599,0,4.972l11.25,11.249c0.688,0.687,1.586,1.031,2.484,1.031
					s1.801-0.346,2.484-1.031l32.812-32.812C113.76,68.073,113.76,65.848,112.389,64.475z"/>
			</g>
		</g>
	</g>
	<g id="Слой_8" display="none">
		<g display="inline">
			<g>
				<path d="M152.956,111.042l-9.768-62.509l6.174-70.375c0.09-1.031-0.256-2.051-0.955-2.814c-0.699-0.763-1.686-1.195-2.721-1.195
					H91.407c-1.027,0-2.006,0.427-2.705,1.18c-0.697,0.751-1.051,1.76-0.975,2.783l5.143,68.955
					c-0.152,0.317-0.262,0.659-0.318,1.021l-9.838,62.954c-0.117,0.758,0.004,1.533,0.346,2.219l31.478,62.953
					c0.625,1.25,1.9,2.039,3.299,2.039s2.674-0.789,3.299-2.039l31.479-62.953C152.954,112.575,153.073,111.798,152.956,111.042z
					 M141.661-18.474l-5.566,63.442H100.11l-4.729-63.442H141.661z M117.834,103.987c-5.561,0-10.082-4.521-10.082-10.083
					c0-5.559,4.521-10.08,10.082-10.08s10.084,4.521,10.084,10.08C127.918,99.466,123.395,103.987,117.834,103.987z
					 M121.524,158.939V110.97c7.861-1.699,13.771-8.704,13.771-17.063c0-9.629-7.832-17.46-17.459-17.46s-17.459,7.831-17.459,17.46
					c0,8.36,5.908,15.364,13.77,17.063v47.969l-23.96-47.924l9.166-58.669h36.969l9.166,58.669L121.524,158.939z"/>
			</g>
		</g>
		<g display="inline">
			<g>
				<path d="M190.624,176.777h-19.672c-2.037,0-3.689,1.65-3.689,3.688v6.146H68.409v-6.146c0-2.037-1.65-3.688-3.689-3.688H45.046
					c-2.035,0-3.688,1.65-3.688,3.688v19.674c0,2.037,1.65,3.688,3.688,3.688H64.72c2.039,0,3.689-1.652,3.689-3.688v-6.148h98.853
					v6.148c0,2.037,1.65,3.688,3.689,3.688h19.672c2.037,0,3.688-1.652,3.688-3.688v-19.674
					C194.313,178.429,192.661,176.777,190.624,176.777z M61.03,196.45H48.733v-12.297H61.03V196.45z M186.934,196.45h-12.295
					v-12.297h12.295V196.45z"/>
			</g>
		</g>
		<g display="inline">
			<g>
				<path d="M208.331,88.249c-2.039,0-3.689,1.65-3.689,3.688c0,47.864-38.941,86.808-86.807,86.808
					c-47.865,0-86.806-38.941-86.806-86.808c0-2.038-1.65-3.688-3.689-3.688c-2.037,0-3.688,1.65-3.688,3.688
					c0,51.935,42.252,94.185,94.185,94.185c51.932,0,94.182-42.25,94.182-94.185C212.018,89.9,210.368,88.249,208.331,88.249z"/>
			</g>
		</g>
	</g>
	<g id="Слой_9" display="none">
		<g display="inline">
			<g>
				<g>
					<path fill="#3D4A5A" d="M215.614,11.173h-16.982c-1.559-2.822-3.945-5.178-6.949-6.604l-57.729-27.345
						c-9.871-4.675-21.91-4.675-31.781,0L44.454,4.57c-3.01,1.425-5.393,3.776-6.949,6.604H20.517
						c-10.342,0-18.758,8.415-18.758,18.759v135.067c0,10.344,8.416,18.76,18.758,18.76H69.29v15.008H54.284v7.504h127.562v-7.504
						H166.84v-15.008h48.773c10.344,0,18.76-8.416,18.76-18.76V29.933C234.374,19.588,225.958,11.173,215.614,11.173z
						 M47.663,11.354l57.72-27.344c3.939-1.864,8.326-2.852,12.682-2.852s8.742,0.986,12.684,2.852l57.723,27.344
						c2.814,1.332,4.635,4.206,4.635,7.324s-1.818,5.991-4.635,7.324l-57.723,27.343c-7.879,3.73-17.484,3.73-25.363,0
						l-57.72-27.343c-2.814-1.333-4.637-4.206-4.637-7.324S44.849,12.685,47.663,11.354z M130.743,90.862
						c-7.863,3.733-17.488,3.733-25.359,0l-57.72-27.344c-2.814-1.332-4.637-4.206-4.637-7.323s1.82-5.99,4.637-7.327l15.375-7.282
						l39.134,18.541c4.938,2.338,10.434,3.571,15.893,3.571s10.955-1.233,15.891-3.571l39.139-18.541l15.369,7.281
						c2.822,1.337,4.641,4.211,4.641,7.328s-1.816,5.991-4.633,7.323L130.743,90.862z M173.092,79.104l15.369,7.282
						c2.822,1.335,4.641,4.209,4.641,7.328c0,3.114-1.816,5.991-4.633,7.327l-57.727,27.341c-7.863,3.729-17.488,3.729-25.359,0
						l-57.716-27.341c-2.818-1.336-4.641-4.213-4.641-7.327c0-3.118,1.82-5.993,4.637-7.328l15.375-7.282l39.134,18.538
						c4.934,2.341,10.428,3.576,15.893,3.576c5.467,0,10.959-1.234,15.891-3.576L173.092,79.104z M159.336,198.767H76.796v-15.008
						h82.541V198.767z M226.87,164.999c0,6.207-5.049,11.256-11.256,11.256H20.517c-6.205,0-11.254-5.049-11.254-11.256v-3.75
						H226.87V164.999z M226.87,153.745H9.263V29.933c0-6.206,5.049-11.255,11.254-11.255h15.01c0,6.003,3.508,11.537,8.93,14.107
						l9.818,4.65l-9.822,4.652c-5.422,2.57-8.926,8.106-8.926,14.106c0,6.005,3.508,11.536,8.93,14.106l9.818,4.653l-9.826,4.65
						c-5.418,2.57-8.922,8.108-8.922,14.107s3.504,11.533,8.93,14.105l57.718,27.34c4.936,2.342,10.43,3.574,15.895,3.574
						c5.467,0,10.959-1.232,15.889-3.574l57.73-27.34c5.42-2.572,8.926-8.106,8.926-14.105s-3.506-11.537-8.932-14.107l-9.82-4.65
						l9.82-4.653c5.422-2.57,8.932-8.104,8.932-14.106c0-6-3.506-11.537-8.932-14.106l-9.82-4.652l9.82-4.65
						c5.422-2.57,8.932-8.104,8.932-14.107h15.006c6.207,0,11.256,5.05,11.256,11.255v123.814h-0.006V153.745z"/>
					<path fill="#3D4A5A" d="M118.065,33.684c10.346,0,18.762-6.729,18.762-15.007c0-8.276-8.416-15.007-18.762-15.007
						c-10.344,0-18.76,6.73-18.76,15.007C99.305,26.954,107.721,33.684,118.065,33.684z M118.065,11.173
						c6.104,0,11.258,3.438,11.258,7.504c0,4.066-5.154,7.503-11.258,7.503c-6.1,0-11.256-3.437-11.256-7.503
						C106.809,14.612,111.965,11.173,118.065,11.173z"/>
					<rect x="144.329" y="14.925" fill="#3D4A5A" width="7.504" height="7.503"/>
					<rect x="159.336" y="14.925" fill="#3D4A5A" width="7.504" height="7.503"/>
					<rect x="84.3" y="14.925" fill="#3D4A5A" width="7.504" height="7.503"/>
					<rect x="69.29" y="14.925" fill="#3D4A5A" width="7.506" height="7.503"/>
				</g>
			</g>
		</g>
	</g>
	<g id="Слой_10" display="none">
		<g display="inline">
			<g>
				<g>
					<path fill="#3D4A5A" d="M64.019,176.49h131.941c2.445,0,4.428-2.068,4.428-4.621V97.813c0-2.553-1.98-4.622-4.428-4.622H64.019
						c-2.443,0-4.428,2.068-4.428,4.622v74.056C59.591,174.421,61.573,176.49,64.019,176.49z M68.444,102.435h123.087v64.814H68.444
						V102.435z"/>
					<path fill="#3D4A5A" d="M220.36,181.419h-6.398V91.252c0-6.744-5.256-12.23-11.715-12.23h-62.613V61.863h12.545
						c7.402,0,13.424-6.286,13.424-14.015v-65.007c0-7.728-6.02-14.015-13.424-14.015h-33.941c-7.402,0-13.424,6.287-13.424,14.015
						v16.792H-34.108c-8.037,0-14.576,6.827-14.576,15.219v108.669c0,8.393,6.539,15.219,14.576,15.219h62.795l-3.576,16.76H13.298
						c-2.445,0-4.426,2.068-4.426,4.621s1.979,4.623,4.426,4.623h32.719v16.68h-6.4c-2.443,0-4.428,2.066-4.428,4.621
						c0,11.152,8.693,20.229,19.379,20.229h150.841c10.686,0,19.379-9.076,19.379-20.229
						C224.786,183.488,222.803,181.419,220.36,181.419z M202.247,88.264c1.578,0,2.859,1.34,2.859,2.988v90.167H54.87v-21.277
						c0-0.008,0.002-0.016,0.002-0.023s-0.002-0.016-0.002-0.023V91.254c0-1.648,1.283-2.988,2.859-2.988L202.247,88.264
						L202.247,88.264z M113.667-17.16c0-2.632,2.049-4.771,4.57-4.771h33.939c2.521,0,4.572,2.142,4.572,4.771v2.005h-43.084
						L113.667-17.16L113.667-17.16z M113.667-5.913h43.084v41.281h-43.084V-5.913z M113.667,44.61h43.084v3.237
						c0,2.631-2.053,4.772-4.572,4.772h-33.941c-2.521,0-4.57-2.143-4.57-4.772V44.61z M-39.831,14.851
						c0-3.296,2.568-5.977,5.725-5.977h138.919v38.974c0,7.729,6.021,14.015,13.426,14.015h12.545v17.159H57.731
						c-6.459,0-11.715,5.486-11.715,12.23v16.821h-85.848V14.851L-39.831,14.851z M-34.106,129.497
						c-3.154,0-5.725-2.684-5.725-5.979v-6.205h85.848v12.184H-34.106L-34.106,129.497z M34.181,155.497l3.576-16.762h8.26v16.762
						H34.181z M205.407,197.027H54.567c-4.225,0-7.875-2.609-9.551-6.365h169.939C213.282,194.417,209.631,197.027,205.407,197.027z
						"/>
				</g>
			</g>
		</g>
	</g>
	<g id="Слой_11">
		<g>
			<g>
				<path fill="#3D4A5A" d="M202.02,0.068H3.437c-1.818,0-3.295,1.475-3.295,3.295V166.8v12.301v26.361
					c0,1.82,1.477,3.295,3.295,3.295H202.02c1.82,0,3.295-1.475,3.295-3.295v-26.361v-10.543V3.363
					C205.315,1.542,203.84,0.068,202.02,0.068z M198.725,202.167H6.731v-19.771h191.994V202.167L198.725,202.167z M198.725,175.806
					H6.731v-7.961l51.213-72.689l53.533,74.447c0.555,0.771,1.414,1.266,2.357,1.355s1.883-0.23,2.574-0.879l41.652-39.154
					l40.664,39.037V175.806L198.725,175.806z M198.725,160.827l-38.355-36.824c-1.268-1.215-3.26-1.227-4.539-0.025l-41.197,38.727
					L60.593,87.551c-0.621-0.861-1.615-1.371-2.678-1.371c-0.004,0-0.008,0-0.014,0c-1.066,0.005-2.064,0.525-2.68,1.397
					L6.733,156.4V6.658h191.992V160.827L198.725,160.827z"/>
			</g>
		</g>
		<g>
			<g>
				<path fill="#3D4A5A" d="M135.239,63.333c-15.385,0-27.898,12.515-27.898,27.896c0,15.387,12.516,27.9,27.898,27.9
					s27.896-12.518,27.896-27.9C163.139,75.849,150.624,63.333,135.239,63.333z M135.239,112.542
					c-11.748,0-21.311-9.562-21.311-21.312s9.563-21.308,21.311-21.308c11.75,0,21.309,9.558,21.309,21.308
					S146.989,112.542,135.239,112.542z"/>
			</g>
		</g>
		<g>
			<g>
				<path fill="#3D4A5A" d="M172.145,22.913c-4.219,0-8.004,1.896-10.545,4.885c-2.541-2.987-6.324-4.885-10.545-4.885
					c-4.219,0-8.004,1.896-10.543,4.885c-2.541-2.987-6.326-4.885-10.545-4.885c-7.631,0-13.84,6.209-13.84,13.84
					c0,1.82,1.477,3.295,3.295,3.295c1.82,0,3.295-1.477,3.295-3.295c0-3.997,3.252-7.249,7.25-7.249
					c3.996,0,7.248,3.252,7.248,7.249c0,1.82,1.479,3.295,3.295,3.295c1.82,0,3.295-1.477,3.295-3.295
					c0-3.997,3.254-7.249,7.25-7.249s7.248,3.252,7.248,7.249c0,1.82,1.479,3.295,3.295,3.295c1.82,0,3.297-1.477,3.297-3.295
					c0-3.997,3.254-7.249,7.25-7.249s7.25,3.252,7.25,7.249c0,1.82,1.475,3.295,3.295,3.295c1.816,0,3.295-1.477,3.295-3.295
					C185.983,29.122,179.776,22.913,172.145,22.913z"/>
			</g>
		</g>
		<g>
			<g>
				<path fill="#3D4A5A" d="M57.915,51.032c-4.221,0-8.004,1.896-10.545,4.885c-2.539-2.987-6.324-4.885-10.545-4.885
					c-7.629,0-13.838,6.208-13.838,13.839c0,1.817,1.475,3.295,3.295,3.295c1.818,0,3.295-1.478,3.295-3.295
					c0-3.997,3.252-7.25,7.248-7.25c3.998,0,7.25,3.253,7.25,7.25c0,1.817,1.475,3.295,3.295,3.295c1.818,0,3.295-1.478,3.295-3.295
					c0-3.997,3.252-7.25,7.248-7.25c3.998,0,7.25,3.253,7.25,7.25c0,1.817,1.475,3.295,3.295,3.295s3.295-1.478,3.295-3.295
					C71.755,57.24,65.546,51.032,57.915,51.032z"/>
			</g>
		</g>
	</g>
</g>
</svg>
