<?xml version="1.0" encoding="utf-8"?>
<!-- Generator: Adobe Illustrator 21.0.0, SVG Export Plug-In . SVG Version: 6.00 Build 0)  -->
<svg version="1.1" id="Слой_1" xmlns="http://www.w3.org/2000/svg" xmlns:xlink="http://www.w3.org/1999/xlink" x="0px" y="0px"
	 viewBox="0 0 205.2 208.7" style="enable-background:new 0 0 205.2 208.7;" xml:space="preserve">
<style type="text/css">
	.st0{display:none;}
	.st1{display:inline;}
	.st2{fill:#3D4A5A;}
</style>
<g id="Слой_1_1_">
	<g id="Capa_1" class="st0">
		<g class="st1">
			<path class="st2" d="M41.6-12.6c3,0,5.5-2.5,5.5-5.5v-5.5c0-3-2.5-5.5-5.5-5.5s-5.5,2.5-5.5,5.5v5.5
				C36.1-15.1,38.5-12.6,41.6-12.6z"/>
			<path class="st2" d="M36.1,212.5v5.5c0,3,2.5,5.5,5.5,5.5S47,221,47,218v-5.5c0-3-2.5-5.5-5.5-5.5
				C38.5,207,36.1,209.5,36.1,212.5z"/>
			<path class="st2" d="M162.4,102.7c3,0,5.5-2.5,5.5-5.5s-2.5-5.5-5.5-5.5h-5.5c-3,0-5.5,2.5-5.5,5.5s2.5,5.5,5.5,5.5H162.4z"/>
			<path class="st2" d="M-79.2,91.7c-3,0-5.5,2.5-5.5,5.5s2.5,5.5,5.5,5.5h5.5c3,0,5.5-2.5,5.5-5.5s-2.5-5.5-5.5-5.5H-79.2z"/>
			<path class="st2" d="M123.1,21.2c1.4,0,2.8-0.5,3.9-1.6l3.9-3.9c2.1-2.1,2.1-5.6,0-7.8c-2.1-2.1-5.6-2.1-7.8,0l-3.9,3.9
				c-2.1,2.1-2.1,5.6,0,7.8C120.3,20.6,121.7,21.2,123.1,21.2z"/>
			<path class="st2" d="M-43.9,174.9l-3.9,3.9c-2.1,2.1-2.1,5.6,0,7.8c1.1,1.1,2.5,1.6,3.9,1.6s2.8-0.5,3.9-1.6l3.9-3.9
				c2.1-2.1,2.1-5.6,0-7.8C-38.2,172.7-41.7,172.7-43.9,174.9z"/>
			<path class="st2" d="M-36.1,11.8L-40,7.9c-2.1-2.1-5.6-2.1-7.8,0c-2.1,2.1-2.1,5.6,0,7.8l3.9,3.9c1.1,1.1,2.5,1.6,3.9,1.6
				c1.4,0,2.8-0.5,3.9-1.6C-33.9,17.4-33.9,13.9-36.1,11.8z"/>
			<path class="st2" d="M41.6-66.8C-49.3-66.8-123.2,7-123.2,97.9c0,90.8,73.9,164.7,164.7,164.7c19.6,0,38.9-3.4,57.2-10.2
				c2.8-1,4.3-4.2,3.2-7c-1.1-2.9-4.2-4.3-7.1-3.2c-17.1,6.3-35,9.5-53.4,9.5c-84.8,0-153.7-69-153.7-153.7
				c0-84.8,69-153.7,153.7-153.7s153.7,69,153.7,153.7c0,18.3-3.2,36.3-9.5,53.4c-1,2.9,0.4,6,3.2,7.1c2.8,1.1,6-0.4,7.1-3.2
				c6.8-18.3,10.2-37.5,10.2-57.2C206.3,7,132.4-66.8,41.6-66.8z"/>
		</g>
		<g class="st1">
			<path class="st2" d="M125.9,205.6v9.8h39.8v9.4h-39.8v25h-13.2v-25h-6.8v-9.4h6.8v-9.8h-6.8v-11.4h6.8v-43.9h31.1
				c8.9,0,15.7,0.9,20.2,2.7c4.6,1.8,8.3,4.9,11.1,9.4c2.8,4.5,4.1,9.5,4.1,15c0,5.5-1,10.1-3.1,13.7c-2,3.6-4.7,6.5-8.1,8.6
				c-3.4,2.1-7.2,3.7-11.6,4.5c-4.4,0.9-8.9,1.3-13.5,1.3L125.9,205.6L125.9,205.6z M143,194.2c3,0,5.9-0.2,8.7-0.7
				c2.8-0.5,5.2-1.3,7.3-2.6c2.1-1.3,3.7-3,5-5.1c1.2-2.1,1.8-4.9,1.8-8.3c0-2.9-0.6-5.4-1.7-7.5s-2.6-3.7-4.5-5
				c-1.9-1.3-4.2-2.2-6.8-2.8c-2.6-0.6-5.4-0.9-8.3-0.9h-18.5v32.9L143,194.2L143,194.2z"/>
		</g>
		<g class="st1">
			<path class="st2" d="M10.5,80.2c0,5.2-0.7,9.9-2.2,14c-1.5,4.2-3.6,8.2-6.4,12.2c-9,12.8-15.9,19.2-20.7,19.2
				c-1.5,0-2.7-0.6-3.7-1.6s-1.5-2.4-1.5-3.8c0-1.1,0.5-2.2,1.5-3.4c0.6-0.7,1.9-2,3.9-3.9c4.9-4.6,8.8-9.3,11.6-13.9h-0.1
				c-2.4,1.1-5.3,1.6-8.7,1.6c-5.6,0-10.1-2.2-13.5-6.6c-3.2-4-4.8-8.9-4.8-14.6c0-6.6,2.1-12.1,6.5-16.5c4.3-4.4,9.7-6.6,16.3-6.6
				c7,0,12.4,2.3,16.3,7C8.7,67.4,10.5,73.1,10.5,80.2z M-11.5,67c-3.2,0-5.8,1.2-7.6,3.5s-2.7,5.2-2.7,8.5c0,3.4,0.8,6.2,2.3,8.2
				c1.7,2.3,4.2,3.5,7.5,3.5c3.2,0,5.8-1,7.7-3.1c1.9-2.1,2.9-4.7,2.9-8c0-3.5-0.8-6.4-2.3-8.7C-5.6,68.3-8.2,67-11.5,67z"/>
			<path class="st2" d="M65.7,90.8c0,9.5-1.6,17.2-4.9,23.2c-4.1,7.6-10.6,11.4-19.2,11.4c-8.7,0-15.1-3.8-19.2-11.4
				c-3.3-6-4.9-13.8-4.9-23.2c0-9.5,1.6-17.2,4.9-23.2c4.1-7.6,10.6-11.4,19.3-11.4S56.7,60,60.9,67.7
				C64.1,73.6,65.7,81.3,65.7,90.8z M53.8,90.8c0-5.9-0.7-10.9-2-14.9c-2.1-6.1-5.5-9.1-10.2-9.1c-4.8,0-8.2,3-10.3,9
				c-1.4,4-2.1,9-2.1,15c0,16.1,4.1,24.2,12.4,24.2c4.8,0,8.1-3.1,10.2-9.2C53.1,101.8,53.8,96.8,53.8,90.8z"/>
			<path class="st2" d="M119,90.8c0,9.5-1.6,17.2-4.9,23.2c-4.1,7.6-10.6,11.4-19.2,11.4c-8.7,0-15.1-3.8-19.2-11.4
				c-3.3-6-4.9-13.8-4.9-23.2c0-9.5,1.6-17.2,4.9-23.2c4.1-7.6,10.6-11.4,19.3-11.4c8.7,0,15.2,3.8,19.3,11.4
				C117.4,73.6,119,81.3,119,90.8z M107.1,90.8c0-5.9-0.7-10.9-2-14.9c-2.1-6.1-5.5-9.1-10.2-9.1c-4.8,0-8.2,3-10.3,9
				c-1.4,4-2.1,9-2.1,15c0,16.1,4.1,24.2,12.4,24.2c4.8,0,8.1-3.1,10.2-9.2C106.4,101.8,107.1,96.8,107.1,90.8z"/>
		</g>
	</g>
	<g id="Слой_4" class="st0">
		<g class="st1">
			<path class="st2" d="M37.5,186.4c-10.3,0-18.7,8.4-18.7,18.7c0,10.3,8.4,18.7,18.7,18.7c10.3,0,18.7-8.4,18.7-18.7
				C56.2,194.8,47.8,186.4,37.5,186.4z M37.5,213.1c-4.4,0-8-3.6-8-8s3.6-8,8-8c4.4,0,8,3.6,8,8C45.5,209.5,41.9,213.1,37.5,213.1z"
				/>
			<path class="st2" d="M-77.1,34.6l18.9,18.9c1,1,2.4,1.6,3.8,1.6s2.7-0.5,3.8-1.6c2.1-2.1,2.1-5.5,0-7.5l-11.7-11.7
				c5.9-8.9,5.9-20.6,0-29.4L-39-18.7c8.7,5.8,20.8,5.8,29.5,0L2.2-7c2.1,2.1,5.5,2.1,7.6,0c2.1-2.1,2.1-5.5,0-7.6L-9.1-33.4
				l-3.8,3.8c-6.1,6-16.6,6-22.7,0l-3.8-3.8L-77.1,4.4l3.8,3.8c6.2,6.2,6.2,16.4,0,22.7L-77.1,34.6z"/>
			<path class="st2" d="M81.9,72.7c-5.9,8.9-5.9,20.6,0,29.4l-23.4,23.4c-8.7-5.8-20.8-5.8-29.5,0l-11.7-11.7
				c-2.1-2.1-5.5-2.1-7.6,0c-2.1,2.1-2.1,5.5,0,7.5l18.9,18.9l3.8-3.8c6.1-6.1,16.6-6,22.7,0l3.8,3.8l37.8-37.8l-3.8-3.8
				c-6.2-6.2-6.2-16.4,0-22.7l3.8-3.8L77.7,53.5c-2.1-2.1-5.5-2.1-7.6,0c-2.1,2.1-2.1,5.5,0,7.5L81.9,72.7z"/>
			<circle class="st2" cx="104.1" cy="87.4" r="5.3"/>
			<circle class="st2" cx="43.7" cy="147.8" r="5.3"/>
			<path class="st2" d="M-20.5-37.2c2.1-2.1,4-5.5,2-7.6c-2.1-2.1-5.5-2.1-7.6,0c-2.1,2.1-4,5.5-2,7.6
				C-25.9-35.1-22.5-35.1-20.5-37.2z"/>
			<circle class="st2" cx="-84.6" cy="19.5" r="5.3"/>
			<path class="st2" d="M125.6,119.7c0-4.7-0.8-9.3-2.2-13.8l18.4-18.4l-24.3-24.6c5-4.5,8.1-10.9,8.1-17.9c0-13.2-10.8-24-24-24
				c-1,0-1.9,0.1-2.9,0.2c0.1-0.9,0.2-1.9,0.2-2.9c0-13.2-10.8-24-24-24c-1,0-1.9,0.1-2.9,0.2c0.1-0.9,0.2-1.9,0.2-2.9
				c0-13.2-10.8-24-24-24c-1,0-1.9,0.1-2.9,0.2c0.1-1,0.2-1.9,0.2-2.9c0-13.9-9.3-24-22.1-24c-7,0-14,3-18.9,7.6l-26.8-27.1
				l-100.2,98.1l49.4,49.4c-2.6,3.9-4.2,8.5-4.2,13.5c0,8.4,4.3,15.7,10.8,20c0.3,0.4,0.7,0.9,1.2,1.3l57.4,57.2v9.6h-10.7v69.4
				h96.1h42.7v-69.4h-10.7v-16.2C119.8,145.6,125.6,133.1,125.6,119.7z M-66.6,82.3c0-3.5,1.4-6.7,3.6-9.1l0.8-0.7
				c1.9-1.7,4.1-2.8,6.4-3.3c0.8-0.2,1.6-0.3,2.5-0.3h11.8H0.1c7.4,0,13.4,6,13.4,13.4c0,0.9-0.1,1.7-0.3,2.5
				c-1.1,5.6-5.9,10.1-11.9,10.7l-1.6,0.1h-30.9h-15.1h-7C-60.6,95.6-66.6,89.7-66.6,82.3z M-20.5,23.2C-3.8,6.6,23.3,6.6,40,23.2
				C48,31.3,52.5,42,52.5,53.4S48,75.6,40,83.6c-5.4,5.4-12,9.1-19.2,11c0.6-1,1.1-2,1.5-3c0-0.1,0-0.1,0.1-0.2
				c0.5-1.2,0.9-2.5,1.2-3.8c0.1-0.3,0.1-0.7,0.2-1c0.3-1.4,0.4-2.9,0.4-4.3c0-13.2-10.8-24-24-24h-32.8
				C-34.1,45.4-29.7,32.5-20.5,23.2z M114.9,44.9c0,4-1.9,7.8-4.9,10.3L91.4,36.4c2.5-3,6.2-4.8,10.2-4.8
				C109,31.6,114.9,37.6,114.9,44.9z M88.2,18.2c0,4-1.8,7.6-4.7,10.1L64.9,9.5c2.5-2.9,6.1-4.6,10-4.6
				C82.3,4.9,88.2,10.9,88.2,18.2z M61.5-8.5c0,3.9-1.7,7.5-4.6,10L38.4-17.4c2.5-2.8,6-4.5,9.9-4.5C55.6-21.8,61.5-15.8,61.5-8.5z
				 M23.5-48.5c7.9,0,11.4,6.7,11.4,13.4c0,3.8-1.7,7.3-4.4,9.8L12-44C14.9-46.7,19.3-48.5,23.5-48.5z M-22.3-63.6l20.8,21.1l-0.5,1
				l26.7,26.7l3.1,3.1l23.6,23.6l3.1,3.1l23.6,23.6l3.1,3.1l26.7,26.7l0.1,0l18.8,19.1l-83,83h-0.2l-64.1-64.1H0.1
				c0.5,0,1.1-0.1,1.6-0.2c2.7,0.4,5.3,0.6,8,0.6c14.1,0,27.7-5.5,37.8-15.6c10.1-10.1,15.6-23.5,15.6-37.8
				c0-14.3-5.6-27.7-15.6-37.8C26.7-5.1-7.2-5.1-28,15.7C-39.3,27-44.8,42.6-43.4,58.3h-9.9c-1.4,0-2.8,0.2-4.2,0.4
				c-0.4,0.1-0.9,0.2-1.3,0.3c-1,0.2-2,0.5-2.9,0.9c-0.8,0.3-1.6,0.7-2.4,1.1c-0.4,0.2-0.8,0.4-1.2,0.6l-42-42L-22.3-63.6z
				 M0.9,154.3c-0.2-0.2-0.5-0.4-1-0.7l-47.4-47.2h11.9l64.1,64.1H2.8v-14.5L0.9,154.3z M-7.9,229.1v-48.1h41h4
				c0.7,0,1.5,0.1,2.2,0.1l4.4,4.4l2.9-2.9c11.8,4,20.2,15.1,20.2,28.2v18.3L-7.9,229.1L-7.9,229.1z M109.6,229.1h-32v-18.3
				c0-11.8-5.1-22.4-13.2-29.8h45.2L109.6,229.1L109.6,229.1z M58.9,170.4l19.9-19.9l35.8-35.8c0.2,1.6,0.4,3.3,0.4,4.9
				c0,11-5.1,21.1-13.9,27.7l-2.1,1.6v21.4H58.9z"/>
		</g>
	</g>
	<g id="Слой_5" class="st0">
		<g class="st1">
			<path class="st2" d="M197.2,1.4h-21.4V-9.3v-32v-21.4c0-8.8-7.1-15.9-15.9-15.9h-21.5c-8.8,0-15.9,7.1-15.9,15.9v21.4v32V1.4
				h-245.5v176.1h245.5v12.1l21.3,37.4v9.3c0,3,2.4,5.3,5.3,5.3c2.9,0,5.3-2.4,5.3-5.3V227l21.4-37.4v-12.1h21.4L197.2,1.4
				L197.2,1.4z M165.2-20h-32v-10.7h32V-20z M133.1-62.8c0-2.9,2.4-5.3,5.3-5.3h21.5c2.9,0,5.3,2.4,5.3,5.3v21.4h-32L133.1-62.8
				L133.1-62.8z M-112.4,166.8V12h234.9v154.8H-112.4z M149.1,214.8L137,193.5h24.3L149.1,214.8z M165.2,182.9h-32v-5.3V1.4V-9.3h32
				V1.4v176.1V182.9z M186.5,166.8h-10.7V12h10.7V166.8z"/>
			<path class="st2" d="M85.1,60.1h-16c-2.9,0-5.3,2.4-5.3,5.3c0,3,2.4,5.3,5.3,5.3h16c2.9,0,5.3-2.4,5.3-5.3
				C90.4,62.5,88,60.1,85.1,60.1z"/>
			<path class="st2" d="M-11,49.4H5c2.9,0,5.3-2.4,5.3-5.3c0-3-2.4-5.3-5.3-5.3h-16c-2.9,0-5.3,2.4-5.3,5.3
				C-16.3,47-13.9,49.4-11,49.4z"/>
			<path class="st2" d="M85.1,38.7H47.7c-2.9,0-5.3,2.4-5.3,5.3c0,2.9,2.4,5.3,5.3,5.3h37.4c2.9,0,5.3-2.4,5.3-5.3
				C90.4,41.1,88,38.7,85.1,38.7z"/>
			<path class="st2" d="M26.4,49.4c1.4,0,2.8-0.6,3.8-1.5c1-1,1.5-2.4,1.5-3.8c0-1.4-0.6-2.8-1.5-3.8c-2-2-5.6-2-7.6,0
				c-1,1-1.5,2.4-1.5,3.8c0,1.4,0.6,2.8,1.5,3.8C23.6,48.8,24.9,49.4,26.4,49.4z"/>
			<path class="st2" d="M5,65.4c0,3,2.4,5.3,5.3,5.3h37.4c2.9,0,5.3-2.4,5.3-5.3c0-3-2.4-5.3-5.3-5.3H10.4C7.4,60.1,5,62.5,5,65.4z"
				/>
			<path class="st2" d="M-11,70.8c1.4,0,2.8-0.6,3.8-1.5c1-1,1.5-2.4,1.5-3.8c0-1.4-0.6-2.8-1.5-3.8c-2-2-5.6-2-7.6,0
				c-1,1-1.5,2.3-1.5,3.8c0,1.4,0.6,2.8,1.5,3.8C-13.8,70.2-12.4,70.8-11,70.8z"/>
			<path class="st2" d="M-64.4,44.6v-5.9c0-3-2.4-5.3-5.3-5.3c-2.9,0-5.3,2.4-5.3,5.3v5.9c-5.8,1.2-11.1,4.3-15,8.9
				c-3.3,3.9-4.8,8.8-4.2,13.9c0.5,5.2,3.2,10.1,7.4,13.3L-75,90v29c-6.2-2.2-10.7-8.1-10.7-15c0-3-2.4-5.3-5.3-5.3
				c-2.9,0-5.3,2.4-5.3,5.3c0,12.9,9.2,23.7,21.3,26.2v4.7c0,3,2.4,5.3,5.3,5.3c2.9,0,5.3-2.4,5.3-5.3v-4.7c5.8-1.2,11.1-4.3,15-8.9
				c3.3-3.9,4.8-8.8,4.2-13.9c-0.5-5.2-3.2-10.1-7.4-13.3l-11.9-9.3v-29c6.2,2.2,10.7,8.1,10.7,15c0,3,2.4,5.3,5.3,5.3
				c2.9,0,5.3-2.4,5.3-5.3C-43,57.9-52.2,47.1-64.4,44.6z M-59,102.4c1.9,1.4,3.1,3.6,3.3,6c0.2,2.2-0.4,4.3-1.8,5.9
				c-1.9,2.2-4.3,3.7-6.9,4.7V98.3L-59,102.4z M-80.4,72.3c-1.9-1.5-3.1-3.6-3.3-6c-0.2-2.2,0.4-4.3,1.8-5.9
				c1.9-2.2,4.3-3.7,6.9-4.7v20.7L-80.4,72.3z"/>
			<path class="st2" d="M5.8,99.6c-11.7,6.1-15.6,17.7-17.1,29.8c-2.2-1.9-4.4-3.7-6.6-5.6c-5.2-4.4-12.8,3.1-7.5,7.5
				c5,4.2,10,8.4,15,12.5c3.5,2.9,9,1.1,9.1-3.8c0.4-11.6,0.9-25.3,12.5-31.3C17.3,105.6,11.9,96.4,5.8,99.6z"/>
			<path class="st2" d="M41.3,120.9c-7.4,1.7-15.8,11.1-21,0.6c-3-6.2-12.3-0.8-9.2,5.4c2.8,5.6,8,9.5,14.2,10.3c3.2,0.4,6,0,9-1.2
				c2.2-0.9,10.3-7,12.1-3.8c3.3,6,12.6,0.6,9.2-5.4C52.8,121.6,47,119.6,41.3,120.9z"/>
		</g>
	</g>
	<g id="Слой_6" class="st0">
		<g class="st1">
			<path class="st2" d="M-27.8,27.5c1.8-0.8,2.6-3,1.8-4.8c-0.8-1.8-3-2.6-4.8-1.8c-2.5,1.1-4.9,2.7-7,4.5c-1.5,1.3-1.7,3.6-0.4,5.1
				c0.7,0.8,1.7,1.3,2.8,1.3c0.8,0,1.7-0.3,2.4-0.9C-31.5,29.5-29.7,28.4-27.8,27.5z"/>
			<path class="st2" d="M-15.1,25.6h7.3c2,0,3.6-1.6,3.6-3.6c0-2-1.6-3.6-3.6-3.6h-7.3c-2,0-3.6,1.6-3.6,3.6
				C-18.8,23.9-17.1,25.6-15.1,25.6z"/>
			<path class="st2" d="M6.7,25.6H14c2,0,3.6-1.6,3.6-3.6c0-2-1.6-3.6-3.6-3.6H6.7c-2,0-3.6,1.6-3.6,3.6C3.1,23.9,4.7,25.6,6.7,25.6
				z"/>
			<path class="st2" d="M-7.8,69.3h-7.3c-2,0-3.6,1.6-3.6,3.6c0,2,1.6,3.6,3.6,3.6h7.3c2,0,3.6-1.6,3.6-3.6
				C-4.2,70.9-5.8,69.3-7.8,69.3z"/>
			<path class="st2" d="M35.9,69.3h-7.3c-2,0-3.6,1.6-3.6,3.6c0,2,1.6,3.6,3.6,3.6h7.3c2,0,3.6-1.6,3.6-3.6
				C39.5,70.9,37.9,69.3,35.9,69.3z"/>
			<path class="st2" d="M14,69.3H6.7c-2,0-3.6,1.6-3.6,3.6c0,2,1.6,3.6,3.6,3.6H14c2,0,3.6-1.6,3.6-3.6C17.7,70.9,16,69.3,14,69.3z"
				/>
			<path class="st2" d="M-27.8,67.3c-1.9-0.9-3.7-2-5.2-3.4c-1.5-1.3-3.8-1.2-5.1,0.4c-1.3,1.5-1.2,3.8,0.4,5.1
				c2.1,1.8,4.4,3.3,7,4.5c0.5,0.2,1,0.3,1.5,0.3c1.4,0,2.7-0.8,3.3-2.1C-25.2,70.3-26,68.1-27.8,67.3z"/>
			<path class="st2" d="M57.7,69.3h-7.3c-2,0-3.6,1.6-3.6,3.6c0,2,1.6,3.6,3.6,3.6h7.3c2,0,3.6-1.6,3.6-3.6
				C61.4,70.9,59.8,69.3,57.7,69.3z"/>
			<path class="st2" d="M123.3,69.3H116c-2,0-3.6,1.6-3.6,3.6c0,2,1.6,3.6,3.6,3.6h7.3c2,0,3.6-1.6,3.6-3.6
				C126.9,70.9,125.3,69.3,123.3,69.3z"/>
			<path class="st2" d="M145.2,69.3h-7.3c-2,0-3.6,1.6-3.6,3.6c0,2,1.6,3.6,3.6,3.6h7.3c2,0,3.6-1.6,3.6-3.6
				C148.8,70.9,147.2,69.3,145.2,69.3z"/>
			<path class="st2" d="M79.6,69.3h-7.3c-2,0-3.6,1.6-3.6,3.6c0,2,1.6,3.6,3.6,3.6h7.3c2,0,3.6-1.6,3.6-3.6
				C83.2,70.9,81.6,69.3,79.6,69.3z"/>
			<path class="st2" d="M101.4,69.3h-7.3c-2,0-3.6,1.6-3.6,3.6c0,2,1.6,3.6,3.6,3.6h7.3c2,0,3.6-1.6,3.6-3.6
				C105.1,70.9,103.5,69.3,101.4,69.3z"/>
			<path class="st2" d="M-27.8,176.6c-1.9-0.9-3.7-2-5.2-3.4c-1.5-1.3-3.8-1.1-5.1,0.4c-1.3,1.5-1.2,3.8,0.4,5.1
				c2.1,1.8,4.4,3.3,7,4.5c0.5,0.2,1,0.3,1.5,0.3c1.4,0,2.7-0.8,3.3-2.1C-25.2,179.6-26,177.4-27.8,176.6z"/>
			<path class="st2" d="M14,178.6H6.7c-2,0-3.6,1.6-3.6,3.6s1.6,3.6,3.6,3.6H14c2,0,3.6-1.6,3.6-3.6C17.7,180.2,16,178.6,14,178.6z"
				/>
			<path class="st2" d="M-7.8,178.6h-7.3c-2,0-3.6,1.6-3.6,3.6s1.6,3.6,3.6,3.6h7.3c2,0,3.6-1.6,3.6-3.6
				C-4.2,180.2-5.8,178.6-7.8,178.6z"/>
			<path class="st2" d="M79.6,178.6h-7.3c-2,0-3.6,1.6-3.6,3.6s1.6,3.6,3.6,3.6h7.3c2,0,3.6-1.6,3.6-3.6
				C83.2,180.2,81.6,178.6,79.6,178.6z"/>
			<path class="st2" d="M90.5,182.2c0,2,1.6,3.6,3.6,3.6h7.3c2,0,3.6-1.6,3.6-3.6c0-2-1.6-3.6-3.6-3.6h-7.3
				C92.1,178.6,90.5,180.2,90.5,182.2z"/>
			<path class="st2" d="M116,185.8h7.3c2,0,3.6-1.6,3.6-3.6c0-2-1.6-3.6-3.6-3.6H116c-2,0-3.6,1.6-3.6,3.6
				C112.4,184.2,114,185.8,116,185.8z"/>
			<path class="st2" d="M57.7,178.6h-7.3c-2,0-3.6,1.6-3.6,3.6s1.6,3.6,3.6,3.6h7.3c2,0,3.6-1.6,3.6-3.6
				C61.4,180.2,59.8,178.6,57.7,178.6z"/>
			<path class="st2" d="M137.9,185.8h7.3c2,0,3.6-1.6,3.6-3.6c0-2-1.6-3.6-3.6-3.6h-7.3c-2,0-3.6,1.6-3.6,3.6
				C134.2,184.2,135.9,185.8,137.9,185.8z"/>
			<path class="st2" d="M35.9,178.6h-7.3c-2,0-3.6,1.6-3.6,3.6s1.6,3.6,3.6,3.6h7.3c2,0,3.6-1.6,3.6-3.6
				C39.5,180.2,37.9,178.6,35.9,178.6z"/>
			<path class="st2" d="M112.4,123.9c0,8,6.5,14.6,14.6,14.6s14.6-6.5,14.6-14.6c0-8-6.5-14.6-14.6-14.6S112.4,115.9,112.4,123.9z
				 M126.9,116.6c4,0,7.3,3.3,7.3,7.3c0,4-3.3,7.3-7.3,7.3c-4,0-7.3-3.3-7.3-7.3C119.7,119.9,122.9,116.6,126.9,116.6z"/>
			<path class="st2" d="M108.5,3.7L88.7-16.1c-1.6-1.6-4.2-1.6-5.9,0l-7.5,7.5L68-16.1c-1.6-1.6-4.2-1.6-5.9,0L42.3,3.7h-61.1
				c-16.1,0-29.1,13.1-29.1,29.1v141.5c0,14.4,11.7,26.1,26.1,26.1h192.5v-51v-51V62v-7.3v-51H108.5L108.5,3.7z M85.8-8.7L98.2,3.7
				l51,51h-19.6l-41-41c-1.5-1.5-4-1.5-5.5,0l-41,41H22.4L80.6-3.5l0,0L85.8-8.7z M119.3,54.7h-67l33.5-33.5L119.3,54.7z M65-8.7
				l5.2,5.2L12.1,54.7H1.6l51-51L65-8.7z M-18.8,11H35l-7.5,7.5c-1.1,0.4-1.9,1.2-2.3,2.3L-8.7,54.7h-10.1
				c-12.1,0-21.9-9.8-21.9-21.9C-40.6,20.8-30.8,11-18.8,11z M163.4,142.1h-40.1c-10,0-18.2-8.2-18.2-18.2s8.2-18.2,18.2-18.2h40.1
				V142.1z M163.4,69.3h-3.6c-2,0-3.6,1.6-3.6,3.6c0,2,1.6,3.6,3.6,3.6h3.6v21.9h-40.1c-14.1,0-25.5,11.4-25.5,25.5
				c0,14.1,11.4,25.5,25.5,25.5h40.1v29.1h-3.6c-2,0-3.6,1.6-3.6,3.6s1.6,3.6,3.6,3.6h3.6v7.3H-21.9c-10.3,0-18.8-8.4-18.8-18.8v-8
				c0.8-0.9,1.3-2.2,0.9-3.5c-0.6-2-0.9-4.1-0.9-6.2V57c0.8-0.9,1.3-2.2,0.9-3.5c-0.1-0.2-0.1-0.5-0.2-0.7c0.3,0.3,0.7,0.7,1,1
				c0.3,0.3,0.6,0.6,1,0.9c0.4,0.4,0.8,0.7,1.3,1c0.3,0.3,0.7,0.5,1,0.8c0.4,0.3,0.9,0.6,1.4,0.9c0.4,0.2,0.7,0.5,1.1,0.7
				c0.5,0.3,1,0.5,1.5,0.8c0.4,0.2,0.8,0.4,1.2,0.6c0.5,0.2,1.1,0.4,1.6,0.6c0.4,0.1,0.8,0.3,1.2,0.4c0.6,0.2,1.2,0.3,1.7,0.5
				c0.4,0.1,0.8,0.2,1.2,0.3c0.7,0.1,1.3,0.2,2,0.3c0.3,0,0.7,0.1,1,0.2c1,0.1,2.1,0.2,3.1,0.2h13.9H5.4h10.5h10.3h18.1h83.1h18
				h10.3h7.7L163.4,69.3L163.4,69.3z M159.5,54.7l-29.1-29.1h0.2c2,0,3.6-1.6,3.6-3.6s-1.6-3.6-3.6-3.6h-7.3c-0.1,0-0.1,0-0.2,0
				l-7.3-7.3h47.6v43.7L159.5,54.7L159.5,54.7L159.5,54.7z"/>
			<path class="st2" d="M152.4,18.3h-7.3c-2,0-3.6,1.6-3.6,3.6s1.6,3.6,3.6,3.6h7.3c2,0,3.6-1.6,3.6-3.6
				C156.1,19.9,154.5,18.3,152.4,18.3z"/>
		</g>
	</g>
	<g id="Слой_7" class="st0">
		<g class="st1">
			<g>
				<path class="st2" d="M169.9-10.6h-41.2h-12.5c-3.2-11-13.2-18.8-25-18.8c-11.7,0-21.8,7.7-25,18.8H53.7H12.4
					c-1.9,0-3.5,1.6-3.5,3.5v200.6c0,1.9,1.6,3.5,3.5,3.5h157.5c1.9,0,3.5-1.6,3.5-3.5V-7.1C173.4-9,171.8-10.6,169.9-10.6z
					 M57.2,7.9V-3.6H69c0,0,0,0,0.1,0c0.1,0,0.2,0,0.2,0c0,0,0.1,0,0.1,0c0.1,0,0.1,0,0.2,0c0,0,0.1,0,0.1,0c0.1,0,0.1,0,0.2-0.1
					c0,0,0.1,0,0.1,0c0.1,0,0.1,0,0.2-0.1c0,0,0.1,0,0.1-0.1c0.1,0,0.1-0.1,0.2-0.1c0,0,0.1,0,0.1-0.1c0.1,0,0.1-0.1,0.2-0.1
					c0,0,0.1-0.1,0.1-0.1c0.1,0,0.1-0.1,0.2-0.1c0,0,0.1-0.1,0.1-0.1c0.1,0,0.1-0.1,0.2-0.1c0,0,0.1-0.1,0.1-0.1
					c0.1-0.1,0.1-0.1,0.1-0.2c0,0,0.1-0.1,0.1-0.1c0-0.1,0.1-0.1,0.1-0.2c0,0,0.1-0.1,0.1-0.1c0-0.1,0.1-0.1,0.1-0.2
					c0,0,0.1-0.1,0.1-0.1c0-0.1,0.1-0.1,0.1-0.2c0-0.1,0.1-0.1,0.1-0.2c0,0,0-0.1,0.1-0.1c0-0.1,0-0.1,0.1-0.2c0,0,0-0.1,0-0.1
					c0-0.1,0-0.1,0-0.2c0,0,0,0,0-0.1c1.5-9.2,9.4-15.8,18.7-15.8c9.3,0,17.2,6.7,18.7,15.8c0,0,0,0,0,0.1c0,0.1,0,0.1,0,0.2
					c0,0.1,0,0.1,0,0.2c0,0.1,0,0.1,0.1,0.2c0,0.1,0,0.1,0.1,0.2c0,0.1,0,0.1,0.1,0.1c0,0.1,0.1,0.1,0.1,0.2c0,0,0,0.1,0.1,0.1
					c0,0.1,0.1,0.1,0.1,0.2c0,0,0,0.1,0.1,0.1c0,0.1,0.1,0.1,0.1,0.2c0,0,0,0,0,0.1c0.1,0.1,0.1,0.2,0.2,0.2c0,0,0,0,0,0
					c0.1,0.1,0.2,0.1,0.2,0.2c0,0,0.1,0.1,0.1,0.1c0.1,0,0.1,0.1,0.2,0.1c0,0,0.1,0.1,0.1,0.1c0,0,0.1,0.1,0.1,0.1
					c0,0,0.1,0.1,0.1,0.1c0,0,0.1,0,0.1,0.1c0,0,0.1,0,0.1,0.1c0.1,0,0.1,0,0.2,0.1c0,0,0.1,0,0.1,0c0.1,0,0.1,0,0.2,0
					c0,0,0.1,0,0.1,0c0.1,0,0.2,0,0.2,0c0,0,0.1,0,0.1,0c0.1,0,0.2,0,0.3,0c0,0,0,0,0,0h11.8V7.9v9.6h-68L57.2,7.9L57.2,7.9
					L57.2,7.9z M53.7,24.5h75c1.9,0,3.5-1.6,3.5-3.5v-9.6h19.2v129.8h-32.1c-1.9,0-3.5,1.6-3.5,3.5v32.1H30.9V11.4h19.2V21
					C50.1,23,51.7,24.5,53.7,24.5z M146.4,148.3l-23.6,23.6v-23.6H146.4z M166.4,190H15.9V-3.6h34.2v8H27.4c-1.9,0-3.5,1.6-3.5,3.5
					v172.5c0,1.9,1.6,3.5,3.5,3.5h91.9c0.1,0,0.2,0,0.3,0c0.1,0,0.1,0,0.2,0c0.1,0,0.1,0,0.2,0c0.1,0,0.1,0,0.2,0c0.1,0,0.1,0,0.2,0
					c0.1,0,0.1,0,0.2-0.1c0.1,0,0.1,0,0.2-0.1c0.1,0,0.1,0,0.2-0.1c0.1,0,0.1,0,0.2-0.1c0,0,0.1-0.1,0.1-0.1c0.1,0,0.1-0.1,0.2-0.1
					c0.1,0,0.1-0.1,0.2-0.1c0,0,0.1-0.1,0.1-0.1c0.1-0.1,0.2-0.1,0.2-0.2c0,0,0,0,0,0l35.6-35.6c0,0,0,0,0,0
					c0.1-0.1,0.1-0.2,0.2-0.2c0,0,0.1-0.1,0.1-0.1c0-0.1,0.1-0.1,0.1-0.1c0-0.1,0.1-0.1,0.1-0.2c0,0,0.1-0.1,0.1-0.1
					c0-0.1,0.1-0.1,0.1-0.2c0-0.1,0.1-0.1,0.1-0.1c0-0.1,0-0.1,0.1-0.2c0-0.1,0-0.1,0.1-0.2c0-0.1,0-0.1,0-0.2c0-0.1,0-0.1,0-0.2
					c0-0.1,0-0.1,0-0.2c0,0,0-0.1,0-0.1c0-0.1,0-0.2,0-0.4V7.9c0-1.9-1.6-3.5-3.5-3.5h-22.7v-8h34.2L166.4,190L166.4,190z"/>
			</g>
		</g>
		<g class="st1">
			<g>
				<path class="st2" d="M91.2,38.1c-24.7,0-44.8,20.1-44.8,44.8c0,24.7,20.1,44.8,44.8,44.8c24.7,0,44.8-20.1,44.8-44.8
					C135.9,58.2,115.8,38.1,91.2,38.1z M91.2,120.6c-20.8,0-37.7-16.9-37.7-37.7s16.9-37.7,37.7-37.7c20.8,0,37.7,16.9,37.7,37.7
					C128.9,103.7,112,120.6,91.2,120.6z"/>
			</g>
		</g>
		<g class="st1">
			<g>
				<path class="st2" d="M112.4,64.5c-1.4-1.4-3.6-1.4-5,0L77.1,94.8L68.3,86c-1.4-1.4-3.6-1.4-5,0c-1.4,1.4-1.4,3.6,0,5l11.3,11.2
					c0.7,0.7,1.6,1,2.5,1s1.8-0.3,2.5-1l32.8-32.8C113.8,68.1,113.8,65.8,112.4,64.5z"/>
			</g>
		</g>
	</g>
	<g id="Слой_8" class="st0">
		<g class="st1">
			<g>
				<path d="M153,111l-9.8-62.5l6.2-70.4c0.1-1-0.3-2.1-1-2.8c-0.7-0.8-1.7-1.2-2.7-1.2H91.4c-1,0-2,0.4-2.7,1.2
					c-0.7,0.8-1.1,1.8-1,2.8l5.1,69c-0.2,0.3-0.3,0.7-0.3,1l-9.8,63c-0.1,0.8,0,1.5,0.3,2.2l31.5,63c0.6,1.3,1.9,2,3.3,2
					s2.7-0.8,3.3-2l31.5-63C153,112.6,153.1,111.8,153,111z M141.7-18.5L136.1,45h-36l-4.7-63.4C95.4-18.5,141.7-18.5,141.7-18.5z
					 M117.8,104c-5.6,0-10.1-4.5-10.1-10.1c0-5.6,4.5-10.1,10.1-10.1s10.1,4.5,10.1,10.1C127.9,99.5,123.4,104,117.8,104z
					 M121.5,158.9v-48c7.9-1.7,13.8-8.7,13.8-17.1c0-9.6-7.8-17.5-17.5-17.5s-17.5,7.8-17.5,17.5c0,8.4,5.9,15.4,13.8,17.1v48
					l-24-47.9l9.2-58.7h37l9.2,58.7L121.5,158.9z"/>
			</g>
		</g>
		<g class="st1">
			<g>
				<path d="M190.6,176.8H171c-2,0-3.7,1.6-3.7,3.7v6.1H68.4v-6.1c0-2-1.7-3.7-3.7-3.7H45c-2,0-3.7,1.6-3.7,3.7v19.7
					c0,2,1.7,3.7,3.7,3.7h19.7c2,0,3.7-1.7,3.7-3.7V194h98.9v6.1c0,2,1.6,3.7,3.7,3.7h19.7c2,0,3.7-1.7,3.7-3.7v-19.7
					C194.3,178.4,192.7,176.8,190.6,176.8z M61,196.5H48.7v-12.3H61V196.5z M186.9,196.5h-12.3v-12.3h12.3V196.5z"/>
			</g>
		</g>
		<g class="st1">
			<g>
				<path d="M208.3,88.2c-2,0-3.7,1.7-3.7,3.7c0,47.9-38.9,86.8-86.8,86.8C70,178.7,31,139.8,31,91.9c0-2-1.6-3.7-3.7-3.7
					c-2,0-3.7,1.7-3.7,3.7c0,51.9,42.3,94.2,94.2,94.2c51.9,0,94.2-42.3,94.2-94.2C212,89.9,210.4,88.2,208.3,88.2z"/>
			</g>
		</g>
	</g>
	<g id="Слой_9" class="st0">
		<g class="st1">
			<g>
				<g>
					<path class="st2" d="M215.6,11.2h-17c-1.6-2.8-3.9-5.2-6.9-6.6L134-22.8c-9.9-4.7-21.9-4.7-31.8,0L44.5,4.6
						c-3,1.4-5.4,3.8-6.9,6.6h-17c-10.3,0-18.8,8.4-18.8,18.8V165c0,10.3,8.4,18.8,18.8,18.8h48.8v15h-15v7.5h127.6v-7.5h-15v-15
						h48.8c10.3,0,18.8-8.4,18.8-18.8V29.9C234.4,19.6,226,11.2,215.6,11.2z M47.7,11.4L105.4-16c3.9-1.9,8.3-2.9,12.7-2.9
						s8.7,1,12.7,2.9l57.7,27.3c2.8,1.3,4.6,4.2,4.6,7.3s-1.8,6-4.6,7.3l-57.7,27.3c-7.9,3.7-17.5,3.7-25.4,0L47.7,26
						c-2.8-1.3-4.6-4.2-4.6-7.3S44.8,12.7,47.7,11.4z M130.7,90.9c-7.9,3.7-17.5,3.7-25.4,0L47.7,63.5c-2.8-1.3-4.6-4.2-4.6-7.3
						s1.8-6,4.6-7.3L63,41.6l39.1,18.5c4.9,2.3,10.4,3.6,15.9,3.6s11-1.2,15.9-3.6l39.1-18.5l15.4,7.3c2.8,1.3,4.6,4.2,4.6,7.3
						s-1.8,6-4.6,7.3L130.7,90.9z M173.1,79.1l15.4,7.3c2.8,1.3,4.6,4.2,4.6,7.3c0,3.1-1.8,6-4.6,7.3l-57.7,27.3
						c-7.9,3.7-17.5,3.7-25.4,0L47.7,101c-2.8-1.3-4.6-4.2-4.6-7.3c0-3.1,1.8-6,4.6-7.3L63,79.1l39.1,18.5
						c4.9,2.3,10.4,3.6,15.9,3.6c5.5,0,11-1.2,15.9-3.6L173.1,79.1z M159.3,198.8H76.8v-15h82.5L159.3,198.8L159.3,198.8z
						 M226.9,165c0,6.2-5,11.3-11.3,11.3H20.5c-6.2,0-11.3-5-11.3-11.3v-3.8h217.6V165z M226.9,153.7H9.3V29.9
						c0-6.2,5-11.3,11.3-11.3h15c0,6,3.5,11.5,8.9,14.1l9.8,4.7l-9.8,4.7c-5.4,2.6-8.9,8.1-8.9,14.1c0,6,3.5,11.5,8.9,14.1l9.8,4.7
						l-9.8,4.7c-5.4,2.6-8.9,8.1-8.9,14.1s3.5,11.5,8.9,14.1l57.7,27.3c4.9,2.3,10.4,3.6,15.9,3.6c5.5,0,11-1.2,15.9-3.6l57.7-27.3
						c5.4-2.6,8.9-8.1,8.9-14.1s-3.5-11.5-8.9-14.1l-9.8-4.7l9.8-4.7c5.4-2.6,8.9-8.1,8.9-14.1c0-6-3.5-11.5-8.9-14.1l-9.8-4.7
						l9.8-4.7c5.4-2.6,8.9-8.1,8.9-14.1h15c6.2,0,11.3,5.1,11.3,11.3L226.9,153.7L226.9,153.7L226.9,153.7L226.9,153.7z"/>
					<path class="st2" d="M118.1,33.7c10.3,0,18.8-6.7,18.8-15c0-8.3-8.4-15-18.8-15c-10.3,0-18.8,6.7-18.8,15
						C99.3,27,107.7,33.7,118.1,33.7z M118.1,11.2c6.1,0,11.3,3.4,11.3,7.5s-5.2,7.5-11.3,7.5c-6.1,0-11.3-3.4-11.3-7.5
						C106.8,14.6,112,11.2,118.1,11.2z"/>
					<rect x="144.3" y="14.9" class="st2" width="7.5" height="7.5"/>
					<rect x="159.3" y="14.9" class="st2" width="7.5" height="7.5"/>
					<rect x="84.3" y="14.9" class="st2" width="7.5" height="7.5"/>
					<rect x="69.3" y="14.9" class="st2" width="7.5" height="7.5"/>
				</g>
			</g>
		</g>
	</g>
	<g id="Слой_10" class="st0">
		<g class="st1">
			<g>
				<g>
					<path class="st2" d="M64,176.5H196c2.4,0,4.4-2.1,4.4-4.6V97.8c0-2.6-2-4.6-4.4-4.6H64c-2.4,0-4.4,2.1-4.4,4.6v74.1
						C59.6,174.4,61.6,176.5,64,176.5z M68.4,102.4h123.1v64.8H68.4V102.4z"/>
					<path class="st2" d="M220.4,181.4H214V91.3c0-6.7-5.3-12.2-11.7-12.2h-62.6V61.9h12.5c7.4,0,13.4-6.3,13.4-14v-65
						c0-7.7-6-14-13.4-14h-33.9c-7.4,0-13.4,6.3-13.4,14v16.8H-34.1c-8,0-14.6,6.8-14.6,15.2v108.7c0,8.4,6.5,15.2,14.6,15.2h62.8
						l-3.6,16.8H13.3c-2.4,0-4.4,2.1-4.4,4.6s2,4.6,4.4,4.6H46v16.7h-6.4c-2.4,0-4.4,2.1-4.4,4.6c0,11.2,8.7,20.2,19.4,20.2h150.8
						c10.7,0,19.4-9.1,19.4-20.2C224.8,183.5,222.8,181.4,220.4,181.4z M202.2,88.3c1.6,0,2.9,1.3,2.9,3v90.2H54.9v-21.3
						c0,0,0,0,0,0s0,0,0,0V91.3c0-1.6,1.3-3,2.9-3L202.2,88.3L202.2,88.3z M113.7-17.2c0-2.6,2-4.8,4.6-4.8h33.9
						c2.5,0,4.6,2.1,4.6,4.8v2h-43.1L113.7-17.2L113.7-17.2z M113.7-5.9h43.1v41.3h-43.1C113.7,35.4,113.7-5.9,113.7-5.9z
						 M113.7,44.6h43.1v3.2c0,2.6-2.1,4.8-4.6,4.8h-33.9c-2.5,0-4.6-2.1-4.6-4.8L113.7,44.6L113.7,44.6z M-39.8,14.9
						c0-3.3,2.6-6,5.7-6h138.9v39c0,7.7,6,14,13.4,14h12.5V79H57.7C51.3,79,46,84.5,46,91.3v16.8h-85.8L-39.8,14.9L-39.8,14.9z
						 M-34.1,129.5c-3.2,0-5.7-2.7-5.7-6v-6.2H46v12.2H-34.1L-34.1,129.5z M34.2,155.5l3.6-16.8H46v16.8H34.2z M205.4,197H54.6
						c-4.2,0-7.9-2.6-9.6-6.4H215C213.3,194.4,209.6,197,205.4,197z"/>
				</g>
			</g>
		</g>
	</g>
	<path id="Слой_11" class="st2" d="M202,0.1H3.4c-1.8,0-3.3,1.5-3.3,3.3v163.4v12.3v26.4c0,1.8,1.5,3.3,3.3,3.3H202
		c1.8,0,3.3-1.5,3.3-3.3v-26.4v-10.5V3.4C205.3,1.5,203.8,0.1,202,0.1z M198.7,202.2H6.7v-19.8h192V202.2L198.7,202.2z M198.7,175.8
		H6.7v-8l51.2-72.7l53.5,74.4c0.6,0.8,1.4,1.3,2.4,1.4s1.9-0.2,2.6-0.9l41.7-39.2l40.7,39L198.7,175.8L198.7,175.8z M198.7,160.8
		L160.4,124c-1.3-1.2-3.3-1.2-4.5,0l-41.2,38.7l-54-75.2c-0.6-0.9-1.6-1.4-2.7-1.4c0,0,0,0,0,0c-1.1,0-2.1,0.5-2.7,1.4L6.7,156.4
		V6.7h192V160.8L198.7,160.8z M135.2,63.3c-15.4,0-27.9,12.5-27.9,27.9c0,15.4,12.5,27.9,27.9,27.9s27.9-12.5,27.9-27.9
		C163.1,75.8,150.6,63.3,135.2,63.3z M135.2,112.5c-11.7,0-21.3-9.6-21.3-21.3s9.6-21.3,21.3-21.3c11.8,0,21.3,9.6,21.3,21.3
		S147,112.5,135.2,112.5z M172.1,22.9c-4.2,0-8,1.9-10.5,4.9c-2.5-3-6.3-4.9-10.5-4.9c-4.2,0-8,1.9-10.5,4.9
		c-2.5-3-6.3-4.9-10.5-4.9c-7.6,0-13.8,6.2-13.8,13.8c0,1.8,1.5,3.3,3.3,3.3c1.8,0,3.3-1.5,3.3-3.3c0-4,3.3-7.2,7.3-7.2
		c4,0,7.2,3.3,7.2,7.2c0,1.8,1.5,3.3,3.3,3.3c1.8,0,3.3-1.5,3.3-3.3c0-4,3.3-7.2,7.3-7.2s7.2,3.3,7.2,7.2c0,1.8,1.5,3.3,3.3,3.3
		c1.8,0,3.3-1.5,3.3-3.3c0-4,3.3-7.2,7.3-7.2s7.3,3.3,7.3,7.2c0,1.8,1.5,3.3,3.3,3.3c1.8,0,3.3-1.5,3.3-3.3
		C186,29.1,179.8,22.9,172.1,22.9z M57.9,51c-4.2,0-8,1.9-10.5,4.9c-2.5-3-6.3-4.9-10.5-4.9C29.2,51,23,57.2,23,64.9
		c0,1.8,1.5,3.3,3.3,3.3c1.8,0,3.3-1.5,3.3-3.3c0-4,3.3-7.3,7.2-7.3c4,0,7.3,3.3,7.3,7.3c0,1.8,1.5,3.3,3.3,3.3
		c1.8,0,3.3-1.5,3.3-3.3c0-4,3.3-7.3,7.2-7.3c4,0,7.3,3.3,7.3,7.3c0,1.8,1.5,3.3,3.3,3.3s3.3-1.5,3.3-3.3C71.8,57.2,65.5,51,57.9,51
		z"/>
</g>
</svg>
