<?xml version="1.0" encoding="utf-8"?>
<!-- Generator: Adobe Illustrator 21.0.0, SVG Export Plug-In . SVG Version: 6.00 Build 0)  -->
<svg version="1.1" id="Layer_1" xmlns="http://www.w3.org/2000/svg" xmlns:xlink="http://www.w3.org/1999/xlink" x="0px" y="0px"
	 viewBox="0 0 595.3 633" style="enable-background:new 0 0 595.3 633;" xml:space="preserve">
<style type="text/css">
	.st0{fill:#FFFFFF;}
	.st1{fill:#3D4A5A;}
</style>
<path class="st0" d="M158.2,560.4c-13.4,13.3-32.6,15.8-43,5.4l-68.8-69.1c-10.3-10.4-7.8-29.6,5.6-42.9L472,35.6
	c13.4-13.3,32.6-15.8,43-5.4l68.8,69.1c10.3,10.4,7.8,29.6-5.6,42.9L158.2,560.4z"/>
<path class="st0" d="M28.7,144.8c-14.1-14.1-17.9-33.2-8.5-42.5l62.6-62.3c9.4-9.4,28.4-5.5,42.5,8.7l440.8,443.1
	c14.1,14.1,17.9,33.2,8.5,42.5L512,596.5c-9.4,9.4-28.4,5.5-42.5-8.7L28.7,144.8z"/>
<g transform="translate(1)">
	<g>
		<g>
			<path class="st1" d="M464.4,484.7c-15.9,14.9-15.9,39.7,0,55.6c7.9,7.9,17.9,11.9,27.8,11.9c9.9,0,19.8-4,27.8-11.9
				c15.9-14.9,15.9-39.7,0-55.6C505.1,468.8,480.3,468.8,464.4,484.7z M506.1,527.4c-7.9,7.9-19.8,7.9-27.8,0
				c-7.9-7.9-7.9-19.8,0-27.8c4-4,8.9-6,13.9-6c5,0,9.9,2,13.9,6C514,507.5,514,519.4,506.1,527.4z"/>
			<path class="st1" d="M587.5,496.6L408.9,318l70.4-70.4l0,0l41.7-41.7l0,0l60.5-60.5c16.9-16.9,16.9-44.6,0-61.5l-50.6-50.6
				c-7.9-7.9-18.8-12.9-30.8-12.9s-22.8,5-30.8,12.9l-60.5,60.5l-41.7,41.7l-70.4,70.4L120.2,29.3c-10.9-10.9-30.8-10.9-41.7,0
				L8.1,99.8c-11.9,10.9-11.9,29.8,0,41.7l20.8,20.8l0,0l0,0l56.6,56.6l0,0l0,0l55.6,55.6l0,0c0,0,0,0,0,0l43.7,43.7L25.4,477.3
				c-3,1.3-4.6,4-5.4,7.4L-0.9,603.8c0,4,1,6.9,3,8.9c2,2,4,3,6.9,3c1,0,1,0,2,0l114.5-21.2c0.8,0.2,1.6,0.3,2.6,0.3c3,0,6-1,6.9-3
				l161.7-161.7l12.9,12.9c0,0,0,0,0,0l0,0l27.8,27.8c0,0,0,0,0,0v0l137.9,137.9c5,5,10.9,6.9,16.9,6.9c6,0,11.9-2,15.9-6.9
				l79.4-79.4C596.4,520.4,596.4,505.5,587.5,496.6z M128.1,570l-34.7-34.7l329.9-328.9l34.2,34.2L128.1,570z M483.3,47.2
				c8.9-8.9,24.8-8.9,33.7,0l50.6,50.6c8.9,8.9,8.9,24.8,0,33.7L514,185.1l-84.3-84.3L483.3,47.2z M415.8,114.6l42.2,42.2l42.2,42.2
				l-27.8,27.8L388,142.4L415.8,114.6z M190.1,295.7l21.3-21.3c4-4,4-9.9,0-13.9c-4-4-9.9-4-13.9,0l-21.3,21.3l-14.4-14.4l34.7-34.7
				c4-4,4-9.9,0-13.9c-4-4-9.9-4-13.9,0l-34.7,34.7l-13.9-13.9l20.8-20.8c4-4,4-9.9,0-13.9c-4-4-9.9-4-13.9,0l-20.8,20.8l-13.9-13.9
				l34.7-34.7c4-4,4-9.9,0-13.9c-4-4-9.9-4-13.9,0L92.4,198l-14.9-14.9l20.8-20.8c4-4,4-9.9,0-13.9c-4-4-9.9-4-13.9,0l-20.8,20.8
				l-13.9-13.9l34.7-34.7c4-4,4-9.9,0-13.9c-4-4-9.9-4-13.9,0l-34.7,34.7l-13.9-13.9c-4-4-4-9.9,0-13.9l70.4-70.4c2-2,4-3,6.9-3
				c2,0,5,1,6.9,3l176.6,176.6l-84.3,84.3L190.1,295.7z M374.2,157.3l34.7,34.7L79,520.9l-34.2-34.2L374.2,157.3z M36.8,506.5
				l32.5,32.5c0.5,1.1,1.2,2.2,2.2,3.2l35.9,35.9l-85.5,14.7L36.8,506.5z M573.6,515.5l-79.4,79.4c-1,1-4,1-5,0L386.6,492.2
				l35.2-35.2c4-4,4-9.9,0-13.9c-4-4-9.9-4-13.9,0l-35.2,35.2l-14.4-14.4l20.8-20.8c4-4,4-9.9,0-13.9s-9.9-4-13.9,0L344.4,450
				l-13.9-13.9l34.7-34.7c4-4,4-9.9,0-13.9c-4-4-9.9-4-13.9,0l-34.7,34.7l-6-6l84.3-84.3l178.6,178.6
				C574.6,511.5,574.6,514.5,573.6,515.5z"/>
		</g>
	</g>
</g>
</svg>
