<?xml version="1.0" encoding="utf-8"?>
<!-- Generator: Adobe Illustrator 21.0.0, SVG Export Plug-In . SVG Version: 6.00 Build 0)  -->
<svg version="1.1" id="Слой_1" xmlns="http://www.w3.org/2000/svg" xmlns:xlink="http://www.w3.org/1999/xlink" x="0px" y="0px"
	 viewBox="0 0 542 344" style="enable-background:new 0 0 542 344;" xml:space="preserve">
		<path class="st0" d="M135,151.8h127.3v170.7c0.2,5.9,5.1,10.5,11,10.3c5.6-0.2,10.2-4.7,10.3-10.3V151.8h138.7
			c5.9-0.2,10.5-5.1,10.3-11c-0.2-5.6-4.7-10.2-10.3-10.3H123.7c-5.9,0.2-10.5,5.1-10.3,11c0.2,5.6,4.7,10.2,10.3,10.3H135"/>
		<path class="st0" d="M38.3,61V23.8c-0.2-5.9-5.1-10.5-11-10.3c-5.6,0.2-10.2,4.7-10.3,10.3v298.7c0.2,5.9,5.1,10.5,11,10.3
			c5.6-0.2,10.2-4.7,10.3-10.3v-53.3h96v53.3c0.2,5.9,5.1,10.5,11,10.3c5.6-0.2,10.2-4.7,10.3-10.3v-128c0-5.9-4.8-10.6-10.7-10.7
			H38.3V61 M86.3,205.1h48v42.7h-96v-42.7H86.3"/>
		<path class="st0" d="M507.7,84v99.8H401c-5.9,0-10.7,4.8-10.7,10.7v128c0.2,5.9,5.1,10.5,11,10.3c5.6-0.2,10.2-4.7,10.3-10.3
			v-53.3h96v53.3c0.2,5.9,5.1,10.5,11,10.3c5.6-0.2,10.2-4.7,10.3-10.3V23.8c0-5.9-4.8-10.6-10.7-10.7c-5.9,0-10.7,4.8-10.7,10.7V84
			 M466,205.1h41.7v42.7h-96v-42.7H466"/>
</svg>
