<svg xmlns="http://www.w3.org/2000/svg" viewBox="0 0 512 320" fill="#ff141f"><title>elegant</title><g id="Слой_2" data-name="Слой 2"><g id="Layer_1" data-name="Layer 1"><path d="M405.33,138.67a10.67,10.67,0,0,0,0-21.33H106.67a10.67,10.67,0,0,0,0,21.33H245.33V309.33a10.67,10.67,0,0,0,21.33,0V138.67Z"/><path d="M128,170.67H21.33v-160A10.67,10.67,0,0,0,0,10.67V309.33a10.67,10.67,0,0,0,21.33,0V256h96v53.33a10.67,10.67,0,0,0,21.33,0v-128A10.7,10.7,0,0,0,128,170.67Zm-106.67,64V192h96v42.67Z"/><path d="M501.33,0a10.7,10.7,0,0,0-10.67,10.67v160H384a10.7,10.7,0,0,0-10.67,10.67v128a10.67,10.67,0,0,0,21.33,0V256h96v53.33a10.67,10.67,0,0,0,21.33,0V10.67A10.7,10.7,0,0,0,501.33,0ZM394.67,234.67V192h96v42.67Z"/></g></g></svg>