<?xml version="1.0" encoding="utf-8"?>
<!-- Generator: Adobe Illustrator 21.0.0, SVG Export Plug-In . SVG Version: 6.00 Build 0)  -->
<svg version="1.1" id="Слой_1" xmlns="http://www.w3.org/2000/svg" xmlns:xlink="http://www.w3.org/1999/xlink" x="0px" y="0px"
	 viewBox="0 0 465 637" style="enable-background:new 0 0 465 637;" xml:space="preserve">
<style type="text/css">
	.st0{fill:#FFFFFF;}
	.st1{fill:#3D4A5A;}
</style>
<g id="Слой_2">
	<rect x="90.1" y="40.4" class="st0" width="198" height="282.1"/>
	<rect x="273.1" y="131.5" class="st0" width="104" height="202"/>
	<polygon class="st0" points="357.1,129.5 284.1,129.5 284.1,51.5 334.1,81.5 	"/>
	<polygon class="st0" points="288.1,476.5 121.1,415.5 22.3,319.1 288.1,319.1 	"/>
	<polyline class="st0" points="198.8,485 343,426.3 428.3,333.5 	"/>
	<rect x="189.1" y="445.5" class="st0" width="84" height="106"/>
	<rect x="189.1" y="542.5" class="st0" width="30" height="53"/>
	<rect x="219.1" y="536.5" class="st0" width="52" height="25"/>
	<rect x="211.1" y="542.5" class="st0" width="38.6" height="42.1"/>
</g>
<g id="Capa_1">
	<g>
		<path id="path35963" class="st1" d="M115.1,30.4c-20,0-36.4,16.4-36.4,36.4v251H27.4c-5.7,0-10.3,4.6-10.3,10.3
			c0,2.7,1.1,5.3,3,7.3l161.2,161.2v118.9c0,5.7,4.6,10.3,10.3,10.3c2.2,0,4.4-0.7,6.2-2.1l82.1-61.6c2.6-1.9,4.1-5,4.1-8.2v-57.3
			l161.2-161.2c4-4,4-10.5,0-14.5c-1.9-1.9-4.5-3-7.3-3h-51.3V132.1c0-2.6-1-5.1-2.7-7l-84.9-91.4c-1.9-2.1-4.7-3.3-7.5-3.3
			L115.1,30.4L115.1,30.4z M115.1,50.9h159.6v81.2c0,5.7,4.6,10.3,10.3,10.3h81.2v175.4H99.2v-251C99.2,57.8,106.1,50.9,115.1,50.9z
			 M295.2,59.8l57.6,62.1h-57.6V59.8z M115.1,66.3c-2.8,0-5.1,2.3-5.1,5.1v98c0,2.8,2.2,5.2,5.1,5.2c2.8,0,5.2-2.2,5.2-5.1
			c0,0,0-0.1,0-0.1V76.6h40.6c2.8,0,5.2-2.2,5.2-5.1c0-2.8-2.2-5.2-5.1-5.2c0,0-0.1,0-0.1,0L115.1,66.3L115.1,66.3z M167.3,218.4
			c-2.8,0-5.2,2.2-5.2,5.1c0,2.8,2.2,5.2,5.1,5.2c0,0,0.1,0,0.1,0H298c2.8,0,5.2-2.2,5.2-5.1c0-2.8-2.2-5.2-5.1-5.2c0,0-0.1,0-0.1,0
			H167.3z M167.3,267.3c-2.8,0-5.2,2.2-5.2,5.1c0,2.8,2.2,5.2,5.1,5.2c0,0,0.1,0,0.1,0H298c2.8,0,5.2-2.2,5.2-5.1
			c0-2.8-2.2-5.2-5.1-5.2c0,0-0.1,0-0.1,0H167.3z M52.2,338.3h361L266.4,485c-1.9,1.9-3,4.5-3,7.3v56.4l-61.6,46.2V492.3
			c0-2.7-1.1-5.3-3-7.3L52.2,338.3z"/>
	</g>
</g>
</svg>
