<?xml version="1.0" encoding="utf-8"?>
<!-- Generator: Adobe Illustrator 16.0.0, SVG Export Plug-In . SVG Version: 6.00 Build 0)  -->
<!DOCTYPE svg PUBLIC "-//W3C//DTD SVG 1.1//EN" "http://www.w3.org/Graphics/SVG/1.1/DTD/svg11.dtd">
<svg version="1.1" id="Слой_1" xmlns="http://www.w3.org/2000/svg" xmlns:xlink="http://www.w3.org/1999/xlink" x="0px" y="0px"
	 width="782.047px" height="1080px" viewBox="0 0 782.047 1080" enable-background="new 0 0 782.047 1080" xml:space="preserve">
<g id="Слой_2">
	<path fill="#FFFFFF" d="M471.529,636.501c0,6.627-5.373,12-12,12H142.739c-6.627,0-12-5.373-12-12V31.823c0-6.627,5.373-12,12-12
		h316.791c6.627,0,12,5.373,12,12V636.501z"/>
	<path fill="#FFFFFF" d="M656.398,661.369c0,6.628-5.373,12-12,12H447.529c-6.627,0-12-5.372-12-12V180.501c0-6.627,5.373-12,12-12
		h196.869c6.627,0,12,5.373,12,12V661.369z"/>
	
		<rect x="409.559" y="70.487" transform="matrix(-0.6008 -0.7994 0.7994 -0.6008 685.7942 639.4423)" fill="#FFFFFF" width="186" height="155.999"/>
	
		<rect x="549.007" y="505.757" transform="matrix(-0.6008 -0.7994 0.7994 -0.6008 540.0607 1392.6475)" fill="#FFFFFF" width="137.499" height="111.441"/>
	
		<rect x="568.985" y="514.382" transform="matrix(-0.9037 -0.4281 0.4281 -0.9037 969.999 1358.3359)" fill="#FFFFFF" width="137.493" height="111.438"/>
	
		<rect x="549.007" y="505.757" transform="matrix(-0.6008 -0.7994 0.7994 -0.6008 540.0607 1392.6475)" fill="#FFFFFF" width="137.499" height="111.441"/>
	
		<rect x="84.998" y="537.766" transform="matrix(-0.6008 -0.7994 0.7994 -0.6008 -228.3155 1072.9583)" fill="#FFFFFF" width="137.497" height="111.441"/>
	
		<rect x="102.996" y="514.387" transform="matrix(-0.9037 -0.4281 0.4281 -0.9037 82.8844 1158.8523)" fill="#FFFFFF" width="137.494" height="111.439"/>
	
		<rect x="49.259" y="545.566" transform="matrix(-0.9037 -0.4281 0.4281 -0.9037 -46.0324 1142.3596)" fill="#FFFFFF" width="112.345" height="61.58"/>
	
		<rect x="49.259" y="545.566" transform="matrix(-0.9037 -0.4281 0.4281 -0.9037 -46.0324 1142.3596)" fill="#FFFFFF" width="112.345" height="61.58"/>
	
		<rect x="156.641" y="574.608" transform="matrix(-0.7676 -0.6409 0.6409 -0.7676 157.1447 1436.639)" fill="#FFFFFF" width="364.768" height="230.444"/>
	
		<rect x="264.635" y="471.43" transform="matrix(-0.7676 -0.6409 0.6409 -0.7676 414.1634 1323.4723)" fill="#FFFFFF" width="364.767" height="230.442"/>
	<rect x="318.623" y="540.001" fill="#FFFFFF" width="143.993" height="407.568"/>
	<rect x="318.623" y="913.072" fill="#FFFFFF" width="32.999" height="118.494"/>
	<rect x="339.018" y="905.573" fill="#FFFFFF" width="74.099" height="86.995"/>
	<rect x="401.119" y="934.071" fill="#FFFFFF" width="34.41" height="38.248"/>
	<rect x="339.018" y="972.319" fill="#FFFFFF" width="44.102" height="44.248"/>
</g>
<g id="Capa_1">
	<g>
		<path id="path35963" fill="#3D4A5A" d="M177.737,0.001c-36.255,0-66.019,29.776-66.019,66.027v455.356H18.616
			C8.331,521.389-0.004,529.731,0,540.013c0.003,4.935,1.962,9.668,5.448,13.156l292.472,292.473v215.736
			c0.004,10.286,8.344,18.621,18.624,18.621c4.026,0,7.944-1.308,11.169-3.725l148.965-111.723
			c4.688-3.517,7.447-9.035,7.447-14.896V845.644l292.473-292.473c7.27-7.273,7.266-19.067-0.008-26.337
			c-3.488-3.489-8.223-5.448-13.156-5.448H670.33V184.527c0-4.699-1.775-9.225-4.977-12.67L511.318,5.959
			c-3.521-3.795-8.465-5.954-13.645-5.958H177.737z M177.737,37.24h289.47v147.277c0,10.282,8.338,18.621,18.621,18.621h147.27
			v318.25H148.964V66.03C148.964,49.766,161.477,37.24,177.737,37.24z M504.449,53.281l104.564,112.617H504.449V53.281z
			 M177.737,65.18c-5.144,0-9.312,4.167-9.312,9.311v177.74c-0.073,5.144,4.037,9.369,9.181,9.44
			c5.144,0.074,9.37-4.037,9.439-9.181c0-0.09,0-0.175,0-0.265V83.801h73.638c5.144,0.074,9.369-4.037,9.44-9.181
			c0.074-5.144-4.037-9.369-9.181-9.44c-0.089,0-0.175,0-0.264,0H177.737z M272.534,341.106c-5.144-0.074-9.37,4.037-9.44,9.18
			c-0.073,5.145,4.037,9.37,9.181,9.441c0.09,0,0.175,0,0.265,0h236.991c5.143,0.074,9.369-4.037,9.439-9.181
			c0.074-5.144-4.037-9.369-9.18-9.44c-0.09,0-0.176,0-0.266,0H272.534z M272.534,429.799c-5.144-0.074-9.37,4.037-9.44,9.18
			c-0.073,5.144,4.037,9.37,9.181,9.44c0.09,0,0.175,0,0.265,0h236.991c5.143,0.074,9.369-4.036,9.439-9.181
			c0.074-5.143-4.037-9.369-9.18-9.439c-0.09,0-0.176,0-0.266,0H272.534z M63.578,558.63H718.48L452.344,824.766
			c-3.492,3.493-5.455,8.229-5.455,13.172v102.413l-111.724,83.792V837.938c0-4.941-1.963-9.679-5.456-13.172L63.578,558.63z"/>
	</g>
</g>
</svg>
