<?xml version="1.0" encoding="utf-8"?>
<!-- Generator: Adobe Illustrator 21.0.0, SVG Export Plug-In . SVG Version: 6.00 Build 0)  -->
<svg version="1.1" id="Слой_1" xmlns="http://www.w3.org/2000/svg" xmlns:xlink="http://www.w3.org/1999/xlink" x="0px" y="0px"
	 viewBox="0 0 782 1080" style="enable-background:new 0 0 782 1080;" xml:space="preserve">
<style type="text/css">
	.st0{fill:#3D4A5A;}
</style>
<path id="Capa_1" class="st0" d="M177.7,0c-36.3,0-66,29.8-66,66v455.4H18.6C8.3,521.4,0,529.7,0,540c0,4.9,2,9.7,5.4,13.2
	l292.5,292.5v215.7c0,10.3,8.3,18.6,18.6,18.6c4,0,7.9-1.3,11.2-3.7l149-111.7c4.7-3.5,7.4-9,7.4-14.9v-104l292.5-292.5
	c7.3-7.3,7.3-19.1,0-26.3c-3.5-3.5-8.2-5.4-13.2-5.4h-93.1V184.5c0-4.7-1.8-9.2-5-12.7L511.3,6c-3.5-3.8-8.5-6-13.6-6
	C497.7,0,177.7,0,177.7,0z M177.7,37.2h289.5v147.3c0,10.3,8.3,18.6,18.6,18.6h147.3v318.2H149V66C149,49.8,161.5,37.2,177.7,37.2z
	 M504.4,53.3L609,165.9H504.4V53.3z M177.7,65.2c-5.1,0-9.3,4.2-9.3,9.3v177.7c-0.1,5.1,4,9.4,9.2,9.4c5.1,0.1,9.4-4,9.4-9.2
	c0-0.1,0-0.2,0-0.3V83.8h73.6c5.1,0.1,9.4-4,9.4-9.2c0.1-5.1-4-9.4-9.2-9.4c-0.1,0-0.2,0-0.3,0H177.7z M272.5,341.1
	c-5.1-0.1-9.4,4-9.4,9.2c-0.1,5.1,4,9.4,9.2,9.4c0.1,0,0.2,0,0.3,0h237c5.1,0.1,9.4-4,9.4-9.2c0.1-5.1-4-9.4-9.2-9.4
	c-0.1,0-0.2,0-0.3,0H272.5z M272.5,429.8c-5.1-0.1-9.4,4-9.4,9.2c-0.1,5.1,4,9.4,9.2,9.4c0.1,0,0.2,0,0.3,0h237
	c5.1,0.1,9.4-4,9.4-9.2c0.1-5.1-4-9.4-9.2-9.4c-0.1,0-0.2,0-0.3,0H272.5z M63.6,558.6h654.9L452.3,824.8c-3.5,3.5-5.5,8.2-5.5,13.2
	v102.4l-111.7,83.8V837.9c0-4.9-2-9.7-5.5-13.2L63.6,558.6z"/>
</svg>
