<?xml version="1.0" encoding="utf-8"?>
<!-- Generator: Adobe Illustrator 21.0.0, SVG Export Plug-In . SVG Version: 6.00 Build 0)  -->
<svg version="1.1" id="Слой_1" xmlns="http://www.w3.org/2000/svg" xmlns:xlink="http://www.w3.org/1999/xlink" x="0px" y="0px"
	 viewBox="0 0 595.3 618" style="enable-background:new 0 0 595.3 618;" xml:space="preserve">
<style type="text/css">
	.st0{fill:#FFFFFF;}
	.st1{fill:#3D4A5A;}
</style>
<path class="st0" d="M595.3,578.3c0,15.7-12.7,28.3-28.3,28.3H28.3C12.7,606.7,0,594,0,578.3V211.9c0-15.7,12.7-28.3,28.3-28.3
	h538.6c15.7,0,28.3,12.7,28.3,28.3L595.3,578.3L595.3,578.3z"/>
<g>
	<path class="st1" d="M406.2,84.2c0,6.7-1.9,9.4-5.1,14c-1.7,2.4-3.7,5.2-5.3,8.7c-2.5,5.3-0.2,11.6,5.1,14c1.5,0.7,3,1,4.5,1
		c4,0,7.8-2.2,9.6-6.1c0.9-1.8,2.1-3.6,3.5-5.6c3.8-5.4,8.9-12.7,8.9-26.1c0-13.4-5.2-20.7-8.9-26.1c-3.2-4.5-5.1-7.3-5.1-14
		c0-6.7,1.9-9.4,5.1-14c0.5-0.8,1.1-1.5,1.6-2.3c3.3-4.8,2-11.4-2.9-14.6c-4.8-3.3-11.4-2-14.6,2.9c-0.5,0.7-0.9,1.3-1.4,2
		c-3.8,5.4-8.9,12.7-8.9,26.1c0,13.4,5.2,20.7,8.9,26.1C404.2,74.8,406.2,77.5,406.2,84.2L406.2,84.2z"/>
	<path class="st1" d="M276.5,84.2c0,6.7-1.9,9.4-5.1,14c-1.7,2.4-3.7,5.2-5.3,8.7c-2.5,5.3-0.2,11.6,5.1,14c1.5,0.7,3,1,4.5,1
		c4,0,7.8-2.2,9.6-6.1c0.9-1.8,2.1-3.6,3.5-5.6c3.8-5.4,8.9-12.7,8.9-26.1c0-13.4-5.2-20.7-8.9-26.1c-3.2-4.5-5.1-7.3-5.1-14
		s1.9-9.4,5.1-14c0.5-0.8,1.1-1.5,1.6-2.3c3.3-4.8,2-11.4-2.9-14.6c-4.8-3.3-11.4-2-14.6,2.9c-0.5,0.7-0.9,1.3-1.4,2
		c-3.8,5.4-8.9,12.7-8.9,26.1c0,13.4,5.2,20.7,8.9,26.1C274.6,74.8,276.5,77.5,276.5,84.2L276.5,84.2z"/>
	<path class="st1" d="M146.9,84.2c0,6.7-1.9,9.4-5.1,14c-1.7,2.4-3.7,5.2-5.3,8.7c-2.5,5.3-0.2,11.6,5.1,14c1.4,0.7,3,1,4.5,1
		c4,0,7.8-2.2,9.6-6.1c0.9-1.8,2.1-3.6,3.5-5.6c3.8-5.4,8.9-12.7,8.9-26.1c0-13.4-5.2-20.7-8.9-26.1c-3.2-4.5-5.1-7.3-5.1-14
		s1.9-9.4,5.1-14c0.5-0.8,1.1-1.5,1.6-2.3c3.3-4.8,2-11.4-2.9-14.6c-4.8-3.3-11.4-2-14.6,2.9c-0.5,0.7-0.9,1.3-1.4,2
		c-3.8,5.4-8.9,12.7-8.9,26.1c0,13.4,5.2,20.7,8.9,26.1C145,74.8,146.9,77.5,146.9,84.2z"/>
	<path class="st1" d="M493.8,170c-11.8,0-21.9,7.3-26.1,17.6h-16.8c-5.8,0-10.5,4.7-10.5,10.5s4.7,10.5,10.5,10.5h16.8
		c4.2,10.3,14.3,17.6,26.1,17.6c15.5,0,28.1-12.6,28.1-28.1C521.9,182.6,509.3,170,493.8,170L493.8,170z M493.8,205.2
		c-3.9,0-7-3.2-7-7c0-3.9,3.2-7,7-7c3.9,0,7,3.2,7,7S497.7,205.2,493.8,205.2z"/>
	<path class="st1" d="M486.8,552.5v-16.8c0-5.8-4.7-10.5-10.5-10.5s-10.5,4.7-10.5,10.5v16.8c-10.3,4.2-17.6,14.3-17.6,26.1
		c0,15.5,12.6,28.1,28.1,28.1s28.1-12.6,28.1-28.1C504.4,566.8,497.1,556.7,486.8,552.5z M476.2,585.6c-3.9,0-7-3.2-7-7
		c0-3.9,3.2-7,7-7s7,3.2,7,7C483.3,582.4,480.1,585.6,476.2,585.6z"/>
	<path class="st1" d="M356.1,208.7h50.8c5.8,0,10.5-4.7,10.5-10.5s-4.7-10.5-10.5-10.5h-50.8c-5.8,0-10.5,4.7-10.5,10.5
		S350.3,208.7,356.1,208.7z"/>
	<path class="st1" d="M255.5,369h-50.8c-5.8,0-10.5,4.7-10.5,10.5s4.7,10.5,10.5,10.5h50.8c5.8,0,10.5-4.7,10.5-10.5
		S261.3,369,255.5,369L255.5,369z"/>
	<path class="st1" d="M265.7,288.8c0,5.8,4.7,10.5,10.5,10.5H327c5.8,0,10.5-4.7,10.5-10.5s-4.7-10.5-10.5-10.5h-50.8
		C270.4,278.3,265.7,283,265.7,288.8z"/>
	<path class="st1" d="M350,369h-50.8c-5.8,0-10.5,4.7-10.5,10.5s4.7,10.5,10.5,10.5H350c5.8,0,10.5-4.7,10.5-10.5S355.8,369,350,369
		L350,369z"/>
	<path class="st1" d="M471,357.9c1.1,0.3,2.1,0.5,3.2,0.5c4.5,0,8.6-2.9,10.1-7.4c1.7-5.4,2.6-11.1,2.6-16.9
		c0-15.3-6.4-30.1-17.5-40.6c-4.2-4-10.9-3.8-14.9,0.4s-3.8,10.9,0.4,14.9c7,6.6,10.9,15.6,10.9,25.3c0,3.6-0.5,7.1-1.6,10.5
		C462.3,350.3,465.4,356.2,471,357.9L471,357.9z"/>
	<path class="st1" d="M370.7,278.3c-5.8,0-10.5,4.7-10.5,10.5s4.7,10.5,10.5,10.5h50.8c5.8,0,10.5-4.7,10.5-10.5
		s-4.7-10.5-10.5-10.5H370.7z"/>
	<path class="st1" d="M441.2,367.5c-3.3,1-6.8,1.5-10.3,1.5h-37.2c-5.8,0-10.5,4.7-10.5,10.5s4.7,10.5,10.5,10.5h37.2
		c5.6,0,11.2-0.8,16.5-2.5c5.6-1.7,8.7-7.6,7-13.2C452.7,368.9,446.8,365.7,441.2,367.5z"/>
	<path class="st1" d="M461.1,498.2c2,3.4,5.5,5.3,9.1,5.3c1.8,0,3.6-0.5,5.3-1.4c5-2.9,6.8-9.4,3.9-14.4c-10-17.3-28.5-28-48.4-28
		h-3.2c-5.8,0-10.5,4.7-10.5,10.5s4.7,10.5,10.5,10.5h3.2C443.3,480.8,454.8,487.5,461.1,498.2L461.1,498.2z"/>
	<path class="st1" d="M156.5,198.1c0,5.8,4.7,10.5,10.5,10.5h50.8c5.8,0,10.5-4.7,10.5-10.5s-4.7-10.5-10.5-10.5H167
		C161.2,187.6,156.5,192.3,156.5,198.1z"/>
	<path class="st1" d="M171.5,379.6c0-5.8-4.7-10.5-10.5-10.5h-31.7c-8,0-15.6,1.6-22.8,4.9c-5.3,2.4-7.7,8.6-5.3,13.9
		c1.8,3.9,5.6,6.2,9.6,6.2c1.4,0,2.9-0.3,4.3-0.9c4.5-2,9.3-3,14.2-3h31.7C166.8,390.1,171.5,385.4,171.5,379.6z"/>
	<path class="st1" d="M108.5,452.9c-9-6.6-14.1-16.8-14.1-28c0-2.2,0.2-4.3,0.6-6.4c1.1-5.7-2.7-11.2-8.4-12.3
		c-5.7-1.1-11.2,2.7-12.3,8.4c-0.6,3.4-1,6.9-1,10.3c0,17.6,8.5,34.4,22.6,44.9c1.9,1.4,4.1,2.1,6.3,2.1c3.2,0,6.4-1.5,8.5-4.3
		C114.2,463,113.2,456.4,108.5,452.9z"/>
	<path class="st1" d="M82.9,239.2c1.1,0.4,2.2,0.5,3.3,0.5c4.4,0,8.5-2.8,10-7.2c4.2-12.6,15.4-21.8,28.5-23.5
		c5.8-0.8,9.9-6,9.1-11.8s-6-9.9-11.8-9.1c-21.1,2.7-39.1,17.6-45.8,37.8C74.3,231.4,77.3,237.4,82.9,239.2z"/>
	<path class="st1" d="M194.8,459.7h-50.8c-5.8,0-10.5,4.7-10.5,10.5s4.7,10.5,10.5,10.5h50.8c5.8,0,10.5-4.7,10.5-10.5
		S200.7,459.7,194.8,459.7z"/>
	<path class="st1" d="M289.4,459.7h-50.8c-5.8,0-10.5,4.7-10.5,10.5s4.7,10.5,10.5,10.5h50.8c5.8,0,10.5-4.7,10.5-10.5
		S295.2,459.7,289.4,459.7z"/>
	<path class="st1" d="M261.6,208.7h50.8c5.8,0,10.5-4.7,10.5-10.5s-4.7-10.5-10.5-10.5h-50.8c-5.8,0-10.5,4.7-10.5,10.5
		S255.7,208.7,261.6,208.7z"/>
	<path class="st1" d="M171.1,288.8c0,5.8,4.7,10.5,10.5,10.5h50.8c5.8,0,10.5-4.7,10.5-10.5s-4.7-10.5-10.5-10.5h-50.8
		C175.9,278.3,171.1,283,171.1,288.8z"/>
	<path class="st1" d="M137.9,278.3h-8.7c-11.1,0-21.2-5.1-27.9-13.9c-3.5-4.7-10.1-5.6-14.8-2.1c-4.7,3.5-5.6,10.1-2.1,14.8
		c10.7,14.2,27,22.4,44.7,22.4h8.7c5.8,0,10.5-4.7,10.5-10.5S143.8,278.3,137.9,278.3z"/>
	<path class="st1" d="M383.9,459.7h-50.8c-5.8,0-10.5,4.7-10.5,10.5s4.7,10.5,10.5,10.5h50.8c5.8,0,10.5-4.7,10.5-10.5
		S389.7,459.7,383.9,459.7z"/>
</g>
</svg>
