<?xml version="1.0" encoding="utf-8"?>
<!-- Generator: Adobe Illustrator 21.0.2, SVG Export Plug-In . SVG Version: 6.00 Build 0)  -->
<svg version="1.1" id="Слой_1" xmlns="http://www.w3.org/2000/svg" xmlns:xlink="http://www.w3.org/1999/xlink" x="0px" y="0px"
	 viewBox="0 0 255.2 338.6" style="enable-background:new 0 0 255.2 338.6;" xml:space="preserve">
<style type="text/css">
	.st0{clip-path:url(#SVGID_2_);}
	.st1{fill:#3D4A5A;}
</style>
<title>Ресурс 2</title>
<g id="Слой_2">
	<g id="Слой_1-2">
		<g>
			<g>
				<defs>
					<rect id="SVGID_1_" y="-0.3" width="255.8" height="339.8"/>
				</defs>
				<clipPath id="SVGID_2_">
					<use xlink:href="#SVGID_1_"  style="overflow:visible;"/>
				</clipPath>
				<g class="st0">
					<path class="st1" d="M189.3,41.4c0,3.8-1.1,5.4-2.9,8c-1.1,1.6-2.2,3.2-3,5c-1.4,3,0,6.6,3,7.9c2.9,1.3,6.4,0.1,7.8-2.8
						c0.6-1.1,1.2-2.2,2-3.2c2.1-3.1,5.1-7.3,5.1-14.8s-2.9-11.8-5.1-14.9c-1.8-2.6-2.9-4.1-2.9-8s1.1-5.4,2.9-7.9l0.9-1.3
						c1.9-2.8,1.1-6.5-1.6-8.4c-2.8-1.9-6.5-1.1-8.4,1.6l0,0c-0.3,0.4-0.5,0.8-0.8,1.1c-2.1,3.1-5.1,7.2-5.1,14.8s2.9,11.8,5.1,14.9
						C188.2,36.1,189.3,37.7,189.3,41.4L189.3,41.4z"/>
					<path class="st1" d="M115.6,41.4c0,3.8-1.1,5.4-2.9,8c-1.1,1.6-2.2,3.2-3,5c-1.4,3,0,6.6,3,7.9c2.9,1.3,6.4,0.1,7.8-2.8
						c0.6-1.1,1.2-2.2,2-3.2c2.2-3.1,5.1-7.3,5.1-14.8s-2.9-11.8-5.1-14.9c-1.8-2.6-2.9-4.1-2.9-8s1.1-5.4,2.9-7.9
						c0.3-0.4,0.6-0.9,0.9-1.3c1.9-2.8,1.1-6.5-1.6-8.4c-2.8-1.9-6.5-1.1-8.4,1.6l-0.8,1.1c-2.2,3.1-5.1,7.3-5.1,14.8
						s2.9,11.8,5.1,14.9C114.5,36,115.6,37.6,115.6,41.4z"/>
					<path class="st1" d="M41.9,41.4c0,3.8-1.1,5.4-2.9,8c-1.2,1.6-2.2,3.2-3,5c-1.1,3.1,0.6,6.5,3.7,7.6c2.7,0.9,5.7-0.2,7.1-2.6
						c0.6-1.1,1.2-2.2,2-3.2c2.2-3.1,5.1-7.3,5.1-14.8S51,29.7,48.8,26.6c-1.8-2.6-2.9-4.1-2.9-8s1.1-5.4,2.9-7.9
						c0.3-0.4,0.6-0.9,0.9-1.3c1.9-2.8,1.1-6.5-1.6-8.4s-6.5-1.1-8.4,1.6L39,3.7c-2.2,3.1-5.1,7.3-5.1,14.8s2.9,11.8,5.1,14.9
						C40.8,36.1,41.9,37.6,41.9,41.4L41.9,41.4z"/>
				</g>
			</g>
		</g>
		<path class="st1" d="M239.2,90.2c-6.5,0-12.4,4-14.8,10h-9.6c-3.3,0-6,2.7-6,6s2.7,6,6,6h9.6c3.3,8.2,12.6,12.1,20.8,8.8
			c8.2-3.3,12.1-12.6,8.8-20.8C251.6,94.2,245.7,90.2,239.2,90.2z M239.2,110.2c-2.2,0-4-1.8-4-4s1.8-4,4-4s4,1.8,4,4
			S241.4,110.2,239.2,110.2z"/>
		<path class="st1" d="M235.2,307.8v-9.6c0-3.3-2.7-6-6-6s-6,2.7-6,6v9.6c-8.2,3.3-12.1,12.6-8.8,20.8s12.6,12.1,20.8,8.8
			s12.1-12.6,8.8-20.8C242.4,312.6,239.2,309.4,235.2,307.8z M229.2,326.6c-2.2,0-4-1.8-4-4s1.8-4,4-4s4,1.8,4,4
			S231.4,326.6,229.2,326.6z"/>
		<path class="st1" d="M160.9,112.2h28.9c3.3,0,6-2.7,6-6s-2.7-6-6-6h-28.9c-3.3,0-6,2.7-6,6S157.5,112.2,160.9,112.2z"/>
		<path class="st1" d="M103.6,203.4H74.7c-3.3,0-6,2.7-6,6s2.7,6,6,6h28.9c3.3,0,6-2.7,6-6S106.9,203.4,103.6,203.4L103.6,203.4z"/>
		<path class="st1" d="M109.4,157.8c0,3.3,2.7,6,6,6h28.9c3.3,0,6-2.7,6-6s-2.7-6-6-6h-28.9C112.1,151.8,109.4,154.5,109.4,157.8z"
			/>
		<path class="st1" d="M157.4,203.4h-28.9c-3.3,0-6,2.7-6,6s2.7,6,6,6h28.9c3.3,0,6-2.7,6-6S160.7,203.4,157.4,203.4z"/>
		<path class="st1" d="M226.2,197.1c3.2,1,6.5-0.8,7.5-3.9c3.7-11.6,0.4-24.3-8.5-32.7c-2.5-2.2-6.3-2-8.5,0.4s-2.1,6,0.2,8.3
			c4,3.7,6.2,8.9,6.2,14.4c0,2-0.3,4.1-0.9,6C221.3,192.8,223,196.2,226.2,197.1L226.2,197.1L226.2,197.1z"/>
		<path class="st1" d="M169.2,151.8c-3.3,0-6,2.7-6,6s2.7,6,6,6h28.9c3.3,0,6-2.7,6-6s-2.7-6-6-6H169.2z"/>
		<path class="st1" d="M209.3,202.5c-1.9,0.6-3.9,0.9-5.9,0.9h-21.1c-3.3,0-6,2.7-6,6s2.7,6,6,6h21.1c3.2,0,6.4-0.5,9.4-1.4
			c3.2-1,4.9-4.3,4-7.5C215.8,203.3,212.4,201.6,209.3,202.5L209.3,202.5z"/>
		<path class="st1" d="M220.6,276.9c1.6,2.9,5.3,3.9,8.2,2.3s3.9-5.3,2.3-8.2c0-0.1-0.1-0.1-0.1-0.2c-5.7-9.8-16.2-15.9-27.6-15.9
			h-1.9c-3.3,0-6,2.7-6,6s2.7,6,6,6h1.9C210.5,267,217,270.8,220.6,276.9L220.6,276.9z"/>
		<path class="st1" d="M47.3,106.2c0,3.3,2.7,6,6,6h28.9c3.3,0,6-2.7,6-6s-2.7-6-6-6H53.3C50,100.2,47.3,102.9,47.3,106.2z"/>
		<path class="st1" d="M55.8,209.4c0-3.3-2.7-6-6-6h-18c-4.5,0-8.9,0.9-13,2.8c-3,1.4-4.4,4.9-3,7.9s4.9,4.4,7.9,3
			c2.5-1.1,5.3-1.7,8.1-1.7h18C53.1,215.4,55.8,212.7,55.8,209.4z"/>
		<path class="st1" d="M20,251.1c-5.1-3.7-8-9.6-8-15.9c0-1.2,0.1-2.5,0.3-3.7c0.6-3.3-1.5-6.4-4.8-7s-6.4,1.5-7,4.8
			c-2.2,12,2.6,24.1,12.3,31.4c2.8,1.7,6.5,0.8,8.2-2C22.6,256.3,22.2,253.1,20,251.1z"/>
		<path class="st1" d="M5.4,129.6c3.1,1,6.5-0.7,7.6-3.8l0,0c2.4-7.2,8.7-12.4,16.2-13.4c3.3-0.4,5.6-3.4,5.2-6.7s-3.4-5.6-6.7-5.2
			l0,0c-12.1,1.6-22.1,10-26,21.5C0.6,125.1,2.3,128.5,5.4,129.6C5.5,129.5,5.5,129.5,5.4,129.6L5.4,129.6z"/>
		<path class="st1" d="M69.1,255H40.2c-3.3,0-6,2.7-6,6s2.7,6,6,6h28.9c3.3,0,6-2.7,6-6S72.4,255,69.1,255L69.1,255z"/>
		<path class="st1" d="M122.9,255H94c-3.3,0-6,2.7-6,6s2.7,6,6,6h28.9c3.3,0,6-2.7,6-6S126.2,255,122.9,255z"/>
		<path class="st1" d="M107.1,112.2H136c3.3,0,6-2.7,6-6s-2.7-6-6-6h-28.9c-3.3,0-6,2.7-6,6S103.8,112.2,107.1,112.2z"/>
		<path class="st1" d="M55.6,157.8c0,3.3,2.7,6,6,6h28.9c3.3,0,6-2.7,6-6s-2.7-6-6-6H61.6C58.3,151.8,55.6,154.5,55.6,157.8z"/>
		<path class="st1" d="M36.8,151.8h-5c-6.2,0-12.1-2.9-15.8-7.9c-2-2.6-5.8-3.2-8.4-1.2s-3.2,5.7-1.2,8.4c6,8,15.4,12.7,25.4,12.7h5
			c3.3,0,6-2.7,6-6S40.1,151.8,36.8,151.8L36.8,151.8z"/>
		<path class="st1" d="M176.7,255h-28.9c-3.3,0-6,2.7-6,6s2.7,6,6,6h28.9c3.3,0,6-2.7,6-6S180,255,176.7,255z"/>
	</g>
</g>
</svg>
