<?xml version="1.0" encoding="utf-8"?>
<!-- Generator: Adobe Illustrator 21.0.0, SVG Export Plug-In . SVG Version: 6.00 Build 0)  -->
<svg version="1.1" id="Слой_1" xmlns="http://www.w3.org/2000/svg" xmlns:xlink="http://www.w3.org/1999/xlink" x="0px" y="0px"
	 viewBox="0 0 595.3 621" style="enable-background:new 0 0 595.3 621;" xml:space="preserve">
<style type="text/css">
	.st0{fill:#FFFFFF;}
	.st1{fill:#3D4A5A;}
</style>
<g id="Слой_2">
	<path class="st0" d="M595.3,568c0,15.7-12.7,28.3-28.3,28.3H33.1c-15.7,0-28.3-12.7-28.3-28.3V49.9c0-15.7,12.7-28.3,28.3-28.3
		h533.9c15.7,0,28.3,12.7,28.3,28.3L595.3,568L595.3,568z"/>
</g>
<g id="Layer_1">
	<g>
		<g>
			<path class="st1" d="M586,20.4H9.3c-5.1,0-9.3,4.2-9.3,9.3V149v447.4c0,5.1,4.2,9.3,9.3,9.3H586c5.1,0,9.3-4.2,9.3-9.3V149V29.7
				C595.3,24.5,591.1,20.4,586,20.4z M576.6,587.1h-558V158.3h558L576.6,587.1L576.6,587.1z M576.6,139.7h-558V39h558L576.6,139.7
				L576.6,139.7z"/>
		</g>
	</g>
	<g>
		<g>
			<path class="st1" d="M496.5,60.1H387.1c-5.1,0-9.3,4.2-9.3,9.3c0,5.1,4.2,9.3,9.3,9.3h109.4c5.1,0,9.3-4.2,9.3-9.3
				C505.8,64.3,501.6,60.1,496.5,60.1z"/>
		</g>
	</g>
	<g>
		<g>
			<path class="st1" d="M546.2,60.1h-19.9c-5.1,0-9.3,4.2-9.3,9.3c0,5.1,4.2,9.3,9.3,9.3h19.9c5.1,0,9.3-4.2,9.3-9.3
				C555.5,64.3,551.3,60.1,546.2,60.1z"/>
		</g>
	</g>
	<g>
		<g>
			<path class="st1" d="M307.6,50.2c-21.6,0-39.1,17.6-39.1,39.1s17.6,39.1,39.1,39.1c21.6,0,39.1-17.6,39.1-39.1
				S329.2,50.2,307.6,50.2z M307.6,109.8c-11.3,0-20.5-9.2-20.5-20.5s9.2-20.5,20.5-20.5c11.3,0,20.5,9.2,20.5,20.5
				S318.9,109.8,307.6,109.8z"/>
		</g>
	</g>
	<g>
		<g>
			<path class="st1" d="M198.2,50.2c-21.6,0-39.1,17.6-39.1,39.1s17.6,39.1,39.1,39.1s39.1-17.6,39.1-39.1S219.8,50.2,198.2,50.2z
				 M198.2,109.8c-11.3,0-20.5-9.2-20.5-20.5s9.2-20.5,20.5-20.5s20.5,9.2,20.5,20.5S209.5,109.8,198.2,109.8z"/>
		</g>
	</g>
	<g>
		<g>
			<path class="st1" d="M88.9,50.2c-21.6,0-39.1,17.6-39.1,39.1s17.6,39.1,39.1,39.1c21.6,0,39.1-17.6,39.1-39.1
				S110.4,50.2,88.9,50.2z M88.9,109.8c-11.3,0-20.5-9.2-20.5-20.5s9.2-20.5,20.5-20.5s20.5,9.2,20.5,20.5S100.2,109.8,88.9,109.8z"
				/>
		</g>
	</g>
	<g>
		<g>
			<path class="st1" d="M196.3,285.2c0.2-7.5-2.5-14.6-7.7-20c-5.1-5.4-12.1-8.5-19.5-8.7c-7.4-0.2-14.6,2.5-20,7.7l-94.4,89.5
				c-5.7,5.4-8.8,12.9-8.7,20.7c0.1,7.8,3.5,15.2,9.3,20.4l94.5,84.5c5.1,4.6,11.8,7.1,18.6,7.1c0,0,0,0,0,0
				c7.9,0,15.5-3.4,20.8-9.3c10.3-11.5,9.3-29.2-2.2-39.5l-71.8-64.3l72.4-68.6C193,299.6,196.1,292.7,196.3,285.2z M174.8,291.2
				l-79.8,75.6c-1.9,1.8-2.9,4.3-2.9,6.9c0,2.6,1.2,5.1,3.1,6.8l79.4,71c3.8,3.4,4.2,9.3,0.7,13.2c-1.8,2-4.3,3.1-7,3.1
				c-2.3,0-4.5-0.8-6.2-2.4l-94.4-84.5c-1.9-1.7-3.1-4.2-3.1-6.8c0-2.6,1-5.1,2.9-6.9l94.4-89.5c1.7-1.7,4-2.6,6.4-2.6
				c0.1,0,0.2,0,0.3,0c2.5,0.1,4.8,1.1,6.5,2.9s2.6,4.2,2.6,6.7C177.6,287.2,176.6,289.5,174.8,291.2z"/>
		</g>
	</g>
	<g>
		<g>
			<path class="st1" d="M540.6,353.6l-94.4-89.5c-11.2-10.6-28.9-10.1-39.5,1.1c-10.6,11.2-10.1,28.9,1.1,39.5l72.4,68.6l-71.8,64.3
				c-11.5,10.3-12.5,28-2.2,39.5c5.3,5.9,12.9,9.3,20.8,9.3h0c6.9,0,13.5-2.5,18.6-7.1l94.4-84.5c5.8-5.2,9.2-12.6,9.3-20.4
				C549.4,366.5,546.2,359,540.6,353.6z M527.5,380.9l-94.4,84.5c-1.7,1.5-3.9,2.4-6.2,2.4h0c-2.7,0-5.2-1.1-7-3.1
				c-3.4-3.8-3.1-9.7,0.7-13.2l79.4-71c1.9-1.7,3.1-4.2,3.1-6.8c0-2.6-1-5.1-2.9-6.9l-79.8-75.6c-3.7-3.5-3.9-9.4-0.4-13.2
				c1.8-1.9,4.3-2.9,6.8-2.9c2.3,0,4.6,0.8,6.4,2.5l94.4,89.5c1.9,1.8,2.9,4.3,2.9,6.9v0h0C530.6,376.7,529.5,379.1,527.5,380.9z"/>
		</g>
	</g>
	<g>
		<g>
			<path class="st1" d="M369.4,287.1c-1.9-7.2-6.6-13.2-13-17c0,0,0,0,0,0c-13.4-7.7-30.5-3.1-38.2,10.3l-94.5,164
				c-7.7,13.4-3.1,30.5,10.3,38.2c4.2,2.4,9.1,3.7,13.9,3.7c10,0,19.3-5.4,24.3-14l94.5-164C370.3,301.9,371.3,294.3,369.4,287.1z
				 M350.5,299l-94.4,164c-1.7,2.9-4.8,4.7-8.1,4.7c-1.6,0-3.2-0.4-4.6-1.2c-4.5-2.6-6-8.3-3.4-12.7l94.5-164c1.7-3,4.9-4.7,8.1-4.7
				c1.6,0,3.2,0.4,4.6,1.2c2.2,1.2,3.7,3.2,4.3,5.7C352,294.4,351.7,296.9,350.5,299z"/>
		</g>
	</g>
</g>
</svg>
