<?xml version="1.0" encoding="utf-8"?>
<!-- Generator: Adobe Illustrator 21.0.0, SVG Export Plug-In . SVG Version: 6.00 Build 0)  -->
<svg version="1.1" id="Слой_1" xmlns="http://www.w3.org/2000/svg" xmlns:xlink="http://www.w3.org/1999/xlink" x="0px" y="0px"
	 viewBox="0 0 595.3 636" style="enable-background:new 0 0 595.3 636;" xml:space="preserve">
<style type="text/css">
	.st0{fill:#FFFFFF;}
	.st1{fill:#3D4A5A;}
</style>
<g id="Слой_2">
	<rect x="7.1" y="18.8" class="st0" width="574" height="577.7"/>
</g>
<g id="Layer_1">
	<g>
		<g>
			<path class="st1" d="M580.9,15.4H14.4c-5.2,0-9.4,4.2-9.4,9.4V491v35.1v75.2c0,5.2,4.2,9.4,9.4,9.4h566.5c5.2,0,9.4-4.2,9.4-9.4
				v-75.2V496V24.8C590.3,19.6,586.1,15.4,580.9,15.4z M571.5,591.9H23.8v-56.4h547.7L571.5,591.9L571.5,591.9z M571.5,516.7H23.8
				V494l146.1-207.3L322.6,499c1.6,2.2,4,3.6,6.7,3.9c2.7,0.3,5.4-0.7,7.3-2.5l118.8-111.7l116,111.4V516.7L571.5,516.7z M571.5,474
				l-109.4-105c-3.6-3.5-9.3-3.5-12.9-0.1L331.6,479.3L177.4,264.9c-1.8-2.5-4.6-3.9-7.6-3.9c0,0,0,0,0,0c-3,0-5.9,1.5-7.6,4
				L23.8,461.3V34.2h547.7L571.5,474L571.5,474z"/>
		</g>
	</g>
	<g>
		<g>
			<path class="st1" d="M390.4,195.9c-43.9,0-79.6,35.7-79.6,79.6s35.7,79.6,79.6,79.6c43.9,0,79.6-35.7,79.6-79.6
				C470,231.6,434.3,195.9,390.4,195.9z M390.4,336.2c-33.5,0-60.8-27.3-60.8-60.8s27.3-60.8,60.8-60.8s60.8,27.3,60.8,60.8
				S423.9,336.2,390.4,336.2z"/>
		</g>
	</g>
	<g>
		<g>
			<path class="st1" d="M495.6,80.6c-12,0-22.8,5.4-30.1,13.9c-7.2-8.5-18-13.9-30.1-13.9s-22.8,5.4-30.1,13.9
				c-7.2-8.5-18-13.9-30.1-13.9c-21.8,0-39.5,17.7-39.5,39.5c0,5.2,4.2,9.4,9.4,9.4c5.2,0,9.4-4.2,9.4-9.4
				c0-11.4,9.3-20.7,20.7-20.7c11.4,0,20.7,9.3,20.7,20.7c0,5.2,4.2,9.4,9.4,9.4s9.4-4.2,9.4-9.4c0-11.4,9.3-20.7,20.7-20.7
				s20.7,9.3,20.7,20.7c0,5.2,4.2,9.4,9.4,9.4c5.2,0,9.4-4.2,9.4-9.4c0-11.4,9.3-20.7,20.7-20.7s20.7,9.3,20.7,20.7
				c0,5.2,4.2,9.4,9.4,9.4c5.2,0,9.4-4.2,9.4-9.4C535.1,98.3,517.4,80.6,495.6,80.6z"/>
		</g>
	</g>
	<g>
		<g>
			<path class="st1" d="M169.8,160.8c-12,0-22.8,5.4-30.1,13.9c-7.2-8.5-18-13.9-30.1-13.9c-21.8,0-39.5,17.7-39.5,39.5
				c0,5.2,4.2,9.4,9.4,9.4c5.2,0,9.4-4.2,9.4-9.4c0-11.4,9.3-20.7,20.7-20.7s20.7,9.3,20.7,20.7c0,5.2,4.2,9.4,9.4,9.4
				c5.2,0,9.4-4.2,9.4-9.4c0-11.4,9.3-20.7,20.7-20.7s20.7,9.3,20.7,20.7c0,5.2,4.2,9.4,9.4,9.4c5.2,0,9.4-4.2,9.4-9.4
				C209.3,178.5,191.6,160.8,169.8,160.8z"/>
		</g>
	</g>
</g>
</svg>
