<svg xmlns="http://www.w3.org/2000/svg" xmlns:xlink="http://www.w3.org/1999/xlink" viewBox="0 0 371.88 382.56"><defs><style>.cls-1{fill:none;}.cls-2{clip-path:url(#clip-path);}.cls-3{fill:#ff141f;}</style><clipPath id="clip-path" transform="translate(0 -0.24)"><rect class="cls-1" width="372" height="383.76"/></clipPath></defs><title>like</title><g id="Слой_2" data-name="Слой 2"><g id="Слой_1-2" data-name="Слой 1"><g class="cls-2"><path class="cls-3" d="M360.72,260.32c7.84-10,11.6-20.72,11.12-31.76-.48-12.16-5.92-21.68-10.4-27.52,5.2-13,7.2-33.36-10.16-49.2C338.56,140.24,317,135,287,136.48a251,251,0,0,0-39.36,5h-.08c-4,.72-8.24,1.6-12.56,2.56-.32-5.12.56-17.84,10-46.48C256.24,63.52,255.6,37.44,243,20,229.68,1.68,208.48.24,202.24.24a20.08,20.08,0,0,0-15.44,7c-8.88,10.32-7.84,29.36-6.72,38.16-10.56,28.32-40.16,97.76-65.2,117a8.57,8.57,0,0,0-1.28,1.12,85.87,85.87,0,0,0-15.68,23.52,33,33,0,0,0-15.84-4H33.28A33.31,33.31,0,0,0,0,216.4v130a33.31,33.31,0,0,0,33.28,33.28h48.8a33.22,33.22,0,0,0,19.2-6.08l18.8,2.24c2.88.4,54.08,6.88,106.64,5.84,9.52.72,18.48,1.12,26.8,1.12,14.32,0,26.8-1.12,37.2-3.36,24.48-5.2,41.2-15.6,49.68-30.88a49,49,0,0,0,5.44-30.64c15.92-14.4,18.72-30.32,18.16-41.52a54.1,54.1,0,0,0-3.28-16.08ZM33.28,358.08A11.69,11.69,0,0,1,21.6,346.4V216.32a11.69,11.69,0,0,1,11.68-11.68h48.8a11.7,11.7,0,0,1,11.68,11.68v130A11.7,11.7,0,0,1,82.08,358H33.28ZM340.24,251a10.75,10.75,0,0,0-1.44,13,33.31,33.31,0,0,1,3.68,13.36c.56,10.48-4.48,19.76-15,27.68a10.9,10.9,0,0,0-3.68,12.32c0,.08,3.44,10.64-2.16,20.64-5.36,9.6-17.28,16.48-35.36,20.32-14.48,3.12-34.16,3.68-58.32,1.76H226.8c-51.44,1.12-103.44-5.6-104-5.68h-.08l-8.08-1a33.88,33.88,0,0,0,.72-7V216.32a33.81,33.81,0,0,0-1.52-9.92c1.44-5.36,5.44-17.28,14.88-27.44,35.92-28.48,71-124.56,72.56-128.72a10.16,10.16,0,0,0,.48-5.36c-1.36-9-.88-19.92,1-23.2,4.24.08,15.68,1.28,22.56,10.8,8.16,11.28,7.84,31.44-1,58.16-13.44,40.72-14.56,62.16-3.92,71.6a17.44,17.44,0,0,0,17.44,3.12c4.88-1.12,9.52-2.08,13.92-2.8l1-.24c24.56-5.36,68.56-8.64,83.84,5.28,13,11.84,3.76,27.52,2.72,29.2a10.7,10.7,0,0,0,1.92,13.92c.08.08,8.48,8,8.88,18.64.32,7.12-3,14.4-10,21.6Zm0,0" transform="translate(0 -0.24)"/></g></g></g></svg>