<?xml version="1.0" encoding="utf-8"?>
<!-- Generator: Adobe Illustrator 21.0.0, SVG Export Plug-In . SVG Version: 6.00 Build 0)  -->
<svg version="1.1" id="Слой_1" xmlns="http://www.w3.org/2000/svg" xmlns:xlink="http://www.w3.org/1999/xlink" x="0px" y="0px"
	 viewBox="0 0 322 340" style="enable-background:new 0 0 322 340;" xml:space="preserve">
<style type="text/css">
	.st0{fill:none;stroke:#FF141F;stroke-width:5;stroke-miterlimit:10;}
</style>
<title>markiza</title>
<g id="Слой_2">
	<g id="Слой_1-2">
		<path class="st0" d="M24.1,116.5c2,1.7,4.3,3.1,6.8,4.2v163.4H12.5c-4.5,0-8.2,3.7-8.2,8.2v33.8c0,4.5,3.7,8.2,8.2,8.2h295.6
			c4.5,0,8.2-3.7,8.2-8.2v-33.8c0-4.5-3.7-8.2-8.2-8.2h-18.4V120.7c11.1-5,18.3-16.1,18.3-28.3V12.6c0-4.5-3.7-8.2-8.2-8.2H20.9
			c-4.5,0-8.2,3.7-8.2,8.2l0,0v79.8C12.7,101.9,17,110.7,24.1,116.5 M287.3,102.8c-2.6,2.6-6.3,4.3-10.3,4.3
			c-8.1,0-14.6-6.6-14.6-14.6V20.9h29.3v71.6C291.6,96.5,290,100.1,287.3,102.8 M239.8,103.5c-2.6,2.2-5.9,3.5-9.5,3.5
			c-8.1,0-14.6-6.5-14.6-14.6V20.9H245v71.6C245,96.9,243,100.8,239.8,103.5 M192.1,104.4c-2.4,1.7-5.3,2.7-8.4,2.7
			c-8.1,0-14.6-6.5-14.6-14.6l0-71.6h29.3v71.6C198.3,97.4,195.9,101.7,192.1,104.4 M145.5,104.7c-2.3,1.6-5.1,2.6-8.1,2.7
			c-8.1,0.2-14.8-6.2-15-14.2c0-0.3,0-0.5,0-0.8V20.9h29.2v71.6C151.8,97.5,149.3,102,145.5,104.7 M95.8,106.4c-1.6,0.6-3.3,1-5,1
			c-8.1,0.2-14.8-6.2-15-14.2c0-0.3,0-0.5,0-0.8l0-71.6H105v71.6C105.2,98.7,101.4,104.2,95.8,106.4 M52.7,104.4
			c-2.4,1.8-5.3,2.9-8.5,3c-8.1,0.2-14.8-6.2-15-14.2c0-0.3,0-0.5,0-0.8l0-71.6h29.3v71.6C58.5,97.3,56.3,101.7,52.7,104.4
			 M57.6,120.2c3.6-1.8,6.8-4.2,9.5-7.3c11.3,12.9,30.9,14.2,43.7,2.9c1-0.9,2-1.9,2.9-2.9c11.3,12.9,30.9,14.2,43.7,2.9
			c1-0.9,2-1.9,2.9-2.9c11.3,12.9,30.9,14.2,43.7,2.9c1-0.9,2-1.9,2.9-2.9c11.3,12.9,30.9,14.2,43.7,2.9c1-0.9,2-1.9,2.9-2.9
			c5.1,5.8,12.1,9.5,19.7,10.3v160.8H47.4V123.3C51,122.9,54.4,121.8,57.6,120.2 M40.7,300.5H300v17.4H20.8v-17.4H40.7"/>
		<path class="st0" d="M74,147.3h-2.8c-4.5,0-8.2,3.7-8.2,8.2l0,0v80.8c0,4.5,3.7,8.2,8.2,8.2h0h178.4c4.5,0,8.2-3.7,8.2-8.2v0
			v-80.8c0-4.5-3.7-8.2-8.2-8.2h0v0H74 M79.3,186v-22.2H106v64.3H79.3V186 M122.3,185.7v-21.9h119v64.3h-119V185.7"/>
	</g>
</g>
</svg>
