<?xml version="1.0" encoding="utf-8"?>
<!-- Generator: Adobe Illustrator 21.0.0, SVG Export Plug-In . SVG Version: 6.00 Build 0)  -->
<svg version="1.1" id="Слой_1" xmlns="http://www.w3.org/2000/svg" xmlns:xlink="http://www.w3.org/1999/xlink" x="0px" y="0px"
	 viewBox="0 0 312.1 329.9" style="enable-background:new 0 0 312.1 329.9;" xml:space="preserve">
<style type="text/css">
	.st0{fill:none;stroke:#FF141F;stroke-miterlimit:10;}
</style>
<title>markiza</title>
<g id="Слой_2">
	<g id="Слой_1-2">
		<path class="st0" d="M19.8,112.1c2,1.7,4.3,3.1,6.8,4.2v163.4H8.2c-4.5,0-8.2,3.7-8.2,8.2v33.8c0,4.5,3.7,8.2,8.2,8.2h295.6
			c4.5,0,8.2-3.7,8.2-8.2v-33.8c0-4.5-3.7-8.2-8.2-8.2h-18.4V116.3c11.1-5,18.3-16.1,18.3-28.3V8.2c0-4.5-3.7-8.2-8.2-8.2H16.6
			c-4.5,0-8.2,3.7-8.2,8.2l0,0V88C8.4,97.5,12.7,106.2,19.8,112.1 M283,98.3c-2.6,2.6-6.3,4.3-10.3,4.3c-8.1,0-14.6-6.6-14.6-14.6
			V16.4h29.3V88C287.3,92,285.6,95.7,283,98.3 M235.5,99.1c-2.6,2.2-5.9,3.5-9.5,3.5c-8.1,0-14.6-6.5-14.6-14.6V16.4h29.3V88
			C240.6,92.4,238.6,96.4,235.5,99.1 M187.8,100c-2.4,1.7-5.3,2.7-8.4,2.7c-8.1,0-14.6-6.5-14.6-14.6l0-71.6H194V88
			C194,92.9,191.5,97.3,187.8,100 M141.2,100.3c-2.3,1.6-5.1,2.6-8.1,2.7c-8.1,0.2-14.8-6.2-15-14.2c0-0.3,0-0.5,0-0.8V16.4h29.3V88
			C147.5,93.1,145,97.6,141.2,100.3 M91.5,102c-1.6,0.6-3.3,1-5,1c-8.1,0.2-14.8-6.2-15-14.2c0-0.3,0-0.5,0-0.8l0-71.6h29.3V88
			C100.9,94.3,97,99.8,91.5,102 M48.3,100c-2.4,1.8-5.3,2.9-8.5,3c-8.1,0.2-14.8-6.2-15-14.2c0-0.3,0-0.5,0-0.8l0-71.6h29.3V88
			C54.2,92.9,51.9,97.2,48.3,100 M53.3,115.8c3.6-1.8,6.8-4.2,9.5-7.3c11.3,12.9,30.9,14.2,43.7,2.9c1-0.9,2-1.9,2.9-2.9
			c11.3,12.9,30.9,14.2,43.7,2.9c1-0.9,2-1.9,2.9-2.9c11.3,12.9,30.9,14.2,43.7,2.9c1-0.9,2-1.9,2.9-2.9
			c11.3,12.9,30.9,14.2,43.7,2.9c1-0.9,2-1.9,2.9-2.9c5.1,5.8,12.1,9.5,19.7,10.3v160.8H43.1V118.9
			C46.7,118.4,50.1,117.4,53.3,115.8 M36.3,296.1h259.3v17.4H16.4v-17.4H36.3"/>
		<path class="st0" d="M69.7,142.9h-2.8c-4.5,0-8.2,3.7-8.2,8.2l0,0v80.8c0,4.5,3.7,8.2,8.2,8.2h0h178.4c4.5,0,8.2-3.7,8.2-8.2v0
			v-80.8c0-4.5-3.7-8.2-8.2-8.2h0v0H69.7 M75,181.6v-22.2h26.6v64.3H75V181.6 M118,181.2v-21.9h119v64.3H118V181.2"/>
	</g>
</g>
</svg>
