<?xml version="1.0" encoding="utf-8"?>
<!-- Generator: Adobe Illustrator 16.0.0, SVG Export Plug-In . SVG Version: 6.00 Build 0)  -->
<!DOCTYPE svg PUBLIC "-//W3C//DTD SVG 1.1//EN" "http://www.w3.org/Graphics/SVG/1.1/DTD/svg11.dtd">
<svg version="1.1" id="Capa_1" xmlns="http://www.w3.org/2000/svg" xmlns:xlink="http://www.w3.org/1999/xlink" x="0px" y="0px"
	 width="60.645px" height="60.645px" viewBox="0 0 60.645 60.645" enable-background="new 0 0 60.645 60.645" xml:space="preserve">
<g id="Слой_2">
</g>
<path fill="#FFFFFF" d="M57.822,45.6c0,1.565-1.27,2.835-2.835,2.835H5.381c-1.565,0-2.834-1.27-2.834-2.835V15.506
	c0-1.565,1.269-2.834,2.834-2.834h49.606c1.565,0,2.835,1.269,2.835,2.834V45.6z"/>
<g>
	<g>
		<path fill="#3D4A5A" d="M5.667,14.891l-1.516-1.517c-0.968,0.693-1.604,1.83-1.604,3.117v28.123c0,2.105,1.691,3.82,3.772,3.82
			h32.892l-2.083-2.083H6.319c-0.932,0-1.689-0.779-1.689-1.737v-2.15h28.61l-9.105-9.104H4.63V16.493
			C4.63,15.773,5.058,15.154,5.667,14.891z"/>
		<path fill="#3D4A5A" d="M55.401,46.177l1.503,1.502c0.929-0.695,1.541-1.806,1.541-3.063V16.493c0-2.105-1.692-3.821-3.774-3.821
			H21.897l2.083,2.083h30.69c0.935,0,1.691,0.779,1.691,1.738V33.36H42.584l9.104,9.104h4.674v2.151
			C56.362,45.305,55.967,45.895,55.401,46.177z"/>
		<polygon fill="#3D4A5A" points="8.477,14.755 27.081,33.36 36.186,42.465 40.074,46.353 42.158,48.436 54.366,60.644 
			60.644,54.366 54.71,48.433 52.631,46.353 48.741,42.465 39.639,33.36 21.033,14.755 18.95,12.672 6.278,0 0,6.278 6.394,12.672 
					"/>
	</g>
</g>
<circle fill="none" stroke="#3D4A5A" stroke-width="0.5" stroke-miterlimit="10" cx="43.385" cy="19.76" r="1.813"/>
<circle fill="#3D4A5A" cx="45.197" cy="19.635" r="2.063"/>
</svg>
