<?xml version="1.0" encoding="utf-8"?>
<!-- Generator: Adobe Illustrator 21.0.0, SVG Export Plug-In . SVG Version: 6.00 Build 0)  -->
<svg version="1.1" id="Слой_1" xmlns="http://www.w3.org/2000/svg" xmlns:xlink="http://www.w3.org/1999/xlink" x="0px" y="0px"
	 viewBox="0 0 595.3 568" style="enable-background:new 0 0 595.3 568;" xml:space="preserve">
<style type="text/css">
	.st0{fill:#FFFFFF;}
	.st1{fill:#3D4A5A;}
</style>
<g id="Слой_2">
	<path class="st0" d="M85.1,269.5c0,144.1-12,270,112.5,270c124.5,0,260.5-121.9,260.5-266c0-144.1-136-255.9-260.5-255.9
		C73.1,17.6,85.1,125.4,85.1,269.5z"/>
	<path class="st0" d="M12.1,156.5c0,54.1,47,98,105,98s105-43.9,105-98s2-125-56-125S12.1,102.4,12.1,156.5z"/>
	<ellipse class="st0" cx="124.8" cy="421.8" rx="112.7" ry="97.3"/>
	<polygon class="st0" points="407.1,333.5 515.1,221.3 574.1,115.5 344.1,294.5 	"/>
</g>
<g id="Capa_1">
	<g>
		<path class="st1" d="M155.3,373.7c-8.5-6.7-19.2-10.4-30-10.4c-14.8,0-28.5,6.6-37.7,18c-8,10-11.7,22.5-10.3,35.2
			c1.4,12.8,7.8,24.2,17.9,32.2c8.5,6.7,19.2,10.4,30,10.4c14.8,0,28.5-6.6,37.7-18c8-10,11.7-22.5,10.2-35.2
			C171.8,393.1,165.5,381.7,155.3,373.7z M145.9,427.3c-5,6.2-12.5,9.8-20.6,9.8c-6,0-11.7-2-16.4-5.7c-5.5-4.3-8.9-10.5-9.7-17.4
			c-0.8-6.9,1.2-13.6,5.5-19c5-6.2,12.5-9.8,20.6-9.8c6,0,11.7,2,16.4,5.7c5.5,4.3,8.9,10.5,9.7,17.4
			C152.2,415.2,150.2,421.9,145.9,427.3z"/>
		<path class="st1" d="M348.6,261.2c7.2,0,14.3-1.6,20.8-4.7c11.7-5.6,20.4-15.3,24.6-27.5c4.2-12.1,3.5-25-2.1-36.5
			c-8-16.5-25.1-27.1-43.5-27.1c-7.3,0-14.3,1.6-20.9,4.7c-11.6,5.6-20.4,15.3-24.6,27.4c-4.2,12.1-3.5,25,2.1,36.5
			C313.1,250.5,330.2,261.2,348.6,261.2z M323.7,204.8c2.3-6.6,7-11.8,13.4-14.9c3.6-1.7,7.5-2.6,11.4-2.6
			c10.1,0,19.4,5.8,23.7,14.7c3,6.2,3.4,13.2,1.2,19.7c-2.3,6.6-7,11.9-13.4,14.9c-3.6,1.7-7.4,2.6-11.4,2.6
			c-10.1,0-19.4-5.8-23.8-14.8C321.8,218.2,321.4,211.3,323.7,204.8z"/>
		<path class="st1" d="M229,183.5c3.5,0.8,7.2,1.2,10.8,1.2c22.6,0,41.9-15.3,47-37.2c2.8-12.4,0.7-25.2-6.1-36
			c-6.9-10.9-17.6-18.5-30.2-21.3c-3.5-0.8-7.2-1.2-10.8-1.2c-22.6,0-41.9,15.3-47,37.2c-2.9,12.4-0.7,25.2,6.1,36
			C205.6,173.1,216.4,180.7,229,183.5z M214.1,131.1c2.7-11.9,13.2-20.2,25.5-20.2c2,0,4,0.2,5.9,0.7c6.9,1.6,12.7,5.7,16.4,11.6
			c3.7,5.8,4.9,12.7,3.3,19.4c-2.7,11.7-13.5,20.2-25.6,20.2c-2,0-4-0.2-5.9-0.7c-6.9-1.5-12.7-5.7-16.4-11.6
			C213.7,144.6,212.6,137.8,214.1,131.1z"/>
		<path class="st1" d="M141.7,210.9c10.1-8,16.4-19.4,17.9-32.2c1.4-12.7-2.2-25.2-10.2-35.2c-9.2-11.4-23-18-37.7-18
			c-10.8,0-21.5,3.7-30,10.4c-10.1,8-16.5,19.4-17.9,32.1c-1.4,12.7,2.2,25.3,10.3,35.3c9.2,11.4,23,18,37.7,18
			C122.5,221.3,133.2,217.6,141.7,210.9z M91.1,189.6c-4.4-5.4-6.3-12.2-5.5-19c0.8-6.9,4.2-13,9.7-17.4c4.7-3.7,10.4-5.7,16.4-5.7
			c8.1,0,15.6,3.6,20.6,9.8c4.3,5.4,6.3,12.1,5.5,19c-0.8,6.9-4.2,13.1-9.7,17.4c-4.7,3.7-10.3,5.7-16.3,5.7
			C103.6,199.4,96.1,195.8,91.1,189.6z"/>
		<path class="st1" d="M591.1,103.4c-1.9-1.9-5.3-4.2-10.6-4.2c-6.3,0-22.9,0-124.1,86.1c-2,1.7-4.1,3.5-6.1,5.2
			c-18.1-47.1-49.8-89.2-90.7-119.6C312.6,36.1,256.7,17.7,198,17.6c0,0,0,0,0,0c-39.7,0-87.9,13.9-125.8,36.2
			C25.6,81.2,0,117.7,0,156.8c0,47.2,26.6,66.9,48,82.7c17.4,12.9,31.2,23.1,31.2,45.5c0,22.4-13.8,32.6-31.2,45.5
			c-21.4,15.8-48,35.6-47.9,82.7c0,39.1,25.6,75.6,72.2,103c38,22.3,86.2,36.2,125.9,36.2c0,0,0.1,0,0.1,0
			c72,0,139.7-27.8,190.5-78.2c50.2-49.8,78.2-115.8,78.9-186.2c17.1-19.4,33.6-38.7,48.7-56.9c25.8-31.1,45.7-56.8,59-76.3
			C593,129,600.7,113.1,591.1,103.4z M373.3,458.6c-46.8,46.3-108.9,71.9-175.1,71.9c0,0,0,0-0.1,0c-70.9,0-176.1-49.3-176.1-117.3
			c0-36.1,19-50.2,39.1-65.1c18.8-13.9,40.1-29.7,40.1-63.1c0-33.4-21.3-49.2-40.1-63.1C41,206.9,22,192.9,22,156.8
			c0-41.8,38.4-70.6,61.3-84c34.2-20.1,79.3-33.1,114.7-33.1c0,0,0,0,0,0c54,0,105.3,16.9,148.4,49c39.7,29.5,70.1,71,86.1,117.3
			c-47.7,41.6-99.3,89.6-137.7,128.2c-63.8,8.3-72.5,50.8-78.9,82.1c-5.4,26.6-8.9,39.5-29.5,41.1c-5.1,0.4-9.2,4.2-10,9.2
			c-0.8,5,2,9.9,6.6,11.9c1.3,0.5,32.7,13.4,69.4,13.4c0,0,0,0,0,0c25.6,0,47.5-6.2,65.2-18.4c21.8-15.1,36.6-39,44-71
			c25.1-25.4,53.8-56,82.2-87.6C437.4,369,412.9,419.3,373.3,458.6z M339.7,400.2c-11.6,46.1-40.9,69.5-87.2,69.5c0,0,0,0,0,0
			c-12.2,0-23.9-1.7-33.7-3.7c11.7-12,15.4-29.9,18.6-45.5c6-29.7,11.7-57.8,58.5-64.4L339.7,400.2z M491.4,226.7
			c-43.6,51.9-96.3,110.2-139.7,154.5l-6.7-6.8l-29.6-29.9c39.4-39.2,89.8-85.9,136.9-126.8l0,0c5.5-4.8,10.9-9.5,16.3-14.1
			c54.7-46.6,83.3-66.9,97.9-75.7C557.8,142.6,537.7,171.5,491.4,226.7z"/>
	</g>
</g>
</svg>
