<?xml version="1.0" encoding="utf-8"?>
<!-- Generator: Adobe Illustrator 21.0.0, SVG Export Plug-In . SVG Version: 6.00 Build 0)  -->
<svg version="1.1" id="Слой_1" xmlns="http://www.w3.org/2000/svg" xmlns:xlink="http://www.w3.org/1999/xlink" x="0px" y="0px"
	 viewBox="0 0 411 426" style="enable-background:new 0 0 411 426;" xml:space="preserve">
<style type="text/css">
	.st0{fill:none;stroke:#FF141F;stroke-miterlimit:10;}
</style>
		<path class="st0" d="M45.6,113.8C31.9,124.2,23,140.7,23,159.2v92c0.1,31.5,25.5,56.9,57,57h9v72.3c0,15.7,12.7,28.5,28.5,28.6
			h176.9c15.7,0,28.4-12.8,28.5-28.5v-72.3h10c31.5-0.1,56.9-25.5,57-57v-92c-0.1-31.5-25.5-56.9-57-57v-0.1h-9.9V80.1
			c-0.1-31.5-25.5-56.9-57-57H146.1c-31.5,0.1-56.9,25.5-57,57v22.1H80C67.1,102.2,55.2,106.6,45.6,113.8 M111,75
			c2.5-17.1,17.2-30.3,35-30.3h119.7c19.5,0,35.4,15.9,35.4,35.4v22.1H110.6V80.1C110.6,78.4,110.7,76.7,111,75 M141,261.5h160.2
			v119.3c0,3.8-3.1,6.9-6.9,6.9H117.5c-3.8,0-6.9-3.1-6.9-6.9V261.5H141 M88,123.9h244.8c19.6,0,35.4,15.9,35.4,35.4v92
			c0,19.6-15.9,35.4-35.4,35.4h-9.9v-25.3h14.2c6,0,10.8-4.8,10.8-10.8s-4.8-10.8-10.8-10.8h-264c-6,0-10.8,4.8-10.8,10.8
			s4.8,10.8,10.8,10.8h16v25.3H80c-19.5-0.1-35.4-15.9-35.4-35.4v-92c0-19.5,15.9-35.4,35.4-35.4H88"/>
		<path class="st0" d="M168,293h-31.2c-6,0-10.8,4.8-10.8,10.8c0,6,4.8,10.8,10.8,10.8h137.5c6,0,10.8-4.8,10.8-10.8
			c0-6-4.8-10.8-10.8-10.8H168"/>
		<path class="st0" d="M165,337.2h-27.4c-6,0-10.8,4.8-10.8,10.8c0,6,4.8,10.8,10.8,10.8l0,0h137.5c6,0,10.8-4.8,10.8-10.8
			c0-6-4.8-10.8-10.8-10.8H165"/>
		<path class="st0" d="M315,144.6h-4.3c-6,0-10.8,4.8-10.8,10.8c0,6,4.8,10.8,10.8,10.8c0,0,0,0,0,0h21.9c6,0,10.8-4.8,10.8-10.8
			c0-6-4.8-10.8-10.8-10.8H315"/>
</svg>
