<svg xmlns="http://www.w3.org/2000/svg" viewBox="0 0 366.88 386" fill="#ff141f"><title>printer</title><g id="Слой_2" data-name="Слой 2"><g id="Слой_1-2" data-name="Слой 1"><path d="M309.84,79.12h-9.92V57a57.12,57.12,0,0,0-57-57H123.12a57.12,57.12,0,0,0-57,57V79.12H57a57.12,57.12,0,0,0-57,57v92a57.12,57.12,0,0,0,57,57h9v72.32A28.54,28.54,0,0,0,94.48,386H271.36a28.54,28.54,0,0,0,28.48-28.48V285.2h10a57.12,57.12,0,0,0,57-57v-92a57.12,57.12,0,0,0-57-57ZM87.6,57A35.5,35.5,0,0,1,123,21.6H242.72A35.51,35.51,0,0,1,278.16,57V79.12H87.6ZM278.24,357.68a6.93,6.93,0,0,1-6.88,6.88H94.48a6.93,6.93,0,0,1-6.88-6.88V238.4H278.24Zm67-129.44a35.51,35.51,0,0,1-35.44,35.44h-9.92V238.4h14.24a10.8,10.8,0,1,0,0-21.6h-264a10.8,10.8,0,1,0,0,21.6H66.08v25.28H57A35.51,35.51,0,0,1,21.6,228.24v-92A35.5,35.5,0,0,1,57,100.8h252.8a35.51,35.51,0,0,1,35.44,35.44Zm0,0"/><path d="M113.76,291.52H251.28a10.8,10.8,0,0,0,0-21.6H113.76a10.8,10.8,0,1,0,0,21.6Zm0,0"/><path d="M252.16,314.08H114.56a10.8,10.8,0,0,0,0,21.6H252.08a10.8,10.8,0,0,0,.08-21.6Zm0,0"/><path d="M309.6,121.52H287.68a10.8,10.8,0,1,0,0,21.6H309.6a10.8,10.8,0,0,0,0-21.6Zm0,0"/></g></g></svg>