<?xml version="1.0" encoding="utf-8"?>
<!-- Generator: Adobe Illustrator 21.0.0, SVG Export Plug-In . SVG Version: 6.00 Build 0)  -->
<svg version="1.1" id="Слой_1" xmlns="http://www.w3.org/2000/svg" xmlns:xlink="http://www.w3.org/1999/xlink" x="0px" y="0px"
	 viewBox="0 0 595.3 620" style="enable-background:new 0 0 595.3 620;" xml:space="preserve">
<style type="text/css">
	.st0{fill:#FFFFFF;}
	.st1{fill:#3D4A5A;}
</style>
<g id="Слой_2">
	<path class="st0" d="M595.3,579.3c0,15.7-12.7,28.3-28.3,28.3H28.3C12.7,607.7,0,595,0,579.3V40.7c0-15.7,12.7-28.3,28.3-28.3
		h538.6c15.7,0,28.3,12.7,28.3,28.3L595.3,579.3L595.3,579.3z"/>
</g>
<g id="Capa_1">
	<g>
		<g>
			<path class="st1" d="M569,282.6c14.5,0,26.3,11.8,26.3,26.3s-11.8,26.3-26.3,26.3c-11,0-20.4-6.8-24.3-16.4H349v23h33.7
				c2.6,0,5.1,1,7,2.9l21.3,21.3c3-1.2,6.3-1.9,9.8-1.9c14.5,0,26.3,11.8,26.3,26.3c0,14.5-11.8,26.3-26.3,26.3
				c-14.5,0-26.3-11.8-26.3-26.3c0-3.8,0.8-7.4,2.3-10.7l-18.2-18.2H349v29.6l18.2,18.2c3.3-1.5,6.9-2.3,10.7-2.3
				c14.5,0,26.3,11.8,26.3,26.3s-11.8,26.3-26.3,26.3c-14.5,0-26.3-11.8-26.3-26.3c0-3.5,0.7-6.7,1.9-9.8L332.2,402
				c-1.9-1.8-2.9-4.3-2.9-7v-33.7h-23v195.7c9.6,3.9,16.4,13.3,16.4,24.3c0,14.5-11.8,26.3-26.3,26.3c-14.5,0-26.3-11.8-26.3-26.3
				c0-11,6.8-20.4,16.4-24.3V361.4h-23v86.4c0,2.6-1,5.1-2.9,7l-19.9,19.9c1.8,3.5,2.8,7.5,2.8,11.8c0,14.5-11.8,26.3-26.3,26.3
				c-14.5,0-26.3-11.8-26.3-26.3s11.8-26.3,26.3-26.3c3,0,5.9,0.5,8.6,1.5l17.9-17.9v-82.4h-27.2l-18.2,18.2
				c1.5,3.3,2.3,6.9,2.3,10.7c0,14.5-11.8,26.3-26.3,26.3s-26.3-11.8-26.3-26.3c0-14.5,11.8-26.3,26.3-26.3c3.5,0,6.7,0.7,9.8,1.9
				l21.3-21.3c1.9-1.8,4.4-2.9,7-2.9H244v-23H50.6c-3.9,9.6-13.3,16.4-24.3,16.4C11.8,335.1,0,323.3,0,308.9s11.8-26.3,26.3-26.3
				c11,0,20.4,6.8,24.3,16.4H244v-23h-84.1c-2.6,0-5.1-1-7-2.9L133,253.3c-3.5,1.8-7.5,2.8-11.8,2.8c-14.5,0-26.3-11.8-26.3-26.3
				c0-14.5,11.8-26.3,26.3-26.3c14.5,0,26.3,11.8,26.3,26.3c0,3-0.5,5.9-1.5,8.6l17.9,17.9h80v-80L226,158.4
				c-2.7,0.9-5.6,1.5-8.6,1.5c-14.5,0-26.3-11.8-26.3-26.3s11.8-26.3,26.3-26.3c14.5,0,26.3,11.8,26.3,26.3c0,4.2-1,8.2-2.8,11.8
				l19.9,19.9c1.8,1.8,2.9,4.3,2.9,7v84.1h23V63c-9.6-3.9-16.4-13.3-16.4-24.3c0-14.5,11.8-26.3,26.3-26.3
				c14.5,0,26.3,11.8,26.3,26.3c0,11-6.8,20.4-16.4,24.3v193.4h23V225c0-2.6,1-5.1,2.9-7l21.3-21.3c-1.2-3-1.9-6.3-1.9-9.8
				c0-14.5,11.8-26.3,26.3-26.3c14.5,0,26.3,11.8,26.3,26.3s-11.8,26.3-26.3,26.3c-3.8,0-7.4-0.8-10.7-2.3L349,229.1v27.2h82.4
				l17.9-17.9c-0.9-2.7-1.5-5.6-1.5-8.6c0-14.5,11.8-26.3,26.3-26.3s26.3,11.8,26.3,26.3c0,14.5-11.8,26.3-26.3,26.3
				c-4.2,0-8.2-1-11.8-2.8l-19.9,19.9c-1.8,1.9-4.3,2.9-7,2.9H349v23h195.7C548.6,289.4,558,282.6,569,282.6z M575.6,308.9
				c0-3.6-3-6.6-6.6-6.6c-3.6,0-6.6,2.9-6.6,6.6c0,3.6,2.9,6.6,6.6,6.6C572.6,315.4,575.6,312.5,575.6,308.9z M480.6,229.8
				c0-3.6-3-6.6-6.6-6.6c-3.6,0-6.6,3-6.6,6.6c0,3.6,2.9,6.6,6.6,6.6C477.7,236.4,480.6,233.4,480.6,229.8z M427.3,390.3
				c0-3.6-3-6.6-6.6-6.6c-3.6,0-6.6,2.9-6.6,6.6c0,3.6,2.9,6.6,6.6,6.6C424.3,396.8,427.3,393.9,427.3,390.3z M384.4,187
				c0-3.6-2.9-6.6-6.6-6.6c-3.6,0-6.6,2.9-6.6,6.6s3,6.6,6.6,6.6C381.5,193.5,384.4,190.6,384.4,187z M384.4,433.1
				c0-3.6-2.9-6.6-6.6-6.6c-3.6,0-6.6,2.9-6.6,6.6s3,6.6,6.6,6.6C381.5,439.7,384.4,436.7,384.4,433.1z M329.3,341.7v-23h-23v23
				H329.3z M329.3,299v-23h-23v23H329.3z M303,38.6c0-3.6-2.9-6.6-6.6-6.6c-3.6,0-6.6,2.9-6.6,6.6s3,6.6,6.6,6.6
				C300.1,45.2,303,42.3,303,38.6z M303,581.4c0-3.6-2.9-6.6-6.6-6.6c-3.6,0-6.6,2.9-6.6,6.6s3,6.6,6.6,6.6
				C300.1,588,303,585,303,581.4z M286.6,341.7v-23h-23v23H286.6z M286.6,299v-23h-23v23H286.6z M224,133.6c0-3.6-2.9-6.6-6.6-6.6
				s-6.6,2.9-6.6,6.6s2.9,6.6,6.6,6.6S224,137.3,224,133.6z M224,486.4c0-3.6-2.9-6.6-6.6-6.6s-6.6,2.9-6.6,6.6s2.9,6.6,6.6,6.6
				C221,493,224,490.1,224,486.4z M181.1,390.3c0-3.6-3-6.6-6.6-6.6c-3.6,0-6.6,2.9-6.6,6.6c0,3.6,2.9,6.6,6.6,6.6
				C178.2,396.8,181.1,393.9,181.1,390.3z M127.8,229.8c0-3.6-3-6.6-6.6-6.6c-3.6,0-6.6,3-6.6,6.6c0,3.6,2.9,6.6,6.6,6.6
				C124.8,236.4,127.8,233.4,127.8,229.8z M32.8,308.9c0-3.6-3-6.6-6.6-6.6c-3.6,0-6.6,2.9-6.6,6.6c0,3.6,2.9,6.6,6.6,6.6
				C29.9,315.4,32.8,312.5,32.8,308.9z"/>
		</g>
	</g>
</g>
</svg>
