<?xml version="1.0" encoding="utf-8"?>
<!-- Generator: Adobe Illustrator 21.0.2, SVG Export Plug-In . SVG Version: 6.00 Build 0)  -->
<svg version="1.1" id="Слой_1" xmlns="http://www.w3.org/2000/svg" xmlns:xlink="http://www.w3.org/1999/xlink" x="0px" y="0px"
	 viewBox="0 0 362.8 362.8" style="enable-background:new 0 0 362.8 362.8;" xml:space="preserve">
<style type="text/css">
	.st0{fill:#3D4A5A;}
</style>
<title>Ресурс 1</title>
<g id="Слой_2">
	<g id="Слой_1-2">
		<path class="st0" d="M346.8,164.7c-6.5,0-12.4,4-14.8,10H212.7v-14h52.7c1.6,0,3.1-0.6,4.2-1.8l12.1-12.1c7.9,4,17.6,0.8,21.6-7.1
			c4-7.9,0.8-17.6-7.1-21.6s-17.6-0.8-21.6,7.1c-2,3.9-2.3,8.5-0.8,12.6l-10.9,10.9h-50.2v-16.6l11.1-11.1c8.1,3.6,17.5,0,21.1-8.1
			s0-17.5-8.1-21.1s-17.5,0-21.1,8.1c-1.8,4-1.9,8.5-0.2,12.5l-13,13c-1.1,1.1-1.8,2.6-1.8,4.2v19.1h-14V30.8
			c8.2-3.3,12.1-12.6,8.8-20.8s-12.6-12.1-20.8-8.8s-12.1,12.6-8.8,20.8c1.6,4,4.8,7.2,8.8,8.8v117.9h-14V97.4
			c0-1.6-0.6-3.1-1.8-4.2l-12.1-12.1c4-7.9,0.8-17.6-7.1-21.6s-17.6-0.8-21.6,7.1s-0.8,17.6,7.1,21.6c3.9,2,8.5,2.3,12.6,0.8
			l10.9,10.9v48.8H99.9L89,137.8c3-8.4-1.4-17.5-9.8-20.5s-17.5,1.4-20.5,9.8s1.4,17.5,9.8,20.5c4.1,1.5,8.7,1.2,12.6-0.8l12.1,12.1
			c1.1,1.1,2.6,1.8,4.2,1.8h51.3v14H30.8c-3.3-8.2-12.6-12.1-20.8-8.8s-12.1,12.6-8.8,20.8s12.6,12.1,20.8,8.8
			c4-1.6,7.2-4.8,8.8-8.8h117.9v14h-19.1c-1.6,0-3.1,0.6-4.3,1.8l-13,13c-8.2-3.3-17.5,0.7-20.8,8.9s0.7,17.5,8.9,20.8
			s17.5-0.7,20.8-8.9c1.6-4,1.5-8.5-0.2-12.5l11.1-11.1h16.6v50.2l-10.9,10.9c-8.4-3-17.5,1.4-20.5,9.8s1.4,17.5,9.8,20.5
			s17.5-1.4,20.5-9.8c1.5-4.1,1.2-8.7-0.8-12.6l12.1-12.1c1.1-1.1,1.8-2.6,1.8-4.2v-52.6h14V332c-8.2,3.3-12.1,12.6-8.8,20.8
			s12.6,12.1,20.8,8.8s12.1-12.6,8.8-20.8c-1.6-4-4.8-7.2-8.8-8.8V212.7h14v20.5c0,1.6,0.6,3.1,1.8,4.2l13,13
			c-3.3,8.2,0.7,17.6,8.9,20.9s17.6-0.7,20.9-8.9c3.3-8.2-0.7-17.6-8.9-20.9c-4-1.6-8.6-1.5-12.6,0.2l-11.1-11.1v-18h18l11.1,11.1
			c-0.9,2-1.4,4.3-1.4,6.5c0,8.8,7.2,16,16,16c8.8,0,16-7.2,16-16s-7.2-16-16-16c-2.1,0-4.1,0.4-6,1.2l-13-13
			c-1.1-1.1-2.7-1.8-4.3-1.8h-20.4v-14H332c3.3,8.2,12.6,12.1,20.8,8.8c8.2-3.3,12.1-12.6,8.8-20.8
			C359.2,168.7,353.3,164.7,346.8,164.7L346.8,164.7z M288.9,128.5c2.2,0,4,1.8,4,4s-1.8,4-4,4s-4-1.8-4-4S286.7,128.5,288.9,128.5z
			 M230.3,102.4c2.2,0,4,1.8,4,4s-1.8,4-4,4s-4-1.8-4-4S228.1,102.4,230.3,102.4z M180.7,12c2.2,0,4,1.8,4,4s-1.8,4-4,4s-4-1.8-4-4
			S178.5,12,180.7,12z M128.5,73.9c0-2.2,1.8-4,4-4s4,1.8,4,4s-1.8,4-4,4S128.5,76.1,128.5,73.9z M73.9,136.5c-2.2,0-4-1.8-4-4
			s1.8-4,4-4s4,1.8,4,4S76.1,136.5,73.9,136.5z M16,184.7c-2.2,0-4-1.8-4-4s1.8-4,4-4s4,1.8,4,4S18.2,184.7,16,184.7z M106.4,234.3
			c-2.2,0-4-1.8-4-4s1.8-4,4-4s4,1.8,4,4S108.6,234.3,106.4,234.3z M132.5,292.9c-2.2,0-4-1.8-4-4s1.8-4,4-4s4,1.8,4,4
			S134.7,292.9,132.5,292.9z M180.7,350.8c-2.2,0-4-1.8-4-4s1.8-4,4-4s4,1.8,4,4S182.9,350.8,180.7,350.8z M234.3,256.4
			c0,2.2-1.8,4-4,4s-4-1.8-4-4s1.8-4,4-4S234.3,254.2,234.3,256.4z M260.4,230.3c0,2.2-1.8,4-4,4s-4-1.8-4-4s1.8-4,4-4
			C258.6,226.3,260.4,228.1,260.4,230.3z M200.7,160.7v14h-14v-14H200.7z M160.7,160.7h14v14h-14V160.7z M160.7,200.7v-14h14v14
			H160.7z M200.7,200.7h-14v-14h14V200.7z M346.8,184.7c-2.2,0-4-1.8-4-4s1.8-4,4-4s4,1.8,4,4S349,184.7,346.8,184.7z"/>
	</g>
</g>
</svg>
