<?xml version="1.0" encoding="utf-8"?>
<!-- Generator: Adobe Illustrator 21.0.0, SVG Export Plug-In . SVG Version: 6.00 Build 0)  -->
<svg version="1.1" id="Layer_1" xmlns="http://www.w3.org/2000/svg" xmlns:xlink="http://www.w3.org/1999/xlink" x="0px" y="0px"
	 viewBox="0 0 595.3 616" style="enable-background:new 0 0 595.3 616;" xml:space="preserve">
<style type="text/css">
	.st0{fill:#FFFFFF;}
	.st1{fill:#3D4A5A;}
</style>
<polygon class="st0" points="584.1,599.5 18.1,599.5 223.1,166.5 301.1,26.5 "/>
<g>
	<g>
		<path class="st1" d="M594.3,595.2L450.1,306.9L306,18.5c-1.6-3.2-4.8-5.2-8.3-5.2s-6.8,2-8.3,5.2L145.1,306.9L1,595.2
			c-1.4,2.9-1.3,6.3,0.4,9.1c1.7,2.7,4.7,4.4,7.9,4.4h288.3c0,0,0,0,0,0c0,0,0,0,0,0c0,0,0,0,0,0c0,0,0,0,0,0H586
			c3.2,0,6.2-1.7,7.9-4.4C595.6,601.5,595.7,598.1,594.3,595.2z M297.6,43.6l129.1,258.2H168.6L297.6,43.6z M24.4,590l129.1-258.2
			L282.6,590H24.4z M297.6,578.5L168.6,320.4h258.2L297.6,578.5z M312.7,590l129.1-258.2L570.9,590H312.7z"/>
	</g>
</g>
</svg>
