<?xml version="1.0" encoding="utf-8"?>
<!-- Generator: Adobe Illustrator 16.0.0, SVG Export Plug-In . SVG Version: 6.00 Build 0)  -->
<!DOCTYPE svg PUBLIC "-//W3C//DTD SVG 1.1//EN" "http://www.w3.org/Graphics/SVG/1.1/DTD/svg11.dtd">
<svg version="1.1" id="Слой_1" xmlns="http://www.w3.org/2000/svg" xmlns:xlink="http://www.w3.org/1999/xlink" x="0px" y="0px"
	 width="273.473px" height="237.445px" viewBox="0 0 273.473 237.445" enable-background="new 0 0 273.473 237.445"
	 xml:space="preserve">
<g id="Слой_2">
	<path fill="#FFFFFF" d="M186.976,155.019c0,6.627-5.373,12-12,12H17.306c-6.628,0-12-5.373-12-12V48.199c0-6.627,5.372-12,12-12
		h157.67c6.627,0,12,5.373,12,12V155.019z"/>
	<path fill="#FFFFFF" d="M213.015,75.747c0,6.627-5.373,12-12,12H170.64c-6.629,0-12-5.373-12-12V16.865c0-6.627,5.371-12,12-12
		h30.375c6.627,0,12,5.373,12,12V75.747z"/>
	<path fill="#FFFFFF" d="M260.976,219.879c0,6.627-5.373,12-12,12H111.158c-6.627,0-12-5.373-12-12V126.72c0-6.627,5.373-12,12-12
		h137.818c6.627,0,12,5.374,12,12V219.879z"/>
	<path fill="#FFFFFF" d="M92.796,224.078c0,5.787,4.69,10.479,10.479,10.479h153.221c5.789,0,10.48-4.691,10.48-10.479l0,0
		c0-5.789-4.691-10.479-10.48-10.479H103.275C97.488,213.599,92.796,218.291,92.796,224.078L92.796,224.078z"/>
</g>
<g id="Слой_1_1_">
	<g id="Capa_1" display="none">
		<g display="inline">
			<path fill="#3D4A5A" d="M91.199,19.573c3.029,0,5.49-2.454,5.49-5.49v-5.49c0-3.036-2.461-5.49-5.49-5.49s-5.49,2.454-5.49,5.49
				v5.49C85.707,17.116,88.168,19.573,91.199,19.573z"/>
			<path fill="#3D4A5A" d="M85.707,244.695v5.49c0,3.035,2.461,5.49,5.49,5.49s5.49-2.455,5.49-5.49v-5.49
				c0-3.037-2.461-5.492-5.49-5.492C88.168,239.201,85.707,241.658,85.707,244.695z"/>
			<path fill="#3D4A5A" d="M211.996,134.879c3.029,0,5.49-2.455,5.49-5.49c0-3.037-2.461-5.49-5.49-5.49h-5.49
				c-3.031,0-5.49,2.453-5.49,5.49c0,3.035,2.459,5.49,5.49,5.49H211.996z"/>
			<path fill="#3D4A5A" d="M-29.597,123.898c-3.031,0-5.492,2.453-5.492,5.49c0,3.035,2.461,5.49,5.492,5.49h5.49
				c3.031,0,5.49-2.455,5.49-5.49c0-3.037-2.459-5.49-5.49-5.49H-29.597z"/>
			<path fill="#3D4A5A" d="M172.73,53.34c1.406,0,2.814-0.537,3.883-1.607l3.881-3.882c2.148-2.146,2.148-5.617,0-7.766
				c-2.145-2.146-5.613-2.146-7.764,0l-3.881,3.883c-2.148,2.146-2.148,5.616,0,7.765C169.92,52.808,171.326,53.34,172.73,53.34z"/>
			<path fill="#3D4A5A" d="M5.785,207.037l-3.883,3.883c-2.146,2.145-2.146,5.617,0,7.766c1.07,1.07,2.479,1.605,3.883,1.605
				s2.813-0.535,3.881-1.605l3.885-3.883c2.146-2.146,2.146-5.617,0-7.766C11.401,204.892,7.926,204.892,5.785,207.037z"/>
			<path fill="#3D4A5A" d="M13.549,43.968l-3.883-3.883c-2.146-2.146-5.617-2.146-7.766,0c-2.146,2.146-2.146,5.617,0,7.766
				l3.883,3.882c1.07,1.07,2.477,1.607,3.883,1.607c1.404,0,2.811-0.537,3.883-1.607C15.696,49.59,15.696,46.115,13.549,43.968z"/>
			<path fill="#3D4A5A" d="M91.199-34.671c-90.828,0-164.723,73.896-164.723,164.724S0.371,294.775,91.199,294.775
				c19.637,0,38.869-3.432,57.181-10.207c2.844-1.049,4.295-4.211,3.246-7.051c-1.057-2.854-4.207-4.305-7.059-3.244
				c-17.087,6.314-35.041,9.521-53.369,9.521c-84.771,0-153.742-68.973-153.742-153.742c0-84.771,68.971-153.742,153.742-153.742
				c84.771,0,153.74,68.97,153.74,153.742c0,18.338-3.207,36.289-9.525,53.363c-1.049,2.852,0.4,6.008,3.244,7.057
				c2.846,1.07,6.002-0.396,7.057-3.238c6.775-18.301,10.209-37.535,10.209-57.182C255.922,39.224,182.027-34.671,91.199-34.671z"/>
		</g>
		<g display="inline">
			<path fill="#3D4A5A" d="M175.515,237.824v9.771h39.83v9.361h-39.83v25.039h-13.164v-25.039h-6.785v-9.361h6.785v-9.771h-6.785
				v-11.396h6.785v-43.904h31.145c8.912,0,15.652,0.906,20.223,2.715c4.615,1.766,8.301,4.908,11.061,9.434
				c2.762,4.523,4.143,9.521,4.143,14.994c0,5.521-1.02,10.09-3.057,13.707c-2.035,3.619-4.736,6.504-8.105,8.652
				c-3.371,2.148-7.238,3.652-11.604,4.512c-4.367,0.859-8.879,1.289-13.537,1.289L175.515,237.824L175.515,237.824z
				 M192.615,226.426c3.029,0,5.928-0.238,8.688-0.713c2.758-0.477,5.178-1.348,7.26-2.611c2.08-1.268,3.732-2.977,4.953-5.123
				c1.223-2.148,1.832-4.92,1.832-8.314c0-2.938-0.555-5.428-1.662-7.463c-1.107-2.037-2.623-3.697-4.547-4.986
				c-1.922-1.289-4.172-2.229-6.75-2.816c-2.58-0.586-5.361-0.881-8.348-0.881h-18.523v32.91h17.098V226.426z"/>
		</g>
		<g display="inline">
			<path fill="#3D4A5A" d="M60.178,112.366c0,5.189-0.732,9.856-2.195,14.002c-1.465,4.15-3.602,8.207-6.406,12.172
				c-9.027,12.813-15.924,19.219-20.682,19.219c-1.465,0-2.686-0.549-3.662-1.646c-0.977-1.1-1.463-2.381-1.463-3.844
				c0-1.098,0.486-2.229,1.463-3.387c0.609-0.67,1.922-1.982,3.938-3.938c4.881-4.635,8.754-9.27,11.623-13.908h-0.094
				c-2.379,1.1-5.275,1.646-8.691,1.646c-5.553,0-10.066-2.197-13.545-6.59c-3.172-4.025-4.76-8.907-4.76-14.644
				c0-6.589,2.15-12.094,6.451-16.519c4.303-4.422,9.746-6.634,16.336-6.634c6.953,0,12.385,2.316,16.289,6.953
				C58.377,99.589,60.178,105.291,60.178,112.366z M38.123,99.191c-3.234,0-5.768,1.175-7.598,3.523
				c-1.83,2.348-2.744,5.17-2.744,8.465c0,3.417,0.764,6.162,2.287,8.234c1.707,2.32,4.209,3.48,7.504,3.48
				c3.232,0,5.813-1.037,7.732-3.113c1.922-2.073,2.883-4.727,2.883-7.961c0-3.538-0.764-6.437-2.287-8.694
				C44.073,100.504,41.479,99.191,38.123,99.191z"/>
			<path fill="#3D4A5A" d="M115.358,122.984c0,9.457-1.646,17.205-4.941,23.244c-4.146,7.627-10.555,11.438-19.217,11.438
				c-8.664,0-15.068-3.813-19.219-11.438c-3.293-6.039-4.941-13.787-4.941-23.244c0-9.456,1.617-17.173,4.854-23.152
				c4.146-7.626,10.584-11.438,19.309-11.438s15.16,3.813,19.311,11.438C113.74,105.811,115.358,113.529,115.358,122.984z
				 M103.461,122.939c0-5.928-0.672-10.911-2.014-14.945c-2.074-6.052-5.461-9.077-10.156-9.077c-4.82,0-8.236,2.995-10.25,8.985
				c-1.404,4.035-2.105,9.046-2.105,15.037c0,16.137,4.119,24.205,12.355,24.205c4.758,0,8.145-3.057,10.156-9.168
				C102.789,134.004,103.461,128.99,103.461,122.939z"/>
			<path fill="#3D4A5A" d="M168.617,122.984c0,9.457-1.645,17.205-4.939,23.244c-4.148,7.627-10.557,11.438-19.217,11.438
				c-8.665,0-15.07-3.813-19.22-11.438c-3.293-6.039-4.939-13.787-4.939-23.244c0-9.456,1.616-17.173,4.852-23.152
				c4.146-7.626,10.583-11.438,19.31-11.438c8.723,0,15.16,3.813,19.309,11.438C167,105.811,168.617,113.529,168.617,122.984z
				 M156.72,122.939c0-5.928-0.672-10.911-2.012-14.945c-2.076-6.052-5.461-9.077-10.158-9.077c-4.82,0-8.237,2.995-10.25,8.985
				c-1.404,4.035-2.105,9.046-2.105,15.037c0,16.137,4.119,24.205,12.356,24.205c4.758,0,8.145-3.057,10.158-9.168
				C156.049,134.004,156.72,128.99,156.72,122.939z"/>
		</g>
	</g>
	<g id="Слой_4" display="none">
		<g display="inline">
			<path fill="#3D4A5A" d="M87.162,218.594c-10.305,0-18.688,8.381-18.688,18.688s8.383,18.688,18.688,18.688
				c10.307,0,18.688-8.381,18.688-18.688S97.467,218.594,87.162,218.594z M87.162,245.287c-4.413,0-8.008-3.592-8.008-8.008
				s3.594-8.01,8.008-8.01c4.416,0,8.011,3.594,8.011,8.01C95.171,241.695,91.584,245.287,87.162,245.287z"/>
			<path fill="#3D4A5A" d="M-27.447,66.743l18.875,18.875c1.04,1.041,2.408,1.564,3.772,1.564c1.366,0,2.733-0.524,3.775-1.564
				c2.088-2.088,2.088-5.462,0-7.55l-11.704-11.704c5.878-8.89,5.878-20.556,0-29.446l23.407-23.414
				c8.655,5.758,20.785,5.758,29.453,0l11.702,11.705c2.088,2.087,5.464,2.087,7.551,0c2.088-2.088,2.088-5.462,0-7.551
				l-18.88-18.88l-3.774,3.775c-6.055,6.049-16.601,6.049-22.654,0l-3.773-3.775l-37.756,37.755l3.773,3.774
				c6.242,6.248,6.242,16.407,0,22.654L-27.447,66.743z"/>
			<path fill="#3D4A5A" d="M131.499,104.879c-5.876,8.89-5.876,20.557,0,29.445l-23.405,23.414c-8.667-5.762-20.797-5.762-29.453,0
				l-11.703-11.705c-2.088-2.088-5.463-2.088-7.551,0c-2.087,2.088-2.087,5.463,0,7.551l18.881,18.883l3.772-3.775
				c6.057-6.057,16.603-6.045,22.654,0l3.777,3.775l37.752-37.758l-3.775-3.773c-6.239-6.246-6.239-16.409,0-22.655l3.775-3.772
				l-18.874-18.875c-2.088-2.089-5.461-2.089-7.55,0c-2.088,2.088-2.088,5.462,0,7.55L131.499,104.879z"/>
			<circle fill="#3D4A5A" cx="153.777" cy="119.599" r="5.34"/>
			<circle fill="#3D4A5A" cx="93.368" cy="180.01" r="5.339"/>
			<path fill="#3D4A5A" d="M29.183-4.991c2.087-2.088,4.046-5.468,1.965-7.551c-2.087-2.087-5.467-2.087-7.552,0
				c-2.087,2.088-4.047,5.467-1.964,7.551C23.721-2.909,27.101-2.909,29.183-4.991z"/>
			<circle fill="#3D4A5A" cx="-34.998" cy="51.638" r="5.339"/>
			<path fill="#3D4A5A" d="M175.263,151.849c0-4.697-0.766-9.313-2.205-13.775l18.447-18.447L167.185,95
				c5.035-4.483,8.078-10.943,8.078-17.901c0-13.247-10.781-24.027-24.027-24.027c-0.973,0-1.934,0.097-2.883,0.213
				c0.115-0.949,0.213-1.904,0.213-2.883c0-13.247-10.781-24.026-24.026-24.026c-0.973,0-1.934,0.097-2.884,0.213
				c0.118-0.949,0.215-1.905,0.215-2.882c0-13.248-10.781-24.027-24.027-24.027c-0.973,0-1.932,0.097-2.884,0.214
				c0.116-0.951,0.213-1.906,0.213-2.885c0-13.919-9.279-24.026-22.063-24.026c-6.982,0-14.029,3.021-18.922,7.593l-26.75-27.082
				l-100.23,98.105l49.353,49.356c-2.639,3.854-4.188,8.508-4.188,13.522c0,8.35,4.295,15.708,10.779,20.01
				c0.32,0.428,0.705,0.861,1.207,1.289l57.427,57.211v9.59H31.106v69.412h96.109h42.712v-69.414h-10.676V186.4
				C169.465,177.744,175.263,165.299,175.263,151.849z M-16.956,114.474c0-3.509,1.389-6.68,3.604-9.064l0.816-0.747
				c1.856-1.695,4.091-2.817,6.442-3.289c0.809-0.153,1.631-0.251,2.479-0.251H8.137h41.642c7.36,0,13.352,5.986,13.352,13.351
				c0,0.863-0.098,1.701-0.257,2.523c-1.125,5.618-5.928,10.104-11.854,10.674l-1.585,0.148H18.517H3.418h-7.032
				C-10.965,127.822-16.956,121.838-16.956,114.474z M29.188,55.413c16.653-16.653,43.751-16.653,60.404,0
				c8.068,8.067,12.51,18.801,12.51,30.205s-4.441,22.139-12.51,30.206c-5.366,5.366-12.024,9.125-19.212,11.026
				c0.578-0.955,1.08-1.959,1.521-2.996c0.027-0.064,0.044-0.137,0.075-0.201c0.507-1.225,0.886-2.506,1.188-3.82
				c0.082-0.34,0.149-0.678,0.217-1.02c0.255-1.414,0.437-2.85,0.437-4.34c0-13.248-10.78-24.028-24.026-24.028H16.98
				C15.498,77.533,19.907,64.693,29.188,55.413z M164.584,77.096c0,4.047-1.854,7.807-4.906,10.295l-18.623-18.859
				c2.498-2.974,6.188-4.79,10.182-4.79C158.599,63.747,164.584,69.734,164.584,77.096z M137.888,50.4
				c0,3.968-1.801,7.636-4.743,10.129l-18.623-18.858c2.493-2.866,6.104-4.624,10.017-4.624
				C131.902,37.051,137.888,43.037,137.888,50.4z M111.19,23.703c0,3.881-1.74,7.475-4.575,9.963L87.99,14.812
				c2.487-2.762,6.02-4.453,9.85-4.453C105.205,10.355,111.19,16.34,111.19,23.703z M73.11-16.343
				c7.863,0,11.385,6.707,11.385,13.349c0,3.803-1.677,7.311-4.404,9.793l-18.421-18.65C64.572-14.485,68.929-16.343,73.11-16.343z
				 M27.307-31.443L48.155-10.34l-0.462,1.046l26.698,26.695l3.06,3.061L101.091,44.1l3.059,3.059l23.64,23.64l3.058,3.06
				l26.699,26.696l0.084-0.038l18.828,19.062l-82.998,82.998h-0.178l-64.07-64.072h20.576c0.547,0,1.059-0.123,1.599-0.16
				c2.66,0.404,5.323,0.625,7.977,0.625c14.061,0,27.729-5.543,37.775-15.594c10.087-10.084,15.642-23.491,15.642-37.754
				c0-14.262-5.555-27.674-15.642-37.755c-20.813-20.813-54.69-20.813-75.509,0C10.317,59.18,4.8,74.728,6.254,90.453h-9.862
				c-1.411,0-2.793,0.171-4.165,0.421c-0.442,0.081-0.881,0.166-1.313,0.269c-0.993,0.24-1.965,0.545-2.915,0.907
				c-0.828,0.311-1.616,0.684-2.396,1.084c-0.392,0.203-0.795,0.368-1.175,0.587l-42.031-42.037L27.307-31.443z M50.577,186.47
				c-0.237-0.207-0.49-0.396-0.96-0.746L2.222,138.5h11.889l64.072,64.074h-25.72V188.06L50.577,186.47z M41.78,261.306v-48.053
				h40.994h3.989c0.741,0,1.475,0.057,2.199,0.109l4.398,4.4l2.921-2.92c11.752,3.98,20.24,15.094,20.24,28.17v18.293H41.78
				L41.78,261.306z M159.244,261.306h-32.035v-18.291c0-11.779-5.096-22.367-13.154-29.762h45.189V261.306L159.244,261.306z
				 M108.558,202.574l19.911-19.91l35.759-35.76c0.24,1.635,0.355,3.279,0.355,4.945c0,10.973-5.063,21.076-13.895,27.717
				l-2.125,1.604v21.404H108.558z"/>
		</g>
	</g>
	<g id="Слой_5" display="none">
		<g display="inline">
			<path fill="#3D4A5A" d="M246.824,33.553h-21.35V22.878V-9.148v-21.432c0-8.785-7.146-15.933-15.934-15.933h-21.512
				c-8.785,0-15.934,7.146-15.934,15.933v21.432v32.025v10.676H-73.433v176.142h245.531v12.094l21.35,37.365v9.254
				c0,2.951,2.393,5.338,5.338,5.338c2.947,0,5.338-2.387,5.338-5.338v-9.254l21.352-37.365v-12.094h21.352V33.553H246.824z
				 M214.799,12.203h-32.025V1.527h32.025V12.203z M182.773-30.578c0-2.897,2.359-5.257,5.258-5.257h21.51
				c2.898,0,5.26,2.358,5.26,5.257v21.432h-32.025L182.773-30.578L182.773-30.578z M-62.756,199.019V44.228h234.855v154.791H-62.756
				z M198.785,246.974l-12.15-21.268h24.309L198.785,246.974z M214.799,215.033h-32.025v-5.338V33.553V22.878h32.025v10.676v176.142
				V215.033z M236.148,199.019h-10.674V44.228h10.674V199.019z"/>
			<path fill="#3D4A5A" d="M134.734,92.267h-16.012c-2.946,0-5.338,2.385-5.338,5.337c0,2.951,2.392,5.338,5.338,5.338h16.012
				c2.948,0,5.338-2.387,5.338-5.338S137.681,92.267,134.734,92.267z"/>
			<path fill="#3D4A5A" d="M38.658,81.594h16.014c2.944,0,5.338-2.389,5.338-5.338c0-2.953-2.393-5.337-5.338-5.337H38.658
				c-2.944,0-5.339,2.385-5.339,5.337C33.32,79.204,35.712,81.594,38.658,81.594z"/>
			<path fill="#3D4A5A" d="M134.734,70.916H97.371c-2.944,0-5.338,2.387-5.338,5.339c0,2.949,2.394,5.338,5.338,5.338h37.362
				c2.948,0,5.338-2.389,5.338-5.338C140.072,73.302,137.681,70.916,134.734,70.916z"/>
			<path fill="#3D4A5A" d="M76.022,81.594c1.387,0,2.775-0.587,3.79-1.548c0.959-1.017,1.548-2.402,1.548-3.79
				c0-1.391-0.589-2.781-1.548-3.791c-2.029-1.977-5.604-1.977-7.58,0c-0.961,1.01-1.548,2.399-1.548,3.791
				c0,1.387,0.587,2.773,1.548,3.79C73.246,81.006,74.58,81.594,76.022,81.594z"/>
			<path fill="#3D4A5A" d="M54.67,97.605c0,2.951,2.393,5.338,5.338,5.338h37.36c2.947,0,5.341-2.387,5.341-5.338
				c0-2.952-2.394-5.337-5.341-5.337h-37.36C57.063,92.267,54.67,94.653,54.67,97.605z"/>
			<path fill="#3D4A5A" d="M38.658,102.943c1.39,0,2.774-0.587,3.79-1.548c0.96-1.014,1.548-2.402,1.548-3.79
				c0-1.446-0.588-2.781-1.548-3.79c-2.027-1.975-5.604-1.975-7.581,0c-0.961,1.009-1.548,2.344-1.548,3.79
				c0,1.388,0.587,2.775,1.548,3.79C35.883,102.355,37.217,102.943,38.658,102.943z"/>
			<path fill="#3D4A5A" d="M-14.719,76.794v-5.878c0-2.95-2.391-5.338-5.338-5.338c-2.945,0-5.338,2.388-5.338,5.338v5.897
				c-5.822,1.185-11.128,4.276-15.04,8.903c-3.262,3.854-4.771,8.786-4.237,13.895c0.545,5.228,3.233,10.071,7.381,13.294
				l11.896,9.25v29.027c-6.195-2.211-10.674-8.082-10.674-15.031c0-2.953-2.393-5.338-5.338-5.338c-2.947,0-5.338,2.387-5.338,5.338
				c0,12.885,9.186,23.666,21.35,26.148v4.689c0,2.953,2.393,5.338,5.338,5.338c2.947,0,5.338-2.387,5.338-5.338v-4.707
				c5.823-1.186,11.129-4.275,15.047-8.902c3.264-3.865,4.769-8.797,4.232-13.904c-0.549-5.221-3.234-10.063-7.381-13.279
				l-11.898-9.262V87.908c6.197,2.211,10.676,8.082,10.676,15.032c0,2.952,2.393,5.337,5.34,5.337c2.944,0,5.337-2.386,5.337-5.337
				C6.632,90.057-2.553,79.276-14.719,76.794z M-9.377,134.619c1.862,1.449,3.074,3.631,3.32,5.971
				c0.229,2.188-0.399,4.283-1.768,5.896c-1.857,2.193-4.259,3.73-6.896,4.67v-20.699L-9.377,134.619z M-30.736,104.48
				c-1.869-1.452-3.075-3.635-3.32-5.979c-0.224-2.184,0.4-4.273,1.769-5.893c1.854-2.193,4.259-3.729,6.896-4.671v20.694
				L-30.736,104.48z"/>
			<path fill="#3D4A5A" d="M55.445,131.765c-11.688,6.086-15.628,17.727-17.06,29.795c-2.209-1.854-4.419-3.699-6.624-5.551
				c-5.23-4.381-12.821,3.127-7.547,7.547c4.99,4.186,9.985,8.365,14.978,12.549c3.512,2.945,8.951,1.082,9.111-3.773
				c0.39-11.563,0.935-25.311,12.533-31.35C66.926,137.814,61.535,128.595,55.445,131.765z"/>
			<path fill="#3D4A5A" d="M90.94,153.058c-7.392,1.713-15.805,11.117-21.009,0.563c-3.037-6.156-12.249-0.756-9.218,5.389
				c2.759,5.6,8.007,9.516,14.246,10.307c3.17,0.4,6.034-0.049,9.01-1.207c2.183-0.85,10.34-6.977,12.101-3.828
				c3.351,6,12.574,0.621,9.218-5.385C102.422,153.767,96.619,151.74,90.94,153.058z"/>
		</g>
	</g>
	<g id="Слой_6" display="none">
		<g display="inline">
			<path fill="#3D4A5A" d="M21.801,59.7c1.83-0.835,2.634-2.993,1.796-4.826c-0.838-1.83-2.994-2.643-4.827-1.795
				c-2.523,1.149-4.873,2.661-6.974,4.482c-1.521,1.319-1.686,3.621-0.37,5.141c0.722,0.83,1.738,1.258,2.755,1.258
				c0.845,0,1.697-0.291,2.386-0.89C18.144,61.7,19.904,60.568,21.801,59.7z"/>
			<path fill="#3D4A5A" d="M34.522,57.734h7.285c2.015,0,3.645-1.629,3.645-3.645s-1.63-3.643-3.645-3.643h-7.285
				c-2.015,0-3.643,1.628-3.643,3.643S32.507,57.734,34.522,57.734z"/>
			<path fill="#3D4A5A" d="M56.378,57.734h7.284c2.016,0,3.645-1.629,3.645-3.645s-1.629-3.643-3.645-3.643h-7.284
				c-2.017,0-3.645,1.628-3.645,3.643C52.735,56.104,54.364,57.734,56.378,57.734z"/>
			<path fill="#3D4A5A" d="M41.807,101.447h-7.285c-2.015,0-3.643,1.628-3.643,3.644c0,2.014,1.628,3.644,3.643,3.644h7.285
				c2.015,0,3.644-1.629,3.644-3.644C45.45,103.074,43.822,101.447,41.807,101.447z"/>
			<path fill="#3D4A5A" d="M85.52,101.447h-7.285c-2.015,0-3.643,1.628-3.643,3.644c0,2.014,1.628,3.644,3.643,3.644h7.285
				c2.015,0,3.642-1.629,3.642-3.644C89.162,103.074,87.534,101.447,85.52,101.447z"/>
			<path fill="#3D4A5A" d="M63.664,101.447H56.38c-2.017,0-3.645,1.628-3.645,3.644c0,2.014,1.628,3.644,3.645,3.644h7.284
				c2.016,0,3.645-1.629,3.645-3.644C67.308,103.074,65.678,101.447,63.664,101.447z"/>
			<path fill="#3D4A5A" d="M21.801,99.48c-1.896-0.868-3.653-2-5.229-3.369c-1.521-1.313-3.816-1.15-5.141,0.368
				c-1.315,1.519-1.15,3.821,0.367,5.139c2.103,1.821,4.446,3.33,6.972,4.484c0.493,0.226,1.006,0.331,1.513,0.331
				c1.384,0,2.703-0.79,3.314-2.126C24.432,102.477,23.631,100.314,21.801,99.48z"/>
			<path fill="#3D4A5A" d="M107.376,101.447h-7.285c-2.017,0-3.645,1.628-3.645,3.644c0,2.014,1.629,3.644,3.645,3.644h7.285
				c2.015,0,3.644-1.629,3.644-3.644C111.02,103.074,109.391,101.447,107.376,101.447z"/>
			<path fill="#3D4A5A" d="M172.945,101.447h-7.285c-2.016,0-3.643,1.628-3.643,3.644c0,2.014,1.627,3.644,3.643,3.644h7.285
				c2.018,0,3.645-1.629,3.645-3.644C176.588,103.074,174.961,101.447,172.945,101.447z"/>
			<path fill="#3D4A5A" d="M194.801,101.447h-7.283c-2.018,0-3.646,1.628-3.646,3.644c0,2.014,1.629,3.644,3.646,3.644h7.283
				c2.016,0,3.645-1.629,3.645-3.644C198.445,103.074,196.816,101.447,194.801,101.447z"/>
			<path fill="#3D4A5A" d="M129.233,101.447h-7.285c-2.015,0-3.644,1.628-3.644,3.644c0,2.014,1.629,3.644,3.644,3.644h7.285
				c2.015,0,3.642-1.629,3.642-3.644C132.874,103.074,131.247,101.447,129.233,101.447z"/>
			<path fill="#3D4A5A" d="M151.09,101.447h-7.285c-2.016,0-3.646,1.628-3.646,3.644c0,2.014,1.631,3.644,3.646,3.644h7.285
				c2.014,0,3.643-1.629,3.643-3.644C154.732,103.074,153.103,101.447,151.09,101.447z"/>
			<path fill="#3D4A5A" d="M21.801,208.761c-1.896-0.867-3.653-2-5.229-3.369c-1.521-1.316-3.816-1.15-5.141,0.367
				c-1.315,1.52-1.15,3.82,0.367,5.141c2.103,1.822,4.446,3.33,6.972,4.484c0.493,0.227,1.006,0.332,1.513,0.332
				c1.384,0,2.703-0.793,3.314-2.129C24.432,211.76,23.631,209.595,21.801,208.761z"/>
			<path fill="#3D4A5A" d="M63.664,210.728H56.38c-2.017,0-3.645,1.629-3.645,3.645s1.628,3.643,3.645,3.643h7.284
				c2.016,0,3.645-1.627,3.645-3.643C67.307,212.357,65.678,210.728,63.664,210.728z"/>
			<path fill="#3D4A5A" d="M41.807,210.728h-7.285c-2.015,0-3.643,1.629-3.643,3.645s1.628,3.643,3.643,3.643h7.285
				c2.015,0,3.644-1.627,3.644-3.643S43.822,210.728,41.807,210.728z"/>
			<path fill="#3D4A5A" d="M129.233,210.728h-7.285c-2.015,0-3.644,1.629-3.644,3.645s1.629,3.643,3.644,3.643h7.285
				c2.015,0,3.642-1.627,3.642-3.643C132.872,212.357,131.247,210.728,129.233,210.728z"/>
			<path fill="#3D4A5A" d="M140.16,214.371c0,2.016,1.629,3.643,3.646,3.643h7.285c2.014,0,3.643-1.627,3.643-3.643
				s-1.629-3.645-3.643-3.645h-7.285C141.789,210.728,140.16,212.357,140.16,214.371z"/>
			<path fill="#3D4A5A" d="M165.66,218.013h7.285c2.018,0,3.645-1.627,3.645-3.643s-1.627-3.645-3.645-3.645h-7.285
				c-2.016,0-3.643,1.629-3.643,3.645S163.644,218.013,165.66,218.013z"/>
			<path fill="#3D4A5A" d="M107.376,210.728h-7.285c-2.017,0-3.645,1.629-3.645,3.645s1.629,3.643,3.645,3.643h7.285
				c2.015,0,3.644-1.627,3.644-3.643S109.391,210.728,107.376,210.728z"/>
			<path fill="#3D4A5A" d="M187.517,218.013h7.283c2.016,0,3.645-1.627,3.645-3.643s-1.629-3.645-3.645-3.645h-7.283
				c-2.016,0-3.645,1.629-3.645,3.645S185.502,218.013,187.517,218.013z"/>
			<path fill="#3D4A5A" d="M85.52,210.728h-7.285c-2.015,0-3.643,1.629-3.643,3.645s1.628,3.643,3.643,3.643h7.285
				c2.015,0,3.642-1.627,3.642-3.643C89.162,212.357,87.534,210.728,85.52,210.728z"/>
			<path fill="#3D4A5A" d="M162.017,156.088c0,8.035,6.535,14.57,14.57,14.57s14.568-6.537,14.568-14.57
				c0-8.035-6.533-14.57-14.568-14.57S162.017,148.052,162.017,156.088z M176.588,148.802c4.018,0,7.285,3.268,7.285,7.285
				s-3.27,7.285-7.285,7.285c-4.018,0-7.285-3.268-7.285-7.285C169.302,152.068,172.57,148.802,176.588,148.802z"/>
			<path fill="#3D4A5A" d="M158.164,35.878l-19.803-19.803c-1.614-1.613-4.249-1.613-5.86,0l-7.453,7.453l-7.453-7.453
				c-1.613-1.613-4.246-1.613-5.86,0L91.934,35.878H30.881c-16.067,0-29.144,13.074-29.144,29.143v141.513
				c0,14.363,11.688,26.053,26.055,26.053h192.51v-50.998V130.59V94.161v-7.285V35.878H158.164L158.164,35.878z M135.431,23.449
				l12.43,12.43l50.998,50.999H179.22l-41.041-41.047c-1.542-1.497-3.958-1.493-5.534,0.04L91.644,86.878H72.006l58.193-58.192l0,0
				L135.431,23.449z M168.924,86.876h-66.98l33.487-33.488L168.924,86.876z M114.662,23.449l5.233,5.234L61.706,86.876H51.235
				l50.998-50.999L114.662,23.449z M30.879,43.163h53.766l-7.507,7.507c-1.104,0.357-1.949,1.199-2.306,2.308L40.933,86.876H30.879
				c-12.056,0-21.856-9.804-21.856-21.855C9.023,52.966,18.825,43.163,30.879,43.163z M213.015,174.301h-40.07
				c-10.043,0-18.213-8.17-18.213-18.213c0-10.041,8.17-18.215,18.213-18.215h40.07V174.301z M213.015,101.447h-3.646
				c-2.014,0-3.641,1.628-3.641,3.644c0,2.014,1.627,3.644,3.641,3.644h3.646v21.855h-40.07c-14.057,0-25.5,11.441-25.5,25.5
				c0,14.057,11.443,25.498,25.5,25.498h40.07v29.143h-3.646c-2.014,0-3.641,1.627-3.641,3.643s1.627,3.645,3.641,3.645h3.646v7.285
				H27.789c-10.347,0-18.769-8.416-18.769-18.768v-8.027c0.851-0.91,1.258-2.197,0.878-3.477c-0.582-1.99-0.878-4.061-0.878-6.156
				V89.223c0.851-0.91,1.258-2.196,0.878-3.476c-0.067-0.235-0.095-0.48-0.154-0.719c0.325,0.347,0.657,0.688,1.002,1.015
				c0.313,0.302,0.638,0.591,0.964,0.879c0.409,0.354,0.822,0.7,1.25,1.036c0.343,0.271,0.69,0.528,1.046,0.783
				c0.438,0.317,0.896,0.615,1.354,0.906c0.368,0.233,0.736,0.459,1.115,0.678c0.48,0.274,0.974,0.528,1.468,0.775
				c0.384,0.192,0.768,0.386,1.159,0.561c0.521,0.23,1.053,0.437,1.584,0.637c0.393,0.147,0.783,0.303,1.187,0.434
				c0.57,0.187,1.152,0.335,1.735,0.487c0.387,0.099,0.768,0.216,1.158,0.3c0.659,0.142,1.33,0.235,2.003,0.331
				c0.336,0.048,0.664,0.117,1.002,0.154c1.021,0.107,2.058,0.17,3.103,0.17h13.898h10.301h10.471h10.303h18.053h83.072h18.043
				h10.303h7.699V101.447L213.015,101.447z M209.162,86.876l-29.143-29.143h0.211c2.018,0,3.645-1.628,3.645-3.645
				c0-2.015-1.627-3.643-3.645-3.643h-7.285c-0.063,0-0.111,0.033-0.176,0.037l-7.32-7.321h47.566v43.712h-3.854V86.876z"/>
			<path fill="#3D4A5A" d="M202.088,50.449h-7.287c-2.016,0-3.645,1.629-3.645,3.643c0,2.015,1.629,3.645,3.645,3.645h7.287
				c2.014,0,3.643-1.629,3.643-3.645C205.73,52.075,204.101,50.449,202.088,50.449z"/>
		</g>
	</g>
	<g id="Слой_7" display="none">
		<g display="inline">
			<g>
				<path fill="#3D4A5A" d="M219.539,21.567h-41.246h-12.521c-3.174-11.023-13.24-18.75-24.977-18.75
					c-11.738,0-21.803,7.727-24.979,18.75h-12.52H62.048c-1.942,0-3.519,1.573-3.519,3.516v200.614c0,1.943,1.575,3.518,3.519,3.518
					h157.487c1.943,0,3.52-1.574,3.52-3.518V25.082C223.054,23.139,221.48,21.567,219.539,21.567z M106.811,40.08V28.596h11.801
					c0.02,0,0.033-0.003,0.051-0.003c0.077,0,0.152-0.005,0.229-0.012c0.04-0.003,0.081-0.007,0.121-0.011
					c0.076-0.009,0.149-0.021,0.226-0.033c0.04-0.009,0.082-0.015,0.123-0.021c0.069-0.017,0.14-0.035,0.208-0.055
					c0.042-0.014,0.085-0.022,0.128-0.037c0.064-0.021,0.125-0.046,0.188-0.068c0.046-0.018,0.09-0.034,0.133-0.053
					c0.063-0.026,0.117-0.056,0.174-0.084c0.045-0.022,0.089-0.044,0.132-0.067c0.058-0.031,0.111-0.065,0.164-0.103
					c0.04-0.023,0.081-0.05,0.121-0.076c0.054-0.038,0.107-0.08,0.161-0.12c0.035-0.027,0.07-0.055,0.104-0.083
					c0.054-0.045,0.104-0.093,0.153-0.143c0.03-0.027,0.063-0.057,0.089-0.085c0.054-0.052,0.101-0.104,0.147-0.161
					c0.022-0.029,0.053-0.062,0.078-0.092c0.044-0.056,0.086-0.11,0.127-0.169c0.022-0.036,0.052-0.07,0.073-0.105
					c0.036-0.056,0.069-0.111,0.104-0.169c0.025-0.042,0.051-0.085,0.073-0.131c0.026-0.052,0.053-0.104,0.076-0.158
					s0.05-0.105,0.069-0.159c0.021-0.048,0.037-0.097,0.057-0.146c0.021-0.063,0.043-0.126,0.063-0.189
					c0.015-0.045,0.023-0.091,0.034-0.138c0.017-0.068,0.033-0.138,0.046-0.209c0.003-0.019,0.01-0.035,0.012-0.053
					c1.538-9.164,9.408-15.814,18.715-15.814c9.307,0,17.178,6.65,18.717,15.814c0.002,0.021,0.008,0.038,0.012,0.058
					c0.01,0.058,0.023,0.114,0.037,0.172c0.012,0.052,0.025,0.104,0.039,0.154c0.016,0.056,0.031,0.106,0.051,0.162
					c0.018,0.055,0.037,0.106,0.059,0.158c0.021,0.049,0.039,0.096,0.059,0.142c0.025,0.059,0.055,0.114,0.084,0.171
					c0.02,0.038,0.039,0.078,0.061,0.117c0.035,0.062,0.072,0.121,0.109,0.181c0.021,0.03,0.039,0.063,0.063,0.094
					c0.045,0.067,0.094,0.13,0.145,0.193c0.016,0.021,0.033,0.044,0.049,0.064c0.07,0.081,0.143,0.161,0.217,0.237
					c0,0.001,0.002,0.001,0.002,0.002c0.076,0.075,0.156,0.146,0.236,0.215c0.031,0.026,0.066,0.051,0.1,0.075
					c0.051,0.04,0.104,0.08,0.154,0.116c0.043,0.029,0.086,0.055,0.129,0.082c0.047,0.029,0.094,0.059,0.143,0.086
					c0.047,0.026,0.096,0.05,0.143,0.073c0.049,0.024,0.1,0.05,0.146,0.071s0.098,0.042,0.146,0.062
					c0.055,0.021,0.107,0.042,0.162,0.06c0.049,0.017,0.094,0.031,0.141,0.047c0.064,0.019,0.129,0.033,0.193,0.049
					c0.041,0.01,0.082,0.021,0.123,0.027c0.08,0.017,0.164,0.028,0.248,0.038c0.023,0.004,0.051,0.01,0.078,0.012
					c0.111,0.011,0.227,0.019,0.342,0.019c0.002,0,0.004,0,0.006,0h11.801v11.483v9.608h-67.967V40.08H106.811L106.811,40.08z
					 M103.297,56.72h74.994c1.939,0,3.518-1.574,3.518-3.516v-9.608h19.217v129.837h-32.107c-1.939,0-3.516,1.574-3.516,3.516
					v32.107H80.563V43.596h19.218v9.608C99.781,55.147,101.355,56.72,103.297,56.72z M196.052,180.465l-23.621,23.621v-23.621
					H196.052z M216.025,222.179H65.564V28.596h34.217v7.968H77.049c-1.941,0-3.517,1.574-3.517,3.517v172.491
					c0,1.941,1.574,3.518,3.517,3.518h91.869c0.115,0,0.23-0.01,0.348-0.02c0.055-0.006,0.104-0.016,0.158-0.021
					c0.059-0.01,0.119-0.018,0.182-0.029c0.061-0.01,0.119-0.027,0.176-0.043c0.055-0.012,0.105-0.025,0.158-0.039
					c0.057-0.02,0.111-0.039,0.168-0.063c0.053-0.018,0.104-0.033,0.158-0.057c0.051-0.02,0.102-0.047,0.15-0.072
					c0.055-0.021,0.105-0.047,0.158-0.072c0.049-0.027,0.096-0.059,0.143-0.086c0.053-0.029,0.104-0.061,0.152-0.094
					c0.051-0.033,0.1-0.07,0.15-0.107c0.041-0.031,0.084-0.063,0.125-0.096c0.084-0.066,0.164-0.143,0.24-0.219
					c0.006-0.004,0.012-0.008,0.018-0.014l35.623-35.623c0.004-0.004,0.008-0.01,0.014-0.016c0.076-0.078,0.148-0.158,0.219-0.242
					c0.033-0.043,0.064-0.084,0.096-0.125c0.037-0.053,0.076-0.102,0.109-0.152c0.033-0.049,0.064-0.102,0.096-0.154
					c0.025-0.045,0.057-0.092,0.082-0.141c0.027-0.053,0.055-0.107,0.076-0.162c0.023-0.049,0.051-0.098,0.07-0.148
					c0.021-0.055,0.039-0.105,0.059-0.16c0.021-0.057,0.041-0.109,0.061-0.164c0.016-0.057,0.025-0.109,0.041-0.164
					c0.014-0.057,0.031-0.111,0.041-0.168c0.014-0.064,0.021-0.129,0.027-0.193c0.01-0.049,0.02-0.098,0.021-0.146
					c0.012-0.117,0.02-0.232,0.018-0.352V40.08c0-1.94-1.572-3.517-3.516-3.517h-22.732v-7.968h34.221L216.025,222.179
					L216.025,222.179z"/>
			</g>
		</g>
		<g display="inline">
			<g>
				<path fill="#3D4A5A" d="M140.793,70.314c-24.684,0-44.764,20.081-44.764,44.763c0,24.684,20.08,44.764,44.764,44.764
					c24.684,0,44.764-20.08,44.764-44.764C185.556,90.394,165.476,70.314,140.793,70.314z M140.793,152.81
					c-20.806,0-37.731-16.926-37.731-37.733c0-20.806,16.927-37.731,37.731-37.731c20.807,0,37.732,16.926,37.732,37.731
					C178.527,135.885,161.599,152.81,140.793,152.81z"/>
			</g>
		</g>
		<g display="inline">
			<g>
				<path fill="#3D4A5A" d="M162.029,96.654c-1.373-1.374-3.6-1.374-4.971,0l-30.327,30.326l-8.763-8.764
					c-1.373-1.371-3.6-1.371-4.973,0c-1.373,1.375-1.373,3.6,0,4.973l11.25,11.248c0.688,0.688,1.586,1.031,2.483,1.031
					c0.899,0,1.801-0.346,2.485-1.031l32.812-32.812C163.4,100.253,163.4,98.027,162.029,96.654z"/>
			</g>
		</g>
	</g>
	<g id="Слой_8" display="none">
		<g display="inline">
			<g>
				<path d="M202.595,143.222l-9.768-62.51l6.174-70.376c0.09-1.03-0.256-2.051-0.955-2.813s-1.686-1.196-2.721-1.196h-54.279
					c-1.027,0-2.006,0.427-2.705,1.18c-0.697,0.751-1.051,1.761-0.975,2.783l5.143,68.956c-0.152,0.317-0.262,0.659-0.318,1.021
					l-9.838,62.955c-0.117,0.756,0.004,1.533,0.346,2.217l31.479,62.955c0.625,1.25,1.9,2.037,3.299,2.037s2.674-0.789,3.299-2.037
					l31.479-62.955C202.594,144.756,202.713,143.978,202.595,143.222z M191.301,13.704l-5.566,63.443H149.75l-4.729-63.443H191.301z
					 M167.474,136.166c-5.561,0-10.082-4.52-10.082-10.082c0-5.559,4.521-10.081,10.082-10.081s10.084,4.522,10.084,10.081
					C177.558,131.646,173.035,136.166,167.474,136.166z M171.164,191.117v-47.969c7.861-1.697,13.771-8.703,13.771-17.063
					c0-9.629-7.832-17.46-17.459-17.46s-17.459,7.831-17.459,17.46c0,8.361,5.908,15.365,13.77,17.063v47.969l-23.961-47.922
					l9.166-58.67h36.969l9.166,58.67L171.164,191.117z"/>
			</g>
		</g>
		<g display="inline">
			<g>
				<path d="M240.263,208.955h-19.672c-2.037,0-3.689,1.652-3.689,3.689v6.146h-98.854v-6.146c0-2.037-1.65-3.689-3.688-3.689
					H94.686c-2.036,0-3.688,1.652-3.688,3.689v19.672c0,2.037,1.649,3.689,3.688,3.689h19.674c2.038,0,3.689-1.652,3.689-3.689
					v-6.148h98.853v6.148c0,2.037,1.65,3.689,3.689,3.689h19.672c2.037,0,3.688-1.652,3.688-3.689v-19.672
					C243.953,210.609,242.301,208.955,240.263,208.955z M110.669,228.631H98.373v-12.297h12.296V228.631z M236.574,228.631h-12.295
					v-12.297h12.295V228.631z"/>
			</g>
		</g>
		<g display="inline">
			<g>
				<path d="M257.97,120.429c-2.039,0-3.689,1.65-3.689,3.688c0,47.865-38.941,86.809-86.807,86.809
					c-47.866,0-86.806-38.941-86.806-86.809c0-2.037-1.651-3.688-3.689-3.688c-2.037,0-3.688,1.65-3.688,3.688
					c0,51.934,42.251,94.186,94.185,94.186c51.932,0,94.182-42.252,94.182-94.186C261.658,122.08,260.008,120.429,257.97,120.429z"
					/>
			</g>
		</g>
	</g>
	<g id="Слой_9" display="none">
		<g display="inline">
			<g>
				<g>
					<path fill="#3D4A5A" d="M265.254,43.352h-16.982c-1.559-2.822-3.945-5.179-6.949-6.604L183.594,9.404
						c-9.871-4.675-21.91-4.675-31.781,0L94.094,36.748c-3.01,1.425-5.394,3.777-6.949,6.604H70.156
						c-10.343,0-18.759,8.415-18.759,18.759v135.068c0,10.344,8.416,18.76,18.759,18.76h48.773v15.008h-15.006v7.502h127.562v-7.502
						H216.48v-15.008h48.773c10.344,0,18.76-8.416,18.76-18.76V62.112C284.013,51.767,275.597,43.352,265.254,43.352z
						 M97.302,43.533l57.721-27.344c3.939-1.864,8.326-2.853,12.682-2.853s8.742,0.987,12.684,2.853l57.723,27.344
						c2.814,1.332,4.635,4.206,4.635,7.324s-1.818,5.991-4.635,7.324l-57.723,27.343c-7.879,3.73-17.484,3.73-25.363,0
						L97.304,58.181c-2.814-1.333-4.636-4.206-4.636-7.324S94.488,44.864,97.302,43.533z M180.383,123.041
						c-7.863,3.734-17.488,3.734-25.359,0L97.302,95.697c-2.814-1.332-4.636-4.206-4.636-7.323s1.819-5.99,4.636-7.327l15.375-7.282
						l39.135,18.541c4.938,2.338,10.434,3.571,15.893,3.571s10.955-1.233,15.891-3.571l39.139-18.541l15.369,7.281
						c2.822,1.337,4.641,4.211,4.641,7.328s-1.816,5.991-4.633,7.323L180.383,123.041z M222.732,111.283l15.369,7.283
						c2.822,1.334,4.641,4.209,4.641,7.329c0,3.113-1.816,5.99-4.633,7.326l-57.727,27.342c-7.863,3.729-17.488,3.729-25.359,0
						L97.306,133.22c-2.818-1.336-4.641-4.213-4.641-7.326c0-3.119,1.82-5.994,4.637-7.329l15.375-7.283l39.135,18.539
						c4.934,2.34,10.428,3.576,15.893,3.576c5.467,0,10.959-1.234,15.891-3.576L222.732,111.283z M208.976,230.947h-82.542v-15.008
						h82.542V230.947z M276.51,197.179c0,6.207-5.049,11.256-11.256,11.256H70.156c-6.205,0-11.255-5.049-11.255-11.256v-3.75
						H276.51V197.179z M276.51,185.926H58.902V62.112c0-6.206,5.05-11.255,11.255-11.255h15.01c0,6.003,3.508,11.537,8.93,14.107
						l9.817,4.65l-9.821,4.652c-5.422,2.57-8.926,8.106-8.926,14.106c0,6.005,3.508,11.536,8.93,14.106l9.817,4.653l-9.825,4.65
						c-5.418,2.571-8.922,8.108-8.922,14.108c0,5.998,3.504,11.533,8.93,14.105l57.718,27.34c4.936,2.342,10.43,3.574,15.895,3.574
						c5.467,0,10.959-1.232,15.889-3.574l57.73-27.34c5.42-2.572,8.926-8.107,8.926-14.105c0-6-3.506-11.538-8.932-14.108
						l-9.82-4.65l9.82-4.653c5.422-2.57,8.932-8.104,8.932-14.106c0-6-3.506-11.537-8.932-14.106l-9.82-4.652l9.82-4.65
						c5.422-2.57,8.932-8.104,8.932-14.107h15.006c6.207,0,11.256,5.05,11.256,11.255v123.813H276.51L276.51,185.926z"/>
					<path fill="#3D4A5A" d="M167.705,65.863c10.346,0,18.762-6.73,18.762-15.007c0-8.277-8.416-15.007-18.762-15.007
						c-10.344,0-18.76,6.729-18.76,15.007C148.945,59.133,157.361,65.863,167.705,65.863z M167.705,43.352
						c6.104,0,11.258,3.438,11.258,7.504c0,4.065-5.154,7.503-11.258,7.503c-6.1,0-11.256-3.438-11.256-7.503
						C156.449,46.79,161.605,43.352,167.705,43.352z"/>
					<rect x="193.969" y="47.104" fill="#3D4A5A" width="7.504" height="7.503"/>
					<rect x="208.976" y="47.104" fill="#3D4A5A" width="7.504" height="7.503"/>
					<rect x="133.939" y="47.104" fill="#3D4A5A" width="7.504" height="7.503"/>
					<rect x="118.93" y="47.104" fill="#3D4A5A" width="7.505" height="7.503"/>
				</g>
			</g>
		</g>
	</g>
	<g id="Слой_10">
		<g>
			<g>
				<g>
					<path fill="#3D4A5A" d="M113.658,208.67h131.941c2.445,0,4.428-2.068,4.428-4.621v-74.057c0-2.553-1.98-4.621-4.428-4.621
						H113.658c-2.443,0-4.428,2.068-4.428,4.621v74.055C109.231,206.599,111.213,208.67,113.658,208.67z M118.084,134.615h123.087
						v64.813H118.084V134.615z"/>
					<path fill="#3D4A5A" d="M270,213.599h-6.398v-90.168c0-6.745-5.256-12.23-11.715-12.23h-62.613V94.042h12.545
						c7.402,0,13.424-6.286,13.424-14.015V15.02c0-7.729-6.02-14.016-13.424-14.016h-33.941c-7.402,0-13.424,6.287-13.424,14.016
						v16.792H15.531c-8.037,0-14.576,6.827-14.576,15.219v108.668c0,8.395,6.538,15.219,14.576,15.219h62.794l-3.575,16.762H62.937
						c-2.444,0-4.426,2.066-4.426,4.621c0,2.553,1.979,4.621,4.426,4.621h32.719v16.68h-6.399c-2.444,0-4.429,2.066-4.429,4.621
						c0,11.152,8.693,20.229,19.38,20.229h150.841c10.686,0,19.379-9.076,19.379-20.229
						C274.426,215.666,272.443,213.599,270,213.599z M251.886,120.443c1.578,0,2.859,1.34,2.859,2.988v90.166H104.51V192.32
						c0-0.008,0.001-0.014,0.001-0.021c0-0.01-0.001-0.018-0.001-0.023v-68.842c0-1.648,1.283-2.988,2.859-2.988L251.886,120.443
						L251.886,120.443z M163.306,15.019c0-2.632,2.049-4.772,4.57-4.772h33.939c2.521,0,4.572,2.143,4.572,4.772v2.005h-43.084
						L163.306,15.019L163.306,15.019z M163.306,26.266h43.084v41.281h-43.084V26.266z M163.306,76.789h43.084v3.237
						c0,2.631-2.053,4.772-4.572,4.772h-33.941c-2.521,0-4.57-2.143-4.57-4.772V76.789z M9.809,47.03
						c0-3.296,2.568-5.977,5.725-5.977h138.919v38.974c0,7.729,6.021,14.015,13.426,14.015h12.545v17.159h-73.052
						c-6.459,0-11.715,5.486-11.715,12.23v16.82H9.809V47.03L9.809,47.03z M15.533,161.676c-3.154,0-5.725-2.682-5.725-5.979v-6.203
						h85.848v12.182H15.533L15.533,161.676z M83.821,187.677l3.576-16.762h8.26v16.762H83.821z M255.047,229.207H104.207
						c-4.225,0-7.875-2.609-9.551-6.365h169.939C262.922,226.597,259.271,229.207,255.047,229.207z"/>
				</g>
			</g>
		</g>
	</g>
</g>
</svg>
