<?xml version="1.0" encoding="utf-8"?>
<!-- Generator: Adobe Illustrator 21.0.0, SVG Export Plug-In . SVG Version: 6.00 Build 0)  -->
<svg version="1.1" id="Слой_1" xmlns="http://www.w3.org/2000/svg" xmlns:xlink="http://www.w3.org/1999/xlink" x="0px" y="0px"
	 viewBox="0 0 273.5 237.4" style="enable-background:new 0 0 273.5 237.4;" xml:space="preserve">
<style type="text/css">
	.st0{display:none;}
	.st1{display:inline;}
	.st2{fill:#3D4A5A;}
</style>
<g id="Слой_1_1_">
	<g id="Capa_1" class="st0">
		<g class="st1">
			<path class="st2" d="M91.2,19.6c3,0,5.5-2.5,5.5-5.5V8.6c0-3-2.5-5.5-5.5-5.5s-5.5,2.5-5.5,5.5v5.5
				C85.7,17.1,88.2,19.6,91.2,19.6z"/>
			<path class="st2" d="M85.7,244.7v5.5c0,3,2.5,5.5,5.5,5.5s5.5-2.5,5.5-5.5v-5.5c0-3-2.5-5.5-5.5-5.5
				C88.2,239.2,85.7,241.7,85.7,244.7z"/>
			<path class="st2" d="M212,134.9c3,0,5.5-2.5,5.5-5.5c0-3-2.5-5.5-5.5-5.5h-5.5c-3,0-5.5,2.5-5.5,5.5c0,3,2.5,5.5,5.5,5.5H212z"/>
			<path class="st2" d="M-29.6,123.9c-3,0-5.5,2.5-5.5,5.5c0,3,2.5,5.5,5.5,5.5h5.5c3,0,5.5-2.5,5.5-5.5c0-3-2.5-5.5-5.5-5.5H-29.6z
				"/>
			<path class="st2" d="M172.7,53.3c1.4,0,2.8-0.5,3.9-1.6l3.9-3.9c2.1-2.1,2.1-5.6,0-7.8c-2.1-2.1-5.6-2.1-7.8,0l-3.9,3.9
				c-2.1,2.1-2.1,5.6,0,7.8C169.9,52.8,171.3,53.3,172.7,53.3z"/>
			<path class="st2" d="M5.8,207l-3.9,3.9c-2.1,2.1-2.1,5.6,0,7.8c1.1,1.1,2.5,1.6,3.9,1.6s2.8-0.5,3.9-1.6l3.9-3.9
				c2.1-2.1,2.1-5.6,0-7.8C11.4,204.9,7.9,204.9,5.8,207z"/>
			<path class="st2" d="M13.5,44l-3.9-3.9c-2.1-2.1-5.6-2.1-7.8,0c-2.1,2.1-2.1,5.6,0,7.8l3.9,3.9c1.1,1.1,2.5,1.6,3.9,1.6
				c1.4,0,2.8-0.5,3.9-1.6C15.7,49.6,15.7,46.1,13.5,44z"/>
			<path class="st2" d="M91.2-34.7C0.4-34.7-73.5,39.2-73.5,130.1S0.4,294.8,91.2,294.8c19.6,0,38.9-3.4,57.2-10.2
				c2.8-1,4.3-4.2,3.2-7.1c-1.1-2.9-4.2-4.3-7.1-3.2c-17.1,6.3-35,9.5-53.4,9.5c-84.8,0-153.7-69-153.7-153.7
				c0-84.8,69-153.7,153.7-153.7s153.7,69,153.7,153.7c0,18.3-3.2,36.3-9.5,53.4c-1,2.9,0.4,6,3.2,7.1c2.8,1.1,6-0.4,7.1-3.2
				c6.8-18.3,10.2-37.5,10.2-57.2C255.9,39.2,182-34.7,91.2-34.7z"/>
		</g>
		<g class="st1">
			<path class="st2" d="M175.5,237.8v9.8h39.8v9.4h-39.8v25h-13.2v-25h-6.8v-9.4h6.8v-9.8h-6.8v-11.4h6.8v-43.9h31.1
				c8.9,0,15.7,0.9,20.2,2.7c4.6,1.8,8.3,4.9,11.1,9.4c2.8,4.5,4.1,9.5,4.1,15c0,5.5-1,10.1-3.1,13.7c-2,3.6-4.7,6.5-8.1,8.7
				c-3.4,2.1-7.2,3.7-11.6,4.5c-4.4,0.9-8.9,1.3-13.5,1.3L175.5,237.8L175.5,237.8z M192.6,226.4c3,0,5.9-0.2,8.7-0.7
				c2.8-0.5,5.2-1.3,7.3-2.6c2.1-1.3,3.7-3,5-5.1c1.2-2.1,1.8-4.9,1.8-8.3c0-2.9-0.6-5.4-1.7-7.5c-1.1-2-2.6-3.7-4.5-5
				c-1.9-1.3-4.2-2.2-6.8-2.8c-2.6-0.6-5.4-0.9-8.3-0.9h-18.5v32.9L192.6,226.4L192.6,226.4L192.6,226.4z"/>
		</g>
		<g class="st1">
			<path class="st2" d="M60.2,112.4c0,5.2-0.7,9.9-2.2,14c-1.5,4.1-3.6,8.2-6.4,12.2c-9,12.8-15.9,19.2-20.7,19.2
				c-1.5,0-2.7-0.5-3.7-1.6c-1-1.1-1.5-2.4-1.5-3.8c0-1.1,0.5-2.2,1.5-3.4c0.6-0.7,1.9-2,3.9-3.9c4.9-4.6,8.8-9.3,11.6-13.9h-0.1
				c-2.4,1.1-5.3,1.6-8.7,1.6c-5.6,0-10.1-2.2-13.5-6.6c-3.2-4-4.8-8.9-4.8-14.6c0-6.6,2.1-12.1,6.5-16.5c4.3-4.4,9.7-6.6,16.3-6.6
				c7,0,12.4,2.3,16.3,7C58.4,99.6,60.2,105.3,60.2,112.4z M38.1,99.2c-3.2,0-5.8,1.2-7.6,3.5c-1.8,2.3-2.7,5.2-2.7,8.5
				c0,3.4,0.8,6.2,2.3,8.2c1.7,2.3,4.2,3.5,7.5,3.5c3.2,0,5.8-1,7.7-3.1c1.9-2.1,2.9-4.7,2.9-8c0-3.5-0.8-6.4-2.3-8.7
				C44.1,100.5,41.5,99.2,38.1,99.2z"/>
			<path class="st2" d="M115.4,123c0,9.5-1.6,17.2-4.9,23.2c-4.1,7.6-10.6,11.4-19.2,11.4c-8.7,0-15.1-3.8-19.2-11.4
				c-3.3-6-4.9-13.8-4.9-23.2c0-9.5,1.6-17.2,4.9-23.2c4.1-7.6,10.6-11.4,19.3-11.4s15.2,3.8,19.3,11.4
				C113.7,105.8,115.4,113.5,115.4,123z M103.5,122.9c0-5.9-0.7-10.9-2-14.9c-2.1-6.1-5.5-9.1-10.2-9.1c-4.8,0-8.2,3-10.3,9
				c-1.4,4-2.1,9-2.1,15c0,16.1,4.1,24.2,12.4,24.2c4.8,0,8.1-3.1,10.2-9.2C102.8,134,103.5,129,103.5,122.9z"/>
			<path class="st2" d="M168.6,123c0,9.5-1.6,17.2-4.9,23.2c-4.1,7.6-10.6,11.4-19.2,11.4c-8.7,0-15.1-3.8-19.2-11.4
				c-3.3-6-4.9-13.8-4.9-23.2c0-9.5,1.6-17.2,4.9-23.2c4.1-7.6,10.6-11.4,19.3-11.4c8.7,0,15.2,3.8,19.3,11.4
				C167,105.8,168.6,113.5,168.6,123z M156.7,122.9c0-5.9-0.7-10.9-2-14.9c-2.1-6.1-5.5-9.1-10.2-9.1c-4.8,0-8.2,3-10.3,9
				c-1.4,4-2.1,9-2.1,15c0,16.1,4.1,24.2,12.4,24.2c4.8,0,8.1-3.1,10.2-9.2C156,134,156.7,129,156.7,122.9z"/>
		</g>
	</g>
	<g id="Слой_4" class="st0">
		<g class="st1">
			<path class="st2" d="M87.2,218.6c-10.3,0-18.7,8.4-18.7,18.7S76.9,256,87.2,256c10.3,0,18.7-8.4,18.7-18.7S97.5,218.6,87.2,218.6
				z M87.2,245.3c-4.4,0-8-3.6-8-8s3.6-8,8-8c4.4,0,8,3.6,8,8C95.2,241.7,91.6,245.3,87.2,245.3z"/>
			<path class="st2" d="M-27.4,66.7l18.9,18.9c1,1,2.4,1.6,3.8,1.6c1.4,0,2.7-0.5,3.8-1.6c2.1-2.1,2.1-5.5,0-7.6l-11.7-11.7
				c5.9-8.9,5.9-20.6,0-29.4l23.4-23.4c8.7,5.8,20.8,5.8,29.5,0l11.7,11.7c2.1,2.1,5.5,2.1,7.6,0c2.1-2.1,2.1-5.5,0-7.6L40.5-1.2
				l-3.8,3.8c-6.1,6-16.6,6-22.7,0l-3.8-3.8l-37.8,37.8l3.8,3.8c6.2,6.2,6.2,16.4,0,22.7L-27.4,66.7z"/>
			<path class="st2" d="M131.5,104.9c-5.9,8.9-5.9,20.6,0,29.4l-23.4,23.4c-8.7-5.8-20.8-5.8-29.5,0L66.9,146
				c-2.1-2.1-5.5-2.1-7.6,0c-2.1,2.1-2.1,5.5,0,7.6l18.9,18.9l3.8-3.8c6.1-6.1,16.6-6,22.7,0l3.8,3.8l37.8-37.8l-3.8-3.8
				c-6.2-6.2-6.2-16.4,0-22.7l3.8-3.8l-18.9-18.9c-2.1-2.1-5.5-2.1-7.6,0c-2.1,2.1-2.1,5.5,0,7.6L131.5,104.9z"/>
			<circle class="st2" cx="153.8" cy="119.6" r="5.3"/>
			<circle class="st2" cx="93.4" cy="180" r="5.3"/>
			<path class="st2" d="M29.2-5c2.1-2.1,4-5.5,2-7.6c-2.1-2.1-5.5-2.1-7.6,0c-2.1,2.1-4,5.5-2,7.6C23.7-2.9,27.1-2.9,29.2-5z"/>
			<circle class="st2" cx="-35" cy="51.6" r="5.3"/>
			<path class="st2" d="M175.3,151.8c0-4.7-0.8-9.3-2.2-13.8l18.4-18.4L167.2,95c5-4.5,8.1-10.9,8.1-17.9c0-13.2-10.8-24-24-24
				c-1,0-1.9,0.1-2.9,0.2c0.1-0.9,0.2-1.9,0.2-2.9c0-13.2-10.8-24-24-24c-1,0-1.9,0.1-2.9,0.2c0.1-0.9,0.2-1.9,0.2-2.9
				c0-13.2-10.8-24-24-24c-1,0-1.9,0.1-2.9,0.2c0.1-1,0.2-1.9,0.2-2.9c0-13.9-9.3-24-22.1-24c-7,0-14,3-18.9,7.6L27.4-46.5
				L-72.8,51.6l49.4,49.4c-2.6,3.9-4.2,8.5-4.2,13.5c0,8.3,4.3,15.7,10.8,20c0.3,0.4,0.7,0.9,1.2,1.3L41.8,193v9.6H31.1V272h96.1
				h42.7v-69.4h-10.7v-16.2C169.5,177.7,175.3,165.3,175.3,151.8z M-17,114.5c0-3.5,1.4-6.7,3.6-9.1l0.8-0.7
				c1.9-1.7,4.1-2.8,6.4-3.3c0.8-0.2,1.6-0.3,2.5-0.3H8.1h41.6c7.4,0,13.4,6,13.4,13.4c0,0.9-0.1,1.7-0.3,2.5
				c-1.1,5.6-5.9,10.1-11.9,10.7l-1.6,0.1H18.5H3.4h-7C-11,127.8-17,121.8-17,114.5z M29.2,55.4c16.7-16.7,43.8-16.7,60.4,0
				c8.1,8.1,12.5,18.8,12.5,30.2s-4.4,22.1-12.5,30.2c-5.4,5.4-12,9.1-19.2,11c0.6-1,1.1-2,1.5-3c0-0.1,0-0.1,0.1-0.2
				c0.5-1.2,0.9-2.5,1.2-3.8c0.1-0.3,0.1-0.7,0.2-1c0.3-1.4,0.4-2.8,0.4-4.3c0-13.2-10.8-24-24-24H17C15.5,77.5,19.9,64.7,29.2,55.4
				z M164.6,77.1c0,4-1.9,7.8-4.9,10.3l-18.6-18.9c2.5-3,6.2-4.8,10.2-4.8C158.6,63.7,164.6,69.7,164.6,77.1z M137.9,50.4
				c0,4-1.8,7.6-4.7,10.1l-18.6-18.9c2.5-2.9,6.1-4.6,10-4.6C131.9,37.1,137.9,43,137.9,50.4z M111.2,23.7c0,3.9-1.7,7.5-4.6,10
				L88,14.8c2.5-2.8,6-4.5,9.8-4.5C105.2,10.4,111.2,16.3,111.2,23.7z M73.1-16.3C81-16.3,84.5-9.6,84.5-3c0,3.8-1.7,7.3-4.4,9.8
				L61.7-11.9C64.6-14.5,68.9-16.3,73.1-16.3z M27.3-31.4l20.8,21.1l-0.5,1l26.7,26.7l3.1,3.1l23.6,23.6l3.1,3.1l23.6,23.6l3.1,3.1
				l26.7,26.7l0.1,0l18.8,19.1l-83,83h-0.2l-64.1-64.1h20.6c0.5,0,1.1-0.1,1.6-0.2c2.7,0.4,5.3,0.6,8,0.6c14.1,0,27.7-5.5,37.8-15.6
				c10.1-10.1,15.6-23.5,15.6-37.8c0-14.3-5.6-27.7-15.6-37.8c-20.8-20.8-54.7-20.8-75.5,0C10.3,59.2,4.8,74.7,6.3,90.5h-9.9
				c-1.4,0-2.8,0.2-4.2,0.4C-8.2,91-8.7,91-9.1,91.1c-1,0.2-2,0.5-2.9,0.9c-0.8,0.3-1.6,0.7-2.4,1.1c-0.4,0.2-0.8,0.4-1.2,0.6
				l-42-42L27.3-31.4z M50.6,186.5c-0.2-0.2-0.5-0.4-1-0.7L2.2,138.5h11.9l64.1,64.1H52.5v-14.5L50.6,186.5z M41.8,261.3v-48.1h41h4
				c0.7,0,1.5,0.1,2.2,0.1l4.4,4.4l2.9-2.9c11.8,4,20.2,15.1,20.2,28.2v18.3L41.8,261.3L41.8,261.3z M159.2,261.3h-32V243
				c0-11.8-5.1-22.4-13.2-29.8h45.2V261.3L159.2,261.3z M108.6,202.6l19.9-19.9l35.8-35.8c0.2,1.6,0.4,3.3,0.4,4.9
				c0,11-5.1,21.1-13.9,27.7l-2.1,1.6v21.4H108.6z"/>
		</g>
	</g>
	<g id="Слой_5" class="st0">
		<g class="st1">
			<path class="st2" d="M246.8,33.6h-21.4V22.9v-32v-21.4c0-8.8-7.1-15.9-15.9-15.9H188c-8.8,0-15.9,7.1-15.9,15.9v21.4v32v10.7
				H-73.4v176.1h245.5v12.1l21.4,37.4v9.3c0,3,2.4,5.3,5.3,5.3c2.9,0,5.3-2.4,5.3-5.3v-9.3l21.4-37.4v-12.1h21.4L246.8,33.6
				L246.8,33.6z M214.8,12.2h-32V1.5h32L214.8,12.2L214.8,12.2z M182.8-30.6c0-2.9,2.4-5.3,5.3-5.3h21.5c2.9,0,5.3,2.4,5.3,5.3v21.4
				h-32L182.8-30.6L182.8-30.6z M-62.8,199V44.2h234.9V199H-62.8z M198.8,247l-12.1-21.3h24.3L198.8,247z M214.8,215h-32v-5.3V33.6
				V22.9h32v10.7v176.1L214.8,215L214.8,215z M236.1,199h-10.7V44.2h10.7V199z"/>
			<path class="st2" d="M134.7,92.3h-16c-2.9,0-5.3,2.4-5.3,5.3c0,3,2.4,5.3,5.3,5.3h16c2.9,0,5.3-2.4,5.3-5.3
				S137.7,92.3,134.7,92.3z"/>
			<path class="st2" d="M38.7,81.6h16c2.9,0,5.3-2.4,5.3-5.3c0-3-2.4-5.3-5.3-5.3h-16c-2.9,0-5.3,2.4-5.3,5.3
				C33.3,79.2,35.7,81.6,38.7,81.6z"/>
			<path class="st2" d="M134.7,70.9H97.4c-2.9,0-5.3,2.4-5.3,5.3c0,2.9,2.4,5.3,5.3,5.3h37.4c2.9,0,5.3-2.4,5.3-5.3
				C140.1,73.3,137.7,70.9,134.7,70.9z"/>
			<path class="st2" d="M76,81.6c1.4,0,2.8-0.6,3.8-1.5c1-1,1.5-2.4,1.5-3.8c0-1.4-0.6-2.8-1.5-3.8c-2-2-5.6-2-7.6,0
				c-1,1-1.5,2.4-1.5,3.8c0,1.4,0.6,2.8,1.5,3.8C73.2,81,74.6,81.6,76,81.6z"/>
			<path class="st2" d="M54.7,97.6c0,3,2.4,5.3,5.3,5.3h37.4c2.9,0,5.3-2.4,5.3-5.3c0-3-2.4-5.3-5.3-5.3H60
				C57.1,92.3,54.7,94.7,54.7,97.6z"/>
			<path class="st2" d="M38.7,102.9c1.4,0,2.8-0.6,3.8-1.5c1-1,1.5-2.4,1.5-3.8c0-1.4-0.6-2.8-1.5-3.8c-2-2-5.6-2-7.6,0
				c-1,1-1.5,2.3-1.5,3.8c0,1.4,0.6,2.8,1.5,3.8C35.9,102.4,37.2,102.9,38.7,102.9z"/>
			<path class="st2" d="M-14.7,76.8v-5.9c0-2.9-2.4-5.3-5.3-5.3c-2.9,0-5.3,2.4-5.3,5.3v5.9c-5.8,1.2-11.1,4.3-15,8.9
				c-3.3,3.9-4.8,8.8-4.2,13.9c0.5,5.2,3.2,10.1,7.4,13.3l11.9,9.3v29c-6.2-2.2-10.7-8.1-10.7-15c0-3-2.4-5.3-5.3-5.3
				c-2.9,0-5.3,2.4-5.3,5.3c0,12.9,9.2,23.7,21.4,26.1v4.7c0,3,2.4,5.3,5.3,5.3c2.9,0,5.3-2.4,5.3-5.3v-4.7c5.8-1.2,11.1-4.3,15-8.9
				c3.3-3.9,4.8-8.8,4.2-13.9c-0.5-5.2-3.2-10.1-7.4-13.3l-11.9-9.3v-29C-8.5,90.1-4,96-4,102.9c0,3,2.4,5.3,5.3,5.3
				c2.9,0,5.3-2.4,5.3-5.3C6.6,90.1-2.6,79.3-14.7,76.8z M-9.4,134.6c1.9,1.4,3.1,3.6,3.3,6c0.2,2.2-0.4,4.3-1.8,5.9
				c-1.9,2.2-4.3,3.7-6.9,4.7v-20.7L-9.4,134.6z M-30.7,104.5c-1.9-1.5-3.1-3.6-3.3-6c-0.2-2.2,0.4-4.3,1.8-5.9
				c1.9-2.2,4.3-3.7,6.9-4.7v20.7L-30.7,104.5z"/>
			<path class="st2" d="M55.4,131.8c-11.7,6.1-15.6,17.7-17.1,29.8c-2.2-1.9-4.4-3.7-6.6-5.6c-5.2-4.4-12.8,3.1-7.5,7.5
				c5,4.2,10,8.4,15,12.5c3.5,2.9,9,1.1,9.1-3.8c0.4-11.6,0.9-25.3,12.5-31.4C66.9,137.8,61.5,128.6,55.4,131.8z"/>
			<path class="st2" d="M90.9,153.1c-7.4,1.7-15.8,11.1-21,0.6c-3-6.2-12.2-0.8-9.2,5.4c2.8,5.6,8,9.5,14.2,10.3c3.2,0.4,6,0,9-1.2
				c2.2-0.9,10.3-7,12.1-3.8c3.4,6,12.6,0.6,9.2-5.4C102.4,153.8,96.6,151.7,90.9,153.1z"/>
		</g>
	</g>
	<g id="Слой_6" class="st0">
		<g class="st1">
			<path class="st2" d="M21.8,59.7c1.8-0.8,2.6-3,1.8-4.8c-0.8-1.8-3-2.6-4.8-1.8c-2.5,1.1-4.9,2.7-7,4.5c-1.5,1.3-1.7,3.6-0.4,5.1
				c0.7,0.8,1.7,1.3,2.8,1.3c0.8,0,1.7-0.3,2.4-0.9C18.1,61.7,19.9,60.6,21.8,59.7z"/>
			<path class="st2" d="M34.5,57.7h7.3c2,0,3.6-1.6,3.6-3.6s-1.6-3.6-3.6-3.6h-7.3c-2,0-3.6,1.6-3.6,3.6S32.5,57.7,34.5,57.7z"/>
			<path class="st2" d="M56.4,57.7h7.3c2,0,3.6-1.6,3.6-3.6s-1.6-3.6-3.6-3.6h-7.3c-2,0-3.6,1.6-3.6,3.6
				C52.7,56.1,54.4,57.7,56.4,57.7z"/>
			<path class="st2" d="M41.8,101.4h-7.3c-2,0-3.6,1.6-3.6,3.6c0,2,1.6,3.6,3.6,3.6h7.3c2,0,3.6-1.6,3.6-3.6
				C45.5,103.1,43.8,101.4,41.8,101.4z"/>
			<path class="st2" d="M85.5,101.4h-7.3c-2,0-3.6,1.6-3.6,3.6c0,2,1.6,3.6,3.6,3.6h7.3c2,0,3.6-1.6,3.6-3.6
				C89.2,103.1,87.5,101.4,85.5,101.4z"/>
			<path class="st2" d="M63.7,101.4h-7.3c-2,0-3.6,1.6-3.6,3.6c0,2,1.6,3.6,3.6,3.6h7.3c2,0,3.6-1.6,3.6-3.6
				C67.3,103.1,65.7,101.4,63.7,101.4z"/>
			<path class="st2" d="M21.8,99.5c-1.9-0.9-3.7-2-5.2-3.4c-1.5-1.3-3.8-1.2-5.1,0.4c-1.3,1.5-1.1,3.8,0.4,5.1
				c2.1,1.8,4.4,3.3,7,4.5c0.5,0.2,1,0.3,1.5,0.3c1.4,0,2.7-0.8,3.3-2.1C24.4,102.5,23.6,100.3,21.8,99.5z"/>
			<path class="st2" d="M107.4,101.4h-7.3c-2,0-3.6,1.6-3.6,3.6c0,2,1.6,3.6,3.6,3.6h7.3c2,0,3.6-1.6,3.6-3.6
				C111,103.1,109.4,101.4,107.4,101.4z"/>
			<path class="st2" d="M172.9,101.4h-7.3c-2,0-3.6,1.6-3.6,3.6c0,2,1.6,3.6,3.6,3.6h7.3c2,0,3.6-1.6,3.6-3.6
				C176.6,103.1,175,101.4,172.9,101.4z"/>
			<path class="st2" d="M194.8,101.4h-7.3c-2,0-3.6,1.6-3.6,3.6c0,2,1.6,3.6,3.6,3.6h7.3c2,0,3.6-1.6,3.6-3.6
				C198.4,103.1,196.8,101.4,194.8,101.4z"/>
			<path class="st2" d="M129.2,101.4h-7.3c-2,0-3.6,1.6-3.6,3.6c0,2,1.6,3.6,3.6,3.6h7.3c2,0,3.6-1.6,3.6-3.6
				C132.9,103.1,131.2,101.4,129.2,101.4z"/>
			<path class="st2" d="M151.1,101.4h-7.3c-2,0-3.6,1.6-3.6,3.6c0,2,1.6,3.6,3.6,3.6h7.3c2,0,3.6-1.6,3.6-3.6
				C154.7,103.1,153.1,101.4,151.1,101.4z"/>
			<path class="st2" d="M21.8,208.8c-1.9-0.9-3.7-2-5.2-3.4c-1.5-1.3-3.8-1.1-5.1,0.4c-1.3,1.5-1.1,3.8,0.4,5.1
				c2.1,1.8,4.4,3.3,7,4.5c0.5,0.2,1,0.3,1.5,0.3c1.4,0,2.7-0.8,3.3-2.1C24.4,211.8,23.6,209.6,21.8,208.8z"/>
			<path class="st2" d="M63.7,210.7h-7.3c-2,0-3.6,1.6-3.6,3.6s1.6,3.6,3.6,3.6h7.3c2,0,3.6-1.6,3.6-3.6
				C67.3,212.4,65.7,210.7,63.7,210.7z"/>
			<path class="st2" d="M41.8,210.7h-7.3c-2,0-3.6,1.6-3.6,3.6s1.6,3.6,3.6,3.6h7.3c2,0,3.6-1.6,3.6-3.6S43.8,210.7,41.8,210.7z"/>
			<path class="st2" d="M129.2,210.7h-7.3c-2,0-3.6,1.6-3.6,3.6s1.6,3.6,3.6,3.6h7.3c2,0,3.6-1.6,3.6-3.6
				C132.9,212.4,131.2,210.7,129.2,210.7z"/>
			<path class="st2" d="M140.2,214.4c0,2,1.6,3.6,3.6,3.6h7.3c2,0,3.6-1.6,3.6-3.6s-1.6-3.6-3.6-3.6h-7.3
				C141.8,210.7,140.2,212.4,140.2,214.4z"/>
			<path class="st2" d="M165.7,218h7.3c2,0,3.6-1.6,3.6-3.6s-1.6-3.6-3.6-3.6h-7.3c-2,0-3.6,1.6-3.6,3.6S163.6,218,165.7,218z"/>
			<path class="st2" d="M107.4,210.7h-7.3c-2,0-3.6,1.6-3.6,3.6s1.6,3.6,3.6,3.6h7.3c2,0,3.6-1.6,3.6-3.6S109.4,210.7,107.4,210.7z"
				/>
			<path class="st2" d="M187.5,218h7.3c2,0,3.6-1.6,3.6-3.6s-1.6-3.6-3.6-3.6h-7.3c-2,0-3.6,1.6-3.6,3.6S185.5,218,187.5,218z"/>
			<path class="st2" d="M85.5,210.7h-7.3c-2,0-3.6,1.6-3.6,3.6s1.6,3.6,3.6,3.6h7.3c2,0,3.6-1.6,3.6-3.6S87.5,210.7,85.5,210.7z"/>
			<path class="st2" d="M162,156.1c0,8,6.5,14.6,14.6,14.6s14.6-6.5,14.6-14.6c0-8-6.5-14.6-14.6-14.6S162,148.1,162,156.1z
				 M176.6,148.8c4,0,7.3,3.3,7.3,7.3s-3.3,7.3-7.3,7.3c-4,0-7.3-3.3-7.3-7.3C169.3,152.1,172.6,148.8,176.6,148.8z"/>
			<path class="st2" d="M158.2,35.9l-19.8-19.8c-1.6-1.6-4.2-1.6-5.9,0l-7.5,7.5l-7.5-7.5c-1.6-1.6-4.2-1.6-5.9,0L91.9,35.9H30.9
				C14.8,35.9,1.7,49,1.7,65v141.5c0,14.4,11.7,26.1,26.1,26.1h192.5v-51v-51V94.2v-7.3v-51H158.2L158.2,35.9z M135.4,23.4
				l12.4,12.4l51,51h-19.6l-41-41c-1.5-1.5-4-1.5-5.5,0l-41,41H72l58.2-58.2l0,0L135.4,23.4z M168.9,86.9h-67l33.5-33.5L168.9,86.9z
				 M114.7,23.4l5.2,5.2L61.7,86.9H51.2l51-51L114.7,23.4z M30.9,43.2h53.8l-7.5,7.5C76,51,75.2,51.9,74.8,53L40.9,86.9H30.9
				C18.8,86.9,9,77.1,9,65C9,53,18.8,43.2,30.9,43.2z M213,174.3h-40.1c-10,0-18.2-8.2-18.2-18.2c0-10,8.2-18.2,18.2-18.2H213
				L213,174.3L213,174.3z M213,101.4h-3.6c-2,0-3.6,1.6-3.6,3.6c0,2,1.6,3.6,3.6,3.6h3.6v21.9h-40.1c-14.1,0-25.5,11.4-25.5,25.5
				c0,14.1,11.4,25.5,25.5,25.5H213v29.1h-3.6c-2,0-3.6,1.6-3.6,3.6s1.6,3.6,3.6,3.6h3.6v7.3H27.8c-10.3,0-18.8-8.4-18.8-18.8v-8
				c0.9-0.9,1.3-2.2,0.9-3.5C9.3,193,9,191,9,188.9V89.2c0.9-0.9,1.3-2.2,0.9-3.5c-0.1-0.2-0.1-0.5-0.2-0.7c0.3,0.3,0.7,0.7,1,1
				c0.3,0.3,0.6,0.6,1,0.9c0.4,0.4,0.8,0.7,1.3,1c0.3,0.3,0.7,0.5,1,0.8c0.4,0.3,0.9,0.6,1.4,0.9c0.4,0.2,0.7,0.5,1.1,0.7
				c0.5,0.3,1,0.5,1.5,0.8c0.4,0.2,0.8,0.4,1.2,0.6c0.5,0.2,1.1,0.4,1.6,0.6c0.4,0.1,0.8,0.3,1.2,0.4c0.6,0.2,1.2,0.3,1.7,0.5
				c0.4,0.1,0.8,0.2,1.2,0.3c0.7,0.1,1.3,0.2,2,0.3c0.3,0,0.7,0.1,1,0.2c1,0.1,2.1,0.2,3.1,0.2h13.9h10.3h10.5h10.3h18.1H177h18
				h10.3h7.7L213,101.4L213,101.4z M209.2,86.9L180,57.7h0.2c2,0,3.6-1.6,3.6-3.6c0-2-1.6-3.6-3.6-3.6h-7.3c-0.1,0-0.1,0-0.2,0
				l-7.3-7.3H213v43.7L209.2,86.9L209.2,86.9L209.2,86.9z"/>
			<path class="st2" d="M202.1,50.4h-7.3c-2,0-3.6,1.6-3.6,3.6c0,2,1.6,3.6,3.6,3.6h7.3c2,0,3.6-1.6,3.6-3.6
				C205.7,52.1,204.1,50.4,202.1,50.4z"/>
		</g>
	</g>
	<g id="Слой_7" class="st0">
		<g class="st1">
			<g>
				<path class="st2" d="M219.5,21.6h-41.2h-12.5c-3.2-11-13.2-18.8-25-18.8c-11.7,0-21.8,7.7-25,18.8h-12.5H62
					c-1.9,0-3.5,1.6-3.5,3.5v200.6c0,1.9,1.6,3.5,3.5,3.5h157.5c1.9,0,3.5-1.6,3.5-3.5V25.1C223.1,23.1,221.5,21.6,219.5,21.6z
					 M106.8,40.1V28.6h11.8c0,0,0,0,0.1,0c0.1,0,0.2,0,0.2,0c0,0,0.1,0,0.1,0c0.1,0,0.1,0,0.2,0c0,0,0.1,0,0.1,0
					c0.1,0,0.1,0,0.2-0.1c0,0,0.1,0,0.1,0c0.1,0,0.1,0,0.2-0.1c0,0,0.1,0,0.1-0.1c0.1,0,0.1-0.1,0.2-0.1c0,0,0.1,0,0.1-0.1
					c0.1,0,0.1-0.1,0.2-0.1c0,0,0.1,0,0.1-0.1c0.1,0,0.1-0.1,0.2-0.1c0,0,0.1-0.1,0.1-0.1c0.1,0,0.1-0.1,0.2-0.1
					c0,0,0.1-0.1,0.1-0.1c0.1-0.1,0.1-0.1,0.1-0.2c0,0,0.1-0.1,0.1-0.1c0-0.1,0.1-0.1,0.1-0.2c0,0,0.1-0.1,0.1-0.1
					c0-0.1,0.1-0.1,0.1-0.2c0,0,0.1-0.1,0.1-0.1c0-0.1,0.1-0.1,0.1-0.2s0.1-0.1,0.1-0.2c0,0,0-0.1,0.1-0.1c0-0.1,0-0.1,0.1-0.2
					c0,0,0-0.1,0-0.1c0-0.1,0-0.1,0-0.2c0,0,0,0,0-0.1c1.5-9.2,9.4-15.8,18.7-15.8c9.3,0,17.2,6.7,18.7,15.8c0,0,0,0,0,0.1
					c0,0.1,0,0.1,0,0.2c0,0.1,0,0.1,0,0.2c0,0.1,0,0.1,0.1,0.2c0,0.1,0,0.1,0.1,0.2c0,0,0,0.1,0.1,0.1c0,0.1,0.1,0.1,0.1,0.2
					c0,0,0,0.1,0.1,0.1c0,0.1,0.1,0.1,0.1,0.2c0,0,0,0.1,0.1,0.1c0,0.1,0.1,0.1,0.1,0.2c0,0,0,0,0,0.1c0.1,0.1,0.1,0.2,0.2,0.2
					c0,0,0,0,0,0c0.1,0.1,0.2,0.1,0.2,0.2c0,0,0.1,0.1,0.1,0.1c0.1,0,0.1,0.1,0.2,0.1c0,0,0.1,0.1,0.1,0.1c0,0,0.1,0.1,0.1,0.1
					c0,0,0.1,0,0.1,0.1c0,0,0.1,0,0.1,0.1s0.1,0,0.1,0.1c0.1,0,0.1,0,0.2,0.1c0,0,0.1,0,0.1,0c0.1,0,0.1,0,0.2,0c0,0,0.1,0,0.1,0
					c0.1,0,0.2,0,0.2,0c0,0,0.1,0,0.1,0c0.1,0,0.2,0,0.3,0c0,0,0,0,0,0h11.8v11.5v9.6h-68L106.8,40.1L106.8,40.1L106.8,40.1z
					 M103.3,56.7h75c1.9,0,3.5-1.6,3.5-3.5v-9.6H201v129.8h-32.1c-1.9,0-3.5,1.6-3.5,3.5v32.1H80.6V43.6h19.2v9.6
					C99.8,55.1,101.4,56.7,103.3,56.7z M196.1,180.5l-23.6,23.6v-23.6H196.1z M216,222.2H65.6V28.6h34.2v8H77
					c-1.9,0-3.5,1.6-3.5,3.5v172.5c0,1.9,1.6,3.5,3.5,3.5h91.9c0.1,0,0.2,0,0.3,0c0.1,0,0.1,0,0.2,0c0.1,0,0.1,0,0.2,0
					c0.1,0,0.1,0,0.2,0c0.1,0,0.1,0,0.2,0c0.1,0,0.1,0,0.2-0.1c0.1,0,0.1,0,0.2-0.1c0.1,0,0.1,0,0.1-0.1c0.1,0,0.1,0,0.2-0.1
					c0,0,0.1-0.1,0.1-0.1c0.1,0,0.1-0.1,0.2-0.1c0.1,0,0.1-0.1,0.1-0.1c0,0,0.1-0.1,0.1-0.1c0.1-0.1,0.2-0.1,0.2-0.2c0,0,0,0,0,0
					l35.6-35.6c0,0,0,0,0,0c0.1-0.1,0.1-0.2,0.2-0.2c0,0,0.1-0.1,0.1-0.1c0-0.1,0.1-0.1,0.1-0.2c0,0,0.1-0.1,0.1-0.2
					c0,0,0.1-0.1,0.1-0.1c0-0.1,0.1-0.1,0.1-0.2c0,0,0.1-0.1,0.1-0.1c0-0.1,0-0.1,0.1-0.2c0-0.1,0-0.1,0.1-0.2c0-0.1,0-0.1,0-0.2
					c0-0.1,0-0.1,0-0.2c0-0.1,0-0.1,0-0.2c0,0,0-0.1,0-0.1c0-0.1,0-0.2,0-0.4V40.1c0-1.9-1.6-3.5-3.5-3.5h-22.7v-8H216L216,222.2
					L216,222.2z"/>
			</g>
		</g>
		<g class="st1">
			<g>
				<path class="st2" d="M140.8,70.3c-24.7,0-44.8,20.1-44.8,44.8c0,24.7,20.1,44.8,44.8,44.8s44.8-20.1,44.8-44.8
					C185.6,90.4,165.5,70.3,140.8,70.3z M140.8,152.8c-20.8,0-37.7-16.9-37.7-37.7c0-20.8,16.9-37.7,37.7-37.7
					c20.8,0,37.7,16.9,37.7,37.7C178.5,135.9,161.6,152.8,140.8,152.8z"/>
			</g>
		</g>
		<g class="st1">
			<g>
				<path class="st2" d="M162,96.7c-1.4-1.4-3.6-1.4-5,0L126.7,127l-8.8-8.8c-1.4-1.4-3.6-1.4-5,0c-1.4,1.4-1.4,3.6,0,5l11.3,11.2
					c0.7,0.7,1.6,1,2.5,1c0.9,0,1.8-0.3,2.5-1l32.8-32.8C163.4,100.3,163.4,98,162,96.7z"/>
			</g>
		</g>
	</g>
	<g id="Слой_8" class="st0">
		<g class="st1">
			<g>
				<path d="M202.6,143.2l-9.8-62.5l6.2-70.4c0.1-1-0.3-2.1-1-2.8s-1.7-1.2-2.7-1.2H141c-1,0-2,0.4-2.7,1.2c-0.7,0.8-1.1,1.8-1,2.8
					l5.1,69c-0.2,0.3-0.3,0.7-0.3,1l-9.8,63c-0.1,0.8,0,1.5,0.3,2.2l31.5,63c0.6,1.3,1.9,2,3.3,2s2.7-0.8,3.3-2l31.5-63
					C202.6,144.8,202.7,144,202.6,143.2z M191.3,13.7l-5.6,63.4h-36L145,13.7C145,13.7,191.3,13.7,191.3,13.7z M167.5,136.2
					c-5.6,0-10.1-4.5-10.1-10.1c0-5.6,4.5-10.1,10.1-10.1s10.1,4.5,10.1,10.1C177.6,131.6,173,136.2,167.5,136.2z M171.2,191.1v-48
					c7.9-1.7,13.8-8.7,13.8-17.1c0-9.6-7.8-17.5-17.5-17.5s-17.5,7.8-17.5,17.5c0,8.4,5.9,15.4,13.8,17.1v48l-24-47.9l9.2-58.7h37
					l9.2,58.7L171.2,191.1z"/>
			</g>
		</g>
		<g class="st1">
			<g>
				<path d="M240.3,209h-19.7c-2,0-3.7,1.7-3.7,3.7v6.1H118v-6.1c0-2-1.7-3.7-3.7-3.7H94.7c-2,0-3.7,1.7-3.7,3.7v19.7
					c0,2,1.6,3.7,3.7,3.7h19.7c2,0,3.7-1.7,3.7-3.7v-6.1h98.9v6.1c0,2,1.6,3.7,3.7,3.7h19.7c2,0,3.7-1.7,3.7-3.7v-19.7
					C244,210.6,242.3,209,240.3,209z M110.7,228.6H98.4v-12.3h12.3V228.6z M236.6,228.6h-12.3v-12.3h12.3V228.6z"/>
			</g>
		</g>
		<g class="st1">
			<g>
				<path d="M258,120.4c-2,0-3.7,1.7-3.7,3.7c0,47.9-38.9,86.8-86.8,86.8S80.7,172,80.7,124.1c0-2-1.7-3.7-3.7-3.7
					c-2,0-3.7,1.7-3.7,3.7c0,51.9,42.3,94.2,94.2,94.2c51.9,0,94.2-42.3,94.2-94.2C261.7,122.1,260,120.4,258,120.4z"/>
			</g>
		</g>
	</g>
	<g id="Слой_9" class="st0">
		<g class="st1">
			<g>
				<g>
					<path class="st2" d="M265.3,43.4h-17c-1.6-2.8-3.9-5.2-6.9-6.6L183.6,9.4c-9.9-4.7-21.9-4.7-31.8,0L94.1,36.7
						c-3,1.4-5.4,3.8-6.9,6.6h-17c-10.3,0-18.8,8.4-18.8,18.8v135.1c0,10.3,8.4,18.8,18.8,18.8h48.8v15h-15v7.5h127.6v-7.5h-15v-15
						h48.8c10.3,0,18.8-8.4,18.8-18.8V62.1C284,51.8,275.6,43.4,265.3,43.4z M97.3,43.5L155,16.2c3.9-1.9,8.3-2.9,12.7-2.9
						s8.7,1,12.7,2.9l57.7,27.3c2.8,1.3,4.6,4.2,4.6,7.3s-1.8,6-4.6,7.3l-57.7,27.3c-7.9,3.7-17.5,3.7-25.4,0L97.3,58.2
						c-2.8-1.3-4.6-4.2-4.6-7.3S94.5,44.9,97.3,43.5z M180.4,123c-7.9,3.7-17.5,3.7-25.4,0L97.3,95.7c-2.8-1.3-4.6-4.2-4.6-7.3
						s1.8-6,4.6-7.3l15.4-7.3l39.1,18.5c4.9,2.3,10.4,3.6,15.9,3.6s11-1.2,15.9-3.6l39.1-18.5l15.4,7.3c2.8,1.3,4.6,4.2,4.6,7.3
						s-1.8,6-4.6,7.3L180.4,123z M222.7,111.3l15.4,7.3c2.8,1.3,4.6,4.2,4.6,7.3c0,3.1-1.8,6-4.6,7.3l-57.7,27.3
						c-7.9,3.7-17.5,3.7-25.4,0l-57.7-27.3c-2.8-1.3-4.6-4.2-4.6-7.3c0-3.1,1.8-6,4.6-7.3l15.4-7.3l39.1,18.5
						c4.9,2.3,10.4,3.6,15.9,3.6c5.5,0,11-1.2,15.9-3.6L222.7,111.3z M209,230.9h-82.5v-15H209V230.9z M276.5,197.2
						c0,6.2-5,11.3-11.3,11.3H70.2c-6.2,0-11.3-5-11.3-11.3v-3.8h217.6V197.2z M276.5,185.9H58.9V62.1c0-6.2,5-11.3,11.3-11.3h15
						c0,6,3.5,11.5,8.9,14.1l9.8,4.7l-9.8,4.7c-5.4,2.6-8.9,8.1-8.9,14.1c0,6,3.5,11.5,8.9,14.1l9.8,4.7l-9.8,4.7
						c-5.4,2.6-8.9,8.1-8.9,14.1c0,6,3.5,11.5,8.9,14.1l57.7,27.3c4.9,2.3,10.4,3.6,15.9,3.6c5.5,0,11-1.2,15.9-3.6l57.7-27.3
						c5.4-2.6,8.9-8.1,8.9-14.1c0-6-3.5-11.5-8.9-14.1l-9.8-4.7l9.8-4.7c5.4-2.6,8.9-8.1,8.9-14.1c0-6-3.5-11.5-8.9-14.1l-9.8-4.7
						l9.8-4.7c5.4-2.6,8.9-8.1,8.9-14.1h15c6.2,0,11.3,5,11.3,11.3L276.5,185.9L276.5,185.9L276.5,185.9z"/>
					<path class="st2" d="M167.7,65.9c10.3,0,18.8-6.7,18.8-15s-8.4-15-18.8-15c-10.3,0-18.8,6.7-18.8,15
						C148.9,59.1,157.4,65.9,167.7,65.9z M167.7,43.4c6.1,0,11.3,3.4,11.3,7.5c0,4.1-5.2,7.5-11.3,7.5c-6.1,0-11.3-3.4-11.3-7.5
						C156.4,46.8,161.6,43.4,167.7,43.4z"/>
					<rect x="194" y="47.1" class="st2" width="7.5" height="7.5"/>
					<rect x="209" y="47.1" class="st2" width="7.5" height="7.5"/>
					<rect x="133.9" y="47.1" class="st2" width="7.5" height="7.5"/>
					<rect x="118.9" y="47.1" class="st2" width="7.5" height="7.5"/>
				</g>
			</g>
		</g>
	</g>
	<path id="Слой_10" class="st2" d="M113.7,208.7h131.9c2.4,0,4.4-2.1,4.4-4.6V130c0-2.6-2-4.6-4.4-4.6H113.7
		c-2.4,0-4.4,2.1-4.4,4.6V204C109.2,206.6,111.2,208.7,113.7,208.7z M118.1,134.6h123.1v64.8H118.1V134.6z M270,213.6h-6.4v-90.2
		c0-6.7-5.3-12.2-11.7-12.2h-62.6V94h12.5c7.4,0,13.4-6.3,13.4-14V15c0-7.7-6-14-13.4-14h-33.9c-7.4,0-13.4,6.3-13.4,14v16.8H15.5
		C7.5,31.8,1,38.6,1,47v108.7c0,8.4,6.5,15.2,14.6,15.2h62.8l-3.6,16.8H62.9c-2.4,0-4.4,2.1-4.4,4.6c0,2.6,2,4.6,4.4,4.6h32.7v16.7
		h-6.4c-2.4,0-4.4,2.1-4.4,4.6c0,11.2,8.7,20.2,19.4,20.2H255c10.7,0,19.4-9.1,19.4-20.2C274.4,215.7,272.4,213.6,270,213.6z
		 M251.9,120.4c1.6,0,2.9,1.3,2.9,3v90.2H104.5v-21.3c0,0,0,0,0,0c0,0,0,0,0,0v-68.8c0-1.6,1.3-3,2.9-3L251.9,120.4L251.9,120.4z
		 M163.3,15c0-2.6,2-4.8,4.6-4.8h33.9c2.5,0,4.6,2.1,4.6,4.8v2h-43.1L163.3,15L163.3,15z M163.3,26.3h43.1v41.3h-43.1V26.3z
		 M163.3,76.8h43.1V80c0,2.6-2.1,4.8-4.6,4.8h-33.9c-2.5,0-4.6-2.1-4.6-4.8L163.3,76.8L163.3,76.8z M9.8,47c0-3.3,2.6-6,5.7-6h138.9
		v39c0,7.7,6,14,13.4,14h12.5v17.2h-73.1c-6.5,0-11.7,5.5-11.7,12.2v16.8H9.8V47L9.8,47z M15.5,161.7c-3.2,0-5.7-2.7-5.7-6v-6.2
		h85.8v12.2H15.5L15.5,161.7z M83.8,187.7l3.6-16.8h8.3v16.8H83.8z M255,229.2H104.2c-4.2,0-7.9-2.6-9.6-6.4h169.9
		C262.9,226.6,259.3,229.2,255,229.2z"/>
</g>
</svg>
