<?xml version="1.0" encoding="utf-8"?>
<!-- Generator: Adobe Illustrator 16.0.0, SVG Export Plug-In . SVG Version: 6.00 Build 0)  -->
<!DOCTYPE svg PUBLIC "-//W3C//DTD SVG 1.1//EN" "http://www.w3.org/Graphics/SVG/1.1/DTD/svg11.dtd">
<svg version="1.1" id="Слой_1" xmlns="http://www.w3.org/2000/svg" xmlns:xlink="http://www.w3.org/1999/xlink" x="0px" y="0px"
	 width="1080px" height="935.02px" viewBox="0 0 1080 935.02" enable-background="new 0 0 1080 935.02" xml:space="preserve">
<g id="Слой_2">
	<ellipse fill="#FFFFFF" cx="323.298" cy="319.986" rx="303.03" ry="306.221"/>
</g>
<g id="Слой_2__x28_копия_x29_">
	<ellipse fill="#FFFFFF" cx="755.341" cy="319.986" rx="303.03" ry="306.221"/>
</g>
<g id="Слой_2__x28_копия2_x29_">
	<ellipse fill="#FFFFFF" cx="540" cy="611.015" rx="303.03" ry="306.222"/>
</g>
<g id="Layer_1">
	<g>
		<g>
			<path fill="#3D4A5A" d="M762.681-0.12C679.243-0.12,599.069,32.867,540,90.933C480.932,32.866,400.758-0.12,317.319-0.12
				C142.35-0.12,0,142.229,0,317.199C0,456.403,90.896,579.18,222.712,620.291C224.047,794.125,365.855,935.139,540,935.139
				s315.951-141.01,317.288-314.846C989.066,579.225,1080,456.432,1080,317.199C1080,142.229,937.65-0.12,762.681-0.12z
				 M601.012,306.337c-40.247-7.709-81.662-7.722-122.026,0.008c2.293-60.338,23.638-118.125,61.014-165.473
				C577.374,188.218,598.721,246.003,601.012,306.337z M479.765,340.28c19.851-4.213,40.05-6.381,60.235-6.381
				c20.203,0,40.424,2.168,60.235,6.374C595.686,396.142,574.67,449.549,540,493.52C505.326,449.539,484.314,396.138,479.765,340.28
				z M517.468,518.785c-52.927,52.492-125.057,82.332-200.147,82.332c-20.203,0-40.424-2.17-60.243-6.377
				c4.457-56.762,25.536-109.994,61.456-154.678c33.388-41.534,78.509-73.204,128.521-90.653
				C453.379,411.427,477.888,470.444,517.468,518.785z M632.945,349.414c50.06,17.475,95.151,49.134,128.521,90.648
				c35.92,44.684,56.999,97.915,61.456,154.676c-19.854,4.213-40.055,6.379-60.243,6.379c-75.099,0-147.238-29.846-200.149-82.33
				C602.105,470.461,626.617,411.44,632.945,349.414z M33.402,317.199c0-156.553,127.362-283.917,283.917-283.917
				c75.086,0,147.212,29.835,200.142,82.322c-46.083,56.226-71.516,126.276-72.072,199.153
				c-59.646,18.737-113.561,55.447-152.888,104.377c-38.808,48.272-62.146,105.463-68.173,166.52
				C110.949,546.43,33.402,438.832,33.402,317.199z M540,901.737c-152.913,0-277.954-121.518-283.688-273.051
				c20.143,3.869,40.582,5.836,61.007,5.836c83.431,0,163.595-32.982,222.679-91.057c59.068,58.066,139.242,91.057,222.683,91.057
				c20.414,0,40.845-1.965,61.007-5.838C817.957,780.217,692.913,901.737,540,901.737z M855.672,585.658
				c-6.027-61.057-29.366-118.249-68.173-166.523c-39.31-48.903-93.188-85.602-152.888-104.369
				c-0.556-72.879-25.987-142.935-72.072-199.159c52.93-52.487,125.056-82.322,200.145-82.322
				c156.554,0,283.918,127.364,283.918,283.917C1046.598,438.859,969.018,546.473,855.672,585.658z"/>
		</g>
	</g>
	<g>
		<g>
			<path fill="#3D4A5A" d="M250.516,105.654l-3.496-16.33c-1.774,0.382-43.92,9.743-84.396,47.224
				c-66.862,61.909-76.887,151.052-73.526,214.935l33.355-1.758c-4.305-81.773,16.437-144.871,61.646-187.529
				c33.793-31.888,69.625-40.142,69.979-40.224L250.516,105.654z"/>
		</g>
	</g>
	<g>
		<g>
			<path fill="#3D4A5A" d="M916.809,136.544c-40.478-37.479-82.623-46.842-84.395-47.224l-7.063,32.647
				c0.357,0.08,36.189,8.332,69.979,40.224c45.211,42.657,65.952,105.755,61.648,187.531l33.355,1.757
				C993.695,287.596,983.671,198.454,916.809,136.544z"/>
		</g>
	</g>
	<g>
		<g>
			<path fill="#3D4A5A" d="M653.723,781.739c-55.199,33.967-113.259,41.063-172.562,21.088
				c-45.208-15.229-74.406-41.25-74.695-41.516l-22.44,24.742c1.354,1.23,33.763,30.355,85.146,47.975
				c21.133,7.246,47.338,13.08,76.947,13.08c37.423,0,80.271-9.328,125.111-36.922L653.723,781.739z"/>
		</g>
	</g>
</g>
</svg>
