<?xml version="1.0" encoding="utf-8"?>
<!-- Generator: Adobe Illustrator 21.0.0, SVG Export Plug-In . SVG Version: 6.00 Build 0)  -->
<svg version="1.1" id="Слой_1" xmlns="http://www.w3.org/2000/svg" xmlns:xlink="http://www.w3.org/1999/xlink" x="0px" y="0px"
	 viewBox="0 0 485 625" style="enable-background:new 0 0 485 625;" xml:space="preserve">
<style type="text/css">
	.st0{fill:#FFFFFF;}
	.st1{fill:#3D4A5A;}
</style>
<g id="Слой_2">
	<polygon class="st0" points="464.1,600.5 25.1,600.5 25.1,32.5 392.1,87.5 	"/>
	<rect x="51.1" y="25.5" class="st0" width="279" height="136"/>
	<rect x="302.1" y="39.2" class="st0" width="42" height="69.3"/>
	<rect x="329.1" y="58.5" class="st0" width="36" height="45"/>
	<rect x="358.5" y="73.9" class="st0" width="17.6" height="29.6"/>
	<rect x="388.2" y="103.5" class="st0" width="21" height="54.8"/>
	<rect x="398.6" y="167.5" class="st0" width="65.5" height="383"/>
	<rect x="403.1" y="118.5" class="st0" width="21" height="47"/>
	<polygon class="st0" points="398.6,133.9 443.1,142 448.1,173.5 398.6,173.5 	"/>
</g>
<g id="Capa_1">
	<g>
		<path class="st1" d="M332.1,19.4H10.5v595.3h466.3V164.1L332.1,19.4z M337.9,53.3l105,105h-105V53.3z M30.3,594.8V39.2H318v138.9
			h138.9v416.7L30.3,594.8L30.3,594.8z"/>
	</g>
	<path class="st1" d="M181.6,370.9v30.9h125.9v29.6H181.6v79.1H140v-79.1h-21.4v-29.6H140v-30.9h-21.4v-36H140V196.2h98.4
		c28.2,0,49.5,2.9,63.9,8.6c14.6,5.6,26.2,15.5,35,29.8c8.7,14.3,13.1,30.1,13.1,47.4c0,17.4-3.2,31.9-9.6,43.3
		c-6.4,11.4-15,20.6-25.6,27.3c-10.7,6.8-22.9,11.5-36.7,14.3c-13.8,2.7-28.1,4.1-42.8,4.1L181.6,370.9L181.6,370.9z M235.6,334.9
		c9.6,0,18.7-0.8,27.4-2.2c8.7-1.5,16.4-4.3,22.9-8.3c6.6-4,11.8-9.4,15.7-16.2c3.9-6.8,5.8-15.5,5.8-26.3c0-9.3-1.7-17.2-5.2-23.6
		c-3.5-6.4-8.3-11.7-14.4-15.8c-6.1-4.1-13.2-7-21.3-8.9c-8.1-1.9-16.9-2.8-26.4-2.8h-58.5v104L235.6,334.9L235.6,334.9z"/>
</g>
</svg>
