<?xml version="1.0" encoding="utf-8"?>
<!-- Generator: Adobe Illustrator 21.0.0, SVG Export Plug-In . SVG Version: 6.00 Build 0)  -->
<svg version="1.1" id="Слой_1" xmlns="http://www.w3.org/2000/svg" xmlns:xlink="http://www.w3.org/1999/xlink" x="0px" y="0px"
	 viewBox="0 0 1061.4 1080" style="enable-background:new 0 0 1061.4 1080;" xml:space="preserve">
<style type="text/css">
	.st0{fill:#3D4A5A;}
</style>
<path id="Capa_1" class="st0" d="M586.6,0c-19,0-37.7,1.4-56.1,3.9C511.2,1.3,492.9,0,474.8,0c-90.9,0-175.9,29.3-248.2,79.9
	c0,0-0.1,0-0.1,0.1c-36.7,25.7-70,56.9-99.2,92.5c-0.9,0.8-1.5,1.7-2.2,2.7c-27.6,34.2-51.4,72.5-70.6,114c-0.5,0.9-1,1.9-1.3,2.9
	C40,321,29,351.5,20.5,383.2c-0.8,1.8-1.2,3.7-1.5,5.8C6.7,436.9,0,487.6,0,540c0,82,16.2,159.7,45.1,229.4c0.3,0.8,0.5,1.5,0.9,2.2
	c17.3,41.2,39,79.6,64.5,114.3c0.7,0.9,1.2,2,2.1,2.8c25.9,34.7,55.5,65.6,88.2,92c0.9,1.1,2.1,1.8,3.3,2.7
	c76.8,60.9,170.1,96.7,270.7,96.7c18.1,0,36.4-1.3,55.6-3.9c18.4,2.5,37.1,3.9,56.1,3.9c261.8,0,474.8-242.2,474.8-540
	C1061.4,242.2,848.4,0,586.6,0z M389.8,48.7c-6.1,3.2-12.1,6.5-18,9.9c-3.4,2-6.9,3.9-10.2,6c-5.1,3.1-10.2,6.5-15.2,9.9h-35.8
	c27.2-12.7,55.6-22.8,85.2-29C393.7,46.5,391.8,47.7,389.8,48.7z M202.2,856.6h-66.8c-16.4-23.2-31-48.1-43.7-74.5h70.5
	c2.9,6.6,5.9,13.1,9.1,19.6c1.4,2.8,2.8,5.5,4.2,8.2c3.8,7.5,7.8,14.9,11.9,22.1c1.5,2.7,3,5.4,4.6,8.1
	C195.3,845.7,198.8,851.1,202.2,856.6z M83.2,316.6h71.3c-3.3,8.1-6.4,16.4-9.3,24.7c-0.8,2.3-1.6,4.6-2.4,6.9
	c-2.7,8-5.2,16.1-7.5,24.2H62.5C68.4,353.2,75.4,334.6,83.2,316.6z M37.2,540c0-12.6,0.7-24.9,1.5-37.2h74.2c0,0.3,0,0.6,0,0.9
	c-0.7,12-1.2,24.1-1.2,36.3c0,6.2,0.2,12.4,0.4,18.6H38C37.8,552.4,37.2,546.3,37.2,540z M114.3,595.9c0.7,7.8,1.6,15.6,2.6,23.4
	c0.1,0.6,0.1,1.2,0.2,1.7c1.4,10.4,3.1,20.6,4.9,30.8H48.6c-3.6-18.3-6.5-36.9-8.3-55.9H114.3L114.3,595.9z M125.8,409.7
	c-0.5,2.2-0.9,4.4-1.4,6.6c-0.5,2.4-1,4.9-1.5,7.3c-2.3,11.7-4.3,23.5-5.9,35.4c-0.1,0.6-0.1,1.2-0.2,1.7c-0.2,1.6-0.3,3.2-0.5,4.7
	H42.4c2.5-19,5.6-37.7,9.8-55.9L125.8,409.7L125.8,409.7z M130.3,689c0.6,2.3,1.1,4.6,1.7,6.8c0.2,0.8,0.4,1.7,0.6,2.5
	c3.1,11.3,6.5,22.5,10.2,33.5c0.8,2.3,1.6,4.6,2.4,6.9c0.7,2,1.4,4.1,2.1,6.1H75.6c-7.1-18.1-13.1-36.7-18.3-55.9H130.3z M192,239.9
	c-1.6,2.7-3,5.4-4.6,8.1c-4.1,7.3-8.1,14.6-11.9,22.1c-1.4,2.7-2.8,5.5-4.2,8.2c-0.2,0.3-0.3,0.6-0.5,0.9h-69.8
	c14.1-26.6,30.3-51.4,48.3-74.5h65.2c-2.3,3.3-4.6,6.5-6.8,9.8C202.4,222.9,197.1,231.3,192,239.9z M246.4,111.7h51.4
	c-4.6,4-9.2,8.1-13.7,12.3c-3.8,3.5-7.4,7.2-11.1,10.9c-3.7,3.7-7.3,7.4-10.9,11.2c-3.4,3.7-6.9,7.3-10.3,11.1
	c-3,3.4-5.8,6.8-8.7,10.3h-61.5C201.7,146.8,223.3,128,246.4,111.7z M164.3,893.8h63.9c2.1,2.8,4.2,5.5,6.4,8.2
	c5.6,7.1,11.4,13.9,17.3,20.7c3.4,3.8,6.8,7.4,10.3,11.1c3.6,3.8,7.2,7.6,10.9,11.2c1.5,1.5,2.9,3.1,4.5,4.6h-56
	C201,932.9,181.9,914.2,164.3,893.8z M395.7,1034.5c-42.7-9-83-25.5-120.5-47.6h45c2.4,1.8,4.8,3.5,7.2,5.3
	c3.9,2.9,7.8,5.8,11.7,8.6c7.3,5.1,14.7,10,22.3,14.6c3.4,2.1,6.8,4,10.2,6c5.9,3.4,12,6.7,18,9.9
	C391.8,1032.3,393.7,1033.5,395.7,1034.5z M586.6,1042.8c-14.8,0-29.4-0.9-43.8-2.5l-7.4-1c-0.9-0.1-1.8-0.3-2.7-0.4
	c-6.5-0.9-12.9-2-19.3-3.2c-0.5-0.1-1-0.2-1.5-0.3c-6.2-1.2-12.3-2.6-18.5-4.1c-0.9-0.2-1.7-0.5-2.6-0.7c-5.7-1.5-11.4-3-17-4.7
	c-1.6-0.5-3.2-1.1-4.9-1.6c-4.8-1.5-9.6-3.1-14.3-4.8c-3.7-1.4-7.4-2.8-11.1-4.3c-2.6-1-5.3-2-7.8-3.1
	C335.5,969.6,252.5,886.3,202,779.8c-0.4-0.8-0.7-1.6-1.1-2.4c-2.8-6-5.5-12-8.1-18.1c-0.9-2.2-1.8-4.5-2.7-6.8
	c-1.9-4.7-3.8-9.5-5.6-14.3c-1.1-2.9-2.1-5.9-3.2-8.9c-1.5-4.2-3-8.5-4.4-12.7c-1.1-3.4-2.1-6.7-3.2-10.1c-1.2-4-2.4-8-3.6-12
	c-1-3.6-2-7.2-2.9-10.8c-1-3.9-2-7.9-3-11.9c-0.9-3.7-1.7-7.5-2.5-11.2c-0.9-4-1.7-8-2.4-12c-0.7-3.8-1.5-7.6-2.1-11.4
	c-0.7-4.2-1.3-8.3-2-12.5c-0.6-3.7-1.1-7.4-1.6-11.2c-0.6-4.5-1-9-1.5-13.5c-0.4-3.5-0.8-7-1.1-10.5c-0.4-5.2-0.7-10.4-1-15.6
	c-0.2-2.9-0.4-5.8-0.5-8.8c-0.3-8.2-0.5-16.5-0.5-24.8s0.2-16.6,0.5-24.8c0.1-2.9,0.4-5.8,0.5-8.8c0.3-5.2,0.6-10.4,1-15.6
	c0.3-3.5,0.7-7,1.1-10.5c0.5-4.5,0.9-9.1,1.5-13.5c0.5-3.7,1-7.5,1.6-11.2c0.6-4.2,1.2-8.4,2-12.5c0.6-3.8,1.4-7.6,2.1-11.4
	c0.8-4,1.6-8,2.4-12c0.8-3.8,1.7-7.5,2.5-11.2c0.9-4,1.9-8,3-11.9c0.9-3.6,1.9-7.2,2.9-10.8c1.1-4,2.3-8,3.6-12
	c1-3.4,2.1-6.8,3.2-10.1c1.4-4.3,2.9-8.5,4.4-12.7c1.1-3,2.1-5.9,3.2-8.9c1.8-4.8,3.7-9.6,5.6-14.3c0.9-2.3,1.8-4.5,2.7-6.8
	c2.6-6.1,5.3-12.1,8.1-18.1c0.4-0.8,0.7-1.6,1.1-2.4C252.5,193.7,335.6,110.4,435.7,68c2.6-1.1,5.2-2.1,7.8-3.1
	c3.7-1.5,7.4-3,11.1-4.3c4.7-1.7,9.5-3.3,14.3-4.8c1.6-0.5,3.2-1.1,4.9-1.6c5.6-1.7,11.3-3.3,17-4.7c0.9-0.2,1.7-0.5,2.6-0.7
	c6.1-1.5,12.3-2.9,18.5-4.1c0.5-0.1,1-0.2,1.5-0.3c6.4-1.2,12.8-2.3,19.3-3.2c0.9-0.1,1.8-0.3,2.7-0.4l7.4-1
	c14.4-1.7,29-2.5,43.8-2.5c241.3,0,437.6,225.5,437.6,502.8C1024.1,817.2,827.8,1042.8,586.6,1042.8z M721.6,889.2
	c-10.3,5.3-21,10.1-31.8,14.1c-9.6,3.6-14.5,14.4-10.9,24c2.8,7.5,9.9,12.1,17.4,12.1c2.2,0,4.4-0.4,6.6-1.2
	c12.1-4.5,24.1-9.9,35.7-15.8c9.1-4.7,12.8-15.9,8.1-25.1C742,888.1,730.8,884.5,721.6,889.2z M829,801
	c-7.4,9.1-15.3,17.9-23.4,26.1c-7.2,7.3-7.2,19.1,0.1,26.3c3.6,3.6,8.4,5.4,13.1,5.4c4.8,0,9.6-1.8,13.2-5.5
	c8.9-9,17.6-18.8,25.8-28.8c6.5-8,5.3-19.7-2.7-26.2C847.3,791.8,835.5,793.1,829,801z M586.6,922.2c-11.6,0-23.2-0.7-34.6-2
	c-10.5-1-19.5,6.1-20.7,16.3c-1.2,10.2,6.1,19.5,16.3,20.7c12.8,1.5,26,2.3,39,2.3h1.6c10.3,0,17.8-8.3,17.8-18.6
	S596.8,922.2,586.6,922.2z M341.6,226.1c-9,9.1-17.7,18.7-25.9,28.8c-6.5,8-5.3,19.7,2.6,26.2c3.5,2.8,7.6,4.2,11.8,4.2
	c5.4,0,10.8-2.3,14.4-6.8c7.4-9.1,15.3-17.9,23.5-26.1c7.2-7.3,7.2-19.1-0.1-26.3C360.6,218.7,348.8,218.8,341.6,226.1z
	 M937.2,520.8c-10.3,0-18.6,8.9-18.6,19.2c0,11.5-0.4,23-1.3,34.2c-0.8,10.3,6.9,19.2,17.1,20c0.5,0,1,0.1,1.5,0.1
	c9.6,0,17.8-7.4,18.5-17.2c0.9-12.2,1.4-24.7,1.4-37.1v-1.2C955.9,528.5,947.5,520.8,937.2,520.8z M879.4,284.4
	c-7.2-10.6-15-21-23.1-30.9c-6.6-7.9-18.2-9.1-26.2-2.6c-7.9,6.5-9.1,18.3-2.6,26.2c7.4,9,14.5,18.5,21.1,28.2
	c3.6,5.3,9.5,8.2,15.4,8.2c3.6,0,7.2-1,10.4-3.2C883,304.5,885.2,293,879.4,284.4z M919.9,666.3c-9.8-3.3-20.3,2-23.6,11.7
	c-3.8,11.1-8,22.2-12.7,33c-4.1,9.4,0.2,20.4,9.6,24.5c2.4,1.1,5,1.5,7.4,1.5c7.2,0,14-4.2,17.1-11.2c5.1-11.7,9.7-23.8,13.8-35.9
	C934.9,680.1,929.7,669.6,919.9,666.3z M443.7,192.5c2.9,0,5.8-0.6,8.5-2c10.4-5.3,21.1-10,31.8-14c9.6-3.6,14.5-14.3,10.9-24
	c-3.6-9.6-14.3-14.5-24-10.9c-12,4.5-24.1,9.8-35.7,15.7c-9.1,4.7-12.8,15.9-8.1,25.1C430.4,188.8,436.9,192.5,443.7,192.5z
	 M267.3,645.5c-2.5-10-12.7-16.1-22.6-13.6c-10,2.5-16.1,12.6-13.6,22.6c3.1,12.4,6.8,24.8,10.9,36.9c2.6,7.7,9.9,12.6,17.6,12.6
	c2,0,4-0.3,6-1c9.7-3.3,14.9-13.9,11.6-23.6C273.5,668.3,270.1,656.9,267.3,645.5z M280.2,343.9c-9.5-4.2-20.4,0.1-24.5,9.6
	c-5.1,11.7-9.8,23.7-13.9,35.9c-3.3,9.7,1.9,20.3,11.7,23.6c2,0.7,4,1,6,1c7.8,0,15-4.9,17.6-12.6c3.8-11.2,8.1-22.3,12.8-32.9
	C293.9,358.9,289.6,348,280.2,343.9z M254.5,540.4l0-1.5c0-11.2,0.5-22.6,1.4-33.9c0.8-10.3-6.9-19.2-17.1-20
	c-10-0.7-19.2,6.9-20,17.1c-1,12.6-1.5,25.3-1.5,37.9l0.1,1.8c0.7,9.6,8.8,17.3,18.6,17.3C246.2,559,254.5,550.7,254.5,540.4z
	 M324,774c-5.8-8.5-17.3-10.8-25.9-5c-8.5,5.8-10.7,17.3-5,25.9c7.3,10.8,15,21.2,23.1,31c3.7,4.5,9,6.8,14.4,6.8
	c4.2,0,8.3-1.4,11.8-4.2c8-6.5,9.1-18.2,2.6-26.2C337.8,793.4,330.7,783.9,324,774z M905.6,433.7c2.1,8.5,9.7,14.1,18,14.1
	c1.5,0,3-0.2,4.5-0.6c10-2.5,16-12.6,13.5-22.6c-3.1-12.4-6.8-24.8-10.9-36.9c-3.4-9.7-13.9-15-23.7-11.6
	c-9.7,3.3-14.9,13.9-11.6,23.7C899.4,410.9,902.8,422.3,905.6,433.7z M452.8,889.9c-10.3-5.2-20.4-11.1-30.1-17.5
	c-8.6-5.6-20.1-3.2-25.8,5.4c-5.6,8.6-3.2,20.1,5.4,25.8c10.9,7.1,22.2,13.7,33.7,19.5c2.7,1.4,5.6,2,8.4,2
	c6.8,0,13.4-3.7,16.6-10.2C465.7,905.8,462,894.6,452.8,889.9z M586.6,157.8c11.3,0,22.7,0.6,33.8,2c0.7,0.1,1.5,0.1,2.2,0.1
	c9.3,0,17.4-7,18.5-16.5c1.2-10.2-6.1-19.5-16.3-20.6c-12.6-1.5-25.4-2.2-38.1-2.2h-0.8c-10.3,0-18.2,8.3-18.2,18.6
	S576.3,157.8,586.6,157.8z M719.6,189.8c10.3,5.2,20.4,11,30.2,17.4c3.1,2,6.6,3,10.1,3c6.1,0,12-3,15.6-8.5
	c5.6-8.6,3.2-20.2-5.4-25.8c-10.9-7.1-22.3-13.6-33.7-19.4c-9.2-4.7-20.4-0.9-25,8.2C706.7,173.9,710.4,185.1,719.6,189.8z
	 M700.6,621v64.8H584.1v79.5h-86.8v-79.5h-29V621h29v-35.2h-29v-68.7h29V335.2h123.8c46.2,0,79.5,3.9,100,11.7
	c20.7,7.6,37.5,21.3,50.2,41.1c12.5,19.6,18.8,42.2,18.8,67.8c0,20.9-2.6,38.7-7.8,53.3c-5.2,14.6-12.3,26.7-21.3,36.2
	c-9,9.6-19.7,17.1-32,22.6c-12.3,5.5-25.7,9.5-40.2,12.2c-14.5,2.6-29.6,4.3-45.3,4.8c-15.7,0.6-31.6,0.9-47.7,0.9h-11.7V621H700.6z
	 M584.1,517.1h5.3c41.7,0,67.7-1.8,78-5.3c10.6-3.5,18.7-9.6,24.5-18.2c5.8-8.6,8.7-19.4,8.7-32.3c0-14.7-3.7-26.5-11.1-35.4
	c-7.4-8.9-18.5-14.4-33.2-16.6c-3.5-0.4-10.5-0.7-21-1c-10.5-0.3-24.6-0.4-42.4-0.4h-8.8V517.1z"/>
</svg>
