<?xml version="1.0" encoding="utf-8"?>
<!-- Generator: Adobe Illustrator 16.0.0, SVG Export Plug-In . SVG Version: 6.00 Build 0)  -->
<!DOCTYPE svg PUBLIC "-//W3C//DTD SVG 1.1//EN" "http://www.w3.org/Graphics/SVG/1.1/DTD/svg11.dtd">
<svg version="1.1" id="Слой_1" xmlns="http://www.w3.org/2000/svg" xmlns:xlink="http://www.w3.org/1999/xlink" x="0px" y="0px"
	 width="1061.379px" height="1080px" viewBox="0 0 1061.379 1080" enable-background="new 0 0 1061.379 1080" xml:space="preserve">
<g id="Слой_2">
	<ellipse fill="#FFFFFF" cx="528.509" cy="539.32" rx="511.551" ry="519.051"/>
</g>
<g id="Capa_1">
	<g>
		<path fill="#3D4A5A" d="M586.551,0c-19.012,0-37.727,1.415-56.142,3.91C511.193,1.341,492.926,0,474.827,0
			c-90.925,0-175.945,29.271-248.214,79.883c-0.019,0.019-0.056,0.037-0.074,0.056c-36.664,25.679-69.977,56.887-99.174,92.545
			c-0.875,0.802-1.526,1.731-2.233,2.682c-27.634,34.226-51.394,72.547-70.609,113.996c-0.503,0.932-0.95,1.861-1.304,2.887
			c-13.222,28.974-24.264,59.418-32.754,91.146c-0.838,1.788-1.21,3.743-1.452,5.791C6.722,436.934,0,487.582,0,540
			c0,81.986,16.22,159.709,45.101,229.389c0.26,0.782,0.521,1.509,0.894,2.233c17.28,41.228,39.049,79.566,64.539,114.258
			c0.688,0.948,1.247,1.955,2.104,2.756c25.862,34.709,55.526,65.619,88.225,91.985c0.949,1.063,2.104,1.844,3.277,2.662
			C280.986,1044.174,374.275,1080,474.827,1080c18.101,0,36.366-1.342,55.583-3.911c18.417,2.495,37.131,3.911,56.143,3.911
			c261.824,0,474.826-242.237,474.826-540C1061.379,242.237,848.377,0,586.551,0z M389.787,48.749
			c-6.069,3.165-12.085,6.461-18.024,9.905c-3.427,1.975-6.871,3.91-10.241,5.978c-5.141,3.146-10.167,6.479-15.176,9.851H310.5
			c27.225-12.735,55.64-22.772,85.245-29.011C393.715,46.477,391.796,47.706,389.787,48.749z M202.22,856.551h-66.793
			c-16.423-23.201-31.003-48.134-43.665-74.482h70.535c2.923,6.592,5.921,13.128,9.067,19.57c1.359,2.773,2.774,5.493,4.171,8.229
			c3.817,7.485,7.783,14.859,11.898,22.121c1.526,2.7,2.998,5.438,4.563,8.102C195.312,845.677,198.756,851.115,202.22,856.551z
			 M83.197,316.551h71.262c-3.259,8.138-6.351,16.368-9.272,24.71c-0.801,2.31-1.62,4.6-2.402,6.908
			c-2.682,8.007-5.177,16.089-7.541,24.243H62.492C68.43,353.216,75.357,334.595,83.197,316.551z M37.241,540
			c0-12.552,0.67-24.915,1.452-37.242h74.241c-0.019,0.298-0.019,0.596-0.037,0.895c-0.688,12.028-1.174,24.113-1.174,36.348
			c0,6.237,0.224,12.421,0.41,18.62H37.967C37.762,552.401,37.241,546.275,37.241,540z M114.255,595.862
			c0.707,7.84,1.619,15.604,2.625,23.352c0.074,0.576,0.112,1.153,0.188,1.73c1.378,10.372,3.054,20.613,4.936,30.78h-73.44
			c-3.631-18.285-6.498-36.888-8.342-55.862H114.255L114.255,595.862z M125.8,409.655c-0.483,2.197-0.895,4.433-1.359,6.648
			c-0.502,2.438-1.023,4.878-1.489,7.336c-2.271,11.693-4.282,23.462-5.884,35.417c-0.074,0.577-0.111,1.154-0.187,1.73
			c-0.205,1.564-0.335,3.165-0.54,4.729H42.436c2.458-18.956,5.567-37.651,9.831-55.862L125.8,409.655L125.8,409.655z
			 M130.251,688.965c0.577,2.271,1.117,4.581,1.714,6.834c0.224,0.818,0.391,1.676,0.613,2.495
			c3.072,11.34,6.519,22.493,10.204,33.518c0.782,2.327,1.603,4.617,2.402,6.908c0.707,2.048,1.396,4.097,2.123,6.106H75.562
			c-7.057-18.081-13.128-36.737-18.304-55.861H130.251z M192.016,239.908c-1.564,2.662-3.035,5.399-4.563,8.101
			c-4.114,7.262-8.08,14.636-11.897,22.121c-1.396,2.737-2.813,5.456-4.171,8.229c-0.168,0.316-0.335,0.634-0.503,0.949h-69.79
			c14.096-26.571,30.333-51.43,48.339-74.481h65.229c-2.271,3.259-4.563,6.499-6.76,9.813
			C202.406,222.89,197.099,231.306,192.016,239.908z M246.388,111.724h51.449c-4.618,4.041-9.236,8.102-13.705,12.31
			c-3.763,3.537-7.411,7.225-11.062,10.911c-3.668,3.688-7.299,7.43-10.875,11.246c-3.444,3.688-6.908,7.337-10.278,11.137
			c-2.979,3.352-5.828,6.813-8.714,10.26h-61.485C201.717,146.786,223.298,128.035,246.388,111.724z M164.308,893.793h63.906
			c2.104,2.756,4.188,5.512,6.35,8.229c5.624,7.057,11.396,13.946,17.336,20.65c3.352,3.798,6.815,7.447,10.278,11.135
			c3.575,3.817,7.206,7.56,10.875,11.247c1.508,1.508,2.923,3.109,4.45,4.599h-56.012
			C201.046,932.914,181.923,914.22,164.308,893.793z M395.745,1034.528c-42.696-8.993-83.048-25.491-120.457-47.631h45.044
			c2.364,1.824,4.805,3.537,7.188,5.325c3.892,2.886,7.765,5.791,11.729,8.564c7.301,5.083,14.729,9.962,22.271,14.6
			c3.37,2.065,6.814,3.983,10.241,5.978c5.939,3.444,11.955,6.74,18.024,9.906C391.796,1032.293,393.715,1033.523,395.745,1034.528z
			 M586.551,1042.758c-14.785,0-29.402-0.875-43.832-2.532l-7.412-1.043c-0.912-0.13-1.824-0.279-2.736-0.391
			c-6.462-0.912-12.886-1.992-19.272-3.223c-0.484-0.093-0.97-0.205-1.473-0.298c-6.199-1.229-12.345-2.588-18.453-4.097
			c-0.854-0.205-1.693-0.465-2.551-0.67c-5.697-1.452-11.377-3.018-16.98-4.729c-1.64-0.503-3.24-1.08-4.879-1.602
			c-4.805-1.527-9.608-3.092-14.339-4.806c-3.725-1.358-7.411-2.849-11.098-4.318c-2.606-1.024-5.251-1.992-7.84-3.091
			c-100.143-42.382-183.19-125.69-233.708-232.183c-0.391-0.801-0.728-1.639-1.117-2.438c-2.793-5.959-5.493-11.992-8.082-18.101
			c-0.949-2.233-1.824-4.523-2.736-6.776c-1.938-4.749-3.836-9.497-5.643-14.319c-1.1-2.942-2.143-5.922-3.184-8.883
			c-1.49-4.228-2.979-8.453-4.377-12.736c-1.099-3.352-2.142-6.74-3.185-10.13c-1.229-4.003-2.421-8.007-3.557-12.047
			c-1.007-3.594-1.975-7.206-2.923-10.838c-1.024-3.947-2.013-7.933-2.961-11.917c-0.875-3.725-1.731-7.468-2.532-11.21
			c-0.857-3.984-1.657-8.008-2.421-12.028c-0.728-3.78-1.452-7.562-2.104-11.378c-0.707-4.152-1.341-8.342-1.955-12.55
			c-0.559-3.726-1.117-7.448-1.602-11.191c-0.577-4.487-1.023-9.012-1.509-13.537c-0.372-3.501-0.764-7.001-1.062-10.521
			c-0.447-5.178-0.745-10.409-1.043-15.643c-0.167-2.924-0.409-5.828-0.54-8.771c-0.279-8.211-0.484-16.46-0.484-24.766
			s0.205-16.555,0.541-24.766c0.131-2.942,0.372-5.848,0.539-8.771c0.299-5.232,0.597-10.446,1.043-15.643
			c0.299-3.52,0.709-7.02,1.063-10.521c0.466-4.525,0.931-9.051,1.509-13.537c0.483-3.743,1.042-7.468,1.601-11.191
			c0.615-4.188,1.248-8.379,1.957-12.55c0.65-3.817,1.377-7.598,2.104-11.378c0.782-4.021,1.564-8.044,2.421-12.028
			c0.801-3.762,1.657-7.485,2.532-11.21c0.949-3.984,1.937-7.97,2.961-11.917c0.949-3.632,1.918-7.244,2.923-10.838
			c1.136-4.04,2.328-8.044,3.558-12.047c1.023-3.39,2.066-6.778,3.166-10.13c1.396-4.283,2.886-8.51,4.375-12.736
			c1.062-2.961,2.086-5.939,3.185-8.883c1.807-4.822,3.706-9.57,5.643-14.319c0.912-2.253,1.807-4.543,2.737-6.776
			c2.588-6.107,5.288-12.142,8.081-18.101c0.372-0.818,0.727-1.639,1.117-2.438C252.533,193.711,335.582,110.42,435.723,68.04
			c2.589-1.08,5.231-2.05,7.84-3.093c3.687-1.471,7.354-2.96,11.098-4.318c4.729-1.713,9.534-3.277,14.339-4.806
			c1.639-0.521,3.239-1.099,4.879-1.601c5.604-1.714,11.283-3.277,16.98-4.729c0.857-0.224,1.695-0.466,2.553-0.671
			c6.106-1.509,12.252-2.866,18.452-4.097c0.483-0.093,0.968-0.205,1.472-0.298c6.367-1.229,12.792-2.309,19.272-3.222
			c0.912-0.13,1.824-0.279,2.736-0.392l7.412-1.043c14.393-1.657,29.01-2.532,43.795-2.532
			c241.287,0,437.586,225.533,437.586,502.759C1024.137,817.225,827.838,1042.758,586.551,1042.758z"/>
		<path fill="#3D4A5A" d="M721.627,889.194c-10.336,5.307-21.023,10.055-31.768,14.096c-9.627,3.612-14.488,14.356-10.855,23.983
			c2.793,7.467,9.887,12.066,17.428,12.066c2.18,0,4.395-0.393,6.574-1.21c12.064-4.545,24.076-9.869,35.658-15.811
			c9.143-4.692,12.756-15.921,8.063-25.063C742.035,888.114,730.805,884.483,721.627,889.194z"/>
		<path fill="#3D4A5A" d="M829.029,801.025c-7.43,9.144-15.307,17.933-23.424,26.125c-7.244,7.317-7.17,19.104,0.146,26.349
			c3.633,3.574,8.361,5.382,13.092,5.382c4.805,0,9.607-1.845,13.238-5.53c8.939-9.05,17.635-18.751,25.828-28.807
			c6.498-7.988,5.287-19.72-2.701-26.199C847.26,791.845,835.51,793.073,829.029,801.025z"/>
		<path fill="#3D4A5A" d="M586.551,922.171c-11.563,0-23.219-0.689-34.578-2.05c-10.484-1.043-19.496,6.09-20.707,16.293
			c-1.209,10.204,6.07,19.479,16.275,20.706c12.848,1.527,25.992,2.311,39.027,2.311h1.604c10.297,0,17.818-8.343,17.818-18.621
			S596.848,922.171,586.551,922.171z"/>
		<path fill="#3D4A5A" d="M341.596,226.073c-8.977,9.051-17.69,18.732-25.884,28.751c-6.518,7.971-5.325,19.7,2.645,26.199
			c3.464,2.83,7.635,4.208,11.77,4.208c5.399,0,10.763-2.327,14.431-6.834c7.43-9.104,15.325-17.876,23.48-26.088
			c7.243-7.299,7.206-19.086-0.111-26.329C360.626,218.738,348.839,218.756,341.596,226.073z"/>
		<path fill="#3D4A5A" d="M937.234,520.782c-10.297,0-18.621,8.938-18.621,19.218c0,11.487-0.428,22.995-1.303,34.225
			c-0.801,10.26,6.871,19.216,17.131,19.998c0.484,0.037,0.986,0.057,1.453,0.057c9.646,0,17.781-7.411,18.545-17.188
			c0.949-12.179,1.416-24.653,1.416-37.111v-1.21C955.855,528.511,947.531,520.782,937.234,520.782z"/>
		<path fill="#3D4A5A" d="M879.436,284.448c-7.205-10.632-14.99-21.04-23.127-30.946c-6.555-7.934-18.248-9.087-26.217-2.551
			c-7.934,6.534-9.068,18.267-2.553,26.218c7.41,9.012,14.506,18.49,21.061,28.173c3.594,5.324,9.479,8.174,15.438,8.174
			c3.594,0,7.225-1.042,10.428-3.202C882.975,304.541,885.209,292.959,879.436,284.448z"/>
		<path fill="#3D4A5A" d="M919.898,666.284c-9.758-3.313-20.314,1.955-23.592,11.693c-3.762,11.136-8.045,22.215-12.719,32.959
			c-4.115,9.422,0.225,20.408,9.646,24.505c2.42,1.063,4.953,1.546,7.41,1.546c7.207,0,14.041-4.189,17.094-11.19
			c5.084-11.713,9.738-23.797,13.836-35.938C934.889,680.139,929.656,669.563,919.898,666.284z"/>
		<path fill="#3D4A5A" d="M443.693,192.482c2.85,0,5.754-0.65,8.454-2.028c10.353-5.288,21.06-10.019,31.804-14.021
			c9.627-3.594,14.506-14.338,10.912-23.965c-3.594-9.646-14.264-14.543-23.965-10.912c-12.048,4.507-24.076,9.813-35.696,15.735
			c-9.143,4.674-12.792,15.9-8.118,25.063C430.378,188.795,436.916,192.482,443.693,192.482z"/>
		<path fill="#3D4A5A" d="M267.299,645.541c-2.495-9.98-12.662-16.069-22.568-13.574c-9.979,2.477-16.051,12.588-13.574,22.567
			c3.091,12.401,6.759,24.821,10.894,36.925c2.645,7.746,9.869,12.606,17.615,12.606c1.992,0,4.021-0.335,6.015-1.006
			c9.72-3.333,14.934-13.909,11.601-23.648C273.5,668.332,270.148,656.938,267.299,645.541z"/>
		<path fill="#3D4A5A" d="M280.222,343.85c-9.497-4.172-20.408,0.147-24.523,9.57c-5.103,11.656-9.795,23.74-13.929,35.92
			c-3.296,9.737,1.937,20.313,11.657,23.629c1.974,0.671,4.003,0.986,5.977,0.986c7.766,0,15.009-4.896,17.634-12.644
			c3.78-11.172,8.082-22.252,12.774-32.921C293.927,358.949,289.644,347.984,280.222,343.85z"/>
		<path fill="#3D4A5A" d="M254.488,540.408l-0.019-1.526c0.038-11.246,0.483-22.644,1.378-33.871
			c0.801-10.26-6.853-19.216-17.112-20.035c-10.018-0.689-19.197,6.853-20.017,17.094c-0.987,12.568-1.49,25.324-1.49,37.911
			l0.074,1.751c0.688,9.646,8.752,17.261,18.564,17.261C246.166,559.012,254.488,550.688,254.488,540.408z"/>
		<path fill="#3D4A5A" d="M324.037,774.006c-5.771-8.511-17.316-10.764-25.863-5.01c-8.511,5.772-10.744,17.336-4.99,25.864
			c7.3,10.781,15.046,21.209,23.053,30.984c3.688,4.487,9.012,6.814,14.412,6.814c4.152,0,8.323-1.378,11.787-4.228
			c7.97-6.535,9.104-18.248,2.605-26.218C337.779,793.353,330.703,783.857,324.037,774.006z"/>
		<path fill="#3D4A5A" d="M905.617,433.695c2.104,8.453,9.701,14.097,18.043,14.097c1.51,0,3.018-0.188,4.543-0.56
			c9.98-2.495,16.033-12.605,13.537-22.587c-3.107-12.383-6.777-24.803-10.93-36.906c-3.354-9.72-13.947-14.952-23.668-11.563
			c-9.719,3.333-14.914,13.928-11.582,23.667C899.379,410.94,902.75,422.335,905.617,433.695z"/>
		<path fill="#3D4A5A" d="M452.817,889.901c-10.278-5.213-20.427-11.098-30.128-17.466c-8.604-5.642-20.146-3.202-25.79,5.382
			c-5.623,8.604-3.221,20.147,5.382,25.771c10.855,7.112,22.178,13.668,33.703,19.515c2.7,1.378,5.568,2.011,8.398,2.011
			c6.796,0,13.351-3.724,16.628-10.186C465.666,905.766,462.016,894.556,452.817,889.901z"/>
		<path fill="#3D4A5A" d="M586.551,157.829c11.266,0,22.662,0.65,33.834,1.955c0.727,0.093,1.453,0.13,2.16,0.13
			c9.328,0,17.393-6.982,18.473-16.479c1.172-10.204-6.127-19.458-16.35-20.632c-12.59-1.471-25.418-2.216-38.117-2.216h-0.801
			c-10.299,0-18.229,8.343-18.229,18.621C567.521,149.486,576.254,157.829,586.551,157.829z"/>
		<path fill="#3D4A5A" d="M719.615,189.763c10.26,5.158,20.408,11.005,30.164,17.374c3.148,2.048,6.648,3.016,10.148,3.016
			c6.09,0,12.049-2.979,15.623-8.452c5.623-8.622,3.184-20.166-5.438-25.771c-10.912-7.113-22.252-13.648-33.74-19.421
			c-9.236-4.655-20.391-0.932-25.008,8.249C706.729,173.936,710.416,185.146,719.615,189.763z"/>
	</g>
	<text transform="matrix(1 0 0 1 462.3223 765.3284)" fill="#3D4A5A" font-family="'Arial-BoldMT'" font-size="600.884">₽</text>
</g>
</svg>
