<?xml version="1.0" encoding="utf-8"?>
<!-- Generator: Adobe Illustrator 21.0.0, SVG Export Plug-In . SVG Version: 6.00 Build 0)  -->
<svg version="1.1" id="Слой_1" xmlns="http://www.w3.org/2000/svg" xmlns:xlink="http://www.w3.org/1999/xlink" x="0px" y="0px"
	 viewBox="0 0 180 125" style="enable-background:new 0 0 180 125;" xml:space="preserve">
<style type="text/css">
	.st0{fill:#FFFFFF;}
	.st1{fill:#3D4A5A;}
</style>
<g id="Слой_2">
</g>
<g id="Слой_3">
	<ellipse class="st0" cx="74.1" cy="68.7" rx="16" ry="28"/>
	<ellipse class="st0" cx="120.1" cy="66.2" rx="16" ry="25.5"/>
	<ellipse class="st0" cx="28.1" cy="57.7" rx="15" ry="17"/>
	<path class="st0" d="M168.1,66.2c0,4.7-2.3,9.6-7.3,9.6s-12.8,2.7-10.7-9.6c0.8-4.6,4-8.5,9-8.5S168.1,61.5,168.1,66.2z"/>
</g>
<g id="Capa_1">
	<g>
		<path class="st1" d="M10.6,83.2l6.9-0.6c0.6,3.3,1.7,5.6,3.4,7.1s3.8,2.2,6.4,2.2c2.2,0,4.2-0.5,5.8-1.5c1.7-1,3-2.4,4.1-4.1
			s2-4,2.7-6.9s1.1-5.8,1.1-8.8c0-0.3,0-0.8,0-1.4c-1.4,2.3-3.4,4.2-5.9,5.6c-2.5,1.4-5.2,2.1-8.1,2.1c-4.9,0-9-1.8-12.3-5.3
			s-5-8.2-5-13.9c0-6,1.8-10.7,5.3-14.4c3.5-3.6,7.9-5.4,13.2-5.4c3.8,0,7.3,1,10.5,3.1c3.2,2.1,5.6,5,7.2,8.8s2.5,9.3,2.5,16.5
			c0,7.5-0.8,13.5-2.4,17.9s-4.1,7.8-7.3,10.1c-3.2,2.3-7,3.5-11.3,3.5c-4.6,0-8.3-1.3-11.3-3.8C13,91.4,11.2,87.8,10.6,83.2z
			 M40.1,57.3c0-4.1-1.1-7.4-3.3-9.9c-2.2-2.4-4.9-3.6-7.9-3.6c-3.2,0-6,1.3-8.4,3.9c-2.4,2.6-3.6,6-3.6,10.2c0,3.7,1.1,6.8,3.4,9.1
			c2.3,2.3,5,3.5,8.3,3.5s6.1-1.2,8.2-3.5C39.1,64.6,40.1,61.4,40.1,57.3z"/>
		<path class="st1" d="M55.1,67.8c0-6.9,0.7-12.5,2.1-16.8c1.4-4.2,3.6-7.5,6.4-9.8s6.4-3.4,10.6-3.4c3.1,0,5.9,0.6,8.3,1.9
			s4.3,3.1,5.9,5.5c1.5,2.4,2.8,5.3,3.6,8.7c0.9,3.4,1.3,8.1,1.3,13.9c0,6.9-0.7,12.4-2.1,16.7c-1.4,4.2-3.5,7.5-6.3,9.8
			s-6.4,3.5-10.7,3.5c-5.7,0-10.1-2-13.3-6.1C57.1,86.8,55.1,78.8,55.1,67.8z M62.6,67.8c0,9.6,1.1,16,3.4,19.2
			c2.3,3.2,5,4.8,8.3,4.8s6.1-1.6,8.3-4.8c2.3-3.2,3.4-9.6,3.4-19.2c0-9.7-1.1-16.1-3.4-19.3s-5.1-4.8-8.4-4.8s-6,1.4-7.9,4.2
			C63.8,51.5,62.6,58.2,62.6,67.8z"/>
		<path class="st1" d="M100.8,67.8c0-6.9,0.7-12.5,2.1-16.8c1.4-4.2,3.6-7.5,6.4-9.8s6.4-3.4,10.6-3.4c3.1,0,5.9,0.6,8.3,1.9
			s4.3,3.1,5.9,5.5c1.5,2.4,2.8,5.3,3.6,8.7c0.9,3.4,1.3,8.1,1.3,13.9c0,6.9-0.7,12.4-2.1,16.7c-1.4,4.2-3.5,7.5-6.3,9.8
			s-6.4,3.5-10.7,3.5c-5.7,0-10.1-2-13.3-6.1C102.7,86.8,100.8,78.8,100.8,67.8z M108.2,67.8c0,9.6,1.1,16,3.4,19.2
			c2.3,3.2,5,4.8,8.3,4.8s6.1-1.6,8.3-4.8c2.3-3.2,3.4-9.6,3.4-19.2c0-9.7-1.1-16.1-3.4-19.3c-2.3-3.2-5.1-4.8-8.4-4.8
			s-6,1.4-7.9,4.2C109.4,51.5,108.2,58.2,108.2,67.8z"/>
		<path class="st1" d="M151.6,79.3v3.9h15.8v3.7h-15.8v9.9h-5.2v-9.9h-2.7v-3.7h2.7v-3.9h-2.7v-4.5h2.7V57.4h12.3
			c3.5,0,6.2,0.4,8,1.1s3.3,1.9,4.4,3.7c1.1,1.8,1.6,3.8,1.6,5.9c0,2.2-0.4,4-1.2,5.4s-1.9,2.6-3.2,3.4c-1.3,0.9-2.9,1.4-4.6,1.8
			c-1.7,0.4-3.5,0.5-5.4,0.5L151.6,79.3L151.6,79.3z M158.4,74.7c1.2,0,2.3-0.1,3.4-0.3c1.1-0.2,2-0.5,2.9-1c0.8-0.5,1.5-1.2,2-2
			c0.5-0.9,0.7-1.9,0.7-3.3c0-1.2-0.2-2.1-0.7-3s-1-1.5-1.8-2s-1.7-0.9-2.7-1.1s-2.1-0.3-3.3-0.3h-7.3v13L158.4,74.7L158.4,74.7z"/>
	</g>
</g>
</svg>
