<svg id="Слой_1" data-name="Слой 1" xmlns="http://www.w3.org/2000/svg" viewBox="0 0 258.05 84.28"><defs><style>.cls-1,.cls-3,.cls-4,.cls-5,.cls-6,.cls-7,.cls-8{fill:#3d4a5a;stroke:#3d4a5a;stroke-miterlimit:10;stroke-width:1.8px;}.cls-2,.cls-3,.cls-4,.cls-5,.cls-6,.cls-7,.cls-8{isolation:isolate;}.cls-3,.cls-4,.cls-5,.cls-6,.cls-7,.cls-8{font-size:73.22px;font-family:Roboto-Regular, Roboto;}.cls-3{letter-spacing:-0.01em;}.cls-5{letter-spacing:-0.1em;}.cls-6{letter-spacing:-0.18em;}.cls-7{letter-spacing:-0.14em;}.cls-8{letter-spacing:-0.04em;}</style></defs><title>ruble2</title><g id="Capa_1" data-name="Capa 1"><path class="cls-1" d="M233.6,45.16V49h15.76v3.71H233.6v9.91h-5.21V52.73H225.7V49h2.69V45.16H225.7V40.64h2.69V23.27h12.33a22.83,22.83,0,0,1,8,1.07,8.68,8.68,0,0,1,4.38,3.73A11.18,11.18,0,0,1,254.74,34a11,11,0,0,1-1.21,5.43,9.51,9.51,0,0,1-3.21,3.42,13.18,13.18,0,0,1-4.59,1.79,27.69,27.69,0,0,1-5.36.51Zm6.77-4.51a20.26,20.26,0,0,0,3.44-.28,8.13,8.13,0,0,0,2.87-1,5.53,5.53,0,0,0,2-2,6.61,6.61,0,0,0,.73-3.29,6.1,6.1,0,0,0-.66-3,5.52,5.52,0,0,0-1.8-2A7.89,7.89,0,0,0,244.28,28a14.89,14.89,0,0,0-3.3-.35h-7.33v13h6.77Z" transform="translate(2.4 0.9)"/></g><g class="cls-2"><text class="cls-3" transform="translate(0.9 63.54)">о</text><text class="cls-4" transform="translate(41.87 63.54)">т</text><text class="cls-5" transform="translate(77.05 63.54)"> </text><text class="cls-6" transform="translate(87.85 63.54)">1</text><text class="cls-7" transform="translate(115.71 63.54)">1</text><text class="cls-8" transform="translate(146.5 63.54)">00</text></g></svg>