<?xml version="1.0" encoding="utf-8"?>
<!-- Generator: Adobe Illustrator 21.0.0, SVG Export Plug-In . SVG Version: 6.00 Build 0)  -->
<svg version="1.1" id="Слой_1" xmlns="http://www.w3.org/2000/svg" xmlns:xlink="http://www.w3.org/1999/xlink" x="0px" y="0px"
	 viewBox="0 0 1073.5 1080" style="enable-background:new 0 0 1073.5 1080;" xml:space="preserve">
<style type="text/css">
	.st0{fill:#3D4A5A;}
</style>
<path id="Layer_1" class="st0" d="M921,349.1c6.7-26.3,15.8-68,14.1-96.7C927.1,114.3,810.8,1.1,675.9,0c-0.7,0-1.4,0-2.1,0
	C564.7,0,467.4,70.4,429.2,172.6c-40-33.3-91.6-49.6-144.1-44.3c-74.8,7.4-140,60.2-166,134.5c-11.6,33.1-14.4,67-8.5,101.2
	C41.8,398-3.2,470.1-3.2,549.3c0,114.3,85.2,197.2,202.5,197.2h90v10.2c0,65.1,95.3,115.1,225,120.3v72.2
	c-19.1,6.8-34.1,21.8-40.9,40.9H311.8v45h161.6c9.3,26.1,34.1,45,63.4,45c29.3,0,54-18.9,63.4-45h161.6v-45H600.1
	c-6.8-19.1-21.8-34.1-40.9-40.9V877c129.7-5.2,225-55.1,225-120.3h-45c0,31.7-77,75.8-202.5,75.8c-125.5,0-202.5-44.1-202.5-75.8
	v-66.6c44,30.5,116.8,49.7,202.5,49.7c85.7,0,158.5-19.2,202.5-49.7v66.6h45v-29.3c27.8,13.8,58.7,21.3,90,21.3
	c111.7,0,202.5-90.8,202.5-202.5C1076.8,450.9,1011.4,370.3,921,349.1z M536.8,990c12.4,0,22.5,10.1,22.5,22.5
	c0,12.4-10.1,22.5-22.5,22.5c-12.4,0-22.5-10.1-22.5-22.5C514.3,1000.1,524.4,990,536.8,990z M739.3,619.1
	c0,31.7-77,75.8-202.5,75.8c-125.5,0-202.5-44.2-202.5-75.8v-66.6c44,30.5,116.8,49.7,202.5,49.7c85.7,0,158.5-19.2,202.5-49.7
	V619.1z M536.8,557.3c-125.5,0-202.5-44.2-202.5-75.8c0-31.7,77-75.8,202.5-75.8c125.5,0,202.5,44.1,202.5,75.8
	C739.3,513.1,662.2,557.3,536.8,557.3z M874.3,703.7c-32.8,0-63.5-10.3-90-28.9V481.5c0-68.9-106.4-120.8-247.5-120.8
	s-247.5,51.9-247.5,120.8v220.1h-90c-92.7,0-157.5-62.6-157.5-152.2c0-67.2,41.3-127.9,102.7-151l19.1-7.2l-5.3-19.7
	c-8.5-31.7-7.4-63.2,3.3-93.7c20.3-57.8,70.6-98.9,128.1-104.6c50.9-5,100.5,16.1,132.8,56.6l29.7,37.3l9.9-46.6
	C483.8,117.9,574,45.2,675.5,45c111.7,0.9,208.1,95.1,214.7,210c1.7,29.8-13.2,86.3-19.1,105.6l-8,26.2l27.3,2.8
	c80.6,8.2,141.4,75.5,141.4,156.7C1031.8,633.1,961.1,703.7,874.3,703.7z"/>
</svg>
