<?xml version="1.0" encoding="utf-8"?>
<!-- Generator: Adobe Illustrator 16.0.0, SVG Export Plug-In . SVG Version: 6.00 Build 0)  -->
<!DOCTYPE svg PUBLIC "-//W3C//DTD SVG 1.1//EN" "http://www.w3.org/Graphics/SVG/1.1/DTD/svg11.dtd">
<svg version="1.1" id="Слой_1" xmlns="http://www.w3.org/2000/svg" xmlns:xlink="http://www.w3.org/1999/xlink" x="0px" y="0px"
	 width="1073.515px" height="1080px" viewBox="0 0 1073.515 1080" enable-background="new 0 0 1073.515 1080" xml:space="preserve">
<g id="Слой_2">
	<ellipse fill="#FFFFFF" cx="675.591" cy="291.795" rx="241.523" ry="271.527"/>
	<ellipse fill="#FFFFFF" cx="306.554" cy="342.8" rx="187.52" ry="175.518"/>
	<ellipse fill="#FFFFFF" cx="220.632" cy="545.321" rx="191.604" ry="177.018"/>
	<ellipse fill="#FFFFFF" cx="536.077" cy="578.323" rx="246.024" ry="264.026"/>
	<ellipse fill="#FFFFFF" cx="823.357" cy="507.817" rx="147.766" ry="193.52"/>
	<ellipse fill="#FFFFFF" cx="932.117" cy="542.32" rx="123.012" ry="147.015"/>
	<ellipse fill="#FFFFFF" cx="879.189" cy="642.83" rx="94.932" ry="79.508"/>
	<ellipse fill="#FFFFFF" cx="452.819" cy="744.84" rx="146.266" ry="85.509"/>
	<ellipse fill="#FFFFFF" cx="675.591" cy="759.842" rx="91.508" ry="70.507"/>
	<ellipse fill="#FFFFFF" cx="610.326" cy="817.727" rx="36.762" ry="24.623"/>
	<ellipse fill="#FFFFFF" cx="539.078" cy="1015.845" rx="45.004" ry="44.483"/>
</g>
<g id="Layer_1">
	<g>
		<g>
			<path fill="#3D4A5A" d="M921.005,349.122c6.744-26.301,15.809-67.993,14.148-96.744C927.134,114.323,810.822,1.11,675.867,0.011
				c-0.703,0-1.396-0.011-2.1-0.011C564.664,0,467.421,70.4,429.188,172.639c-39.957-33.3-91.559-49.592-144.063-44.318
				c-74.795,7.438-139.977,60.228-166.047,134.494c-11.613,33.059-14.447,67.017-8.503,101.206
				C41.768,398.024-3.243,470.149-3.243,549.317c0,114.279,85.166,197.228,202.5,197.228h90v10.161
				c0,65.144,95.27,115.064,225,120.276v72.164c-19.063,6.796-34.057,21.793-40.854,40.854H311.757v45h161.648
				c9.318,26.134,34.061,45,63.354,45c29.295,0,54.036-18.866,63.354-45h161.646v-45H600.113
				c-6.795-19.063-21.791-34.06-40.854-40.854v-72.164c129.73-5.212,225-55.134,225-120.276h-45
				c0,31.651-77.035,75.795-202.5,75.795c-125.463,0-202.5-44.144-202.5-75.795v-66.563c44.029,30.496,116.768,49.742,202.5,49.742
				c85.735,0,158.473-19.246,202.5-49.742v66.551h45v-29.28c27.832,13.798,58.656,21.315,90,21.315
				c111.654,0,202.5-90.846,202.5-202.5C1076.757,450.857,1011.421,370.282,921.005,349.122z M536.757,990
				c12.405,0,22.5,10.096,22.5,22.5c0,12.402-10.096,22.5-22.5,22.5c-12.402,0-22.5-10.098-22.5-22.5
				C514.257,1000.096,524.354,990,536.757,990z M739.257,619.078c0,31.651-77.035,75.807-202.5,75.807
				c-125.463,0-202.5-44.154-202.5-75.807v-66.551c44.029,30.496,116.768,49.741,202.5,49.741c85.733,0,158.471-19.245,202.5-49.741
				V619.078z M536.757,557.27c-125.463,0-202.5-44.153-202.5-75.805c0-31.652,77.037-75.795,202.5-75.795
				c125.465,0,202.5,44.143,202.5,75.795C739.257,513.115,662.222,557.27,536.757,557.27z M874.257,703.729
				c-32.77,0-63.521-10.257-90-28.867V481.465c0-68.863-106.402-120.795-247.5-120.795c-141.098,0-247.5,51.932-247.5,120.795
				v220.078h-90c-92.735,0-157.5-62.602-157.5-152.228c0-67.248,41.265-127.926,102.677-150.996l19.129-7.175l-5.307-19.731
				c-8.525-31.685-7.428-63.215,3.273-93.701c20.313-57.832,70.576-98.898,128.057-104.611
				c50.855-4.999,100.514,16.095,132.813,56.634l29.686,37.255l9.922-46.581c21.83-102.48,111.961-175.211,213.487-175.396
				c111.73,0.912,208.059,95.108,214.727,209.971c1.725,29.807-13.184,86.33-19.072,105.602l-8.02,26.201l27.258,2.77
				c80.596,8.172,141.371,75.54,141.371,156.674C1031.757,633.075,961.105,703.729,874.257,703.729z"/>
		</g>
	</g>
</g>
</svg>
