<?xml version="1.0" encoding="utf-8"?>
<!-- Generator: Adobe Illustrator 21.0.0, SVG Export Plug-In . SVG Version: 6.00 Build 0)  -->
<svg version="1.1" id="Слой_1" xmlns="http://www.w3.org/2000/svg" xmlns:xlink="http://www.w3.org/1999/xlink" x="0px" y="0px"
	 viewBox="0 0 218.6 217.7" style="enable-background:new 0 0 218.6 217.7;" xml:space="preserve">
<style type="text/css">
	.st0{fill:#3D4A5A;}
</style>
<path id="Слой_6" class="st0" d="M20.1,44.8c1.8-0.8,2.6-3,1.8-4.8c-0.8-1.8-3-2.6-4.8-1.8c-2.5,1.1-4.9,2.7-7,4.5
	c-1.5,1.3-1.7,3.6-0.4,5.1c0.7,0.8,1.7,1.3,2.8,1.3c0.8,0,1.7-0.3,2.4-0.9C16.4,46.8,18.2,45.7,20.1,44.8z M32.8,42.9h7.3
	c2,0,3.6-1.6,3.6-3.6c0-2-1.6-3.6-3.6-3.6h-7.3c-2,0-3.6,1.6-3.6,3.6C29.1,41.2,30.8,42.9,32.8,42.9z M54.6,42.9h7.3
	c2,0,3.6-1.6,3.6-3.6c0-2-1.6-3.6-3.6-3.6h-7.3c-2,0-3.6,1.6-3.6,3.6C51,41.2,52.6,42.9,54.6,42.9z M40.1,86.6h-7.3
	c-2,0-3.6,1.6-3.6,3.6c0,2,1.6,3.6,3.6,3.6h7.3c2,0,3.6-1.6,3.6-3.6C43.7,88.2,42.1,86.6,40.1,86.6z M83.8,86.6h-7.3
	c-2,0-3.6,1.6-3.6,3.6c0,2,1.6,3.6,3.6,3.6h7.3c2,0,3.6-1.6,3.6-3.6C87.4,88.2,85.8,86.6,83.8,86.6z M61.9,86.6h-7.3
	c-2,0-3.6,1.6-3.6,3.6c0,2,1.6,3.6,3.6,3.6h7.3c2,0,3.6-1.6,3.6-3.6C65.6,88.2,63.9,86.6,61.9,86.6z M20.1,84.6
	c-1.9-0.9-3.7-2-5.2-3.4c-1.5-1.3-3.8-1.2-5.1,0.4c-1.3,1.5-1.1,3.8,0.4,5.1c2.1,1.8,4.4,3.3,7,4.5c0.5,0.2,1,0.3,1.5,0.3
	c1.4,0,2.7-0.8,3.3-2.1C22.7,87.6,21.9,85.4,20.1,84.6z M105.6,86.6h-7.3c-2,0-3.6,1.6-3.6,3.6c0,2,1.6,3.6,3.6,3.6h7.3
	c2,0,3.6-1.6,3.6-3.6C109.3,88.2,107.7,86.6,105.6,86.6z M171.2,86.6h-7.3c-2,0-3.6,1.6-3.6,3.6c0,2,1.6,3.6,3.6,3.6h7.3
	c2,0,3.6-1.6,3.6-3.6C174.9,88.2,173.2,86.6,171.2,86.6z M193.1,86.6h-7.3c-2,0-3.6,1.6-3.6,3.6c0,2,1.6,3.6,3.6,3.6h7.3
	c2,0,3.6-1.6,3.6-3.6C196.7,88.2,195.1,86.6,193.1,86.6z M127.5,86.6h-7.3c-2,0-3.6,1.6-3.6,3.6c0,2,1.6,3.6,3.6,3.6h7.3
	c2,0,3.6-1.6,3.6-3.6C131.1,88.2,129.5,86.6,127.5,86.6z M149.4,86.6h-7.3c-2,0-3.6,1.6-3.6,3.6c0,2,1.6,3.6,3.6,3.6h7.3
	c2,0,3.6-1.6,3.6-3.6C153,88.2,151.4,86.6,149.4,86.6z M20.1,193.9c-1.9-0.9-3.7-2-5.2-3.4c-1.5-1.3-3.8-1.1-5.1,0.4
	c-1.3,1.5-1.1,3.8,0.4,5.1c2.1,1.8,4.4,3.3,7,4.5c0.5,0.2,1,0.3,1.5,0.3c1.4,0,2.7-0.8,3.3-2.1C22.7,196.9,21.9,194.7,20.1,193.9z
	 M61.9,195.9h-7.3c-2,0-3.6,1.6-3.6,3.6s1.6,3.6,3.6,3.6h7.3c2,0,3.6-1.6,3.6-3.6C65.6,197.5,63.9,195.9,61.9,195.9z M40.1,195.9
	h-7.3c-2,0-3.6,1.6-3.6,3.6s1.6,3.6,3.6,3.6h7.3c2,0,3.6-1.6,3.6-3.6C43.7,197.5,42.1,195.9,40.1,195.9z M127.5,195.9h-7.3
	c-2,0-3.6,1.6-3.6,3.6s1.6,3.6,3.6,3.6h7.3c2,0,3.6-1.6,3.6-3.6C131.1,197.5,129.5,195.9,127.5,195.9z M138.4,199.5
	c0,2,1.6,3.6,3.6,3.6h7.3c2,0,3.6-1.6,3.6-3.6s-1.6-3.6-3.6-3.6h-7.3C140.1,195.9,138.4,197.5,138.4,199.5z M163.9,203.1h7.3
	c2,0,3.6-1.6,3.6-3.6s-1.6-3.6-3.6-3.6h-7.3c-2,0-3.6,1.6-3.6,3.6C160.3,201.5,161.9,203.1,163.9,203.1z M105.6,195.9h-7.3
	c-2,0-3.6,1.6-3.6,3.6s1.6,3.6,3.6,3.6h7.3c2,0,3.6-1.6,3.6-3.6C109.3,197.5,107.7,195.9,105.6,195.9z M185.8,203.1h7.3
	c2,0,3.6-1.6,3.6-3.6s-1.6-3.6-3.6-3.6h-7.3c-2,0-3.6,1.6-3.6,3.6S183.8,203.1,185.8,203.1z M83.8,195.9h-7.3c-2,0-3.6,1.6-3.6,3.6
	s1.6,3.6,3.6,3.6h7.3c2,0,3.6-1.6,3.6-3.6C87.4,197.5,85.8,195.9,83.8,195.9z M160.3,141.2c0,8,6.5,14.6,14.6,14.6
	c8,0,14.6-6.5,14.6-14.6c0-8-6.5-14.6-14.6-14.6S160.3,133.2,160.3,141.2z M174.8,133.9c4,0,7.3,3.3,7.3,7.3s-3.3,7.3-7.3,7.3
	c-4,0-7.3-3.3-7.3-7.3C167.6,137.2,170.8,133.9,174.8,133.9z M156.4,21L136.6,1.2c-1.6-1.6-4.2-1.6-5.9,0l-7.5,7.5l-7.5-7.5
	c-1.6-1.6-4.2-1.6-5.9,0L90.2,21H29.1C13.1,21,0,34.1,0,50.2v141.5c0,14.4,11.7,26.1,26.1,26.1h192.5v-51v-51V79.3V72V21H156.4
	L156.4,21z M133.7,8.6L146.1,21l51,51h-19.6l-41-41c-1.5-1.5-4-1.5-5.5,0l-41,41H70.3l58.2-58.2l0,0L133.7,8.6z M167.2,72h-67
	l33.5-33.5L167.2,72z M112.9,8.6l5.2,5.2L60,72H49.5l51-51L112.9,8.6z M29.1,28.3h53.8l-7.5,7.5c-1.1,0.4-1.9,1.2-2.3,2.3L39.2,72
	H29.1C17.1,72,7.3,62.2,7.3,50.2C7.3,38.1,17.1,28.3,29.1,28.3z M211.3,159.4h-40.1c-10,0-18.2-8.2-18.2-18.2
	c0-10,8.2-18.2,18.2-18.2h40.1L211.3,159.4L211.3,159.4z M211.3,86.6h-3.6c-2,0-3.6,1.6-3.6,3.6c0,2,1.6,3.6,3.6,3.6h3.6v21.9h-40.1
	c-14.1,0-25.5,11.4-25.5,25.5c0,14.1,11.4,25.5,25.5,25.5h40.1v29.1h-3.6c-2,0-3.6,1.6-3.6,3.6s1.6,3.6,3.6,3.6h3.6v7.3H26.1
	c-10.3,0-18.8-8.4-18.8-18.8v-8c0.9-0.9,1.3-2.2,0.9-3.5c-0.6-2-0.9-4.1-0.9-6.2V74.4c0.9-0.9,1.3-2.2,0.9-3.5
	c-0.1-0.2-0.1-0.5-0.2-0.7c0.3,0.3,0.7,0.7,1,1c0.3,0.3,0.6,0.6,1,0.9c0.4,0.4,0.8,0.7,1.3,1c0.3,0.3,0.7,0.5,1,0.8
	c0.4,0.3,0.9,0.6,1.4,0.9c0.4,0.2,0.7,0.5,1.1,0.7c0.5,0.3,1,0.5,1.5,0.8c0.4,0.2,0.8,0.4,1.2,0.6c0.5,0.2,1.1,0.4,1.6,0.6
	c0.4,0.1,0.8,0.3,1.2,0.4c0.6,0.2,1.2,0.3,1.7,0.5c0.4,0.1,0.8,0.2,1.2,0.3c0.7,0.1,1.3,0.2,2,0.3c0.3,0,0.7,0.1,1,0.2
	c1,0.1,2.1,0.2,3.1,0.2H43h10.3h10.5h10.3h18.1h83.1h18h10.3h7.7L211.3,86.6L211.3,86.6z M207.4,72l-29.1-29.1h0.2
	c2,0,3.6-1.6,3.6-3.6s-1.6-3.6-3.6-3.6h-7.3c-0.1,0-0.1,0-0.2,0l-7.3-7.3h47.6V72L207.4,72L207.4,72L207.4,72z M200.3,35.6h-7.3
	c-2,0-3.6,1.6-3.6,3.6c0,2,1.6,3.6,3.6,3.6h7.3c2,0,3.6-1.6,3.6-3.6C204,37.2,202.4,35.6,200.3,35.6z"/>
</svg>
