<?xml version="1.0" encoding="utf-8"?>
<!-- Generator: Adobe Illustrator 16.0.0, SVG Export Plug-In . SVG Version: 6.00 Build 0)  -->
<!DOCTYPE svg PUBLIC "-//W3C//DTD SVG 1.1//EN" "http://www.w3.org/Graphics/SVG/1.1/DTD/svg11.dtd">
<svg version="1.1" id="Слой_1" xmlns="http://www.w3.org/2000/svg" xmlns:xlink="http://www.w3.org/1999/xlink" x="0px" y="0px"
	 width="218.563px" height="217.719px" viewBox="0 0 218.563 217.719" enable-background="new 0 0 218.563 217.719"
	 xml:space="preserve">
<g id="Слой_3" display="none">
	
		<circle display="inline" fill="none" stroke="#FF151F" stroke-width="11" stroke-miterlimit="10" cx="991.114" cy="458.249" r="229.023"/>
</g>
<g id="Слой_2_1_">
	<path fill="#FFFFFF" d="M218.563,202.871c0,6.521-5.323,11.808-11.89,11.808H16.626c-6.565,0-11.89-5.286-11.89-11.808V38.559
		c0-6.521,5.322-11.808,11.89-11.808h190.047c6.563,0,11.89,5.286,11.89,11.808V202.871z"/>
	
		<rect x="111.849" y="15.113" transform="matrix(0.7071 -0.7071 0.7071 0.7071 13.5887 103.9998)" fill="#FFFFFF" width="40.968" height="40.968"/>
	
		<rect x="91.163" y="12.616" transform="matrix(0.7071 -0.7071 0.7071 0.7071 9.2953 88.64)" fill="#FFFFFF" width="40.97" height="40.967"/>
</g>
<g id="Слой_2" display="none">
	<path display="inline" fill="#FFFFFF" d="M1278.533,367.855c0,56.713,2.767,99.313-58.699,99.313
		c-61.465,0-163.882-42.604-163.882-99.313s46.308-101.215,107.771-101.215C1225.19,266.64,1278.533,311.144,1278.533,367.855z"/>
</g>
<g id="Capa_1" display="none">
	<g display="inline">
		<path fill="#3D4A5A" d="M1124.723,257.53c3.029,0,5.49-2.452,5.49-5.488v-5.49c0-3.037-2.461-5.491-5.49-5.491
			c-3.028,0-5.489,2.454-5.489,5.491v5.49C1119.231,255.073,1121.693,257.53,1124.723,257.53z"/>
		<path fill="#3D4A5A" d="M1119.231,482.651v5.49c0,3.036,2.462,5.491,5.49,5.491c3.029,0,5.49-2.455,5.49-5.491v-5.49
			c0-3.036-2.461-5.491-5.49-5.491C1121.693,477.156,1119.231,479.615,1119.231,482.651z"/>
		<path fill="#3D4A5A" d="M1245.52,372.835c3.029,0,5.49-2.455,5.49-5.491s-2.461-5.49-5.49-5.49h-5.489
			c-3.031,0-5.49,2.454-5.49,5.49s2.459,5.491,5.49,5.491H1245.52z"/>
		<path fill="#3D4A5A" d="M1003.926,361.854c-3.031,0-5.492,2.454-5.492,5.49s2.461,5.491,5.492,5.491h5.49
			c3.031,0,5.49-2.455,5.49-5.491s-2.459-5.49-5.49-5.49H1003.926z"/>
		<path fill="#3D4A5A" d="M1206.254,291.297c1.406,0,2.813-0.538,3.883-1.608l3.881-3.882c2.148-2.146,2.148-5.617,0-7.765
			c-2.146-2.146-5.612-2.146-7.764,0l-3.881,3.883c-2.148,2.146-2.148,5.616,0,7.764
			C1203.445,290.765,1204.85,291.297,1206.254,291.297z"/>
		<path fill="#3D4A5A" d="M1039.309,444.991l-3.883,3.884c-2.146,2.146-2.146,5.616,0,7.766c1.07,1.07,2.479,1.605,3.883,1.605
			c1.404,0,2.813-0.535,3.881-1.605l3.886-3.883c2.146-2.146,2.146-5.616,0-7.767
			C1044.924,442.848,1041.449,442.848,1039.309,444.991z"/>
		<path fill="#3D4A5A" d="M1047.073,281.925l-3.884-3.883c-2.146-2.146-5.616-2.146-7.766,0c-2.146,2.146-2.146,5.617,0,7.765
			l3.883,3.882c1.07,1.07,2.478,1.608,3.884,1.608c1.403,0,2.811-0.538,3.883-1.608
			C1049.219,287.547,1049.219,284.072,1047.073,281.925z"/>
		<path fill="#3D4A5A" d="M1124.723,203.286c-90.828,0-164.723,73.895-164.723,164.723s73.895,164.723,164.723,164.723
			c19.638,0,38.869-3.432,57.183-10.208c2.844-1.049,4.295-4.211,3.246-7.05c-1.058-2.854-4.207-4.305-7.06-3.245
			c-17.088,6.314-35.041,9.521-53.369,9.521c-84.771,0-153.742-68.973-153.742-153.741c0-84.771,68.972-153.742,153.742-153.742
			c84.771,0,153.74,68.97,153.74,153.742c0,18.338-3.207,36.288-9.525,53.361c-1.049,2.853,0.4,6.01,3.244,7.058
			c2.847,1.069,6.002-0.396,7.058-3.238c6.774-18.301,10.209-37.535,10.209-57.181
			C1289.447,277.181,1215.551,203.286,1124.723,203.286z"/>
	</g>
	<g display="inline">
		<path fill="#3D4A5A" d="M1209.039,475.781v9.771h39.83v9.36h-39.83v25.039h-13.164v-25.039h-6.785v-9.36h6.785v-9.771h-6.785
			v-11.396h6.785V420.48h31.145c8.912,0,15.652,0.906,20.224,2.715c4.614,1.766,8.301,4.908,11.061,9.435
			c2.763,4.521,4.144,9.521,4.144,14.993c0,5.521-1.021,10.091-3.058,13.707c-2.034,3.619-4.735,6.503-8.104,8.651
			c-3.371,2.149-7.238,3.653-11.604,4.513c-4.365,0.86-8.879,1.289-13.536,1.289L1209.039,475.781L1209.039,475.781z
			 M1226.139,464.382c3.029,0,5.929-0.238,8.688-0.713c2.758-0.478,5.178-1.349,7.26-2.612c2.08-1.269,3.732-2.978,4.953-5.123
			c1.223-2.148,1.832-4.92,1.832-8.313c0-2.938-0.555-5.429-1.662-7.464c-1.106-2.036-2.623-3.695-4.547-4.984
			c-1.922-1.29-4.172-2.229-6.75-2.816c-2.58-0.587-5.361-0.882-8.348-0.882h-18.523v32.91L1226.139,464.382L1226.139,464.382z"/>
	</g>
	<g display="inline">
		<path fill="#3D4A5A" d="M1093.701,350.323c0,5.188-0.732,9.854-2.195,14.001c-1.465,4.15-3.602,8.207-6.406,12.172
			c-9.026,12.813-15.924,19.221-20.682,19.221c-1.465,0-2.686-0.55-3.662-1.647c-0.977-1.099-1.463-2.38-1.463-3.844
			c0-1.098,0.486-2.229,1.463-3.386c0.609-0.671,1.922-1.982,3.938-3.938c4.881-4.636,8.754-9.271,11.623-13.909h-0.095
			c-2.379,1.101-5.274,1.646-8.69,1.646c-5.553,0-10.066-2.196-13.545-6.589c-3.172-4.026-4.761-8.906-4.761-14.645
			c0-6.589,2.15-12.094,6.451-16.519c4.304-4.422,9.746-6.634,16.336-6.634c6.953,0,12.386,2.315,16.289,6.952
			C1091.902,337.545,1093.701,343.246,1093.701,350.323z M1071.647,337.148c-3.233,0-5.768,1.175-7.598,3.523
			c-1.83,2.348-2.744,5.17-2.744,8.465c0,3.417,0.765,6.162,2.287,8.233c1.707,2.319,4.209,3.479,7.504,3.479
			c3.232,0,5.813-1.037,7.732-3.112c1.922-2.073,2.883-4.727,2.883-7.961c0-3.538-0.764-6.437-2.287-8.693
			C1077.596,338.46,1075.002,337.148,1071.647,337.148z"/>
		<path fill="#3D4A5A" d="M1148.881,360.941c0,9.457-1.646,17.205-4.941,23.244c-4.146,7.627-10.555,11.438-19.217,11.438
			c-8.664,0-15.067-3.813-19.219-11.438c-3.293-6.039-4.941-13.787-4.941-23.244c0-9.456,1.617-17.173,4.854-23.152
			c4.146-7.626,10.584-11.438,19.309-11.438c8.726,0,15.16,3.813,19.312,11.438C1147.264,343.768,1148.881,351.485,1148.881,360.941
			z M1136.986,360.895c0-5.928-0.673-10.91-2.015-14.944c-2.074-6.052-5.461-9.077-10.156-9.077c-4.819,0-8.235,2.995-10.25,8.985
			c-1.403,4.035-2.104,9.047-2.104,15.036c0,16.138,4.119,24.205,12.354,24.205c4.759,0,8.146-3.056,10.156-9.168
			C1136.313,371.959,1136.986,366.947,1136.986,360.895z"/>
		<path fill="#3D4A5A" d="M1202.141,360.941c0,9.457-1.646,17.205-4.938,23.244c-4.148,7.627-10.558,11.438-19.218,11.438
			c-8.663,0-15.069-3.813-19.221-11.438c-3.293-6.039-4.938-13.787-4.938-23.244c0-9.456,1.616-17.173,4.852-23.152
			c4.146-7.626,10.584-11.438,19.312-11.438c8.723,0,15.159,3.813,19.309,11.438
			C1200.525,343.768,1202.141,351.485,1202.141,360.941z M1190.244,360.895c0-5.928-0.672-10.91-2.012-14.944
			c-2.076-6.052-5.461-9.077-10.158-9.077c-4.82,0-8.236,2.995-10.25,8.985c-1.404,4.035-2.105,9.047-2.105,15.036
			c0,16.138,4.119,24.205,12.355,24.205c4.758,0,8.145-3.056,10.158-9.168C1189.573,371.959,1190.244,366.947,1190.244,360.895z"/>
	</g>
</g>
<g id="Слой_4" display="none">
	<g display="inline">
		<path fill="#3D4A5A" d="M1120.686,456.549c-10.305,0-18.688,8.382-18.688,18.688c0,10.309,8.383,18.688,18.688,18.688
			c10.308,0,18.688-8.382,18.688-18.688C1139.374,464.931,1130.99,456.549,1120.686,456.549z M1120.686,483.242
			c-4.412,0-8.008-3.593-8.008-8.009s3.594-8.009,8.008-8.009c4.416,0,8.012,3.593,8.012,8.009
			C1128.696,479.652,1125.109,483.242,1120.686,483.242z"/>
		<path fill="#3D4A5A" d="M1006.076,304.698l18.875,18.875c1.04,1.041,2.408,1.564,3.771,1.564c1.366,0,2.733-0.524,3.775-1.564
			c2.088-2.088,2.088-5.462,0-7.55l-11.704-11.704c5.878-8.89,5.878-20.556,0-29.444l23.407-23.414
			c8.654,5.757,20.785,5.757,29.453,0l11.701,11.705c2.089,2.087,5.465,2.087,7.552,0c2.088-2.088,2.088-5.462,0-7.553l-18.88-18.88
			l-3.774,3.775c-6.055,6.049-16.601,6.049-22.654,0l-3.772-3.775l-37.756,37.755l3.772,3.774c6.242,6.248,6.242,16.408,0,22.653
			L1006.076,304.698z"/>
		<path fill="#3D4A5A" d="M1165.025,342.835c-5.877,8.891-5.877,20.557,0,29.444l-23.406,23.413c-8.667-5.761-20.797-5.761-29.453,0
			l-11.703-11.704c-2.088-2.088-5.463-2.088-7.551,0c-2.087,2.088-2.087,5.462,0,7.55l18.881,18.884l3.772-3.775
			c6.057-6.056,16.603-6.045,22.653,0l3.777,3.775l37.753-37.758l-3.775-3.772c-6.237-6.246-6.237-16.408,0-22.655l3.775-3.771
			l-18.874-18.875c-2.088-2.09-5.461-2.09-7.55,0c-2.088,2.088-2.088,5.462,0,7.55L1165.025,342.835z"/>
		<circle fill="#3D4A5A" cx="1187.3" cy="357.555" r="5.34"/>
		<circle fill="#3D4A5A" cx="1126.892" cy="417.966" r="5.339"/>
		<path fill="#3D4A5A" d="M1062.706,232.966c2.087-2.088,4.046-5.468,1.965-7.551c-2.087-2.087-5.467-2.087-7.552,0
			c-2.087,2.088-4.047,5.467-1.964,7.551C1057.244,235.048,1060.624,235.048,1062.706,232.966z"/>
		<circle fill="#3D4A5A" cx="998.527" cy="289.595" r="5.339"/>
		<path fill="#3D4A5A" d="M1208.786,389.806c0-4.698-0.765-9.313-2.205-13.776l18.448-18.447l-24.32-24.626
			c5.035-4.482,8.077-10.942,8.077-17.9c0-13.247-10.78-24.027-24.027-24.027c-0.972,0-1.933,0.099-2.883,0.214
			c0.116-0.948,0.213-1.903,0.213-2.884c0-13.247-10.78-24.024-24.024-24.024c-0.974,0-1.935,0.096-2.885,0.213
			c0.118-0.95,0.215-1.906,0.215-2.882c0-13.248-10.78-24.028-24.026-24.028c-0.974,0-1.933,0.097-2.884,0.214
			c0.115-0.951,0.213-1.906,0.213-2.884c0-13.919-9.279-24.027-22.063-24.027c-6.981,0-14.028,3.022-18.922,7.594l-26.75-27.081
			l-100.229,98.104l49.353,49.355c-2.639,3.854-4.188,8.509-4.188,13.521c0,8.351,4.295,15.708,10.778,20.011
			c0.32,0.428,0.705,0.86,1.207,1.288l57.428,57.211v9.59h-10.68v69.412h96.109h42.713V440.53h-10.676v-16.173
			C1202.989,415.699,1208.786,403.255,1208.786,389.806z M1016.569,352.43c0-3.509,1.389-6.68,3.604-9.063l0.816-0.747
			c1.855-1.694,4.091-2.816,6.441-3.289c0.81-0.152,1.631-0.251,2.479-0.251h11.751h41.642c7.36,0,13.353,5.986,13.353,13.352
			c0,0.864-0.099,1.702-0.258,2.522c-1.125,5.617-5.928,10.104-11.854,10.676l-1.585,0.147h-30.917h-15.099h-7.032
			C1022.559,365.778,1016.569,359.793,1016.569,352.43z M1062.711,293.37c16.653-16.653,43.751-16.653,60.404,0
			c8.068,8.065,12.51,18.8,12.51,30.203c0,11.404-4.441,22.14-12.51,30.206c-5.366,5.365-12.024,9.124-19.212,11.024
			c0.578-0.955,1.08-1.959,1.521-2.995c0.027-0.064,0.044-0.138,0.075-0.202c0.507-1.224,0.886-2.505,1.188-3.819
			c0.082-0.341,0.148-0.679,0.217-1.02c0.255-1.415,0.437-2.852,0.437-4.34c0-13.248-10.78-24.028-24.025-24.028h-32.813
			C1049.022,315.49,1053.431,302.65,1062.711,293.37z M1198.109,315.053c0,4.047-1.854,7.807-4.906,10.295l-18.624-18.859
			c2.498-2.974,6.188-4.79,10.182-4.79C1192.123,301.702,1198.109,307.691,1198.109,315.053z M1171.411,288.357
			c0,3.968-1.8,7.638-4.741,10.129l-18.624-18.856c2.493-2.867,6.104-4.624,10.017-4.624
			C1165.425,275.008,1171.411,280.994,1171.411,288.357z M1144.713,261.66c0,3.881-1.74,7.474-4.575,9.963l-18.624-18.854
			c2.487-2.761,6.021-4.453,9.851-4.453C1138.729,248.312,1144.713,254.297,1144.713,261.66z M1106.633,221.614
			c7.863,0,11.385,6.707,11.385,13.351c0,3.802-1.677,7.31-4.403,9.793l-18.421-18.651
			C1098.095,223.472,1102.452,221.614,1106.633,221.614z M1060.83,206.514l20.848,21.104l-0.462,1.046l26.698,26.693l3.06,3.063
			l23.642,23.638l3.059,3.06l23.641,23.64l3.059,3.06l26.698,26.696l0.084-0.038l18.829,19.062l-82.998,82.997h-0.179l-64.069-64.07
			h20.576c0.547,0,1.059-0.124,1.599-0.161c2.66,0.404,5.323,0.625,7.977,0.625c14.062,0,27.729-5.542,37.775-15.593
			c10.087-10.086,15.642-23.491,15.642-37.755c0-14.262-5.555-27.674-15.642-37.754c-20.813-20.813-54.69-20.813-75.509,0
			c-11.314,11.313-16.831,26.861-15.377,42.586h-9.862c-1.411,0-2.793,0.171-4.165,0.421c-0.442,0.081-0.881,0.166-1.313,0.27
			c-0.993,0.24-1.966,0.545-2.916,0.907c-0.827,0.311-1.615,0.684-2.396,1.084c-0.392,0.203-0.795,0.368-1.175,0.587l-42.033-42.04
			L1060.83,206.514z M1084.101,424.427c-0.236-0.208-0.489-0.396-0.96-0.747l-47.396-47.225h11.889l64.072,64.073h-25.72v-14.513
			L1084.101,424.427z M1075.303,499.263v-48.054h40.994h3.989c0.741,0,1.475,0.058,2.199,0.109l4.397,4.4l2.921-2.921
			c11.752,3.98,20.24,15.095,20.24,28.171v18.292L1075.303,499.263L1075.303,499.263z M1192.768,499.263h-32.035v-18.292
			c0-11.779-5.096-22.367-13.153-29.762h45.188V499.263L1192.768,499.263z M1142.081,440.531l19.911-19.911l35.759-35.759
			c0.24,1.634,0.356,3.279,0.356,4.945c0,10.972-5.063,21.075-13.896,27.717l-2.125,1.604v21.403H1142.081z"/>
	</g>
</g>
<g id="Слой_5" display="none">
	<g display="inline">
		<path fill="#3D4A5A" d="M1280.348,271.51h-21.351v-10.675v-32.026v-21.431c0-8.786-7.146-15.935-15.933-15.935h-21.514
			c-8.784,0-15.933,7.146-15.933,15.935v21.431v32.026v10.675H960.09v176.142h245.53v12.094l21.35,37.364v9.255
			c0,2.951,2.395,5.338,5.339,5.338c2.946,0,5.338-2.387,5.338-5.338v-9.255l21.353-37.364v-12.094h21.351L1280.348,271.51
			L1280.348,271.51z M1248.323,250.16h-32.024v-10.678h32.024V250.16z M1216.297,207.379c0-2.898,2.359-5.257,5.257-5.257h21.511
			c2.898,0,5.26,2.356,5.26,5.257v21.431H1216.3L1216.297,207.379L1216.297,207.379z M970.768,436.976V282.185h234.854v154.791
			H970.768z M1232.309,484.93l-12.15-21.268h24.309L1232.309,484.93z M1248.323,452.989h-32.024v-5.337V271.51v-10.675h32.024
			v10.675v176.142V452.989z M1269.672,436.976h-10.675V282.185h10.675V436.976z"/>
		<path fill="#3D4A5A" d="M1168.258,330.224h-16.013c-2.946,0-5.338,2.385-5.338,5.337c0,2.951,2.392,5.338,5.338,5.338h16.013
			c2.946,0,5.338-2.387,5.338-5.338S1171.204,330.224,1168.258,330.224z"/>
		<path fill="#3D4A5A" d="M1072.182,319.55h16.015c2.943,0,5.338-2.39,5.338-5.338c0-2.953-2.394-5.337-5.338-5.337h-16.015
			c-2.943,0-5.339,2.385-5.339,5.337C1066.843,317.159,1069.237,319.55,1072.182,319.55z"/>
		<path fill="#3D4A5A" d="M1168.258,308.871h-37.363c-2.943,0-5.338,2.388-5.338,5.34c0,2.948,2.395,5.338,5.338,5.338h37.363
			c2.946,0,5.338-2.39,5.338-5.338C1173.596,311.259,1171.204,308.871,1168.258,308.871z"/>
		<path fill="#3D4A5A" d="M1109.545,319.55c1.387,0,2.775-0.587,3.79-1.548c0.959-1.018,1.548-2.402,1.548-3.79
			c0-1.392-0.589-2.781-1.548-3.791c-2.029-1.978-5.604-1.978-7.58,0c-0.961,1.01-1.548,2.398-1.548,3.791
			c0,1.387,0.587,2.772,1.548,3.79C1106.77,318.962,1108.104,319.55,1109.545,319.55z"/>
		<path fill="#3D4A5A" d="M1088.195,335.562c0,2.951,2.393,5.338,5.338,5.338h37.359c2.947,0,5.341-2.387,5.341-5.338
			c0-2.952-2.394-5.337-5.341-5.337h-37.359C1090.586,330.224,1088.195,332.61,1088.195,335.562z"/>
		<path fill="#3D4A5A" d="M1072.182,340.9c1.391,0,2.774-0.587,3.79-1.548c0.96-1.014,1.548-2.402,1.548-3.79
			c0-1.446-0.588-2.781-1.548-3.79c-2.026-1.975-5.604-1.975-7.581,0c-0.961,1.009-1.548,2.344-1.548,3.79
			c0,1.388,0.587,2.775,1.548,3.79C1069.406,340.312,1070.74,340.9,1072.182,340.9z"/>
		<path fill="#3D4A5A" d="M1018.805,314.75v-5.879c0-2.949-2.391-5.338-5.338-5.338c-2.945,0-5.338,2.389-5.338,5.338v5.897
			c-5.822,1.185-11.128,4.276-15.04,8.903c-3.262,3.854-4.771,8.785-4.237,13.895c0.545,5.229,3.233,10.071,7.381,13.295
			l11.896,9.25v29.026c-6.195-2.21-10.674-8.081-10.674-15.031c0-2.952-2.393-5.338-5.338-5.338c-2.947,0-5.338,2.387-5.338,5.338
			c0,12.885,9.186,23.667,21.35,26.149v4.688c0,2.952,2.393,5.337,5.338,5.337c2.947,0,5.338-2.386,5.338-5.337v-4.708
			c5.823-1.185,11.129-4.273,15.047-8.9c3.265-3.865,4.77-8.799,4.232-13.905c-0.549-5.22-3.234-10.063-7.381-13.279l-11.898-9.261
			v-29.027c6.197,2.211,10.676,8.082,10.676,15.032c0,2.952,2.394,5.337,5.341,5.337c2.943,0,5.337-2.386,5.337-5.337
			C1040.156,328.014,1030.97,317.233,1018.805,314.75z M1024.147,372.574c1.862,1.448,3.074,3.63,3.32,5.971
			c0.229,2.188-0.398,4.283-1.768,5.896c-1.857,2.193-4.26,3.73-6.896,4.67v-20.7L1024.147,372.574z M1002.787,342.437
			c-1.869-1.452-3.075-3.635-3.32-5.979c-0.224-2.184,0.4-4.272,1.77-5.893c1.854-2.193,4.259-3.729,6.896-4.671v20.694
			L1002.787,342.437z"/>
		<path fill="#3D4A5A" d="M1088.968,369.722c-11.688,6.085-15.628,17.727-17.06,29.795c-2.209-1.854-4.419-3.7-6.624-5.551
			c-5.23-4.382-12.821,3.127-7.547,7.547c4.989,4.185,9.984,8.364,14.978,12.548c3.512,2.946,8.951,1.083,9.111-3.773
			c0.39-11.562,0.935-25.311,12.533-31.349C1100.449,375.771,1095.059,366.552,1088.968,369.722z"/>
		<path fill="#3D4A5A" d="M1124.463,391.015c-7.392,1.713-15.805,11.117-21.009,0.563c-3.037-6.156-12.249-0.757-9.218,5.389
			c2.759,5.6,8.007,9.517,14.246,10.307c3.17,0.401,6.033-0.048,9.01-1.206c2.183-0.85,10.34-6.977,12.101-3.828
			c3.351,6,12.574,0.62,9.218-5.386C1135.947,391.723,1130.143,389.696,1124.463,391.015z"/>
	</g>
</g>
<g id="Слой_6">
	<g>
		<path fill="#3D4A5A" d="M20.063,44.834c1.83-0.835,2.635-2.992,1.796-4.825c-0.838-1.83-2.993-2.645-4.826-1.795
			c-2.523,1.147-4.873,2.66-6.975,4.48c-1.521,1.32-1.686,3.621-0.37,5.142c0.723,0.83,1.738,1.258,2.755,1.258
			c0.846,0,1.697-0.291,2.387-0.89C16.406,46.834,18.165,45.702,20.063,44.834z"/>
		<path fill="#3D4A5A" d="M32.783,42.868h7.284c2.016,0,3.646-1.63,3.646-3.645c0-2.017-1.63-3.644-3.646-3.644h-7.284
			c-2.016,0-3.644,1.628-3.644,3.644C29.141,41.239,30.769,42.868,32.783,42.868z"/>
		<path fill="#3D4A5A" d="M54.64,42.868h7.284c2.016,0,3.645-1.63,3.645-3.645c0-2.017-1.629-3.644-3.645-3.644H54.64
			c-2.017,0-3.645,1.628-3.645,3.644C50.996,41.239,52.625,42.868,54.64,42.868z"/>
		<path fill="#3D4A5A" d="M40.069,86.581h-7.284c-2.016,0-3.644,1.628-3.644,3.644c0,2.014,1.628,3.645,3.644,3.645h7.284
			c2.016,0,3.645-1.63,3.645-3.645C43.712,88.208,42.083,86.581,40.069,86.581z"/>
		<path fill="#3D4A5A" d="M83.781,86.581h-7.285c-2.016,0-3.644,1.628-3.644,3.644c0,2.014,1.628,3.645,3.644,3.645h7.285
			c2.015,0,3.642-1.63,3.642-3.645C87.424,88.208,85.796,86.581,83.781,86.581z"/>
		<path fill="#3D4A5A" d="M61.926,86.581h-7.284c-2.017,0-3.645,1.628-3.645,3.644c0,2.014,1.628,3.645,3.645,3.645h7.284
			c2.016,0,3.645-1.63,3.645-3.645C65.57,88.208,63.94,86.581,61.926,86.581z"/>
		<path fill="#3D4A5A" d="M20.063,84.615c-1.896-0.867-3.652-2-5.229-3.368c-1.521-1.313-3.816-1.15-5.142,0.367
			c-1.314,1.52-1.149,3.821,0.367,5.14c2.104,1.82,4.446,3.33,6.973,4.483c0.492,0.227,1.006,0.331,1.513,0.331
			c1.384,0,2.703-0.79,3.313-2.126C22.694,87.612,21.893,85.448,20.063,84.615z"/>
		<path fill="#3D4A5A" d="M105.638,86.581h-7.285c-2.017,0-3.645,1.628-3.645,3.644c0,2.014,1.629,3.645,3.645,3.645h7.285
			c2.015,0,3.645-1.63,3.645-3.645C109.281,88.208,107.653,86.581,105.638,86.581z"/>
		<path fill="#3D4A5A" d="M171.207,86.581h-7.285c-2.016,0-3.645,1.628-3.645,3.644c0,2.014,1.629,3.645,3.645,3.645h7.285
			c2.017,0,3.644-1.63,3.644-3.645C174.85,88.208,173.222,86.581,171.207,86.581z"/>
		<path fill="#3D4A5A" d="M193.063,86.581h-7.284c-2.017,0-3.646,1.628-3.646,3.644c0,2.014,1.629,3.645,3.646,3.645h7.284
			c2.017,0,3.645-1.63,3.645-3.645C196.706,88.208,195.078,86.581,193.063,86.581z"/>
		<path fill="#3D4A5A" d="M127.494,86.581h-7.285c-2.016,0-3.645,1.628-3.645,3.644c0,2.014,1.629,3.645,3.645,3.645h7.285
			c2.016,0,3.643-1.63,3.643-3.645C131.137,88.208,129.51,86.581,127.494,86.581z"/>
		<path fill="#3D4A5A" d="M149.351,86.581h-7.285c-2.015,0-3.646,1.628-3.646,3.644c0,2.014,1.631,3.645,3.646,3.645h7.285
			c2.016,0,3.644-1.63,3.644-3.645C152.993,88.208,151.365,86.581,149.351,86.581z"/>
		<path fill="#3D4A5A" d="M20.063,193.896c-1.896-0.867-3.652-2-5.229-3.37c-1.521-1.314-3.816-1.149-5.142,0.368
			c-1.314,1.521-1.149,3.819,0.367,5.142c2.104,1.82,4.446,3.329,6.973,4.483c0.492,0.227,1.006,0.331,1.513,0.331
			c1.384,0,2.703-0.792,3.313-2.128C22.694,196.894,21.893,194.73,20.063,193.896z"/>
		<path fill="#3D4A5A" d="M61.926,195.863h-7.284c-2.017,0-3.645,1.629-3.645,3.645s1.628,3.644,3.645,3.644h7.284
			c2.016,0,3.645-1.627,3.645-3.644C65.569,197.49,63.94,195.863,61.926,195.863z"/>
		<path fill="#3D4A5A" d="M40.069,195.863h-7.284c-2.016,0-3.644,1.629-3.644,3.645s1.628,3.644,3.644,3.644h7.284
			c2.016,0,3.645-1.627,3.645-3.644C43.712,197.49,42.083,195.863,40.069,195.863z"/>
		<path fill="#3D4A5A" d="M127.494,195.863h-7.285c-2.016,0-3.645,1.629-3.645,3.645s1.629,3.644,3.645,3.644h7.285
			c2.016,0,3.643-1.627,3.643-3.644C131.135,197.49,129.51,195.863,127.494,195.863z"/>
		<path fill="#3D4A5A" d="M138.422,199.504c0,2.016,1.629,3.644,3.646,3.644h7.285c2.016,0,3.644-1.627,3.644-3.644
			s-1.628-3.645-3.644-3.645h-7.285C140.051,195.863,138.422,197.49,138.422,199.504z"/>
		<path fill="#3D4A5A" d="M163.922,203.148h7.285c2.017,0,3.644-1.627,3.644-3.644s-1.627-3.645-3.644-3.645h-7.285
			c-2.016,0-3.645,1.628-3.645,3.645C160.279,201.521,161.906,203.148,163.922,203.148z"/>
		<path fill="#3D4A5A" d="M105.638,195.863h-7.285c-2.017,0-3.645,1.629-3.645,3.645s1.629,3.644,3.645,3.644h7.285
			c2.015,0,3.645-1.627,3.645-3.644C109.281,197.49,107.653,195.863,105.638,195.863z"/>
		<path fill="#3D4A5A" d="M185.779,203.148h7.284c2.017,0,3.645-1.627,3.645-3.644s-1.628-3.645-3.645-3.645h-7.284
			c-2.016,0-3.644,1.628-3.644,3.645S183.763,203.148,185.779,203.148z"/>
		<path fill="#3D4A5A" d="M83.781,195.863h-7.285c-2.016,0-3.644,1.629-3.644,3.645s1.628,3.644,3.644,3.644h7.285
			c2.015,0,3.642-1.627,3.642-3.644C87.424,197.49,85.796,195.863,83.781,195.863z"/>
		<path fill="#3D4A5A" d="M160.279,141.222c0,8.034,6.535,14.569,14.57,14.569c8.036,0,14.569-6.536,14.569-14.569
			c0-8.035-6.534-14.571-14.569-14.571S160.279,133.187,160.279,141.222z M174.849,133.937c4.02,0,7.286,3.268,7.286,7.285
			s-3.27,7.284-7.286,7.284c-4.018,0-7.285-3.268-7.285-7.284C167.564,137.202,170.832,133.937,174.849,133.937z"/>
		<path fill="#3D4A5A" d="M156.426,21.013L136.622,1.209c-1.612-1.612-4.247-1.612-5.859,0l-7.453,7.453l-7.453-7.453
			c-1.612-1.612-4.246-1.612-5.859,0L90.196,21.013H29.143c-16.066,0-29.144,13.074-29.144,29.142v141.513
			c0,14.363,11.688,26.053,26.055,26.053h192.51v-50.997v-50.999V79.295V72.01V21.013H156.426L156.426,21.013z M133.694,8.583
			l12.431,12.431l50.997,50.998h-19.639l-41.042-41.046c-1.541-1.497-3.956-1.493-5.532,0.04L89.906,72.012H70.268l58.193-58.192
			l0,0L133.694,8.583z M167.185,72.01h-66.979l33.486-33.488L167.185,72.01z M112.924,8.583l5.233,5.233L59.968,72.01H49.496
			l50.998-50.998L112.924,8.583z M29.141,28.298h53.767L75.4,35.805c-1.104,0.356-1.948,1.199-2.306,2.307L39.195,72.01H29.141
			c-12.056,0-21.855-9.804-21.855-21.855C7.284,38.101,17.087,28.298,29.141,28.298z M211.277,159.435h-40.068
			c-10.044,0-18.214-8.17-18.214-18.213c0-10.042,8.17-18.216,18.214-18.216h40.068V159.435z M211.277,86.581h-3.646
			c-2.014,0-3.642,1.628-3.642,3.644c0,2.014,1.628,3.645,3.642,3.645h3.646v21.854h-40.068c-14.059,0-25.5,11.441-25.5,25.5
			c0,14.057,11.441,25.499,25.5,25.499h40.068v29.142h-3.646c-2.014,0-3.642,1.629-3.642,3.645s1.628,3.644,3.642,3.644h3.646v7.286
			H26.051c-10.347,0-18.769-8.417-18.769-18.769v-8.026c0.851-0.91,1.258-2.197,0.878-3.478c-0.582-1.989-0.878-4.062-0.878-6.156
			v-99.65c0.851-0.91,1.258-2.195,0.878-3.476c-0.067-0.235-0.096-0.48-0.154-0.719c0.325,0.347,0.657,0.688,1.002,1.015
			c0.313,0.302,0.638,0.591,0.964,0.879c0.409,0.354,0.822,0.7,1.25,1.036c0.343,0.271,0.69,0.528,1.046,0.783
			c0.438,0.316,0.896,0.614,1.354,0.905c0.368,0.233,0.735,0.459,1.114,0.679c0.48,0.273,0.975,0.527,1.469,0.774
			c0.384,0.192,0.768,0.387,1.159,0.562c0.521,0.229,1.053,0.437,1.584,0.637c0.393,0.147,0.782,0.303,1.187,0.435
			c0.57,0.187,1.152,0.335,1.735,0.486c0.387,0.1,0.768,0.216,1.157,0.3c0.659,0.143,1.33,0.235,2.004,0.331
			c0.336,0.048,0.663,0.117,1.002,0.154c1.021,0.107,2.058,0.17,3.103,0.17h13.898h10.301h10.471h10.303H92.16h83.071h18.042h10.304
			h7.699V86.581L211.277,86.581z M207.424,72.01l-29.143-29.143h0.211c2.017,0,3.645-1.629,3.645-3.645s-1.628-3.644-3.645-3.644
			h-7.285c-0.063,0-0.111,0.032-0.176,0.037l-7.321-7.32h47.565v43.711h-3.853L207.424,72.01L207.424,72.01z"/>
		<path fill="#3D4A5A" d="M200.349,35.583h-7.286c-2.017,0-3.645,1.63-3.645,3.644c0,2.015,1.628,3.645,3.645,3.645h7.286
			c2.016,0,3.644-1.629,3.644-3.645C203.991,37.209,202.365,35.583,200.349,35.583z"/>
	</g>
</g>
</svg>
