<?xml version="1.0" encoding="utf-8"?>
<!-- Generator: Adobe Illustrator 21.0.0, SVG Export Plug-In . SVG Version: 6.00 Build 0)  -->
<svg version="1.1" id="Слой_1" xmlns="http://www.w3.org/2000/svg" xmlns:xlink="http://www.w3.org/1999/xlink" x="0px" y="0px"
	 viewBox="0 0 595.3 506" style="enable-background:new 0 0 595.3 506;" xml:space="preserve">
<style type="text/css">
	.st0{fill:#FFFFFF;stroke:#FFFFFF;stroke-miterlimit:10;}
	.st1{fill:#3D4A5A;stroke:#FFFFFF;stroke-miterlimit:10;}
	.st2{fill:#3D4A5A;}
</style>
<g id="Слой_2">
</g>
<g id="Capa_1">
	<g>
		<g id="Layer_5_64_">
			<g>
				<path class="st0" d="M395.9,460.2c0,15.7-12.7,28.3-28.3,28.3H28.3C12.7,488.5,0,475.8,0,460.2v-418c0-15.7,12.7-28.3,28.3-28.3
					h339.2c15.7,0,28.3,12.7,28.3,28.3L395.9,460.2L395.9,460.2z"/>
				
					<rect x="410.2" y="109.9" transform="matrix(0.5748 -0.8183 0.8183 0.5748 72.6801 443.5837)" class="st0" width="106" height="84"/>
				<g>
					<path class="st1" d="M494.8,196c17.8-22.7,69.9-89.2,69.9-89.2c18.8-24,18.3-55.7-5.7-74.5c-24-18.8-54.9-11.7-73.7,12.3
						l-70.7,90.2c0,0-1.5,1.9,0.1,3.2c16.6,13,61.6,48.3,74.4,58.3C491.2,198,492.4,198.9,494.8,196z"/>
					<path class="st1" d="M407.4,159.7c-1-0.8-1.9-0.6-2.6,0.4c-7.7,10.9-53.9,76.3-71.4,98.5c-11,14-11.5,39.8-7.5,54.4
						c0.1,0.5,0.7,1.1-0.1,2.1c-2.1,2.7-3.4,4.6-4.6,6.2c-3.3,4.3-1.5,9.3,1.6,11.7c3.3,2.4,8.8,3.4,12.1-0.9c1.2-1.6,2.8-3.2,5-6
						c0.6-0.8,1.4-0.6,1.8-0.6c15.1,0.5,40.3-6.2,51.3-20.2c17.6-22.4,70.5-83.3,78.5-92.6c0.7-0.8,1.3-1.7-0.1-2.8
						C455.4,197.4,423.8,172.6,407.4,159.7z"/>
					<path class="st1" d="M544.2,199.7c-3.4,4.4-9.7,5.1-14.1,1.7l0,0c-4.4-3.4-5.1-9.7-1.7-14.1l48.9-62.4
						c3.4-4.4,9.7-5.1,14.1-1.7l0,0c4.4,3.4,5.1,9.7,1.7,14.1L544.2,199.7z"/>
				</g>
				<g>
					<path class="st2" d="M335.1,195.1c0,4.2-3.5,7.7-7.7,7.7H68.2c-4.2,0-7.7-3.5-7.7-7.7v-8c0-4.2,3.5-7.7,7.7-7.7h259.2
						c4.2,0,7.7,3.5,7.7,7.7L335.1,195.1L335.1,195.1z"/>
				</g>
				<path class="st2" d="M335.1,359.4c0,4.2-3.5,7.7-7.7,7.7H226.7c-4.2,0-7.7-3.5-7.7-7.7v-6.6c0-4.2,3.5-7.7,7.7-7.7h100.7
					c4.2,0,7.7,3.5,7.7,7.7V359.4z"/>
				<g>
					<path class="st2" d="M335.1,124.2c0,4.2-3.5,7.7-7.7,7.7H68.2c-4.2,0-7.7-3.5-7.7-7.7v-8c0-4.2,3.5-7.7,7.7-7.7h259.2
						c4.2,0,7.7,3.5,7.7,7.7L335.1,124.2L335.1,124.2z"/>
				</g>
				<path class="st2" d="M367.4,358.9v80.3c0,14.7-12,26.7-26.7,26.7H54.9c-14.7,0-26.7-12-26.7-26.7V68.8c0-14.7,12-26.7,26.7-26.7
					h285.7c14.7,0,26.7,12,26.7,26.7v85.3c0,8.2,4,4.1,5.9,1.7c4.8-6.2,13.8-16.5,17.4-20.4c3.7-4,5-7.4,5-12.2V40.5
					c0-14.7-12-26.7-26.7-26.7H26.7C12,13.8,0,25.9,0,40.5v427c0,14.7,12,26.7,26.7,26.7h342.2c14.7,0,26.7-12,26.7-26.7V347.8
					c0-7-4.1-5.9-6.1-4.9c-5.6,2.7-11.2,4.8-16.3,6.3C371.2,349.8,367.4,350.7,367.4,358.9z"/>
			</g>
		</g>
	</g>
</g>
</svg>
