<svg xmlns="http://www.w3.org/2000/svg" xmlns:xlink="http://www.w3.org/1999/xlink" viewBox="0 0 139.2 164.92" fill="#ff141f"><title>Ресурс 1</title><g id="Слой_2" data-name="Слой 2"><g id="Слой_1-2" data-name="Слой 1"><g class="cls-2"><path d="M137.2,164.92h-37a2,2,0,0,1-2-2V62.25A2,2,0,0,1,101,60.42L113.46,66h17.72a2,2,0,0,1,2,2v6.87L138,77.06a2,2,0,0,1,1.18,1.82v84a2,2,0,0,1-2,2Zm-35-4h33V80.18l-33-14.84ZM122.35,70l6.83,3.07V70ZM90.47,164.92H48.87a2,2,0,0,1-2-2V44.77a2,2,0,0,1,2-2h2.85V33.54a2,2,0,0,1,2-2h2.91l3.8-16.48a2,2,0,0,1,1.95-1.55h5.28V2a2,2,0,1,1,4,0V13.51h5.28a2,2,0,0,1,1.95,1.55l3.8,16.48h2.91a2,2,0,0,1,2,2v9.23h2.86a2,2,0,0,1,2,2V162.92a2,2,0,0,1-2,2Zm-39.6-4h37.6V46.77H50.87ZM55.72,42.77H83.61V35.54H55.72Zm5-11.23H78.59l-3.23-14H64ZM39,164.92H2a2,2,0,0,1-2-2V85a2,2,0,0,1,2-2H39a2,2,0,0,1,2,2v77.93a2,2,0,0,1-2,2Zm-35-4H37V87H4Zm125.75-8.8a2,2,0,0,1-2-2v-4.63a2,2,0,0,1,4,0v4.63a2,2,0,0,1-2,2Zm-7.37,0a2,2,0,0,1-2-2v-4.63a2,2,0,1,1,4,0v4.63a2,2,0,0,1-2,2Zm-7.37,0a2,2,0,0,1-2-2v-4.63a2,2,0,0,1,4,0v4.63a2,2,0,0,1-2,2Zm-7.37,0a2,2,0,0,1-2-2v-4.63a2,2,0,1,1,4,0v4.63a2,2,0,0,1-2,2Zm-26.08,0a2,2,0,0,1-2-2v-4.63a2,2,0,1,1,4,0v4.63a2,2,0,0,1-2,2Zm-8.19,0a2,2,0,0,1-2-2v-4.63a2,2,0,1,1,4,0v4.63a2,2,0,0,1-2,2Zm-8.19,0a2,2,0,0,1-2-2v-4.63a2,2,0,0,1,4,0v4.63a2,2,0,0,1-2,2Zm-8.19,0a2,2,0,0,1-2-2v-4.63a2,2,0,0,1,4,0v4.63a2,2,0,0,1-2,2Zm-25.41,0a2,2,0,0,1-2-2v-4.63a2,2,0,1,1,4,0v4.63a2,2,0,0,1-2,2Zm-7.37,0a2,2,0,0,1-2-2v-4.63a2,2,0,1,1,4,0v4.63a2,2,0,0,1-2,2Zm-7.37,0a2,2,0,0,1-2-2v-4.63a2,2,0,1,1,4,0v4.63a2,2,0,0,1-2,2Zm-7.37,0a2,2,0,0,1-2-2v-4.63a2,2,0,1,1,4,0v4.63a2,2,0,0,1-2,2Zm120.29-13.3a2,2,0,0,1-2-2v-4.63a2,2,0,0,1,4,0v4.63a2,2,0,0,1-2,2Zm-7.37,0a2,2,0,0,1-2-2v-4.63a2,2,0,1,1,4,0v4.63a2,2,0,0,1-2,2Zm-7.37,0a2,2,0,0,1-2-2v-4.63a2,2,0,0,1,4,0v4.63a2,2,0,0,1-2,2Zm-7.37,0a2,2,0,0,1-2-2v-4.63a2,2,0,1,1,4,0v4.63a2,2,0,0,1-2,2Zm-26.08,0a2,2,0,0,1-2-2v-4.63a2,2,0,1,1,4,0v4.63a2,2,0,0,1-2,2Zm-8.19,0a2,2,0,0,1-2-2v-4.63a2,2,0,1,1,4,0v4.63a2,2,0,0,1-2,2Zm-8.19,0a2,2,0,0,1-2-2v-4.63a2,2,0,0,1,4,0v4.63a2,2,0,0,1-2,2Zm-8.19,0a2,2,0,0,1-2-2v-4.63a2,2,0,0,1,4,0v4.63a2,2,0,0,1-2,2Zm-25.41,0a2,2,0,0,1-2-2v-4.63a2,2,0,1,1,4,0v4.63a2,2,0,0,1-2,2Zm-7.37,0a2,2,0,0,1-2-2v-4.63a2,2,0,1,1,4,0v4.63a2,2,0,0,1-2,2Zm-7.37,0a2,2,0,0,1-2-2v-4.63a2,2,0,1,1,4,0v4.63a2,2,0,0,1-2,2Zm-7.37,0a2,2,0,0,1-2-2v-4.63a2,2,0,1,1,4,0v4.63a2,2,0,0,1-2,2Zm120.29-13.3a2,2,0,0,1-2-2V118.9a2,2,0,1,1,4,0v4.63a2,2,0,0,1-2,2Zm-7.37,0a2,2,0,0,1-2-2V118.9a2,2,0,1,1,4,0v4.63a2,2,0,0,1-2,2Zm-7.37,0a2,2,0,0,1-2-2V118.9a2,2,0,0,1,4,0v4.63a2,2,0,0,1-2,2Zm-7.37,0a2,2,0,0,1-2-2V118.9a2,2,0,1,1,4,0v4.63a2,2,0,0,1-2,2Zm-26.08,0a2,2,0,0,1-2-2V118.9a2,2,0,1,1,4,0v4.63a2,2,0,0,1-2,2Zm-8.19,0a2,2,0,0,1-2-2V118.9a2,2,0,1,1,4,0v4.63a2,2,0,0,1-2,2Zm-8.19,0a2,2,0,0,1-2-2V118.9a2,2,0,1,1,4,0v4.63a2,2,0,0,1-2,2Zm-8.19,0a2,2,0,0,1-2-2V118.9a2,2,0,0,1,4,0v4.63a2,2,0,0,1-2,2Zm-25.41,0a2,2,0,0,1-2-2V118.9a2,2,0,1,1,4,0v4.63a2,2,0,0,1-2,2Zm-7.37,0a2,2,0,0,1-2-2V118.9a2,2,0,1,1,4,0v4.63a2,2,0,0,1-2,2Zm-7.37,0a2,2,0,0,1-2-2V118.9a2,2,0,1,1,4,0v4.63a2,2,0,0,1-2,2Zm-7.37,0a2,2,0,0,1-2-2V118.9a2,2,0,1,1,4,0v4.63a2,2,0,0,1-2,2Zm120.29-13.3a2,2,0,0,1-2-2V105.6a2,2,0,1,1,4,0v4.63a2,2,0,0,1-2,2Zm-7.37,0a2,2,0,0,1-2-2V105.6a2,2,0,1,1,4,0v4.63a2,2,0,0,1-2,2Zm-7.37,0a2,2,0,0,1-2-2V105.6a2,2,0,0,1,4,0v4.63a2,2,0,0,1-2,2Zm-7.37,0a2,2,0,0,1-2-2V105.6a2,2,0,1,1,4,0v4.63a2,2,0,0,1-2,2Zm-26.08,0a2,2,0,0,1-2-2V105.6a2,2,0,1,1,4,0v4.63a2,2,0,0,1-2,2Zm-8.19,0a2,2,0,0,1-2-2V105.6a2,2,0,1,1,4,0v4.63a2,2,0,0,1-2,2Zm-8.19,0a2,2,0,0,1-2-2V105.6a2,2,0,1,1,4,0v4.63a2,2,0,0,1-2,2Zm-8.19,0a2,2,0,0,1-2-2V105.6a2,2,0,0,1,4,0v4.63a2,2,0,0,1-2,2Zm-25.41,0a2,2,0,0,1-2-2V105.6a2,2,0,1,1,4,0v4.63a2,2,0,0,1-2,2Zm-7.37,0a2,2,0,0,1-2-2V105.6a2,2,0,1,1,4,0v4.63a2,2,0,0,1-2,2Zm-7.37,0a2,2,0,0,1-2-2V105.6a2,2,0,1,1,4,0v4.63a2,2,0,0,1-2,2Zm-7.37,0a2,2,0,0,1-2-2V105.6a2,2,0,1,1,4,0v4.63a2,2,0,0,1-2,2Zm120.29-13.3a2,2,0,0,1-2-2V92.3a2,2,0,1,1,4,0v4.63a2,2,0,0,1-2,2Zm-7.37,0a2,2,0,0,1-2-2V92.3a2,2,0,1,1,4,0v4.63a2,2,0,0,1-2,2Zm-7.37,0a2,2,0,0,1-2-2V92.3a2,2,0,0,1,4,0v4.63a2,2,0,0,1-2,2Zm-7.37,0a2,2,0,0,1-2-2V92.3a2,2,0,1,1,4,0v4.63a2,2,0,0,1-2,2Zm-26.08,0a2,2,0,0,1-2-2V92.3a2,2,0,1,1,4,0v4.63a2,2,0,0,1-2,2Zm-8.19,0a2,2,0,0,1-2-2V92.3a2,2,0,1,1,4,0v4.63a2,2,0,0,1-2,2Zm-8.19,0a2,2,0,0,1-2-2V92.3a2,2,0,0,1,4,0v4.63a2,2,0,0,1-2,2Zm-8.19,0a2,2,0,0,1-2-2V92.3a2,2,0,0,1,4,0v4.63a2,2,0,0,1-2,2Zm-25.41,0a2,2,0,0,1-2-2V92.3a2,2,0,1,1,4,0v4.63a2,2,0,0,1-2,2Zm-7.37,0a2,2,0,0,1-2-2V92.3a2,2,0,1,1,4,0v4.63a2,2,0,0,1-2,2Zm-7.37,0a2,2,0,0,1-2-2V92.3a2,2,0,1,1,4,0v4.63a2,2,0,0,1-2,2Zm-7.37,0a2,2,0,0,1-2-2V92.3a2,2,0,1,1,4,0v4.63a2,2,0,0,1-2,2Zm112.92-13.3a2,2,0,0,1-2-2V79a2,2,0,1,1,4,0v4.63a2,2,0,0,1-2,2Zm-7.37,0a2,2,0,0,1-2-2V79a2,2,0,1,1,4,0v4.63a2,2,0,0,1-2,2Zm-7.37,0a2,2,0,0,1-2-2V79a2,2,0,1,1,4,0v4.63a2,2,0,0,1-2,2Zm-26.08,0a2,2,0,0,1-2-2V79a2,2,0,1,1,4,0v4.63a2,2,0,0,1-2,2Zm-8.19,0a2,2,0,0,1-2-2V79a2,2,0,1,1,4,0v4.63a2,2,0,0,1-2,2Zm-8.19,0a2,2,0,0,1-2-2V79a2,2,0,1,1,4,0v4.63a2,2,0,0,1-2,2Zm-8.19,0a2,2,0,0,1-2-2V79a2,2,0,1,1,4,0v4.63a2,2,0,0,1-2,2Zm24.57-13.3a2,2,0,0,1-2-2V65.71a2,2,0,0,1,4,0v4.63a2,2,0,0,1-2,2Zm-8.19,0a2,2,0,0,1-2-2V65.71a2,2,0,0,1,4,0v4.63a2,2,0,0,1-2,2Zm-8.19,0a2,2,0,0,1-2-2V65.71a2,2,0,0,1,4,0v4.63a2,2,0,0,1-2,2Zm-8.19,0a2,2,0,0,1-2-2V65.71a2,2,0,0,1,4,0v4.63a2,2,0,0,1-2,2ZM81.55,59a2,2,0,0,1-2-2V52.41a2,2,0,1,1,4,0V57a2,2,0,0,1-2,2Zm-8.19,0a2,2,0,0,1-2-2V52.41a2,2,0,1,1,4,0V57a2,2,0,0,1-2,2Zm-8.19,0a2,2,0,0,1-2-2V52.41a2,2,0,0,1,4,0V57a2,2,0,0,1-2,2ZM57,59a2,2,0,0,1-2-2V52.41a2,2,0,0,1,4,0V57a2,2,0,0,1-2,2Zm0,0"/></g></g></g></svg>