<?xml version="1.0" encoding="utf-8"?>
<!-- Generator: Adobe Illustrator 21.0.0, SVG Export Plug-In . SVG Version: 6.00 Build 0)  -->
<svg version="1.1" id="Layer_1" xmlns="http://www.w3.org/2000/svg" xmlns:xlink="http://www.w3.org/1999/xlink" x="0px" y="0px"
	 viewBox="0 0 512 552" style="enable-background:new 0 0 512 552;" xml:space="preserve">
<style type="text/css">
	.st0{fill:#FF141F;}
</style>
			<path class="st0" d="M187.7,188.8c4.7,0,8.5-3.8,8.5-8.5v-25.6h76.8v25.6c0,4.7,3.8,8.5,8.5,8.5s8.5-3.8,8.5-8.5v-34.1
				c0-4.7-3.8-8.5-8.5-8.5h-93.9c-4.7,0-8.5,3.8-8.5,8.5v34.1C179.2,184.9,183,188.8,187.7,188.8z"/>
			<path class="st0" d="M179.2,248.5v34.1c0,4.7,3.8,8.5,8.5,8.5s8.5-3.8,8.5-8.5v-34.1c0-4.7-3.8-8.5-8.5-8.5
				S179.2,243.8,179.2,248.5z"/>
			<path class="st0" d="M238.9,120.5c4.7,0,8.5-3.8,8.5-8.5V26.6c0-4.7-3.8-8.5-8.5-8.5s-8.5,3.8-8.5,8.5V112
				C230.4,116.7,234.2,120.5,238.9,120.5z"/>
			<path class="st0" d="M281.6,248.5v34.1c0,4.7,3.8,8.5,8.5,8.5s8.5-3.8,8.5-8.5v-34.1c0-4.7-3.8-8.5-8.5-8.5
				C285.4,240,281.6,243.8,281.6,248.5z"/>
			<path class="st0" d="M230.4,248.5v34.1c0,4.7,3.8,8.5,8.5,8.5s8.5-3.8,8.5-8.5v-34.1c0-4.7-3.8-8.5-8.5-8.5
				S230.4,243.8,230.4,248.5z"/>
			<path class="st0" d="M347.3,66.8c2.5-2.4,7.7-6.1,11.1-6.1c6.9,0,8.4,4.7,8.5,8.5c0,0,0,0,0,0c0,0,0,0,0,0v0v0v0c0,0,0,0,0,0
				c0.1,4.7,3.9,8.4,8.5,8.4c4.7,0,8.5-3.8,8.5-8.4c0.1-3.9,1.7-8.6,8.5-8.6c3.3,0,8.6,3.6,11,6c3.3,3.3,8.7,3.3,12.1,0
				c3.3-3.3,3.3-8.7,0-12.1c-1.1-1.1-11.4-11-23.1-11c-7.5,0-13.1,2.4-17.1,6c-4-3.6-9.6-6-17.1-6c-11.7,0-22,9.9-23.1,11
				c-3.3,3.3-3.3,8.7,0,12C338.6,70.1,344,70.1,347.3,66.8z"/>
			<path class="st0" d="M392.5,376.5c4.7,0,8.5-3.8,8.5-8.5v-51.2c0-4.7-3.8-8.5-8.5-8.5H85.3c-4.7,0-8.5,3.8-8.5,8.5V368
				c0,4.7,3.8,8.5,8.5,8.5s8.5-3.8,8.5-8.5v-42.7H384V368C384,372.7,387.8,376.5,392.5,376.5z"/>
			<path class="st0" d="M332.8,350.9V368c0,4.7,3.8,8.5,8.5,8.5s8.5-3.8,8.5-8.5v-17.1c0-4.7-3.8-8.5-8.5-8.5
				C336.6,342.4,332.8,346.2,332.8,350.9z"/>
			<path class="st0" d="M341.3,291.2c4.7,0,8.5-3.8,8.5-8.5v-68.3c0-4.7-3.8-8.5-8.5-8.5H136.5c-4.7,0-8.5,3.8-8.5,8.5v68.3
				c0,4.7,3.8,8.5,8.5,8.5s8.5-3.8,8.5-8.5v-59.7h187.7v59.7C332.8,287.3,336.6,291.2,341.3,291.2z"/>
			<path class="st0" d="M443.7,393.6H341.3c-4.7,0-8.5,3.8-8.5,8.5v119.5c0,4.7,3.8,8.5,8.5,8.5s8.5-3.8,8.5-8.5V410.6h85.3v110.9
				c0,4.7,3.8,8.5,8.5,8.5s8.5-3.8,8.5-8.5V402.1C452.3,397.4,448.5,393.6,443.7,393.6z"/>
			<path class="st0" d="M290.1,342.4c-4.7,0-8.5,3.8-8.5,8.5v170.7c0,4.7,3.8,8.5,8.5,8.5s8.5-3.8,8.5-8.5V350.9
				C298.7,346.2,294.9,342.4,290.1,342.4z"/>
			<path class="st0" d="M238.9,342.4c-4.7,0-8.5,3.8-8.5,8.5v170.7c0,4.7,3.8,8.5,8.5,8.5s8.5-3.8,8.5-8.5V350.9
				C247.5,346.2,243.6,342.4,238.9,342.4z"/>
			<path class="st0" d="M392.5,427.7c-4.7,0-8.5,3.8-8.5,8.5v85.3c0,4.7,3.8,8.5,8.5,8.5s8.5-3.8,8.5-8.5v-85.3
				C401.1,431.5,397.3,427.7,392.5,427.7z"/>
			<path class="st0" d="M85.3,188.8h68.3c4.7,0,8.5-3.8,8.5-8.5s-3.8-8.5-8.5-8.5H85.3c-4.7,0-8.5-3.8-8.5-8.5
				c0-6.3,7.6-10.7,13.2-7.1c2.3,1.5,5.3,1.8,7.8,0.7c2.6-1,4.5-3.3,5.1-6c1.8-7.8,8.6-13.2,16.6-13.2s14.8,5.4,16.6,13.2
				c0.6,2.7,2.5,4.9,5.1,6s5.5,0.8,7.8-0.7c1.4-0.9,3-1.4,4.6-1.4c4.7,0,8.5-3.8,8.5-8.5s-3.8-8.5-8.5-8.5c-1.5,0-2.9,0.1-4.4,0.4
				c-5.9-10.6-17.1-17.5-29.7-17.5s-23.9,6.8-29.7,17.5c-1.4-0.3-2.9-0.4-4.4-0.4c-14.1,0-25.6,11.5-25.6,25.6
				S71.2,188.8,85.3,188.8z"/>
			<path class="st0" d="M460.8,222.9h-9.4c-4-19.4-21.2-34.1-41.8-34.1c-19,0-35.8,12.8-41,31.2c-1.3,4.5,1.4,9.2,5.9,10.5
				c4.5,1.2,9.2-1.4,10.5-5.9c3.1-11.1,13.2-18.8,24.5-18.8c14.1,0,25.6,11.5,25.6,25.6c0,4.7,3.8,8.5,8.5,8.5h17.1
				c4.7,0,8.5,3.8,8.5,8.5c0,4.7-3.8,8.5-8.5,8.5h-85.3c-4.7,0-8.5,3.8-8.5,8.5s3.8,8.5,8.5,8.5h85.3c14.1,0,25.6-11.5,25.6-25.6
				S474.9,222.9,460.8,222.9z"/>
			<path class="st0" d="M187.7,342.4c-4.7,0-8.5,3.8-8.5,8.5v170.7c0,4.7,3.8,8.5,8.5,8.5s8.5-3.8,8.5-8.5V350.9
				C196.3,346.2,192.4,342.4,187.7,342.4z"/>
			<path class="st0" d="M85.3,427.7c-4.7,0-8.5,3.8-8.5,8.5v85.3c0,4.7,3.8,8.5,8.5,8.5s8.5-3.8,8.5-8.5v-85.3
				C93.9,431.5,90,427.7,85.3,427.7z"/>
			<path class="st0" d="M136.5,393.6H34.1c-4.7,0-8.5,3.8-8.5,8.5v119.5c0,4.7,3.8,8.5,8.5,8.5s8.5-3.8,8.5-8.5V410.6H128v110.9
				c0,4.7,3.8,8.5,8.5,8.5s8.5-3.8,8.5-8.5V402.1C145.1,397.4,141.2,393.6,136.5,393.6z"/>
			<path class="st0" d="M136.5,342.4c-4.7,0-8.5,3.8-8.5,8.5V368c0,4.7,3.8,8.5,8.5,8.5s8.5-3.8,8.5-8.5v-17.1
				C145.1,346.2,141.2,342.4,136.5,342.4z"/>
		
</svg>
