<?xml version="1.0" encoding="utf-8"?>
<!-- Generator: Adobe Illustrator 21.0.0, SVG Export Plug-In . SVG Version: 6.00 Build 0)  -->
<svg version="1.1" id="Слой_1" xmlns="http://www.w3.org/2000/svg" xmlns:xlink="http://www.w3.org/1999/xlink" x="0px" y="0px"
	 viewBox="0 0 152 184" style="enable-background:new 0 0 152 184;" xml:space="preserve">
<style type="text/css">
	.st0{fill:none;stroke:#FF141F;stroke-miterlimit:10;}
</style>
			<path class="st0" d="M103.9,74v-3.4c0-1.1,0.9-2,2-2c0.3,0,0.5,0.1,0.8,0.2l12.5,5.6h17.7c1.1,0,2,0.9,2,2v6.9l4.8,2.2
				c0.7,0.3,1.2,1,1.2,1.8v84c0,1.1-0.9,2-2,2l0,0h-37c-1.1,0-2-0.9-2-2V74 M107.9,80.5v88.8h33V88.5l-33-14.8V80.5 M131.7,78.3
				h-3.6l6.8,3.1v-3.1H131.7 M73.4,11.7v-1.4c0-1.1,0.9-2,2-2s2,0.9,2,2v11.5h5.3c0.9,0,1.7,0.6,1.9,1.6l3.8,16.5h2.9
				c1.1,0,2,0.9,2,2v9.2h2.9c1.1,0,2,0.9,2,2v118.1c0,1.1-0.9,2-2,2h0H54.6c-1.1,0-2-0.9-2-2V53.1c0-1.1,0.9-2,2-2h2.8v-9.2
				c0-1.1,0.9-2,2-2h2.9l3.8-16.5c0.2-0.9,1-1.6,2-1.5h5.3V11.7 M62.5,55.1h-5.9l0,114.1h37.6V55.1H62.5 M66.2,43.9h-4.8v7.2h27.9
				v-7.2H66.2 M73,25.9h-3.2l-3.3,14h17.9l-3.2-14H73 M13,91.3h31.8c1.1,0,2,0.9,2,2v77.9c0,1.1-0.9,2-2,2v0h-37c-1.1,0-2-0.9-2-2
				V93.3c0-1.1,0.9-2,2-2H13 M13.3,95.3H9.8v73.9h33V95.3H13.3 M133.5,155.7v-1.9c0-1.1,0.9-2,2-2s2,0.9,2,2v4.6c0,1.1-0.9,2-2,2
				s-2-0.9-2-2V155.7 M126.1,155.2v-1.4c0-1.1,0.9-2,2-2c1.1,0,2,0.9,2,2v4.6c0,1.1-0.9,2-2,2c-1.1,0-2-0.9-2-2V155.2 M118.8,155.2
				v-1.4c0-1.1,0.9-2,2-2s2,0.9,2,2v4.6c0,1.1-0.9,2-2,2s-2-0.9-2-2V155.2 M111.4,155.7v-1.9c0-1.1,0.9-2,2-2s2,0.9,2,2v4.6
				c0,1.1-0.9,2-2,2s-2-0.9-2-2V155.7 M85.3,156.3v-2.4c0-1.1,0.9-2,2-2s2,0.9,2,2v4.6c0,1.1-0.9,2-2,2s-2-0.9-2-2V156.3
				 M77.1,155.5v-1.7c0-1.1,0.9-2,2-2s2,0.9,2,2v4.6c0,1.1-0.9,2-2,2s-2-0.9-2-2V155.5 M68.9,156.3v-2.4c0-1.1,0.9-2,2-2s2,0.9,2,2
				v4.6c0,1.1-0.9,2-2,2s-2-0.9-2-2V156.3 M60.7,156.3v-2.4c0-1.1,0.9-2,2-2s2,0.9,2,2v4.6c0,1.1-0.9,2-2,2s-2-0.9-2-2V156.3
				 M37.3,160.5c-1.1,0-2-0.9-2-2v-4.6c0-1.1,0.9-2,2-2s2,0.9,2,2v4.6C39.3,159.6,38.4,160.5,37.3,160.5z M30,160.5
				c-1.1,0-2-0.9-2-2v-4.6c0-1.1,0.9-2,2-2s2,0.9,2,2v4.6C32,159.6,31.1,160.5,30,160.5z M20.6,156.5v-2.7c0-1.1,0.9-2,2-2
				c1.1,0,2,0.9,2,2v4.6c0,1.1-0.9,2-2,2c-1.1,0-2-0.9-2-2V156.5 M13.2,155.7v-1.9c0-1.1,0.9-2,2-2s2,0.9,2,2v4.6c0,1.1-0.9,2-2,2
				s-2-0.9-2-2V155.7 M133.5,142.2v-1.7c0-1.1,0.9-2,2-2s2,0.9,2,2v4.6c0,1.1-0.9,2-2,2s-2-0.9-2-2V142.2 M126.1,142.8v-2.2
				c0-1.1,0.9-2,2-2c1.1,0,2,0.9,2,2v4.6c0,1.1-0.9,2-2,2c-1.1,0-2-0.9-2-2V142.8 M118.8,143.5v-3c0-1.1,0.9-2,2-2s2,0.9,2,2v4.6
				c0,1.1-0.9,2-2,2s-2-0.9-2-2V143.5 M111.4,143.5v-3c0-1.1,0.9-2,2-2s2,0.9,2,2v4.6c0,1.1-0.9,2-2,2s-2-0.9-2-2V143.5 M85.3,143.3
				v-2.7c0-1.1,0.9-2,2-2s2,0.9,2,2v4.6c0,1.1-0.9,2-2,2s-2-0.9-2-2V143.3 M77.1,142.5v-2c0-1.1,0.9-2,2-2s2,0.9,2,2v4.6
				c0,1.1-0.9,2-2,2s-2-0.9-2-2V142.5 M68.9,142.2v-1.7c0-1.1,0.9-2,2-2s2,0.9,2,2v4.6c0,1.1-0.9,2-2,2s-2-0.9-2-2V142.2 M60.7,142
				v-1.5c0-1.1,0.9-2,2-2s2,0.9,2,2v4.6c0,1.1-0.9,2-2,2s-2-0.9-2-2V142 M37.3,147.2c-1.1,0-2-0.9-2-2v-4.6c0-1.1,0.9-2,2-2
				s2,0.9,2,2v4.6C39.3,146.3,38.4,147.2,37.3,147.2z M30,147.2c-1.1,0-2-0.9-2-2v-4.6c0-1.1,0.9-2,2-2s2,0.9,2,2v4.6
				C32,146.3,31.1,147.2,30,147.2z M20.6,142.8v-2.2c0-1.1,0.9-2,2-2c1.1,0,2,0.9,2,2v4.6c0,1.1-0.9,2-2,2c-1.1,0-2-0.9-2-2V142.8
				 M13.2,143v-2.5c0-1.1,0.9-2,2-2s2,0.9,2,2v4.6c0,1.1-0.9,2-2,2s-2-0.9-2-2V143 M133.5,129.2v-2c0-1.1,0.9-2,2-2s2,0.9,2,2v4.6
				c0,1.1-0.9,2-2,2v0c-1.1,0-2-0.9-2-2V129.2 M126.1,129.8v-2.5c0-1.1,0.9-2,2-2c1.1,0,2,0.9,2,2v4.6c0,1.1-0.9,2-2,2v0
				c-1.1,0-2-0.9-2-2V129.8 M118.8,129.8v-2.5c0-1.1,0.9-2,2-2s2,0.9,2,2v4.6c0,1.1-0.9,2-2,2v0c-1.1,0-2-0.9-2-2V129.8
				 M111.4,129.5v-2.3c0-1.1,0.9-2,2-2s2,0.9,2,2v4.6c0,1.1-0.9,2-2,2v0c-1.1,0-2-0.9-2-2V129.5 M85.3,129v-1.8c0-1.1,0.9-2,2-2
				s2,0.9,2,2v4.6c0,1.1-0.9,2-2,2v0c-1.1,0-2-0.9-2-2V129 M77.1,129.5v-2.3c0-1.1,0.9-2,2-2s2,0.9,2,2v4.6c0,1.1-0.9,2-2,2v0
				c-1.1,0-2-0.9-2-2V129.5 M68.9,129.2v-2c0-1.1,0.9-2,2-2s2,0.9,2,2v4.6c0,1.1-0.9,2-2,2v0c-1.1,0-2-0.9-2-2V129.2 M60.8,129v-1.8
				c0-1.1,0.9-2,2-2s2,0.9,2,2v4.6c0,1.1-0.9,2-2,2v0c-1.1,0-2-0.9-2-2V129 M37.3,133.9c-1.1,0-2-0.9-2-2v-4.6c0-1.1,0.9-2,2-2
				s2,0.9,2,2v4.6C39.3,133,38.5,133.9,37.3,133.9L37.3,133.9z M30,133.9c-1.1,0-2-0.9-2-2v-4.6c0-1.1,0.9-2,2-2s2,0.9,2,2v4.6
				C32,133,31.1,133.9,30,133.9L30,133.9z M20.6,129v-1.8c0-1.1,0.9-2,2-2c1.1,0,2,0.9,2,2v4.6c0,1.1-0.9,2-2,2v0c-1.1,0-2-0.9-2-2
				V129 M13.2,128.7v-1.5c0-1.1,0.9-2,2-2s2,0.9,2,2v4.6c0,1.1-0.9,2-2,2v0c-1.1,0-2-0.9-2-2V128.7 M133.5,115.8v-1.8
				c0-1.1,0.9-2,2-2s2,0.9,2,2v4.6c0,1.1-0.9,2-2,2v0c-1.1,0-2-0.9-2-2V115.8 M126.2,116.5v-2.6c0-1.1,0.9-2,2-2c1.1,0,2,0.9,2,2
				v4.6c0,1.1-0.9,2-2,2v0c-1.1,0-2-0.9-2-2V116.5 M118.8,116.3v-2.3c0-1.1,0.9-2,2-2s2,0.9,2,2v4.6c0,1.1-0.9,2-2,2v0
				c-1.1,0-2-0.9-2-2V116.3 M111.4,116v-2.1c0-1.1,0.9-2,2-2s2,0.9,2,2v4.6c0,1.1-0.9,2-2,2v0c-1.1,0-2-0.9-2-2V116 M85.3,115.8
				v-1.8c0-1.1,0.9-2,2-2s2,0.9,2,2v4.6c0,1.1-0.9,2-2,2v0c-1.1,0-2-0.9-2-2V115.8 M77.1,115.8v-1.8c0-1.1,0.9-2,2-2s2,0.9,2,2v4.6
				c0,1.1-0.9,2-2,2v0c-1.1,0-2-0.9-2-2V115.8 M69,115.8v-1.8c0-1.1,0.9-2,2-2s2,0.9,2,2v4.6c0,1.1-0.9,2-2,2v0c-1.1,0-2-0.9-2-2
				V115.8 M60.8,115.5v-1.6c0-1.1,0.9-2,2-2s2,0.9,2,2v4.6c0,1.1-0.9,2-2,2v0c-1.1,0-2-0.9-2-2V115.5 M37.4,120.6c-1.1,0-2-0.9-2-2
				v-4.6c0-1.1,0.9-2,2-2s2,0.9,2,2v4.6C39.4,119.7,38.5,120.6,37.4,120.6L37.4,120.6z M30,120.6c-1.1,0-2-0.9-2-2v-4.6
				c0-1.1,0.9-2,2-2s2,0.9,2,2v4.6C32,119.7,31.1,120.6,30,120.6L30,120.6z M20.6,116.3v-2.3c0-1.1,0.9-2,2-2c1.1,0,2,0.9,2,2v4.6
				c0,1.1-0.9,2-2,2v0c-1.1,0-2-0.9-2-2V116.3 M13.2,116.3v-2.3c0-1.1,0.9-2,2-2s2,0.9,2,2v4.6c0,1.1-0.9,2-2,2v0c-1.1,0-2-0.9-2-2
				V116.3 M133.5,103.3v-2.6c0-1.1,0.9-2,2-2s2,0.9,2,2v4.6c0,1.1-0.9,2-2,2v0c-1.1,0-2-0.9-2-2V103.3 M126.2,102v-1.4
				c0-1.1,0.9-2,2-2c1.1,0,2,0.9,2,2v4.6c0,1.1-0.9,2-2,2v0c-1.1,0-2-0.9-2-2V102 M118.8,102.7v-2.1c0-1.1,0.9-2,2-2s2,0.9,2,2v4.6
				c0,1.1-0.9,2-2,2v0c-1.1,0-2-0.9-2-2V102.7 M111.4,102.7v-2.1c0-1.1,0.9-2,2-2s2,0.9,2,2v4.6c0,1.1-0.9,2-2,2v0c-1.1,0-2-0.9-2-2
				V102.7 M85.3,102.3v-1.6c0-1.1,0.9-2,2-2s2,0.9,2,2v4.6c0,1.1-0.9,2-2,2v0c-1.1,0-2-0.9-2-2V102.3 M77.2,102.5v-1.9
				c0-1.1,0.9-2,2-2s2,0.9,2,2v4.6c0,1.1-0.9,2-2,2v0c-1.1,0-2-0.9-2-2V102.5 M69,102.7v-2.1c0-1.1,0.9-2,2-2s2,0.9,2,2v4.6
				c0,1.1-0.9,2-2,2v0c-1.1,0-2-0.9-2-2V102.7 M60.8,103.3v-2.6c0-1.1,0.9-2,2-2s2,0.9,2,2v4.6c0,1.1-0.9,2-2,2v0c-1.1,0-2-0.9-2-2
				V103.3 M37.4,107.3c-1.1,0-2-0.9-2-2v-4.6c0-1.1,0.9-2,2-2s2,0.9,2,2v4.6C39.4,106.4,38.5,107.3,37.4,107.3L37.4,107.3z
				 M30,107.3c-1.1,0-2-0.9-2-2v-4.6c0-1.1,0.9-2,2-2s2,0.9,2,2v4.6C32,106.4,31.1,107.3,30,107.3L30,107.3z M20.6,102v-1.4
				c0-1.1,0.9-2,2-2c1.1,0,2,0.9,2,2v4.6c0,1.1-0.9,2-2,2v0c-1.1,0-2-0.9-2-2V102 M13.3,103v-2.4c0-1.1,0.9-2,2-2s2,0.9,2,2v4.6
				c0,1.1-0.9,2-2,2v0c-1.1,0-2-0.9-2-2V103 M126.2,89.5v-2.2c0-1.1,0.9-2,2-2s2,0.9,2,2V92c0,1.1-0.9,2-2,2v0c-1.1,0-2-0.9-2-2
				V89.5 M118.8,90.8v-3.5c0-1.1,0.9-2,2-2s2,0.9,2,2V92c0,1.1-0.9,2-2,2v0c-1.1,0-2-0.9-2-2V90.8 M111.4,89.5v-2.2c0-1.1,0.9-2,2-2
				s2,0.9,2,2V92c0,1.1-0.9,2-2,2v0c-1.1,0-2-0.9-2-2V89.5 M85.4,89v-1.7c0-1.1,0.9-2,2-2s2,0.9,2,2V92c0,1.1-0.9,2-2,2v0
				c-1.1,0-2-0.9-2-2V89 M77.2,89v-1.7c0-1.1,0.9-2,2-2s2,0.9,2,2V92c0,1.1-0.9,2-2,2v0c-1.1,0-2-0.9-2-2V89 M69,89.5v-2.2
				c0-1.1,0.9-2,2-2s2,0.9,2,2V92c0,1.1-0.9,2-2,2v0c-1.1,0-2-0.9-2-2V89.5 M60.8,90.8v-3.5c0-1.1,0.9-2,2-2s2,0.9,2,2V92
				c0,1.1-0.9,2-2,2v0c-1.1,0-2-0.9-2-2V90.8 M85.4,76.3v-2.2c0-1.1,0.9-2,2-2s2,0.9,2,2v4.6c0,1.1-0.9,2-2,2v0c-1.1,0-2-0.9-2-2
				V76.3 M77.2,76.5v-2.5c0-1.1,0.9-2,2-2s2,0.9,2,2v4.6c0,1.1-0.9,2-2,2v0c-1.1,0-2-0.9-2-2V76.5 M69,75.8v-1.7c0-1.1,0.9-2,2-2
				s2,0.9,2,2v4.6c0,1.1-0.9,2-2,2v0c-1.1,0-2-0.9-2-2V75.8 M60.8,75.5v-1.4c0-1.1,0.9-2,2-2s2,0.9,2,2v4.6c0,1.1-0.9,2-2,2v0
				c-1.1,0-2-0.9-2-2V75.5 M85.3,62.5v-1.8c0-1.1,0.9-2,2-2s2,0.9,2,2v4.6c0,1.1-0.9,2-2,2s-2-0.9-2-2V62.5 M77.1,62.5v-1.8
				c0-1.1,0.9-2,2-2s2,0.9,2,2v4.6c0,1.1-0.9,2-2,2s-2-0.9-2-2V62.5 M68.9,62.7v-2c0-1.1,0.9-2,2-2s2,0.9,2,2v4.6c0,1.1-0.9,2-2,2
				s-2-0.9-2-2V62.7 M60.8,60.8c0-1.1,0.9-2,2-2s2,0.9,2,2v4.6c0,1.1-0.9,2-2,2s-2-0.9-2-2V60.8"/>
</svg>
