<?xml version="1.0" encoding="utf-8"?>
<!-- Generator: Adobe Illustrator 21.0.0, SVG Export Plug-In . SVG Version: 6.00 Build 0)  -->
<svg version="1.1" id="Слой_1" xmlns="http://www.w3.org/2000/svg" xmlns:xlink="http://www.w3.org/1999/xlink" x="0px" y="0px"
	 viewBox="0 0 510 288" style="enable-background:new 0 0 510 288;" xml:space="preserve">
<style type="text/css">
	.st0{fill:none;stroke:#FF141F;stroke-miterlimit:10;}
</style>
		<path class="st0" d="M93.4,29.5C83.8,38.4,79,52,79,70.4v6c-6.5-3.8-13.8-5.9-21.3-6C34.1,70.4,15,89.5,15,113.1c0,0,0,0,0,0v85.3
			c0,23.6,19.1,42.7,42.6,42.7c0,0,0,0,0,0H79v21.3c-0.2,5.9,4.4,10.8,10.3,11c5.9,0.2,10.8-4.4,11-10.3c0-0.2,0-0.4,0-0.7v-21.3
			h309.3v21.3c-0.2,5.9,4.4,10.8,10.3,11c5.9,0.2,10.8-4.4,11-10.3c0-0.2,0-0.4,0-0.7v-21.3h21.2c23.6,0,42.7-19.1,42.8-42.7v-85.3
			c0-23.6-19.1-42.7-42.6-42.7c0,0,0,0,0,0c-7.5,0.1-14.9,2.1-21.3,6v-6c0-35.4-17.9-53.3-53.3-53.3H132.3
			C115.3,17.1,102.3,21.2,93.4,29.5 M100.3,70.4c0-23.6,8.3-32,32-32h245.3c23.6,0,32,8.4,32,32v74.7H100.3L100.3,70.4 M47.6,94.3
			c3-1.6,6.4-2.5,10.1-2.5c11.8,0,21.3,9.5,21.3,21.3v53.3h352v-53.3c0-11.8,9.6-21.3,21.3-21.3s21.3,9.6,21.3,21.3l0,85.3
			c0,11.8-9.6,21.3-21.4,21.3H57.7c-11.8,0-21.3-9.6-21.3-21.3v-85.3C36.3,104.9,40.9,97.9,47.6,94.3"/>
</svg>
