<svg xmlns="http://www.w3.org/2000/svg" viewBox="0 0 480 256" fill="#ff141f"><title>sofa</title><g id="Слой_2" data-name="Слой 2"><g id="Layer_1" data-name="Layer 1"><path d="M437.33,53.33a42.09,42.09,0,0,0-21.33,6v-6C416,17.92,398.08,0,362.67,0H117.33C81.92,0,64,17.92,64,53.33v6a43.17,43.17,0,0,0-21.33-6A42.65,42.65,0,0,0,0,96v85.33A42.65,42.65,0,0,0,42.67,224H64v21.33a10.67,10.67,0,1,0,21.33,0V224H394.67v21.33a10.67,10.67,0,1,0,21.33,0V224h21.23A42.75,42.75,0,0,0,480,181.33V96A42.65,42.65,0,0,0,437.33,53.33Zm-352,0c0-23.57,8.32-32,32-32H362.67c23.57,0,32,8.43,32,32V128H85.33Zm373.33,128a21.42,21.42,0,0,1-21.44,21.33H42.67a21.4,21.4,0,0,1-21.33-21.33V96A21.33,21.33,0,1,1,64,96v53.33H416V96a21.33,21.33,0,1,1,42.67,0Z"/></g></g></svg>