<?xml version="1.0" encoding="utf-8"?>
<!-- Generator: Adobe Illustrator 21.0.0, SVG Export Plug-In . SVG Version: 6.00 Build 0)  -->
<svg version="1.1" id="Слой_1" xmlns="http://www.w3.org/2000/svg" xmlns:xlink="http://www.w3.org/1999/xlink" x="0px" y="0px"
	 viewBox="0 0 265 318.5" style="enable-background:new 0 0 265 318.5;" xml:space="preserve">
<style type="text/css">
	.st0{display:none;}
	.st1{display:inline;}
	.st2{fill:#3D4A5A;}
</style>
<g id="Слой_1_1_">
	<g id="Capa_1" class="st0">
		<g class="st1">
			<path class="st2" d="M164.7,66.1c3,0,5.5-2.5,5.5-5.5v-5.5c0-3-2.5-5.5-5.5-5.5s-5.5,2.5-5.5,5.5v5.5
				C159.2,63.6,161.7,66.1,164.7,66.1z"/>
			<path class="st2" d="M159.2,291.2v5.5c0,3,2.5,5.5,5.5,5.5s5.5-2.5,5.5-5.5v-5.5c0-3-2.5-5.5-5.5-5.5
				C161.7,285.7,159.2,288.2,159.2,291.2z"/>
			<path class="st2" d="M285.5,181.4c3,0,5.5-2.5,5.5-5.5s-2.5-5.5-5.5-5.5H280c-3,0-5.5,2.5-5.5,5.5s2.5,5.5,5.5,5.5H285.5z"/>
			<path class="st2" d="M43.9,170.4c-3,0-5.5,2.5-5.5,5.5s2.5,5.5,5.5,5.5h5.5c3,0,5.5-2.5,5.5-5.5s-2.5-5.5-5.5-5.5H43.9z"/>
			<path class="st2" d="M246.3,99.8c1.4,0,2.8-0.5,3.9-1.6l3.9-3.9c2.1-2.1,2.1-5.6,0-7.8c-2.1-2.1-5.6-2.1-7.8,0l-3.9,3.9
				c-2.1,2.1-2.1,5.6,0,7.8C243.4,99.3,244.8,99.8,246.3,99.8z"/>
			<path class="st2" d="M79.3,253.5l-3.9,3.9c-2.1,2.1-2.1,5.6,0,7.8c1.1,1.1,2.5,1.6,3.9,1.6s2.8-0.5,3.9-1.6l3.9-3.9
				c2.1-2.1,2.1-5.6,0-7.8C84.9,251.4,81.4,251.4,79.3,253.5z"/>
			<path class="st2" d="M87.1,90.5l-3.9-3.9c-2.1-2.1-5.6-2.1-7.8,0c-2.1,2.1-2.1,5.6,0,7.8l3.9,3.9c1.1,1.1,2.5,1.6,3.9,1.6
				c1.4,0,2.8-0.5,3.9-1.6C89.2,96.1,89.2,92.6,87.1,90.5z"/>
			<path class="st2" d="M164.7,11.8C73.9,11.8,0,85.7,0,176.6s73.9,164.7,164.7,164.7c19.6,0,38.9-3.4,57.2-10.2
				c2.8-1,4.3-4.2,3.2-7c-1.1-2.9-4.2-4.3-7.1-3.2c-17.1,6.3-35,9.5-53.4,9.5C80,330.3,11,261.3,11,176.6
				C11,91.8,80,22.8,164.7,22.8s153.7,69,153.7,153.7c0,18.3-3.2,36.3-9.5,53.4c-1,2.9,0.4,6,3.2,7.1c2.8,1.1,6-0.4,7.1-3.2
				c6.8-18.3,10.2-37.5,10.2-57.2C329.4,85.7,255.6,11.8,164.7,11.8z"/>
		</g>
		<g class="st1">
			<path class="st2" d="M249,284.3v9.8h39.8v9.4H249v25h-13.2v-25h-6.8v-9.4h6.8v-9.8h-6.8v-11.4h6.8V229H267
				c8.9,0,15.7,0.9,20.2,2.7c4.6,1.8,8.3,4.9,11.1,9.4c2.8,4.5,4.1,9.5,4.1,15c0,5.5-1,10.1-3.1,13.7c-2,3.6-4.7,6.5-8.1,8.7
				c-3.4,2.1-7.2,3.7-11.6,4.5s-8.9,1.3-13.5,1.3L249,284.3L249,284.3z M266.1,272.9c3,0,5.9-0.2,8.7-0.7c2.8-0.5,5.2-1.3,7.3-2.6
				c2.1-1.3,3.7-3,5-5.1c1.2-2.1,1.8-4.9,1.8-8.3c0-2.9-0.6-5.4-1.7-7.5c-1.1-2-2.6-3.7-4.5-5c-1.9-1.3-4.2-2.2-6.8-2.8
				c-2.6-0.6-5.4-0.9-8.3-0.9H249v32.9L266.1,272.9L266.1,272.9z"/>
		</g>
		<g class="st1">
			<path class="st2" d="M133.7,158.9c0,5.2-0.7,9.9-2.2,14c-1.5,4.1-3.6,8.2-6.4,12.2c-9,12.8-15.9,19.2-20.7,19.2
				c-1.5,0-2.7-0.6-3.7-1.6c-1-1.1-1.5-2.4-1.5-3.8c0-1.1,0.5-2.2,1.5-3.4c0.6-0.7,1.9-2,3.9-3.9c4.9-4.6,8.8-9.3,11.6-13.9h-0.1
				c-2.4,1.1-5.3,1.6-8.7,1.6c-5.6,0-10.1-2.2-13.5-6.6c-3.2-4-4.8-8.9-4.8-14.6c0-6.6,2.2-12.1,6.5-16.5c4.3-4.4,9.7-6.6,16.3-6.6
				c7,0,12.4,2.3,16.3,7C131.9,146.1,133.7,151.8,133.7,158.9z M111.6,145.7c-3.2,0-5.8,1.2-7.6,3.5c-1.8,2.3-2.7,5.2-2.7,8.5
				c0,3.4,0.8,6.2,2.3,8.2c1.7,2.3,4.2,3.5,7.5,3.5c3.2,0,5.8-1,7.7-3.1c1.9-2.1,2.9-4.7,2.9-8c0-3.5-0.8-6.4-2.3-8.7
				C117.6,147,115,145.7,111.6,145.7z"/>
			<path class="st2" d="M188.9,169.5c0,9.5-1.6,17.2-4.9,23.2c-4.1,7.6-10.6,11.4-19.2,11.4c-8.7,0-15.1-3.8-19.2-11.4
				c-3.3-6-4.9-13.8-4.9-23.2c0-9.5,1.6-17.2,4.9-23.2c4.1-7.6,10.6-11.4,19.3-11.4s15.2,3.8,19.3,11.4
				C187.3,152.3,188.9,160,188.9,169.5z M177,169.4c0-5.9-0.7-10.9-2-14.9c-2.1-6.1-5.5-9.1-10.2-9.1c-4.8,0-8.2,3-10.3,9
				c-1.4,4-2.1,9-2.1,15c0,16.1,4.1,24.2,12.4,24.2c4.8,0,8.1-3.1,10.2-9.2C176.3,180.5,177,175.5,177,169.4z"/>
			<path class="st2" d="M242.1,169.5c0,9.5-1.6,17.2-4.9,23.2c-4.1,7.6-10.6,11.4-19.2,11.4c-8.7,0-15.1-3.8-19.2-11.4
				c-3.3-6-4.9-13.8-4.9-23.2c0-9.5,1.6-17.2,4.9-23.2c4.1-7.6,10.6-11.4,19.3-11.4c8.7,0,15.2,3.8,19.3,11.4
				C240.5,152.3,242.1,160,242.1,169.5z M230.2,169.4c0-5.9-0.7-10.9-2-14.9c-2.1-6.1-5.5-9.1-10.2-9.1c-4.8,0-8.2,3-10.3,9
				c-1.4,4-2.1,9-2.1,15c0,16.1,4.1,24.2,12.4,24.2c4.8,0,8.1-3.1,10.2-9.2C229.6,180.5,230.2,175.5,230.2,169.4z"/>
		</g>
	</g>
	<path id="Слой_4" class="st2" d="M160.7,265.1c-10.3,0-18.7,8.4-18.7,18.7c0,10.3,8.4,18.7,18.7,18.7
		c10.3,0,18.7-8.4,18.7-18.7C179.4,273.5,171,265.1,160.7,265.1z M160.7,291.8c-4.4,0-8-3.6-8-8s3.6-8,8-8c4.4,0,8,3.6,8,8
		C168.7,288.2,165.1,291.8,160.7,291.8z M46.1,113.3L65,132.1c1,1,2.4,1.6,3.8,1.6c1.4,0,2.7-0.5,3.8-1.6c2.1-2.1,2.1-5.5,0-7.6
		l-11.7-11.7c5.9-8.9,5.9-20.6,0-29.4L84.2,60c8.7,5.8,20.8,5.8,29.5,0l11.7,11.7c2.1,2.1,5.5,2.1,7.6,0c2.1-2.1,2.1-5.5,0-7.6
		L114,45.3l-3.8,3.8c-6.1,6-16.6,6-22.7,0l-3.8-3.8L46.1,83l3.8,3.8c6.2,6.2,6.2,16.4,0,22.7L46.1,113.3z M205,151.4
		c-5.9,8.9-5.9,20.6,0,29.4l-23.4,23.4c-8.7-5.8-20.8-5.8-29.5,0l-11.7-11.7c-2.1-2.1-5.5-2.1-7.6,0c-2.1,2.1-2.1,5.5,0,7.6
		l18.9,18.9l3.8-3.8c6.1-6.1,16.6-6,22.7,0l3.8,3.8l37.8-37.8l-3.8-3.8c-6.2-6.2-6.2-16.4,0-22.7l3.8-3.8l-18.9-18.9
		c-2.1-2.1-5.5-2.1-7.6,0c-2.1,2.1-2.1,5.5,0,7.6L205,151.4z M227.3,160.8c2.9,0,5.3,2.4,5.3,5.3s-2.4,5.3-5.3,5.3s-5.3-2.4-5.3-5.3
		S224.4,160.8,227.3,160.8z M166.9,221.2c2.9,0,5.3,2.4,5.3,5.3s-2.4,5.3-5.3,5.3s-5.3-2.4-5.3-5.3S163.9,221.2,166.9,221.2z
		 M102.7,41.5c2.1-2.1,4-5.5,2-7.6c-2.1-2.1-5.5-2.1-7.6,0c-2.1,2.1-4,5.5-2,7.6C97.2,43.6,100.6,43.6,102.7,41.5z M38.5,92.8
		c2.9,0,5.3,2.4,5.3,5.3s-2.4,5.3-5.3,5.3s-5.3-2.4-5.3-5.3S35.6,92.8,38.5,92.8z M248.8,198.4c0-4.7-0.8-9.3-2.2-13.8l18.4-18.4
		l-24.3-24.6c5-4.5,8.1-10.9,8.1-17.9c0-13.2-10.8-24-24-24c-1,0-1.9,0.1-2.9,0.2c0.1-0.9,0.2-1.9,0.2-2.9c0-13.2-10.8-24-24-24
		c-1,0-1.9,0.1-2.9,0.2c0.1-0.9,0.2-1.9,0.2-2.9c0-13.2-10.8-24-24-24c-1,0-1.9,0.1-2.9,0.2c0.1-1,0.2-1.9,0.2-2.9
		c0-13.9-9.3-24-22.1-24c-7,0-14,3-18.9,7.6L101,0L0.7,98.1l49.4,49.4c-2.6,3.9-4.2,8.5-4.2,13.5c0,8.4,4.3,15.7,10.8,20
		c0.3,0.4,0.7,0.9,1.2,1.3l57.4,57.2v9.6h-10.7v69.4h96.1h42.7v-69.4h-10.7v-16.2C243,224.3,248.8,211.8,248.8,198.4z M56.6,161
		c0-3.5,1.4-6.7,3.6-9.1l0.8-0.7c1.9-1.7,4.1-2.8,6.4-3.3c0.8-0.2,1.6-0.3,2.5-0.3h11.8h41.6c7.4,0,13.4,6,13.4,13.4
		c0,0.9-0.1,1.7-0.3,2.5c-1.1,5.6-5.9,10.1-11.9,10.7l-1.6,0.1H92H76.9h-7C62.6,174.3,56.6,168.3,56.6,161z M102.7,101.9
		c16.7-16.7,43.8-16.7,60.4,0c8.1,8.1,12.5,18.8,12.5,30.2s-4.4,22.1-12.5,30.2c-5.4,5.4-12,9.1-19.2,11c0.6-1,1.1-2,1.5-3
		c0-0.1,0-0.1,0.1-0.2c0.5-1.2,0.9-2.5,1.2-3.8c0.1-0.3,0.1-0.7,0.2-1c0.3-1.4,0.4-2.9,0.4-4.3c0-13.2-10.8-24-24-24H90.5
		C89,124,93.4,111.2,102.7,101.9z M238.1,123.6c0,4-1.9,7.8-4.9,10.3L214.6,115c2.5-3,6.2-4.8,10.2-4.8
		C232.1,110.3,238.1,116.2,238.1,123.6z M211.4,96.9c0,4-1.8,7.6-4.7,10.1L188,88.2c2.5-2.9,6.1-4.6,10-4.6
		C205.4,83.6,211.4,89.5,211.4,96.9z M184.7,70.2c0,3.9-1.7,7.5-4.6,10l-18.6-18.9c2.5-2.8,6-4.5,9.9-4.5
		C178.7,56.9,184.7,62.8,184.7,70.2z M146.6,30.2c7.9,0,11.4,6.7,11.4,13.4c0,3.8-1.7,7.3-4.4,9.8l-18.4-18.7
		C138.1,32,142.5,30.2,146.6,30.2z M100.8,15.1l20.8,21.1l-0.5,1l26.7,26.7L151,67l23.6,23.6l3.1,3.1l23.6,23.6l3.1,3.1l26.7,26.7
		l0.1,0l18.8,19.1l-83,83h-0.2L102.7,185h20.6c0.5,0,1.1-0.1,1.6-0.2c2.7,0.4,5.3,0.6,8,0.6c14.1,0,27.7-5.5,37.8-15.6
		c10.1-10.1,15.6-23.5,15.6-37.8c0-14.3-5.6-27.7-15.6-37.8c-20.8-20.8-54.7-20.8-75.5,0c-11.3,11.3-16.8,26.9-15.4,42.6h-9.9
		c-1.4,0-2.8,0.2-4.2,0.4c-0.4,0.1-0.9,0.2-1.3,0.3c-1,0.2-2,0.5-2.9,0.9c-0.8,0.3-1.6,0.7-2.4,1.1c-0.4,0.2-0.8,0.4-1.2,0.6l-42-42
		L100.8,15.1z M124.1,233c-0.2-0.2-0.5-0.4-1-0.7L75.7,185h11.9l64.1,64.1H126v-14.5L124.1,233z M115.3,307.8v-48.1h41h4
		c0.7,0,1.5,0.1,2.2,0.1l4.4,4.4l2.9-2.9c11.8,4,20.2,15.1,20.2,28.2v18.3L115.3,307.8L115.3,307.8z M232.8,307.8h-32v-18.3
		c0-11.8-5.1-22.4-13.2-29.8h45.2L232.8,307.8L232.8,307.8z M182.1,249.1l19.9-19.9l35.8-35.8c0.2,1.6,0.4,3.3,0.4,4.9
		c0,11-5.1,21.1-13.9,27.7l-2.1,1.6v21.4H182.1z"/>
</g>
</svg>
