<?xml version="1.0" encoding="utf-8"?>
<!-- Generator: Adobe Illustrator 16.0.0, SVG Export Plug-In . SVG Version: 6.00 Build 0)  -->
<!DOCTYPE svg PUBLIC "-//W3C//DTD SVG 1.1//EN" "http://www.w3.org/Graphics/SVG/1.1/DTD/svg11.dtd">
<svg version="1.1" id="Слой_1" xmlns="http://www.w3.org/2000/svg" xmlns:xlink="http://www.w3.org/1999/xlink" x="0px" y="0px"
	 width="320.258px" height="320.258px" viewBox="0 0 320.258 320.258" enable-background="new 0 0 320.258 320.258"
	 xml:space="preserve">
<g id="Слой_2" display="none">
	<ellipse display="inline" fill="#FFFFFF" cx="1154.227" cy="389.507" rx="98.273" ry="117.995"/>
</g>
<g id="Слой_2_1_">
	<rect x="-0.001" y="80.065" fill="#FFFFFF" width="320.258" height="176.142"/>
	<rect x="247.146" y="8.946" fill="#FFFFFF" width="44.263" height="258.109"/>
</g>
<g id="Capa_1" display="none">
	<g display="inline">
		<path fill="#3D4A5A" d="M1124.723,257.53c3.029,0,5.49-2.454,5.49-5.49v-5.49c0-3.036-2.461-5.49-5.49-5.49s-5.49,2.454-5.49,5.49
			v5.49C1119.23,255.073,1121.691,257.53,1124.723,257.53z"/>
		<path fill="#3D4A5A" d="M1119.23,482.651v5.49c0,3.036,2.461,5.491,5.49,5.491s5.49-2.455,5.49-5.491v-5.49
			c0-3.036-2.461-5.491-5.49-5.491C1121.691,477.158,1119.23,479.615,1119.23,482.651z"/>
		<path fill="#3D4A5A" d="M1245.52,372.836c3.029,0,5.49-2.455,5.49-5.491s-2.461-5.49-5.49-5.49h-5.49
			c-3.031,0-5.49,2.454-5.49,5.49s2.459,5.491,5.49,5.491H1245.52z"/>
		<path fill="#3D4A5A" d="M1003.926,361.854c-3.031,0-5.492,2.454-5.492,5.49s2.461,5.491,5.492,5.491h5.49
			c3.031,0,5.49-2.455,5.49-5.491s-2.459-5.49-5.49-5.49H1003.926z"/>
		<path fill="#3D4A5A" d="M1206.254,291.297c1.406,0,2.813-0.537,3.883-1.607l3.881-3.882c2.148-2.146,2.148-5.617,0-7.766
			c-2.146-2.146-5.613-2.146-7.764,0l-3.881,3.883c-2.148,2.146-2.148,5.616,0,7.765
			C1203.443,290.765,1204.85,291.297,1206.254,291.297z"/>
		<path fill="#3D4A5A" d="M1039.309,444.993l-3.883,3.883c-2.146,2.146-2.146,5.617,0,7.766c1.07,1.07,2.479,1.606,3.883,1.606
			s2.813-0.536,3.881-1.606l3.885-3.883c2.146-2.146,2.146-5.616,0-7.766C1044.924,442.848,1041.449,442.848,1039.309,444.993z"/>
		<path fill="#3D4A5A" d="M1047.072,281.925l-3.883-3.883c-2.146-2.146-5.617-2.146-7.766,0c-2.146,2.146-2.146,5.617,0,7.766
			l3.883,3.882c1.07,1.07,2.477,1.607,3.883,1.607c1.404,0,2.811-0.537,3.883-1.607
			C1049.219,287.547,1049.219,284.072,1047.072,281.925z"/>
		<path fill="#3D4A5A" d="M1124.723,203.286C1033.895,203.286,960,277.181,960,368.01s73.895,164.723,164.723,164.723
			c19.637,0,38.869-3.432,57.182-10.208c2.844-1.049,4.295-4.211,3.246-7.05c-1.057-2.854-4.207-4.305-7.059-3.245
			c-17.088,6.314-35.041,9.521-53.369,9.521c-84.771,0-153.741-68.972-153.741-153.741c0-84.771,68.97-153.742,153.741-153.742
			s153.74,68.97,153.74,153.742c0,18.338-3.207,36.288-9.525,53.362c-1.049,2.852,0.4,6.009,3.244,7.057
			c2.846,1.07,6.002-0.396,7.057-3.238c6.775-18.301,10.209-37.535,10.209-57.181
			C1289.445,277.181,1215.551,203.286,1124.723,203.286z"/>
	</g>
	<g display="inline">
		<path fill="#3D4A5A" d="M1209.039,475.781v9.771h39.83v9.361h-39.83v25.039h-13.164v-25.039h-6.785v-9.361h6.785v-9.771h-6.785
			v-11.397h6.785V420.48h31.145c8.912,0,15.652,0.906,20.223,2.715c4.614,1.765,8.301,4.908,11.061,9.434
			c2.762,4.522,4.143,9.521,4.143,14.994c0,5.521-1.02,10.09-3.057,13.707c-2.035,3.619-4.736,6.503-8.105,8.651
			c-3.371,2.149-7.238,3.653-11.604,4.513c-4.367,0.859-8.88,1.289-13.537,1.289L1209.039,475.781L1209.039,475.781z
			 M1226.139,464.383c3.029,0,5.928-0.238,8.688-0.713c2.758-0.477,5.178-1.348,7.26-2.612c2.08-1.268,3.732-2.977,4.953-5.123
			c1.223-2.148,1.832-4.92,1.832-8.313c0-2.938-0.555-5.429-1.662-7.464c-1.107-2.036-2.623-3.696-4.547-4.985
			c-1.922-1.29-4.172-2.229-6.75-2.816c-2.58-0.587-5.361-0.882-8.348-0.882h-18.523v32.91L1226.139,464.383L1226.139,464.383z"/>
	</g>
	<g display="inline">
		<path fill="#3D4A5A" d="M1093.701,350.324c0,5.188-0.732,9.854-2.195,14.001c-1.465,4.15-3.602,8.207-6.406,12.172
			c-9.027,12.813-15.924,19.22-20.682,19.22c-1.465,0-2.686-0.55-3.662-1.647c-0.977-1.099-1.463-2.38-1.463-3.844
			c0-1.098,0.486-2.229,1.463-3.386c0.609-0.671,1.922-1.982,3.938-3.938c4.881-4.636,8.754-9.271,11.623-13.909h-0.094
			c-2.379,1.1-5.275,1.646-8.691,1.646c-5.553,0-10.066-2.196-13.545-6.589c-3.172-4.026-4.76-8.906-4.76-14.644
			c0-6.589,2.15-12.094,6.451-16.519c4.303-4.422,9.746-6.634,16.336-6.634c6.953,0,12.385,2.316,16.289,6.953
			C1091.9,337.546,1093.701,343.248,1093.701,350.324z M1071.646,337.148c-3.234,0-5.768,1.175-7.598,3.523
			c-1.83,2.348-2.744,5.17-2.744,8.465c0,3.417,0.764,6.162,2.287,8.234c1.707,2.319,4.209,3.479,7.504,3.479
			c3.232,0,5.813-1.037,7.732-3.112c1.922-2.073,2.883-4.727,2.883-7.961c0-3.538-0.764-6.437-2.287-8.694
			C1077.596,338.461,1075.002,337.148,1071.646,337.148z"/>
		<path fill="#3D4A5A" d="M1148.881,360.941c0,9.457-1.646,17.205-4.941,23.244c-4.146,7.627-10.555,11.438-19.217,11.438
			c-8.664,0-15.068-3.813-19.219-11.438c-3.293-6.039-4.941-13.787-4.941-23.244c0-9.456,1.617-17.173,4.854-23.152
			c4.146-7.626,10.584-11.438,19.309-11.438s15.16,3.813,19.311,11.438C1147.264,343.768,1148.881,351.485,1148.881,360.941z
			 M1136.984,360.895c0-5.928-0.672-10.91-2.014-14.944c-2.074-6.052-5.461-9.077-10.156-9.077c-4.82,0-8.236,2.995-10.25,8.985
			c-1.404,4.035-2.105,9.047-2.105,15.036c0,16.138,4.119,24.205,12.355,24.205c4.758,0,8.145-3.056,10.156-9.168
			C1136.313,371.96,1136.984,366.947,1136.984,360.895z"/>
		<path fill="#3D4A5A" d="M1202.141,360.941c0,9.457-1.646,17.205-4.939,23.244c-4.148,7.627-10.557,11.438-19.218,11.438
			c-8.663,0-15.069-3.813-19.22-11.438c-3.293-6.039-4.939-13.787-4.939-23.244c0-9.456,1.616-17.173,4.852-23.152
			c4.146-7.626,10.584-11.438,19.311-11.438c8.723,0,15.159,3.813,19.309,11.438
			C1200.523,343.768,1202.141,351.485,1202.141,360.941z M1190.244,360.895c0-5.928-0.672-10.91-2.012-14.944
			c-2.076-6.052-5.461-9.077-10.158-9.077c-4.82,0-8.236,2.995-10.25,8.985c-1.404,4.035-2.105,9.047-2.105,15.036
			c0,16.138,4.119,24.205,12.355,24.205c4.758,0,8.145-3.056,10.158-9.168C1189.572,371.96,1190.244,366.947,1190.244,360.895z"/>
	</g>
</g>
<g id="Слой_4" display="none">
	<g display="inline">
		<path fill="#3D4A5A" d="M1120.686,456.55c-10.305,0-18.688,8.382-18.688,18.688c0,10.308,8.383,18.688,18.688,18.688
			c10.307,0,18.688-8.382,18.688-18.688C1139.374,464.931,1130.99,456.55,1120.686,456.55z M1120.686,483.244
			c-4.413,0-8.008-3.593-8.008-8.009s3.594-8.009,8.008-8.009c4.416,0,8.011,3.593,8.011,8.009
			C1128.694,479.652,1125.107,483.244,1120.686,483.244z"/>
		<path fill="#3D4A5A" d="M1006.076,304.7l18.875,18.875c1.04,1.041,2.408,1.564,3.772,1.564c1.366,0,2.733-0.524,3.775-1.564
			c2.088-2.088,2.088-5.462,0-7.55l-11.704-11.704c5.878-8.89,5.878-20.556,0-29.446l23.407-23.414
			c8.655,5.758,20.785,5.758,29.453,0l11.702,11.705c2.088,2.087,5.464,2.087,7.551,0c2.088-2.088,2.088-5.462,0-7.551l-18.88-18.88
			l-3.774,3.775c-6.055,6.049-16.601,6.049-22.654,0l-3.773-3.775l-37.756,37.755l3.773,3.774c6.242,6.248,6.242,16.407,0,22.654
			L1006.076,304.7z"/>
		<path fill="#3D4A5A" d="M1165.023,342.836c-5.877,8.891-5.877,20.557,0,29.445l-23.406,23.413c-8.667-5.761-20.797-5.761-29.453,0
			l-11.703-11.704c-2.088-2.088-5.463-2.088-7.551,0c-2.087,2.088-2.087,5.462,0,7.55l18.881,18.883l3.773-3.775
			c6.056-6.056,16.602-6.045,22.653,0l3.777,3.775l37.753-37.757l-3.775-3.773c-6.238-6.246-6.238-16.408,0-22.655l3.775-3.772
			l-18.874-18.875c-2.088-2.089-5.461-2.089-7.55,0c-2.088,2.088-2.088,5.462,0,7.55L1165.023,342.836z"/>
		<circle fill="#3D4A5A" cx="1187.3" cy="357.555" r="5.34"/>
		<circle fill="#3D4A5A" cx="1126.893" cy="417.967" r="5.339"/>
		<path fill="#3D4A5A" d="M1062.706,232.966c2.087-2.088,4.046-5.468,1.965-7.551c-2.087-2.087-5.467-2.087-7.552,0
			c-2.087,2.088-4.047,5.467-1.964,7.551C1057.244,235.048,1060.624,235.048,1062.706,232.966z"/>
		<circle fill="#3D4A5A" cx="998.525" cy="289.595" r="5.339"/>
		<path fill="#3D4A5A" d="M1208.786,389.806c0-4.698-0.765-9.313-2.205-13.776l18.448-18.447l-24.32-24.626
			c5.035-4.483,8.077-10.943,8.077-17.901c0-13.247-10.78-24.027-24.026-24.027c-0.973,0-1.934,0.097-2.884,0.213
			c0.116-0.949,0.213-1.904,0.213-2.883c0-13.247-10.78-24.026-24.025-24.026c-0.973,0-1.934,0.097-2.884,0.213
			c0.118-0.949,0.215-1.905,0.215-2.882c0-13.248-10.781-24.027-24.027-24.027c-0.973,0-1.932,0.097-2.884,0.214
			c0.116-0.951,0.213-1.906,0.213-2.885c0-13.919-9.279-24.026-22.063-24.026c-6.982,0-14.029,3.021-18.922,7.593l-26.75-27.082
			l-100.23,98.105l49.353,49.356c-2.639,3.854-4.188,8.508-4.188,13.521c0,8.351,4.294,15.708,10.778,20.011
			c0.32,0.428,0.705,0.86,1.207,1.288l57.428,57.211v9.59h-10.68v69.412h96.109h42.713V440.53h-10.676v-16.173
			C1202.987,415.701,1208.786,403.256,1208.786,389.806z M1016.567,352.43c0-3.509,1.389-6.68,3.604-9.063l0.816-0.747
			c1.856-1.695,4.091-2.817,6.442-3.289c0.809-0.153,1.631-0.251,2.479-0.251h11.751h41.642c7.36,0,13.352,5.986,13.352,13.351
			c0,0.864-0.098,1.702-0.257,2.523c-1.125,5.617-5.928,10.104-11.854,10.675l-1.585,0.148h-30.917h-15.099h-7.032
			C1022.559,365.778,1016.567,359.794,1016.567,352.43z M1062.711,293.37c16.653-16.653,43.751-16.653,60.404,0
			c8.068,8.067,12.51,18.801,12.51,30.205s-4.441,22.139-12.51,30.206c-5.366,5.365-12.024,9.124-19.212,11.024
			c0.578-0.955,1.08-1.959,1.521-2.995c0.027-0.064,0.044-0.138,0.075-0.202c0.507-1.224,0.886-2.505,1.188-3.819
			c0.082-0.341,0.149-0.679,0.217-1.02c0.255-1.415,0.437-2.851,0.437-4.34c0-13.248-10.78-24.028-24.026-24.028h-32.812
			C1049.021,315.49,1053.432,302.65,1062.711,293.37z M1198.107,315.053c0,4.047-1.854,7.807-4.906,10.295l-18.624-18.859
			c2.498-2.974,6.188-4.79,10.182-4.79C1192.123,301.704,1198.107,307.691,1198.107,315.053z M1171.411,288.357
			c0,3.968-1.8,7.636-4.741,10.129l-18.624-18.858c2.493-2.866,6.104-4.624,10.017-4.624
			C1165.425,275.008,1171.411,280.994,1171.411,288.357z M1144.713,261.66c0,3.881-1.74,7.475-4.574,9.963l-18.625-18.854
			c2.487-2.762,6.02-4.453,9.85-4.453C1138.729,248.312,1144.713,254.297,1144.713,261.66z M1106.633,221.614
			c7.863,0,11.385,6.707,11.385,13.349c0,3.803-1.677,7.311-4.404,9.793l-18.421-18.65
			C1098.095,223.472,1102.452,221.614,1106.633,221.614z M1060.83,206.514l20.848,21.103l-0.462,1.046l26.698,26.695l3.061,3.061
			l23.64,23.639l3.059,3.059l23.64,23.64l3.059,3.06l26.698,26.696l0.084-0.038l18.829,19.062l-82.998,82.997h-0.178l-64.07-64.071
			h20.576c0.547,0,1.059-0.124,1.599-0.161c2.66,0.405,5.323,0.625,7.977,0.625c14.061,0,27.729-5.542,37.775-15.593
			c10.087-10.085,15.642-23.491,15.642-37.754c0-14.262-5.555-27.674-15.642-37.755c-20.813-20.813-54.69-20.813-75.509,0
			c-11.314,11.314-16.831,26.862-15.377,42.587h-9.862c-1.411,0-2.793,0.171-4.165,0.421c-0.442,0.081-0.881,0.166-1.313,0.269
			c-0.993,0.24-1.966,0.545-2.916,0.907c-0.827,0.311-1.616,0.684-2.396,1.084c-0.391,0.203-0.795,0.368-1.175,0.587L975.92,289.64
			L1060.83,206.514z M1084.102,424.427c-0.238-0.208-0.491-0.396-0.961-0.747l-47.396-47.224h11.889l64.072,64.073h-25.72v-14.513
			L1084.102,424.427z M1075.303,499.263V451.21h40.994h3.989c0.741,0,1.475,0.058,2.199,0.11l4.398,4.4l2.921-2.921
			c11.752,3.981,20.24,15.095,20.24,28.171v18.292L1075.303,499.263L1075.303,499.263z M1192.768,499.263h-32.035v-18.292
			c0-11.779-5.096-22.367-13.154-29.762h45.189V499.263L1192.768,499.263z M1142.081,440.531l19.911-19.911l35.759-35.759
			c0.24,1.634,0.356,3.279,0.356,4.945c0,10.972-5.063,21.075-13.896,27.717l-2.125,1.604v21.404H1142.081z"/>
	</g>
</g>
<g id="Слой_5">
	<g>
		<path fill="#3D4A5A" d="M320.257,80.065h-21.351V69.389V37.364V15.932C298.906,7.147,291.761,0,282.974,0h-21.512
			c-8.785,0-15.934,7.146-15.934,15.933v21.432v32.025v10.676H-0.001v176.142h245.53v12.094l21.35,37.364v9.255
			c0,2.951,2.394,5.338,5.339,5.338c2.946,0,5.338-2.387,5.338-5.338v-9.255l21.352-37.364v-12.094h21.351L320.257,80.065
			L320.257,80.065z M288.23,58.715h-32.024V48.039h32.024V58.715z M256.206,15.933c0-2.897,2.359-5.257,5.257-5.257h21.511
			c2.898,0,5.259,2.358,5.259,5.257v21.432h-32.024L256.206,15.933L256.206,15.933z M10.677,245.531V90.74h234.854v154.791H10.677z
			 M272.218,293.485l-12.151-21.267h24.309L272.218,293.485z M288.23,261.544h-32.024v-5.337V80.065V69.389h32.024v10.676v176.142
			V261.544z M309.581,245.531h-10.675V90.74h10.675V245.531z"/>
		<path fill="#3D4A5A" d="M208.167,138.779h-16.013c-2.946,0-5.338,2.385-5.338,5.337c0,2.951,2.392,5.338,5.338,5.338h16.013
			c2.946,0,5.338-2.387,5.338-5.338S211.113,138.779,208.167,138.779z"/>
		<path fill="#3D4A5A" d="M112.091,128.105h16.014c2.945,0,5.338-2.389,5.338-5.338c0-2.953-2.393-5.337-5.338-5.337h-16.014
			c-2.944,0-5.338,2.385-5.338,5.337C106.752,125.716,109.145,128.105,112.091,128.105z"/>
		<path fill="#3D4A5A" d="M208.167,117.427h-37.363c-2.944,0-5.338,2.387-5.338,5.339c0,2.949,2.394,5.338,5.338,5.338h37.363
			c2.946,0,5.338-2.389,5.338-5.338C213.505,119.814,211.113,117.427,208.167,117.427z"/>
		<path fill="#3D4A5A" d="M149.454,128.105c1.387,0,2.775-0.587,3.79-1.548c0.959-1.017,1.548-2.402,1.548-3.79
			c0-1.391-0.589-2.781-1.548-3.791c-2.028-1.977-5.604-1.977-7.58,0c-0.961,1.01-1.548,2.399-1.548,3.791
			c0,1.387,0.587,2.773,1.548,3.79C146.679,127.517,148.013,128.105,149.454,128.105z"/>
		<path fill="#3D4A5A" d="M128.103,144.117c0,2.951,2.393,5.338,5.338,5.338h37.361c2.946,0,5.34-2.387,5.34-5.338
			c0-2.952-2.394-5.337-5.34-5.337H133.44C130.495,138.779,128.103,141.165,128.103,144.117z"/>
		<path fill="#3D4A5A" d="M112.091,149.455c1.39,0,2.774-0.587,3.791-1.548c0.959-1.014,1.547-2.402,1.547-3.79
			c0-1.446-0.588-2.781-1.547-3.79c-2.028-1.975-5.605-1.975-7.582,0c-0.961,1.009-1.548,2.344-1.548,3.79
			c0,1.388,0.587,2.775,1.548,3.79C109.315,148.867,110.649,149.455,112.091,149.455z"/>
		<path fill="#3D4A5A" d="M58.714,123.305v-5.878c0-2.95-2.391-5.338-5.338-5.338c-2.945,0-5.338,2.388-5.338,5.338v5.897
			c-5.822,1.185-11.128,4.276-15.04,8.903c-3.262,3.854-4.771,8.786-4.237,13.895c0.545,5.228,3.233,10.071,7.382,13.295
			l11.896,9.25v29.026c-6.195-2.21-10.674-8.081-10.674-15.031c0-2.952-2.393-5.338-5.338-5.338c-2.947,0-5.338,2.387-5.338,5.338
			c0,12.885,9.186,23.667,21.35,26.149v4.689c0,2.952,2.393,5.337,5.338,5.337c2.947,0,5.338-2.386,5.338-5.337v-4.708
			c5.823-1.185,11.129-4.274,15.047-8.901c3.264-3.865,4.769-8.798,4.232-13.905c-0.549-5.22-3.234-10.063-7.381-13.279
			l-11.898-9.261V134.42c6.197,2.211,10.676,8.082,10.676,15.032c0,2.952,2.393,5.337,5.34,5.337c2.944,0,5.337-2.386,5.337-5.337
			C80.064,136.569,70.879,125.788,58.714,123.305z M64.056,181.131c1.862,1.448,3.074,3.63,3.32,5.97
			c0.229,2.188-0.399,4.284-1.768,5.897c-1.857,2.193-4.259,3.73-6.896,4.67v-20.7L64.056,181.131z M42.696,150.992
			c-1.869-1.452-3.075-3.635-3.32-5.979c-0.224-2.184,0.4-4.273,1.769-5.893c1.854-2.193,4.259-3.729,6.896-4.671v20.694
			L42.696,150.992z"/>
		<path fill="#3D4A5A" d="M128.877,178.277c-11.688,6.085-15.628,17.727-17.06,29.795c-2.209-1.854-4.419-3.7-6.624-5.551
			c-5.23-4.382-12.821,3.127-7.547,7.547c4.991,4.185,9.985,8.364,14.978,12.548c3.512,2.946,8.951,1.083,9.111-3.773
			c0.39-11.562,0.935-25.311,12.533-31.349C140.358,184.326,134.968,175.107,128.877,178.277z"/>
		<path fill="#3D4A5A" d="M164.372,199.57c-7.392,1.713-15.805,11.117-21.009,0.563c-3.037-6.157-12.249-0.757-9.218,5.388
			c2.759,5.6,8.007,9.517,14.246,10.307c3.17,0.401,6.035-0.048,9.01-1.206c2.183-0.85,10.34-6.977,12.101-3.828
			c3.351,6,12.574,0.62,9.218-5.386C175.854,200.278,170.052,198.251,164.372,199.57z"/>
	</g>
</g>
</svg>
