<?xml version="1.0" encoding="utf-8"?>
<!-- Generator: Adobe Illustrator 16.0.0, SVG Export Plug-In . SVG Version: 6.00 Build 0)  -->
<!DOCTYPE svg PUBLIC "-//W3C//DTD SVG 1.1//EN" "http://www.w3.org/Graphics/SVG/1.1/DTD/svg11.dtd">
<svg version="1.1" id="Слой_1" xmlns="http://www.w3.org/2000/svg" xmlns:xlink="http://www.w3.org/1999/xlink" x="0px" y="0px"
	 width="265.029px" height="318.494px" viewBox="0 0 265.029 318.494" enable-background="new 0 0 265.029 318.494"
	 xml:space="preserve">
<g id="Слой_2">
	
		<rect x="66.232" y="17.314" transform="matrix(-0.7013 0.7129 -0.7129 -0.7013 320.2299 129.1142)" fill="#FFFFFF" width="133.664" height="228.672"/>
</g>
<g id="Слой_2__x28_копия_x29_">
	
		<rect x="108.864" y="251.405" transform="matrix(-1 0.0082 -0.0082 -1 353.7182 566.8026)" fill="#FFFFFF" width="133.667" height="65.442"/>
	<ellipse fill="#FFFFFF" cx="149.118" cy="42.36" rx="17.772" ry="15.308"/>
	<ellipse fill="#FFFFFF" cx="170.829" cy="70.742" rx="17.217" ry="17.436"/>
	<ellipse fill="#FFFFFF" cx="197.319" cy="99.28" rx="17.181" ry="19.105"/>
	<ellipse fill="#FFFFFF" cx="225.172" cy="122.495" rx="15.537" ry="19.011"/>
	<ellipse fill="#FFFFFF" cx="197.834" cy="213.579" rx="40" ry="38.806"/>
	<ellipse fill="#FFFFFF" cx="222.68" cy="189.109" rx="21.173" ry="29.864"/>
	<ellipse fill="#FFFFFF" cx="206.609" cy="243.139" rx="18.563" ry="21.961"/>
	<ellipse fill="#FFFFFF" cx="79.029" cy="160.369" rx="26.529" ry="28.739"/>
	<ellipse fill="#FFFFFF" cx="106.752" cy="189.061" rx="27.723" ry="14.288"/>
	<ellipse fill="#FFFFFF" cx="118.355" cy="209.679" rx="23.643" ry="9.294"/>
	<ellipse fill="#FFFFFF" cx="104.619" cy="201.699" rx="22.785" ry="7.98"/>
	<ellipse fill="#FFFFFF" cx="156.094" cy="246.982" rx="37.739" ry="33.403"/>
	<ellipse fill="#FFFFFF" cx="129.116" cy="209.844" rx="24.497" ry="28.541"/>
</g>
<g id="Слой_1_1_">
	<g id="Capa_1" display="none">
		<g display="inline">
			<path fill="#3D4A5A" d="M164.722,66.08c3.029,0,5.49-2.453,5.49-5.489v-5.49c0-3.037-2.461-5.491-5.49-5.491
				s-5.49,2.454-5.49,5.491v5.49C159.23,63.623,161.691,66.08,164.722,66.08z"/>
			<path fill="#3D4A5A" d="M159.23,291.201v5.49c0,3.036,2.461,5.491,5.49,5.491s5.49-2.455,5.49-5.491v-5.49
				c0-3.036-2.461-5.491-5.49-5.491C161.691,285.708,159.23,288.165,159.23,291.201z"/>
			<path fill="#3D4A5A" d="M285.519,181.386c3.029,0,5.49-2.455,5.49-5.491s-2.461-5.49-5.49-5.49h-5.49
				c-3.031,0-5.49,2.454-5.49,5.49s2.459,5.491,5.49,5.491H285.519z"/>
			<path fill="#3D4A5A" d="M43.926,170.405c-3.031,0-5.492,2.454-5.492,5.49s2.461,5.491,5.492,5.491h5.49
				c3.031,0,5.49-2.455,5.49-5.491s-2.459-5.49-5.49-5.49H43.926z"/>
			<path fill="#3D4A5A" d="M246.254,99.848c1.406,0,2.813-0.538,3.883-1.608l3.881-3.882c2.148-2.146,2.148-5.617,0-7.765
				c-2.146-2.146-5.613-2.146-7.764,0l-3.881,3.883c-2.148,2.146-2.148,5.616,0,7.764C243.443,99.316,244.849,99.848,246.254,99.848
				z"/>
			<path fill="#3D4A5A" d="M79.308,253.543l-3.883,3.883c-2.146,2.146-2.146,5.617,0,7.766c1.07,1.07,2.479,1.606,3.883,1.606
				s2.813-0.536,3.881-1.606l3.885-3.883c2.146-2.146,2.146-5.616,0-7.766C84.924,251.399,81.449,251.399,79.308,253.543z"/>
			<path fill="#3D4A5A" d="M87.072,90.476l-3.883-3.883c-2.146-2.146-5.617-2.146-7.766,0c-2.146,2.146-2.146,5.617,0,7.765
				l3.883,3.882c1.07,1.07,2.477,1.608,3.883,1.608c1.404,0,2.811-0.538,3.883-1.608C89.219,96.098,89.219,92.622,87.072,90.476z"/>
			<path fill="#3D4A5A" d="M164.722,11.837C73.894,11.837,0,85.732,0,176.56s73.895,164.723,164.723,164.723
				c19.637,0,38.869-3.432,57.182-10.208c2.844-1.049,4.295-4.211,3.246-7.05c-1.057-2.854-4.207-4.305-7.059-3.245
				c-17.088,6.314-35.041,9.521-53.369,9.521c-84.771,0-153.742-68.972-153.742-153.741c0-84.771,68.971-153.742,153.742-153.742
				s153.74,68.97,153.74,153.742c0,18.338-3.207,36.288-9.525,53.362c-1.049,2.852,0.4,6.009,3.244,7.057
				c2.846,1.07,6.002-0.396,7.057-3.238c6.775-18.301,10.209-37.535,10.209-57.181C329.445,85.732,255.551,11.837,164.722,11.837z"
				/>
		</g>
		<g display="inline">
			<path fill="#3D4A5A" d="M249.039,284.331v9.771h39.83v9.361h-39.83v25.039h-13.164v-25.039h-6.785v-9.361h6.785v-9.771h-6.785
				v-11.397h6.785v-43.903h31.145c8.912,0,15.652,0.906,20.223,2.715c4.614,1.765,8.301,4.908,11.061,9.434
				c2.762,4.522,4.143,9.521,4.143,14.994c0,5.521-1.02,10.09-3.057,13.707c-2.035,3.619-4.736,6.503-8.105,8.651
				c-3.371,2.149-7.238,3.653-11.604,4.513s-8.879,1.289-13.536,1.289L249.039,284.331L249.039,284.331z M266.138,272.933
				c3.029,0,5.928-0.238,8.688-0.713c2.758-0.477,5.178-1.348,7.26-2.612c2.08-1.268,3.732-2.977,4.953-5.123
				c1.223-2.148,1.832-4.92,1.832-8.313c0-2.938-0.555-5.429-1.662-7.464c-1.107-2.036-2.623-3.696-4.547-4.985
				c-1.922-1.29-4.172-2.229-6.75-2.816c-2.58-0.587-5.361-0.882-8.348-0.882h-18.523v32.91L266.138,272.933L266.138,272.933z"/>
		</g>
		<g display="inline">
			<path fill="#3D4A5A" d="M133.701,158.874c0,5.188-0.732,9.854-2.195,14.001c-1.465,4.15-3.602,8.207-6.406,12.172
				c-9.027,12.813-15.924,19.22-20.682,19.22c-1.465,0-2.686-0.55-3.662-1.647c-0.977-1.099-1.463-2.38-1.463-3.844
				c0-1.098,0.486-2.229,1.463-3.386c0.609-0.671,1.922-1.982,3.938-3.938c4.881-4.636,8.754-9.271,11.623-13.909h-0.094
				c-2.379,1.1-5.275,1.646-8.691,1.646c-5.553,0-10.066-2.196-13.545-6.589c-3.172-4.026-4.76-8.906-4.76-14.644
				c0-6.589,2.15-12.094,6.451-16.519c4.303-4.422,9.746-6.634,16.336-6.634c6.953,0,12.385,2.316,16.289,6.953
				C131.9,146.096,133.701,151.798,133.701,158.874z M111.646,145.698c-3.234,0-5.768,1.175-7.598,3.523
				c-1.83,2.348-2.744,5.17-2.744,8.465c0,3.417,0.764,6.162,2.287,8.234c1.707,2.319,4.209,3.479,7.504,3.479
				c3.232,0,5.813-1.037,7.732-3.112c1.922-2.073,2.883-4.727,2.883-7.961c0-3.538-0.764-6.437-2.287-8.694
				C117.595,147.011,115.002,145.698,111.646,145.698z"/>
			<path fill="#3D4A5A" d="M188.881,169.491c0,9.457-1.646,17.205-4.941,23.244c-4.146,7.627-10.555,11.438-19.217,11.438
				c-8.664,0-15.068-3.813-19.219-11.438c-3.293-6.039-4.941-13.787-4.941-23.244c0-9.456,1.617-17.173,4.854-23.152
				c4.146-7.626,10.584-11.438,19.309-11.438s15.16,3.813,19.311,11.438C187.263,152.319,188.881,160.035,188.881,169.491z
				 M176.984,169.446c0-5.928-0.672-10.91-2.014-14.944c-2.074-6.052-5.461-9.077-10.156-9.077c-4.82,0-8.236,2.995-10.25,8.985
				c-1.404,4.035-2.105,9.047-2.105,15.036c0,16.138,4.119,24.205,12.355,24.205c4.758,0,8.145-3.056,10.156-9.168
				C176.312,180.51,176.984,175.497,176.984,169.446z"/>
			<path fill="#3D4A5A" d="M242.14,169.491c0,9.457-1.646,17.205-4.939,23.244c-4.148,7.627-10.557,11.438-19.218,11.438
				c-8.663,0-15.069-3.813-19.22-11.438c-3.293-6.039-4.939-13.787-4.939-23.244c0-9.456,1.616-17.173,4.852-23.152
				c4.146-7.626,10.584-11.438,19.311-11.438c8.723,0,15.159,3.813,19.309,11.438C240.523,152.319,242.14,160.035,242.14,169.491z
				 M230.244,169.446c0-5.928-0.672-10.91-2.012-14.944c-2.076-6.052-5.461-9.077-10.158-9.077c-4.82,0-8.236,2.995-10.25,8.985
				c-1.404,4.035-2.105,9.047-2.105,15.036c0,16.138,4.119,24.205,12.355,24.205c4.758,0,8.145-3.056,10.158-9.168
				C229.572,180.51,230.244,175.497,230.244,169.446z"/>
		</g>
	</g>
	<g id="Слой_4">
		<g>
			<path fill="#3D4A5A" d="M160.685,265.1c-10.305,0-18.688,8.382-18.688,18.688c0,10.308,8.383,18.688,18.688,18.688
				c10.307,0,18.688-8.382,18.688-18.688C179.374,273.482,170.99,265.1,160.685,265.1z M160.685,291.794
				c-4.413,0-8.008-3.593-8.008-8.009s3.594-8.009,8.008-8.009c4.416,0,8.011,3.593,8.011,8.009
				C168.694,288.202,165.107,291.794,160.685,291.794z"/>
			<path fill="#3D4A5A" d="M46.076,113.25l18.875,18.875c1.04,1.041,2.408,1.564,3.772,1.564c1.366,0,2.733-0.524,3.775-1.564
				c2.088-2.088,2.088-5.462,0-7.55l-11.704-11.704c5.878-8.89,5.878-20.556,0-29.445l23.407-23.414
				c8.655,5.757,20.785,5.757,29.453,0l11.702,11.705c2.088,2.087,5.464,2.087,7.551,0c2.088-2.088,2.088-5.462,0-7.552
				l-18.88-18.88l-3.774,3.775c-6.055,6.049-16.601,6.049-22.654,0l-3.773-3.775L46.07,83.04l3.773,3.774
				c6.242,6.248,6.242,16.408,0,22.654L46.076,113.25z"/>
			<path fill="#3D4A5A" d="M205.023,151.386c-5.877,8.891-5.877,20.557,0,29.445l-23.406,23.413c-8.667-5.761-20.797-5.761-29.453,0
				l-11.703-11.704c-2.088-2.088-5.463-2.088-7.551,0c-2.087,2.088-2.087,5.462,0,7.55l18.881,18.883l3.772-3.775
				c6.057-6.056,16.603-6.045,22.654,0l3.777,3.775l37.753-37.757l-3.775-3.773c-6.238-6.246-6.238-16.408,0-22.655l3.775-3.772
				l-18.874-18.875c-2.088-2.089-5.461-2.089-7.55,0c-2.088,2.088-2.088,5.462,0,7.55L205.023,151.386z"/>
			<circle fill="#3D4A5A" cx="227.3" cy="166.106" r="5.34"/>
			<circle fill="#3D4A5A" cx="166.891" cy="226.517" r="5.339"/>
			<path fill="#3D4A5A" d="M102.706,41.517c2.087-2.088,4.046-5.468,1.965-7.551c-2.087-2.087-5.467-2.087-7.552,0
				c-2.087,2.088-4.047,5.467-1.964,7.551C97.244,43.599,100.624,43.599,102.706,41.517z"/>
			<circle fill="#3D4A5A" cx="38.525" cy="98.146" r="5.339"/>
			<path fill="#3D4A5A" d="M248.786,198.357c0-4.698-0.765-9.313-2.205-13.776l18.448-18.447l-24.32-24.626
				c5.035-4.483,8.077-10.943,8.077-17.901c0-13.247-10.78-24.027-24.027-24.027c-0.972,0-1.933,0.098-2.883,0.213
				c0.116-0.948,0.213-1.903,0.213-2.883c0-13.247-10.78-24.025-24.025-24.025c-0.973,0-1.934,0.096-2.884,0.213
				c0.118-0.95,0.215-1.906,0.215-2.882c0-13.248-10.781-24.028-24.027-24.028c-0.973,0-1.932,0.097-2.884,0.214
				c0.116-0.951,0.213-1.906,0.213-2.884c0-13.919-9.279-24.027-22.063-24.027c-6.982,0-14.029,3.022-18.922,7.593L100.961,0
				L0.73,98.105l49.353,49.356c-2.639,3.854-4.188,8.508-4.188,13.521c0,8.351,4.295,15.708,10.779,20.011
				c0.32,0.428,0.705,0.86,1.207,1.288l57.427,57.211v9.59h-10.679v69.412h96.109h42.713V249.08h-10.676v-16.173
				C242.987,224.251,248.786,211.806,248.786,198.357z M56.567,160.981c0-3.509,1.389-6.68,3.604-9.063l0.816-0.747
				c1.856-1.695,4.091-2.817,6.442-3.289c0.809-0.153,1.631-0.251,2.479-0.251H81.66h41.642c7.36,0,13.352,5.986,13.352,13.351
				c0,0.864-0.098,1.702-0.257,2.523c-1.125,5.617-5.928,10.104-11.854,10.675l-1.585,0.148H92.04H76.941h-7.032
				C62.558,174.328,56.567,168.344,56.567,160.981z M102.711,101.921c16.653-16.653,43.751-16.653,60.404,0
				c8.068,8.066,12.51,18.8,12.51,30.204s-4.441,22.139-12.51,30.206c-5.366,5.365-12.024,9.124-19.212,11.024
				c0.578-0.955,1.08-1.959,1.521-2.995c0.027-0.064,0.044-0.138,0.075-0.202c0.507-1.224,0.886-2.505,1.188-3.819
				c0.082-0.341,0.149-0.679,0.217-1.02c0.255-1.415,0.437-2.851,0.437-4.34c0-13.248-10.78-24.028-24.026-24.028H90.503
				C89.021,124.04,93.43,111.2,102.711,101.921z M238.107,123.604c0,4.047-1.854,7.807-4.906,10.295l-18.624-18.859
				c2.498-2.974,6.188-4.79,10.182-4.79C232.123,110.254,238.107,116.241,238.107,123.604z M211.411,96.907
				c0,3.968-1.8,7.637-4.741,10.129l-18.624-18.857c2.493-2.867,6.104-4.624,10.017-4.624
				C205.425,83.559,211.411,89.545,211.411,96.907z M184.713,70.211c0,3.881-1.74,7.474-4.575,9.963L161.513,61.32
				c2.487-2.761,6.02-4.453,9.85-4.453C178.728,56.863,184.713,62.848,184.713,70.211z M146.633,30.164
				c7.863,0,11.385,6.707,11.385,13.35c0,3.802-1.677,7.31-4.404,9.793l-18.421-18.651
				C138.094,32.023,142.452,30.164,146.633,30.164z M100.83,15.065l20.848,21.104l-0.462,1.046l26.698,26.694l3.06,3.062
				l23.641,23.638l3.059,3.059l23.64,23.64l3.059,3.06l26.698,26.696l0.084-0.038l18.829,19.062l-82.998,82.997h-0.178
				l-64.07-64.071h20.576c0.547,0,1.059-0.124,1.599-0.161c2.66,0.405,5.323,0.625,7.977,0.625c14.061,0,27.729-5.542,37.775-15.593
				c10.087-10.085,15.642-23.491,15.642-37.754c0-14.262-5.555-27.674-15.642-37.755c-20.813-20.813-54.69-20.813-75.509,0
				c-11.314,11.314-16.831,26.862-15.377,42.587h-9.862c-1.411,0-2.793,0.171-4.165,0.421c-0.442,0.081-0.881,0.166-1.313,0.269
				c-0.993,0.24-1.965,0.545-2.915,0.907c-0.828,0.311-1.616,0.684-2.396,1.084c-0.392,0.203-0.795,0.368-1.175,0.587L15.92,98.191
				L100.83,15.065z M124.1,232.978c-0.237-0.208-0.49-0.396-0.96-0.747l-47.396-47.224h11.889l64.072,64.073h-25.72v-14.513
				L124.1,232.978z M115.302,307.814V259.76h40.994h3.989c0.741,0,1.475,0.058,2.199,0.11l4.398,4.4l2.921-2.921
				c11.752,3.981,20.24,15.095,20.24,28.171v18.292L115.302,307.814L115.302,307.814z M232.767,307.814h-32.035v-18.292
				c0-11.779-5.096-22.367-13.154-29.762h45.189V307.814L232.767,307.814z M182.081,249.081l19.911-19.911l35.759-35.759
				c0.24,1.634,0.356,3.279,0.356,4.945c0,10.972-5.063,21.075-13.896,27.717l-2.125,1.604v21.404H182.081z"/>
		</g>
	</g>
</g>
</svg>
