<?xml version="1.0" encoding="utf-8"?>
<!-- Generator: Adobe Illustrator 21.0.0, SVG Export Plug-In . SVG Version: 6.00 Build 0)  -->
<svg version="1.1" id="Слой_1" xmlns="http://www.w3.org/2000/svg" xmlns:xlink="http://www.w3.org/1999/xlink" x="0px" y="0px"
	 viewBox="0 0 320.3 320.3" style="enable-background:new 0 0 320.3 320.3;" xml:space="preserve">
<style type="text/css">
	.st0{fill:#3D4A5A;}
</style>
<path id="Слой_5" class="st0" d="M320.3,80.1h-21.4V69.4v-32V15.9C298.9,7.1,291.8,0,283,0h-21.5c-8.8,0-15.9,7.1-15.9,15.9
	v21.4v32v10.7H0v176.1h245.5v12.1l21.4,37.4v9.3c0,3,2.4,5.3,5.3,5.3c2.9,0,5.3-2.4,5.3-5.3v-9.3l21.4-37.4v-12.1h21.4L320.3,80.1
	L320.3,80.1z M288.2,58.7h-32V48h32V58.7z M256.2,15.9c0-2.9,2.4-5.3,5.3-5.3H283c2.9,0,5.3,2.4,5.3,5.3v21.4h-32L256.2,15.9
	L256.2,15.9z M10.7,245.5V90.7h234.9v154.8H10.7z M272.2,293.5l-12.2-21.3h24.3L272.2,293.5z M288.2,261.5h-32v-5.3V80.1V69.4h32
	v10.7v176.1V261.5z M309.6,245.5h-10.7V90.7h10.7V245.5z M208.2,138.8h-16c-2.9,0-5.3,2.4-5.3,5.3c0,3,2.4,5.3,5.3,5.3h16
	c2.9,0,5.3-2.4,5.3-5.3S211.1,138.8,208.2,138.8z M112.1,128.1h16c2.9,0,5.3-2.4,5.3-5.3c0-3-2.4-5.3-5.3-5.3h-16
	c-2.9,0-5.3,2.4-5.3,5.3C106.8,125.7,109.1,128.1,112.1,128.1z M208.2,117.4h-37.4c-2.9,0-5.3,2.4-5.3,5.3c0,2.9,2.4,5.3,5.3,5.3
	h37.4c2.9,0,5.3-2.4,5.3-5.3C213.5,119.8,211.1,117.4,208.2,117.4z M149.5,128.1c1.4,0,2.8-0.6,3.8-1.5c1-1,1.5-2.4,1.5-3.8
	c0-1.4-0.6-2.8-1.5-3.8c-2-2-5.6-2-7.6,0c-1,1-1.5,2.4-1.5,3.8c0,1.4,0.6,2.8,1.5,3.8C146.7,127.5,148,128.1,149.5,128.1z
	 M128.1,144.1c0,3,2.4,5.3,5.3,5.3h37.4c2.9,0,5.3-2.4,5.3-5.3c0-3-2.4-5.3-5.3-5.3h-37.4C130.5,138.8,128.1,141.2,128.1,144.1z
	 M112.1,149.5c1.4,0,2.8-0.6,3.8-1.5c1-1,1.5-2.4,1.5-3.8c0-1.4-0.6-2.8-1.5-3.8c-2-2-5.6-2-7.6,0c-1,1-1.5,2.3-1.5,3.8
	c0,1.4,0.6,2.8,1.5,3.8C109.3,148.9,110.6,149.5,112.1,149.5z M58.7,123.3v-5.9c0-2.9-2.4-5.3-5.3-5.3c-2.9,0-5.3,2.4-5.3,5.3v5.9
	c-5.8,1.2-11.1,4.3-15,8.9c-3.3,3.9-4.8,8.8-4.2,13.9c0.5,5.2,3.2,10.1,7.4,13.3l11.9,9.3v29c-6.2-2.2-10.7-8.1-10.7-15
	c0-3-2.4-5.3-5.3-5.3c-2.9,0-5.3,2.4-5.3,5.3c0,12.9,9.2,23.7,21.4,26.1v4.7c0,3,2.4,5.3,5.3,5.3c2.9,0,5.3-2.4,5.3-5.3v-4.7
	c5.8-1.2,11.1-4.3,15-8.9c3.3-3.9,4.8-8.8,4.2-13.9c-0.5-5.2-3.2-10.1-7.4-13.3l-11.9-9.3v-29c6.2,2.2,10.7,8.1,10.7,15
	c0,3,2.4,5.3,5.3,5.3c2.9,0,5.3-2.4,5.3-5.3C80.1,136.6,70.9,125.8,58.7,123.3z M64.1,181.1c1.9,1.4,3.1,3.6,3.3,6
	c0.2,2.2-0.4,4.3-1.8,5.9c-1.9,2.2-4.3,3.7-6.9,4.7V177L64.1,181.1z M42.7,151c-1.9-1.5-3.1-3.6-3.3-6c-0.2-2.2,0.4-4.3,1.8-5.9
	c1.9-2.2,4.3-3.7,6.9-4.7v20.7L42.7,151z M128.9,178.3c-11.7,6.1-15.6,17.7-17.1,29.8c-2.2-1.9-4.4-3.7-6.6-5.6
	c-5.2-4.4-12.8,3.1-7.5,7.5c5,4.2,10,8.4,15,12.5c3.5,2.9,9,1.1,9.1-3.8c0.4-11.6,0.9-25.3,12.5-31.3
	C140.4,184.3,135,175.1,128.9,178.3z M164.4,199.6c-7.4,1.7-15.8,11.1-21,0.6c-3-6.2-12.2-0.8-9.2,5.4c2.8,5.6,8,9.5,14.2,10.3
	c3.2,0.4,6,0,9-1.2c2.2-0.9,10.3-7,12.1-3.8c3.4,6,12.6,0.6,9.2-5.4C175.9,200.3,170.1,198.3,164.4,199.6z"/>
</svg>
