<?xml version="1.0" encoding="utf-8"?>
<!-- Generator: Adobe Illustrator 16.0.0, SVG Export Plug-In . SVG Version: 6.00 Build 0)  -->
<!DOCTYPE svg PUBLIC "-//W3C//DTD SVG 1.1//EN" "http://www.w3.org/Graphics/SVG/1.1/DTD/svg11.dtd">
<svg version="1.1" xmlns="http://www.w3.org/2000/svg" xmlns:xlink="http://www.w3.org/1999/xlink" x="0px" y="0px"
	 width="841.527px" height="1080px" viewBox="0 0 841.527 1080" enable-background="new 0 0 841.527 1080" xml:space="preserve">
<g id="Слой_2_1_">
	<rect x="12" y="310.698" fill="#FFFFFF" stroke="#000000" stroke-miterlimit="10" width="654.107" height="540.652"/>
	<rect x="198.061" y="821.87" fill="#FFFFFF" stroke="#000000" stroke-miterlimit="10" width="456.046" height="236.5"/>
	<polygon fill="#FFFFFF" stroke="#000000" stroke-miterlimit="10" points="198.061,1046.37 105.052,983.364 52.964,821.87 
		198.061,821.87 	"/>
	<rect x="150.056" y="29.267" fill="#FFFFFF" stroke="#000000" stroke-miterlimit="10" width="672.067" height="150.016"/>
	<rect x="402.081" y="98.275" fill="#FFFFFF" stroke="#000000" stroke-miterlimit="10" width="165.017" height="513.052"/>
	<rect x="128.408" y="143.28" fill="#FFFFFF" stroke="#000000" stroke-miterlimit="10" width="60.551" height="85.728"/>
	<rect x="158.684" y="128.278" fill="#FFFFFF" stroke="#000000" stroke-miterlimit="10" width="69.38" height="57.866"/>
	<polygon fill="#FFFFFF" stroke="#000000" stroke-miterlimit="10" points="707.725,128.278 822.123,128.278 822.123,229.008 
		774.117,186.144 	"/>
</g>
<g id="Слой_1">
	<g id="Слой_2">
		<path fill="#FFFFFF" d="M807.13,167.283c0,6.627-5.372,12-12,12H162.056c-6.627,0-12-5.373-12-12V29.267c0-6.627,5.373-12,12-12
			H795.13c6.628,0,12,5.373,12,12V167.283z"/>
		<path fill="#FFFFFF" d="M584.713,775.641c0,6.627-5.373,12-12,12H399.08c-6.627,0-12-5.373-12-12V155.28c0-6.627,5.373-12,12-12
			h173.633c6.627,0,12,5.373,12,12V775.641z"/>
		<path fill="#FFFFFF" d="M666.107,875.355c0,6.627-5.373,12-12,12H12c-6.627,0-12-5.373-12-12V322.698c0-6.627,5.373-12,12-12
			h642.106c6.627,0,12,5.373,12,12L666.107,875.355L666.107,875.355z"/>
		<path fill="#FFFFFF" d="M198.061,1046.37c0,6.627,5.373,12,12,12h444.046c6.627,0,12-5.373,12-12V851.35c0-6.627-5.373-12-12-12
			H210.061c-6.627,0-12,5.373-12,12V1046.37z"/>
		
			<rect x="67.816" y="871.424" transform="matrix(0.719 0.695 -0.695 0.719 693.2564 148.1791)" fill="#FFFFFF" width="191.122" height="120.01"/>
		<rect x="150.056" y="143.28" fill="#FFFFFF" width="48.005" height="63.007"/>
		<rect x="774.117" y="143.28" fill="#FFFFFF" width="48.006" height="63.007"/>
	</g>
	<g id="Layer_1">
		<g>
			<g>
				<path fill="#3D4A5A" d="M824.33,0H145.605c-9.498,0-17.197,7.696-17.197,17.196v238.472c0,7.306,4.613,13.809,11.508,16.229
					c6.891,2.415,14.559,0.217,19.121-5.483l53.535-66.923h172.649v94.014H17.197c-9.498,0-17.196,7.696-17.196,17.196v577.826
					c0,0.569,0.028,1.138,0.084,1.707c0.024,0.244,0.071,0.482,0.104,0.729c0.045,0.313,0.083,0.626,0.143,0.935
					c0.058,0.282,0.133,0.557,0.205,0.835c0.066,0.266,0.126,0.534,0.203,0.796c0.082,0.273,0.187,0.542,0.283,0.812
					c0.096,0.262,0.18,0.521,0.284,0.778c0.105,0.253,0.229,0.494,0.342,0.738c0.125,0.264,0.241,0.527,0.378,0.787
					c0.127,0.236,0.271,0.464,0.407,0.689c0.149,0.25,0.291,0.506,0.455,0.75c0.169,0.256,0.361,0.492,0.544,0.737
					c0.154,0.205,0.296,0.416,0.458,0.614c0.34,0.413,0.7,0.81,1.076,1.188c0.022,0.022,0.042,0.05,0.063,0.07l174.268,174.271
					c0.025,0.022,0.055,0.048,0.08,0.071c0.375,0.371,0.768,0.729,1.179,1.065c0.201,0.162,0.407,0.306,0.612,0.455
					c0.244,0.184,0.484,0.374,0.74,0.545c0.239,0.16,0.492,0.302,0.737,0.449c0.234,0.139,0.464,0.286,0.704,0.418
					c0.253,0.135,0.511,0.25,0.771,0.37c0.251,0.119,0.498,0.241,0.755,0.351c0.253,0.104,0.509,0.188,0.764,0.281
					c0.272,0.099,0.546,0.204,0.825,0.288c0.255,0.076,0.51,0.133,0.768,0.194c0.287,0.074,0.571,0.154,0.864,0.211
					c0.298,0.062,0.599,0.098,0.896,0.14c0.259,0.035,0.508,0.084,0.768,0.107c0.563,0.057,1.13,0.084,1.695,0.084H668.4
					c9.499,0,17.197-7.695,17.197-17.195V310.7c0-9.5-7.698-17.196-17.197-17.196h-83.688V199.49h172.65l53.535,66.925
					c4.563,5.698,12.229,7.898,19.12,5.483c6.896-2.419,11.508-8.925,11.508-16.229V17.198C841.527,7.698,833.828,0,824.33,0z
					 M174.268,1021.281L58.717,905.73h59.372h56.179V1021.281z M651.209,327.898v717.704H208.663V905.73h358.853
					c9.498,0,17.197-7.697,17.197-17.197c0-9.501-7.699-17.197-17.197-17.197h-376.05h-73.377H34.396V327.898h350.826v103.184
					H118.089c-9.498,0-17.197,7.697-17.197,17.197c0,9.501,7.699,17.198,17.197,17.198h267.133v112.354H118.089
					c-9.498,0-17.197,7.697-17.197,17.198c0,9.5,7.699,17.197,17.197,17.197h267.133V724.58H118.089
					c-9.498,0-17.197,7.697-17.197,17.198c0,9.5,7.699,17.197,17.197,17.197h267.133v28.662c0,9.501,7.699,17.198,17.198,17.198
					h165.096c9.498,0,17.197-7.697,17.197-17.198V741.78V595.031V448.279V327.898H651.209z M807.132,206.643l-28.075-35.095
					c-3.264-4.077-8.204-6.452-13.429-6.452H567.514c-9.498,0-17.196,7.696-17.196,17.197V310.7v137.58v146.751v146.751v28.662
					H419.615V741.78V595.03V448.279v-137.58V182.292c0-9.501-7.698-17.197-17.196-17.197H204.303
					c-5.223,0-10.164,2.375-13.428,6.452l-28.076,35.094V34.396H807.13v172.247H807.132z"/>
			</g>
		</g>
		<g>
			<g>
				<path fill="#3D4A5A" d="M778.47,64.203H659.233c-9.499,0-17.198,7.695-17.198,17.196s7.699,17.197,17.198,17.197H778.47
					c9.499,0,17.198-7.696,17.198-17.197C795.668,71.902,787.969,64.203,778.47,64.203z"/>
			</g>
		</g>
		<g>
			<g>
				<path fill="#3D4A5A" d="M595.031,64.203h-82.549c-9.498,0-17.197,7.695-17.197,17.196s7.698,17.197,17.197,17.197h82.549
					c9.498,0,17.196-7.696,17.196-17.197C612.229,71.902,604.529,64.203,595.031,64.203z"/>
			</g>
		</g>
	</g>
</g>
</svg>
