<?xml version="1.0" encoding="utf-8"?>
<!-- Generator: Adobe Illustrator 21.0.0, SVG Export Plug-In . SVG Version: 6.00 Build 0)  -->
<svg version="1.1" id="Слой_1" xmlns="http://www.w3.org/2000/svg" xmlns:xlink="http://www.w3.org/1999/xlink" x="0px" y="0px"
	 viewBox="0 0 841.5 1080" style="enable-background:new 0 0 841.5 1080;" xml:space="preserve">
<style type="text/css">
	.st0{fill:#3D4A5A;}
</style>
<path id="Layer_1" class="st0" d="M824.3,0H145.6c-9.5,0-17.2,7.7-17.2,17.2v238.5c0,7.3,4.6,13.8,11.5,16.2
	c6.9,2.4,14.6,0.2,19.1-5.5l53.5-66.9h172.6v94h-368c-9.5,0-17.2,7.7-17.2,17.2v577.8c0,0.6,0,1.1,0.1,1.7c0,0.2,0.1,0.5,0.1,0.7
	c0,0.3,0.1,0.6,0.1,0.9c0.1,0.3,0.1,0.6,0.2,0.8c0.1,0.3,0.1,0.5,0.2,0.8c0.1,0.3,0.2,0.5,0.3,0.8c0.1,0.3,0.2,0.5,0.3,0.8
	c0.1,0.3,0.2,0.5,0.3,0.7c0.1,0.3,0.2,0.5,0.4,0.8c0.1,0.2,0.3,0.5,0.4,0.7c0.1,0.3,0.3,0.5,0.5,0.8c0.2,0.3,0.4,0.5,0.5,0.7
	c0.2,0.2,0.3,0.4,0.5,0.6c0.3,0.4,0.7,0.8,1.1,1.2c0,0,0,0,0.1,0.1L179.3,1075c0,0,0.1,0,0.1,0.1c0.4,0.4,0.8,0.7,1.2,1.1
	c0.2,0.2,0.4,0.3,0.6,0.5c0.2,0.2,0.5,0.4,0.7,0.5c0.2,0.2,0.5,0.3,0.7,0.4c0.2,0.1,0.5,0.3,0.7,0.4c0.3,0.1,0.5,0.3,0.8,0.4
	c0.3,0.1,0.5,0.2,0.8,0.4c0.3,0.1,0.5,0.2,0.8,0.3c0.3,0.1,0.5,0.2,0.8,0.3c0.3,0.1,0.5,0.1,0.8,0.2c0.3,0.1,0.6,0.2,0.9,0.2
	c0.3,0.1,0.6,0.1,0.9,0.1c0.3,0,0.5,0.1,0.8,0.1c0.6,0.1,1.1,0.1,1.7,0.1h476.9c9.5,0,17.2-7.7,17.2-17.2V310.7
	c0-9.5-7.7-17.2-17.2-17.2h-83.7v-94h172.7l53.5,66.9c4.6,5.7,12.2,7.9,19.1,5.5c6.9-2.4,11.5-8.9,11.5-16.2V17.2
	C841.5,7.7,833.8,0,824.3,0z M174.3,1021.3L58.7,905.7h59.4h56.2V1021.3z M651.2,327.9v717.7H208.7V905.7h358.9
	c9.5,0,17.2-7.7,17.2-17.2c0-9.5-7.7-17.2-17.2-17.2h-376h-73.4H34.4V327.9h350.8v103.2H118.1c-9.5,0-17.2,7.7-17.2,17.2
	c0,9.5,7.7,17.2,17.2,17.2h267.1v112.4H118.1c-9.5,0-17.2,7.7-17.2,17.2c0,9.5,7.7,17.2,17.2,17.2h267.1v112.4H118.1
	c-9.5,0-17.2,7.7-17.2,17.2c0,9.5,7.7,17.2,17.2,17.2h267.1v28.7c0,9.5,7.7,17.2,17.2,17.2h165.1c9.5,0,17.2-7.7,17.2-17.2v-45.9
	V595V448.3V327.9H651.2z M807.1,206.6l-28.1-35.1c-3.3-4.1-8.2-6.5-13.4-6.5H567.5c-9.5,0-17.2,7.7-17.2,17.2v128.4v137.6V595v146.8
	v28.7H419.6v-28.7V595V448.3V310.7V182.3c0-9.5-7.7-17.2-17.2-17.2H204.3c-5.2,0-10.2,2.4-13.4,6.5l-28.1,35.1V34.4h644.3
	L807.1,206.6L807.1,206.6L807.1,206.6z M778.5,64.2H659.2c-9.5,0-17.2,7.7-17.2,17.2s7.7,17.2,17.2,17.2h119.2
	c9.5,0,17.2-7.7,17.2-17.2C795.7,71.9,788,64.2,778.5,64.2z M595,64.2h-82.5c-9.5,0-17.2,7.7-17.2,17.2s7.7,17.2,17.2,17.2H595
	c9.5,0,17.2-7.7,17.2-17.2C612.2,71.9,604.5,64.2,595,64.2z"/>
</svg>
