<?xml version="1.0" encoding="utf-8"?>
<!-- Generator: Adobe Illustrator 16.0.0, SVG Export Plug-In . SVG Version: 6.00 Build 0)  -->
<!DOCTYPE svg PUBLIC "-//W3C//DTD SVG 1.1//EN" "http://www.w3.org/Graphics/SVG/1.1/DTD/svg11.dtd">
<svg version="1.1" id="Слой_1" xmlns="http://www.w3.org/2000/svg" xmlns:xlink="http://www.w3.org/1999/xlink" x="0px" y="0px"
	 width="329.446px" height="345.033px" viewBox="0 0 329.446 345.033" enable-background="new 0 0 329.446 345.033"
	 xml:space="preserve">
<g id="Слой_2">
	<circle fill="#FFFFFF" cx="163.447" cy="170.578" r="160.387"/>
</g>
<g id="Capa_1">
	<g>
		<path fill="#3D4A5A" d="M164.722,62.037c3.029,0,5.49-2.453,5.49-5.489v-5.49c0-3.037-2.461-5.491-5.49-5.491
			s-5.49,2.454-5.49,5.491v5.49C159.23,59.58,161.691,62.037,164.722,62.037z"/>
		<path fill="#3D4A5A" d="M159.23,287.158v5.49c0,3.036,2.461,5.491,5.49,5.491s5.49-2.455,5.49-5.491v-5.49
			c0-3.036-2.461-5.491-5.49-5.491C161.691,281.665,159.23,284.122,159.23,287.158z"/>
		<path fill="#3D4A5A" d="M285.519,177.343c3.029,0,5.49-2.455,5.49-5.491s-2.461-5.49-5.49-5.49h-5.49
			c-3.031,0-5.49,2.454-5.49,5.49s2.459,5.491,5.49,5.491H285.519z"/>
		<path fill="#3D4A5A" d="M43.925,166.362c-3.031,0-5.492,2.454-5.492,5.49s2.461,5.491,5.492,5.491h5.49
			c3.031,0,5.49-2.455,5.49-5.491s-2.459-5.49-5.49-5.49H43.925z"/>
		<path fill="#3D4A5A" d="M246.253,95.805c1.406,0,2.813-0.538,3.883-1.608l3.881-3.882c2.148-2.146,2.148-5.617,0-7.765
			c-2.146-2.146-5.613-2.146-7.764,0l-3.881,3.883c-2.148,2.146-2.148,5.616,0,7.764C243.443,95.273,244.849,95.805,246.253,95.805z
			"/>
		<path fill="#3D4A5A" d="M79.308,249.5l-3.883,3.883c-2.146,2.146-2.146,5.617,0,7.766c1.07,1.07,2.479,1.606,3.883,1.606
			s2.813-0.536,3.881-1.606l3.885-3.883c2.145-2.146,2.145-5.616,0-7.766C84.923,247.356,81.449,247.356,79.308,249.5z"/>
		<path fill="#3D4A5A" d="M87.072,86.433l-3.883-3.883c-2.146-2.146-5.617-2.146-7.766,0c-2.146,2.146-2.146,5.617,0,7.765
			l3.883,3.882c1.07,1.07,2.477,1.608,3.883,1.608c1.404,0,2.811-0.538,3.883-1.608C89.218,92.055,89.218,88.579,87.072,86.433z"/>
		<path fill="#3D4A5A" d="M164.722,7.794C73.894,7.794,0,81.689,0,172.517S73.894,337.24,164.722,337.24
			c19.637,0,38.869-3.432,57.182-10.208c2.844-1.049,4.295-4.211,3.246-7.05c-1.057-2.854-4.207-4.305-7.059-3.245
			c-17.088,6.314-35.041,9.521-53.369,9.521c-84.771,0-153.742-68.972-153.742-153.741c0-84.771,68.971-153.742,153.742-153.742
			s153.74,68.97,153.74,153.742c0,18.338-3.207,36.288-9.525,53.362c-1.049,2.852,0.4,6.009,3.244,7.057
			c2.846,1.07,6.002-0.396,7.057-3.238c6.775-18.301,10.209-37.535,10.209-57.181C329.445,81.689,255.55,7.794,164.722,7.794z"/>
	</g>
	<g>
		<path fill="#3D4A5A" d="M249.039,280.288v9.771h39.83v9.361h-39.83v25.039h-13.164v-25.039h-6.785v-9.361h6.785v-9.771h-6.785
			v-11.397h6.785v-43.903h31.145c8.912,0,15.652,0.906,20.223,2.715c4.613,1.765,8.301,4.908,11.061,9.434
			c2.762,4.522,4.143,9.521,4.143,14.994c0,5.521-1.02,10.09-3.057,13.707c-2.035,3.619-4.736,6.503-8.105,8.651
			c-3.371,2.149-7.238,3.653-11.605,4.513c-4.365,0.859-8.879,1.289-13.535,1.289L249.039,280.288L249.039,280.288z M266.138,268.89
			c3.029,0,5.928-0.238,8.688-0.713c2.758-0.477,5.178-1.348,7.26-2.612c2.08-1.268,3.732-2.977,4.953-5.123
			c1.223-2.148,1.832-4.92,1.832-8.313c0-2.938-0.555-5.429-1.662-7.464c-1.107-2.036-2.623-3.696-4.547-4.985
			c-1.922-1.29-4.172-2.229-6.75-2.816c-2.58-0.587-5.361-0.882-8.348-0.882h-18.523v32.91L266.138,268.89L266.138,268.89z"/>
	</g>
	<g>
		<path fill="#3D4A5A" d="M133.701,154.831c0,5.188-0.732,9.854-2.195,14.001c-1.465,4.15-3.602,8.207-6.406,12.172
			c-9.027,12.813-15.924,19.22-20.682,19.22c-1.465,0-2.686-0.55-3.662-1.647c-0.977-1.099-1.463-2.38-1.463-3.844
			c0-1.098,0.486-2.229,1.463-3.386c0.609-0.671,1.922-1.982,3.938-3.938c4.881-4.636,8.754-9.271,11.623-13.909h-0.094
			c-2.379,1.1-5.275,1.646-8.691,1.646c-5.553,0-10.066-2.196-13.545-6.589c-3.172-4.026-4.76-8.906-4.76-14.644
			c0-6.589,2.15-12.094,6.451-16.519c4.303-4.422,9.746-6.634,16.336-6.634c6.953,0,12.385,2.316,16.289,6.953
			C131.9,142.053,133.701,147.755,133.701,154.831z M111.646,141.656c-3.234,0-5.768,1.175-7.598,3.523
			c-1.83,2.348-2.744,5.17-2.744,8.465c0,3.417,0.764,6.162,2.287,8.234c1.707,2.319,4.209,3.479,7.504,3.479
			c3.232,0,5.813-1.037,7.732-3.112c1.922-2.073,2.883-4.727,2.883-7.961c0-3.538-0.764-6.437-2.287-8.694
			C117.595,142.968,115.001,141.656,111.646,141.656z"/>
		<path fill="#3D4A5A" d="M188.88,165.448c0,9.457-1.646,17.205-4.941,23.244c-4.146,7.627-10.555,11.438-19.217,11.438
			c-8.664,0-15.068-3.813-19.219-11.438c-3.293-6.039-4.941-13.787-4.941-23.244c0-9.456,1.617-17.173,4.854-23.152
			c4.145-7.626,10.584-11.438,19.309-11.438s15.16,3.813,19.311,11.438C187.263,148.276,188.88,155.992,188.88,165.448z
			 M176.984,165.403c0-5.928-0.672-10.91-2.014-14.944c-2.074-6.052-5.461-9.077-10.156-9.077c-4.82,0-8.236,2.995-10.25,8.985
			c-1.404,4.035-2.105,9.047-2.105,15.036c0,16.138,4.119,24.205,12.355,24.205c4.758,0,8.145-3.056,10.156-9.168
			C176.312,176.467,176.984,171.454,176.984,165.403z"/>
		<path fill="#3D4A5A" d="M242.14,165.448c0,9.457-1.646,17.205-4.939,23.244c-4.148,7.627-10.557,11.438-19.219,11.438
			s-15.068-3.813-19.219-11.438c-3.293-6.039-4.939-13.787-4.939-23.244c0-9.456,1.615-17.173,4.852-23.152
			c4.146-7.626,10.584-11.438,19.311-11.438c8.723,0,15.158,3.813,19.309,11.438C240.523,148.276,242.14,155.992,242.14,165.448z
			 M230.244,165.403c0-5.928-0.672-10.91-2.012-14.944c-2.076-6.052-5.461-9.077-10.158-9.077c-4.82,0-8.236,2.995-10.25,8.985
			c-1.404,4.035-2.105,9.047-2.105,15.036c0,16.138,4.119,24.205,12.355,24.205c4.758,0,8.145-3.056,10.158-9.168
			C229.572,176.467,230.244,171.454,230.244,165.403z"/>
	</g>
</g>
</svg>
