<?xml version="1.0" encoding="utf-8"?>
<!-- Generator: Adobe Illustrator 21.0.0, SVG Export Plug-In . SVG Version: 6.00 Build 0)  -->
<svg version="1.1" id="Слой_1" xmlns="http://www.w3.org/2000/svg" xmlns:xlink="http://www.w3.org/1999/xlink" x="0px" y="0px"
	 viewBox="0 0 329.4 345" style="enable-background:new 0 0 329.4 345;" xml:space="preserve">
<style type="text/css">
	.st0{fill:#3D4A5A;}
</style>
<path id="Capa_1" class="st0" d="M164.7,62c3,0,5.5-2.5,5.5-5.5v-5.5c0-3-2.5-5.5-5.5-5.5s-5.5,2.5-5.5,5.5v5.5
	C159.2,59.6,161.7,62,164.7,62z M159.2,287.2v5.5c0,3,2.5,5.5,5.5,5.5s5.5-2.5,5.5-5.5v-5.5c0-3-2.5-5.5-5.5-5.5
	C161.7,281.7,159.2,284.1,159.2,287.2z M285.5,177.3c3,0,5.5-2.5,5.5-5.5s-2.5-5.5-5.5-5.5H280c-3,0-5.5,2.5-5.5,5.5
	s2.5,5.5,5.5,5.5H285.5z M43.9,166.4c-3,0-5.5,2.5-5.5,5.5s2.5,5.5,5.5,5.5h5.5c3,0,5.5-2.5,5.5-5.5s-2.5-5.5-5.5-5.5H43.9z
	 M246.3,95.8c1.4,0,2.8-0.5,3.9-1.6l3.9-3.9c2.1-2.1,2.1-5.6,0-7.8c-2.1-2.1-5.6-2.1-7.8,0l-3.9,3.9c-2.1,2.1-2.1,5.6,0,7.8
	C243.4,95.3,244.8,95.8,246.3,95.8z M79.3,249.5l-3.9,3.9c-2.1,2.1-2.1,5.6,0,7.8c1.1,1.1,2.5,1.6,3.9,1.6s2.8-0.5,3.9-1.6l3.9-3.9
	c2.1-2.1,2.1-5.6,0-7.8C84.9,247.4,81.4,247.4,79.3,249.5z M87.1,86.4l-3.9-3.9c-2.1-2.1-5.6-2.1-7.8,0c-2.1,2.1-2.1,5.6,0,7.8
	l3.9,3.9c1.1,1.1,2.5,1.6,3.9,1.6c1.4,0,2.8-0.5,3.9-1.6C89.2,92.1,89.2,88.6,87.1,86.4z M164.7,7.8C73.9,7.8,0,81.7,0,172.5
	s73.9,164.7,164.7,164.7c19.6,0,38.9-3.4,57.2-10.2c2.8-1,4.3-4.2,3.2-7c-1.1-2.9-4.2-4.3-7.1-3.2c-17.1,6.3-35,9.5-53.4,9.5
	C80,326.3,11,257.3,11,172.5C11,87.7,80,18.8,164.7,18.8s153.7,69,153.7,153.7c0,18.3-3.2,36.3-9.5,53.4c-1,2.9,0.4,6,3.2,7.1
	c2.8,1.1,6-0.4,7.1-3.2c6.8-18.3,10.2-37.5,10.2-57.2C329.4,81.7,255.6,7.8,164.7,7.8z M249,280.3v9.8h39.8v9.4H249v25h-13.2v-25
	h-6.8v-9.4h6.8v-9.8h-6.8v-11.4h6.8V225H267c8.9,0,15.7,0.9,20.2,2.7c4.6,1.8,8.3,4.9,11.1,9.4c2.8,4.5,4.1,9.5,4.1,15
	c0,5.5-1,10.1-3.1,13.7c-2,3.6-4.7,6.5-8.1,8.7c-3.4,2.1-7.2,3.7-11.6,4.5c-4.4,0.9-8.9,1.3-13.5,1.3L249,280.3L249,280.3z
	 M266.1,268.9c3,0,5.9-0.2,8.7-0.7c2.8-0.5,5.2-1.3,7.3-2.6c2.1-1.3,3.7-3,5-5.1c1.2-2.1,1.8-4.9,1.8-8.3c0-2.9-0.6-5.4-1.7-7.5
	c-1.1-2-2.6-3.7-4.5-5c-1.9-1.3-4.2-2.2-6.8-2.8c-2.6-0.6-5.4-0.9-8.3-0.9H249v32.9L266.1,268.9L266.1,268.9z M133.7,154.8
	c0,5.2-0.7,9.9-2.2,14c-1.5,4.1-3.6,8.2-6.4,12.2c-9,12.8-15.9,19.2-20.7,19.2c-1.5,0-2.7-0.6-3.7-1.6c-1-1.1-1.5-2.4-1.5-3.8
	c0-1.1,0.5-2.2,1.5-3.4c0.6-0.7,1.9-2,3.9-3.9c4.9-4.6,8.8-9.3,11.6-13.9h-0.1c-2.4,1.1-5.3,1.6-8.7,1.6c-5.6,0-10.1-2.2-13.5-6.6
	c-3.2-4-4.8-8.9-4.8-14.6c0-6.6,2.2-12.1,6.5-16.5c4.3-4.4,9.7-6.6,16.3-6.6c7,0,12.4,2.3,16.3,7
	C131.9,142.1,133.7,147.8,133.7,154.8z M111.6,141.7c-3.2,0-5.8,1.2-7.6,3.5c-1.8,2.3-2.7,5.2-2.7,8.5c0,3.4,0.8,6.2,2.3,8.2
	c1.7,2.3,4.2,3.5,7.5,3.5c3.2,0,5.8-1,7.7-3.1c1.9-2.1,2.9-4.7,2.9-8c0-3.5-0.8-6.4-2.3-8.7C117.6,143,115,141.7,111.6,141.7z
	 M188.9,165.4c0,9.5-1.6,17.2-4.9,23.2c-4.1,7.6-10.6,11.4-19.2,11.4c-8.7,0-15.1-3.8-19.2-11.4c-3.3-6-4.9-13.8-4.9-23.2
	c0-9.5,1.6-17.2,4.9-23.2c4.1-7.6,10.6-11.4,19.3-11.4s15.2,3.8,19.3,11.4C187.3,148.3,188.9,156,188.9,165.4z M177,165.4
	c0-5.9-0.7-10.9-2-14.9c-2.1-6.1-5.5-9.1-10.2-9.1c-4.8,0-8.2,3-10.3,9c-1.4,4-2.1,9-2.1,15c0,16.1,4.1,24.2,12.4,24.2
	c4.8,0,8.1-3.1,10.2-9.2C176.3,176.5,177,171.5,177,165.4z M242.1,165.4c0,9.5-1.6,17.2-4.9,23.2c-4.1,7.6-10.6,11.4-19.2,11.4
	s-15.1-3.8-19.2-11.4c-3.3-6-4.9-13.8-4.9-23.2c0-9.5,1.6-17.2,4.9-23.2c4.1-7.6,10.6-11.4,19.3-11.4c8.7,0,15.2,3.8,19.3,11.4
	C240.5,148.3,242.1,156,242.1,165.4z M230.2,165.4c0-5.9-0.7-10.9-2-14.9c-2.1-6.1-5.5-9.1-10.2-9.1c-4.8,0-8.2,3-10.3,9
	c-1.4,4-2.1,9-2.1,15c0,16.1,4.1,24.2,12.4,24.2c4.8,0,8.1-3.1,10.2-9.2C229.6,176.5,230.2,171.5,230.2,165.4z"/>
</svg>
