<?xml version="1.0" encoding="utf-8"?>
<!-- Generator: Adobe Illustrator 21.0.0, SVG Export Plug-In . SVG Version: 6.00 Build 0)  -->
<svg version="1.1" id="Слой_1" xmlns="http://www.w3.org/2000/svg" xmlns:xlink="http://www.w3.org/1999/xlink" x="0px" y="0px"
	 viewBox="0 0 595.3 619" style="enable-background:new 0 0 595.3 619;" xml:space="preserve">
<style type="text/css">
	.st0{fill:#FFFFFF;stroke:#000000;stroke-miterlimit:10;}
	.st1{fill:#FFFFFF;}
	.st2{fill:#3D4A5A;}
</style>
<g id="Слой_2">
	<rect x="232.1" y="22.5" class="st0" width="131.2" height="184.7"/>
	<polygon class="st1" points="297.6,522.5 216.1,375.5 238.1,211.5 350.1,211.5 	"/>
	<polyline class="st1" points="232.1,207.2 289.9,518.2 379.5,371.2 	"/>
	<rect x="440.1" y="551.5" class="st1" width="44" height="42"/>
	<rect x="114.1" y="551.5" class="st1" width="43" height="42"/>
</g>
<g id="Layer_1">
	<g>
		<g>
			<path class="st2" d="M388.7,369.2l-25.3-162l16-182.4c0.2-2.7-0.7-5.3-2.5-7.3c-1.8-2-4.4-3.1-7.1-3.1H229.1
				c-2.7,0-5.2,1.1-7,3.1c-1.8,1.9-2.7,4.6-2.5,7.2l13.3,178.7c-0.4,0.8-0.7,1.7-0.8,2.6l-25.5,163.2c-0.3,2,0,4,0.9,5.8l81.6,163.2
				c1.6,3.2,4.9,5.3,8.5,5.3c3.6,0,6.9-2,8.6-5.3l81.6-163.2C388.7,373.2,389,371.2,388.7,369.2z M359.4,33.5L345,198h-93.3
				L239.4,33.5L359.4,33.5L359.4,33.5z M297.6,350.9c-14.4,0-26.1-11.7-26.1-26.1c0-14.4,11.7-26.1,26.1-26.1
				c14.4,0,26.1,11.7,26.1,26.1C323.8,339.2,312,350.9,297.6,350.9z M307.2,493.3V369c20.4-4.4,35.7-22.6,35.7-44.2
				c0-25-20.3-45.3-45.3-45.3c-25,0-45.3,20.3-45.3,45.3c0,21.7,15.3,39.8,35.7,44.2v124.3L226,369.1l23.8-152.1h95.8l23.8,152.1
				L307.2,493.3z"/>
		</g>
	</g>
	<g>
		<g>
			<path class="st2" d="M486.3,539.6h-51c-5.3,0-9.6,4.3-9.6,9.6v15.9H169.5v-15.9c0-5.3-4.3-9.6-9.6-9.6h-51
				c-5.3,0-9.6,4.3-9.6,9.6v51c0,5.3,4.3,9.6,9.6,9.6h51c5.3,0,9.6-4.3,9.6-9.6v-15.9h256.2v15.9c0,5.3,4.3,9.6,9.6,9.6h51
				c5.3,0,9.6-4.3,9.6-9.6v-51C495.9,543.8,491.6,539.6,486.3,539.6z M150.4,590.6h-31.9v-31.9h31.9V590.6z M476.7,590.6h-31.9
				v-31.9h31.9V590.6z"/>
		</g>
	</g>
	<g>
		<g>
			<path class="st2" d="M532.2,310.1c-5.3,0-9.6,4.3-9.6,9.6c0,124.1-100.9,225-225,225s-225-100.9-225-225c0-5.3-4.3-9.6-9.6-9.6
				c-5.3,0-9.6,4.3-9.6,9.6c0,134.6,109.5,244.1,244.1,244.1c134.6,0,244.1-109.5,244.1-244.1C541.7,314.4,537.5,310.1,532.2,310.1z
				"/>
		</g>
	</g>
</g>
</svg>
