<?xml version="1.0" encoding="utf-8"?>
<!-- Generator: Adobe Illustrator 16.0.0, SVG Export Plug-In . SVG Version: 6.00 Build 0)  -->
<!DOCTYPE svg PUBLIC "-//W3C//DTD SVG 1.1//EN" "http://www.w3.org/Graphics/SVG/1.1/DTD/svg11.dtd">
<svg version="1.1" id="Слой_1" xmlns="http://www.w3.org/2000/svg" xmlns:xlink="http://www.w3.org/1999/xlink" x="0px" y="0px"
	 width="188.367px" height="229.68px" viewBox="0 0 188.367 229.68" enable-background="new 0 0 188.367 229.68"
	 xml:space="preserve">
<g id="Слой_2">
	<rect x="69.687" y="-0.083" fill="#FFFFFF" width="49.851" height="71.504"/>
	<rect x="72.354" y="74.584" fill="#FFFFFF" width="47.184" height="52"/>
	<rect x="66.039" y="93.25" fill="#FFFFFF" width="19.647" height="56.157"/>
	<rect x="81.109" y="105.24" fill="#FFFFFF" width="38.428" height="39.344"/>
	<rect x="111.046" y="121.329" fill="#FFFFFF" width="14.817" height="21.011"/>
	<rect x="72.354" y="126.584" fill="#FFFFFF" width="47.184" height="28.411"/>
	<rect x="106.186" y="108.502" fill="#FFFFFF" width="14.656" height="19.054"/>
	<rect x="97.873" y="151.002" fill="#FFFFFF" width="13.174" height="15"/>
	<rect x="97.873" y="160.073" fill="#FFFFFF" width="9.813" height="13.929"/>
	<rect x="95.945" y="167.037" fill="#FFFFFF" width="9.322" height="14.215"/>
	<rect x="75.863" y="144.584" fill="#FFFFFF" width="20.082" height="15.489"/>
	<rect x="83.936" y="158.502" fill="#FFFFFF" width="12.01" height="15.5"/>
	<rect x="75.863" y="158.502" fill="#FFFFFF" width="11.072" height="7.75"/>
	<rect x="88.686" y="170.252" fill="#FFFFFF" width="10.25" height="12.5"/>
	<rect x="85.687" y="158.502" fill="#FFFFFF" width="8.124" height="19.5"/>
	<rect x="78.436" y="162.377" fill="#FFFFFF" width="8.5" height="7.875"/>
	<rect x="106.186" y="152.328" fill="#FFFFFF" width="7.328" height="5.174"/>
	<rect x="21.686" y="204.252" fill="#FFFFFF" width="19" height="16.5"/>
	<rect x="149.686" y="204.252" fill="#FFFFFF" width="17.5" height="16.5"/>
	<rect x="85.02" y="136.586" fill="#FFFFFF" width="17.76" height="35.428"/>
</g>
<g id="Слой_1_1_">
	<g id="Capa_1" display="none">
		<g display="inline">
			<path fill="#3D4A5A" d="M17.908,10.281c3.029,0,5.49-2.454,5.49-5.49v-5.49c0-3.036-2.461-5.49-5.49-5.49s-5.49,2.454-5.49,5.49
				v5.49C12.416,7.824,14.877,10.281,17.908,10.281z"/>
			<path fill="#3D4A5A" d="M12.416,235.402v5.49c0,3.036,2.461,5.491,5.49,5.491s5.49-2.455,5.49-5.491v-5.49
				c0-3.036-2.461-5.491-5.49-5.491C14.877,229.909,12.416,232.366,12.416,235.402z"/>
			<path fill="#3D4A5A" d="M138.705,125.587c3.029,0,5.49-2.455,5.49-5.491s-2.461-5.49-5.49-5.49h-5.49
				c-3.031,0-5.49,2.454-5.49,5.49s2.459,5.491,5.49,5.491H138.705z"/>
			<path fill="#3D4A5A" d="M-102.889,114.605c-3.031,0-5.492,2.454-5.492,5.49s2.461,5.491,5.492,5.491h5.49
				c3.031,0,5.49-2.455,5.49-5.491s-2.459-5.49-5.49-5.49H-102.889z"/>
			<path fill="#3D4A5A" d="M99.439,44.048c1.406,0,2.813-0.537,3.883-1.607l3.881-3.882c2.148-2.146,2.148-5.617,0-7.766
				c-2.146-2.146-5.613-2.146-7.764,0l-3.881,3.883c-2.148,2.146-2.148,5.616,0,7.765C96.629,43.516,98.035,44.048,99.439,44.048z"
				/>
			<path fill="#3D4A5A" d="M-67.506,197.744l-3.883,3.883c-2.146,2.146-2.146,5.617,0,7.766c1.07,1.07,2.479,1.606,3.883,1.606
				s2.813-0.536,3.881-1.606l3.885-3.883c2.146-2.146,2.146-5.616,0-7.766C-61.891,195.599-65.365,195.599-67.506,197.744z"/>
			<path fill="#3D4A5A" d="M-59.742,34.676l-3.883-3.883c-2.146-2.146-5.617-2.146-7.766,0c-2.146,2.146-2.146,5.617,0,7.766
				l3.883,3.882c1.07,1.07,2.477,1.607,3.883,1.607c1.404,0,2.811-0.537,3.883-1.607C-57.596,40.298-57.596,36.823-59.742,34.676z"
				/>
			<path fill="#3D4A5A" d="M17.908-43.963c-90.828,0-164.723,73.896-164.723,164.724S-72.92,285.483,17.908,285.483
				c19.637,0,38.869-3.432,57.182-10.208c2.844-1.049,4.295-4.211,3.246-7.05c-1.057-2.854-4.207-4.305-7.059-3.245
				c-17.088,6.314-35.041,9.521-53.369,9.521c-84.771,0-153.742-68.972-153.742-153.741c0-84.771,68.971-153.742,153.742-153.742
				s153.74,68.97,153.74,153.742c0,18.338-3.207,36.288-9.525,53.362c-1.049,2.852,0.4,6.009,3.244,7.057
				c2.846,1.07,6.002-0.396,7.057-3.238c6.775-18.301,10.209-37.535,10.209-57.181C182.631,29.932,108.736-43.963,17.908-43.963z"/>
		</g>
		<g display="inline">
			<path fill="#3D4A5A" d="M102.225,228.532v9.771h39.83v9.361h-39.83v25.039H89.061v-25.039h-6.785v-9.361h6.785v-9.771h-6.785
				v-11.397h6.785v-43.903h31.145c8.912,0,15.652,0.906,20.223,2.715c4.614,1.765,8.301,4.908,11.061,9.434
				c2.762,4.522,4.143,9.521,4.143,14.994c0,5.521-1.02,10.09-3.057,13.707c-2.035,3.619-4.736,6.503-8.105,8.651
				c-3.371,2.149-7.238,3.653-11.604,4.513s-8.879,1.289-13.536,1.289L102.225,228.532L102.225,228.532z M119.324,217.134
				c3.029,0,5.928-0.238,8.688-0.713c2.758-0.477,5.178-1.348,7.26-2.612c2.08-1.268,3.732-2.977,4.953-5.123
				c1.223-2.148,1.832-4.92,1.832-8.313c0-2.938-0.555-5.429-1.662-7.464c-1.107-2.036-2.623-3.696-4.547-4.985
				c-1.922-1.29-4.172-2.229-6.75-2.816c-2.58-0.587-5.361-0.882-8.348-0.882h-18.523v32.91L119.324,217.134L119.324,217.134z"/>
		</g>
		<g display="inline">
			<path fill="#3D4A5A" d="M-13.113,103.075c0,5.188-0.732,9.854-2.195,14.001c-1.465,4.15-3.602,8.207-6.406,12.172
				c-9.027,12.813-15.924,19.22-20.682,19.22c-1.465,0-2.686-0.55-3.662-1.647c-0.977-1.099-1.463-2.38-1.463-3.844
				c0-1.098,0.486-2.229,1.463-3.386c0.609-0.671,1.922-1.982,3.938-3.938c4.881-4.636,8.754-9.271,11.623-13.909h-0.094
				c-2.379,1.1-5.275,1.646-8.691,1.646c-5.553,0-10.066-2.196-13.545-6.589c-3.172-4.026-4.76-8.906-4.76-14.644
				c0-6.589,2.15-12.094,6.451-16.519c4.303-4.422,9.746-6.634,16.336-6.634c6.953,0,12.385,2.316,16.289,6.953
				C-14.914,90.297-13.113,95.999-13.113,103.075z M-35.168,89.899c-3.234,0-5.768,1.175-7.598,3.523
				c-1.83,2.348-2.744,5.17-2.744,8.465c0,3.417,0.764,6.162,2.287,8.234c1.707,2.319,4.209,3.479,7.504,3.479
				c3.232,0,5.813-1.037,7.732-3.112c1.922-2.073,2.883-4.727,2.883-7.961c0-3.538-0.764-6.437-2.287-8.694
				C-29.219,91.212-31.813,89.899-35.168,89.899z"/>
			<path fill="#3D4A5A" d="M42.066,113.692c0,9.457-1.646,17.205-4.941,23.244c-4.146,7.627-10.555,11.438-19.217,11.438
				c-8.664,0-15.068-3.813-19.219-11.438c-3.293-6.039-4.941-13.787-4.941-23.244c0-9.456,1.617-17.173,4.854-23.152
				C2.747,82.914,9.186,79.102,17.91,79.102s15.16,3.813,19.311,11.438C40.449,96.519,42.066,104.236,42.066,113.692z
				 M30.17,113.646c0-5.928-0.672-10.91-2.014-14.944C26.082,92.65,22.695,89.625,18,89.625c-4.82,0-8.236,2.995-10.25,8.985
				c-1.404,4.035-2.105,9.047-2.105,15.036c0,16.138,4.119,24.205,12.355,24.205c4.758,0,8.145-3.056,10.156-9.168
				C29.498,124.711,30.17,119.698,30.17,113.646z"/>
			<path fill="#3D4A5A" d="M95.326,113.692c0,9.457-1.646,17.205-4.939,23.244c-4.148,7.627-10.557,11.438-19.218,11.438
				c-8.663,0-15.069-3.813-19.22-11.438c-3.293-6.039-4.939-13.787-4.939-23.244c0-9.456,1.616-17.173,4.852-23.152
				c4.146-7.626,10.584-11.438,19.311-11.438c8.723,0,15.159,3.813,19.309,11.438C93.709,96.519,95.326,104.236,95.326,113.692z
				 M83.43,113.646c0-5.928-0.672-10.91-2.012-14.944c-2.076-6.052-5.461-9.077-10.158-9.077c-4.82,0-8.236,2.995-10.25,8.985
				c-1.404,4.035-2.105,9.047-2.105,15.036c0,16.138,4.119,24.205,12.355,24.205c4.758,0,8.145-3.056,10.158-9.168
				C82.758,124.711,83.43,119.698,83.43,113.646z"/>
		</g>
	</g>
	<g id="Слой_4" display="none">
		<g display="inline">
			<path fill="#3D4A5A" d="M13.871,209.301c-10.305,0-18.688,8.382-18.688,18.688c0,10.308,8.383,18.688,18.688,18.688
				c10.307,0,18.688-8.382,18.688-18.688C32.56,217.682,24.176,209.301,13.871,209.301z M13.871,235.995
				c-4.413,0-8.008-3.593-8.008-8.009s3.594-8.009,8.008-8.009c4.416,0,8.011,3.593,8.011,8.009
				C21.88,232.403,18.293,235.995,13.871,235.995z"/>
			<path fill="#3D4A5A" d="M-100.738,57.451l18.875,18.875c1.04,1.041,2.408,1.564,3.772,1.564c1.366,0,2.733-0.524,3.775-1.564
				c2.088-2.088,2.088-5.462,0-7.55L-86.02,57.072c5.878-8.89,5.878-20.556,0-29.446l23.407-23.414
				c8.655,5.758,20.785,5.758,29.453,0l11.702,11.705c2.088,2.087,5.464,2.087,7.551,0c2.088-2.088,2.088-5.462,0-7.551
				l-18.88-18.88l-3.774,3.775c-6.055,6.049-16.601,6.049-22.654,0l-3.773-3.775l-37.756,37.755l3.773,3.774
				c6.242,6.248,6.242,16.407,0,22.654L-100.738,57.451z"/>
			<path fill="#3D4A5A" d="M58.209,95.587c-5.877,8.891-5.877,20.557,0,29.445l-23.406,23.413c-8.667-5.761-20.797-5.761-29.453,0
				l-11.703-11.704c-2.088-2.088-5.463-2.088-7.551,0c-2.087,2.088-2.087,5.462,0,7.55l18.881,18.883l3.772-3.775
				c6.057-6.056,16.603-6.045,22.654,0l3.777,3.775l37.753-37.757l-3.775-3.773c-6.238-6.246-6.238-16.408,0-22.655l3.775-3.772
				L54.06,76.341c-2.088-2.089-5.461-2.089-7.55,0c-2.088,2.088-2.088,5.462,0,7.55L58.209,95.587z"/>
			<circle fill="#3D4A5A" cx="80.485" cy="110.306" r="5.34"/>
			<circle fill="#3D4A5A" cx="20.077" cy="170.718" r="5.339"/>
			<path fill="#3D4A5A" d="M-44.108-14.283c2.087-2.088,4.046-5.468,1.965-7.551c-2.087-2.087-5.467-2.087-7.552,0
				c-2.087,2.088-4.047,5.467-1.964,7.551C-49.57-12.201-46.19-12.201-44.108-14.283z"/>
			<circle fill="#3D4A5A" cx="-108.289" cy="42.346" r="5.339"/>
			<path fill="#3D4A5A" d="M101.972,142.557c0-4.698-0.765-9.313-2.205-13.776l18.448-18.447l-24.32-24.626
				c5.035-4.483,8.077-10.943,8.077-17.901c0-13.247-10.78-24.027-24.027-24.027c-0.972,0-1.933,0.097-2.883,0.213
				c0.116-0.949,0.213-1.904,0.213-2.883c0-13.247-10.78-24.026-24.025-24.026c-0.973,0-1.934,0.097-2.884,0.213
				c0.118-0.949,0.215-1.905,0.215-2.882c0-13.248-10.781-24.027-24.027-24.027c-0.973,0-1.932,0.097-2.884,0.214
				c0.116-0.951,0.213-1.906,0.213-2.885c0-13.919-9.279-24.026-22.063-24.026c-6.982,0-14.029,3.021-18.922,7.593L-45.854-55.8
				l-100.23,98.105l49.353,49.356c-2.639,3.854-4.188,8.508-4.188,13.521c0,8.351,4.295,15.708,10.779,20.011
				c0.32,0.428,0.705,0.86,1.207,1.288l57.427,57.211v9.59h-10.679v69.412h96.109h42.713v-69.414H85.961v-16.173
				C96.173,168.452,101.972,156.007,101.972,142.557z M-90.247,105.181c0-3.509,1.389-6.68,3.604-9.063l0.816-0.747
				c1.856-1.695,4.091-2.817,6.442-3.289c0.809-0.153,1.631-0.251,2.479-0.251h11.751h41.642c7.36,0,13.352,5.986,13.352,13.351
				c0,0.864-0.098,1.702-0.257,2.523c-1.125,5.617-5.928,10.104-11.854,10.675l-1.585,0.148h-30.917h-15.099h-7.032
				C-84.256,118.529-90.247,112.545-90.247,105.181z M-44.104,46.121c16.653-16.653,43.751-16.653,60.404,0
				c8.068,8.067,12.51,18.801,12.51,30.205s-4.441,22.139-12.51,30.206c-5.366,5.365-12.024,9.124-19.212,11.024
				c0.578-0.955,1.08-1.959,1.521-2.995c0.027-0.064,0.044-0.138,0.075-0.202c0.507-1.224,0.886-2.505,1.188-3.819
				c0.082-0.341,0.149-0.679,0.217-1.02c0.255-1.415,0.437-2.851,0.437-4.34c0-13.248-10.78-24.028-24.026-24.028h-32.812
				C-57.793,68.241-53.384,55.401-44.104,46.121z M91.293,67.804c0,4.047-1.854,7.807-4.906,10.295L67.763,59.24
				c2.498-2.974,6.188-4.79,10.182-4.79C85.309,54.455,91.293,60.442,91.293,67.804z M64.597,41.108c0,3.968-1.8,7.636-4.741,10.129
				L41.231,32.379c2.493-2.866,6.104-4.624,10.017-4.624C58.61,27.759,64.597,33.745,64.597,41.108z M37.898,14.411
				c0,3.881-1.74,7.475-4.575,9.963L14.699,5.52c2.487-2.762,6.02-4.453,9.85-4.453C31.914,1.063,37.898,7.048,37.898,14.411z
				 M-0.182-25.635c7.863,0,11.385,6.707,11.385,13.349c0,3.803-1.677,7.311-4.404,9.793l-18.421-18.65
				C-8.72-23.777-4.362-25.635-0.182-25.635z M-45.984-40.735l20.848,21.103l-0.462,1.046L1.1,8.109l3.06,3.061L27.8,34.808
				l3.059,3.059l23.64,23.64l3.059,3.06l26.698,26.696l0.084-0.038l18.829,19.062L20.17,193.283h-0.178l-64.07-64.071h20.576
				c0.547,0,1.059-0.124,1.599-0.161c2.66,0.405,5.323,0.625,7.977,0.625c14.061,0,27.729-5.542,37.775-15.593
				C33.936,103.998,39.49,90.592,39.49,76.329c0-14.262-5.555-27.674-15.642-37.755c-20.813-20.813-54.69-20.813-75.509,0
				c-11.314,11.314-16.831,26.862-15.377,42.587h-9.862c-1.411,0-2.793,0.171-4.165,0.421c-0.442,0.081-0.881,0.166-1.313,0.269
				c-0.993,0.24-1.965,0.545-2.915,0.907c-0.828,0.311-1.616,0.684-2.396,1.084c-0.392,0.203-0.795,0.368-1.175,0.587
				l-42.031-42.037L-45.984-40.735z M-22.714,177.178c-0.237-0.208-0.49-0.396-0.96-0.747l-47.396-47.224h11.889l64.072,64.073
				h-25.72v-14.513L-22.714,177.178z M-31.512,252.014v-48.054H9.482h3.989c0.741,0,1.475,0.058,2.199,0.11l4.398,4.4l2.921-2.921
				c11.752,3.981,20.24,15.095,20.24,28.171v18.292L-31.512,252.014L-31.512,252.014z M85.953,252.014H53.918v-18.292
				c0-11.779-5.096-22.367-13.154-29.762h45.189V252.014L85.953,252.014z M35.267,193.282l19.911-19.911l35.759-35.759
				c0.24,1.634,0.356,3.279,0.356,4.945c0,10.972-5.063,21.075-13.896,27.717l-2.125,1.604v21.404H35.267z"/>
		</g>
	</g>
	<g id="Слой_5" display="none">
		<g display="inline">
			<path fill="#3D4A5A" d="M173.533,24.261h-21.351V13.586V-18.44v-21.432c0-8.785-7.146-15.933-15.933-15.933h-21.513
				c-8.784,0-15.933,7.146-15.933,15.933v21.432v32.025v10.676h-245.529v176.142h245.53v12.094l21.35,37.364v9.255
				c0,2.951,2.394,5.338,5.339,5.338c2.946,0,5.338-2.387,5.338-5.338v-9.255l21.352-37.364v-12.094h21.351L173.533,24.261
				L173.533,24.261z M141.507,2.911h-32.024V-7.765h32.024V2.911z M109.482-39.87c0-2.897,2.359-5.257,5.257-5.257h21.511
				c2.898,0,5.259,2.358,5.259,5.257v21.432h-32.024L109.482-39.87L109.482-39.87z M-136.047,189.727V34.936H98.808v154.791
				H-136.047z M125.494,237.681l-12.151-21.267h24.309L125.494,237.681z M141.507,205.74h-32.024v-5.337V24.261V13.586h32.024
				v10.676v176.142V205.74z M162.857,189.727h-10.675V34.936h10.675V189.727z"/>
			<path fill="#3D4A5A" d="M61.443,82.975H45.431c-2.946,0-5.338,2.385-5.338,5.337c0,2.951,2.392,5.338,5.338,5.338h16.013
				c2.946,0,5.338-2.387,5.338-5.338S64.39,82.975,61.443,82.975z"/>
			<path fill="#3D4A5A" d="M-34.633,72.302h16.014c2.944,0,5.338-2.389,5.338-5.338c0-2.953-2.393-5.337-5.338-5.337h-16.014
				c-2.944,0-5.339,2.385-5.339,5.337C-39.972,69.912-37.579,72.302-34.633,72.302z"/>
			<path fill="#3D4A5A" d="M61.443,61.624H24.08c-2.944,0-5.338,2.387-5.338,5.339c0,2.949,2.394,5.338,5.338,5.338h37.363
				c2.946,0,5.338-2.389,5.338-5.338C66.781,64.01,64.39,61.624,61.443,61.624z"/>
			<path fill="#3D4A5A" d="M2.73,72.302c1.387,0,2.775-0.587,3.79-1.548c0.959-1.017,1.548-2.402,1.548-3.79
				c0-1.391-0.589-2.781-1.548-3.791c-2.029-1.977-5.604-1.977-7.58,0c-0.961,1.01-1.548,2.399-1.548,3.791
				c0,1.387,0.587,2.773,1.548,3.79C-0.045,71.714,1.289,72.302,2.73,72.302z"/>
			<path fill="#3D4A5A" d="M-18.621,88.313c0,2.951,2.393,5.338,5.338,5.338h37.36c2.947,0,5.341-2.387,5.341-5.338
				c0-2.952-2.394-5.337-5.341-5.337h-37.36C-16.229,82.975-18.621,85.361-18.621,88.313z"/>
			<path fill="#3D4A5A" d="M-34.633,93.651c1.39,0,2.774-0.587,3.79-1.548c0.96-1.014,1.548-2.402,1.548-3.79
				c0-1.446-0.588-2.781-1.548-3.79c-2.027-1.975-5.604-1.975-7.581,0c-0.961,1.009-1.548,2.344-1.548,3.79
				c0,1.388,0.587,2.775,1.548,3.79C-37.408,93.063-36.074,93.651-34.633,93.651z"/>
			<path fill="#3D4A5A" d="M-88.01,67.502v-5.878c0-2.95-2.391-5.338-5.338-5.338c-2.945,0-5.338,2.388-5.338,5.338v5.897
				c-5.822,1.185-11.128,4.276-15.04,8.903c-3.262,3.854-4.771,8.786-4.237,13.895c0.545,5.228,3.233,10.071,7.381,13.295
				l11.896,9.25v29.026c-6.195-2.21-10.674-8.081-10.674-15.031c0-2.952-2.393-5.338-5.338-5.338c-2.947,0-5.338,2.387-5.338,5.338
				c0,12.885,9.186,23.667,21.35,26.149v4.689c0,2.952,2.393,5.337,5.338,5.337c2.947,0,5.338-2.386,5.338-5.337v-4.708
				c5.823-1.185,11.129-4.274,15.047-8.901c3.264-3.865,4.769-8.798,4.232-13.905c-0.549-5.22-3.234-10.063-7.381-13.279
				l-11.898-9.261V78.616c6.197,2.211,10.676,8.082,10.676,15.032c0,2.952,2.393,5.337,5.34,5.337c2.944,0,5.337-2.386,5.337-5.337
				C-66.659,80.765-75.845,69.984-88.01,67.502z M-82.668,125.327c1.862,1.448,3.074,3.63,3.32,5.97
				c0.229,2.188-0.399,4.284-1.768,5.897c-1.857,2.193-4.259,3.73-6.896,4.67v-20.7L-82.668,125.327z M-104.027,95.188
				c-1.869-1.452-3.075-3.635-3.32-5.979c-0.224-2.184,0.4-4.273,1.769-5.893c1.854-2.193,4.259-3.729,6.896-4.671V99.34
				L-104.027,95.188z"/>
			<path fill="#3D4A5A" d="M-17.847,122.473c-11.688,6.085-15.628,17.727-17.06,29.795c-2.209-1.854-4.419-3.7-6.624-5.551
				c-5.23-4.382-12.821,3.127-7.547,7.547c4.99,4.185,9.985,8.364,14.978,12.548c3.512,2.946,8.951,1.083,9.111-3.773
				c0.39-11.562,0.935-25.311,12.533-31.349C-6.365,128.522-11.756,119.303-17.847,122.473z"/>
			<path fill="#3D4A5A" d="M17.648,143.766c-7.392,1.713-15.805,11.117-21.009,0.563c-3.037-6.157-12.249-0.757-9.218,5.388
				c2.759,5.6,8.007,9.517,14.246,10.307c3.17,0.401,6.034-0.048,9.01-1.206c2.183-0.85,10.34-6.977,12.101-3.828
				c3.351,6,12.574,0.62,9.218-5.386C29.131,144.474,23.328,142.447,17.648,143.766z"/>
		</g>
	</g>
	<g id="Слой_6" display="none">
		<g display="inline">
			<path fill="#3D4A5A" d="M-51.49,50.408c1.83-0.835,2.634-2.993,1.796-4.826c-0.838-1.83-2.994-2.643-4.827-1.795
				c-2.523,1.149-4.873,2.661-6.974,4.482c-1.521,1.319-1.686,3.621-0.37,5.141c0.722,0.83,1.738,1.258,2.755,1.258
				c0.845,0,1.697-0.291,2.386-0.89C-55.147,52.408-53.388,51.276-51.49,50.408z"/>
			<path fill="#3D4A5A" d="M-38.77,48.442h7.285c2.015,0,3.645-1.629,3.645-3.645s-1.63-3.643-3.645-3.643h-7.285
				c-2.015,0-3.643,1.628-3.643,3.643S-40.784,48.442-38.77,48.442z"/>
			<path fill="#3D4A5A" d="M-16.913,48.442h7.284c2.016,0,3.645-1.629,3.645-3.645s-1.629-3.643-3.645-3.643h-7.284
				c-2.017,0-3.645,1.628-3.645,3.643C-20.557,46.812-18.928,48.442-16.913,48.442z"/>
			<path fill="#3D4A5A" d="M-31.484,92.155h-7.285c-2.015,0-3.643,1.628-3.643,3.644c0,2.014,1.628,3.644,3.643,3.644h7.285
				c2.015,0,3.644-1.629,3.644-3.644C-27.841,93.782-29.47,92.155-31.484,92.155z"/>
			<path fill="#3D4A5A" d="M12.229,92.155H4.943c-2.015,0-3.643,1.628-3.643,3.644c0,2.014,1.628,3.644,3.643,3.644h7.285
				c2.015,0,3.642-1.629,3.642-3.644C15.871,93.782,14.243,92.155,12.229,92.155z"/>
			<path fill="#3D4A5A" d="M-9.627,92.155h-7.284c-2.017,0-3.645,1.628-3.645,3.644c0,2.014,1.628,3.644,3.645,3.644h7.284
				c2.016,0,3.645-1.629,3.645-3.644C-5.983,93.782-7.613,92.155-9.627,92.155z"/>
			<path fill="#3D4A5A" d="M-51.49,90.188c-1.896-0.868-3.653-2-5.229-3.369c-1.521-1.313-3.816-1.15-5.141,0.368
				c-1.315,1.519-1.15,3.821,0.367,5.139c2.103,1.821,4.446,3.33,6.972,4.484c0.493,0.226,1.006,0.331,1.513,0.331
				c1.384,0,2.703-0.79,3.314-2.126C-48.859,93.185-49.66,91.022-51.49,90.188z"/>
			<path fill="#3D4A5A" d="M34.085,92.155H26.8c-2.017,0-3.645,1.628-3.645,3.644c0,2.014,1.629,3.644,3.645,3.644h7.285
				c2.015,0,3.644-1.629,3.644-3.644C37.729,93.782,36.1,92.155,34.085,92.155z"/>
			<path fill="#3D4A5A" d="M99.654,92.155h-7.285c-2.016,0-3.644,1.628-3.644,3.644c0,2.014,1.628,3.644,3.644,3.644h7.285
				c2.017,0,3.644-1.629,3.644-3.644C103.297,93.782,101.669,92.155,99.654,92.155z"/>
			<path fill="#3D4A5A" d="M121.51,92.155h-7.284c-2.017,0-3.646,1.628-3.646,3.644c0,2.014,1.629,3.644,3.646,3.644h7.284
				c2.016,0,3.644-1.629,3.644-3.644C125.153,93.782,123.525,92.155,121.51,92.155z"/>
			<path fill="#3D4A5A" d="M55.941,92.155h-7.285c-2.015,0-3.644,1.628-3.644,3.644c0,2.014,1.629,3.644,3.644,3.644h7.285
				c2.016,0,3.643-1.629,3.643-3.644C59.584,93.782,57.957,92.155,55.941,92.155z"/>
			<path fill="#3D4A5A" d="M77.798,92.155h-7.285c-2.015,0-3.646,1.628-3.646,3.644c0,2.014,1.631,3.644,3.646,3.644h7.285
				c2.015,0,3.643-1.629,3.643-3.644C81.44,93.782,79.813,92.155,77.798,92.155z"/>
			<path fill="#3D4A5A" d="M-51.49,199.469c-1.896-0.867-3.653-2-5.229-3.37c-1.521-1.315-3.816-1.15-5.141,0.368
				c-1.315,1.52-1.15,3.819,0.367,5.141c2.103,1.821,4.446,3.33,6.972,4.484c0.493,0.226,1.006,0.331,1.513,0.331
				c1.384,0,2.703-0.792,3.314-2.128C-48.859,202.468-49.66,200.303-51.49,199.469z"/>
			<path fill="#3D4A5A" d="M-9.627,201.436h-7.284c-2.017,0-3.645,1.628-3.645,3.644s1.628,3.644,3.645,3.644h7.284
				c2.016,0,3.645-1.627,3.645-3.644C-5.984,203.064-7.613,201.436-9.627,201.436z"/>
			<path fill="#3D4A5A" d="M-31.484,201.436h-7.285c-2.015,0-3.643,1.628-3.643,3.644s1.628,3.644,3.643,3.644h7.285
				c2.015,0,3.644-1.627,3.644-3.644C-27.841,203.064-29.47,201.436-31.484,201.436z"/>
			<path fill="#3D4A5A" d="M55.941,201.436h-7.285c-2.015,0-3.644,1.628-3.644,3.644s1.629,3.644,3.644,3.644h7.285
				c2.016,0,3.643-1.627,3.643-3.644C59.582,203.064,57.957,201.436,55.941,201.436z"/>
			<path fill="#3D4A5A" d="M66.869,205.078c0,2.016,1.629,3.644,3.646,3.644H77.8c2.015,0,3.643-1.627,3.643-3.644
				c0-2.016-1.628-3.644-3.643-3.644h-7.285C68.498,201.436,66.869,203.064,66.869,205.078z"/>
			<path fill="#3D4A5A" d="M92.369,208.721h7.285c2.017,0,3.644-1.627,3.644-3.644c0-2.016-1.627-3.644-3.644-3.644h-7.285
				c-2.016,0-3.644,1.628-3.644,3.644C88.726,207.094,90.354,208.721,92.369,208.721z"/>
			<path fill="#3D4A5A" d="M34.085,201.436H26.8c-2.017,0-3.645,1.628-3.645,3.644s1.629,3.644,3.645,3.644h7.285
				c2.015,0,3.644-1.627,3.644-3.644C37.729,203.064,36.1,201.436,34.085,201.436z"/>
			<path fill="#3D4A5A" d="M114.226,208.721h7.284c2.016,0,3.644-1.627,3.644-3.644c0-2.016-1.628-3.644-3.644-3.644h-7.284
				c-2.016,0-3.644,1.628-3.644,3.644C110.582,207.094,112.21,208.721,114.226,208.721z"/>
			<path fill="#3D4A5A" d="M12.229,201.436H4.943c-2.015,0-3.643,1.628-3.643,3.644s1.628,3.644,3.643,3.644h7.285
				c2.015,0,3.642-1.627,3.642-3.644C15.871,203.064,14.243,201.436,12.229,201.436z"/>
			<path fill="#3D4A5A" d="M88.726,146.796c0,8.034,6.535,14.569,14.57,14.569c8.036,0,14.569-6.536,14.569-14.569
				c0-8.035-6.534-14.571-14.569-14.571S88.726,138.76,88.726,146.796z M103.296,139.51c4.019,0,7.286,3.267,7.286,7.285
				c0,4.018-3.27,7.284-7.286,7.284c-4.018,0-7.285-3.267-7.285-7.284C96.011,142.776,99.279,139.51,103.296,139.51z"/>
			<path fill="#3D4A5A" d="M84.873,26.586L65.069,6.783c-1.612-1.613-4.247-1.613-5.859,0l-7.453,7.453l-7.453-7.453
				c-1.613-1.613-4.246-1.613-5.86,0L18.643,26.586H-42.41c-16.067,0-29.144,13.074-29.144,29.143V197.24
				c0,14.364,11.688,26.053,26.055,26.053h192.51v-50.997v-50.999V84.869v-7.285V26.586H84.873L84.873,26.586z M62.141,14.157
				l12.43,12.43l50.997,50.999H105.93L64.888,36.539c-1.541-1.497-3.956-1.493-5.533,0.04L18.353,77.586H-1.285l58.193-58.192l0,0
				L62.141,14.157z M95.632,77.584H28.652L62.14,44.095L95.632,77.584z M41.371,14.157l5.233,5.234l-58.189,58.192h-10.472
				l50.998-50.999L41.371,14.157z M-42.412,33.871h53.766l-7.507,7.507c-1.104,0.357-1.949,1.199-2.306,2.308l-33.899,33.898
				h-10.054c-12.056,0-21.856-9.804-21.856-21.855C-64.269,43.674-54.466,33.871-42.412,33.871z M139.724,165.009H99.654
				c-10.044,0-18.214-8.17-18.214-18.213c0-10.042,8.17-18.216,18.214-18.216h40.069V165.009z M139.724,92.155h-3.646
				c-2.014,0-3.642,1.628-3.642,3.644c0,2.014,1.628,3.644,3.642,3.644h3.646v21.854H99.654c-14.058,0-25.5,11.441-25.5,25.5
				c0,14.057,11.442,25.499,25.5,25.499h40.069v29.142h-3.646c-2.014,0-3.642,1.628-3.642,3.644s1.628,3.644,3.642,3.644h3.646
				v7.286H-45.502c-10.347,0-18.769-8.417-18.769-18.769v-8.026c0.851-0.91,1.258-2.197,0.878-3.478
				c-0.582-1.989-0.878-4.061-0.878-6.156v-99.65c0.851-0.91,1.258-2.196,0.878-3.476c-0.067-0.235-0.095-0.48-0.154-0.719
				c0.325,0.347,0.657,0.688,1.002,1.015c0.313,0.302,0.638,0.591,0.964,0.879c0.409,0.354,0.822,0.7,1.25,1.036
				c0.343,0.271,0.69,0.528,1.046,0.783c0.438,0.317,0.896,0.615,1.354,0.906c0.368,0.233,0.736,0.459,1.115,0.678
				c0.48,0.274,0.974,0.528,1.468,0.775c0.384,0.192,0.768,0.386,1.159,0.561c0.521,0.23,1.053,0.437,1.584,0.637
				c0.393,0.147,0.783,0.303,1.187,0.434c0.57,0.187,1.152,0.335,1.735,0.487c0.387,0.099,0.768,0.216,1.158,0.3
				c0.659,0.142,1.33,0.235,2.003,0.331c0.336,0.048,0.664,0.117,1.002,0.154c1.021,0.107,2.058,0.17,3.103,0.17h13.898h10.301
				h10.471H2.555h18.053h83.072h18.042h10.303h7.7L139.724,92.155L139.724,92.155z M135.871,77.584l-29.143-29.143h0.211
				c2.017,0,3.645-1.628,3.645-3.645c0-2.015-1.628-3.643-3.645-3.643h-7.285c-0.063,0-0.111,0.033-0.176,0.037l-7.321-7.321h47.566
				v43.712h-3.853V77.584z"/>
			<path fill="#3D4A5A" d="M128.796,41.157h-7.286c-2.017,0-3.645,1.629-3.645,3.643c0,2.015,1.628,3.645,3.645,3.645h7.286
				c2.015,0,3.643-1.629,3.643-3.645C132.438,42.783,130.811,41.157,128.796,41.157z"/>
		</g>
	</g>
	<g id="Слой_7" display="none">
		<g display="inline">
			<g>
				<path fill="#3D4A5A" d="M146.248,12.275h-41.246H92.48C89.307,1.252,79.239-6.475,67.503-6.475
					c-11.737,0-21.803,7.727-24.979,18.75h-12.52h-41.248c-1.942,0-3.519,1.573-3.519,3.516v200.613
					c0,1.943,1.575,3.518,3.519,3.518h157.487c1.942,0,3.519-1.574,3.519-3.518V15.79C149.764,13.847,148.189,12.275,146.248,12.275
					z M33.52,30.788V19.304H45.32c0.02,0,0.033-0.003,0.051-0.003c0.077,0,0.152-0.005,0.229-0.012
					c0.04-0.003,0.081-0.007,0.121-0.011c0.076-0.009,0.149-0.021,0.226-0.033c0.04-0.009,0.082-0.015,0.123-0.021
					c0.069-0.017,0.14-0.035,0.208-0.055c0.042-0.014,0.085-0.022,0.128-0.037c0.064-0.021,0.125-0.046,0.188-0.068
					c0.046-0.018,0.09-0.034,0.133-0.053c0.063-0.026,0.117-0.056,0.174-0.084c0.045-0.022,0.089-0.044,0.132-0.067
					c0.058-0.031,0.111-0.065,0.164-0.103c0.04-0.023,0.081-0.05,0.121-0.076c0.054-0.038,0.107-0.08,0.161-0.12
					c0.035-0.027,0.07-0.055,0.104-0.083c0.054-0.045,0.104-0.093,0.153-0.143c0.03-0.027,0.063-0.057,0.089-0.085
					c0.054-0.052,0.101-0.104,0.147-0.161c0.022-0.029,0.053-0.062,0.078-0.092c0.044-0.056,0.086-0.11,0.127-0.169
					c0.022-0.036,0.052-0.07,0.073-0.105c0.036-0.056,0.069-0.111,0.104-0.169c0.025-0.042,0.051-0.085,0.073-0.131
					c0.026-0.052,0.053-0.104,0.076-0.158s0.05-0.105,0.069-0.159c0.021-0.048,0.037-0.097,0.057-0.146
					c0.021-0.063,0.043-0.126,0.063-0.189c0.015-0.045,0.023-0.091,0.034-0.138c0.017-0.068,0.033-0.138,0.046-0.209
					c0.003-0.019,0.01-0.035,0.012-0.053c1.538-9.164,9.409-15.814,18.716-15.814s17.178,6.65,18.716,15.814
					c0.003,0.021,0.009,0.038,0.012,0.058c0.011,0.058,0.024,0.114,0.037,0.172c0.012,0.052,0.025,0.104,0.04,0.154
					c0.016,0.056,0.031,0.106,0.051,0.162c0.018,0.055,0.037,0.106,0.059,0.158c0.021,0.049,0.038,0.096,0.059,0.142
					c0.025,0.059,0.055,0.114,0.083,0.171c0.02,0.038,0.04,0.078,0.061,0.117c0.035,0.062,0.072,0.121,0.11,0.181
					c0.021,0.03,0.039,0.063,0.062,0.094c0.046,0.067,0.094,0.13,0.145,0.193c0.016,0.021,0.033,0.044,0.05,0.064
					c0.069,0.081,0.143,0.161,0.217,0.237c0,0.001,0.002,0.001,0.002,0.002c0.076,0.075,0.155,0.146,0.236,0.215
					c0.031,0.026,0.066,0.051,0.1,0.075c0.051,0.04,0.103,0.08,0.153,0.116c0.043,0.029,0.087,0.055,0.13,0.082
					c0.047,0.029,0.093,0.059,0.143,0.086c0.047,0.026,0.095,0.05,0.143,0.073c0.049,0.024,0.099,0.05,0.146,0.071
					c0.047,0.021,0.098,0.042,0.146,0.062c0.055,0.021,0.108,0.042,0.163,0.06c0.048,0.017,0.093,0.031,0.14,0.047
					c0.064,0.019,0.129,0.033,0.193,0.049c0.041,0.01,0.082,0.021,0.123,0.027c0.081,0.017,0.165,0.028,0.249,0.038
					c0.023,0.004,0.051,0.01,0.077,0.012c0.111,0.011,0.227,0.019,0.342,0.019c0.002,0,0.004,0,0.006,0h11.801v11.483v9.608H33.526
					v-9.611H33.52L33.52,30.788z M30.006,47.428H105c1.939,0,3.517-1.574,3.517-3.516v-9.608h19.218v129.837H95.627
					c-1.94,0-3.516,1.574-3.516,3.515v32.107H7.271V34.304h19.218v9.608C26.489,45.855,28.063,47.428,30.006,47.428z
					 M122.762,171.172l-23.621,23.621v-23.621H122.762z M142.733,212.887H-7.728V19.304h34.217v7.968H3.758
					c-1.941,0-3.517,1.574-3.517,3.517v172.49c0,1.942,1.574,3.518,3.517,3.518h91.869c0.115,0,0.23-0.009,0.348-0.02
					c0.054-0.006,0.104-0.016,0.157-0.021c0.06-0.011,0.12-0.019,0.183-0.029c0.061-0.011,0.118-0.028,0.176-0.043
					c0.055-0.013,0.105-0.025,0.157-0.04c0.058-0.02,0.112-0.039,0.169-0.062c0.053-0.018,0.104-0.034,0.157-0.057
					c0.052-0.021,0.102-0.048,0.151-0.072c0.055-0.022,0.105-0.047,0.158-0.073c0.049-0.027,0.095-0.058,0.143-0.085
					c0.053-0.03,0.104-0.061,0.151-0.094c0.052-0.033,0.101-0.071,0.15-0.108c0.042-0.031,0.085-0.062,0.125-0.096
					c0.085-0.066,0.165-0.142,0.241-0.218c0.005-0.005,0.012-0.009,0.017-0.015l35.623-35.623c0.005-0.004,0.008-0.01,0.014-0.016
					c0.077-0.077,0.149-0.158,0.22-0.242c0.033-0.042,0.063-0.083,0.096-0.125c0.037-0.052,0.076-0.102,0.109-0.151
					c0.032-0.05,0.063-0.102,0.096-0.154c0.025-0.046,0.057-0.093,0.082-0.141c0.026-0.054,0.054-0.108,0.076-0.162
					c0.023-0.05,0.05-0.099,0.07-0.148c0.021-0.055,0.039-0.106,0.059-0.161c0.021-0.056,0.041-0.109,0.06-0.164
					c0.017-0.057,0.026-0.108,0.041-0.163c0.015-0.058,0.031-0.112,0.042-0.169c0.013-0.064,0.021-0.128,0.027-0.193
					c0.01-0.049,0.019-0.097,0.021-0.146c0.011-0.117,0.02-0.233,0.018-0.352V30.788c0-1.94-1.572-3.517-3.516-3.517h-22.733v-7.968
					h34.221L142.733,212.887L142.733,212.887z"/>
			</g>
		</g>
		<g display="inline">
			<g>
				<path fill="#3D4A5A" d="M67.502,61.022c-24.685,0-44.765,20.081-44.765,44.763c0,24.684,20.08,44.764,44.765,44.764
					c24.684,0,44.764-20.08,44.764-44.764C112.266,81.102,92.186,61.022,67.502,61.022z M67.502,143.517
					c-20.807,0-37.731-16.926-37.731-37.732c0-20.806,16.927-37.73,37.731-37.73c20.806,0,37.731,16.926,37.731,37.73
					C105.235,126.592,88.308,143.517,67.502,143.517z"/>
			</g>
		</g>
		<g display="inline">
			<g>
				<path fill="#3D4A5A" d="M88.737,87.362c-1.373-1.374-3.599-1.374-4.971,0L53.44,117.688l-8.763-8.764
					c-1.373-1.372-3.6-1.372-4.973,0c-1.373,1.374-1.373,3.599,0,4.972l11.25,11.249c0.688,0.687,1.586,1.031,2.483,1.031
					c0.899,0,1.801-0.346,2.485-1.031l32.812-32.812C90.109,90.961,90.109,88.735,88.737,87.362z"/>
			</g>
		</g>
	</g>
	<g id="Слой_8">
		<g>
			<g>
				<path fill="#3D4A5A" d="M129.305,133.929l-9.768-62.509l6.173-70.376c0.091-1.03-0.255-2.051-0.954-2.813
					s-1.687-1.196-2.721-1.196h-54.28c-1.027,0-2.006,0.427-2.704,1.18C64.354-1.034,64-0.025,64.076,0.998l5.142,68.956
					c-0.152,0.317-0.262,0.659-0.318,1.021l-9.837,62.954c-0.118,0.757,0.003,1.533,0.346,2.218l31.479,62.954
					c0.624,1.25,1.9,2.038,3.299,2.038s2.674-0.789,3.299-2.038l31.479-62.954C129.303,135.463,129.422,134.685,129.305,133.929z
					 M118.01,4.412l-5.566,63.443H76.459L71.73,4.412H118.01z M94.184,126.874c-5.561,0-10.082-4.521-10.082-10.082
					c0-5.559,4.521-10.08,10.082-10.08s10.083,4.521,10.083,10.08C104.267,122.353,99.743,126.874,94.184,126.874z M97.873,181.825
					v-47.969c7.86-1.698,13.771-8.703,13.771-17.063c0-9.629-7.833-17.46-17.46-17.46s-17.459,7.831-17.459,17.46
					c0,8.36,5.908,15.364,13.771,17.063v47.969l-23.962-47.923L75.7,75.233h36.969l9.166,58.669L97.873,181.825z"/>
			</g>
		</g>
		<g>
			<g>
				<path fill="#3D4A5A" d="M166.973,199.663H147.3c-2.037,0-3.688,1.651-3.688,3.688v6.146H44.757v-6.146
					c0-2.037-1.65-3.688-3.688-3.688H21.395c-2.036,0-3.688,1.651-3.688,3.688v19.673c0,2.037,1.649,3.688,3.688,3.688h19.674
					c2.038,0,3.689-1.652,3.689-3.688v-6.148h98.854v6.148c0,2.037,1.65,3.688,3.688,3.688h19.673c2.037,0,3.688-1.652,3.688-3.688
					v-19.673C170.661,201.316,169.01,199.663,166.973,199.663z M37.378,219.338H25.082v-12.297h12.296V219.338z M163.283,219.338
					h-12.295v-12.297h12.295V219.338z"/>
			</g>
		</g>
		<g>
			<g>
				<path fill="#3D4A5A" d="M184.679,111.136c-2.038,0-3.689,1.65-3.689,3.688c0,47.864-38.94,86.808-86.806,86.808
					c-47.866,0-86.807-38.941-86.807-86.808c0-2.038-1.651-3.688-3.689-3.688c-2.037,0-3.688,1.65-3.688,3.688
					c0,51.934,42.251,94.185,94.185,94.185c51.932,0,94.183-42.251,94.183-94.185C188.366,112.787,186.717,111.136,184.679,111.136z
					"/>
			</g>
		</g>
	</g>
</g>
</svg>
