<?xml version="1.0" encoding="utf-8"?>
<!-- Generator: Adobe Illustrator 21.0.0, SVG Export Plug-In . SVG Version: 6.00 Build 0)  -->
<svg version="1.1" id="Слой_1" xmlns="http://www.w3.org/2000/svg" xmlns:xlink="http://www.w3.org/1999/xlink" x="0px" y="0px"
	 viewBox="0 0 188.4 229.7" style="enable-background:new 0 0 188.4 229.7;" xml:space="preserve">
<style type="text/css">
	.st0{display:none;}
	.st1{display:inline;}
	.st2{fill:#3D4A5A;}
</style>
<g id="Слой_1_1_">
	<g id="Capa_1" class="st0">
		<g class="st1">
			<path class="st2" d="M17.9,10.3c3,0,5.5-2.5,5.5-5.5v-5.5c0-3-2.5-5.5-5.5-5.5s-5.5,2.5-5.5,5.5v5.5
				C12.4,7.8,14.9,10.3,17.9,10.3z"/>
			<path class="st2" d="M12.4,235.4v5.5c0,3,2.5,5.5,5.5,5.5s5.5-2.5,5.5-5.5v-5.5c0-3-2.5-5.5-5.5-5.5
				C14.9,229.9,12.4,232.4,12.4,235.4z"/>
			<path class="st2" d="M138.7,125.6c3,0,5.5-2.5,5.5-5.5s-2.5-5.5-5.5-5.5h-5.5c-3,0-5.5,2.5-5.5,5.5s2.5,5.5,5.5,5.5H138.7z"/>
			<path class="st2" d="M-102.9,114.6c-3,0-5.5,2.5-5.5,5.5s2.5,5.5,5.5,5.5h5.5c3,0,5.5-2.5,5.5-5.5s-2.5-5.5-5.5-5.5H-102.9z"/>
			<path class="st2" d="M99.4,44c1.4,0,2.8-0.5,3.9-1.6l3.9-3.9c2.1-2.1,2.1-5.6,0-7.8c-2.1-2.1-5.6-2.1-7.8,0l-3.9,3.9
				c-2.1,2.1-2.1,5.6,0,7.8C96.6,43.5,98,44,99.4,44z"/>
			<path class="st2" d="M-67.5,197.7l-3.9,3.9c-2.1,2.1-2.1,5.6,0,7.8c1.1,1.1,2.5,1.6,3.9,1.6s2.8-0.5,3.9-1.6l3.9-3.9
				c2.1-2.1,2.1-5.6,0-7.8C-61.9,195.6-65.4,195.6-67.5,197.7z"/>
			<path class="st2" d="M-59.7,34.7l-3.9-3.9c-2.1-2.1-5.6-2.1-7.8,0c-2.1,2.1-2.1,5.6,0,7.8l3.9,3.9c1.1,1.1,2.5,1.6,3.9,1.6
				c1.4,0,2.8-0.5,3.9-1.6C-57.6,40.3-57.6,36.8-59.7,34.7z"/>
			<path class="st2" d="M17.9-44c-90.8,0-164.7,73.9-164.7,164.7s73.9,164.7,164.7,164.7c19.6,0,38.9-3.4,57.2-10.2
				c2.8-1,4.3-4.2,3.2-7c-1.1-2.9-4.2-4.3-7.1-3.2c-17.1,6.3-35,9.5-53.4,9.5c-84.8,0-153.7-69-153.7-153.7
				C-135.8,36-66.9-33,17.9-33s153.7,69,153.7,153.7c0,18.3-3.2,36.3-9.5,53.4c-1,2.9,0.4,6,3.2,7.1c2.8,1.1,6-0.4,7.1-3.2
				c6.8-18.3,10.2-37.5,10.2-57.2C182.6,29.9,108.7-44,17.9-44z"/>
		</g>
		<g class="st1">
			<path class="st2" d="M102.2,228.5v9.8h39.8v9.4h-39.8v25H89.1v-25h-6.8v-9.4h6.8v-9.8h-6.8v-11.4h6.8v-43.9h31.1
				c8.9,0,15.7,0.9,20.2,2.7c4.6,1.8,8.3,4.9,11.1,9.4c2.8,4.5,4.1,9.5,4.1,15c0,5.5-1,10.1-3.1,13.7c-2,3.6-4.7,6.5-8.1,8.7
				c-3.4,2.1-7.2,3.7-11.6,4.5s-8.9,1.3-13.5,1.3L102.2,228.5L102.2,228.5z M119.3,217.1c3,0,5.9-0.2,8.7-0.7
				c2.8-0.5,5.2-1.3,7.3-2.6c2.1-1.3,3.7-3,5-5.1c1.2-2.1,1.8-4.9,1.8-8.3c0-2.9-0.6-5.4-1.7-7.5c-1.1-2-2.6-3.7-4.5-5
				c-1.9-1.3-4.2-2.2-6.8-2.8c-2.6-0.6-5.4-0.9-8.3-0.9h-18.5v32.9L119.3,217.1L119.3,217.1z"/>
		</g>
		<g class="st1">
			<path class="st2" d="M-13.1,103.1c0,5.2-0.7,9.9-2.2,14c-1.5,4.2-3.6,8.2-6.4,12.2c-9,12.8-15.9,19.2-20.7,19.2
				c-1.5,0-2.7-0.6-3.7-1.6c-1-1.1-1.5-2.4-1.5-3.8c0-1.1,0.5-2.2,1.5-3.4c0.6-0.7,1.9-2,3.9-3.9c4.9-4.6,8.8-9.3,11.6-13.9h-0.1
				c-2.4,1.1-5.3,1.6-8.7,1.6c-5.6,0-10.1-2.2-13.5-6.6c-3.2-4-4.8-8.9-4.8-14.6c0-6.6,2.2-12.1,6.5-16.5c4.3-4.4,9.7-6.6,16.3-6.6
				c7,0,12.4,2.3,16.3,7C-14.9,90.3-13.1,96-13.1,103.1z M-35.2,89.9c-3.2,0-5.8,1.2-7.6,3.5c-1.8,2.3-2.7,5.2-2.7,8.5
				c0,3.4,0.8,6.2,2.3,8.2c1.7,2.3,4.2,3.5,7.5,3.5c3.2,0,5.8-1,7.7-3.1c1.9-2.1,2.9-4.7,2.9-8c0-3.5-0.8-6.4-2.3-8.7
				C-29.2,91.2-31.8,89.9-35.2,89.9z"/>
			<path class="st2" d="M42.1,113.7c0,9.5-1.6,17.2-4.9,23.2c-4.1,7.6-10.6,11.4-19.2,11.4c-8.7,0-15.1-3.8-19.2-11.4
				c-3.3-6-4.9-13.8-4.9-23.2c0-9.5,1.6-17.2,4.9-23.2c4.1-7.6,10.6-11.4,19.3-11.4s15.2,3.8,19.3,11.4
				C40.4,96.5,42.1,104.2,42.1,113.7z M30.2,113.6c0-5.9-0.7-10.9-2-14.9c-2.1-6.1-5.5-9.1-10.2-9.1c-4.8,0-8.2,3-10.3,9
				c-1.4,4-2.1,9-2.1,15c0,16.1,4.1,24.2,12.4,24.2c4.8,0,8.1-3.1,10.2-9.2C29.5,124.7,30.2,119.7,30.2,113.6z"/>
			<path class="st2" d="M95.3,113.7c0,9.5-1.6,17.2-4.9,23.2c-4.1,7.6-10.6,11.4-19.2,11.4c-8.7,0-15.1-3.8-19.2-11.4
				c-3.3-6-4.9-13.8-4.9-23.2c0-9.5,1.6-17.2,4.9-23.2c4.1-7.6,10.6-11.4,19.3-11.4c8.7,0,15.2,3.8,19.3,11.4
				C93.7,96.5,95.3,104.2,95.3,113.7z M83.4,113.6c0-5.9-0.7-10.9-2-14.9c-2.1-6.1-5.5-9.1-10.2-9.1c-4.8,0-8.2,3-10.3,9
				c-1.4,4-2.1,9-2.1,15c0,16.1,4.1,24.2,12.4,24.2c4.8,0,8.1-3.1,10.2-9.2C82.8,124.7,83.4,119.7,83.4,113.6z"/>
		</g>
	</g>
	<g id="Слой_4" class="st0">
		<g class="st1">
			<path class="st2" d="M13.9,209.3c-10.3,0-18.7,8.4-18.7,18.7c0,10.3,8.4,18.7,18.7,18.7c10.3,0,18.7-8.4,18.7-18.7
				C32.6,217.7,24.2,209.3,13.9,209.3z M13.9,236c-4.4,0-8-3.6-8-8s3.6-8,8-8c4.4,0,8,3.6,8,8C21.9,232.4,18.3,236,13.9,236z"/>
			<path class="st2" d="M-100.7,57.5l18.9,18.9c1,1,2.4,1.6,3.8,1.6c1.4,0,2.7-0.5,3.8-1.6c2.1-2.1,2.1-5.5,0-7.6L-86,57.1
				c5.9-8.9,5.9-20.6,0-29.4l23.4-23.4c8.7,5.8,20.8,5.8,29.5,0l11.7,11.7c2.1,2.1,5.5,2.1,7.6,0c2.1-2.1,2.1-5.5,0-7.6l-18.9-18.9
				l-3.8,3.8c-6.1,6-16.6,6-22.7,0l-3.8-3.8l-37.8,37.8L-97,31c6.2,6.2,6.2,16.4,0,22.7L-100.7,57.5z"/>
			<path class="st2" d="M58.2,95.6c-5.9,8.9-5.9,20.6,0,29.4l-23.4,23.4c-8.7-5.8-20.8-5.8-29.5,0l-11.7-11.7
				c-2.1-2.1-5.5-2.1-7.6,0c-2.1,2.1-2.1,5.5,0,7.6L5,163.2l3.8-3.8c6.1-6.1,16.6-6,22.7,0l3.8,3.8l37.8-37.8l-3.8-3.8
				c-6.2-6.2-6.2-16.4,0-22.7l3.8-3.8L54.1,76.3c-2.1-2.1-5.5-2.1-7.5,0c-2.1,2.1-2.1,5.5,0,7.6L58.2,95.6z"/>
			<circle class="st2" cx="80.5" cy="110.3" r="5.3"/>
			<circle class="st2" cx="20.1" cy="170.7" r="5.3"/>
			<path class="st2" d="M-44.1-14.3c2.1-2.1,4-5.5,2-7.6c-2.1-2.1-5.5-2.1-7.6,0c-2.1,2.1-4,5.5-2,7.6
				C-49.6-12.2-46.2-12.2-44.1-14.3z"/>
			<circle class="st2" cx="-108.3" cy="42.3" r="5.3"/>
			<path class="st2" d="M102,142.6c0-4.7-0.8-9.3-2.2-13.8l18.4-18.4L93.9,85.7c5-4.5,8.1-10.9,8.1-17.9c0-13.2-10.8-24-24-24
				c-1,0-1.9,0.1-2.9,0.2c0.1-0.9,0.2-1.9,0.2-2.9c0-13.2-10.8-24-24-24c-1,0-1.9,0.1-2.9,0.2c0.1-0.9,0.2-1.9,0.2-2.9
				c0-13.2-10.8-24-24-24c-1,0-1.9,0.1-2.9,0.2c0.1-1,0.2-1.9,0.2-2.9c0-13.9-9.3-24-22.1-24c-7,0-14,3-18.9,7.6l-26.8-27.1
				l-100.2,98.1l49.4,49.4c-2.6,3.9-4.2,8.5-4.2,13.5c0,8.4,4.3,15.7,10.8,20c0.3,0.4,0.7,0.9,1.2,1.3l57.4,57.2v9.6h-10.7v69.4
				h96.1h42.7v-69.4H86v-16.2C96.2,168.5,102,156,102,142.6z M-90.2,105.2c0-3.5,1.4-6.7,3.6-9.1l0.8-0.7c1.9-1.7,4.1-2.8,6.4-3.3
				c0.8-0.2,1.6-0.3,2.5-0.3h11.8h41.6c7.4,0,13.4,6,13.4,13.4c0,0.9-0.1,1.7-0.3,2.5c-1.1,5.6-5.9,10.1-11.9,10.7l-1.6,0.1h-30.9
				h-15.1h-7C-84.3,118.5-90.2,112.5-90.2,105.2z M-44.1,46.1c16.7-16.7,43.8-16.7,60.4,0c8.1,8.1,12.5,18.8,12.5,30.2
				s-4.4,22.1-12.5,30.2c-5.4,5.4-12,9.1-19.2,11c0.6-1,1.1-2,1.5-3c0-0.1,0-0.1,0.1-0.2c0.5-1.2,0.9-2.5,1.2-3.8
				c0.1-0.3,0.1-0.7,0.2-1c0.3-1.4,0.4-2.9,0.4-4.3c0-13.2-10.8-24-24-24h-32.8C-57.8,68.2-53.4,55.4-44.1,46.1z M91.3,67.8
				c0,4-1.9,7.8-4.9,10.3L67.8,59.2c2.5-3,6.2-4.8,10.2-4.8C85.3,54.5,91.3,60.4,91.3,67.8z M64.6,41.1c0,4-1.8,7.6-4.7,10.1
				L41.2,32.4c2.5-2.9,6.1-4.6,10-4.6C58.6,27.8,64.6,33.7,64.6,41.1z M37.9,14.4c0,3.9-1.7,7.5-4.6,10L14.7,5.5
				c2.5-2.8,6-4.5,9.8-4.5C31.9,1.1,37.9,7,37.9,14.4z M-0.2-25.6c7.9,0,11.4,6.7,11.4,13.3c0,3.8-1.7,7.3-4.4,9.8l-18.4-18.6
				C-8.7-23.8-4.4-25.6-0.2-25.6z M-46-40.7l20.8,21.1l-0.5,1L1.1,8.1l3.1,3.1l23.6,23.6l3.1,3.1l23.6,23.6l3.1,3.1l26.7,26.7l0.1,0
				l18.8,19.1l-83,83H20l-64.1-64.1h20.6c0.5,0,1.1-0.1,1.6-0.2c2.7,0.4,5.3,0.6,8,0.6c14.1,0,27.7-5.5,37.8-15.6
				C33.9,104,39.5,90.6,39.5,76.3c0-14.3-5.6-27.7-15.6-37.8C3,17.8-30.8,17.8-51.7,38.6C-63,49.9-68.5,65.4-67,81.2h-9.9
				c-1.4,0-2.8,0.2-4.2,0.4c-0.4,0.1-0.9,0.2-1.3,0.3c-1,0.2-2,0.5-2.9,0.9c-0.8,0.3-1.6,0.7-2.4,1.1c-0.4,0.2-0.8,0.4-1.2,0.6
				l-42-42L-46-40.7z M-22.7,177.2c-0.2-0.2-0.5-0.4-1-0.7l-47.4-47.2h11.9l64.1,64.1h-25.7v-14.5L-22.7,177.2z M-31.5,252V204h41h4
				c0.7,0,1.5,0.1,2.2,0.1l4.4,4.4l2.9-2.9c11.8,4,20.2,15.1,20.2,28.2V252L-31.5,252L-31.5,252z M86,252h-32v-18.3
				c0-11.8-5.1-22.4-13.2-29.8H86V252L86,252z M35.3,193.3l19.9-19.9l35.8-35.8c0.2,1.6,0.4,3.3,0.4,4.9c0,11-5.1,21.1-13.9,27.7
				l-2.1,1.6v21.4L35.3,193.3L35.3,193.3z"/>
		</g>
	</g>
	<g id="Слой_5" class="st0">
		<g class="st1">
			<path class="st2" d="M173.5,24.3h-21.4V13.6v-32v-21.4c0-8.8-7.1-15.9-15.9-15.9h-21.5c-8.8,0-15.9,7.1-15.9,15.9v21.4v32v10.7
				h-245.5v176.1H98.8v12.1l21.3,37.4v9.3c0,3,2.4,5.3,5.3,5.3c2.9,0,5.3-2.4,5.3-5.3v-9.3l21.4-37.4v-12.1h21.4L173.5,24.3
				L173.5,24.3z M141.5,2.9h-32V-7.8h32V2.9z M109.5-39.9c0-2.9,2.4-5.3,5.3-5.3h21.5c2.9,0,5.3,2.4,5.3,5.3v21.4h-32L109.5-39.9
				L109.5-39.9z M-136,189.7V34.9H98.8v154.8H-136z M125.5,237.7l-12.2-21.3h24.3L125.5,237.7z M141.5,205.7h-32v-5.3V24.3V13.6h32
				v10.7v176.1V205.7z M162.9,189.7h-10.7V34.9h10.7V189.7z"/>
			<path class="st2" d="M61.4,83h-16c-2.9,0-5.3,2.4-5.3,5.3c0,3,2.4,5.3,5.3,5.3h16c2.9,0,5.3-2.4,5.3-5.3S64.4,83,61.4,83z"/>
			<path class="st2" d="M-34.6,72.3h16c2.9,0,5.3-2.4,5.3-5.3c0-3-2.4-5.3-5.3-5.3h-16c-2.9,0-5.3,2.4-5.3,5.3
				C-40,69.9-37.6,72.3-34.6,72.3z"/>
			<path class="st2" d="M61.4,61.6H24.1c-2.9,0-5.3,2.4-5.3,5.3c0,2.9,2.4,5.3,5.3,5.3h37.4c2.9,0,5.3-2.4,5.3-5.3
				C66.8,64,64.4,61.6,61.4,61.6z"/>
			<path class="st2" d="M2.7,72.3c1.4,0,2.8-0.6,3.8-1.5c1-1,1.5-2.4,1.5-3.8c0-1.4-0.6-2.8-1.5-3.8c-2-2-5.6-2-7.6,0
				c-1,1-1.5,2.4-1.5,3.8c0,1.4,0.6,2.8,1.5,3.8C0,71.7,1.3,72.3,2.7,72.3z"/>
			<path class="st2" d="M-18.6,88.3c0,3,2.4,5.3,5.3,5.3h37.4c2.9,0,5.3-2.4,5.3-5.3c0-3-2.4-5.3-5.3-5.3h-37.4
				C-16.2,83-18.6,85.4-18.6,88.3z"/>
			<path class="st2" d="M-34.6,93.7c1.4,0,2.8-0.6,3.8-1.5c1-1,1.5-2.4,1.5-3.8c0-1.4-0.6-2.8-1.5-3.8c-2-2-5.6-2-7.6,0
				c-1,1-1.5,2.3-1.5,3.8c0,1.4,0.6,2.8,1.5,3.8C-37.4,93.1-36.1,93.7-34.6,93.7z"/>
			<path class="st2" d="M-88,67.5v-5.9c0-3-2.4-5.3-5.3-5.3c-2.9,0-5.3,2.4-5.3,5.3v5.9c-5.8,1.2-11.1,4.3-15,8.9
				c-3.3,3.9-4.8,8.8-4.2,13.9c0.5,5.2,3.2,10.1,7.4,13.3l11.9,9.3v29c-6.2-2.2-10.7-8.1-10.7-15c0-3-2.4-5.3-5.3-5.3
				c-2.9,0-5.3,2.4-5.3,5.3c0,12.9,9.2,23.7,21.3,26.1v4.7c0,3,2.4,5.3,5.3,5.3c2.9,0,5.3-2.4,5.3-5.3V153c5.8-1.2,11.1-4.3,15-8.9
				c3.3-3.9,4.8-8.8,4.2-13.9c-0.5-5.2-3.2-10.1-7.4-13.3l-11.9-9.3v-29c6.2,2.2,10.7,8.1,10.7,15c0,3,2.4,5.3,5.3,5.3
				c2.9,0,5.3-2.4,5.3-5.3C-66.7,80.8-75.8,70-88,67.5z M-82.7,125.3c1.9,1.4,3.1,3.6,3.3,6c0.2,2.2-0.4,4.3-1.8,5.9
				c-1.9,2.2-4.3,3.7-6.9,4.7v-20.7L-82.7,125.3z M-104,95.2c-1.9-1.5-3.1-3.6-3.3-6c-0.2-2.2,0.4-4.3,1.8-5.9
				c1.9-2.2,4.3-3.7,6.9-4.7v20.7L-104,95.2z"/>
			<path class="st2" d="M-17.8,122.5c-11.7,6.1-15.6,17.7-17.1,29.8c-2.2-1.9-4.4-3.7-6.6-5.6c-5.2-4.4-12.8,3.1-7.5,7.5
				c5,4.2,10,8.4,15,12.5c3.5,2.9,9,1.1,9.1-3.8c0.4-11.6,0.9-25.3,12.5-31.3C-6.4,128.5-11.8,119.3-17.8,122.5z"/>
			<path class="st2" d="M17.6,143.8c-7.4,1.7-15.8,11.1-21,0.6c-3-6.2-12.2-0.8-9.2,5.4c2.8,5.6,8,9.5,14.2,10.3c3.2,0.4,6,0,9-1.2
				c2.2-0.9,10.3-7,12.1-3.8c3.4,6,12.6,0.6,9.2-5.4C29.1,144.5,23.3,142.4,17.6,143.8z"/>
		</g>
	</g>
	<g id="Слой_6" class="st0">
		<g class="st1">
			<path class="st2" d="M-51.5,50.4c1.8-0.8,2.6-3,1.8-4.8c-0.8-1.8-3-2.6-4.8-1.8c-2.5,1.1-4.9,2.7-7,4.5c-1.5,1.3-1.7,3.6-0.4,5.1
				c0.7,0.8,1.7,1.3,2.8,1.3c0.8,0,1.7-0.3,2.4-0.9C-55.1,52.4-53.4,51.3-51.5,50.4z"/>
			<path class="st2" d="M-38.8,48.4h7.3c2,0,3.6-1.6,3.6-3.6s-1.6-3.6-3.6-3.6h-7.3c-2,0-3.6,1.6-3.6,3.6S-40.8,48.4-38.8,48.4z"/>
			<path class="st2" d="M-16.9,48.4h7.3c2,0,3.6-1.6,3.6-3.6s-1.6-3.6-3.6-3.6h-7.3c-2,0-3.6,1.6-3.6,3.6
				C-20.6,46.8-18.9,48.4-16.9,48.4z"/>
			<path class="st2" d="M-31.5,92.2h-7.3c-2,0-3.6,1.6-3.6,3.6c0,2,1.6,3.6,3.6,3.6h7.3c2,0,3.6-1.6,3.6-3.6
				C-27.8,93.8-29.5,92.2-31.5,92.2z"/>
			<path class="st2" d="M12.2,92.2H4.9c-2,0-3.6,1.6-3.6,3.6c0,2,1.6,3.6,3.6,3.6h7.3c2,0,3.6-1.6,3.6-3.6
				C15.9,93.8,14.2,92.2,12.2,92.2z"/>
			<path class="st2" d="M-9.6,92.2h-7.3c-2,0-3.6,1.6-3.6,3.6c0,2,1.6,3.6,3.6,3.6h7.3c2,0,3.6-1.6,3.6-3.6
				C-6,93.8-7.6,92.2-9.6,92.2z"/>
			<path class="st2" d="M-51.5,90.2c-1.9-0.9-3.7-2-5.2-3.4c-1.5-1.3-3.8-1.2-5.1,0.4c-1.3,1.5-1.2,3.8,0.4,5.1
				c2.1,1.8,4.4,3.3,7,4.5c0.5,0.2,1,0.3,1.5,0.3c1.4,0,2.7-0.8,3.3-2.1C-48.9,93.2-49.7,91-51.5,90.2z"/>
			<path class="st2" d="M34.1,92.2h-7.3c-2,0-3.6,1.6-3.6,3.6c0,2,1.6,3.6,3.6,3.6h7.3c2,0,3.6-1.6,3.6-3.6
				C37.7,93.8,36.1,92.2,34.1,92.2z"/>
			<path class="st2" d="M99.7,92.2h-7.3c-2,0-3.6,1.6-3.6,3.6c0,2,1.6,3.6,3.6,3.6h7.3c2,0,3.6-1.6,3.6-3.6
				C103.3,93.8,101.7,92.2,99.7,92.2z"/>
			<path class="st2" d="M121.5,92.2h-7.3c-2,0-3.6,1.6-3.6,3.6c0,2,1.6,3.6,3.6,3.6h7.3c2,0,3.6-1.6,3.6-3.6
				C125.2,93.8,123.5,92.2,121.5,92.2z"/>
			<path class="st2" d="M55.9,92.2h-7.3c-2,0-3.6,1.6-3.6,3.6c0,2,1.6,3.6,3.6,3.6h7.3c2,0,3.6-1.6,3.6-3.6
				C59.6,93.8,58,92.2,55.9,92.2z"/>
			<path class="st2" d="M77.8,92.2h-7.3c-2,0-3.6,1.6-3.6,3.6c0,2,1.6,3.6,3.6,3.6h7.3c2,0,3.6-1.6,3.6-3.6
				C81.4,93.8,79.8,92.2,77.8,92.2z"/>
			<path class="st2" d="M-51.5,199.5c-1.9-0.9-3.7-2-5.2-3.4c-1.5-1.3-3.8-1.1-5.1,0.4c-1.3,1.5-1.2,3.8,0.4,5.1
				c2.1,1.8,4.4,3.3,7,4.5c0.5,0.2,1,0.3,1.5,0.3c1.4,0,2.7-0.8,3.3-2.1C-48.9,202.5-49.7,200.3-51.5,199.5z"/>
			<path class="st2" d="M-9.6,201.4h-7.3c-2,0-3.6,1.6-3.6,3.6s1.6,3.6,3.6,3.6h7.3c2,0,3.6-1.6,3.6-3.6
				C-6,203.1-7.6,201.4-9.6,201.4z"/>
			<path class="st2" d="M-31.5,201.4h-7.3c-2,0-3.6,1.6-3.6,3.6s1.6,3.6,3.6,3.6h7.3c2,0,3.6-1.6,3.6-3.6
				C-27.8,203.1-29.5,201.4-31.5,201.4z"/>
			<path class="st2" d="M55.9,201.4h-7.3c-2,0-3.6,1.6-3.6,3.6s1.6,3.6,3.6,3.6h7.3c2,0,3.6-1.6,3.6-3.6
				C59.6,203.1,58,201.4,55.9,201.4z"/>
			<path class="st2" d="M66.9,205.1c0,2,1.6,3.6,3.6,3.6h7.3c2,0,3.6-1.6,3.6-3.6c0-2-1.6-3.6-3.6-3.6h-7.3
				C68.5,201.4,66.9,203.1,66.9,205.1z"/>
			<path class="st2" d="M92.4,208.7h7.3c2,0,3.6-1.6,3.6-3.6c0-2-1.6-3.6-3.6-3.6h-7.3c-2,0-3.6,1.6-3.6,3.6
				C88.7,207.1,90.4,208.7,92.4,208.7z"/>
			<path class="st2" d="M34.1,201.4h-7.3c-2,0-3.6,1.6-3.6,3.6s1.6,3.6,3.6,3.6h7.3c2,0,3.6-1.6,3.6-3.6
				C37.7,203.1,36.1,201.4,34.1,201.4z"/>
			<path class="st2" d="M114.2,208.7h7.3c2,0,3.6-1.6,3.6-3.6c0-2-1.6-3.6-3.6-3.6h-7.3c-2,0-3.6,1.6-3.6,3.6
				C110.6,207.1,112.2,208.7,114.2,208.7z"/>
			<path class="st2" d="M12.2,201.4H4.9c-2,0-3.6,1.6-3.6,3.6s1.6,3.6,3.6,3.6h7.3c2,0,3.6-1.6,3.6-3.6
				C15.9,203.1,14.2,201.4,12.2,201.4z"/>
			<path class="st2" d="M88.7,146.8c0,8,6.5,14.6,14.6,14.6c8,0,14.6-6.5,14.6-14.6c0-8-6.5-14.6-14.6-14.6S88.7,138.8,88.7,146.8z
				 M103.3,139.5c4,0,7.3,3.3,7.3,7.3s-3.3,7.3-7.3,7.3c-4,0-7.3-3.3-7.3-7.3C96,142.8,99.3,139.5,103.3,139.5z"/>
			<path class="st2" d="M84.9,26.6L65.1,6.8c-1.6-1.6-4.2-1.6-5.9,0l-7.5,7.5l-7.5-7.5c-1.6-1.6-4.2-1.6-5.9,0L18.6,26.6h-61.1
				c-16.1,0-29.1,13.1-29.1,29.1v141.5c0,14.4,11.7,26.1,26.1,26.1H147v-51v-51V84.9v-7.3v-51H84.9L84.9,26.6z M62.1,14.2l12.4,12.4
				l51,51h-19.6l-41-41c-1.5-1.5-4-1.5-5.5,0l-41,41H-1.3l58.2-58.2l0,0L62.1,14.2z M95.6,77.6h-67l33.5-33.5L95.6,77.6z M41.4,14.2
				l5.2,5.2l-58.2,58.2h-10.5l51-51L41.4,14.2z M-42.4,33.9h53.8l-7.5,7.5c-1.1,0.4-1.9,1.2-2.3,2.3l-33.9,33.9h-10.1
				c-12.1,0-21.9-9.8-21.9-21.9C-64.3,43.7-54.5,33.9-42.4,33.9z M139.7,165H99.7c-10,0-18.2-8.2-18.2-18.2c0-10,8.2-18.2,18.2-18.2
				h40.1L139.7,165L139.7,165z M139.7,92.2h-3.6c-2,0-3.6,1.6-3.6,3.6c0,2,1.6,3.6,3.6,3.6h3.6v21.9H99.7
				c-14.1,0-25.5,11.4-25.5,25.5c0,14.1,11.4,25.5,25.5,25.5h40.1v29.1h-3.6c-2,0-3.6,1.6-3.6,3.6s1.6,3.6,3.6,3.6h3.6v7.3H-45.5
				c-10.3,0-18.8-8.4-18.8-18.8v-8c0.9-0.9,1.3-2.2,0.9-3.5c-0.6-2-0.9-4.1-0.9-6.2V79.9c0.9-0.9,1.3-2.2,0.9-3.5
				c-0.1-0.2-0.1-0.5-0.2-0.7c0.3,0.3,0.7,0.7,1,1c0.3,0.3,0.6,0.6,1,0.9c0.4,0.4,0.8,0.7,1.3,1c0.3,0.3,0.7,0.5,1,0.8
				c0.4,0.3,0.9,0.6,1.4,0.9c0.4,0.2,0.7,0.5,1.1,0.7c0.5,0.3,1,0.5,1.5,0.8c0.4,0.2,0.8,0.4,1.2,0.6c0.5,0.2,1.1,0.4,1.6,0.6
				c0.4,0.1,0.8,0.3,1.2,0.4c0.6,0.2,1.2,0.3,1.7,0.5c0.4,0.1,0.8,0.2,1.2,0.3c0.7,0.1,1.3,0.2,2,0.3c0.3,0,0.7,0.1,1,0.2
				c1,0.1,2.1,0.2,3.1,0.2h13.9h10.3h10.5H2.6h18.1h83.1h18H132h7.7L139.7,92.2L139.7,92.2z M135.9,77.6l-29.1-29.1h0.2
				c2,0,3.6-1.6,3.6-3.6c0-2-1.6-3.6-3.6-3.6h-7.3c-0.1,0-0.1,0-0.2,0l-7.3-7.3h47.6v43.7L135.9,77.6L135.9,77.6L135.9,77.6z"/>
			<path class="st2" d="M128.8,41.2h-7.3c-2,0-3.6,1.6-3.6,3.6c0,2,1.6,3.6,3.6,3.6h7.3c2,0,3.6-1.6,3.6-3.6
				C132.4,42.8,130.8,41.2,128.8,41.2z"/>
		</g>
	</g>
	<g id="Слой_7" class="st0">
		<g class="st1">
			<g>
				<path class="st2" d="M146.2,12.3H105H92.5c-3.2-11-13.2-18.8-25-18.8c-11.7,0-21.8,7.7-25,18.8H30h-41.2c-1.9,0-3.5,1.6-3.5,3.5
					v200.6c0,1.9,1.6,3.5,3.5,3.5h157.5c1.9,0,3.5-1.6,3.5-3.5V15.8C149.8,13.8,148.2,12.3,146.2,12.3z M33.5,30.8V19.3h11.8
					c0,0,0,0,0.1,0c0.1,0,0.2,0,0.2,0c0,0,0.1,0,0.1,0c0.1,0,0.1,0,0.2,0c0,0,0.1,0,0.1,0c0.1,0,0.1,0,0.2-0.1c0,0,0.1,0,0.1,0
					c0.1,0,0.1,0,0.2-0.1c0,0,0.1,0,0.1-0.1c0.1,0,0.1-0.1,0.2-0.1c0,0,0.1,0,0.1-0.1c0.1,0,0.1-0.1,0.2-0.1c0,0,0.1,0,0.1-0.1
					c0.1,0,0.1-0.1,0.2-0.1c0,0,0.1-0.1,0.1-0.1c0.1,0,0.1-0.1,0.2-0.1c0,0,0.1-0.1,0.1-0.1c0.1-0.1,0.1-0.1,0.1-0.2
					c0,0,0.1-0.1,0.1-0.1c0-0.1,0.1-0.1,0.1-0.2c0,0,0.1-0.1,0.1-0.1c0-0.1,0.1-0.1,0.1-0.2c0,0,0.1-0.1,0.1-0.1
					c0-0.1,0.1-0.1,0.1-0.2s0-0.1,0.1-0.2c0,0,0-0.1,0.1-0.1c0-0.1,0-0.1,0.1-0.2c0,0,0-0.1,0-0.1c0-0.1,0-0.1,0-0.2c0,0,0,0,0-0.1
					c1.5-9.2,9.4-15.8,18.7-15.8s17.2,6.7,18.7,15.8c0,0,0,0,0,0.1c0,0.1,0,0.1,0,0.2c0,0.1,0,0.1,0,0.2c0,0.1,0,0.1,0.1,0.2
					c0,0.1,0,0.1,0.1,0.2c0,0,0,0.1,0.1,0.1c0,0.1,0.1,0.1,0.1,0.2c0,0,0,0.1,0.1,0.1c0,0.1,0.1,0.1,0.1,0.2c0,0,0,0.1,0.1,0.1
					c0,0.1,0.1,0.1,0.1,0.2c0,0,0,0,0.1,0.1c0.1,0.1,0.1,0.2,0.2,0.2c0,0,0,0,0,0c0.1,0.1,0.2,0.1,0.2,0.2c0,0,0.1,0.1,0.1,0.1
					c0.1,0,0.1,0.1,0.2,0.1c0,0,0.1,0.1,0.1,0.1c0,0,0.1,0.1,0.1,0.1c0,0,0.1,0,0.1,0.1c0,0,0.1,0,0.1,0.1c0,0,0.1,0,0.1,0.1
					c0.1,0,0.1,0,0.2,0.1c0,0,0.1,0,0.1,0c0.1,0,0.1,0,0.2,0c0,0,0.1,0,0.1,0c0.1,0,0.2,0,0.2,0c0,0,0.1,0,0.1,0c0.1,0,0.2,0,0.3,0
					c0,0,0,0,0,0h11.8v11.5v9.6h-68L33.5,30.8L33.5,30.8L33.5,30.8z M30,47.4h75c1.9,0,3.5-1.6,3.5-3.5v-9.6h19.2v129.8H95.6
					c-1.9,0-3.5,1.6-3.5,3.5v32.1H7.3V34.3h19.2v9.6C26.5,45.9,28.1,47.4,30,47.4z M122.8,171.2l-23.6,23.6v-23.6H122.8z
					 M142.7,212.9H-7.7V19.3h34.2v8H3.8c-1.9,0-3.5,1.6-3.5,3.5v172.5c0,1.9,1.6,3.5,3.5,3.5h91.9c0.1,0,0.2,0,0.3,0
					c0.1,0,0.1,0,0.2,0c0.1,0,0.1,0,0.2,0c0.1,0,0.1,0,0.2,0c0.1,0,0.1,0,0.2,0c0.1,0,0.1,0,0.2-0.1c0.1,0,0.1,0,0.2-0.1
					c0.1,0,0.1,0,0.2-0.1c0.1,0,0.1,0,0.2-0.1c0,0,0.1-0.1,0.1-0.1c0.1,0,0.1-0.1,0.2-0.1c0.1,0,0.1-0.1,0.2-0.1
					c0,0,0.1-0.1,0.1-0.1c0.1-0.1,0.2-0.1,0.2-0.2c0,0,0,0,0,0l35.6-35.6c0,0,0,0,0,0c0.1-0.1,0.1-0.2,0.2-0.2c0,0,0.1-0.1,0.1-0.1
					c0-0.1,0.1-0.1,0.1-0.2c0-0.1,0.1-0.1,0.1-0.2c0,0,0.1-0.1,0.1-0.1c0-0.1,0.1-0.1,0.1-0.2c0-0.1,0.1-0.1,0.1-0.1
					c0-0.1,0-0.1,0.1-0.2c0-0.1,0-0.1,0.1-0.2c0-0.1,0-0.1,0-0.2c0-0.1,0-0.1,0-0.2c0-0.1,0-0.1,0-0.2c0,0,0-0.1,0-0.1
					c0-0.1,0-0.2,0-0.4V30.8c0-1.9-1.6-3.5-3.5-3.5h-22.7v-8h34.2L142.7,212.9L142.7,212.9z"/>
			</g>
		</g>
		<g class="st1">
			<g>
				<path class="st2" d="M67.5,61c-24.7,0-44.8,20.1-44.8,44.8c0,24.7,20.1,44.8,44.8,44.8c24.7,0,44.8-20.1,44.8-44.8
					C112.3,81.1,92.2,61,67.5,61z M67.5,143.5c-20.8,0-37.7-16.9-37.7-37.7s16.9-37.7,37.7-37.7c20.8,0,37.7,16.9,37.7,37.7
					C105.2,126.6,88.3,143.5,67.5,143.5z"/>
			</g>
		</g>
		<g class="st1">
			<g>
				<path class="st2" d="M88.7,87.4c-1.4-1.4-3.6-1.4-5,0l-30.3,30.3l-8.8-8.8c-1.4-1.4-3.6-1.4-5,0c-1.4,1.4-1.4,3.6,0,5L51,125.1
					c0.7,0.7,1.6,1,2.5,1c0.9,0,1.8-0.3,2.5-1l32.8-32.8C90.1,91,90.1,88.7,88.7,87.4z"/>
			</g>
		</g>
	</g>
	<path id="Слой_8" class="st2" d="M129.3,133.9l-9.8-62.5L125.7,1c0.1-1-0.3-2.1-1-2.8S123.1-3,122-3H67.8c-1,0-2,0.4-2.7,1.2
		C64.4-1,64,0,64.1,1l5.1,69c-0.2,0.3-0.3,0.7-0.3,1l-9.8,63c-0.1,0.8,0,1.5,0.3,2.2l31.5,63c0.6,1.3,1.9,2,3.3,2s2.7-0.8,3.3-2
		l31.5-63C129.3,135.5,129.4,134.7,129.3,133.9z M118,4.4l-5.6,63.4h-36L71.7,4.4H118z M94.2,126.9c-5.6,0-10.1-4.5-10.1-10.1
		c0-5.6,4.5-10.1,10.1-10.1s10.1,4.5,10.1,10.1C104.3,122.4,99.7,126.9,94.2,126.9z M97.9,181.8v-48c7.9-1.7,13.8-8.7,13.8-17.1
		c0-9.6-7.8-17.5-17.5-17.5s-17.5,7.8-17.5,17.5c0,8.4,5.9,15.4,13.8,17.1v48l-24-47.9l9.2-58.7h37l9.2,58.7L97.9,181.8z M167,199.7
		h-19.7c-2,0-3.7,1.7-3.7,3.7v6.1H44.8v-6.1c0-2-1.7-3.7-3.7-3.7H21.4c-2,0-3.7,1.7-3.7,3.7V223c0,2,1.6,3.7,3.7,3.7h19.7
		c2,0,3.7-1.7,3.7-3.7v-6.1h98.9v6.1c0,2,1.6,3.7,3.7,3.7H167c2,0,3.7-1.7,3.7-3.7v-19.7C170.7,201.3,169,199.7,167,199.7z
		 M37.4,219.3H25.1V207h12.3V219.3z M163.3,219.3H151V207h12.3V219.3z M184.7,111.1c-2,0-3.7,1.7-3.7,3.7
		c0,47.9-38.9,86.8-86.8,86.8S7.4,162.7,7.4,114.8c0-2-1.7-3.7-3.7-3.7c-2,0-3.7,1.7-3.7,3.7C0,166.8,42.3,209,94.2,209
		c51.9,0,94.2-42.3,94.2-94.2C188.4,112.8,186.7,111.1,184.7,111.1z"/>
</g>
</svg>
