<svg xmlns="http://www.w3.org/2000/svg" xmlns:xlink="http://www.w3.org/1999/xlink" viewBox="0 0 47.36 27.13"><defs><style>.cls-1{fill:none;}.cls-2{clip-path:url(#clip-path);}.cls-3{fill:#ff141f;}</style><clipPath id="clip-path" transform="translate(0 -0.71)"><rect class="cls-1" width="48" height="28.8"/></clipPath></defs><title>viewed_1</title><g id="Слой_2" data-name="Слой 2"><g id="Слой_1-2" data-name="Слой 1"><g class="cls-2"><path class="cls-3" d="M40.85,7.84a24.42,24.42,0,0,0-34.5,0L0,14.2l6.51,6.51a24.42,24.42,0,0,0,34.5,0l6.35-6.35Zm-1,11.73a22.82,22.82,0,0,1-32.23,0L2.26,14.2,7.48,9A22.82,22.82,0,0,1,39.72,9l5.38,5.38Zm0,0" transform="translate(0 -0.71)"/></g><path class="cls-3" d="M22.86,7.85a5.61,5.61,0,0,0-5.6,5.6.8.8,0,0,0,1.6,0,4,4,0,0,1,4-4,.8.8,0,0,0,0-1.6Zm0,0" transform="translate(0 -0.71)"/><path class="cls-3" d="M23.66,3.85a10.4,10.4,0,1,0,10.4,10.4,10.41,10.41,0,0,0-10.4-10.4Zm0,19.2a8.8,8.8,0,1,1,8.8-8.8,8.81,8.81,0,0,1-8.8,8.8Zm0,0" transform="translate(0 -0.71)"/></g></g></svg>