<?xml version="1.0" encoding="utf-8"?>
<!-- Generator: Adobe Illustrator 21.0.0, SVG Export Plug-In . SVG Version: 6.00 Build 0)  -->
<svg version="1.1" id="Слой_1" xmlns="http://www.w3.org/2000/svg" xmlns:xlink="http://www.w3.org/1999/xlink" x="0px" y="0px"
	 viewBox="0 0 595.3 574" style="enable-background:new 0 0 595.3 574;" xml:space="preserve">
<style type="text/css">
	.st0{fill:#FFFFFF;}
	.st1{fill:#3D4A5A;}
</style>
<g id="Слой_2">
	<path class="st0" d="M553.1,498.2c0,15.7-12.7,28.3-28.3,28.3H47.5c-15.7,0-28.3-12.7-28.3-28.3V155.6c0-15.7,12.7-28.3,28.3-28.3
		h477.3c15.7,0,28.3,12.7,28.3,28.3L553.1,498.2L553.1,498.2z"/>
	<path class="st0" d="M471.9,157.8c7.6,14.2,1.5,32.2-13.5,40.3L259.2,304.4c-15,8-33.4,3-41-11.2l-52.1-97.6
		c-7.6-14.2-1.5-32.2,13.5-40.3L378.9,49c15-8,33.4-3,41,11.2L471.9,157.8z"/>
</g>
<g id="Capa_1">
	<g>
		<path class="st1" d="M592.3,270.4h-28.6V160.5c0-26.4-25.6-47.8-57.1-47.8h-38.7l-39.6-59.6c-6-9.1-17.5-14.8-30-14.8
			c-5.8,0-11.6,1.3-16.6,3.6l-151.9,70.7H60.1C28.6,112.7,3,134.1,3,160.5v328.2c0,26.4,25.6,47.8,57.1,47.8h446.5
			c31.5,0,57.1-21.4,57.1-47.8v-96.4h28.6L592.3,270.4L592.3,270.4z M506.6,131.8c17.6,0,32,11.2,33.9,25.5h-42.9l-16.9-25.5H506.6z
			 M392.8,58.7c5.4-2.5,12.6-0.8,15.5,3.7l63.1,94.9H181L392.8,58.7z M540.9,488.7c0,15.8-15.4,28.7-34.3,28.7H60.1
			c-18.9,0-34.3-12.9-34.3-28.7V160.5c0-15.8,15.4-28.7,34.3-28.7h128.6l-54.8,25.5H67.3c-6.3,0-11.4,4.3-11.4,9.6s5.1,9.6,11.4,9.6
			h25.6h417.4h30.6v94h-83.5c-38.8,0-70.4,26.4-70.4,58.9v4.1c0,32.5,31.6,58.9,70.4,58.9h83.5L540.9,488.7L540.9,488.7z
			 M569.4,373.2h-5.7H457.3c-26.2,0-47.5-17.8-47.5-39.8v-4.1c0-21.9,21.3-39.8,47.5-39.8h106.4h5.7L569.4,373.2L569.4,373.2z
			 M492.3,332.2c0,11.7-11.3,21.1-25.2,21.1c-13.9,0-25.2-9.4-25.2-21.1s11.3-21.1,25.2-21.1C481,311.1,492.3,320.5,492.3,332.2z"/>
	</g>
	<path class="st1" d="M230.5,351.1v21.5h87.8v20.6h-87.8v55.2h-29v-55.2h-15v-20.6h15v-21.5h-15V326h15v-96.8h68.7
		c19.7,0,34.5,2,44.6,6C325,239,333.1,246,339.2,256c6.1,10,9.1,21,9.1,33.1c0,12.2-2.2,22.2-6.7,30.2c-4.5,8-10.5,14.3-17.9,19.1
		c-7.4,4.7-16,8.1-25.6,10c-9.6,1.9-19.6,2.8-29.9,2.8L230.5,351.1L230.5,351.1z M268.3,326c6.7,0,13.1-0.5,19.2-1.6
		c6.1-1,11.4-3,16-5.8c4.6-2.8,8.2-6.6,10.9-11.3c2.7-4.7,4-10.9,4-18.3c0-6.5-1.2-12-3.7-16.5c-2.4-4.5-5.8-8.2-10-11
		c-4.2-2.8-9.2-4.9-14.9-6.2c-5.7-1.3-11.8-1.9-18.4-1.9h-40.9V326L268.3,326L268.3,326z"/>
</g>
</svg>
