<svg xmlns="http://www.w3.org/2000/svg" viewBox="0 0 470.01 431"><defs><style>.cls-1{fill:#fff;}.cls-2{fill:#414e5e;}</style></defs><title>Ресурс 11</title><g id="Слой_2" data-name="Слой 2"><g id="Слой_1-2" data-name="Слой 1"><g id="Слой_1-3" data-name="Слой 1"><path class="cls-1" d="M454.77,409.62s-6.32,11.85-8.69,12.64-38.71,4-38.71,4l-376-3.16L13.16,409.62,6,386.71l4.79-18.21,39.5-68.73L51.87,72.29,59,60.44,83.47,47.8H421.59l-5.53,241.7,45,88.48v15Z"/><path class="cls-2" d="M257.57,341h-45a7.5,7.5,0,1,0,0,15h45a7.5,7.5,0,0,0,0-15Z"/><path class="cls-2" d="M470,377.78a7.43,7.43,0,0,0-.15-.89l0-.2c-.06-.23-.12-.45-.2-.67l-.08-.21a7.38,7.38,0,0,0-.34-.75v0L427.5,296.67V92.39a7.5,7.5,0,1,0-15,0V291H57.5V80A22.52,22.52,0,0,1,80,57.5H377.57a7.5,7.5,0,0,0,0-15H80A37.54,37.54,0,0,0,42.5,80V296.7L.92,374.94l-.06.12a7.39,7.39,0,0,0-.34.75L.45,376a5.31,5.31,0,0,0-.2.68v.2a7.51,7.51,0,0,0-.15.88,7.06,7.06,0,0,0-.1.72v15A37.54,37.54,0,0,0,37.5,431h395A37.54,37.54,0,0,0,470,393.5v-15a7.44,7.44,0,0,0,0-.75ZM54.51,306h361L450,371H20Zm378,110H37.5A22.52,22.52,0,0,1,15,393.5h0V386H455v7.5A22.52,22.52,0,0,1,432.5,416h0Z"/><path class="cls-2" d="M422.5,15h21.89l-179,179L210,138.56a7.5,7.5,0,0,0-10.61,0h0L74.7,263.23A7.5,7.5,0,1,0,85.12,274l.18-.18L204.68,154.5l55.41,55.41a7.5,7.5,0,0,0,10.61,0h0L455,25.57V47.5a7.5,7.5,0,0,0,15,0V7.5A7.5,7.5,0,0,0,462.5,0h-40a7.5,7.5,0,0,0,0,15Z"/></g></g></g></svg>