<svg xmlns="http://www.w3.org/2000/svg" viewBox="0 0 60 60">
    <g id="Слой_2" data-name="Слой 2">
        <g id="Capa_1" data-name="Capa 1">
            <path class="cls-1" d="M2,7H0V59a.94.94,0,0,0,1,1H35V58H2Z"/>
            <path class="cls-1"
                  d="M6,2H37v8a.94.94,0,0,0,1,1h8v3h2V10h0a.37.37,0,0,0-.1-.3V9.6c-.1-.1-.1-.2-.2-.3l-9-9c-.1-.1-.2-.1-.3-.2h-.1c-.1,0-.2-.1-.3-.1H5A.94.94,0,0,0,4,1V55a.94.94,0,0,0,1,1H39V54H6ZM44.6,9H39V3.4Z"/>
            <rect class="cls-1" x="23" y="27" width="2" height="2"/>
            <rect class="cls-1" x="19" y="27" width="2" height="2"/>
            <rect class="cls-1" x="15" y="27" width="2" height="2"/>
            <rect class="cls-1" x="11" y="27" width="2" height="2"/>
            <rect class="cls-1" x="27" y="27" width="2" height="2"/>
            <rect class="cls-1" x="9" y="5" width="2" height="2"/>
            <rect class="cls-1" x="13" y="5" width="2" height="2"/>
            <rect class="cls-1" x="13" y="9" width="2" height="2"/>
            <rect class="cls-1" x="9" y="9" width="2" height="2"/>
            <rect class="cls-1" x="17" y="5" width="8" height="2"/>
            <rect class="cls-1" x="17" y="9" width="8" height="2"/>
            <rect class="cls-1" x="9" y="16" width="26" height="2"/>
            <rect class="cls-1" x="9" y="21" width="34" height="2"/>
            <rect class="cls-1" x="9" y="33" width="34" height="2"/>
            <rect class="cls-1" x="9" y="38" width="34" height="2"/>
            <rect class="cls-1" x="9" y="43" width="22" height="2"/>
            <rect class="cls-1" x="33" y="43" width="2" height="2"/>
            <rect class="cls-1" x="37" y="43" width="2" height="2"/>
            <rect class="cls-1" x="41" y="43" width="2" height="2"/>
            <path class="cls-1"
                  d="M56,33a4.08,4.08,0,0,0-3.9,3H48V29h6a.94.94,0,0,0,1-1V11.9A4,4,0,1,0,50,8a4.08,4.08,0,0,0,3,3.9V27H31v2H46V48.1A4,4,0,1,0,51,52a4.08,4.08,0,0,0-3-3.9V38h4.1A4,4,0,1,0,56,33ZM52,8a2,2,0,1,1,2,2A2,2,0,0,1,52,8ZM49,52a2,2,0,1,1-2-2A2,2,0,0,1,49,52Zm7-13a2,2,0,1,1,2-2A2,2,0,0,1,56,39Z"/>
            <rect class="cls-1" x="9" y="48" width="12" height="2"/>
        </g>
    </g>
</svg>