<svg xmlns="http://www.w3.org/2000/svg" viewBox="0 0 488.88 497.62">
    <g id="Слой_2" data-name="Слой 2">
        <g id="Layer_1" data-name="Layer 1">
            <path class="cls-1"
                  d="M436.44,208h-16V68.69L351.75,0H196.44V80h-128V208h-16v51.31l160,160V496h64V419.31l160-160V208Zm-80-160V27.31L393.13,64H356.44Zm-144-32h128V32h-112V48h112V64h-112V80h176V208h-112V176h96V160h-96V148.69L287.75,144H388.44V128H271.75l-16-16H388.44V96H239.75l-16-16H212.44Zm52.69,128H228.44V112h4.69ZM84.44,96h128v16h-112v16h112v16h-112v16h176v48h-192V96Zm336,152h-72v16h60.69L260.44,412.69V480h-32V412.69L79.75,264H332.44V248h-264V224h352Z"/>
            <rect class="cls-1" x="100.44" y="176" width="160" height="16"/>
            <rect class="cls-1" x="108.44" y="344" width="16" height="16"/>
            <polygon class="cls-1"
                     points="124.44 446.38 124.44 376 108.44 376 108.44 457.05 76.44 478.38 44.44 457.05 44.44 328 28.44 328 28.44 446.38 8.88 433.34 0 446.66 76.44 497.62 152.88 446.66 144 433.34 124.44 446.38"/>
            <rect class="cls-1" x="28.44" y="296" width="16" height="16"/>
            <rect class="cls-1" x="68.44" y="376" width="16" height="80"/>
            <rect class="cls-1" x="68.44" y="344" width="16" height="16"/>
            <rect class="cls-1" x="364.44" y="360" width="16" height="16"/>
            <polygon class="cls-1"
                     points="480 433.34 460.44 446.38 460.44 376 460.44 344 444.44 344 444.44 376 444.44 457.05 412.44 478.38 380.44 457.05 380.44 392 364.44 392 364.44 446.38 344.88 433.34 336 446.66 412.44 497.62 488.88 446.66 480 433.34"/>
            <rect class="cls-1" x="444.44" y="312" width="16" height="16"/>
            <rect class="cls-1" x="404.44" y="376" width="16" height="80"/>
            <rect class="cls-1" x="404.44" y="344" width="16" height="16"/>
        </g>
    </g>
</svg>