<svg xmlns="http://www.w3.org/2000/svg" viewBox="0 0 512 507.68"><defs><style>.cls-1{fill:#fff;}.cls-2{fill:#3c4959;}</style></defs><title>Ресурс 11</title><g id="Слой_2" data-name="Слой 2"><g id="Слой_1-2" data-name="Слой 1"><g id="Слой_2-2" data-name="Слой 2"><polygon class="cls-1" points="7 484.82 19 496.82 34 496.82 489 496.82 499 490.82 508 457.82 504 27.78 501 15.82 491 7.82 27 7.82 15 15.82 7 27.78 7 484.82"/></g><g id="Layer_1" data-name="Layer 1"><path class="cls-2" d="M367.48,292.07,356,274.26l6-20.32a15,15,0,0,0-8.1-17.74l-19.26-8.79-6-20.32a15,15,0,0,0-16.4-10.54l-21,3-16-13.87a15,15,0,0,0-19.5,0l-16,13.87-21-3a15,15,0,0,0-16.41,10.54l-6,20.32-19.26,8.8A15,15,0,0,0,169,254l6,20.32-11.45,17.81a15,15,0,0,0,2.78,19.3l16,13.87v21.17a15,15,0,0,0,12.77,14.74l20.19,2.9v92.53a7.59,7.59,0,0,0,10.83,6.86l39.51-18.63,40.59,18.62a7.59,7.59,0,0,0,10.75-6.9v-92.7l19-2.73a15,15,0,0,0,12.77-14.74V325.24l16-13.87A15,15,0,0,0,367.48,292.07ZM258,431.67,230.59,444.6V385.32a15.06,15.06,0,0,0,9.61,3.48,14.73,14.73,0,0,0,6.13-1.33L258,382.14Zm43.8,13.07-28.65-13.12V382.14l11.67,5.33a15,15,0,0,0,17-3.27v60.54ZM336.18,316a7.59,7.59,0,0,0-2.62,5.74v24.39l-24.14,3.47a7.59,7.59,0,0,0-5.3,3.41l-13.18,20.51-22.23-10.13h-.07l-.55-.22-.18-.07a6.29,6.29,0,0,0-.62-.17h-.14a5.65,5.65,0,0,1-.68-.11h-.11a7.58,7.58,0,0,0-1.59,0h-.11a3.11,3.11,0,0,0-.68.11h-.14a2,2,0,0,0-.62.17l-.18.07-.55.22h-.07l-22.18,10.13L227,353a7.59,7.59,0,0,0-5.3-3.41l-24.14-3.47V321.77a7.59,7.59,0,0,0-2.62-5.74l-18.43-16,13.19-20.51a7.59,7.59,0,0,0,.9-6.24l-6.87-23.4,22.21-10.06a7.59,7.59,0,0,0,4.13-4.77l6.87-23.4,24.14,3.47a7.61,7.61,0,0,0,6.05-1.78l18.43-16,18.43,16a7.59,7.59,0,0,0,6,1.78l24.14-3.47L321,235a7.59,7.59,0,0,0,4.13,4.77L347.36,250l-6.87,23.4a7.59,7.59,0,0,0,.9,6.24l13.18,20.52Z"/><path class="cls-2" d="M482.14,0H29.85A29.89,29.89,0,0,0,0,29.82V189.65a7.59,7.59,0,0,0,15.18,0v-23.9H496.82V477.82a14.69,14.69,0,0,1-14.67,14.67H29.85a14.69,14.69,0,0,1-14.67-14.67V232.65a7.59,7.59,0,0,0-15.18,0V477.82a29.89,29.89,0,0,0,29.85,29.86h452.3A29.89,29.89,0,0,0,512,477.82v-448A29.89,29.89,0,0,0,482.14,0Zm14.67,150.57H15.73V101.11H496.82Zm0-64.65H15.18V29.82A14.69,14.69,0,0,1,29.85,15.18h452.3a14.69,14.69,0,0,1,14.67,14.64V85.93Z"/><path class="cls-2" d="M454.22,27.82a22.56,22.56,0,1,0,22.56,22.56h0A22.58,22.58,0,0,0,454.22,27.82Zm0,29.94a7.38,7.38,0,1,1,7.38-7.38,7.38,7.38,0,0,1-7.38,7.38Z"/><path class="cls-2" d="M393.09,27.82a22.56,22.56,0,1,0,22.56,22.56h0A22.58,22.58,0,0,0,393.09,27.82Zm0,29.94a7.38,7.38,0,1,1,7.38-7.38,7.38,7.38,0,0,1-7.38,7.38Z"/><path class="cls-2" d="M332,27.82a22.56,22.56,0,1,0,22.56,22.56h0A22.58,22.58,0,0,0,332,27.82Zm0,29.94a7.38,7.38,0,1,1,7.38-7.38A7.38,7.38,0,0,1,332,57.76Z"/><path class="cls-2" d="M258.6,27.82H65.71a22.56,22.56,0,0,0,0,45.12H258.6a22.56,22.56,0,0,0,0-45.12Zm0,29.94H65.71a7.38,7.38,0,0,1,0-14.76H258.6a7.38,7.38,0,1,1,0,14.76Z"/></g></g></g></svg>