<svg xmlns="http://www.w3.org/2000/svg" viewBox="0 0 508 467.12"><defs><style>.cls-1{fill:#fff;}.cls-2{fill:#4a5665;}</style></defs><title>Ресурс 11</title><g id="Слой_2" data-name="Слой 2"><g id="Слой_1-2" data-name="Слой 1"><g id="Слой_2-2" data-name="Слой 2"><path class="cls-1" d="M11,214.62v98H33l73,68,22,9v69h81v-44h95v44h80v-62l21-9,27-16,30-26,19-22,12-28,9-41.5s-8-26.5-8-29.5-17-34-17-34l-24-21-29-21-51-23-32-7,10-27s1-15-2-23-9-23-9-23-14-18-19-22-18-11-18-11-6,6-20,0-19-6-29-6-38,17-38,17-10,17-13,20-9,12-11,18-5,22-5,22l5,23-31,16-18-18s-8-7-12-10,1-1-4-3-29-8-29-8-13-3-16-3-21,4-21,4l14,15,22,19,8,23-19,15-33,32-10,21Z"/></g><g id="Capa_1" data-name="Capa 1"><path class="cls-2" d="M90.1,204.92a24.6,24.6,0,1,0,24.6,24.6,24.6,24.6,0,0,0-24.6-24.6Zm0,32.8a8.2,8.2,0,1,1,8.2-8.2h0A8.24,8.24,0,0,1,90.1,237.72Z"/><path class="cls-2" d="M357.9,111.42a88.53,88.53,0,0,0,2.6-21.2A90.1,90.1,0,1,0,182,107.52c-7.3,1.7-14.6,3.5-21.5,5.6a90.36,90.36,0,0,0-74.3-39.3C75.14,73.82,64.1,76.24,55,79a8.45,8.45,0,0,0-.45,16h0a73.8,73.8,0,0,1,43.9,45c-29.8,17.8-52.7,40.1-66.6,65H0V319.62H31.8c17.5,31.3,49.5,58.6,91.1,77.7v59.5a10.3,10.3,0,0,0,10.3,10.3h77.7a10.3,10.3,0,0,0,10.3-10.3v-33a363.48,363.48,0,0,0,73.7.9v32.1a10.3,10.3,0,0,0,10.3,10.3h77.7a10.3,10.3,0,0,0,10.3-10.3V401c72-30.1,114.8-81.6,114.8-138.7C508,195.52,449.3,137,357.9,111.42Zm-87.5-94.9a73.77,73.77,0,0,1,73.7,73.7,73,73,0,0,1-18.8,49.2H278.6v-9.7a24.55,24.55,0,0,0-8-47.7,8.36,8.36,0,0,1-8.12-5.93,8.2,8.2,0,1,1,16.12-2.27H295a24.59,24.59,0,0,0-16.4-23.1V41H262.2v9.7a24.55,24.55,0,0,0,8,47.7,8.36,8.36,0,0,1,8.12,5.93,8.2,8.2,0,1,1-16.12,2.27H245.8a24.59,24.59,0,0,0,16.4,23.1v9.7H215.4a73.72,73.72,0,0,1,55-122.9Zm111.7,371.4-5.2,2.1v50.5a10.3,10.3,0,0,1-10.3,10.3H321.7a10.3,10.3,0,0,1-10.3-10.3v-34l-9.1,1a346.83,346.83,0,0,1-88.1-1.1l-9.3-1.3v35.3a10.3,10.3,0,0,1-10.3,10.3H149.7a10.3,10.3,0,0,1-10.3-10.3v-53.8l-4.9-2.1C92,366,59.9,338.82,44.2,307.82l-2.3-4.5H16.4v-81.9H41.8s19-45.2,70.3-70.3l5.5-3.1-1.5-6.1a89.61,89.61,0,0,0-35.4-51.4A74.4,74.4,0,0,1,149.8,127l3.3,5.7s24.1-7.2,33.5-9.4a90.85,90.85,0,0,0,8.3,16.1H180.3v16.4H360.6v-16.4H346a87.45,87.45,0,0,0,6.7-12.4c83.4,23.2,139,76.9,139,135.4C491.6,313.72,450.7,360.72,382.1,387.92Z"/></g></g></g></svg>