<svg xmlns="http://www.w3.org/2000/svg" viewBox="0 0 612.32 580.96">
    <defs>
        <style>.cls-1{fill:#334b61;}</style>
    </defs>
    <title>shopping-cart</title>
    <g id="Слой_2" data-name="Слой 2">
        <g id="Capa_1" data-name="Capa 1">
            <path class="cls-1"
                  d="M187.57,343.78H548.46l63.86-227.93h-94L484.61,11.62,343.9,57.23l19.24,58.61h-6.62L321.78,11.62,181.07,57.23l19.24,58.61H125.09L109.47,53.36C101.6,22.12,74.35,0,43,0H0V26.12H43c19.49,0,36.49,13,41.74,32.62l69.11,270.42a56.61,56.61,0,0,0-23.62,46.11c0,31.24,26.12,57.36,57.36,57.36H539.34V406.51H187.57c-17,0-31.24-14.37-31.24-31.24,0-17.12,14.37-31.49,31.24-31.49ZM467.74,44.11l23.49,70.35H389.64L375.27,74.1Zm-162.83,0,23.49,70.35H226.81L212.44,74.1Zm273.55,96.47L529,317.78H177.2l-45.61-177.2Z"/>
            <path class="cls-1"
                  d="M424.75,471.49a54.73,54.73,0,1,0,0,109.47c31.24,0,54.73-24.74,54.73-54.73A55,55,0,0,0,424.75,471.49Zm0,84.73c-17,0-30-14.37-30-30,0-17,14.37-30,30-30,17,0,30,13,30,30S440.37,556.21,424.75,556.21Z"/>
            <path class="cls-1"
                  d="M224.06,471.49a54.73,54.73,0,1,0,54.73,54.73A55,55,0,0,0,224.06,471.49Zm0,84.73c-17,0-30-14.37-30-30,0-17,14.37-30,30-30s30,13,30,30S239.68,556.21,224.06,556.21Z"/>
        </g>
    </g>
</svg>