<svg xmlns="http://www.w3.org/2000/svg" viewBox="0 0 60 60">
    <g>
        <g>
            <path class="cls-1"
                  d="M2,2H31v8a.94.94,0,0,0,1,1h8v3h2V10h0a.37.37,0,0,0-.1-.3V9.6c-.1-.1-.1-.2-.2-.3l-9-9c-.1-.1-.2-.1-.3-.2h-.1c-.1,0-.2-.1-.3-.1H1A.94.94,0,0,0,0,1V59a.94.94,0,0,0,1,1H16V58H2V2ZM38.6,9H33V3.4Z"/>
            <path class="cls-1"
                  d="M59,16H31a.94.94,0,0,0-1,1V33a.94.94,0,0,0,1,1H59a.94.94,0,0,0,1-1V17A.94.94,0,0,0,59,16ZM58,32H32V18H58Z"/>
            <path class="cls-1"
                  d="M59,36H19a.94.94,0,0,0-1,1V59a.94.94,0,0,0,1,1H59a.94.94,0,0,0,1-1V37A.94.94,0,0,0,59,36Zm-3.5,2L40,47.8,22.7,38ZM20,58V38.8L39.5,49.9a.9.9,0,0,0,.5.1,1.42,1.42,0,0,0,.6-.2L58,38.8V58Z"/>
            <rect class="cls-1" x="50" y="22" width="5" height="2"/>
            <rect class="cls-1" x="44" y="26" width="11" height="2"/>
            <path class="cls-1" d="M38,28a3,3,0,1,0-3-3A2.95,2.95,0,0,0,38,28Zm0-4a1,1,0,1,1-1,1A.94.94,0,0,1,38,24Z"/>
            <rect class="cls-1" x="6" y="6" width="6" height="2"/>
            <rect class="cls-1" x="6" y="11" width="19" height="2"/>
            <rect class="cls-1" x="6" y="18" width="12" height="2"/>
            <rect class="cls-1" x="6" y="24" width="19" height="2"/>
            <rect class="cls-1" x="6" y="30" width="19" height="2"/>
            <rect class="cls-1" x="6" y="36" width="9" height="2"/>
            <rect class="cls-1" x="6" y="42" width="9" height="2"/>
            <rect class="cls-1" x="6" y="48" width="9" height="2"/>
        </g>
    </g>
</svg>