<svg xmlns="http://www.w3.org/2000/svg" viewBox="0 0 511.96 511.99"><defs><style>.cls-1{fill:#fff;}.cls-2{fill:#4a5665;}</style></defs><title>Ресурс 11</title><g id="Слой_2" data-name="Слой 2"><g id="Слой_1-2" data-name="Слой 1"><g id="Layer_1" data-name="Layer 1"><path class="cls-1" d="M383,168l24-21.7L395,113s-4-19-12-18-30,7.4-30,7.4L332,124l4,25,12,19Z"/><path class="cls-1" d="M91.6,394H39L16,377.26,5,352l6-22.85L24,318l19-15H70l2-29,1-18,2-13,6-10L91.6,217,102,208s20-7,23-8,12.43-7.67,12.43-7.67A64.25,64.25,0,0,0,156,202l20-14s7.49-9.29,7.24-10.15S222,155,222,155s12-6,15-6,20,5,19,5h14l10,1s9,3,12,3,10,6,10,6c9,4,39,34,39,34l15,5a49.42,49.42,0,0,0,13.18,0C376,202,415,214,415,214l14,21,4,36.5V304l20,3s21,1,24,1,21,14,21,14,6,16,6,19v25l-19,20-127,8-22,34-38,28-62,8-45-20-15-26-19-16-6-12Z"/><polygon class="cls-1" points="141.98 168 157.98 157 171.98 132.04 171.98 119 153.98 104 137.41 102.4 107.98 108 99.98 129.96 109.98 155 141.98 168"/><path class="cls-1" d="M263,115c3,0,22.64-11.28,22.64-11.28S300,100,301,97s8-16,8-19V57s7-18,0-20-13-10-16-12-18-14-18-14H256l-29.64,5L198,46l5,36,17,33,28,9Z"/><path class="cls-2" d="M369.16,177.85A45.81,45.81,0,1,0,323.35,132,45.81,45.81,0,0,0,369.16,177.85Zm0-75.45A29.64,29.64,0,1,1,339.52,132v0A29.68,29.68,0,0,1,369.16,102.4Z"/><path class="cls-2" d="M460.78,296.42H441.92V265.09a72.79,72.79,0,0,0-94.08-69.58,99.75,99.75,0,0,0-86-49.22H250.07a99.77,99.77,0,0,0-86.91,50.89,8.13,8.13,0,0,0-1.49-.71,72.78,72.78,0,0,0-97,68.61v31.33H51.18a51.2,51.2,0,0,0,0,102.4h94.89A121.48,121.48,0,0,0,247.89,468.6v35.31a8.09,8.09,0,1,0,16.17,0v-35.3a121.48,121.48,0,0,0,101.82-69.79h94.9a51.2,51.2,0,0,0,0-102.4ZM166.53,246a83.63,83.63,0,0,1,83.54-83.54h11.82A83.63,83.63,0,0,1,345.43,246v19.83a121,121,0,0,0-81.36-39.2v-35.3a8.08,8.08,0,0,0-16.17,0v35.31a121,121,0,0,0-81.36,39.2V246Zm194.23,93.53H339.12a83.68,83.68,0,0,0-75-75.05V242.83a105.26,105.26,0,0,1,96.7,96.71Zm-112.87-96.7v21.65a83.68,83.68,0,0,0-75.06,75.05H151.19a105.26,105.26,0,0,1,96.71-96.69ZM51.18,382.65a35,35,0,0,1,0-70.06H64.65v27H53.88a8.09,8.09,0,0,0,0,16.17H135a120.51,120.51,0,0,0,4.89,27H51.18Zm99.18-94.55A120.41,120.41,0,0,0,135,339.54H80.82V265.1a56.62,56.62,0,0,1,75.45-53.37h.15A99.24,99.24,0,0,0,150.36,246v42.1Zm97.53,164.31a105.27,105.27,0,0,1-96.7-96.7h21.65a83.68,83.68,0,0,0,75.05,75v21.65ZM256,398.82a8.08,8.08,0,0,0-8.08,8.08v7.58a67.48,67.48,0,0,1-58.78-58.78H194a8.09,8.09,0,1,0,0-16.17h-4.89a67.48,67.48,0,0,1,58.78-58.78v7.58a8.08,8.08,0,0,0,16.17,0h0v-7.58a67.48,67.48,0,0,1,58.78,58.78H318a8.09,8.09,0,1,0,0,16.17h4.89a67.48,67.48,0,0,1-58.78,58.78V406.9a8.08,8.08,0,0,0-8.08-8.08Zm8.08,53.59V430.76a83.68,83.68,0,0,0,75.05-75h21.65A105.26,105.26,0,0,1,264.06,452.41ZM361.59,288.1V246A99.22,99.22,0,0,0,355,210.3a56.63,56.63,0,0,1,70.77,54.79v74.44H377A120.39,120.39,0,0,0,361.59,288.1Zm99.18,94.56H372.08a120.51,120.51,0,0,0,4.9-27h81.1a8.09,8.09,0,0,0,0-16.17H441.92V312.59h18.86a35,35,0,1,1,0,70.06h0Z"/><path class="cls-2" d="M256,130a65,65,0,1,0-65-65A65,65,0,0,0,256,130Zm0-113.79A48.81,48.81,0,1,1,207.17,65v0A48.86,48.86,0,0,1,256,16.17Z"/><path class="cls-2" d="M285.62,347.62A29.64,29.64,0,1,0,256,377.26,29.64,29.64,0,0,0,285.62,347.62ZM256,361.1a13.47,13.47,0,1,1,13.47-13.47A13.47,13.47,0,0,1,256,361.1Z"/><path class="cls-2" d="M137.41,177.85A45.81,45.81,0,1,0,91.6,132,45.81,45.81,0,0,0,137.41,177.85Zm0-75.45A29.64,29.64,0,1,1,107.77,132v0A29.68,29.68,0,0,1,137.41,102.4Z"/></g></g></g></svg>