<svg xmlns="http://www.w3.org/2000/svg" viewBox="0 0 446.25 512"><defs><style>.cls-1{fill:#ff141f;}</style></defs><title>1</title><g id="Слой_2" data-name="Слой 2"><g id="Layer_1" data-name="Layer 1"><path class="cls-1" d="M386.91,147.72l26.48-26.48a8,8,0,0,0,0-11.24l-39-39a8,8,0,0,0-11.24,0l-33.6,33.6A215.75,215.75,0,0,0,255.44,82V49.82h17.49a8,8,0,0,0,8-8V7.95a8,8,0,0,0-8-7.95h-84.8a8,8,0,0,0-7.95,7.95V41.87a8,8,0,0,0,7.95,8h17.49V82C98.36,94.4,14.81,185.76,14.81,296.28,14.81,415.23,111.58,512,230.53,512s215.72-96.77,215.72-215.72A213.91,213.91,0,0,0,386.91,147.72ZM368.79,87.89l27.73,27.73-21,21a216.43,216.43,0,0,0-31.64-23.83Zm-172.71-54v-18H265v18h-68.9Zm43.46,15.9v26.5h-18V49.82Zm-9,446.28c-110.18,0-199.82-89.64-199.82-199.82S120.35,96.46,230.53,96.46a199.34,199.34,0,0,1,139.62,56.89h0a198.29,198.29,0,0,1,60.19,142.92C430.35,406.46,340.71,496.1,230.53,496.1Z"/><path class="cls-1" d="M230.53,241.69A54.19,54.19,0,0,0,198,252.46l-30.9-30.9a97.3,97.3,0,0,1,63.47-23.34,8,8,0,0,0,8-7.95V143.64a8,8,0,0,0-8-7.95,162.09,162.09,0,0,0-28.41,2.51h0c-2.63.47-5.26,1-7.84,1.6h0A159.76,159.76,0,0,0,168,148.31h0c-2.4,1-4.8,2.1-7.12,3.22h0c-2.32,1.12-4.64,2.3-6.9,3.53h0c-2.26,1.23-4.53,2.53-6.73,3.87h0q-1.65,1-3.28,2h0c-4.3,2.76-8.53,5.77-12.57,8.94h0c-3,2.37-6,4.88-8.83,7.47s-5.61,5.29-8.25,8.06h0c-1.77,1.85-3.51,3.77-5.18,5.7s-3.33,3.94-4.9,5.94h0c-1.59,2-3.14,4.1-4.62,6.18h0c-3,4.19-5.79,8.57-8.35,13h0c-2.58,4.49-5,9.15-7.09,13.85h0c-1.61,3.55-3.1,7.21-4.44,10.87h0q-.67,1.84-1.3,3.7h0c-1.26,3.73-2.4,7.56-3.38,11.38h0q-.5,1.92-.94,3.86c-1.2,5.19-2.15,10.52-2.82,15.82h0c-.51,4-.88,8.12-1.08,12.18-.14,2.73-.21,5.51-.21,8.26a8,8,0,0,0,7.95,8h46.64a8,8,0,0,0,7.95-8,97.31,97.31,0,0,1,23.34-63.47l30.9,30.9a54.6,54.6,0,1,0,43.82-22Zm-74.76-31.41-12.9-12.9a8,8,0,0,0-11.24,11.24l12.9,12.9a113,113,0,0,0-27.67,66.81H86.06c.19-3.5.5-7,.94-10.49h0c.61-4.78,1.46-9.57,2.54-14.25q.4-1.75.85-3.48h0c.88-3.43,1.91-6.88,3-10.24h0q.57-1.68,1.18-3.33h0c1.21-3.3,2.56-6.6,4-9.79h0c1.91-4.24,4.06-8.43,6.39-12.47h0c2.31-4,4.84-8,7.52-11.74h0c1.34-1.88,2.74-3.75,4.17-5.57h0c1.42-1.81,2.91-3.61,4.42-5.36.6-.69,1.21-1.37,1.82-2.05l.49-.55q1.17-1.29,2.36-2.54h0c2.38-2.5,4.89-4.94,7.45-7.27s5.24-4.59,8-6.73h0c3.64-2.86,7.45-5.57,11.33-8.06h0q1.47-.94,3-1.85h0c2-1.2,4-2.38,6.06-3.48h0c2-1.11,4.13-2.18,6.23-3.19h0c2.09-1,4.24-2,6.41-2.9h0a143.92,143.92,0,0,1,23.63-7.66h0c2.32-.54,4.7-1,7.06-1.45h0a145.57,145.57,0,0,1,17.66-2v30.79A112.93,112.93,0,0,0,155.77,210.28ZM230.53,335a38.69,38.69,0,0,1-27.36-66.05h0A38.69,38.69,0,1,1,230.53,335Z"/><path class="cls-1" d="M153.21,58.1A8,8,0,0,0,143,53.3a255.91,255.91,0,0,0-95,60.46A258.72,258.72,0,0,0,.89,178.15,8,8,0,1,0,15,185.44,242.8,242.8,0,0,1,59.26,125a240.13,240.13,0,0,1,89.16-56.74A8,8,0,0,0,153.21,58.1Z"/><path class="cls-1" d="M101.83,39.71A8,8,0,0,0,91,36.54,300.38,300.38,0,0,0,3.27,108.88,8,8,0,1,0,15.51,119,284.46,284.46,0,0,1,98.65,50.5,8,8,0,0,0,101.83,39.71Z"/></g></g></svg>