<svg xmlns="http://www.w3.org/2000/svg" viewBox="0 0 512 452.14"><defs><style>.cls-1{fill:#ff141f;}</style></defs><title>loading</title><g id="Слой_2" data-name="Слой 2"><g id="Layer_1" data-name="Layer 1"><path class="cls-1" d="M504,367.7H494.9V8a8,8,0,0,0-8-8H25.12a8,8,0,0,0-8,8V367.7H8a8,8,0,0,0-8,8v36.34a40.13,40.13,0,0,0,40.08,40.08H471.92A40.13,40.13,0,0,0,512,412.06V375.72A8,8,0,0,0,504,367.7ZM33.14,16H478.86V34.2H33.14Zm0,34.2H478.86V367.7H33.14Zm257.6,333.49V401.9H221.26V383.73ZM496,412.06a24.08,24.08,0,0,1-24,24H40.08a24.08,24.08,0,0,1-24-24V383.73H205.23v26.19a8,8,0,0,0,8,8h85.51a8,8,0,0,0,8-8V383.73H496v28.33Z"/><path class="cls-1" d="M444.13,410.46H350.06a8,8,0,0,0,0,16h94.06a8,8,0,1,0,0-16Z"/><path class="cls-1" d="M161.94,410.46H67.88a8,8,0,0,0,0,16h94.06a8,8,0,1,0,0-16Z"/><path class="cls-1" d="M382,238.7l-33-8.85a8,8,0,0,0-9.82,5.67,86,86,0,0,1-22.29,38.56,8,8,0,0,0,0,11.34L341,309.61a8,8,0,0,0,11.34,0,136.34,136.34,0,0,0,35.3-61.09A8,8,0,0,0,382,238.7Zm-35.48,53.71-12.88-12.88a102.16,102.16,0,0,0,18.61-32.2L369.85,252A120.4,120.4,0,0,1,346.51,292.42Z"/><path class="cls-1" d="M195.16,141.06,171,116.88a8,8,0,0,0-11.34,0A136.34,136.34,0,0,0,124.34,178a8,8,0,0,0,5.67,9.81l33,8.85a8,8,0,0,0,9.82-5.67,86,86,0,0,1,22.29-38.56A8,8,0,0,0,195.16,141.06Zm-35.4,38.1-17.6-4.72a120.34,120.34,0,0,1,23.33-40.37L178.37,147A102.17,102.17,0,0,0,159.76,179.16Z"/><path class="cls-1" d="M374,145.09a8,8,0,0,0-10.95-2.93l-29.63,17.11a8,8,0,0,0-2.93,11,86.07,86.07,0,0,1,11.51,43,8,8,0,0,0,8,8h34.2a8,8,0,0,0,8-8A136.34,136.34,0,0,0,374,145.09Zm-16.28,60.14h0a102.18,102.18,0,0,0-9.61-35.93l15.79-9.11a120.36,120.36,0,0,1,12,45H357.76Z"/><path class="cls-1" d="M352.37,116.88a136.34,136.34,0,0,0-61.09-35.3,8,8,0,0,0-9.81,5.67l-8.85,33a8,8,0,0,0,5.67,9.82,86,86,0,0,1,38.56,22.29,8,8,0,0,0,11.34,0l24.19-24.19A8,8,0,0,0,352.37,116.88Zm-30.08,18.74A102.14,102.14,0,0,0,290.09,117l4.72-17.6a120.35,120.35,0,0,1,40.37,23.33Z"/><path class="cls-1" d="M256,77A136.33,136.33,0,0,0,187.84,95.2a8,8,0,0,0-2.93,10.95L202,135.78a8,8,0,0,0,11,2.93,86.07,86.07,0,0,1,43-11.51,8,8,0,0,0,8-8V85A8,8,0,0,0,256,77Zm-8,34.52a102.21,102.21,0,0,0-35.93,9.61l-9.11-15.79a120.36,120.36,0,0,1,45-12Z"/><path class="cls-1" d="M290.2,230.88A25.12,25.12,0,1,0,315.32,256,25.15,25.15,0,0,0,290.2,230.88Zm0,34.21a9.09,9.09,0,1,1,9.09-9.09A9.1,9.1,0,0,1,290.2,265.09Z"/><path class="cls-1" d="M217.52,158.2a25.12,25.12,0,1,0,25.12,25.12A25.15,25.15,0,0,0,217.52,158.2Zm0,34.21a9.09,9.09,0,1,1,9.09-9.09A9.1,9.1,0,0,1,217.52,192.4Z"/><path class="cls-1" d="M304.42,164.82a8,8,0,0,0-11.34,0l-85.51,85.51a8,8,0,0,0,11.34,11.34l85.51-85.51A8,8,0,0,0,304.42,164.82Z"/><path class="cls-1" d="M327.09,320.34,310,290.71a8,8,0,0,0-11-2.93,86.07,86.07,0,0,1-43,11.51,8,8,0,0,0-8,8v34.2a8,8,0,0,0,8,8,136.33,136.33,0,0,0,68.16-18.24A8,8,0,0,0,327.09,320.34ZM264,333.23V315a102.18,102.18,0,0,0,35.93-9.61l9.11,15.79A120.38,120.38,0,0,1,264,333.23Z"/><path class="cls-1" d="M238.59,300.11a8,8,0,0,0-4.87-3.73,86.07,86.07,0,0,1-38.56-22.29,8,8,0,0,0-11.34,0l-24.19,24.19a8,8,0,0,0,0,11.34,136.33,136.33,0,0,0,61.09,35.3,8,8,0,0,0,9.81-5.67l8.85-33A8,8,0,0,0,238.59,300.11Zm-21.4,27a120.34,120.34,0,0,1-40.37-23.33l12.88-12.88a102.2,102.2,0,0,0,32.2,18.61Z"/><path class="cls-1" d="M181.46,256.27a86.07,86.07,0,0,1-11.51-43,8,8,0,0,0-8-8H127.73a8,8,0,0,0-8,8A136.33,136.33,0,0,0,138,281.4a8,8,0,0,0,10.95,2.93l29.63-17.11a8,8,0,0,0,2.93-11Zm-33.4,10a120.36,120.36,0,0,1-12-45h18.22a102.18,102.18,0,0,0,9.61,35.93Z"/></g></g></svg>