<?xml version="1.0" encoding="utf-8"?>
<!-- Generator: Adobe Illustrator 21.0.2, SVG Export Plug-In . SVG Version: 6.00 Build 0)  -->
<svg version="1.1" id="Слой_1" xmlns="http://www.w3.org/2000/svg" xmlns:xlink="http://www.w3.org/1999/xlink" x="0px" y="0px"
	 viewBox="0 0 101.1 139.3" style="enable-background:new 0 0 101.1 139.3;" xml:space="preserve">
<style type="text/css">
	.st0{fill:#FFFFFF;}
	.st1{fill:#FF141F;}
	.st2{opacity:0.83;}
	.st3{fill:#FF7077;}
</style>
<path class="st0" d="M78.1,29.6c6.1-6.4,12.3-12.7,18.2-19.2c1.3-1.4,1.6-3.7,2.4-5.6c-1.9-0.7-3.7-1.9-5.6-1.9
	c-8.4-0.2-16.7-0.4-25,0.1c-3,0.2-6.7,1.5-8.7,3.6C42.4,24.2,25.6,42,8.8,59.8c-7,7.5-7,12.9,0.1,20.4c16.6,17.6,33.3,35,49.8,52.6
	c2.8,3,5.8,4.4,10,4.3c8.3-0.3,16.7-0.1,25-0.2c1.6,0,3.3-0.9,4.9-1.4c-0.6-2-0.7-4.4-1.9-5.8c-7.8-8.4-15.8-16.7-23.7-25
	C62.1,93.2,51.2,81.8,39.9,69.9C53,56.2,65.6,42.9,78.1,29.6z"/>
<path class="st1" d="M73.1,104.7c7.9,8.3,16,16.5,23.7,25c1.2,1.4,1.3,3.9,1.9,5.8c-1.6,0.5-3.3,1.4-4.9,1.4
	c-8.3,0.2-16.7-0.1-25,0.2c-4.2,0.2-7.2-1.3-10-4.3C42.3,115.2,25.6,97.8,9,80.2c-7.1-7.5-7.2-12.9-0.1-20.4
	C25.7,42,42.4,24.2,59.5,6.6c2-2.1,5.7-3.4,8.7-3.6c8.3-0.5,16.7-0.3,25-0.1c1.9,0.1,3.7,1.3,5.6,1.9C98,6.7,97.7,9,96.4,10.4
	c-5.9,6.5-12.1,12.8-18.2,19.2C65.6,42.9,53,56.2,39.9,69.9C51.3,81.8,62.2,93.3,73.1,104.7z"/>
<g class="st2">
	<path class="st3" d="M23.6,78.3l-2.3-1.3l4-2.3c0.5,0.9,1.7,1.2,2.6,0.7c0.9-0.5,1.2-1.7,0.7-2.6s-1.7-1.2-2.6-0.7
		c-0.3,0.2-0.5,0.4-0.7,0.7l-4-2.3l2.3-1.3l5.9,1.6l2.1-7.9l-7.9-2.1l-1.6,5.9L19.8,68v-4.6c0.7,0,1.3-0.4,1.6-0.9
		c0.5-0.9,0.2-2-0.7-2.6s-2-0.2-2.6,0.7c-0.3,0.6-0.3,1.3,0,1.9l-4,2.3V62l4.4-4.3l-4-4c-1.9,2-3.7,4-5.6,5.9l2.4,2.4v2.7l-4-2.3
		c0.2-0.4,0.3-0.8,0.2-1.3c-0.7,0.8-1.3,1.6-1.9,2.4V68l-1.7-1c-0.3,1-0.4,2-0.5,3l0.7,0.4l-0.7,0.4c0.1,1,0.3,1.9,0.7,2.9L7.2,72
		l2.8,1.6l-2.8,1.6l-2.8-1.6c0.9,2.1,2.2,4,3.8,5.6l0.4,0.5v-2l2.8-1.6v3.3l-2.1,1.2l2,2.1h0.1v0.1l6.8,7.3l0.4-0.4l-4.4-4.4v-2.7
		l4,2.3c-0.5,0.9-0.2,2,0.7,2.6s2,0.2,2.6-0.7s0.2-2-0.7-2.6c-0.3-0.2-0.6-0.3-0.9-0.3v-4.6l2.3,1.3l1.6,5.9l7.9-2.1l-2.1-7.9
		L23.6,78.3z M25.7,64.1l2.4,0.6l-0.7,2.4l-2.4-0.7L25.7,64.1z M11.4,71.2l-2.8-1.6v-3.3l2.8,1.6V71.2z M17,66.3v3.3l-2.8,1.6V68
		L17,66.3z M12.8,59.5L11,57.7l1.8-1.8l1.8,1.8L12.8,59.5z M17,81l-2.8-1.6v-3.3l2.8,1.6V81z M18.4,75.3l-2.8-1.6l2.8-1.6l2.8,1.6
		L18.4,75.3z M25.7,83.2l-0.6-2.4l2.4-0.6l0.7,2.4L25.7,83.2z"/>
</g>
<g class="st2">
	<path class="st3" d="M82.6,22.6l-2,2L80,22.4l-2.1,0.5l0.9,3.5l-1,1l-0.3-0.7l-1.9,1l0.7,1.3l-2.3,2.3c-0.3-0.2-0.6-0.3-0.8-0.4
		v-3.3l1.4-0.5l-0.7-2L73,25.4v-1.5l3.1-1.8L75,20.2l-2,1.2v-2.8h-2.1v2.8l-2-1.2l-1.1,1.8l3.1,1.8v1.5l-0.7-0.3l-0.7,2l1.4,0.5v3.3
		c-0.3,0.1-0.6,0.2-0.8,0.3l-2.3-2.3l0.7-1.3l-1.9-1l-0.3,0.7l-1.1-1l0.9-3.5l-2.1-0.5l-0.5,2.3l-2-2l-1.5,1.6l2,2l-2.2,0.6l0.5,2.1
		l3.5-0.9l1,1.1l-0.7,0.3l1,1.9l1.3-0.7l2.3,2.4c-0.2,0.3-0.3,0.5-0.4,0.8h-3.3l-0.5-1.4l-2,0.7l0.2,0.7h-1.5l-1.8-3.1l-1.9,1.1
		l1.2,2h-2.8v2.1h2.8l-1.2,2l1.9,1.1l1.8-3.1h1.5l-0.2,0.7l2,0.7l0.5-1.4h3.3c0.1,0.3,0.2,0.6,0.4,0.8L66.1,39l-1.3-0.7l-1,1.9
		l0.7,0.3l-1,1L60,40.8l-0.5,2.1l2.2,0.6l-2,2l1.5,1.5l2-2l0.1,0.3l1.7-1.8L65,43.2l1.1-1l0.1,0.2l1.6-1.7l-0.1-0.1l2.3-2.3l0,0
		l1.6-1.7c-1-0.1-1.7-1-1.5-2c0.1-1,1-1.7,2-1.5c0.8,0.1,1.4,0.7,1.5,1.4l10.1-10.6L82.6,22.6z"/>
</g>
<g class="st2">
	<path class="st3" d="M71.9,120.5h-1.4l0.6-1l-0.9-0.6l-1,1.6h-0.7l0.1-0.4l-1-0.3l-0.2,0.7h-1.7c0-0.2-0.1-0.3-0.2-0.4l1.2-1.2
		l0.7,0.3l0.5-1l-0.3-0.2l0.5-0.5l1.7,0.4l0.3-1l-1.1-0.3l1-1l-0.8-0.8l-1,1l-0.3-1.1l-1,0.3l0.4,1.7l-0.5,0.5l-0.2-0.4l-1,0.5
		l0.3,0.7l-1.2,1.2c-0.1-0.1-0.3-0.1-0.4-0.2v-1.7l0.7-0.2l-0.3-1l-0.4,0.1v-0.7l1.5-0.9l-0.6-0.9l-1,0.6v-1.4h-1.1v1.4l-1-0.6
		l-0.6,0.9l1.5,0.9v0.7l-0.4-0.1l-0.3,1l0.7,0.2v1.7c-0.1,0-0.3,0.1-0.4,0.2l-1.1-1.2l0.3-0.7l-1-0.5l-0.2,0.4l-0.5-0.5l0.4-1.7
		l-1-0.3l-0.3,1.1l-1-1l-0.8,0.8l1,1l-1.1,0.3l0.3,1l1.7-0.4l0.5,0.5l-0.3,0.2l0.5,1l0.7-0.3l1.2,1.2c-0.1,0.1-0.1,0.3-0.2,0.4h-1.7
		l-0.2-0.7l-1,0.3l0.1,0.4h-0.7l-0.9-1.5l-0.9,0.6l0.6,1h-1.4v1.1h1.4l-0.6,1l0.9,0.6l0.9-1.5h0.7L59,122l1,0.3l0.2-0.7h1.7
		c0,0.1,0.1,0.3,0.2,0.4l-1.1,1.1l-0.7-0.3l-0.5,1l0.3,0.2l-0.5,0.5l-1.7-0.4l-0.3,1l1.1,0.3l-1,1l0.8,0.8l1-1l0.3,1.1l1-0.3
		l-0.4-1.7l0.5-0.5l0.2,0.3l1-0.5l-0.3-0.7l1.2-1.2c0.1,0.1,0.3,0.1,0.4,0.2v1.7l-0.7,0.2l0.3,1l0.4-0.1v0.7l-1.5,0.9l0.6,0.9l1-0.6
		v1.4h1.1v-1.4l1,0.6l0.6-0.9l-1.5-0.9v-0.7l0.4,0.1l0.3-1l-0.7-0.2v-1.7c0.1,0,0.3-0.1,0.4-0.2l1.2,1.2l-0.3,0.7l1,0.5l0.2-0.3
		l0.5,0.5l-0.4,1.7l1,0.3l0.3-1.1l1,1l0.8-0.8l-1-1l1.1-0.3l-0.3-1l-1.7,0.4l-0.5-0.5l0.3-0.2l-0.5-1l-0.7,0.3l-1.2-1.2
		c0.1-0.1,0.1-0.3,0.2-0.4h1.7l0.2,0.7l1-0.3l-0.1-0.4h0.7l0.9,1.5l0.9-0.6l-0.6-1h1.4L71.9,120.5z M63.9,121.9
		c-0.5,0-0.9-0.4-0.9-0.9c0-0.5,0.4-0.9,0.9-0.9c0.5,0,0.9,0.4,0.9,0.9l0,0C64.8,121.5,64.4,121.9,63.9,121.9
		C63.9,121.9,63.9,121.9,63.9,121.9z"/>
</g>
</svg>
