<?xml version="1.0" encoding="utf-8"?>
<!-- Generator: Adobe Illustrator 21.0.2, SVG Export Plug-In . SVG Version: 6.00 Build 0)  -->
<svg version="1.1" id="Слой_1" xmlns="http://www.w3.org/2000/svg" xmlns:xlink="http://www.w3.org/1999/xlink" x="0px" y="0px"
	 viewBox="0 0 101.1 139.3" style="enable-background:new 0 0 101.1 139.3;" xml:space="preserve">
<style type="text/css">
	.st0{fill:#FFFFFF;}
	.st1{fill:#FF141F;}
	.st2{opacity:0.83;}
	.st3{fill:#FF7077;}
	.st4{opacity:0.83;fill:#FF7077;enable-background:new    ;}
</style>
<path class="st0" d="M62.5,69.9c-11.3,11.9-22.2,23.3-33.1,34.8c-7.9,8.3-15.9,16.6-23.7,25c-1.2,1.4-1.3,3.8-1.9,5.8
	c1.6,0.5,3.3,1.4,4.9,1.4c8.3,0.1,16.7-0.1,25,0.2c4.2,0.1,7.2-1.3,10-4.3c16.5-17.6,33.2-35,49.8-52.6c7.1-7.5,7.1-12.9,0.1-20.4
	C76.8,42,60,24.2,43,6.6c-2-2.1-5.7-3.4-8.7-3.6C26,2.5,17.7,2.7,9.3,2.9c-1.9,0-3.7,1.2-5.6,1.9C4.5,6.7,4.8,9,6.1,10.4
	c5.9,6.5,12.1,12.8,18.2,19.2C36.8,42.9,49.4,56.2,62.5,69.9z"/>
<path class="st1" d="M62.5,69.9c-13.1-13.7-25.7-27-38.3-40.3C18.1,23.2,11.9,16.9,6,10.4C4.7,9,4.4,6.7,3.6,4.8
	C5.5,4.2,7.3,3,9.2,2.9c8.3-0.2,16.7-0.4,25,0.1c3,0.2,6.7,1.5,8.7,3.6C60,24.2,76.7,42,93.5,59.8c7.1,7.5,7,12.9-0.1,20.4
	c-16.6,17.6-33.3,35-49.8,52.6c-2.8,3-5.8,4.5-10,4.3c-8.3-0.3-16.7,0-25-0.2c-1.6,0-3.3-0.9-4.9-1.4c0.6-1.9,0.7-4.4,1.9-5.8
	c7.7-8.5,15.8-16.7,23.7-25C40.2,93.3,51.1,81.8,62.5,69.9z"/>
<g class="st2">
	<path class="st3" d="M45.1,127.4l-0.8-2.4l-3.5,1.1l0.4,1.2h-2.5l-3.1-5.2l-3.1,1.9l2,3.3h-4.7v3.6h4.7l-2,3.3l3.1,1.9l3.1-5.2h2.5
		l-0.4,1.3l2.5,0.9l0.9,0.3l0.7-1.9l0.2-0.4h0.3c1.1-1.2,2.3-2.4,3.4-3.6L45.1,127.4z M49.9,119.4l1.1-2.3l-3.3-1.6l-0.6,1.2
		l-1.8-1.8l1.5-5.9l-3.5-0.9l-0.9,3.7l-3.3-3.3l-2.6,2.6l3.3,3.3l-3.7,0.9l0.9,3.5l5.8-1.5l1.8,1.8l-1.2,0.6l1.6,3.3l2.3-1.1
		l3.4,3.4l2.5-2.6L49.9,119.4z M58.9,113.3v-2.5l5.2-3.1l-1.8-3.1l-3.3,2V102h-3.6v4.7l-3.3-2l-1.9,3.1l5.2,3.1v2.5L54,113l-1.2,3.4
		l2.4,0.8v3.3c1.8-1.9,3.6-3.8,5.5-5.8l-0.6-1.8L58.9,113.3z"/>
</g>
<g class="st2">
	<path class="st3" d="M61,25.3l-1.9-2h-0.3l0.1-0.2c-0.5-0.5-0.9-1-1.4-1.5l-1,1.7h-1.3l0.2-0.7l-1.9-0.6l-0.4,1.3h-3
		c-0.1-0.3-0.2-0.5-0.3-0.8l2.1-2.1l1.2,0.6l0.9-1.7L53.3,19l0.8-0.8l-1.4-1.4L52,17.7L51.6,17l-1.7,0.9l0.6,1.2l-2.1,2.1
		c-0.2-0.1-0.5-0.2-0.8-0.3v-3l1.3-0.4l-0.6-1.9l-0.7,0.2v-1.4l1.9-1.1c-0.5-0.5-0.9-1-1.4-1.4l-0.5,0.3v-0.8
		c-0.5-0.6-1.1-1.1-1.6-1.7h-0.3v2.5l-1.8-1.1l-1,1.7l2.8,1.7v1.3L45,15.6l-0.6,1.9l1.3,0.4v3c-0.3,0.1-0.5,0.2-0.8,0.3l-2.1-2.1
		l0.6-1.2L41.6,17l-0.3,0.6l-1-0.9l0.8-3.2l-1.9-0.5l-0.5,2L37,13.3l-1.4,1.4l1.8,1.8l-2,0.5l0.5,1.9l3.2-0.8l1,0.9l-0.6,0.3
		l0.9,1.7l1.2-0.6l2,2.2c-0.1,0.2-0.2,0.5-0.3,0.8h-3l-0.4-1.3l-1.8,0.6l0.2,0.7h-1.3l-1.7-2.8l-1.7,1l1.1,1.8H32v2h2.5l-1.1,1.8
		l1.7,1l1.7-2.8h1.3l-0.2,0.7l1.8,0.6l0.4-1.3h3c0.1,0.3,0.2,0.5,0.3,0.8l-2.1,2.1l-1.2-0.6l-0.9,1.7l0.6,0.3l-1,1L35.8,30l-0.5,1.9
		l2,0.5l-1.8,1.8l1.4,1.4l1.8-1.9l0.5,2l1.9-0.5L40.4,32l1-0.9l0.3,0.6l1.7-0.9l-0.6-1.2l2.1-2.1c0.2,0.1,0.5,0.2,0.8,0.3v3
		l-1.3,0.4l0.6,1.8l0.7-0.2v1.3l-2.8,1.7l1,1.7l1.8-1.1V39h2v-2.5l1.8,1.1l1-1.7l-2.8-1.7v-1.3l0.7,0.2l0.6-1.8l-1.3-0.4v-3
		c0.3-0.1,0.5-0.2,0.8-0.3l2.1,2.1l-0.6,1.2l1.7,0.9l0.3-0.6l1,0.9l-0.8,3.1l1.9,0.5l0.5-2l1.8,1.8l1.4-1.4L56,32.3l2-0.5l-0.5-1.9
		l-3.2,0.8l-1-1l0.6-0.3l-0.9-1.7l-1.2,0.6l-2.1-2.1c0.1-0.2,0.3-0.5,0.3-0.8h3l0.4,1.3l1.8-0.6l-0.2-0.7h1.4l1.7,2.8l1.7-1
		l-1.1-1.8L61,25.3z M46.6,26c-0.9,0-1.6-0.7-1.6-1.6s0.7-1.6,1.6-1.6c0.9,0,1.6,0.7,1.6,1.6S47.5,26,46.6,26L46.6,26z"/>
</g>
<circle class="st4" cx="24.5" cy="19.9" r="2.1"/>
<circle class="st4" cx="81.1" cy="60" r="2.1"/>
</svg>
