<svg xmlns="http://www.w3.org/2000/svg" viewBox="0 0 467.28 178.07"><defs><style>.cls-1{fill:#344c62;}.cls-2,.cls-4{fill:#7eb9ef;}.cls-2,.cls-3{opacity:0.13;}.cls-2{isolation:isolate;}</style></defs><title>web</title><g id="Слой_2" data-name="Слой 2"><g id="Слой_1-2" data-name="Слой 1"><path class="cls-1" d="M190.52,49.78c-4.9,17.8-10.1,35.5-15.1,53.3q-2.67,9.39-5.35,18.78L169,125.65l-1.61,5.63c-.75,2.65-1.51,5.29-2.26,7.94-.16.55-.32,1.11-.47,1.66-.35,1.22-.7,2.43-1,3.65-.43,1.5-.86,3-1.28,4.5-.39,1.34-.77,2.69-1.15,4q-1.44,5-2.86,10c-2.5,8.8-6.7,11.9-15.9,11.9H129.51a4.71,4.71,0,0,1-1.16-.09,18.25,18.25,0,0,1-2.92-.54,13,13,0,0,1-2.76-1.11,10.25,10.25,0,0,1-1.3-.83,11.14,11.14,0,0,1-2.18-2.11,13.1,13.1,0,0,1-1.46-2.26c-.18-.33-.35-.68-.51-1a6.65,6.65,0,0,1-.28-.66c-.09-.22-.2-.52-.3-.8-.21-.57-.4-1.18-.58-1.82-6.2-21.9-12.3-43.9-18.4-65.8-.6-1.6-1.1-3.1-2-5.9-.9,2.4-1.4,3.5-1.7,4.7-6.2,22.1-12.5,44.2-18.7,66.3-.15.52-.3,1-.46,1.51s-.43,1.2-.66,1.75a14.62,14.62,0,0,1-3.44,5.21,11.22,11.22,0,0,1-3.34,2.16,13.65,13.65,0,0,1-1.77.61,22,22,0,0,1-5.36.66H48.82c-9.4,0-13.6-3.1-16.2-12.2Q20,118.55,7.35,74.29l-.72-2.5c-.11-.37-.21-.74-.32-1.11l-.84-2.94-.15-.53c-.12-.45-.25-.9-.38-1.35-.28-1-.57-2-.86-3q-.73-2.48-1.44-4.93c-.29-1-.57-2-.83-2.93C1.39,53.5,1,52,.66,50.47a3.06,3.06,0,0,0-.14-.58c-.67-3-.7-5,.08-6.33a4.33,4.33,0,0,1,3.18-2,15.17,15.17,0,0,1,2.67-.3H23.92q.79,0,1.53.06h.41c7.21.61,11.44,4.27,13.56,11.91,5.3,19.6,10.4,39.2,15.6,58.9a7.88,7.88,0,0,0,2.3,4c2.7-10.3,5.4-20.5,8.1-30.8.74-2.81,1.48-5.63,2.2-8.45s1.44-5.52,2.15-8.28c.11-.4.21-.81.32-1.21q1-4.05,2.1-8.09a1.91,1.91,0,0,1,.13-.51q.69-2.69,1.4-5.36c.08-.31.16-.61.25-.9h0c.19-.67.39-1.31.59-1.91A21.48,21.48,0,0,1,76,47.18c2.46-4.67,6.14-6,13.53-6H103c8.3,0,11.9,2.8,14.1,11.2q3.95,15,7.83,30c.41,1.61.83,3.21,1.25,4.82l.34,1.33c.18.68.35,1.37.53,2.05l.86,3.32c.26,1,.53,2,.79,3.06l.21.82,1.38,5.33c.34,1.3.67,2.61,1,3.91.8,3,1.6,6,2.8,10.2a24.44,24.44,0,0,0,1.6-4.1q7.95-29.7,15.7-59.3c2.4-8.9,6.9-12.5,16.1-12.5H184C190.32,41.28,192.22,43.58,190.52,49.78Z"/><path class="cls-1" d="M379.38,143.08l-2.75,1.83v2.66a5,5,0,0,1,2.14,1.24l2.31-1.34.09-1.46A4.43,4.43,0,0,1,379.38,143.08Zm-.09-5.22-2.66,1.55v2.15l1.76-1.17.85,1.27a6.94,6.94,0,0,1,0-.92C379.25,139.81,379.27,138.83,379.29,137.86Zm.09,5.22-2.75,1.83v2.66a5,5,0,0,1,2.14,1.24l2.31-1.34.09-1.46A4.43,4.43,0,0,1,379.38,143.08Zm-.09-5.22-2.66,1.55v2.15l1.76-1.17.85,1.27a6.94,6.94,0,0,1,0-.92C379.25,139.81,379.27,138.83,379.29,137.86Zm.09,5.22-2.75,1.83v2.66a5,5,0,0,1,2.14,1.24l2.31-1.34.09-1.46A4.43,4.43,0,0,1,379.38,143.08Zm-.09-5.22-2.66,1.55v2.15l1.76-1.17.85,1.27a6.94,6.94,0,0,1,0-.92C379.25,139.81,379.27,138.83,379.29,137.86Zm.09,5.22-2.75,1.83v2.66a5,5,0,0,1,2.14,1.24l2.31-1.34.09-1.46A4.43,4.43,0,0,1,379.38,143.08Zm-.09-5.22-2.66,1.55v2.15l1.76-1.17.85,1.27a6.94,6.94,0,0,1,0-.92C379.25,139.81,379.27,138.83,379.29,137.86Zm.09,5.22-2.75,1.83v2.66a5,5,0,0,1,2.14,1.24l2.31-1.34.09-1.46A4.43,4.43,0,0,1,379.38,143.08Zm-.14-1.38a6.94,6.94,0,0,1,0-.92c0-1,0-2,.07-2.92l-2.68,1.55v2.15l1.76-1.17Zm85.58-57.29c-2.49-12.19-7.34-22.89-15.63-31-.81-.8-1.66-1.57-2.54-2.31a45.36,45.36,0,0,0-3.6-2.79c-.94-.66-1.91-1.3-2.92-1.9-.24-.16-.49-.3-.74-.44-1.08-.64-2.21-1.24-3.37-1.81-.81-.4-1.62-.78-2.44-1.13l-.39-.17c-1-.43-2.06-.83-3.1-1.19-1.41-.5-2.83-.93-4.26-1.3s-2.66-.64-4-.87c-.72-.14-1.44-.25-2.16-.35l-.83-.11c-9.44-1.17-19.06,0-28.72,2.52-3.3.9-6.6,1.9-10.8,3.1v-6.1c0-10.2.1-20.3,0-30.5,0-4.67-.82-6.76-3.62-7.57a13.16,13.16,0,0,0-2.82-.4H353.42c-9.3,0-10.4,1-10.4,10.3v114q0,17.49-.06,35c0,4,1.3,6.1,4.8,7.6,23.2,10.2,47.3,13.7,72.2,9q1-.18,1.89-.39c1.33-.28,2.63-.6,3.9-.95a60.64,60.64,0,0,0,9.46-3.39,49.46,49.46,0,0,0,6.51-3.53c.8-.49,1.58-1,2.34-1.57h0a46.17,46.17,0,0,0,6.66-5.8,42.08,42.08,0,0,0,2.85-3.28c.43-.52.84-1.06,1.22-1.6a1.9,1.9,0,0,0,.22-.3,50.1,50.1,0,0,0,4.14-6.82,66.91,66.91,0,0,0,5.9-17.66A115.91,115.91,0,0,0,464.82,84.41Zm-71.23,63.44c-2.08-.2-4.15-.41-6.22-.59h-.32c-.88-.08-1.75-.16-2.63-.22a6.72,6.72,0,0,1-3.25-1,4.43,4.43,0,0,1-1.79-2.93,9.47,9.47,0,0,1-.14-1.38,6.94,6.94,0,0,1,0-.92c0-1,0-2,.07-2.92s0-2.17,0-3.25c.11-8.61,0-17.19,0-25.83,0-10.3.2-20.7-.1-30.9,0-3.8,1.3-5.6,5-6.6,8.6-2.4,17-4.6,26-2.6,7.4,1.7,12.9,5.8,15.4,12.9a80.32,80.32,0,0,1,.2,52.8,21.83,21.83,0,0,1-1.35,3.14,18.26,18.26,0,0,1-2.24,3.43,18.92,18.92,0,0,1-8,5.7,24.5,24.5,0,0,1-4,1.15,31.07,31.07,0,0,1-5.47.58,105.55,105.55,0,0,1-11.26-.59Zm-14.3-10-2.66,1.56v2.15l1.76-1.17.85,1.27a6.94,6.94,0,0,1,0-.92c0-.93,0-1.91,0-2.88Zm.09,5.22-2.75,1.83v2.66a5,5,0,0,1,2.14,1.24l2.31-1.34.09-1.46a4.43,4.43,0,0,1-1.79-2.92Zm-.09-5.22-2.66,1.56v2.15l1.76-1.17.85,1.27a6.94,6.94,0,0,1,0-.92c0-.93,0-1.91,0-2.88Zm.09,5.22-2.75,1.83v2.66a5,5,0,0,1,2.14,1.24l2.31-1.34.09-1.46a4.43,4.43,0,0,1-1.79-2.92Zm-.09-5.22-2.66,1.56v2.15l1.76-1.17.85,1.27a6.94,6.94,0,0,1,0-.92c0-.93,0-1.91,0-2.88Zm.09,5.22-2.75,1.83v2.66a5,5,0,0,1,2.14,1.24l2.31-1.34.09-1.46a4.43,4.43,0,0,1-1.79-2.92Zm-.09-5.22-2.66,1.56v2.15l1.76-1.17.85,1.27a6.94,6.94,0,0,1,0-.92c0-.93,0-1.91,0-2.88Zm.09,5.22-2.75,1.83v2.66a5,5,0,0,1,2.14,1.24l2.31-1.34.09-1.46a4.43,4.43,0,0,1-1.79-2.92Z"/><path class="cls-1" d="M315.72,122.68c5.6,0,7.7-1.8,7.6-7.4-.2-8.7,0-17.4-1.3-25.9-3.7-23.3-15.4-40.6-38.9-47.9a71.37,71.37,0,0,0-27.22-2.71,13.66,13.66,0,0,0-1.46.13c-.69.07-1.37.14-2.06.23s-1.35.17-2,.27l-1.12.17-.72.11c-.38.06-.75.12-1.12.2-.62.1-1.23.22-1.84.35s-.93.19-1.39.3C233.38,43,224.51,47.8,217.63,54.84a46.28,46.28,0,0,0-3.46,3.93c-.24.3-.48.59-.7.9-.83,1.08-1.61,2.21-2.35,3.37A56.94,56.94,0,0,0,207,70.77a65.21,65.21,0,0,0-2.7,7.12c-.12.33-.22.66-.32,1-.46,1.51-.89,3-1.27,4.53q-.87,3.31-1.5,6.65-.8,4.29-1.23,8.58-.32,3.24-.42,6.48a103.5,103.5,0,0,0,4,31.86,65.22,65.22,0,0,0,5,12.65,1.86,1.86,0,0,0,.1.2q.42.81.87,1.59c.16.29.33.58.51.86s.47.81.72,1.2.35.55.54.82c.27.43.55.84.85,1.25.12.18.24.36.38.54.39.56.81,1.11,1.23,1.65,7.54,9.62,18.19,15.9,32,18.34,1,.18,2.06.35,3.09.49s2,.27,3,.37h.31c.71.07,1.42.14,2.13.19l1.12.08c.79.06,1.58.11,2.37.14h.35c.69,0,1.38.06,2.08.07a155.7,155.7,0,0,0,16.33-.5,88.58,88.58,0,0,0,16.67-3c1.67-.46,3.33-1,5-1.54.22-.08.44-.15.66-.24.8-.27,1.58-.56,2.36-.86l.5-.2c.7-.27,1.37-.57,2-.88h0a28.07,28.07,0,0,0,3-1.64c.61-.37,1.19-.76,1.76-1.18a25.87,25.87,0,0,0,2.36-1.91c.28-.26.55-.51.81-.78A24.12,24.12,0,0,0,314.7,161a30.69,30.69,0,0,0,5-15.71c.4-6.5-2.2-9.3-8.6-9.3-4.7,0-9.4-.5-14,.2-3.4.5-7.8,1.6-9.7,4-6.9,8.8-16.1,10.5-26.3,10-15.2-.7-24.7-11.4-23.7-27.5Zm-78.8-27.6c.07-2.24.21-4.46.48-6.6a30.94,30.94,0,0,1,3.13-10.72A20.74,20.74,0,0,1,247.72,70c8.7-5.7,18.5-5.8,27.4-.4,9.2,5.6,10.8,15.2,11.3,25.5Z"/><circle class="cls-2" cx="157.74" cy="70.66" r="2.1"/><circle class="cls-2" cx="66.06" cy="109.59" r="2.8"/><circle class="cls-2" cx="118.98" cy="147.2" r="1.69"/><circle class="cls-2" cx="38.9" cy="158.51" r="2.8"/><circle class="cls-2" cx="17.64" cy="78.26" r="1.69"/><circle class="cls-2" cx="227.19" cy="154.25" r="2.8"/><circle class="cls-2" cx="274.26" cy="67.52" r="2.8" transform="translate(-7.22 44.18) rotate(-9.09)"/><circle class="cls-2" cx="259.79" cy="52.79" r="1.79" transform="translate(-5.08 41.71) rotate(-9.09)"/><circle class="cls-2" cx="311.38" cy="98.39" r="1.79" transform="translate(-11.63 50.43) rotate(-9.09)"/><circle class="cls-2" cx="365.77" cy="27.66" r="2.8"/><circle class="cls-2" cx="349.76" cy="48.04" r="2.8"/><circle class="cls-2" cx="363.3" cy="129.34" r="1.79" transform="translate(-15.87 59.02) rotate(-9.09)"/><g class="cls-3"><path class="cls-4" d="M26.53,55.65l-5.59,3.1-2-1.16,2-1-1.31-2.66-3.81,1.89-2.45-1.41a5.25,5.25,0,0,0,0-2.65l2.48-1.44,3.81,1.88L21,49.55l-2-1,2-1.15,5.59,3.1L28,47.91l-4-2.24,3.29-1.9-1.43-2.36h-.41l-3,1.73V41.35h-3l-.06,3.51-2,1.16.15-2.27-3-.19-.28,4.24-2.48,1.43a5.4,5.4,0,0,0-2.3-1.32V45l3.69-2.36-.89-1.33H9.84l-.2.13v-.13h-3v.13l-.18-.12a15.17,15.17,0,0,0-2.67.3l-.68,1L6.64,45v2.87a5.4,5.4,0,0,0-2.3,1.32L1.86,47.71l-.28-4.24-1,.06C-.2,44.88-.17,46.91.5,49.86a2.45,2.45,0,0,0,.14.58l2.19,1.27a5.25,5.25,0,0,0,0,2.65l-1,.61c.26,1,.54,2,.83,2.93l1.69-1a5.42,5.42,0,0,0,2.3,1.33V61.1L4.1,62.81c.29,1,.58,2,.86,3l1.69-1.13V67l-1.16.7.84,2.94.32-.19v1.3l.72,2.5H9.61V70.41l4,2.38,1.52-2.54L9.65,67V64.7L11.54,66l1.63-2.46L9.64,61.14V58.27a5.42,5.42,0,0,0,2.3-1.33l2.43,1.47.28,4.23,3-.19-.15-2.26,2,1.16.11,6.39h3l-.08-4.62L25.82,65l1.4-2.61-3.29-1.9,4-2.24ZM8.11,55.52a2.47,2.47,0,1,1,2.47-2.47A2.47,2.47,0,0,1,8.11,55.52Z"/></g><g class="cls-3"><path class="cls-4" d="M75.23,162.41l-.93-1.61L72.24,162l.05-2.89H70.44l-.07,4-1.26.73.06-1.42-1.85-.12-.17,2.65-1.56.9a3.31,3.31,0,0,0-1.44-.83v-1.8l2.21-1.47-1-1.54-1.18.79v-1.45l3.43-2.06-.95-1.59-2.49,1.46V155H62.32v2.37l-2.48-1.48-1,1.59,3.44,2.06V161l-1.19-.79-1,1.54,2.21,1.47V165a3.31,3.31,0,0,0-1.44.83l-1.56-.9-.17-2.65-1.85.12.09,1.42-1.25-.73-.07-4H54.2V162l-2.06-1.19-.92,1.61,2.06,1.19L50.75,165l.9,1.62,3.5-1.94,1.26.72-1.28.63.82,1.67,2.38-1.18,1.56.89a3.53,3.53,0,0,0,0,1.67l-1.56.9L56,168.78l-.82,1.66,1.28.63-1.26.72-3.5-1.94-.9,1.62,2.53,1.41-2.06,1.18.45.79h1.89l.64-.37v.37h2V173.4l1.25-.73-.09,1.42,1.85.12.17-2.65,1.56-.9a3.31,3.31,0,0,0,1.44.83v1.8l-2.18,1.5.06.09a22,22,0,0,0,5.36-.66l-1.36-.9v-1.8a3.31,3.31,0,0,0,1.44-.83l1.56.9.13,2a11.22,11.22,0,0,0,3.34-2.16l-.62-.35,1.28-.63-.83-1.66L68.15,170l-1.55-.9a3.53,3.53,0,0,0,0-1.67l1.55-.89,2.38,1.18.83-1.67-1.28-.63,1.26-.72,2.8,1.55c.23-.55.45-1.13.66-1.75l-1.63-.86Zm-12,7.38a1.54,1.54,0,1,1,1.54-1.54,1.55,1.55,0,0,1-1.54,1.54Z"/></g><g class="cls-3"><path class="cls-4" d="M182,57.55l-2.19,1.22-.79-.45.8-.4-.52-1-1.49.74-1-.56a2.24,2.24,0,0,0,.06-.52,2.18,2.18,0,0,0-.06-.52l1-.57,1.49.74.52-1-.8-.39.79-.46L182,55.6l.56-1L181,53.72,182.3,53l-.58-1-1.29.74V50.9h-1.16v2.51l-.79.45.06-.89-1.16-.07-.12,1.51-1,.56a2.2,2.2,0,0,0-.9-.52v-1l1.41-1-.64-1-.74.49V51l2.15-1.29-.6-1-1.55.93V48.22h-1.16v1.49l-1.56-.93-.59,1,2.15,1.29V52l-.75-.49-.64,1,1.39.93v1.12a2.17,2.17,0,0,0-.91.52l-1-.56-.11-1.66-1.16.07.06.89-.78-.45,0-2.51h-1.16v1.81l-1.29-.74-.58,1,1.29.75-1.58.88.56,1,2.2-1.22.78.46-.8.39.52,1,1.55-.76,1,.57a2.18,2.18,0,0,0-.06.52,2.24,2.24,0,0,0,.06.52l-1,.56-1.49-.74-.52,1,.8.4-.78.45-2.2-1.22-.56,1,1.58.88-1.29.74.58,1,1.28-.68v1.81h1.16l0-2.5.78-.46-.06.89,1.16.08.11-1.66,1-.57a2.07,2.07,0,0,0,.91.52v1.19l-1.39.92.64,1,.75-.5V62l-2.15,1.29.59,1,1.56-.94v1.49h1.16V63.36l1.55.94.6-1L175.44,62V61.1l.74.5.64-1-1.38-.92v-1.1a2.09,2.09,0,0,0,.9-.52l1,.57.11,1.66,1.16-.08-.06-.89.79.46v2.5h1.16V60.47l1.29.75.58-1L181,59.41l1.58-.88Zm-7.22,0a1,1,0,1,0,0-.05Z"/></g><g class="cls-3"><path class="cls-4" d="M137.51,98.41l-3.78,2.09-1.35-.78,1.38-.68-.89-1.79-2.57,1.27-1.37-.79-.31-.18a2.67,2.67,0,0,0,.1-.64,2.09,2.09,0,0,0,0-.25,3.36,3.36,0,0,0-.11-.9l1.68-1L132.86,96l.89-1.79-1.38-.68,1.35-.78,3.78,2.09,1-1.74-2.73-1.52,2.2-1.2-1-1.73L134.74,90l.06-3.12h-2l-.07,4.32-1.36.78.1-1.53-2-.13-.19,2.86-1.37.79-.31.18a3.67,3.67,0,0,0-1.55-.9v-2l1-.67,1.39-.92L127.33,88l-.81.54-.47.31V87.24l.13-.08L129.75,85l-1-1.72-2.67,1.61V82.34h-2v2.57l-2.67-1.61-1,1.72,3.7,2.22V88.8L122.84,88l-1.11,1.67,2.38,1.59v1.93a3.67,3.67,0,0,0-1.55.9l-1.68-1-.18-2.86-2,.13.1,1.53-1.35-.78-.08-4.32h-2v3.12l-2.2-1.22-1,1.77,2.22,1.28-2.73,1.52,1,1.74,3.78-2.09,1.35.78-1.37.68.88,1.79,2.57-1.27,1.68,1a3.82,3.82,0,0,0-.11.9,3.68,3.68,0,0,0,.11.89l-1.68,1-2.57-1.27-.88,1.79,1.37.68-1.35.78-3.81-2.2-1,1.75,2.73,1.51L112.17,103l1,1.73,2.22-1.28v3.12h2l.08-4.31,1.35-.79-.1,1.53,2,.13.18-2.86,1.68-1a3.67,3.67,0,0,0,1.55.9v1.94l-2.38,1.59,1.11,1.66,1.27-.85V106l-3.7,2.23,1,1.71,2.64-1.56V111h2v-2.57l2.67,1.61,1-1.71-3.7-2.23v-1.56l1.28.85,1.11-1.66L126,102.12v-1.94a3.67,3.67,0,0,0,1.55-.9l1.68,1,.19,2.86h.82l1.17-.08-.1-1.53,1.36.79.07,4.31h2l-.06-3.12,2.23,1.28,1-1.73-2.22-1.28,2.73-1.51Zm-12.44-.09a1.67,1.67,0,1,1,1.67-1.67h0a1.66,1.66,0,0,1-1.65,1.67h0Z"/></g><g class="cls-3"><path class="cls-4" d="M131.05,170.64l-2.2,1.22-.78-.46.8-.39-.52-1-1.49.73-1-.56a2.18,2.18,0,0,0,.06-.52,2.24,2.24,0,0,0-.06-.52l1-.56,1.49.74.52-1-.8-.4.78-.45,2.2,1.21.56-1L130,166.8l1.29-.74-.58-1-1.29.75V164h-1.16v2.5l-.78.46.05-.89-1.15-.08-.11,1.66-1,.57a1.9,1.9,0,0,0-.9-.52v-1.29l1.39-.92-.65-1-.74.5v-.91l2.15-1.29-.59-1-1.56.93v-1.41h-1.16v1.48l-1.55-.93-.6,1,2.15,1.29v.91l-.74-.5-.64,1,1.38.92v1.13a2,2,0,0,0-.9.52l-1-.57-.11-1.66-1.16.08.06.89-.79-.46v-2.5h-1.16v1.81l-1.29-.75-.31.54c.1.28.2.54.3.8l.72.41-.44.25a8.46,8.46,0,0,0,.51,1l1.1-.61.79.45-.8.4.52,1,1.49-.74,1,.56a2.24,2.24,0,0,0-.06.52,2.18,2.18,0,0,0,.06.52l-1,.56-1.49-.73-.15.29a11.14,11.14,0,0,0,2.18,2.11v-.66l1-.56a2.2,2.2,0,0,0,.9.52v1.12l-.61.41a13,13,0,0,0,2.76,1.11l.4-.59-1.39-.93V171.6a2.08,2.08,0,0,0,.9-.52l1,.56.11,1.66,1.15-.07-.05-.89.78.45v2c.37,0,.76.07,1.16.09v-1.4l1.29.74.58-1-1.29-.75,1.58-.88Zm-7.23,0a1,1,0,1,0,0-.05Z"/></g><g class="cls-3"><path class="cls-4" d="M43.33,146.47l-1.46.81-.52-.3.53-.26-.34-.7-1,.49-.65-.37a1.34,1.34,0,0,0,0-.35,1.27,1.27,0,0,0,0-.34l.65-.38,1,.49.34-.69-.53-.26.52-.3,1.46.81.38-.68-1.06-.58.86-.5-.38-.67-.86.5V142H41.5v1.67L41,144v-.59l-.77-.05,0,1.1-.65.38a1.44,1.44,0,0,0-.6-.35v-.75l.92-.61-.43-.65-.49.33v-.6l1.43-.86-.39-.66-1,.62v-1h-.79v1l-1-.62-.4.66,1.43.86v.6l-.49-.33-.43.65.92.61v.72a1.51,1.51,0,0,0-.6.35l-.65-.38-.07-1.1-.77.05v.59l-.53-.3v-1.67h-.77v1.21l-.86-.5-.38.67.86.5-1.06.58.38.68,1.46-.81.52.3-.53.26.34.69,1-.49.65.38a1.27,1.27,0,0,0,0,.34,1.34,1.34,0,0,0,0,.35l-.65.37-1-.49-.34.7.53.26-.52.3-1.46-.81-.38.68,1.06.58-.86.5.38.67.86-.5v1.21h.77v-1.67l.53-.3v.59l.77.05.07-1.11.65-.37a1.51,1.51,0,0,0,.6.35v.74l-.92.62.43.64.49-.33v.62l-1.43.86.4.66,1-.62v1h.77v-1l1,.62.39-.66-1.43-.86v-.61l.49.33.43-.64-.92-.62v-.74a1.44,1.44,0,0,0,.6-.35l.65.37.07,1.11.77-.05v-.59l.53.3v1.67h.77v-1.21l.86.5.38-.67-.86-.5,1.06-.58Zm-4.8,0a.65.65,0,1,1,.64-.66h0a.65.65,0,0,1-.64.59Z"/></g><g class="cls-3"><path class="cls-4" d="M42.92,101.17l-2.07,1.14-.74-.43.75-.37-.49-1-1.4.7-.92-.53a2,2,0,0,0,.06-.49,2.08,2.08,0,0,0-.06-.5l.92-.53,1.4.7.49-1-.75-.37.74-.43,2.07,1.15.53-1L42,97.38l1.22-.7-.55-1-1.21.7v-1.7h-1.1V97l-.74.43.05-.84-1.09-.07-.1,1.57-.92.53a1.91,1.91,0,0,0-.85-.49V97.11L38,96.24l-.61-.91-.7.46v-.86l2-1.21-.56-.94-1.47.88V92.25H35.54v1.41l-1.47-.88-.56.94,2,1.21v.86l-.7-.46-.61.91,1.31.87v1.06a1.91,1.91,0,0,0-.85.49l-.92-.53-.1-1.57-1.09.07v.84L31.81,97V94.68H30.72v1.7l-1.21-.7-.55,1,1.22.7-1.5.83.54,1,2.06-1.15.74.43-.75.37.49,1,1.4-.7.92.53a2.07,2.07,0,0,0-.06.5,2,2,0,0,0,.06.49l-.92.53-1.4-.7-.49,1,.75.37-.74.43-2.06-1.14-.54.95,1.5.83-1.22.7.55,1,1.21-.7v1.71h1.09V103.3l.74-.43v.84l1.09.07.1-1.57.92-.53a2,2,0,0,0,.85.5v1.06l-1.31.87.61.91.7-.47v.86l-2,1.21.56.94,1.47-.88v1.41h1.09v-1.41l1.47.88.56-.94-2-1.21v-.86l.7.47.61-.91-1.31-.87v-1.06a2,2,0,0,0,.85-.5l.92.53.1,1.57,1.09-.07-.05-.84.74.43v2.36h1.1V104l1.21.7.55-1L42,103l1.5-.83Zm-6.81-.05a.91.91,0,1,1,.91-.91A.92.92,0,0,1,36.11,101.12Z"/></g><g class="cls-3"><path class="cls-4" d="M89.28,69.23,87.07,68l3.82-2.2a1.79,1.79,0,1,0,0-1.79l-3.82-2.2,2.21-1.28L94.93,62l2-7.47-7.48-2-1.51,5.64-2.21,1.25V55a1.8,1.8,0,1,0-1.55-.9l-3.81,2.21V53.79l4.13-4.13L79,44.18l-3,3a21.48,21.48,0,0,0-1.43,3.44l3.13,3.13V56.3l-3.82-2.21a1.72,1.72,0,0,0,.1-1.55c-.09.29-.17.59-.25.9q-.71,2.67-1.4,5.36v.61l-.13-.08q-1.06,4.08-2.14,8.08l.89.51-1.21.7c-.71,2.76-1.42,5.52-2.15,8.28l1,.26,1.51-5.64,2.21-1.28v4.41a1.79,1.79,0,1,0,1.55.89l3.82-2.2v2.55L73.57,80l5.48,5.48L84.52,80l-4.13-4.13V73.41l3.81,2.2a1.79,1.79,0,1,0,1.55-.89V70.27L88,71.55l1.51,5.64,7.48-2-2-7.48ZM91.35,55.8l2.29.61L93,58.71l-2.3-.62Zm-8.3,2.09V61l-2.68,1.55V59.41Zm-8.05,0,2.69,1.52v3.1L75,61Zm-1.34,8.52L71,64.86l2.68-1.54,2.68,1.54ZM75,71.83v-3.1l2.69-1.55v3.09Zm5.71,8.23L79,81.74l-1.68-1.68L79,78.41ZM79,51.35l-1.68-1.68L79,48l1.68,1.68Zm4,20.48-2.68-1.55v-3.1L83,68.73Zm1.36-5.42-2.68-1.55,2.68-1.54,2.68,1.54Zm7,7.51-.62-2.3,2.3-.61.61,2.29Z"/></g><g class="cls-3"><path class="cls-4" d="M284.74,111.06l-4.57,2.54-1.64-1,1.67-.82-1.08-2.18L276,111.15,274,110a4.85,4.85,0,0,0,.13-1.09,4.92,4.92,0,0,0-.13-1.09l2-1.17,3.12,1.54L280.2,106l-1.67-.82,1.64-1,4.59,2.54,1.17-2.12-3.31-1.84,2.7-1.55-1.21-2.11-2.7,1.56.06-3.79h-2.42L279,102.1l-1.65,1,.12-1.86-2.42-.16-.22,3.47-2,1.18a4.58,4.58,0,0,0-1.89-1.09v-2.35l2.9-1.93-1.35-2-1.55,1v-1.9l4-2.4.49-.29-1.25-2.09-3.25,2V91.57h-2.42v3.11l-3.25-2L264,94.77l.49.29,4,2.4v1.95l-1.55-1-1.35,2,2.9,1.93v2.35a4.58,4.58,0,0,0-1.89,1.09l-2-1.18-.22-3.47-2.42.16.12,1.86-1.65-1-.08-5.25h-2.43l.06,3.79-2.7-1.56L254,101.24l2.7,1.55-3.31,1.84,1.18,2.12,4.58-2.54,1.65,1-1.67.82,1,2.18,3.12-1.54,2,1.17a4.4,4.4,0,0,0-.14,1.09,4.34,4.34,0,0,0,.14,1.09l-2,1.18-3.12-1.55-1.07,2.18,1.67.82-1.65,1-4.58-2.54-1.18,2.12,3.31,1.84-2.7,1.56,1.21,2.1,2.7-1.56-.06,3.79h2.43l.08-5.24,1.65-1-.12,1.86,2.42.15.22-3.47,2-1.18a4.38,4.38,0,0,0,1.89,1.09v2.35l-2.9,1.93,1.35,2,1.55-1v2l-3.83,2.3-.67.4,1.25,2.08,3.25-2v3.11h2.42v-3.09l3.25,2,1.25-2.08-.67-.4-3.83-2.3v-1.9l1.55,1,1.35-2-2.9-1.93v-2.39a4.38,4.38,0,0,0,1.89-1.09l2,1.18.22,3.47,2.42-.15-.12-1.86,1.65,1L279,121h2.42l-.06-3.79,2.7,1.56,1.21-2.1-2.7-1.56,3.31-1.84Zm-15.11-.11a2,2,0,1,1,2-2,2,2,0,0,1-2,2h0Z"/></g><g class="cls-3"><path class="cls-4" d="M315,155l2.07-7.73-7.73-2.07L307.76,151l-2.28,1.32v-4.56a1.85,1.85,0,1,0-1.6-.92l-4,2.28v-2.64l4.27-4.27-5.65-5.66-5.66,5.66,4.33,4.27v2.64l-4-2.28a1.86,1.86,0,1,0-1.6.92v4.56L289.29,151l-1.56-5.83L280,147.27l2.07,7.73,5.83-1.57,2.29,1.32-4,2.28a1.84,1.84,0,1,0,0,1.85l4,2.27-2.29,1.32-5.83-1.56L280,168.64l7.73,2.07,1.56-5.84,2.28-1.32v4.56a1.84,1.84,0,1,0,1.6.92l4-2.27v2.65l-4.27,4.27.26.26c1.67-.46,3.33-1,5-1.54l.45-.45.21.21c.8-.27,1.58-.56,2.36-.86l.5-.2-1.75-1.69v-2.63l4,2.27a1.81,1.81,0,0,0-.23,1.16,28.07,28.07,0,0,0,3-1.64,1.83,1.83,0,0,0-1.19-.44v-4.56l2.28,1.32.67,2.5a25.87,25.87,0,0,0,2.36-1.91l-.14-.52,1-.26a24.12,24.12,0,0,0,3.08-3.69l-5.59,1.46-2.29-1.32,4-2.27a1.85,1.85,0,1,0,0-1.85l-4-2.28,2.29-1.34Zm-3.7-6.41,2.37.64L313,151.6l-2.37-.64Zm-27.21,3-.63-2.37,2.37-.64.63,2.37Zm1.74,15.71-2.37-.63.63-2.38,2.37.64Zm7.19-7.76-2.77-1.6,2.77-1.6,2.77,1.6Zm4.16,4-2.77,1.61v-3.21l2.77-1.6Zm0-8-2.77-1.6v-3.2l2.77,1.6Zm5.54-4.8v3.2l-2.77,1.6v-3.2ZM298.55,144l-1.74-1.74,1.74-1.73,1.73,1.73Zm4.15,21.18-2.77-1.61v-3.2l2.77,1.6Zm1.39-5.61-2.77-1.6,2.77-1.6,2.77,1.6Z"/></g><g class="cls-3"><path class="cls-4" d="M353.27,75.76l-.76-.44,1.31-.75a.61.61,0,1,0,0-.62l-1.31-.75.76-.44,1.93.52.69-2.56L353.33,70,352.81,72l-.76.43V70.89a.61.61,0,1,0-.53-.92.65.65,0,0,0,0,.62l-1.3.75v-.87l1.41-1.42-1.87-1.87-1.88,1.87,1.42,1.42v.87L348,70.59a.65.65,0,0,0,0-.62.61.61,0,1,0-.53.92v1.52L346.7,72,346.17,70l-2.56.69.69,2.56,1.93-.52.76.44-1.31.75a.61.61,0,1,0,0,.62l1.31.75-.76.44-1.93-.52-.69,2.56,2.56.69.52-1.94.76-.43v1.51a.61.61,0,1,0,.53.92.65.65,0,0,0,0-.62l1.31-.75v.87l-1.42,1.42,1.88,1.87,1.87-1.87-1.41-1.42v-.87l1.3.75a.65.65,0,0,0,0,.62.61.61,0,1,0,.53-.92V76.12l.76.43.52,1.94,2.56-.69-.71-2.56Zm.71-4.6.78.21-.21.78-.78-.21Zm-9,1-.21-.78.78-.21.21.78Zm.57,5.21-.78-.21.21-.78.78.21Zm5.6-5.49v1.06l-.91.53V72.41Zm-2.75,0,.92.53v1l-.92-.53Zm-.46,2.92-.92-.53.92-.53.92.53Zm.46,1.86V75.59l.92-.53v1.06Zm2,2.82-.57.57-.58-.57.58-.58Zm-.57-9.84-.58-.58.58-.57.57.57Zm1.37,7-.91-.53v-1l.91.53Zm.46-1.86-.91-.53.91-.53.92.53Zm2.39,2.57-.21-.78.78-.21.21.78Z"/></g><g class="cls-3"><path class="cls-4" d="M260,174.52l.52-.93-1.45-.8,1.18-.68-.53-.92-1.18.68v-1.66h-1.06v2.3l-.72.41.06-.81-1.07-.07-.09,1.52-.9.52a1.94,1.94,0,0,0-.82-.48v-1l1.27-.84-.59-.89-.68.45v-.91l2-1.18-.55-.91-1.42.85v-1.36h-1.06v1.36l-1.43-.85-.54.91,2,1.18v.83l-.68-.45-.59.89,1.27.84v1a2,2,0,0,0-.83.48l-.89-.52-.1-1.52L250,172v.81l-.72-.41v-2.3h-1.06v1.66l-1.18-.68-.53.92,1.18.68-1.45.8.51.93,2-1.11.72.41-.73.37.47,1,1.37-.68.89.52a1.86,1.86,0,0,0-.06.48,1.84,1.84,0,0,0,.06.47l-.89.52-1.37-.68-.39.8c1,.14,2,.27,3,.37l.16-.09.15.13c.71.07,1.42.14,2.13.19a2,2,0,0,0,.43-.32l.69.4c.79.06,1.58.11,2.37.14l-.53-.3.74-.37-.48-1-1.33.72-.89-.52a1.83,1.83,0,0,0,.06-.47,1.85,1.85,0,0,0-.06-.48l.89-.53,1.36.68.48-1-.74-.37.72-.41Zm-6.61,1.82a.89.89,0,1,1,.88-.9s0,0,0,0a.89.89,0,0,1-.88.88Zm6.61,0-1.85,1c.69,0,1.38.06,2.08.07l.29-.16Z"/></g><g class="cls-3"><path class="cls-4" d="M262.75,40.94l-.68-1.23-2.65,1.47-1-.54,1-.48-.62-1.26-1.81.89-1.17-.68a1.86,1.86,0,0,0,.06-.34,13.66,13.66,0,0,0-1.46.13,1.17,1.17,0,0,1-1.09.75,1.15,1.15,0,0,1-1-.52c-.67.08-1.35.17-2,.27l-.68.39-.44-.22-.72.11c-.38.06-.75.12-1.12.2l-.14.28,1,.48-1,.54-1.71-1c-.47.09-.93.19-1.39.3l-.23.41L245.81,42l-1.55.9.7,1.21,1.56-.89V45.4h1.4v-3l1-.55-.07,1.07,1.4.09.13-2,1.18-.68a2.59,2.59,0,0,0,1.09.63v1.35L251,43.41l.78,1.17.9-.6v1.1l-2.6,1.55.72,1.21,1.88-1.13v1.8h1.4v-1.8l1.87,1.13.73-1.21-2.6-1.55V44l.89.6.78-1.17-1.67-1.12V41a2.65,2.65,0,0,0,1.09-.63l1.17.68.13,2,1.4-.09-.07-1.07,1,.55v3h1.4V43.23l1.56.89.7-1.21-1.56-.9Z"/></g><g class="cls-3"><path class="cls-4" d="M215.92,153.89l-1.78,1-.64-.37.65-.32-.42-.85-1.22.6-.79-.46a1.79,1.79,0,0,0,0-.84l.79-.46,1.22.6.42-.85-.65-.32.64-.37,1.78,1,.46-.83-1.29-.71,1-.61-.47-.82-1,.61v-1.48h-1v2l-.64.37v-.72L212,150l-.09,1.36-.8.46a1.69,1.69,0,0,0-.73-.43v-.91l1.13-.76-.53-.78-.6.4v-.74l1.75-1.05-.48-.81-1.27.75v-1.21h-1v1.21l-1.26-.75-.49.81,1.75,1.05v.74l-.6-.4-.46.69a1.86,1.86,0,0,0,.1.2l1,.65v.94h-.09c.16.29.33.58.51.86h.06a.8.8,0,0,1,.79.79.77.77,0,0,1-.13.42c.18.28.35.55.54.82l.8.46v.79c.12.18.24.36.38.54h.6v-.72l.64.37v2h1v-1.48l1,.61L216,156l-1-.61,1.29-.71Z"/></g><g class="cls-3"><path class="cls-4" d="M387.37,147.23l5,2.78,1.21-2.19C391.51,147.62,389.44,147.41,387.37,147.23Zm6.34,10-1.33-2.41-5.2,2.89-1.86-1.08,1.89-.94L386,153.23,382.45,155l-2.3-1.34a5.12,5.12,0,0,0,0-2.46l2.3-1.34,3.54,1.75,1.22-2.46-1.89-.94,1.73-1c-.88-.08-1.75-.16-2.63-.22a6.72,6.72,0,0,1-3.25-1l-.09,1.46-2.31,1.34a5,5,0,0,0-2.14-1.24v-2.62l2.75-1.83a9.47,9.47,0,0,1-.14-1.38l-.85-1.27-1.76,1.17v-2.19l2.66-1.59c0-1.08,0-2.17,0-3.25l-2.71,1.63v-3.49h-2.75v3.53L370.17,134l-1.38,2.38,5.09,3.06v2.15l-1.71-1.21-1.53,2.29,3.28,2.19v2.66a5,5,0,0,0-2.13,1.24l-2.31-1.34-.26-3.93-2.74.17.14,2.11-1.87-1.08-.1-5.94-2.75.05.07,4.29-3-1.77-1.38,2.39,3.06,1.76-3.75,2.08,1.27,2.43,5.2-2.89,1.86,1.08-1.89.94,1.22,2.46,3.53-1.75,2.31,1.34a5.12,5.12,0,0,0,0,2.46L368.09,155l-3.53-1.75-1.22,2.46,1.89.94-1.86,1.08-5.2-2.89-1.33,2.41,3.75,2.08-3.06,1.76,1.38,2.39,3-1.77-.07,4.29,2.75.05.1-5.94,1.87-1.08-.14,2.11,2.74.17.26-3.93,2.31-1.34a5,5,0,0,0,2.13,1.24v2.66l-3.28,2.19,1.59,2.29,1.75-1.17v2.17l-5.13,3,1.38,2.4,3.68-2.21v3.53h2.75V168.6l3.68,2.21,1.42-2.36-5.1-3.06v-2.15l1.76,1.17,1.53-2.29-3.29-2.19v-2.66a5,5,0,0,0,2.14-1.24l2.31,1.34.25,3.93,2.75-.17-.14-2.11,1.87,1.08.1,5.94,2.74-.05-.07-4.29,3.06,1.77,1.37-2.39-3-1.76Zm-18.45-2.53a2.29,2.29,0,1,1,2.29-2.29,2.29,2.29,0,0,1-2.29,2.29h0Z"/></g><g class="cls-3"><path class="cls-4" d="M450,56.33l-6.52,1.75-2.56-1.48,4.42-2.54a2.07,2.07,0,0,0,3.83-.73c-.81-.8-1.66-1.57-2.54-2.31a2,2,0,0,0-1.29,1l-4.42-2.61,2.11-1.21c-.94-.66-1.91-1.3-2.92-1.9l-.74.43v-.87c-1.08-.64-2.21-1.24-3.37-1.81-.81-.4-1.62-.78-2.44-1.13l-.39.23v-.4c-1-.43-2.06-.83-3.1-1.19v1.59l-4.41-2.55a2.06,2.06,0,0,0,.15-.34c-1.33-.35-2.66-.64-4-.87a2,2,0,0,0,2.06,2.21v5.1l-2.55-1.48L419.67,39l-.08-.31-.75.2L411,41l2.31,8.65,6.53-1.75,2.55,1.5L417.93,52a2.05,2.05,0,1,0,0,2.1l4.41,2.54-2.55,1.48-6.53-1.75L411,65l8.64,2.32,1.75-6.53,2.55-1.47v5.12a2.07,2.07,0,1,0,1.79,1l4.41-2.55v3l-4.78,4.77L431.64,77,438,70.63l-4.8-4.81v-3l4.43,2.59a2.07,2.07,0,1,0,3.57,0,2,2,0,0,0-1.79-1V59.29l2.56,1.47,1.74,6.53L452.33,65ZM415.45,45.92l-.71-2.65,2.66-.71.71,2.65Zm2,17.57-2.66-.71.71-2.65,2.66.71ZM427,45l3.1,1.79v3.58L427,48.55Zm-1.55,9.84L422.39,53l3.1-1.79,3.1,1.79ZM427,61.08V57.5l3.1-1.79v3.58Zm6.59,9.51-1.94,2-1.94-2,1.94-1.94Zm-.46-23.83,3.1-1.79v3.58l-3.1,1.79Zm3.1,14.32-3.1-1.79V55.71l3.1,1.79Zm1.55-6.27L434.72,53l3.1-1.79,3.1,1.79Zm8,8.68-.65-2.65,2.65-.71.71,2.65Z"/></g><g class="cls-3"><path class="cls-4" d="M388,59.1l-2.6,1.44-.93-.54.94-.47-.61-1.23-1.76.87-1.16-.66a2.45,2.45,0,0,0,0-1.24l1.16-.66,1.76.87.61-1.23-.94-.47.93-.54,2.6,1.44.66-1.2-1.87-1,1.53-.88-.69-1.19-1.53.88V51.14h-1.38l0,3-.93.54.07-1-1.33-.27-.13,2-1.16.66a2.5,2.5,0,0,0-1.06-.61V54.13L381.74,53,381,51.89l-.87.59V51.41l2.54-1.52-.7-1.18-1.84,1.1V48h-1.38V49.8l-1.84-1.1-.71,1.18,2.55,1.53v1.08l-.88-.59-.76,1.15,1.64,1.09v1.34a2.54,2.54,0,0,0-1.07.61l-1.15-.68-.13-2L375,53.5l.07,1-.93-.54V51h-1.38v2.15l-1.54-.7-.69,1.19,1.53.88-1.88,1,.67,1.2,2.6-1.44.93.54-1,.47.61,1.23,1.77-.87,1.15.66a2.78,2.78,0,0,0,0,1.24l-1.15.66L374,58.3l-.61,1.23,1,.47-.93.54-2.6-1.44-.67,1.2,1.88,1-1.53.88.69,1.19,1.53-.88v2.15h1.38v-3l.93-.54-.07,1,1.37.09.13-2,1.15-.66a2.54,2.54,0,0,0,1.07.61v1.34l-1.64,1.09.76,1.15.88-.59v1.28l-2.54,1.49.71,1.18,1.84-1.1v1.76h1.38V66l1.84,1.1.7-1.18-2.54-1.49V63.3l.87.59.77-1.15-1.64-1.09V60.31a2.5,2.5,0,0,0,1.06-.61l1.16.66.13,2,1.37-.09-.07-1,.93.54,0,3h1.38V62.66l1.53.88.69-1.19-1.53-.88,1.87-1ZM379.41,59a1.15,1.15,0,1,1,1.14-1.16h0A1.16,1.16,0,0,1,379.41,59Z"/></g><g class="cls-3"><path class="cls-4" d="M375.83,4.69l-.66-1.13-2.4,1.35-.87-.5.88-.44-.61-1.15-1.66.82L369.43,3a2.19,2.19,0,0,0,.07-.58,2.25,2.25,0,0,0-.07-.58l1.08-.62,1.66.82.57-1.16-.88-.43.78-.46h-2.76V.13L368.8.76a2.4,2.4,0,0,0-1-.58V0h-1.29V.18a2.34,2.34,0,0,0-1,.58L364.42.13V0h-2.8l.83.48-.89.43.57,1.16,1.66-.82,1.08.62a2.25,2.25,0,0,0-.07.58,2.2,2.2,0,0,0,.07.58l-1.08.63-1.62-.84L361.6,4l.89.44-.88.5-2.44-1.35-.63,1.13,1.76,1-1.43.82.64,1.12L361,6.8v2h1.29l0-2.79.87-.5-.06,1,1.28.09.12-1.85,1.09-.62a2.34,2.34,0,0,0,1,.58V5.95l-1.54,1L365.76,8l.83-.55v1L364.17,10l.66,1.1,1.73-1V11.7h1.29V10l1.72,1,.66-1.1-2.38-1.44v-1l.82.55L369.38,7l-1.53-1V4.71a2.4,2.4,0,0,0,1-.58l1.08.62.12,1.85,1.28-.09-.06-1,.87.5,0,2.79h1.29v-2l1.43.83.64-1.12-1.43-.82Zm-8.66-1.18a1.07,1.07,0,1,1,1.09-1.1,1.07,1.07,0,0,1-1.09,1.1Zm5.7-3.5,2.3,1.29.5-.89a13.16,13.16,0,0,0-2.79-.4Zm-14,0-.36.2.63,1.12L361.52,0Z"/></g><g class="cls-3"><path class="cls-4" d="M350.92,121.27l-1.41.78-.5-.29.51-.25-.33-.67-1,.47-.63-.36a1.27,1.27,0,0,0,0-.34,1.2,1.2,0,0,0,0-.33l.63-.36,1,.47.33-.67-.51-.25.5-.3,1.41.79.37-.66-1-.56.83-.48-.37-.65-.84.48v-1.17h-.74v1.62l-.51.29v-.57h-.75l-.07,1.07-.62.36a1.42,1.42,0,0,0-.58-.34v-.72l.89-.59-.42-.63-.47.32v-.58l1.38-.83-.38-.64-1,.6v-1h-.75v1l-1-.6-.39.64,1.39.83v.58l-.48-.32L345,118l.89.59v.72a1.41,1.41,0,0,0-.58.34l-.63-.36-.07-1.07h-.74v.57l-.5-.29v-1.62H343v2.28h0l.51.3-.52.25.34.67,1-.47.62.36a1.76,1.76,0,0,0,0,.33,1.87,1.87,0,0,0,0,.34l-.62.36-1-.47-.34.67.52.25-.51.29h0v2.28h.4v-1.61l.5-.29V123h.74l.07-1.07.63-.36a1.39,1.39,0,0,0,.58.33v.73l-.89.59.41.62.48-.32v.59l-1.39.83.39.64,1-.6v1h.75v-1l1,.6L348,125l-1.38-.83v-.59l.47.32.42-.62-.89-.59v-.73a1.4,1.4,0,0,0,.58-.33l.62.36.07,1.07h.75v-.57l.51.29v1.61h.74V123.2l.84.47.37-.64-.83-.48,1-.57Zm-4.65,0a.63.63,0,1,1,.63-.63.63.63,0,0,1-.63.63Z"/></g><g class="cls-3"><path class="cls-4" d="M159.7,150.6l1.48,2.46c.38-1.34.76-2.69,1.15-4Zm2.91-9.05,1,3c.34-1.22.69-2.43,1-3.65Zm8.82-26.83-1.21-3.61-1.3.43v-2.62l5.42-3.25-2-3.27-3.46,2.08V99.59h-3.71v4.89l-3.51-2.07-2,3.27,5.42,3.25v2.62l-1.3-.43-1.21,3.61,2.51.83v5.85a6.62,6.62,0,0,0-1.5.63l-4.15-4.16,1.18-2.36-3.4-1.7-.62,1.23-1.85-1.86,1.53-6.13-3.69-.92-1,3.91-3.41-3.44-2.69,2.69,3.46,3.45-3.92,1,.93,3.69,6.13-1.53,1.85,1.86-1.22.61,1.7,3.4,2.36-1.18,4.15,4.16a7,7,0,0,0-.62,1.49h-5.87l-.84-2.5L150,125l.44,1.3h-2.63l-3.25-5.42-3.26,2,2.07,3.46h-4.88v3.81h4.88l-2.07,3.46,3.26,2,3.25-5.42h2.63l-.44,1.3,3.61,1.2.84-2.5h5.87a7,7,0,0,0,.62,1.49l-4.15,4.16-2.36-1.18-1.7,3.4,1.22.61-1.84,1.79L146,138.88l-.93,3.69,3.92,1L145.49,147l2.69,2.69,3.46-3.45,1,3.91,3.69-.92-1.53-6.13,1.85-1.86.62,1.23,3.4-1.7-1.2-2.38,4.15-4.16a6.62,6.62,0,0,0,1.5.63v4.37c.75-2.65,1.51-5.29,2.26-7.94H167a3.17,3.17,0,1,1,2-5.66l1.08-3.79a6.35,6.35,0,0,0-1.15-.44v-5.87Z"/></g><g class="cls-3"><path class="cls-4" d="M246.89,83.48h-5.26l2.24-3.72-3.34-2-.17-.1-3.5,5.82H234l.47-1.39-3.89-1.3-.89,2.69h-6.32a7.49,7.49,0,0,0-.66-1.6l4.42-4.47,2.54,1.27L231.54,75l-1.32-.66,2-2L238.81,74l1-4-4.21-1.05,3.71-3.71-2.86-2.83-3.71,3.72-1-4.21-4,1,1.64,6.59-2,2-.66-1.32L223.06,72l1.27,2.54L219.86,79a7.92,7.92,0,0,0-1.61-.67V72l2.7-.9-1.3-3.88-1.4.47V64.87l5.82-3.46L222,57.9l-3.73,2.23V54.84h-.63a46.28,46.28,0,0,0-3.44,3.93v1.32l-.7-.42c-.83,1.08-1.61,2.21-2.35,3.37l3,1.83v2.82l-1.4-.47-1.29,3.88,2.69.9v6.31a8.42,8.42,0,0,0-1.61.67l-4.46-4.46L209.32,72l-2.41-1.21a65.21,65.21,0,0,0-2.7,7.12l1-.48,4.46,4.47a7.51,7.51,0,0,0-.67,1.6h-6.33v-.07q-.87,3.31-1.5,6.65l.62.21.9-2.69H209a7.51,7.51,0,0,0,.67,1.6l-4.5,4.47-2.52-1.24-1.83,3.66,1.32.66-2,2h-.22q-.32,3.24-.42,6.48l.16-.16,1,4.21,4-1L203,101.67l2-2,.66,1.32,3.66-1.83-1.27-2.54,4.46-4.46a8.41,8.41,0,0,0,1.61.67v6.31l-2.69.9,1.29,3.88,1.44-.51v2.82l-5.82,3.5,2.1,3.51,3.72-2.23v5.25h4.09V111l3.73,2.23,2.1-3.51-5.83-3.5v-2.82l1.4.47L221,100l-2.7-.9V92.79a7.91,7.91,0,0,0,1.61-.67l4.47,4.46-1.27,2.54,3.66,1.83.66-1.32,2,2-1.64,6.59,4,1,1-4.21,3.71,3.72,2.9-2.9-3.72-3.71,4.21-1-1-4-6.59,1.64-2-2,1.32-.66-1.83-3.69-2.58,1.24-4.46-4.47a7.49,7.49,0,0,0,.66-1.6h6.32l.89,2.69,3.89-1.3L234,87.58h2.82l.54.9,3,4.92,3.51-2.1-2.24-3.72h5.26Zm-30.72,5.46a3.41,3.41,0,1,1,3.41-3.41,3.41,3.41,0,0,1-3.41,3.41Z"/></g><g class="cls-3"><path class="cls-4" d="M459.37,141.77l1-3.89-4.12-1,3.63-3.64L457,130.41l-3.64,3.64-1-4.13-3.89,1,1.61,6.46-2,2-.65-1.29-3.59,1.79,1.25,2.49-4.38,4.37a7.75,7.75,0,0,0-1.57-.65V139.9l2.64-.88-1.27-3.8-1.37.46v-2.87l5.71-3.43L442.8,126l-3.63,2.18V123h-4v5.14l-3.65-2.19-2.06,3.47,5.71,3.4v2.77l-1.37-.46-1.27,3.8,2.64.88V146a7.6,7.6,0,0,0-1.58.65l-4.42-4.37,1.25-2.49L426.83,138l-.64,1.29-1.76-1.76a18.26,18.26,0,0,1-2.24,3.43l1.16,1.16-1.29.65,1.79,3.59,2.49-1.25,4.37,4.38a7.74,7.74,0,0,0-.65,1.57h-6.19l-.88-2.63-3.8,1.26.46,1.38h-2.77l-2.64-4.41a24.5,24.5,0,0,1-4,1.15l2,3.26h-5.14v4h5.14L410,158.71l3.44,2.06,3.42-5.71h2.77l-.46,1.38,3.8,1.26.88-2.64h6.19a7.6,7.6,0,0,0,.65,1.58L426.33,161l-2.49-1.25-1.79,3.59,1.29.65-2,2-6.46-1.61-1,3.89,4.13,1-3.64,3.64,2.83,2.83,3.64-3.64.85,3.39c1.33-.28,2.63-.6,3.9-.95l-1.44-5.74,2-2,.64,1.29,3.59-1.79-1.21-2.47,4.38-4.37a7.6,7.6,0,0,0,1.58.65v6.19l-2.64.88,1.27,3.8,1.37-.46v.61a49.46,49.46,0,0,0,6.51-3.53l.14-.42-2.64-.88v-6.19a7.75,7.75,0,0,0,1.57-.65l4.38,4.37L444,166a46.17,46.17,0,0,0,6.66-5.8l-.24-.47L447.92,161l-4.37-4.38a7.09,7.09,0,0,0,.65-1.58h6.19l.88,2.64,2.23-.74c.43-.52.84-1.06,1.22-1.6l-.1-.3h.32a50.1,50.1,0,0,0,4.14-6.82l-1.7,2.82h-2.76l.45-1.38-3.8-1.26-.88,2.64H444.2a7.09,7.09,0,0,0-.65-1.58l4.37-4.38,2.49,1.25,1.8-3.59-1.3-.65,2-2Zm-22.2,14.64a3.34,3.34,0,1,1,3.34-3.34A3.34,3.34,0,0,1,437.17,156.41Z"/></g></g></g></svg>