<?xml version="1.0" encoding="utf-8"?>
<!-- Generator: Adobe Illustrator 21.0.0, SVG Export Plug-In . SVG Version: 6.00 Build 0)  -->
<svg version="1.1" id="Слой_1" xmlns="http://www.w3.org/2000/svg" xmlns:xlink="http://www.w3.org/1999/xlink" x="0px" y="0px"
	 viewBox="0 0 490.6 496" style="enable-background:new 0 0 490.6 496;" xml:space="preserve">
<style type="text/css">
	.st0{fill:#334B61;}
</style>
<path id="Слой_2" class="st0" d="M448.6,224h-22v-16h23.5l-55.5-77.8L339.1,208h23.5v16h-88v-37.6c46-16.1,72.6-64.3,61.5-111.8
	L363,92.5c-2.3,13,6.3,25.5,19.4,27.9c13,2.3,25.5-6.3,27.9-19.4c0.3-1.6,0.4-3.3,0.4-5c0-3.3-0.7-6.6-2-9.6l47.1-41.2
	c3.4,1.8,7.2,2.8,11,2.8c13.3,0,24-10.7,24-24s-10.7-24-24-24s-24,10.7-24,24c0,3.3,0.7,6.6,2,9.6l-47.1,41.2
	c-8.8-4.7-19.7-3.3-27.1,3.5l-33.4-22.3c1-2.6,1.5-5.3,1.5-8.1c0-13.3-10.7-24-24-24c-2.5,0-5,0.5-7.3,1.3C289.7,9,266.6,0,242.6,0
	c-53,0-96,42.9-96,95.9c0,40.7,25.6,76.9,64,90.5V224h-104V88h23.5L74.6,10.2L19.1,88h23.6v136h-6L0,352h34.6v144h416V352h34.6
	L448.6,224z M370.2,192l24.5-34.2l24.4,34.2h-8.5v32h-32v-32H370.2z M436.6,240l27.4,96H336.6l-27.4-96H436.6z M466.6,16
	c4.4,0,8,3.6,8,8s-3.6,8-8,8s-8-3.6-8-8C458.6,19.6,462.2,16,466.6,16C466.6,16,466.6,16,466.6,16L466.6,16z M386.6,88
	c4.4,0,8,3.6,8,8s-3.6,8-8,8s-8-3.6-8-8C378.6,91.6,382.2,88,386.6,88C386.6,88,386.6,88,386.6,88L386.6,88z M322.6,48
	c0,4.4-3.6,8-8,8s-8-3.6-8-8s3.6-8,8-8C319,40,322.6,43.5,322.6,48C322.6,48,322.6,48,322.6,48L322.6,48z M290.6,96
	c0.1,26.6-21.5,48.2-48,48.3s-48.2-21.5-48.3-48s21.5-48.2,48-48.3c14.1,0,27.5,6.1,36.7,16.8l-20.3,13.5
	c-4.4-4.1-10.1-6.3-16.1-6.3c-13.7-0.4-25.1,10.3-25.5,24c-0.4,13.7,10.3,25.1,24,25.5c13.7,0.4,25.1-10.3,25.5-24
	c0-1.7-0.1-3.3-0.4-5l21-14C289.5,84.1,290.6,90,290.6,96L290.6,96z M250.6,96c0,4.4-3.6,8-8,8s-8-3.6-8-8s3.6-8,8-8
	C247,88,250.6,91.5,250.6,96C250.6,96,250.6,96,250.6,96L250.6,96z M162.6,96c0-44.2,35.8-80,80-80c19-0.1,37.4,6.7,51.8,19.1
	c-3.9,5.9-4.9,13.3-2.6,20c-22.8-27.5-63.5-31.4-91.1-8.6s-31.4,63.5-8.6,91.1s63.5,31.4,91.1,8.6c22.5-18.6,29.8-50.1,17.6-76.7
	l1.5-1c4.9,3.1,10.8,4.2,16.5,3.1c13.6,42.1-9.5,87.1-51.6,100.7c-42.1,13.6-87.1-9.5-100.7-51.6C163.9,112.7,162.6,104.4,162.6,96
	L162.6,96z M226.6,190.6c10.6,1.9,21.4,1.9,32,0V224h-32V190.6z M50.2,72l24.5-34.2L99.1,72h-8.4v152h-32V72H50.2z M21.2,336
	l27.4-96H288l-27.4,96H21.2z M290.6,480h-240V352h222l18-62.9V480z M434.6,480h-128V289.1l18,62.9h110V480z M258.6,448h16v16h-16
	V448z M226.6,448h16v16h-16V448z M194.6,448h16v16h-16V448z M258.6,416h16v16h-16V416z M258.6,384h16v16h-16V384z M226.6,416h16v16
	h-16V416z"/>
</svg>
