<?xml version="1.0" encoding="utf-8"?>
<!-- Generator: Adobe Illustrator 21.0.0, SVG Export Plug-In . SVG Version: 6.00 Build 0)  -->
<svg version="1.1" id="Слой_1" xmlns="http://www.w3.org/2000/svg" xmlns:xlink="http://www.w3.org/1999/xlink" x="0px" y="0px"
	 viewBox="0 0 595.3 623" style="enable-background:new 0 0 595.3 623;" xml:space="preserve">
<style type="text/css">
	.st0{fill:#FFFFFF;}
	.st1{fill:#3D4A5A;}
</style>
<g id="Слой_2">
	<path class="st0" d="M537.1,570.2c0,15.7-12.7,28.3-28.3,28.3H82.5c-15.7,0-28.3-12.7-28.3-28.3V455.9c0-15.7,12.7-28.3,28.3-28.3
		h426.3c15.7,0,28.3,12.7,28.3,28.3L537.1,570.2L537.1,570.2z"/>
	<rect x="54.1" y="293.5" class="st0" width="479.9" height="149.5"/>
	<rect x="517.1" y="316.5" class="st0" width="29" height="89"/>
	<rect x="521.1" y="361" class="st0" width="42" height="66.5"/>
	<rect x="44.8" y="327.5" class="st0" width="55.4" height="108.3"/>
	<rect x="28.1" y="373.5" class="st0" width="32" height="54"/>
	<rect x="46.1" y="353.5" class="st0" width="20" height="14.8"/>
	<rect x="38.7" y="353.5" class="st0" width="46.5" height="28.2"/>
	<rect x="61.9" y="87.5" class="st0" width="62.2" height="199"/>
	<rect x="72.5" y="59.5" class="st0" width="36.7" height="58"/>
	<rect x="100.1" y="76.5" class="st0" width="17" height="12"/>
	<rect x="445.1" y="227.5" class="st0" width="59" height="73"/>
	<rect x="461.1" y="204.5" class="st0" width="36" height="46"/>
	<rect x="457.6" y="196.5" class="st0" width="26.5" height="47.3"/>
	<rect x="497.1" y="235.5" class="st0" width="14" height="22"/>
	<ellipse class="st0" cx="294.1" cy="126.5" rx="112" ry="109"/>
	<circle class="st0" cx="379.1" cy="73.5" r="14"/>
</g>
<g id="Layer_1">
	<g>
		<g>
			<g>
				<path class="st1" d="M515.2,282.2V263h28.3l-66.7-93.3L410.2,263h28.3v19.2h-67.2h-22.3h-16.1v-45.1
					c44.7-15.9,76.8-58.4,76.8-108.5c0-8.7-1.1-17.3-3-25.7l32.2,21.5c-0.2,1.4-0.4,2.8-0.4,4.2c0,15.9,12.9,28.8,28.8,28.8
					s28.8-12.9,28.8-28.8c0-4.1-0.9-8-2.4-11.5l56.5-49.4c4,2.1,8.4,3.3,13.2,3.3c15.9,0,28.8-12.9,28.8-28.8
					c0-15.9-12.9-28.8-28.8-28.8c-15.9,0-28.8,12.9-28.8,28.8c0,4.1,0.9,8,2.4,11.5l-56.5,49.4c-4-2.1-8.4-3.3-13.2-3.3
					c-7.5,0-14.2,2.9-19.3,7.6l-40.1-26.7c1.1-3,1.8-6.3,1.8-9.7c0-15.9-12.9-28.8-28.8-28.8c-3.1,0-6,0.6-8.8,1.5
					c-21.3-19.5-48.5-30.3-77.6-30.3c-63.5,0-115.2,51.7-115.2,115.2c0,50.1,32.1,92.6,76.8,108.5v45.1H131.2V119h28.3L92.8,25.7
					L26.1,119h28.3v163.2h-7.2L3.2,435.9h41.5v172.8h316.8h9.6H544V435.9h41.5l-43.9-153.6L515.2,282.2L515.2,282.2z M563.2,32.6
					c5.3,0,9.6,4.3,9.6,9.6s-4.3,9.6-9.6,9.6c-5.3,0-9.6-4.3-9.6-9.6S557.9,32.6,563.2,32.6z M467.2,119c5.3,0,9.6,4.3,9.6,9.6
					s-4.3,9.6-9.6,9.6c-5.3,0-9.6-4.3-9.6-9.6S461.9,119,467.2,119z M380.8,61.4c5.3,0,9.6,4.3,9.6,9.6s-4.3,9.6-9.6,9.6
					c-5.3,0-9.6-4.3-9.6-9.6S375.5,61.4,380.8,61.4z M198.4,128.6c0-52.9,43.1-96,96-96c23.1,0,44.8,8.1,62.2,23
					C353.7,60,352,65.3,352,71c0,3,0.6,5.8,1.4,8.6c-14.1-16.9-35.3-27.8-59.1-27.8c-42.4,0-76.8,34.5-76.8,76.8
					s34.5,76.8,76.8,76.8s76.8-34.5,76.8-76.8c0-11.4-2.5-22.1-7-31.8l1.8-1.2c4.3,2.6,9.4,4.2,14.8,4.2c1.7,0,3.4-0.2,5-0.5
					c3,9.5,4.6,19.3,4.6,29.3c0,52.9-43.1,96-96,96C241.5,224.6,198.4,181.6,198.4,128.6z M294.4,99.8c-15.9,0-28.8,12.9-28.8,28.8
					c0,15.9,12.9,28.8,28.8,28.8s28.8-12.9,28.8-28.8c0-1.4-0.2-2.8-0.4-4.2l25.2-16.8c2.6,6.5,4,13.6,4,21
					c0,31.8-25.8,57.6-57.6,57.6s-57.6-25.8-57.6-57.6S262.6,71,294.4,71c17.5,0,33.1,7.8,43.7,20.2l-24.4,16.2
					C308.6,102.7,301.9,99.8,294.4,99.8z M304,128.6c0,5.3-4.3,9.6-9.6,9.6c-5.3,0-9.6-4.3-9.6-9.6s4.3-9.6,9.6-9.6
					C299.7,119,304,123.3,304,128.6z M313.6,242.1v40.1h-38.4v-40.1c6.3,1.1,12.6,1.7,19.2,1.7C301,243.8,307.3,243.1,313.6,242.1z
					 M92.8,58.7l29.4,41.1H112v182.4H73.6V99.8H63.4L92.8,58.7z M28.7,416.6l32.9-115.2h287.3L316,416.6H28.7z M352,589.5H64V435.9
					h266.5l21.6-75.5V589.5z M476.8,202.7l29.4,41.1H496v38.4h-38.4v-38.4h-10.1L476.8,202.7z M524.8,589.5H371.2V360.4l21.6,75.5
					h132.1L524.8,589.5L524.8,589.5z M407.3,416.6l-32.9-115.2h152.9l32.9,115.2H407.3z"/>
				<rect x="313.6" y="551.1" class="st1" width="19.2" height="19.2"/>
				<rect x="275.2" y="551.1" class="st1" width="19.2" height="19.2"/>
				<rect x="236.8" y="551.1" class="st1" width="19.2" height="19.2"/>
				<rect x="313.6" y="512.7" class="st1" width="19.2" height="19.2"/>
				<rect x="313.6" y="474.3" class="st1" width="19.2" height="19.2"/>
				<rect x="275.2" y="512.7" class="st1" width="19.2" height="19.2"/>
			</g>
		</g>
	</g>
</g>
</svg>
