<?xml version="1.0" encoding="utf-8"?>
<!-- Generator: Adobe Illustrator 21.0.0, SVG Export Plug-In . SVG Version: 6.00 Build 0)  -->
<svg version="1.1" id="Слой_1" xmlns="http://www.w3.org/2000/svg" xmlns:xlink="http://www.w3.org/1999/xlink" x="0px" y="0px"
	 viewBox="0 0 595.3 610" style="enable-background:new 0 0 595.3 610;" xml:space="preserve">
<style type="text/css">
	.st0{fill:#FFFFFF;}
	.st1{fill:#3D4A5A;}
</style>
<g id="Слой_2">
	<path class="st0" d="M585.7,567.2c0,15.7-12.7,28.3-28.3,28.3H43.5c-15.7,0-28.3-12.7-28.3-28.3V47.9c0-15.7,12.7-28.3,28.3-28.3
		h513.8c15.7,0,28.3,12.7,28.3,28.3L585.7,567.2L585.7,567.2z"/>
</g>
<g id="Layer_1">
	<g>
		<g>
			<g>
				<rect x="172.8" y="134.2" class="st1" width="19.2" height="28.8"/>
				<rect x="211.2" y="134.2" class="st1" width="19.2" height="28.8"/>
				<rect x="249.6" y="134.2" class="st1" width="19.2" height="28.8"/>
				<rect x="288" y="134.2" class="st1" width="19.2" height="28.8"/>
				<rect x="326.4" y="134.2" class="st1" width="19.2" height="28.8"/>
				<rect x="364.8" y="134.2" class="st1" width="19.2" height="28.8"/>
				<rect x="403.3" y="134.2" class="st1" width="19.2" height="28.8"/>
				<rect x="172.8" y="451.1" class="st1" width="19.2" height="28.8"/>
				<rect x="211.2" y="451.1" class="st1" width="19.2" height="28.8"/>
				<rect x="249.6" y="451.1" class="st1" width="19.2" height="28.8"/>
				<rect x="288" y="451.1" class="st1" width="19.2" height="28.8"/>
				<rect x="326.4" y="451.1" class="st1" width="19.2" height="28.8"/>
				<rect x="364.8" y="451.1" class="st1" width="19.2" height="28.8"/>
				<rect x="403.3" y="451.1" class="st1" width="19.2" height="28.8"/>
				<rect x="441.7" y="182.2" class="st1" width="28.8" height="19.2"/>
				<rect x="441.7" y="220.6" class="st1" width="28.8" height="19.2"/>
				<rect x="441.7" y="259" class="st1" width="28.8" height="19.2"/>
				<rect x="441.7" y="297.4" class="st1" width="28.8" height="19.2"/>
				<rect x="441.7" y="335.8" class="st1" width="28.8" height="19.2"/>
				<rect x="441.7" y="374.2" class="st1" width="28.8" height="19.2"/>
				<rect x="441.7" y="412.6" class="st1" width="28.8" height="19.2"/>
				<rect x="124.8" y="182.2" class="st1" width="28.8" height="19.2"/>
				<rect x="124.8" y="220.6" class="st1" width="28.8" height="19.2"/>
				<rect x="124.8" y="259" class="st1" width="28.8" height="19.2"/>
				<rect x="124.8" y="297.4" class="st1" width="28.8" height="19.2"/>
				<rect x="124.8" y="335.8" class="st1" width="28.8" height="19.2"/>
				<rect x="124.8" y="374.2" class="st1" width="28.8" height="19.2"/>
				<rect x="124.8" y="412.6" class="st1" width="28.8" height="19.2"/>
				<path class="st1" d="M547.3,65.2v102.2l-22.1,14.7h-35.5v19.2H531l35.5-23.7V65.2c11.1-4,19.2-14.5,19.2-27
					c0-15.9-12.9-28.8-28.8-28.8s-28.8,12.9-28.8,28.8C528.1,50.7,536.1,61.3,547.3,65.2z M556.9,28.6c5.3,0,9.6,4.3,9.6,9.6
					s-4.3,9.6-9.6,9.6c-5.3,0-9.6-4.3-9.6-9.6S551.6,28.6,556.9,28.6z"/>
				<rect x="489.7" y="220.6" class="st1" width="105.6" height="19.2"/>
				<rect x="489.7" y="259" class="st1" width="105.6" height="19.2"/>
				<polygon class="st1" points="552.4,297.4 489.7,297.4 489.7,316.6 542.1,316.6 561.3,345.4 595.3,345.4 595.3,326.2 
					571.6,326.2 				"/>
				<rect x="489.7" y="335.8" class="st1" width="38.4" height="19.2"/>
				<rect x="489.7" y="374.2" class="st1" width="105.6" height="19.2"/>
				<path class="st1" d="M522.4,412.6h-32.8v19.2h24.8l23.2,23.2v17c-11.2,4-19.2,14.5-19.2,27c0,15.9,12.9,28.8,28.8,28.8
					c15.9,0,28.8-12.9,28.8-28.8c0-12.5-8.1-23.1-19.2-27v-24.9L522.4,412.6z M547.3,508.7c-5.3,0-9.6-4.3-9.6-9.6s4.3-9.6,9.6-9.6
					c5.3,0,9.6,4.3,9.6,9.6S552.6,508.7,547.3,508.7z"/>
				<polygon class="st1" points="422.5,523.9 422.5,499.1 403.3,499.1 403.3,531.8 437.7,566.3 595.3,566.3 595.3,547.1 
					445.6,547.1 				"/>
				<polygon class="st1" points="384.1,562.3 384.1,499.1 364.8,499.1 364.8,570.2 399.3,604.7 595.3,604.7 595.3,585.5 
					407.2,585.5 				"/>
				<rect x="326.4" y="499.1" class="st1" width="19.2" height="105.6"/>
				<polygon class="st1" points="288,508.7 268.8,508.7 268.8,499.1 249.6,499.1 249.6,527.9 307.2,527.9 307.2,499.1 288,499.1 
									"/>
				<path class="st1" d="M278.4,547.1c-11.9,0-22.1,7.2-26.5,17.5l-21.5-21.5v-44h-19.2v52l34.4,34.4h5.7c4,11.1,14.5,19.2,27,19.2
					c15.9,0,28.8-12.9,28.8-28.8C307.2,560,294.3,547.1,278.4,547.1z M278.4,585.5c-5.3,0-9.6-4.3-9.6-9.6c0-5.3,4.3-9.6,9.6-9.6
					s9.6,4.3,9.6,9.6C288,581.2,283.7,585.5,278.4,585.5z"/>
				<path class="st1" d="M172.8,543.1l-23.2,23.2H55.8c-2.9-8.1-9.3-14.5-17.4-17.4V416.6l23.2-23.2h44v-19.2h-52l-34.4,34.4v140.2
					C8,552.8,0,563.4,0,575.9c0,15.9,12.9,28.8,28.8,28.8c12.5,0,23.1-8.1,27-19.2h101.8L192,551v-52h-19.2V543.1z M28.8,585.5
					c-5.3,0-9.6-4.3-9.6-9.6c0-5.3,4.3-9.6,9.6-9.6s9.6,4.3,9.6,9.6C38.4,581.2,34.1,585.5,28.8,585.5z"/>
				<path class="st1" d="M100,431.9h5.6v-19.2H92l-34.4,34.4v27.2L92,508.7h5.7c4,11.1,14.5,19.2,27,19.2
					c15.9,0,28.8-12.9,28.8-28.8c0-15.9-12.9-28.8-28.8-28.8c-11.9,0-22.1,7.2-26.5,17.5l-21.5-21.5V455L100,431.9z M124.8,489.5
					c5.3,0,9.6,4.3,9.6,9.6s-4.3,9.6-9.6,9.6s-9.6-4.3-9.6-9.6S119.5,489.5,124.8,489.5z"/>
				<rect y="335.8" class="st1" width="105.6" height="19.2"/>
				<path class="st1" d="M19.2,65.2v217l34.4,34.4h52v-19.2h-44l-23.2-23.2v-49.7l15.2,15.2h52v-19.2h-44l-23.2-23.2V65.2
					c11.1-4,19.2-14.5,19.2-27c0-15.9-12.9-28.8-28.8-28.8C12.9,9.4,0,22.3,0,38.2C0,50.7,8,61.3,19.2,65.2z M28.8,28.6
					c5.3,0,9.6,4.3,9.6,9.6s-4.3,9.6-9.6,9.6c-5.3,0-9.6-4.3-9.6-9.6S23.5,28.6,28.8,28.6z"/>
				<rect x="67.2" y="259" class="st1" width="38.4" height="19.2"/>
				<path class="st1" d="M57.6,167L92,201.4h13.6v-19.2H100L76.8,159V71L100,47.8h111.2V115h19.2V47.8h19.2V115h19.2V47.8H288V115
					h19.2V86.2l19.2,14.4V115h19.2V91l-38.4-28.8V47.8h11.4c4,11.1,14.5,19.2,27,19.2c15.9,0,28.8-12.9,28.8-28.8
					c0-15.9-12.9-28.8-28.8-28.8c-12.5,0-23.1,8.1-27,19.2H92L57.6,63V167z M345.6,28.6c5.3,0,9.6,4.3,9.6,9.6s-4.3,9.6-9.6,9.6
					c-5.3,0-9.6-4.3-9.6-9.6S340.3,28.6,345.6,28.6z"/>
				<path class="st1" d="M192,86.2h-40.2c-4-11.1-14.5-19.2-27-19.2C108.9,67,96,79.9,96,95.8s12.9,28.8,28.8,28.8
					c12.5,0,23.1-8.1,27-19.2h21v9.6H192V86.2z M124.8,105.4c-5.3,0-9.6-4.3-9.6-9.6s4.3-9.6,9.6-9.6c5.3,0,9.6,4.3,9.6,9.6
					S130.1,105.4,124.8,105.4z"/>
				<path class="st1" d="M403.3,115h19.2v-9.6h49.8c4,11.1,14.5,19.2,27,19.2c15.9,0,28.8-12.9,28.8-28.8S515.1,67,499.3,67
					c-12.5,0-23.1,8.1-27,19.2h-69L403.3,115L403.3,115z M499.3,86.2c5.3,0,9.6,4.3,9.6,9.6s-4.3,9.6-9.6,9.6
					c-5.3,0-9.6-4.3-9.6-9.6S494,86.2,499.3,86.2z"/>
				<polygon class="st1" points="364.8,115 384.1,115 384.1,90.2 412.9,61.4 412.9,9.4 393.7,9.4 393.7,53.4 364.8,82.2 				"/>
				<path class="st1" d="M326.4,335.8c31.8,0,57.6-25.8,57.6-57.6s-25.8-57.6-57.6-57.6c-31.8,0-57.6,25.8-57.6,57.6
					S294.7,335.8,326.4,335.8z M326.4,239.8c21.2,0,38.4,17.2,38.4,38.4s-17.2,38.4-38.4,38.4c-21.2,0-38.4-17.2-38.4-38.4
					S305.3,239.8,326.4,239.8z"/>
				<path class="st1" d="M289.7,366.9c11.3,4.7,23.7,7.3,36.7,7.3c52.9,0,96-43.1,96-96s-43.1-96-96-96s-96,43.1-96,96
					c0,13,2.6,25.4,7.3,36.7l-54.2,54.2c-6.9,6.9-10.8,16.2-10.8,26c0,20.3,16.5,36.8,36.8,36.8c9.8,0,19-3.8,26-10.8L289.7,366.9z
					 M326.4,201.4c42.4,0,76.8,34.5,76.8,76.8S368.8,355,326.4,355c-42.4,0-76.8-34.5-76.8-76.8S284.1,201.4,326.4,201.4z
					 M209.6,412.6c-9.7,0-17.6-7.9-17.6-17.6c0-4.6,1.9-9.1,5.1-12.4l50.2-50.2c6.7,9.7,15.1,18.1,24.8,24.8L222,407.5
					C218.7,410.8,214.2,412.6,209.6,412.6z"/>
			</g>
		</g>
	</g>
</g>
</svg>
