<svg xmlns="http://www.w3.org/2000/svg" viewBox="0 0 496 496"><defs><style>.cls-1{fill:#334b61;}</style></defs><title>analytics</title><g id="Слой_2" data-name="Слой 2"><g id="Layer_1" data-name="Layer 1"><path class="cls-1" d="M225.58,312H74.37l-3.43-24H32v16H57.06l16,112H206.68ZM202,352H176V328h30.42Zm-74,0V328h32v24Zm32,16v32H128V368Zm-48-40v24H80.08l-3.42-24ZM86.94,400l-4.57-32H112v32ZM176,400V368h23.14l-5.82,32Z"/><path class="cls-1" d="M72,440a24,24,0,1,0,24-24A24,24,0,0,0,72,440Zm24-8a8,8,0,1,1-8,8A8,8,0,0,1,96,432Z"/><path class="cls-1" d="M160,440a24,24,0,1,0,24-24A24,24,0,0,0,160,440Zm24-8a8,8,0,1,1-8,8A8,8,0,0,1,184,432Z"/><path class="cls-1" d="M304,336a40,40,0,1,0,40,40A40,40,0,0,0,304,336Zm0,64a24,24,0,1,1,24-24A24,24,0,0,1,304,400Z"/><path class="cls-1" d="M464,344H400V76.69L323.31,0H0V496H400V408h64a32,32,0,0,0,0-64ZM312,73.47A23.73,23.73,0,0,0,304,72a24,24,0,0,0-24,24,23.61,23.61,0,0,0,2.41,10.28L242.29,146.4a23.25,23.25,0,0,0-22.27.93l-37.63-26.88A23.75,23.75,0,0,0,184,112a24,24,0,0,0-48,0,23.75,23.75,0,0,0,1.62,8.45L100,147.33A23.7,23.7,0,0,0,88,144a23.94,23.94,0,0,0-8,46.53V216H64v16H328V216H312V118.53A23.58,23.58,0,0,0,326.53,88H352V248H48V56H312ZM240,216V190.53A24,24,0,0,0,256,168a23.72,23.72,0,0,0-2.41-10.28l40.12-40.12a23.46,23.46,0,0,0,2.28.93V216ZM96,168a8,8,0,1,1-8-8A8,8,0,0,1,96,168Zm0,22.53a23.65,23.65,0,0,0,14.38-31L148,132.67a23.47,23.47,0,0,0,4,1.86V216H96ZM160,120a8,8,0,1,1,8-8A8,8,0,0,1,160,120Zm8,14.53a23.76,23.76,0,0,0,4-1.86l37.63,26.88a23.65,23.65,0,0,0,14.38,31V216H168ZM240,168a8,8,0,1,1-8-8A8,8,0,0,1,240,168Zm64-64a8,8,0,1,1,8-8A8,8,0,0,1,304,104Zm24-32V27.31L372.69,72Zm56,408H16V16H312V40H32V264H368V88h16V344H368.4a72,72,0,1,0,0,64H384ZM360,376a56,56,0,1,1-56-56A56.07,56.07,0,0,1,360,376Zm104,16H374.14a69.89,69.89,0,0,0,0-32H464a16,16,0,0,1,0,32Z"/></g></g></svg>