<svg xmlns="http://www.w3.org/2000/svg" viewBox="0 0 496 496"><defs><style>.cls-1{fill:#334b61;}</style></defs><title>analysis</title><g id="Слой_2" data-name="Слой 2"><g id="Layer_1" data-name="Layer 1"><rect class="cls-1" x="320" y="240" width="16" height="16"/><rect class="cls-1" x="352" y="240" width="16" height="16"/><rect class="cls-1" x="384" y="240" width="16" height="16"/><rect class="cls-1" x="416" y="240" width="16" height="16"/><rect class="cls-1" x="448" y="240" width="16" height="16"/><rect class="cls-1" x="448" y="272" width="16" height="16"/><rect class="cls-1" x="448" y="304" width="16" height="16"/><rect class="cls-1" x="448" y="336" width="16" height="16"/><rect class="cls-1" x="448" y="368" width="16" height="16"/><rect class="cls-1" x="448" y="400" width="16" height="16"/><rect class="cls-1" x="448" y="432" width="16" height="16"/><rect class="cls-1" x="448" y="464" width="16" height="16"/><path class="cls-1" d="M320,144.31V92.16l16.31,8.78A29.72,29.72,0,0,0,336,104a32,32,0,1,0,62.58-8.94L446.8,58.9A31.94,31.94,0,1,0,432,32a31.58,31.58,0,0,0,3.94,15.06L390.4,81.2a31.88,31.88,0,0,0-48.61,4.53L320,74V16H243.55a31.72,31.72,0,0,0-55.1,0H0V160H89.14a28.74,28.74,0,0,0,0,16H0V320H237.13a104.6,104.6,0,0,0,19.7,16H0V480H280v-.25A39.88,39.88,0,0,0,352,456V343.92A104.2,104.2,0,0,0,407.83,288H416V496h16V272H320v16h31.06a56,56,0,1,1,0-80H320v16H480V496h16V208H407.83A104.17,104.17,0,0,0,320,144.31ZM464,16a16,16,0,1,1-16,16A16,16,0,0,1,464,16ZM368,88a16,16,0,1,1-16,16A16,16,0,0,1,368,88ZM237.13,176H150.86a28.74,28.74,0,0,0,0-16h106A104.6,104.6,0,0,0,237.13,176ZM136,168a16,16,0,1,1-16-16A16,16,0,0,1,136,168Zm168-24H140.94c-.59-.52-1.19-1-1.82-1.5l61.82-82.43A31.58,31.58,0,0,0,216,64a31.92,31.92,0,0,0,26.2-13.73L304,83.55Zm0-112V65.38L247.69,35.06A29.72,29.72,0,0,0,248,32ZM216,16a16,16,0,1,1-16,16A16,16,0,0,1,216,16ZM16,32H184a31.75,31.75,0,0,0,5.1,17.2l-65.38,87.18A31.66,31.66,0,0,0,120,136a31.7,31.7,0,0,0-20.94,8H16Zm0,272V192H99.06a31.42,31.42,0,0,0,41.89,0H224.5a103.26,103.26,0,0,0,0,112Zm0,160V352H272V456a40,40,0,0,0,.81,8Zm320-8a24,24,0,0,1-48,0V349.1a102,102,0,0,0,48,.08ZM312,176a72,72,0,1,0,59.61,112h18.62a88,88,0,1,1,0-80H371.61A72.11,72.11,0,0,0,312,176Z"/><rect class="cls-1" x="304" y="224" width="16" height="16"/><rect class="cls-1" x="304" y="256" width="16" height="16"/><rect class="cls-1" x="288" y="240" width="16" height="16"/><rect class="cls-1" x="32" y="432" width="16" height="16"/><rect class="cls-1" x="32" y="400" width="16" height="16"/><rect class="cls-1" x="64" y="432" width="16" height="16"/><rect class="cls-1" x="96" y="432" width="16" height="16"/><rect class="cls-1" x="64" y="400" width="16" height="16"/><rect class="cls-1" x="32" y="368" width="16" height="16"/></g></g></svg>