<svg xmlns="http://www.w3.org/2000/svg" viewBox="0 0 490.61 496"><defs><style>.cls-1{fill:#334b61;}</style></defs><title>analysis-2</title><g id="Слой_2" data-name="Слой 2"><g id="Layer_1" data-name="Layer 1"><path class="cls-1" d="M448.64,224h-22V208h23.54l-55.54-77.77L339.06,208h23.54v16h-88V186.4A95.5,95.5,0,0,0,336.13,74.62L363,92.51A24,24,0,1,0,410.61,96a23.72,23.72,0,0,0-2-9.59l47.06-41.18a23.75,23.75,0,0,0,11,2.78,24,24,0,1,0-24-24,23.72,23.72,0,0,0,2,9.59L397.58,74.78a23.42,23.42,0,0,0-27.06,3.54l-33.4-22.26a23.64,23.64,0,0,0,1.5-8.06,24,24,0,0,0-24-24,23.73,23.73,0,0,0-7.34,1.26A95,95,0,0,0,242.61,0a95.94,95.94,0,0,0-32,186.4V224h-104V88h23.54L74.61,10.23,19.06,88H42.61V224h-6L0,352H34.61V496h416V352h34.61Zm-78.49-32,24.46-34.23L419.06,192h-8.46v32h-32V192Zm66.42,48L464,336H336.64l-27.42-96Zm30-224a8,8,0,1,1-8,8A8,8,0,0,1,466.61,16Zm-80,72a8,8,0,1,1-8,8A8,8,0,0,1,386.61,88Zm-64-40a8,8,0,1,1-8-8A8,8,0,0,1,322.61,48Zm-32,48A48.15,48.15,0,1,1,279,64.79L258.7,78.33A23.78,23.78,0,0,0,242.61,72a24.75,24.75,0,1,0,23.65,20.51l21-14A47.77,47.77,0,0,1,290.61,96Zm-40,0a8,8,0,1,1-8-8A8,8,0,0,1,250.61,96Zm-88,0a80.09,80.09,0,0,1,80-80,79.15,79.15,0,0,1,51.81,19.13,22.94,22.94,0,0,0-2.6,20,64.68,64.68,0,1,0,9,14.36l1.5-1a22.65,22.65,0,0,0,16.47,3.08A80,80,0,1,1,162.61,96Zm64,94.55a89.12,89.12,0,0,0,32,0V224h-32ZM50.15,72,74.61,37.77,99.06,72H90.61V224h-32V72ZM21.22,336l27.42-96H288l-27.42,96ZM290.61,480h-240V352h222l18-62.88Zm144,0h-128V289.12l18,62.88h110Z"/><rect class="cls-1" x="258.61" y="448" width="16" height="16"/><rect class="cls-1" x="226.61" y="448" width="16" height="16"/><rect class="cls-1" x="194.61" y="448" width="16" height="16"/><rect class="cls-1" x="258.61" y="416" width="16" height="16"/><rect class="cls-1" x="258.61" y="384" width="16" height="16"/><rect class="cls-1" x="226.61" y="416" width="16" height="16"/></g></g></svg>