<?xml version="1.0" encoding="utf-8"?>
<!-- Generator: Adobe Illustrator 21.0.0, SVG Export Plug-In . SVG Version: 6.00 Build 0)  -->
<svg version="1.1" id="Слой_1" xmlns="http://www.w3.org/2000/svg" xmlns:xlink="http://www.w3.org/1999/xlink" x="0px" y="0px"
	 viewBox="0 0 496 496" style="enable-background:new 0 0 496 496;" xml:space="preserve">
<style type="text/css">
	.st0{fill:#334B61;}
</style>
<path id="Слой_2" class="st0" d="M320,240h16v16h-16V240z M352,240h16v16h-16V240z M384,240h16v16h-16V240z M416,240h16v16h-16
	V240z M448,240h16v16h-16V240z M448,272h16v16h-16V272z M448,304h16v16h-16V304z M448,336h16v16h-16V336z M448,368h16v16h-16V368z
	 M448,400h16v16h-16V400z M448,432h16v16h-16V432z M448,464h16v16h-16V464z M320,144.3V92.2l16.3,8.8c-0.2,1-0.3,2-0.3,3.1
	c-0.3,17.7,13.9,32.2,31.5,32.5s32.2-13.9,32.5-31.5c0-3.4-0.4-6.7-1.4-9.9l48.2-36.2c14.9,9.5,34.6,5.1,44.1-9.8
	c9.5-14.9,5.1-34.6-9.8-44.1s-34.6-5.1-44.1,9.8c-3.3,5.1-5,11.1-5,17.2c0,5.3,1.4,10.4,3.9,15.1l-45.5,34.1
	c-12.5-12.4-32.7-12.2-45.1,0.3c-1.3,1.3-2.5,2.7-3.5,4.3L320,74V16h-76.4c-8.7-15.2-28.1-20.5-43.3-11.8c-4.9,2.8-9,6.9-11.8,11.8
	H0v144h89.1c-1.5,5.2-1.5,10.8,0,16H0v144h237.1c5.9,6.1,12.5,11.5,19.7,16H0v144h280v-0.3c13.1,17.7,38,21.5,55.8,8.5
	C346,480.7,352,468.7,352,456V343.9c25.2-10.6,45.3-30.7,55.8-55.9h8.2v208h16V272H320v16h31.1c-22.1,21.6-57.5,21.3-79.2-0.8
	s-21.3-57.5,0.8-79.2c21.8-21.3,56.6-21.3,78.4,0H320v16h160v272h16V208h-88.2C392.8,172,358.9,147.4,320,144.3z M464,16
	c8.8,0,16,7.2,16,16s-7.2,16-16,16s-16-7.2-16-16S455.2,16,464,16z M368,88c8.8,0,16,7.2,16,16s-7.2,16-16,16s-16-7.2-16-16
	S359.2,88,368,88z M237.1,176h-86.3c1.5-5.2,1.5-10.8,0-16h106C249.7,164.5,243,169.9,237.1,176z M136,168c0,8.8-7.2,16-16,16
	s-16-7.2-16-16s7.2-16,16-16S136,159.2,136,168z M304,144H140.9c-0.6-0.5-1.2-1-1.8-1.5l61.8-82.4c4.6,2.5,9.8,3.9,15.1,3.9
	c10.5,0,20.2-5.1,26.2-13.7L304,83.6V144z M304,32v33.4l-56.3-30.3c0.2-1,0.3-2,0.3-3.1H304z M216,16c8.8,0,16,7.2,16,16
	s-7.2,16-16,16s-16-7.2-16-16S207.2,16,216,16z M16,32h168c0,6.1,1.8,12.1,5.1,17.2l-65.4,87.2c-1.2-0.2-2.5-0.3-3.7-0.4
	c-7.7,0-15.2,2.9-20.9,8H16V32z M16,304V192h83.1c11.9,10.7,30,10.7,41.9,0h83.6c-22,34.1-22,77.9,0,112H16z M16,464V352h256v104
	c0,2.7,0.3,5.4,0.8,8H16z M336,456c0,13.3-10.7,24-24,24s-24-10.7-24-24V349.1c15.8,3.8,32.2,3.9,48,0.1V456z M312,176
	c-39.8-0.1-72.1,32-72.3,71.7s32,72.1,71.7,72.3c24.1,0.1,46.7-11.9,60.1-32h18.6c-22.1,43.3-75.1,60.5-118.4,38.4
	s-60.5-75.1-38.4-118.4s75.1-60.5,118.4-38.4c16.5,8.4,30,21.9,38.4,38.4h-18.6C358.3,188.1,336,176.1,312,176z M304,224h16v16h-16
	V224z M304,256h16v16h-16V256z M288,240h16v16h-16V240z M32,432h16v16H32V432z M32,400h16v16H32V400z M64,432h16v16H64V432z M96,432
	h16v16H96V432z M64,400h16v16H64V400z M32,368h16v16H32V368z"/>
</svg>
