<?xml version="1.0" encoding="utf-8"?>
<!-- Generator: Adobe Illustrator 21.0.0, SVG Export Plug-In . SVG Version: 6.00 Build 0)  -->
<svg version="1.1" id="Слой_1" xmlns="http://www.w3.org/2000/svg" xmlns:xlink="http://www.w3.org/1999/xlink" x="0px" y="0px"
	 viewBox="0 0 595.3 615" style="enable-background:new 0 0 595.3 615;" xml:space="preserve">
<style type="text/css">
	.st0{fill:#FFFFFF;}
	.st1{fill:#3D4A5A;}
</style>
<g id="Слой_2">
	<path class="st0" d="M591.1,576.3c0,15.7-12.7,28.3-28.3,28.3H28.3C12.7,604.7,0,592,0,576.3V76.1c0-15.7,12.7-28.3,28.3-28.3
		h534.4c15.7,0,28.3,12.7,28.3,28.3L591.1,576.3L591.1,576.3z"/>
	<path class="st0" d="M476.1,183.8c0,14.8-10.7,26.8-23.9,26.8h-97.7c-13.2,0-23.9-12-23.9-26.8V51.3c0-14.8,10.7-26.8,23.9-26.8
		h97.7c13.2,0,23.9,12,23.9,26.8L476.1,183.8L476.1,183.8z"/>
</g>
<g id="Layer_1">
	<g>
		<g>
			<g>
				<path class="st1" d="M414.5,347.8l106.4-106.4c7.6,5,16.7,8,26.4,8c26.5,0,48-21.5,48-48s-21.5-48-48-48s-48,21.5-48,48
					c0,9.8,3,18.8,8,26.4L400.9,334.2c-7.6-5-16.7-8-26.4-8c-6.6,0-13,1.4-18.7,3.8l-73.1-97.4c3.3-6.5,5.4-13.8,5.4-21.6
					c0-26.5-21.5-48-48-48s-48,21.5-48,48c0,9.7,2.9,18.7,7.9,26.2L68.6,359.8c-6.3-3-13.2-4.8-20.6-4.8c-26.5,0-48,21.5-48,48
					c0,26.5,21.5,48,48,48s48-21.5,48-48c0-12-4.6-22.9-12-31.4l129.4-120.7c7.6,5.1,16.8,8.1,26.6,8.1c11.5,0,21.9-4.2,30.2-11
					l69.7,93c-8.3,8.6-13.5,20.3-13.5,33.2c0,26.5,21.5,48,48,48s48-21.5,48-48C422.5,364.5,419.5,355.4,414.5,347.8z M547.3,172.6
					c15.9,0,28.8,12.9,28.8,28.8s-12.9,28.8-28.8,28.8c-15.9,0-28.8-12.9-28.8-28.8S531.4,172.6,547.3,172.6z M48,431.9
					c-15.9,0-28.8-12.9-28.8-28.8c0-15.9,12.9-28.8,28.8-28.8s28.8,12.9,28.8,28.8C76.8,418.9,63.9,431.9,48,431.9z M240,239.8
					c-15.9,0-28.8-12.9-28.8-28.8c0-15.9,12.9-28.8,28.8-28.8s28.8,12.9,28.8,28.8C268.8,226.9,255.9,239.8,240,239.8z M374.5,403
					c-15.9,0-28.8-12.9-28.8-28.8c0-15.9,12.9-28.8,28.8-28.8s28.8,12.9,28.8,28.8C403.3,390.1,390.3,403,374.5,403z"/>
				<path class="st1" d="M384.1,143.8h54.4l51.2,38.4V76.6c0-37.1-30.2-67.2-67.2-67.2h-38.4c-37.1,0-67.2,30.2-67.2,67.2
					C316.8,113.7,347,143.8,384.1,143.8z M384.1,28.6h38.4c26.5,0,48,21.5,48,48v67.2l-25.6-19.2h-60.8c-26.5,0-48-21.5-48-48
					S357.6,28.6,384.1,28.6z"/>
				<rect x="364.8" y="47.8" class="st1" width="76.8" height="19.2"/>
				<rect x="364.8" y="86.2" class="st1" width="38.4" height="19.2"/>
				<rect x="422.5" y="86.2" class="st1" width="19.2" height="19.2"/>
				<path class="st1" d="M67.2,182.2h54.4l51.2,38.4V115c0-37.1-30.2-67.2-67.2-67.2H67.2C30.2,47.8,0,78,0,115
					C0,152.1,30.2,182.2,67.2,182.2z M67.2,67h38.4c26.5,0,48,21.5,48,48v67.2L128,163H67.2c-26.5,0-48-21.5-48-48
					C19.2,88.5,40.7,67,67.2,67z"/>
				<rect x="48" y="86.2" class="st1" width="76.8" height="19.2"/>
				<rect x="48" y="124.6" class="st1" width="38.4" height="19.2"/>
				<rect x="105.6" y="124.6" class="st1" width="19.2" height="19.2"/>
				<path class="st1" d="M201.6,470.3h-54.4L96,431.9v105.6c0,37.1,30.2,67.2,67.2,67.2h38.4c37.1,0,67.2-30.2,67.2-67.2
					C268.8,500.4,238.7,470.3,201.6,470.3z M201.6,585.5h-38.4c-26.5,0-48-21.5-48-48v-67.2l25.6,19.2h60.8c26.5,0,48,21.5,48,48
					S228.1,585.5,201.6,585.5z"/>
				<rect x="144" y="547.1" class="st1" width="76.8" height="19.2"/>
				<rect x="182.4" y="508.7" class="st1" width="38.4" height="19.2"/>
				<rect x="144" y="508.7" class="st1" width="19.2" height="19.2"/>
				<path class="st1" d="M528.1,451.1h-54.4l-51.2-38.4v105.6c0,37.1,30.2,67.2,67.2,67.2h38.4c37.1,0,67.2-30.2,67.2-67.2
					C595.3,481.2,565.1,451.1,528.1,451.1z M528.1,566.3h-38.4c-26.5,0-48-21.5-48-48v-67.2l25.6,19.2h60.8c26.5,0,48,21.5,48,48
					S554.5,566.3,528.1,566.3z"/>
				<rect x="470.5" y="527.9" class="st1" width="76.8" height="19.2"/>
				<rect x="508.9" y="489.5" class="st1" width="38.4" height="19.2"/>
				<rect x="470.5" y="489.5" class="st1" width="19.2" height="19.2"/>
			</g>
		</g>
	</g>
</g>
</svg>
