<svg xmlns="http://www.w3.org/2000/svg" viewBox="0 0 496 496"><defs><style>.cls-1{fill:#334b61;}</style></defs><title>analysis-3</title><g id="Слой_2" data-name="Слой 2"><g id="Layer_1" data-name="Layer 1"><rect class="cls-1" x="144" y="104" width="16" height="24"/><rect class="cls-1" x="176" y="104" width="16" height="24"/><rect class="cls-1" x="208" y="104" width="16" height="24"/><rect class="cls-1" x="240" y="104" width="16" height="24"/><rect class="cls-1" x="272" y="104" width="16" height="24"/><rect class="cls-1" x="304" y="104" width="16" height="24"/><rect class="cls-1" x="336" y="104" width="16" height="24"/><rect class="cls-1" x="144" y="368" width="16" height="24"/><rect class="cls-1" x="176" y="368" width="16" height="24"/><rect class="cls-1" x="208" y="368" width="16" height="24"/><rect class="cls-1" x="240" y="368" width="16" height="24"/><rect class="cls-1" x="272" y="368" width="16" height="24"/><rect class="cls-1" x="304" y="368" width="16" height="24"/><rect class="cls-1" x="336" y="368" width="16" height="24"/><rect class="cls-1" x="368" y="144" width="24" height="16"/><rect class="cls-1" x="368" y="176" width="24" height="16"/><rect class="cls-1" x="368" y="208" width="24" height="16"/><rect class="cls-1" x="368" y="240" width="24" height="16"/><rect class="cls-1" x="368" y="272" width="24" height="16"/><rect class="cls-1" x="368" y="304" width="24" height="16"/><rect class="cls-1" x="368" y="336" width="24" height="16"/><rect class="cls-1" x="104" y="144" width="24" height="16"/><rect class="cls-1" x="104" y="176" width="24" height="16"/><rect class="cls-1" x="104" y="208" width="24" height="16"/><rect class="cls-1" x="104" y="240" width="24" height="16"/><rect class="cls-1" x="104" y="272" width="24" height="16"/><rect class="cls-1" x="104" y="304" width="24" height="16"/><rect class="cls-1" x="104" y="336" width="24" height="16"/><path class="cls-1" d="M456,46.53v85.19L437.58,144H408v16h34.42L472,140.28V46.53a24,24,0,1,0-16,0ZM464,16a8,8,0,1,1-8,8A8,8,0,0,1,464,16Z"/><rect class="cls-1" x="408" y="176" width="88" height="16"/><rect class="cls-1" x="408" y="208" width="88" height="16"/><polygon class="cls-1" points="460.28 240 408 240 408 256 451.72 256 467.72 280 496 280 496 264 476.28 264 460.28 240"/><rect class="cls-1" x="408" y="272" width="32" height="16"/><rect class="cls-1" x="408" y="304" width="88" height="16"/><path class="cls-1" d="M435.31,336H408v16h20.69L448,371.31v14.16a24,24,0,1,0,16,0V364.69ZM456,416a8,8,0,1,1,8-8A8,8,0,0,1,456,416Z"/><polygon class="cls-1" points="352 428.69 352 408 336 408 336 435.31 364.69 464 496 464 496 448 371.31 448 352 428.69"/><polygon class="cls-1" points="320 460.69 320 408 304 408 304 467.31 332.69 496 496 496 496 480 339.31 480 320 460.69"/><rect class="cls-1" x="272" y="408" width="16" height="88"/><polygon class="cls-1" points="240 416 224 416 224 408 208 408 208 432 256 432 256 408 240 408 240 416"/><path class="cls-1" d="M232,448a24,24,0,0,0-22.08,14.61L192,444.69V408H176v43.31L204.69,480h4.78A24,24,0,1,0,232,448Zm0,32a8,8,0,1,1,8-8A8,8,0,0,1,232,480Z"/><path class="cls-1" d="M144,444.69,124.69,464H46.53A24,24,0,0,0,32,449.47V339.31L51.31,320H88V304H44.69L16,332.69V449.47A23.94,23.94,0,1,0,46.53,480h84.78L160,451.31V408H144ZM24,480a8,8,0,1,1,8-8A8,8,0,0,1,24,480Z"/><path class="cls-1" d="M83.31,352H88V336H76.69L48,364.69v22.62L76.69,416h4.78a23.88,23.88,0,1,0,.45-17.39L64,380.69v-9.38ZM104,400a8,8,0,1,1-8,8A8,8,0,0,1,104,400Z"/><rect class="cls-1" y="272" width="88" height="16"/><path class="cls-1" d="M16,46.53V227.31L44.69,256H88V240H51.31L32,220.69V179.31L44.69,192H88V176H51.31L32,156.69V46.53a24,24,0,1,0-16,0ZM24,16a8,8,0,1,1-8,8A8,8,0,0,1,24,16Z"/><rect class="cls-1" x="56" y="208" width="32" height="16"/><path class="cls-1" d="M48,44.69v86.62L76.69,160H88V144H83.31L64,124.69V51.31L83.31,32H176V88h16V32h16V88h16V32h16V88h16V64l16,12V88h16V68L256,44V32h9.47a24,24,0,1,0,0-16H76.69ZM288,16a8,8,0,1,1-8,8A8,8,0,0,1,288,16Z"/><path class="cls-1" d="M160,64H126.53a24,24,0,1,0,0,16H144v8h16ZM104,80a8,8,0,1,1,8-8A8,8,0,0,1,104,80Z"/><path class="cls-1" d="M336,64V88h16V80h41.47a24,24,0,1,0,0-16Zm80,0a8,8,0,1,1-8,8A8,8,0,0,1,416,64Z"/><polygon class="cls-1" points="304 88 320 88 320 67.31 344 43.31 344 0 328 0 328 36.69 304 60.69 304 88"/><path class="cls-1" d="M272,272a48,48,0,1,0-48-48A48,48,0,0,0,272,272Zm0-80a32,32,0,1,1-32,32A32,32,0,0,1,272,192Z"/><path class="cls-1" d="M241.42,297.9a80.08,80.08,0,1,0-43.31-43.31L153,299.72A30.63,30.63,0,0,0,196.28,343ZM272,160a64,64,0,1,1-64,64A64.07,64.07,0,0,1,272,160ZM174.62,336a14.63,14.63,0,0,1-10.34-25l41.8-41.8a80.73,80.73,0,0,0,20.69,20.69L185,331.72A14.72,14.72,0,0,1,174.62,336Z"/></g></g></svg>