<svg xmlns="http://www.w3.org/2000/svg" viewBox="0 0 496 496"><defs><style>.cls-1{fill:#334b61;}</style></defs><title>Ресурс 1</title><g id="Слой_2" data-name="Слой 2"><g id="Layer_1" data-name="Layer 1"><path class="cls-1" d="M345.34,282,434,193.34A40.12,40.12,0,1,0,422.66,182L334,270.66a39.79,39.79,0,0,0-37.64-3.48L235.51,186A39.52,39.52,0,0,0,240,168a40,40,0,1,0-73.43,21.86L57.13,292A39.61,39.61,0,0,0,40,288a40.47,40.47,0,1,0,30,13.86L177.82,201.25a39.45,39.45,0,0,0,47.33-2.39l58.1,77.46a40,40,0,1,0,62.1,5.66ZM456,136a24,24,0,1,1-24,24A24,24,0,0,1,456,136ZM40,352a24,24,0,1,1,24-24A24,24,0,0,1,40,352ZM200,192a24,24,0,1,1,24-24A24,24,0,0,1,200,192ZM312,328a24,24,0,1,1,24-24A24,24,0,0,1,312,328Z"/><path class="cls-1" d="M320,112h45.34L408,144V56A56.07,56.07,0,0,0,352,0H320a56,56,0,0,0,0,112Zm0-96h32a40,40,0,0,1,40,40v56L370.66,96H320a40,40,0,0,1,0-80Z"/><rect class="cls-1" x="304" y="32" width="64" height="16"/><rect class="cls-1" x="304" y="64" width="32" height="16"/><rect class="cls-1" x="352" y="64" width="16" height="16"/><path class="cls-1" d="M56,144h45.34L144,176V88A56.07,56.07,0,0,0,88,32H56a56,56,0,0,0,0,112Zm0-96H88a40,40,0,0,1,40,40v56l-21.34-16H56a40,40,0,0,1,0-80Z"/><rect class="cls-1" x="40" y="64" width="64" height="16"/><rect class="cls-1" x="40" y="96" width="32" height="16"/><rect class="cls-1" x="88" y="96" width="16" height="16"/><path class="cls-1" d="M168,384H122.66L80,352v88a56.07,56.07,0,0,0,56,56h32a56,56,0,0,0,0-112Zm0,96H136a40,40,0,0,1-40-40V384l21.34,16H168a40,40,0,0,1,0,80Z"/><rect class="cls-1" x="120" y="448" width="64" height="16"/><rect class="cls-1" x="152" y="416" width="32" height="16"/><rect class="cls-1" x="120" y="416" width="16" height="16"/><path class="cls-1" d="M440,368H394.66L352,336v88a56.07,56.07,0,0,0,56,56h32a56,56,0,0,0,0-112Zm0,96H408a40,40,0,0,1-40-40V368l21.34,16H440a40,40,0,0,1,0,80Z"/><rect class="cls-1" x="392" y="432" width="64" height="16"/><rect class="cls-1" x="424" y="400" width="32" height="16"/><rect class="cls-1" x="392" y="400" width="16" height="16"/></g></g></svg>