<?xml version="1.0" encoding="utf-8"?>
<!-- Generator: Adobe Illustrator 21.0.0, SVG Export Plug-In . SVG Version: 6.00 Build 0)  -->
<svg version="1.1" id="Слой_1" xmlns="http://www.w3.org/2000/svg" xmlns:xlink="http://www.w3.org/1999/xlink" x="0px" y="0px"
	 viewBox="0 0 595.3 612" style="enable-background:new 0 0 595.3 612;" xml:space="preserve">
<style type="text/css">
	.st0{fill:#FFFFFF;}
	.st1{fill:#3D4A5A;}
</style>
<g id="Слой_2">
	<rect x="5.1" y="7.4" class="st0" width="383" height="582.1"/>
	<rect x="374.5" y="37.5" class="st0" width="31.7" height="104"/>
	<rect x="382.1" y="62.5" class="st0" width="54" height="87"/>
	<rect x="412.9" y="83.5" class="st0" width="34.3" height="22.5"/>
	<rect x="374.5" y="95.6" class="st0" width="92.7" height="494"/>
	<path class="st0" d="M580.9,460.3c0,15.7-12.7,28.3-28.3,28.3h-77c-15.7,0-28.3-12.7-28.3-28.3v-2.1c0-15.7,12.7-28.3,28.3-28.3h77
		c15.7,0,28.3,12.7,28.3,28.3V460.3z"/>
</g>
<g id="Layer_1">
	<g>
		<g>
			<g>
				<path class="st1" d="M270.7,381.8H89.3L85.1,353H38.4v19.2h30.1l19.2,134.4h27.5h105.6h27.2L270.7,381.8z M134.4,487.5h-30.1
					l-5.5-38.4h35.6V487.5z M134.4,429.9H96.1L92,401h42.4V429.9z M192,487.5h-38.4v-38.4H192V487.5z M192,429.9h-38.4V401H192
					V429.9z M232,487.5h-20.8v-38.4H239L232,487.5z M242.5,429.9h-31.3V401h36.5L242.5,429.9z"/>
				<path class="st1" d="M86.4,535.5c0,15.9,12.9,28.8,28.8,28.8s28.8-12.9,28.8-28.8c0-15.9-12.9-28.8-28.8-28.8
					S86.4,519.6,86.4,535.5z M115.2,525.9c5.3,0,9.6,4.3,9.6,9.6s-4.3,9.6-9.6,9.6c-5.3,0-9.6-4.3-9.6-9.6S109.9,525.9,115.2,525.9z
					"/>
				<path class="st1" d="M192,535.5c0,15.9,12.9,28.8,28.8,28.8s28.8-12.9,28.8-28.8c0-15.9-12.9-28.8-28.8-28.8
					S192,519.6,192,535.5z M220.8,525.9c5.3,0,9.6,4.3,9.6,9.6s-4.3,9.6-9.6,9.6c-5.3,0-9.6-4.3-9.6-9.6S215.5,525.9,220.8,525.9z"
					/>
				<path class="st1" d="M364.8,410.6c-26.5,0-48,21.5-48,48s21.5,48,48,48s48-21.5,48-48S391.3,410.6,364.8,410.6z M364.8,487.5
					c-15.9,0-28.8-12.9-28.8-28.8s12.9-28.8,28.8-28.8s28.8,12.9,28.8,28.8S380.7,487.5,364.8,487.5z"/>
				<path class="st1" d="M556.9,420.3h-76.8V99.4l-92-92H0v595.3h480.1V497.1h76.8c21.2,0,38.4-17.2,38.4-38.4
					S578.1,420.3,556.9,420.3z M393.7,40.2l53.6,53.6h-53.6V40.2z M393.7,122.6c0-3.4-0.7-6.6-1.8-9.6h30.6v192H57.6V74.6h316.8v21
					c-3-1.1-6.2-1.8-9.6-1.8c-15.9,0-28.8,12.9-28.8,28.8c0,4.4,1.1,8.6,2.9,12.3l-48.1,48.1c-3.8-1.8-7.9-2.9-12.3-2.9
					c-5.3,0-10.1,1.5-14.4,4L218.9,152c1.2-3.2,1.9-6.6,1.9-10.1c0-15.9-12.9-28.8-28.8-28.8s-28.8,12.9-28.8,28.8
					c0,3.6,0.7,7,1.9,10.1L120,184.2c-4.3-2.5-9.1-4-14.4-4c-15.9,0-28.8,12.9-28.8,28.8c0,12.5,8,23.1,19.2,27v30.6H76.8v19.2
					h316.8v-19.2h-19.2v-117C385.6,145.7,393.7,135.1,393.7,122.6z M374.5,122.6c0,5.3-4.3,9.6-9.6,9.6s-9.6-4.3-9.6-9.6
					s4.3-9.6,9.6-9.6S374.5,117.3,374.5,122.6z M288,236.1c11.1-4,19.2-14.5,19.2-27c0-4.4-1.1-8.6-2.9-12.3l48.1-48.1
					c0.9,0.4,1.8,0.8,2.7,1.1v117H288L288,236.1L288,236.1z M278.4,218.6c-5.3,0-9.6-4.3-9.6-9.6s4.3-9.6,9.6-9.6s9.6,4.3,9.6,9.6
					S283.7,218.6,278.4,218.6z M201.6,168.9c1.7-0.6,3.3-1.3,4.8-2.2l45.2,32.3c-1.2,3.2-1.9,6.6-1.9,10.1c0,12.5,8,23.1,19.2,27
					v30.6h-67.2L201.6,168.9L201.6,168.9z M192,151.4c-5.3,0-9.6-4.3-9.6-9.6s4.3-9.6,9.6-9.6s9.6,4.3,9.6,9.6
					C201.6,147.1,197.3,151.4,192,151.4z M115.2,236.1c11.1-4,19.2-14.5,19.2-27c0-3.6-0.7-7-1.9-10.1l45.2-32.3
					c1.5,0.9,3.1,1.6,4.8,2.2v97.8h-67.2L115.2,236.1L115.2,236.1z M105.6,218.6c-5.3,0-9.6-4.3-9.6-9.6s4.3-9.6,9.6-9.6
					s9.6,4.3,9.6,9.6S110.9,218.6,105.6,218.6z M460.9,583.5H19.2V26.6h355.2v28.8h-336v268.8h403.3V113h19.2v307.2h-18.7
					c-14.2-28.4-43.4-48-77.3-48c-47.6,0-86.4,38.8-86.4,86.4s38.8,86.4,86.4,86.4c33.8,0,63.1-19.6,77.3-48h18.7V583.5z
					 M432.1,458.7c0,37.1-30.2,67.2-67.2,67.2s-67.2-30.2-67.2-67.2c0-37.1,30.2-67.2,67.2-67.2S432.1,421.6,432.1,458.7z
					 M556.9,477.9H449c1.4-6.2,2.2-12.6,2.2-19.2s-0.8-13-2.2-19.2h107.8c10.6,0,19.2,8.6,19.2,19.2
					C576.1,469.2,567.5,477.9,556.9,477.9z"/>
			</g>
		</g>
	</g>
</g>
</svg>
