<?xml version="1.0" encoding="utf-8"?>
<!-- Generator: Adobe Illustrator 21.0.0, SVG Export Plug-In . SVG Version: 6.00 Build 0)  -->
<svg version="1.1" id="Слой_1" xmlns="http://www.w3.org/2000/svg" xmlns:xlink="http://www.w3.org/1999/xlink" x="0px" y="0px"
	 viewBox="0 0 595.3 609" style="enable-background:new 0 0 595.3 609;" xml:space="preserve">
<style type="text/css">
	.st0{fill:#FFFFFF;}
	.st1{fill:#3D4A5A;}
</style>
<g id="Слой_2">
	<rect y="26.6" class="st0" width="384.1" height="555.2"/>
	<ellipse class="st0" cx="380.1" cy="302.9" rx="115" ry="117.4"/>
	<rect x="475.1" y="266.5" class="st0" width="108" height="76.9"/>
	<rect x="508.9" y="329.5" class="st0" width="81.3" height="273.1"/>
	<path class="st0" d="M408.7,559.9c0,15.7-12.7,28.3-28.3,28.3h-16.9c-15.7,0-28.3-12.7-28.3-28.3V535c0-15.7,12.7-28.3,28.3-28.3
		h16.9c15.7,0,28.3,12.7,28.3,28.3L408.7,559.9L408.7,559.9z"/>
</g>
<g id="Layer_1">
	<g>
		<g>
			<g>
				<rect x="384.1" y="295.4" class="st1" width="19.2" height="19.2"/>
				<rect x="422.5" y="295.4" class="st1" width="19.2" height="19.2"/>
				<rect x="460.9" y="295.4" class="st1" width="19.2" height="19.2"/>
				<rect x="499.3" y="295.4" class="st1" width="19.2" height="19.2"/>
				<rect x="537.7" y="295.4" class="st1" width="19.2" height="19.2"/>
				<rect x="537.7" y="333.8" class="st1" width="19.2" height="19.2"/>
				<rect x="537.7" y="372.2" class="st1" width="19.2" height="19.2"/>
				<rect x="537.7" y="410.6" class="st1" width="19.2" height="19.2"/>
				<rect x="537.7" y="449.1" class="st1" width="19.2" height="19.2"/>
				<rect x="537.7" y="487.5" class="st1" width="19.2" height="19.2"/>
				<rect x="537.7" y="525.9" class="st1" width="19.2" height="19.2"/>
				<rect x="537.7" y="564.3" class="st1" width="19.2" height="19.2"/>
				<path class="st1" d="M384.1,180.6V118l19.6,10.5c-0.1,1.2-0.4,2.4-0.4,3.7c0,21.2,17.2,38.4,38.4,38.4s38.4-17.2,38.4-38.4
					c0-3.7-0.7-7.3-1.7-10.7l57.9-43.4c6,3.8,13,6.1,20.6,6.1c21.2,0,38.4-17.2,38.4-38.4S578.1,7.4,556.9,7.4
					c-21.2,0-38.4,17.2-38.4,38.4c0,6.6,1.8,12.7,4.7,18.1l-54.6,41c-6.9-6.8-16.4-11-26.9-11c-13,0-24.5,6.5-31.5,16.5l-26.2-14.1
					V26.6h-91.8c-6.7-11.4-18.9-19.2-33.1-19.2s-26.4,7.8-33.1,19.2H0v172.8h107c-0.8,3.1-1.4,6.3-1.4,9.6c0,3.3,0.6,6.5,1.4,9.6H0
					v172.8h284.6c7.1,7.3,15,13.8,23.6,19.2H0v172.8h336v-0.3c8.8,11.8,22.6,19.5,38.4,19.5c26.5,0,48-21.5,48-48V420.2
					c29.8-12.5,54.2-36.3,67-67.1h9.8v249.6h19.2V333.8H384.1V353h37.3c-12.4,12.1-29.2,19.2-46.9,19.2c-37.1,0-67.2-30.2-67.2-67.2
					s30.2-67.2,67.2-67.2c17.7,0,34.5,7.1,46.9,19.2h-37.3v19.2h192v326.4h19.2V257H489.5C471.4,213.8,430.5,184.2,384.1,180.6z
					 M556.9,26.6c10.6,0,19.2,8.6,19.2,19.2c0,10.6-8.6,19.2-19.2,19.2c-10.6,0-19.2-8.6-19.2-19.2
					C537.7,35.2,546.3,26.6,556.9,26.6z M441.7,113c10.6,0,19.2,8.6,19.2,19.2c0,10.6-8.6,19.2-19.2,19.2
					c-10.6,0-19.2-8.6-19.2-19.2S431.1,113,441.7,113z M297.6,45.8h67.2v40.1l-67.6-36.4C297.4,48.2,297.6,47.1,297.6,45.8z
					 M259.2,26.6c10.6,0,19.2,8.6,19.2,19.2c0,10.6-8.6,19.2-19.2,19.2c-10.6,0-19.2-8.6-19.2-19.2C240,35.2,248.6,26.6,259.2,26.6z
					 M241.2,79.5c5.4,2.9,11.5,4.7,18.1,4.7c13,0,24.5-6.5,31.4-16.5l74.2,39.9v72.5H169.2c-0.7-0.6-1.4-1.2-2.2-1.8L241.2,79.5z
					 M181.1,199.4h127.2c-8.6,5.4-16.6,11.9-23.6,19.2H181.1c0.8-3.1,1.4-6.3,1.4-9.6C182.4,205.7,181.9,202.5,181.1,199.4z
					 M19.2,180.2V45.8h201.6c0,7.6,2.3,14.7,6.1,20.6l-78.5,104.6c-1.5-0.2-2.9-0.5-4.5-0.5c-9.7,0-18.4,3.7-25.1,9.6L19.2,180.2
					L19.2,180.2z M163.2,209c0,10.6-8.6,19.2-19.2,19.2c-10.6,0-19.2-8.6-19.2-19.2c0-10.6,8.6-19.2,19.2-19.2
					C154.6,189.8,163.2,198.4,163.2,209z M19.2,372.2V237.8h99.7c6.8,5.9,15.5,9.6,25.1,9.6s18.4-3.7,25.1-9.6h100.3
					c-12.5,19.4-19.8,42.5-19.8,67.2s7.3,47.8,19.8,67.2H19.2z M19.2,564.3V429.9h307.2v124.8c0,3.3,0.3,6.5,1,9.6H19.2z
					 M403.3,554.7c0,15.9-12.9,28.8-28.8,28.8s-28.8-12.9-28.8-28.8V426.4c9.3,2.2,18.9,3.5,28.8,3.5c9.8,0,19.5-1.2,28.8-3.4V554.7
					z M446,257c-16-23.8-42.8-38.4-71.5-38.4c-47.7,0-86.4,38.8-86.4,86.4s38.8,86.4,86.4,86.4c28.7,0,55.6-14.7,71.5-38.4h22.3
					c-17.9,34.9-54,57.6-93.9,57.6c-58.2,0-105.6-47.4-105.6-105.6c0-58.2,47.4-105.6,105.6-105.6c39.9,0,76,22.7,93.9,57.6H446z"/>
				<rect x="364.8" y="276.2" class="st1" width="19.2" height="19.2"/>
				<rect x="364.8" y="314.6" class="st1" width="19.2" height="19.2"/>
				<rect x="345.6" y="295.4" class="st1" width="19.2" height="19.2"/>
				<rect x="38.4" y="525.9" class="st1" width="19.2" height="19.2"/>
				<rect x="38.4" y="487.5" class="st1" width="19.2" height="19.2"/>
				<rect x="76.8" y="525.9" class="st1" width="19.2" height="19.2"/>
				<rect x="115.2" y="525.9" class="st1" width="19.2" height="19.2"/>
				<rect x="76.8" y="487.5" class="st1" width="19.2" height="19.2"/>
				<rect x="38.4" y="449.1" class="st1" width="19.2" height="19.2"/>
			</g>
		</g>
	</g>
</g>
</svg>
