<?xml version="1.0" encoding="utf-8"?>
<!-- Generator: Adobe Illustrator 21.0.0, SVG Export Plug-In . SVG Version: 6.00 Build 0)  -->
<svg version="1.1" id="Слой_1" xmlns="http://www.w3.org/2000/svg" xmlns:xlink="http://www.w3.org/1999/xlink" x="0px" y="0px"
	 viewBox="0 0 496 496" style="enable-background:new 0 0 496 496;" xml:space="preserve">
<style type="text/css">
	.st0{fill:#334B61;}
</style>
<path id="Слой_2" class="st0" d="M225.6,312H74.4l-3.4-24H32v16h25.1l16,112h133.6L225.6,312z M202,352h-26v-24h30.4L202,352z
	 M128,352v-24h32v24H128z M160,368v32h-32v-32H160z M112,328v24H80.1l-3.4-24H112z M86.9,400l-4.6-32H112v32H86.9z M176,400v-32
	h23.1l-5.8,32H176z M72,440c0,13.3,10.7,24,24,24s24-10.7,24-24s-10.7-24-24-24l0,0C82.7,416,72,426.7,72,440z M96,432
	c4.4,0,8,3.6,8,8s-3.6,8-8,8s-8-3.6-8-8S91.6,432,96,432z M160,440c0,13.3,10.7,24,24,24s24-10.7,24-24s-10.7-24-24-24l0,0
	C170.7,416,160,426.7,160,440z M184,432c4.4,0,8,3.6,8,8s-3.6,8-8,8s-8-3.6-8-8S179.6,432,184,432z M304,336c-22.1,0-40,17.9-40,40
	s17.9,40,40,40s40-17.9,40-40S326.1,336,304,336z M304,400c-13.3,0-24-10.7-24-24s10.7-24,24-24s24,10.7,24,24S317.3,400,304,400z
	 M464,344h-64V76.7L323.3,0H0v496h400v-88h64c17.7,0,32-14.3,32-32S481.7,344,464,344z M312,73.5c-2.6-0.9-5.3-1.4-8-1.5
	c-13.3,0-24,10.7-24,24c0,3.6,0.8,7.1,2.4,10.3l-40.1,40.1c-7.1-3.5-15.5-3.2-22.3,0.9l-37.6-26.9c1-2.7,1.6-5.6,1.6-8.4
	c0-13.3-10.7-24-24-24s-24,10.7-24,24c0,2.9,0.6,5.8,1.6,8.4L100,147.3c-3.6-2.2-7.8-3.3-12-3.3c-13.2,0-24,10.6-24,23.9
	c0,10.2,6.4,19.3,16,22.7V216H64v16h264v-16h-16v-97.5c12.3-4.2,18.9-17.6,14.8-29.9c-0.1-0.2-0.1-0.4-0.2-0.6H352v160H48V56h264
	V73.5z M240,216v-25.5c9.6-3.4,16-12.4,16-22.5c0-3.6-0.8-7.1-2.4-10.3l40.1-40.1c0.7,0.3,1.5,0.7,2.3,0.9V216H240z M96,168
	c0,4.4-3.6,8-8,8s-8-3.6-8-8s3.6-8,8-8S96,163.6,96,168z M96,190.5c12.4-4.2,19-17.7,14.7-30c-0.1-0.3-0.2-0.7-0.4-1l37.6-26.9
	c1.3,0.7,2.6,1.4,4,1.9V216H96V190.5z M160,120c-4.4,0-8-3.6-8-8s3.6-8,8-8s8,3.6,8,8S164.4,120,160,120z M168,134.5
	c1.4-0.5,2.7-1.1,4-1.9l37.6,26.9c-4.8,12.2,1.2,25.9,13.4,30.6c0.3,0.1,0.6,0.2,1,0.4V216h-56V134.5z M240,168c0,4.4-3.6,8-8,8
	s-8-3.6-8-8s3.6-8,8-8S240,163.6,240,168z M304,104c-4.4,0-8-3.6-8-8s3.6-8,8-8s8,3.6,8,8S308.4,104,304,104z M328,72V27.3L372.7,72
	H328z M384,480H16V16h296v24H32v224h336V88h16v256h-15.6c-17.7-35.6-60.9-50.2-96.5-32.5c-35.6,17.7-50.2,60.9-32.5,96.5
	s60.9,50.2,96.5,32.5c14.1-7,25.5-18.4,32.5-32.5H384V480z M360,376c0,30.9-25.1,56-56,56s-56-25.1-56-56s25.1-56,56-56
	C334.9,320,360,345.1,360,376z M464,392h-89.9c2.5-10.5,2.5-21.5,0-32H464c8.8,0,16,7.2,16,16S472.8,392,464,392z"/>
</svg>
