<?xml version="1.0" encoding="utf-8"?>
<!-- Generator: Adobe Illustrator 21.0.0, SVG Export Plug-In . SVG Version: 6.00 Build 0)  -->
<svg version="1.1" id="Слой_1" xmlns="http://www.w3.org/2000/svg" xmlns:xlink="http://www.w3.org/1999/xlink" x="0px" y="0px"
	 viewBox="0 0 496 496" style="enable-background:new 0 0 496 496;" xml:space="preserve">
<style type="text/css">
	.st0{fill:#334B61;}
</style>
<path id="Слой_2" class="st0" d="M144,104h16v24h-16V104z M176,104h16v24h-16V104z M208,104h16v24h-16V104z M240,104h16v24h-16
	V104z M272,104h16v24h-16V104z M304,104h16v24h-16V104z M336,104h16v24h-16V104z M144,368h16v24h-16V368z M176,368h16v24h-16V368z
	 M208,368h16v24h-16V368z M240,368h16v24h-16V368z M272,368h16v24h-16V368z M304,368h16v24h-16V368z M336,368h16v24h-16V368z
	 M368,144h24v16h-24V144z M368,176h24v16h-24V176z M368,208h24v16h-24V208z M368,240h24v16h-24V240z M368,272h24v16h-24V272z
	 M368,304h24v16h-24V304z M368,336h24v16h-24V336z M104,144h24v16h-24V144z M104,176h24v16h-24V176z M104,208h24v16h-24V208z
	 M104,240h24v16h-24V240z M104,272h24v16h-24V272z M104,304h24v16h-24V304z M104,336h24v16h-24V336z M456,46.5v85.2L437.6,144H408
	v16h34.4l29.6-19.7V46.5c12.5-4.4,19-18.1,14.6-30.6S468.5-3.1,456,1.3s-19,18.1-14.6,30.6C443.8,38.7,449.2,44.1,456,46.5z M464,16
	c4.4,0,8,3.6,8,8s-3.6,8-8,8s-8-3.6-8-8S459.6,16,464,16z M408,176h88v16h-88V176z M408,208h88v16h-88V208z M460.3,240H408v16h43.7
	l16,24H496v-16h-19.7L460.3,240z M408,272h32v16h-32V272z M408,304h88v16h-88V304z M435.3,336H408v16h20.7l19.3,19.3v14.2
	c-12.5,4.4-19,18.1-14.6,30.6c4.4,12.5,18.1,19,30.6,14.6c12.5-4.4,19-18.1,14.6-30.6c-2.4-6.8-7.8-12.2-14.6-14.6v-20.8L435.3,336z
	 M456,416c-4.4,0-8-3.6-8-8s3.6-8,8-8s8,3.6,8,8S460.4,416,456,416z M352,428.7V408h-16v27.3l28.7,28.7H496v-16H371.3L352,428.7z
	 M320,460.7V408h-16v59.3l28.7,28.7H496v-16H339.3L320,460.7z M272,408h16v88h-16V408z M240,416h-16v-8h-16v24h48v-24h-16V416z
	 M232,448c-9.6,0-18.3,5.8-22.1,14.6L192,444.7V408h-16v43.3l28.7,28.7h4.8c4.4,12.5,18.1,19,30.6,14.6c12.5-4.4,19-18.1,14.6-30.6
	C251.3,454.4,242.2,448,232,448z M232,480c-4.4,0-8-3.6-8-8s3.6-8,8-8s8,3.6,8,8S236.4,480,232,480z M144,444.7L124.7,464H46.5
	c-2.4-6.8-7.8-12.1-14.5-14.5V339.3L51.3,320H88v-16H44.7L16,332.7v116.8C3.5,453.9-3,467.5,1.4,480s18.1,19,30.5,14.6
	c6.8-2.4,12.2-7.8,14.6-14.6h84.8l28.7-28.7V408h-16V444.7z M24,480c-4.4,0-8-3.6-8-8s3.6-8,8-8s8,3.6,8,8S28.4,480,24,480z
	 M83.3,352H88v-16H76.7L48,364.7v22.6L76.7,416h4.8c4.5,12.4,18.2,18.8,30.6,14.3s18.8-18.2,14.3-30.6
	c-4.5-12.4-18.2-18.8-30.6-14.3c-6.3,2.3-11.3,7-13.9,13.2L64,380.7v-9.4L83.3,352z M104,400c4.4,0,8,3.6,8,8s-3.6,8-8,8s-8-3.6-8-8
	S99.6,400,104,400z M0,272h88v16H0V272z M16,46.5v180.8L44.7,256H88v-16H51.3L32,220.7v-41.4L44.7,192H88v-16H51.3L32,156.7V46.5
	c12.5-4.4,19-18.1,14.6-30.6S28.5-3.1,16,1.3S-3,19.4,1.4,31.9C3.8,38.7,9.2,44.1,16,46.5z M24,16c4.4,0,8,3.6,8,8s-3.6,8-8,8
	s-8-3.6-8-8S19.6,16,24,16z M56,208h32v16H56V208z M48,44.7v86.6L76.7,160H88v-16h-4.7L64,124.7V51.3L83.3,32H176v56h16V32h16v56h16
	V32h16v56h16V64l16,12v12h16V68l-32-24V32h9.5c4.4,12.5,18.1,19,30.6,14.6c12.5-4.4,19-18.1,14.6-30.6c-4.4-12.5-18.1-19-30.6-14.6
	c-6.8,2.4-12.2,7.8-14.6,14.6H76.7L48,44.7z M288,16c4.4,0,8,3.6,8,8s-3.6,8-8,8s-8-3.6-8-8S283.6,16,288,16z M160,64h-33.5
	c-4.4-12.5-18.1-19-30.6-14.6S76.9,67.5,81.3,80c4.4,12.5,18.1,19,30.6,14.6c6.8-2.4,12.2-7.8,14.6-14.6H144v8h16V64z M104,80
	c-4.4,0-8-3.6-8-8s3.6-8,8-8s8,3.6,8,8S108.4,80,104,80z M336,64v24h16v-8h41.5c4.4,12.5,18.1,19,30.6,14.6
	c12.5-4.4,19-18.1,14.6-30.6c-4.4-12.5-18.1-19-30.6-14.6c-6.8,2.4-12.2,7.8-14.6,14.6H336z M416,64c4.4,0,8,3.6,8,8s-3.6,8-8,8
	s-8-3.6-8-8S411.6,64,416,64z M304,88h16V67.3l24-24V0h-16v36.7l-24,24V88z M272,272c26.5,0,48-21.5,48-48s-21.5-48-48-48
	s-48,21.5-48,48S245.5,272,272,272z M272,192c17.7,0,32,14.3,32,32s-14.3,32-32,32s-32-14.3-32-32S254.3,192,272,192z M241.4,297.9
	c40.9,16.9,87.7-2.5,104.6-43.3s-2.5-87.7-43.3-104.6s-87.7,2.5-104.6,43.3c-8.1,19.6-8.1,41.7,0,61.3L153,299.7
	c-11.5,12.4-10.6,31.8,1.8,43.3c11.7,10.8,29.8,10.8,41.5,0L241.4,297.9z M272,160c35.3,0,64,28.7,64,64s-28.7,64-64,64
	s-64-28.7-64-64C208,188.7,236.7,160,272,160z M174.6,336c-8.1,0-14.6-6.5-14.7-14.6c0-3.9,1.5-7.6,4.3-10.4l41.8-41.8
	c5.6,8.1,12.6,15.1,20.7,20.7L185,331.7C182.2,334.5,178.5,336,174.6,336z"/>
</svg>
