<?xml version="1.0" encoding="utf-8"?>
<!-- Generator: Adobe Illustrator 21.0.0, SVG Export Plug-In . SVG Version: 6.00 Build 0)  -->
<svg version="1.1" id="Слой_1" xmlns="http://www.w3.org/2000/svg" xmlns:xlink="http://www.w3.org/1999/xlink" x="0px" y="0px"
	 viewBox="0 0 496 496" style="enable-background:new 0 0 496 496;" xml:space="preserve">
<style type="text/css">
	.st0{fill:#334B61;}
</style>
<path id="Слой_2" class="st0" d="M345.3,282l88.7-88.7c18.5,12.2,43.4,7.1,55.6-11.3c12.2-18.5,7.1-43.4-11.3-55.6
	c-18.5-12.2-43.4-7.1-55.6,11.3c-8.9,13.4-8.9,30.8,0,44.3L334,270.7c-11.2-7.4-25.3-8.7-37.6-3.5L235.5,186
	c2.9-5.6,4.4-11.7,4.5-18c0.1-22.1-17.8-40-39.9-40.1c-22.1-0.1-40,17.8-40.1,39.9c0,7.8,2.3,15.5,6.6,22.1L57.1,292
	c-5.3-2.6-11.2-4-17.1-4c-22.3-0.3-40.7,17.6-41,40c-0.3,22.3,17.6,40.7,40,41c22.3,0.3,40.7-17.6,41-40c0.1-10-3.4-19.6-10-27.1
	l107.8-100.6c14.6,9.8,33.8,8.8,47.3-2.4l58.1,77.5c-15.3,15.9-14.9,41.2,1,56.6c15.9,15.3,41.2,14.9,56.6-1
	C353.8,318.4,355.7,297.6,345.3,282L345.3,282z M456,136c13.3,0,24,10.7,24,24s-10.7,24-24,24s-24-10.7-24-24S442.7,136,456,136z
	 M40,352c-13.3,0-24-10.7-24-24s10.7-24,24-24s24,10.7,24,24S53.3,352,40,352z M200,192c-13.3,0-24-10.7-24-24s10.7-24,24-24
	s24,10.7,24,24S213.3,192,200,192z M312,328c-13.3,0-24-10.7-24-24s10.7-24,24-24s24,10.7,24,24S325.3,328,312,328z M320,112h45.3
	l42.7,32V56c0-30.9-25.1-56-56-56h-32c-30.9,0-56,25.1-56,56S289.1,112,320,112z M320,16h32c22.1,0,40,17.9,40,40v56l-21.3-16H320
	c-22.1,0-40-17.9-40-40S297.9,16,320,16z M304,32h64v16h-64V32z M304,64h32v16h-32V64z M352,64h16v16h-16V64z M56,144h45.3l42.7,32
	V88c0-30.9-25.1-56-56-56H56C25.1,32,0,57.1,0,88S25.1,144,56,144z M56,48h32c22.1,0,40,17.9,40,40v56l-21.3-16H56
	c-22.1,0-40-17.9-40-40S33.9,48,56,48z M40,64h64v16H40V64z M40,96h32v16H40V96z M88,96h16v16H88V96z M168,384h-45.3L80,352v88
	c0,30.9,25.1,56,56,56h32c30.9,0,56-25.1,56-56S198.9,384,168,384z M168,480h-32c-22.1,0-40-17.9-40-40v-56l21.3,16H168
	c22.1,0,40,17.9,40,40S190.1,480,168,480z M120,448h64v16h-64V448z M152,416h32v16h-32V416z M120,416h16v16h-16V416z M440,368h-45.3
	L352,336v88c0,30.9,25.1,56,56,56h32c30.9,0,56-25.1,56-56S470.9,368,440,368z M440,464h-32c-22.1,0-40-17.9-40-40v-56l21.3,16H440
	c22.1,0,40,17.9,40,40S462.1,464,440,464z M392,432h64v16h-64V432z M424,400h32v16h-32V400z M392,400h16v16h-16V400z"/>
</svg>
