<svg xmlns="http://www.w3.org/2000/svg" viewBox="0 0 496 488"><defs><style>.cls-1{fill:#ff141f;}</style></defs><title>development</title><g id="Слой_2" data-name="Слой 2"><g id="Layer_1" data-name="Layer 1"><path class="cls-1" d="M112.68,256a23.42,23.42,0,0,0-20,11.32l-12,20.07L80,286.11v-24.7L106,251a22.24,22.24,0,0,0-15.35-41.73l-2.83,1,3.23-6.46A47.11,47.11,0,0,0,96,182.83a22.83,22.83,0,0,0-43.26-10.21l-19.9,39.8-16.69,82L16,400l6.28,32H0v56H120V432H96V378.42l14.66-22,21.79-57.5A55.7,55.7,0,0,0,136,279.32,23.35,23.35,0,0,0,112.68,256ZM95.77,224.44a6.24,6.24,0,0,1,4.31,11.71l-20.08,8V229.74ZM104,472H16V448h88Zm13.46-178.69-20.62,55L80,373.58V432H38.56L32,399.21V296.79l15.63-78.17,19.42-38.83A6.78,6.78,0,0,1,73.17,176,6.85,6.85,0,0,1,80,182.83a31.1,31.1,0,0,1-3.26,13.79L64,222.11V289.9l15.36,30.72,27-45.06a7.32,7.32,0,0,1,13.6,3.77A39.56,39.56,0,0,1,117.46,293.31Z"/><path class="cls-1" d="M473.76,432l6.09-30.43L480,296l-16.16-81.57-20.58-41.81A22.83,22.83,0,0,0,400,182.83a47.19,47.19,0,0,0,4.94,20.94l3.22,6.45-2.82-1A22.24,22.24,0,0,0,390,251l26,10.41v24.7l-.64,1.28-12-20.06a23.32,23.32,0,0,0-43.32,12,55.7,55.7,0,0,0,3.55,19.62l21,55.87L400,378.42V432H376v56H496V432ZM395.91,236.15a6.24,6.24,0,0,1,4.32-11.71l15.77,5.3v14.44Zm3.26,112.18-20.62-55a39.39,39.39,0,0,1-2.54-14,7.32,7.32,0,0,1,13.6-3.77l27,45.06L432,289.89V222.1l-12.74-25.48A31.07,31.07,0,0,1,416,182.83a6.83,6.83,0,0,1,12.94-3l19.42,38.83L464,296.79V399.22L457.44,432H416V373.58ZM480,472H392V448h88Z"/><path class="cls-1" d="M349.11,144H368V96H349.11a102.28,102.28,0,0,0-12.63-30.53l13.34-13.35L315.89,18.18,302.53,31.52A102.37,102.37,0,0,0,272,18.89V0H224V18.89a102.28,102.28,0,0,0-30.53,12.63L180.12,18.18,146.18,52.11l13.34,13.35A102.37,102.37,0,0,0,146.9,96H128v48h18.89a102.28,102.28,0,0,0,12.63,30.53l-13.34,13.35,33.94,33.94,12.26-12.26a20.36,20.36,0,0,0-.25,2.43,20,20,0,0,0,9.37,16.88A19.87,19.87,0,0,0,220.12,256h56a19.87,19.87,0,0,0,18.63-27.12A20,20,0,0,0,304.12,212a19,19,0,0,0-.22-2.15l12,12,33.94-33.94-13.34-13.35A102.17,102.17,0,0,0,349.11,144Zm-137,72a4,4,0,0,1,0-8h72a4,4,0,0,1,0,8h-72Zm64-47.55-4,2.31V192h-16V142.53a24,24,0,1,0-16,0V192h-16V170.76l-4-2.31a56,56,0,1,1,56,0Zm-36-48.45a8,8,0,1,1,8,8A8,8,0,0,1,240.13,120Zm36,120h-56a4,4,0,0,1,0-8h56a4,4,0,1,1,0,8Zm58.54-105.33a86.71,86.71,0,0,1-15,36.25l-3.92,5.5,11.44,11.46-11.31,11.31-11.46-11.46-5.51,3.93c-1.46,1-3.06,2.08-4.78,3.11a19.71,19.71,0,0,0-6-2.38v-12.6a72,72,0,1,0-80,0v12.61a19.71,19.71,0,0,0-6.14,2.46c-1.74-1.06-3.39-2.11-4.9-3.18l-5.51-3.93-11.46,11.46-11.31-11.31,11.44-11.46-3.92-5.5a86.71,86.71,0,0,1-15-36.25L160.2,128H144V112h16.2l1.13-6.67a86.71,86.71,0,0,1,15-36.25l3.92-5.5L168.8,52.12l11.31-11.31,11.46,11.44,5.5-3.92a86.71,86.71,0,0,1,36.25-15L240,32.2V16h16V32.2l6.67,1.13a86.71,86.71,0,0,1,36.25,15l5.5,3.92L315.88,40.8l11.31,11.31L315.75,63.57l3.92,5.5a86.71,86.71,0,0,1,15,36.25L335.8,112H352v16H335.8Z"/><rect class="cls-1" x="240" y="272" width="16" height="16"/><rect class="cls-1" x="240" y="304" width="16" height="16"/><rect class="cls-1" x="240" y="336" width="16" height="16"/><rect class="cls-1" x="240" y="368" width="16" height="16"/></g></g></svg>