<svg xmlns="http://www.w3.org/2000/svg" viewBox="0 0 496 496"><defs><style>.cls-1{fill:#ff141f;}</style></defs><title>industrial-robot</title><g id="Слой_2" data-name="Слой 2"><g id="Layer_1" data-name="Layer 1"><rect class="cls-1" x="72" y="232" width="16" height="16"/><rect class="cls-1" x="56" y="208" width="16" height="16"/><rect class="cls-1" x="128" y="248" width="16" height="16"/><rect class="cls-1" x="160" y="232" width="16" height="16"/><path class="cls-1" d="M392,368a48,48,0,1,0,48,48A48,48,0,0,0,392,368Zm8,78.86V432H384v14.86a32,32,0,0,1-14.8-8.46l12.94-7.47-8-13.86-12.86,7.42A32.09,32.09,0,0,1,360,416a31.66,31.66,0,0,1,1.29-8.49l12.86,7.42,8-13.86L369.2,393.6a31.91,31.91,0,0,1,14.8-8.46V400h16V385.14a32,32,0,0,1,14.8,8.46l-12.94,7.47,8,13.86,12.86-7.42A32.09,32.09,0,0,1,424,416a31.66,31.66,0,0,1-1.29,8.49l-12.86-7.42-8,13.86,12.94,7.48A32,32,0,0,1,400,446.86Z"/><path class="cls-1" d="M480,480V336H464V288H440V196.7a55.73,55.73,0,0,0-18.06-75.94L349.62,39.94A55.93,55.93,0,0,0,249.06,25.56l-93.16,88.5a42,42,0,0,0-6.48,53.21l-43.08,43.08,11.31,11.31,42.83-42.83a41.74,41.74,0,0,0,53.06-3.22l70.37-65a54.68,54.68,0,0,0,7.39,1.11l45,50.59A55.05,55.05,0,0,0,336,168a55.62,55.62,0,0,0,8,28.7V288H320v48H304V480H160V336H144V320h16V304H143.19A40.07,40.07,0,0,0,104,272H32v32H16v16H32v16H16V480H0v16H496V480ZM48,288h56a24,24,0,0,1,22.53,16H48Zm0,32h80v16H48ZM32,480V416h80V400H32V352H144v48H128v16h16v64ZM432,168a40,40,0,1,1-40-40A40,40,0,0,1,432,168ZM296,16a40,40,0,0,1,0,80h-.09A40,40,0,0,1,296,16ZM202.7,163.85a26.17,26.17,0,0,1-35.78-38.19L240,56.22a56,56,0,0,0,27.44,47.86Zm108.34-54A56.1,56.1,0,0,0,351.11,65.6L392.66,112c-.22,0-.43,0-.66,0a56,56,0,0,0-50.56,32.09Zm49,104a55.69,55.69,0,0,0,64,0V288H360ZM336,304H448v32H336ZM320,480V352H464V480Z"/></g></g></svg>