<?xml version="1.0" encoding="utf-8"?>
<!-- Generator: Adobe Illustrator 21.0.0, SVG Export Plug-In . SVG Version: 6.00 Build 0)  -->
<svg version="1.1" id="Слой_1" xmlns="http://www.w3.org/2000/svg" xmlns:xlink="http://www.w3.org/1999/xlink" x="0px" y="0px"
	 viewBox="0 0 495.1 496" style="enable-background:new 0 0 495.1 496;" xml:space="preserve">
<style type="text/css">
	.st0{fill:#334B61;}
</style>
<path id="Слой_2" class="st0" d="M415.5,136h-40V52.7L322.9,0H119.5v136h-40c-22.1,0-40,17.9-40,40v232c0,22.1,17.9,40,40,40h80
	v32h-16v16h208v-16h-16v-32h80c22.1,0,40-17.9,40-40V176C455.5,153.9,437.6,136,415.5,136z M327.1,136c-4.4,44-43.6,76-87.6,71.6
	s-76-43.6-71.6-87.6c3.8-37.9,33.7-67.8,71.6-71.6V136H327.1z M255.5,120V48.4c37.8,3.9,67.7,33.8,71.6,71.6H255.5z M327.5,27.3
	L348.2,48h-20.7V27.3z M135.5,16h176v40.7C271.9,21.1,211,24.5,175.5,64.1s-32.2,100.6,7.4,136.1s100.6,32.2,136.1-7.4
	c32.8-36.6,32.8-92.1-0.1-128.7h40.6v272h-224L135.5,16z M79.5,152h40v200h256V152h40c13.3,0,24,10.7,24,24v208h-384V176
	C55.5,162.7,66.3,152,79.5,152C79.5,152,79.5,152,79.5,152z M319.5,480h-144v-32h144V480z M415.5,432h-336c-13.3,0-24-10.7-24-24v-8
	h384v8C439.5,421.3,428.8,432,415.5,432L415.5,432z M151.5,240h192v16h-192V240z M151.5,272h192v16h-192V272z M151.5,304h160v16
	h-160V304z M327.5,304h16v16h-16V304z M39.5,144V64h-8.5l24.5-34.2L80,64h-8.5v56h16V80h23.5L55.5,2.2L0,80h23.5v64H39.5z M495.1,56
	h-23.5V16h-16v56h8.5l-24.5,34.2L415.1,72h8.5V0h-16v56H384l55.5,77.8L495.1,56z"/>
</svg>
