<?xml version="1.0" encoding="utf-8"?>
<!-- Generator: Adobe Illustrator 21.0.0, SVG Export Plug-In . SVG Version: 6.00 Build 0)  -->
<svg version="1.1" id="Слой_1" xmlns="http://www.w3.org/2000/svg" xmlns:xlink="http://www.w3.org/1999/xlink" x="0px" y="0px"
	 viewBox="0 0 595.3 615" style="enable-background:new 0 0 595.3 615;" xml:space="preserve">
<style type="text/css">
	.st0{fill:#FFFFFF;}
	.st1{fill:#3D4A5A;}
</style>
<g id="Слой_2">
	<rect x="154.1" y="18.5" class="st0" width="232" height="407"/>
	<rect x="379.1" y="45.5" class="st0" width="38" height="53.6"/>
	<rect x="374.5" y="72.3" class="st0" width="61.7" height="361.5"/>
	<path class="st0" d="M531.9,507.9c0,15.7-12.7,28.3-28.3,28.3h-408c-15.7,0-28.3-12.7-28.3-28.3V212.6c0-15.7,12.7-28.3,28.3-28.3
		h408c15.7,0,28.3,12.7,28.3,28.3V507.9z"/>
</g>
<g id="Layer_1">
	<g>
		<g>
			<g>
				<path class="st1" d="M499.3,174.6h-48v-100L388,11.4H144v163.2H96c-26.5,0-48,21.5-48,48v278.4c0,26.5,21.5,48,48,48h96v38.4
					h-19.2v19.2h249.6v-19.2h-19.2v-38.4h96c26.5,0,48-21.5,48-48V222.6C547.3,196.2,525.7,174.6,499.3,174.6z M393.7,44.2L418.5,69
					h-24.8V44.2z M163.2,30.6h211.2v48.8c-20.4-18.3-47.3-29.6-76.8-29.6c-63.5,0-115.2,51.7-115.2,115.2
					c0,63.5,51.7,115.2,115.2,115.2S412.9,228.5,412.9,165c0-29.5-11.3-56.4-29.6-76.8h48.8v326.4H163.2V30.6z M393.2,174.6
					c-4.8,48.4-45.8,86.4-95.5,86.4c-52.9,0-96-43.1-96-96c0-49.7,38-90.7,86.4-95.5v105.1H393.2z M307.2,155.4V69.5
					c45.3,4.5,81.4,40.6,85.9,85.9H307.2z M384.1,587.5H211.2v-38.4h172.8L384.1,587.5L384.1,587.5z M528.1,501.1
					c0,15.9-12.9,28.8-28.8,28.8H96c-15.9,0-28.8-12.9-28.8-28.8v-9.6h460.9V501.1z M528.1,472.3H67.2V222.6
					c0-15.9,12.9-28.8,28.8-28.8h48v240h307.2v-240h48c15.9,0,28.8,12.9,28.8,28.8V472.3z"/>
				<rect x="182.4" y="299.4" class="st1" width="230.4" height="19.2"/>
				<rect x="182.4" y="337.8" class="st1" width="230.4" height="19.2"/>
				<rect x="182.4" y="376.2" class="st1" width="192" height="19.2"/>
				<rect x="393.7" y="376.2" class="st1" width="19.2" height="19.2"/>
				<polygon class="st1" points="48,184.2 48,88.2 37.9,88.2 67.2,47.1 96.6,88.2 86.4,88.2 86.4,155.4 105.6,155.4 105.6,107.4 
					133.9,107.4 67.2,14.1 0.5,107.4 28.8,107.4 28.8,184.2 				"/>
				<polygon class="st1" points="594.7,78.6 566.5,78.6 566.5,30.6 547.3,30.6 547.3,97.8 557.4,97.8 528.1,138.9 498.7,97.8 
					508.9,97.8 508.9,11.4 489.7,11.4 489.7,78.6 461.4,78.6 528.1,171.9 				"/>
			</g>
		</g>
	</g>
</g>
</svg>
