<svg xmlns="http://www.w3.org/2000/svg" viewBox="0 0 495.09 496"><defs><style>.cls-1{fill:#334b61;}</style></defs><title>report</title><g id="Слой_2" data-name="Слой 2"><g id="Layer_1" data-name="Layer 1"><path class="cls-1" d="M415.54,136h-40V52.69L322.86,0H119.54V136h-40a40,40,0,0,0-40,40V408a40,40,0,0,0,40,40h80v32h-16v16h208V480h-16V448h80a40,40,0,0,0,40-40V176A40,40,0,0,0,415.54,136Zm-88.41,0a80,80,0,1,1-87.59-87.59V136Zm-71.59-16V48.41A80.13,80.13,0,0,1,327.14,120Zm72-92.69L348.23,48H327.54ZM135.54,16h176V56.65A96.37,96.37,0,1,0,318.9,64h40.65V336h-224Zm-56,136h40V352h256V152h40a24,24,0,0,1,24,24V384h-384V176A24,24,0,0,1,79.54,152Zm240,328h-144V448h144Zm96-48h-336a24,24,0,0,1-24-24v-8h384v8A24,24,0,0,1,415.54,432Z"/><rect class="cls-1" x="151.54" y="240" width="192" height="16"/><rect class="cls-1" x="151.54" y="272" width="192" height="16"/><rect class="cls-1" x="151.54" y="304" width="160" height="16"/><rect class="cls-1" x="327.54" y="304" width="16" height="16"/><polygon class="cls-1" points="39.54 144 39.54 64 31.09 64 55.54 29.77 80 64 71.54 64 71.54 120 87.54 120 87.54 80 111.09 80 55.54 2.23 0 80 23.54 80 23.54 144 39.54 144"/><polygon class="cls-1" points="495.09 56 471.54 56 471.54 16 455.54 16 455.54 72 464 72 439.54 106.23 415.09 72 423.54 72 423.54 0 407.54 0 407.54 56 384 56 439.54 133.77 495.09 56"/></g></g></svg>