<?xml version="1.0" encoding="utf-8"?>
<!-- Generator: Adobe Illustrator 21.0.0, SVG Export Plug-In . SVG Version: 6.00 Build 0)  -->
<svg version="1.1" id="Слой_1" xmlns="http://www.w3.org/2000/svg" xmlns:xlink="http://www.w3.org/1999/xlink" x="0px" y="0px"
	 viewBox="0 0 496 496" style="enable-background:new 0 0 496 496;" xml:space="preserve">
<style type="text/css">
	.st0{fill:#334B61;}
</style>
<path id="Слой_2" class="st0" d="M449.5,152c4.4,12.5,18.1,19,30.6,14.6c12.5-4.4,19-18.1,14.6-30.6
	c-4.4-12.5-18.1-19-30.6-14.6c-6.8,2.4-12.2,7.8-14.6,14.6H287.6c-1.4-26.8-10.4-52.6-25.8-74.6l4.3-2c9.3,6.7,22,5.9,30.3-2
	l47.9,27.4c-0.2,1.1-0.3,2.1-0.3,3.2c0,13.3,10.7,24,24,24s24-10.7,24-24c0-2.4-0.4-4.7-1.2-7l67.9-37c11,7.3,25.9,4.3,33.3-6.7
	s4.3-25.9-6.7-33.3s-25.9-4.3-33.3,6.7c-2.6,3.9-4,8.5-4,13.3c0,2.4,0.4,4.7,1.2,7l-67.9,37c-9.3-6.2-21.6-5.1-29.6,2.5l-47.9-27.4
	c0.2-1.1,0.3-2.1,0.3-3.2c0-13.3-10.7-24-24-24s-24,10.7-24,24c0,2.1,0.3,4.1,0.9,6.1l-5.4,2.4C224.3,17.7,185.1,0,144,0
	C64.6,0,0,64.6,0,144c0,68.4,48,125.7,112,140.3V312H80v16h16v120c0,26.5,21.5,48,48,48s48-21.5,48-48V328h16v-16h-32v-27.7
	c37.8-8.7,70.5-32.3,90.7-65.4c5.9,11.8,20.3,16.5,32.1,10.5c2.3-1.2,4.4-2.7,6.2-4.5l55.2,20.7c-0.1,0.8-0.2,1.6-0.2,2.4
	c0,13.3,10.7,24,24,24s24-10.7,24-24c0-0.4-0.1-0.7-0.1-1l46.6-6.7c9,9.6,24.2,10.1,33.8,1s10.1-24.2,1-33.8
	c-9-9.6-24.2-10.1-33.8-1c-4.8,4.5-7.5,10.9-7.5,17.5c0,0.4,0.1,0.7,0.1,1l-46.6,6.7c-8.9-9.7-24-10.3-33.7-1.4
	c-0.3,0.3-0.5,0.5-0.8,0.8l-55.2-20.7c0.1-0.8,0.2-1.5,0.2-2.3c0.2-13.1-10.3-23.8-23.4-24c-2.2,0-4.5,0.3-6.6,0.9
	c3.1-10.7,5-21.7,5.6-32.9H449.5z M472,16c4.4,0,8,3.6,8,8s-3.6,8-8,8s-8-3.6-8-8S467.6,16,472,16z M368,80c4.4,0,8,3.6,8,8
	s-3.6,8-8,8s-8-3.6-8-8S363.6,80,368,80z M280,32c4.4,0,8,3.6,8,8s-3.6,8-8,8s-8-3.6-8-8S275.6,32,280,32z M472,216c4.4,0,8,3.6,8,8
	s-3.6,8-8,8s-8-3.6-8-8S467.6,216,472,216z M384,240c4.4,0,8,3.6,8,8s-3.6,8-8,8s-8-3.6-8-8S379.6,240,384,240z M472,136
	c4.4,0,8,3.6,8,8s-3.6,8-8,8s-8-3.6-8-8S467.6,136,472,136z M271.6,136h-24c-1.6-21.1-9.6-41.2-23-57.7l22.3-10.1
	C261.5,87.9,270.1,111.5,271.6,136z M150.5,136c-4.4-12.5-18.1-19-30.6-14.6c-12.5,4.4-19,18.1-14.6,30.6
	c4.4,12.5,18.1,19,30.6,14.6c6.8-2.4,12.2-7.8,14.6-14.6h81.1c-1.2,13.2-5.4,26-12.3,37.3l-20.4-4.1c-3.8-12.6-17.1-19.7-29.7-15.9
	c-12.6,3.8-19.7,17.1-15.9,29.7c3.8,12.6,17.1,19.7,29.7,15.9c6.8-2.1,12.3-7,15.1-13.6l10.6,2.1c-32.9,35.8-88.5,38.2-124.3,5.3
	S46.1,120.3,79,84.5c30.5-33.3,81.3-38,117.5-11l-6.6,3c-11-8.1-26.5-5.7-34.6,5.3c-8.1,11-5.7,26.5,5.3,34.6s26.5,5.7,34.6-5.3
	c4.5-6.1,5.9-13.9,3.9-21.2l10.2-4.7c12.7,14.1,20.5,31.9,22.2,50.8H150.5z M136,144c0,4.4-3.6,8-8,8c-4.4,0-8-3.6-8-8s3.6-8,8-8
	C132.4,136,136,139.6,136,144z M184,192c0,4.4-3.6,8-8,8s-8-3.6-8-8s3.6-8,8-8S184,187.6,184,192z M184,96c0,4.4-3.6,8-8,8
	s-8-3.6-8-8s3.6-8,8-8S184,91.6,184,96z M176,448c0,17.7-14.3,32-32,32s-32-14.3-32-32V328h64V448z M160,312h-32v-24.9
	c10.6,1.3,21.4,1.3,32,0V312z M144,272c-70.7,0.1-128.1-57.1-128.2-127.8C15.7,73.5,72.9,16.1,143.6,16c35-0.1,68.5,14.2,92.7,39.5
	l-23.5,10.7c-43-38.1-108.7-34.1-146.8,8.9s-34.1,108.7,8.9,146.8S183.6,256,221.7,213c1.7-1.9,3.3-3.9,4.9-5.9l25.6,5.1
	C228.8,249.4,187.9,272,144,272z M288,200c4.4,0,8,3.6,8,8s-3.6,8-8,8s-8-3.6-8-8S283.6,200,288,200z M260.1,197.5l-24.3-4.9
	c6.7-12.6,10.7-26.4,11.7-40.6h24C270.6,167.7,266.7,183.2,260.1,197.5z"/>
</svg>
