<?xml version="1.0" encoding="utf-8"?>
<!-- Generator: Adobe Illustrator 21.0.0, SVG Export Plug-In . SVG Version: 6.00 Build 0)  -->
<svg version="1.1" id="Слой_1" xmlns="http://www.w3.org/2000/svg" xmlns:xlink="http://www.w3.org/1999/xlink" x="0px" y="0px"
	 viewBox="0 0 595.3 611" style="enable-background:new 0 0 595.3 611;" xml:space="preserve">
<style type="text/css">
	.st0{fill:#FFFFFF;}
	.st1{fill:#3D4A5A;}
</style>
<g id="Слой_2">
	<ellipse class="st0" cx="171.6" cy="183.5" rx="162.5" ry="159"/>
	<path class="st0" d="M217.1,564.2c0,15.7-12.7,28.3-28.3,28.3h-36.3c-15.7,0-28.3-12.7-28.3-28.3V419.9c0-15.7,12.7-28.3,28.3-28.3
		h36.3c15.7,0,28.3,12.7,28.3,28.3V564.2z"/>
</g>
<g id="Layer_1">
	<g>
		<g>
			<path class="st1" d="M539.4,190.8c4,11.2,14.5,19.2,27,19.2c15.9,0,28.8-12.9,28.8-28.8c0-15.9-12.9-28.8-28.8-28.8
				c-12.5,0-23.1,8-27,19.2H345.2c-1.8-33.2-13-63.9-31-89.5l5.2-2.3c4.7,3.4,10.5,5.4,16.7,5.4c7.6,0,14.5-3,19.7-7.9l57.5,32.9
				c-0.2,1.3-0.4,2.5-0.4,3.8c0,15.9,12.9,28.8,28.8,28.8s28.8-12.9,28.8-28.8c0-2.9-0.6-5.7-1.4-8.4l81.5-44.5
				c4.6,3,10,4.8,15.9,4.8c15.9,0,28.8-12.9,28.8-28.8c0-15.9-12.9-28.8-28.8-28.8s-28.8,12.9-28.8,28.8c0,2.9,0.6,5.7,1.4,8.4
				L457.6,90c-4.6-3-10-4.8-15.9-4.8c-7.6,0-14.5,3-19.7,7.9l-57.5-32.9c0.2-1.3,0.4-2.5,0.4-3.8c0-15.9-12.9-28.8-28.8-28.8
				c-15.9,0-28.8,12.9-28.8,28.8c0,2.5,0.4,5,1.1,7.3l-6.5,2.9C270.2,31,224.1,8.4,172.8,8.4C77.5,8.4,0,85.9,0,181.2
				c0,82.1,57.6,150.8,134.4,168.4v33.3H96V402h19.2v144c0,31.8,25.8,57.6,57.6,57.6s57.6-25.8,57.6-57.6V402h19.2v-19.2h-38.4
				v-33.3c46-10.5,85-39.4,108.9-78.5c4.8,9.3,14.4,15.7,25.5,15.7c8,0,15.2-3.3,20.4-8.5l66.3,24.9c-0.1,1-0.3,1.9-0.3,2.8
				c0,15.9,12.9,28.8,28.8,28.8s28.8-12.9,28.8-28.8c0-0.4-0.1-0.8-0.1-1.3l55.9-8c5.3,5.7,12.7,9.2,21,9.2
				c15.9,0,28.8-12.9,28.8-28.8c0-15.9-12.9-28.8-28.8-28.8s-28.8,12.9-28.8,28.8c0,0.4,0.1,0.8,0.1,1.3l-55.9,8
				c-5.3-5.7-12.7-9.2-21-9.2c-8,0-15.2,3.3-20.4,8.5l-66.3-24.9c0.1-1,0.3-1.9,0.3-2.8c0-15.9-12.9-28.8-28.8-28.8
				c-2.5,0-4.9,0.4-7.2,1c3.7-12.6,5.9-25.8,6.7-39.4L539.4,190.8L539.4,190.8z M566.5,171.6c5.3,0,9.6,4.3,9.6,9.6
				c0,5.3-4.3,9.6-9.6,9.6c-5.3,0-9.6-4.3-9.6-9.6C556.9,175.9,561.2,171.6,566.5,171.6z M566.5,27.6c5.3,0,9.6,4.3,9.6,9.6
				s-4.3,9.6-9.6,9.6c-5.3,0-9.6-4.3-9.6-9.6S561.2,27.6,566.5,27.6z M441.7,104.4c5.3,0,9.6,4.3,9.6,9.6c0,5.3-4.3,9.6-9.6,9.6
				c-5.3,0-9.6-4.3-9.6-9.6C432.1,108.7,436.4,104.4,441.7,104.4z M336,46.8c5.3,0,9.6,4.3,9.6,9.6S341.3,66,336,66
				c-5.3,0-9.6-4.3-9.6-9.6S330.7,46.8,336,46.8z M566.5,267.6c5.3,0,9.6,4.3,9.6,9.6s-4.3,9.6-9.6,9.6c-5.3,0-9.6-4.3-9.6-9.6
				S561.2,267.6,566.5,267.6z M460.9,296.4c5.3,0,9.6,4.3,9.6,9.6s-4.3,9.6-9.6,9.6c-5.3,0-9.6-4.3-9.6-9.6S455.6,296.4,460.9,296.4
				z M211.2,546.1c0,21.2-17.2,38.4-38.4,38.4s-38.4-17.2-38.4-38.4V402h76.8L211.2,546.1L211.2,546.1z M153.6,382.8v-29.9
				c6.3,0.7,12.7,1.1,19.2,1.1s12.9-0.4,19.2-1.1v29.9H153.6z M172.8,334.8c-84.7,0-153.6-68.9-153.6-153.6
				c0-84.7,68.9-153.6,153.6-153.6c43.5,0,82.7,18.2,110.7,47.4l-28.2,12.8c-22-19.5-50.9-31.4-82.5-31.4
				C104,56.4,48,112.4,48,181.2C48,250,104,306,172.8,306c40.4,0,76.2-19.3,99-49.1l30.8,6.2C275.4,306.1,227.4,334.8,172.8,334.8z
				 M153.6,152.4c-15.9,0-28.8,12.9-28.8,28.8c0,15.9,12.9,28.8,28.8,28.8c12.5,0,23.1-8,27-19.2H278c-1.5,16.3-6.7,31.5-14.8,44.8
				l-24.5-4.9c-3.5-11.9-14.5-20.7-27.5-20.7c-15.9,0-28.8,12.9-28.8,28.8s12.9,28.8,28.8,28.8c11.9,0,22.1-7.2,26.5-17.6l12.7,2.5
				c-19.3,21-46.9,34.2-77.6,34.2c-58.2,0-105.6-47.4-105.6-105.6c0-58.2,47.4-105.6,105.6-105.6c23.6,0,45.4,7.9,63,21l-7.9,3.6
				c-4.7-3.4-10.5-5.4-16.7-5.4c-15.9,0-28.8,12.9-28.8,28.8c0,15.9,12.9,28.8,28.8,28.8s28.8-12.9,28.8-28.8c0-2.5-0.4-5-1.1-7.3
				l12.3-5.6c14.8,16.5,24.6,37.6,26.7,60.9h-97.3C176.7,160.5,166.1,152.4,153.6,152.4z M163.2,181.2c0,5.3-4.3,9.6-9.6,9.6
				s-9.6-4.3-9.6-9.6c0-5.3,4.3-9.6,9.6-9.6S163.2,175.9,163.2,181.2z M220.8,238.8c0,5.3-4.3,9.6-9.6,9.6s-9.6-4.3-9.6-9.6
				s4.3-9.6,9.6-9.6S220.8,233.5,220.8,238.8z M220.8,123.6c0,5.3-4.3,9.6-9.6,9.6s-9.6-4.3-9.6-9.6s4.3-9.6,9.6-9.6
				S220.8,118.3,220.8,123.6z M312.2,245.4l-29.1-5.8c7.8-14.7,12.7-31.3,14.1-48.7H326C324.7,210.2,320,228.6,312.2,245.4z
				 M297.1,171.6c-2-26.1-12-50-27.6-69.2l26.8-12.2c17,23.1,27.7,51,29.6,81.4H297.1z M345.6,248.4c5.3,0,9.6,4.3,9.6,9.6
				c0,5.3-4.3,9.6-9.6,9.6c-5.3,0-9.6-4.3-9.6-9.6C336,252.7,340.3,248.4,345.6,248.4z"/>
		</g>
	</g>
</g>
</svg>
