<svg xmlns="http://www.w3.org/2000/svg" viewBox="0 0 496 496"><defs><style>.cls-1{fill:#334b61;}</style></defs><title>research</title><g id="Слой_2" data-name="Слой 2"><g id="Layer_1" data-name="Layer 1"><path class="cls-1" d="M449.47,152a24,24,0,1,0,0-16H287.59a142.91,142.91,0,0,0-25.81-74.57l4.3-2a23.72,23.72,0,0,0,30.31-2l47.93,27.39A23.09,23.09,0,0,0,344,88a24,24,0,0,0,48,0,23.48,23.48,0,0,0-1.16-7l67.9-37A24,24,0,1,0,448,24a23.48,23.48,0,0,0,1.16,7l-67.9,37a23.79,23.79,0,0,0-29.65,2.54L303.68,43.18A24.4,24.4,0,0,0,304,40a24,24,0,0,0-48,0,23.56,23.56,0,0,0,.88,6.09l-5.38,2.44A143.55,143.55,0,0,0,144,0C64.6,0,0,64.6,0,144c0,68.39,48,125.68,112,140.29V312H80v16H96V448a48,48,0,0,0,96,0V328h16V312H176V284.29a144.28,144.28,0,0,0,90.74-65.38,23.86,23.86,0,0,0,38.26,6l55.24,20.71A23.27,23.27,0,0,0,360,248a24,24,0,0,0,48,0c0-.36-.09-.69-.1-1l46.59-6.66A23.92,23.92,0,1,0,448,224c0,.36.09.69.1,1l-46.59,6.66a23.85,23.85,0,0,0-34.51-.62l-55.24-20.71A23.27,23.27,0,0,0,312,208a23.7,23.7,0,0,0-30-23.15A143.59,143.59,0,0,0,287.59,152ZM472,16a8,8,0,1,1-8,8A8,8,0,0,1,472,16ZM368,80a8,8,0,1,1-8,8A8,8,0,0,1,368,80ZM280,32a8,8,0,1,1-8,8A8,8,0,0,1,280,32ZM472,216a8,8,0,1,1-8,8A8,8,0,0,1,472,216Zm-88,24a8,8,0,1,1-8,8A8,8,0,0,1,384,240Zm88-104a8,8,0,1,1-8,8A8,8,0,0,1,472,136Zm-200.41,0h-24a103.45,103.45,0,0,0-23-57.66L246.9,68.19A127.14,127.14,0,0,1,271.59,136Zm-121.06,0a24,24,0,1,0,0,16H231.6a87.24,87.24,0,0,1-12.3,37.3l-20.39-4.08a23.84,23.84,0,1,0-.82,16.15l10.57,2.11a88,88,0,1,1-12.17-130l-6.58,3a24.77,24.77,0,1,0,9.21,13.39l10.22-4.65A87.55,87.55,0,0,1,231.59,136ZM136,144a8,8,0,1,1-8-8A8,8,0,0,1,136,144Zm48,48a8,8,0,1,1-8-8A8,8,0,0,1,184,192Zm0-96a8,8,0,1,1-8-8A8,8,0,0,1,184,96Zm-8,352a32,32,0,0,1-64,0V328h64ZM160,312H128V287.06a136.07,136.07,0,0,0,32,0Zm-16-40A128,128,0,1,1,236.23,55.47l-23.5,10.68a104,104,0,1,0,13.78,140.9l25.63,5.13A127.91,127.91,0,0,1,144,272Zm144-72a8,8,0,1,1-8,8A8,8,0,0,1,288,200Zm-27.86-2.53-24.27-4.86A103.11,103.11,0,0,0,247.59,152h24A127,127,0,0,1,260.14,197.47Z"/></g></g></svg>