<?xml version="1.0" encoding="utf-8"?>
<!-- Generator: Adobe Illustrator 21.0.0, SVG Export Plug-In . SVG Version: 6.00 Build 0)  -->
<svg version="1.1" id="Слой_1" xmlns="http://www.w3.org/2000/svg" xmlns:xlink="http://www.w3.org/1999/xlink" x="0px" y="0px"
	 viewBox="0 0 496 496" style="enable-background:new 0 0 496 496;" xml:space="preserve">
<style type="text/css">
	.st0{fill:#334B61;}
</style>
<path id="Слой_2" class="st0" d="M363.9,134.9l8.2-13.7L328,94.7l-44.1,26.5l8.2,13.7l27.9-16.7V240h-80v80h-80v80H80v80H0v16
	h96v-80h80v-80h80v-80h80V118.1L363.9,134.9z M460.9,87.5c20-2.4,35.1-19.4,35.1-39.5V0H352v48c0.1,20.1,15.1,37.1,35.1,39.5
	c5.1,12.2,15.9,21,28.9,23.7V160h-64v16h144v-16h-64v-48.8C444.9,108.5,455.7,99.7,460.9,87.5z M480,16v32c0,10.1-6.4,19.2-16,22.5
	V16H480z M368,48V16h16v54.5C374.4,67.2,368,58.1,368,48z M400,72V16h48v56c0,13.3-10.7,24-24,24S400,85.3,400,72z M112,496h64v-64
	h-64V496z M128,448h32v32h-32V448z M192,496h64V352h-64V496z M208,368h32v112h-32V368z M272,496h64V272h-64V496z M288,288h32v192
	h-32V288z M352,496h64V192h-64V496z M368,208h32v272h-32V208z M432,496h64V192h-64V496z M448,208h32v272h-32V208z M32,264
	c17.6,0,32-14.2,32-31.9c0-10.4-5-20.1-13.5-26.1l39.3-65.5c10.1,5.2,22.1,4.5,31.6-1.7l42.5,30.3c-2.5,4.6-3.8,9.7-3.8,14.9
	c-0.1,17.7,14.2,32.1,31.8,32.2c17.7,0.1,32.1-14.2,32.2-31.8c0-9.2-3.9-18-10.8-24.1L265,63.2c17.4,4.1,34.8-6.7,38.9-24.1
	s-6.7-34.8-24.1-38.9c-17.4-4.1-34.8,6.7-38.9,24.1c-2.7,11.5,1.1,23.6,9.9,31.5L199,152.8c-8.4-2-17.2-0.4-24.4,4.4l-42.5-30.3
	c2.5-4.6,3.8-9.7,3.9-14.9c0-17.7-14.3-32-32-32s-32,14.3-32,32c0,6.4,1.9,12.7,5.5,18l-42.2,70.4c-1.1-0.2-2.2-0.3-3.3-0.3
	c-17.7,0-32,14.3-32,32S14.3,264,32,264z M272,16c8.8,0,16,7.2,16,16s-7.2,16-16,16s-16-7.2-16-16S263.2,16,272,16z M192,168
	c8.8,0,16,7.2,16,16s-7.2,16-16,16s-16-7.2-16-16S183.2,168,192,168z M104,96c8.8,0,16,7.2,16,16s-7.2,16-16,16s-16-7.2-16-16
	S95.2,96,104,96z M32,216c8.8,0,16,7.2,16,16s-7.2,16-16,16s-16-7.2-16-16S23.2,216,32,216z"/>
</svg>
