<svg xmlns="http://www.w3.org/2000/svg" viewBox="0 0 496 496"><defs><style>.cls-1{fill:#334b61;}</style></defs><title>statistics</title><g id="Слой_2" data-name="Слой 2"><g id="Layer_1" data-name="Layer 1"><polygon class="cls-1" points="363.88 134.86 372.12 121.14 328 94.67 283.88 121.14 292.12 134.86 320 118.13 320 240 240 240 240 320 160 320 160 400 80 400 80 480 0 480 0 496 96 496 96 416 176 416 176 336 256 336 256 256 336 256 336 118.13 363.88 134.86"/><path class="cls-1" d="M460.86,87.51A39.93,39.93,0,0,0,496,48V0H352V48a39.93,39.93,0,0,0,35.14,39.51A40.15,40.15,0,0,0,416,111.19V160H352v16H496V160H432V111.19A40.15,40.15,0,0,0,460.86,87.51ZM480,16V48a24,24,0,0,1-16,22.53V16ZM368,48V16h16V70.53A24,24,0,0,1,368,48Zm32,24V16h48V72a24,24,0,0,1-48,0Z"/><path class="cls-1" d="M112,496h64V432H112Zm16-48h32v32H128Z"/><path class="cls-1" d="M192,496h64V352H192Zm16-128h32V480H208Z"/><path class="cls-1" d="M272,496h64V272H272Zm16-208h32V480H288Z"/><path class="cls-1" d="M352,496h64V192H352Zm16-288h32V480H368Z"/><path class="cls-1" d="M432,496h64V192H432Zm16-288h32V480H448Z"/><path class="cls-1" d="M32,264a31.94,31.94,0,0,0,18.53-58l39.28-65.47a31.27,31.27,0,0,0,31.56-1.73l42.46,30.33A31.58,31.58,0,0,0,160,184a32,32,0,1,0,53.22-23.78L265,63.17a32.37,32.37,0,1,0-14.19-7.39L199,152.83a31.2,31.2,0,0,0-24.39,4.36l-42.46-30.33A31.58,31.58,0,0,0,136,112a32,32,0,1,0-58.49,17.93l-42.24,70.4A31.46,31.46,0,0,0,32,200a32,32,0,0,0,0,64ZM272,16a16,16,0,1,1-16,16A16,16,0,0,1,272,16ZM192,168a16,16,0,1,1-16,16A16,16,0,0,1,192,168ZM104,96a16,16,0,1,1-16,16A16,16,0,0,1,104,96ZM32,216a16,16,0,1,1-16,16A16,16,0,0,1,32,216Z"/></g></g></svg>