<?xml version="1.0" encoding="utf-8"?>
<!-- Generator: Adobe Illustrator 21.0.0, SVG Export Plug-In . SVG Version: 6.00 Build 0)  -->
<svg version="1.1" id="Слой_1" xmlns="http://www.w3.org/2000/svg" xmlns:xlink="http://www.w3.org/1999/xlink" x="0px" y="0px"
	 viewBox="0 0 595.3 620" style="enable-background:new 0 0 595.3 620;" xml:space="preserve">
<style type="text/css">
	.st0{fill:#FFFFFF;}
	.st1{fill:#3D4A5A;}
</style>
<g id="Слой_2">
	<path class="st0" d="M0,574.2c0,15.7,12.7,28.3,28.3,28.3h538.6c15.7,0,28.3-12.7,28.3-28.3V41.7c0-15.7-12.7-28.3-28.3-28.3H28.3
		C12.7,13.4,0,26.1,0,41.7V574.2z"/>
</g>
<g id="Layer_1">
	<g>
		<g>
			<g>
				<polygon class="st1" points="446.6,158.8 393.7,127 340.7,158.8 350.6,175.2 384.1,155.2 384.1,301.4 288,301.4 288,397.4 
					192,397.4 192,493.5 96,493.5 96,589.5 0,589.5 0,608.7 115.2,608.7 115.2,512.7 211.2,512.7 211.2,416.6 307.2,416.6 
					307.2,320.6 403.3,320.6 403.3,155.2 436.7,175.2 				"/>
				<path class="st1" d="M553.1,118.4c23.7-2.9,42.2-22.9,42.2-47.4V13.4h-38.4h-9.6h-76.8h-9.6h-38.4V71
					c0,24.5,18.5,44.5,42.2,47.4c6.1,14.4,19,25.2,34.6,28.4v58.6h-76.8v19.2h172.8v-19.2h-76.8v-58.6
					C534.1,143.6,547,132.8,553.1,118.4z M556.9,32.6h19.2V71c0,12.5-8.1,23.1-19.2,27V32.6z M460.9,98c-11.2-4-19.2-14.5-19.2-27
					V32.6h19.2V98z M508.9,128.6c-15.9,0-28.8-12.9-28.8-28.8V32.6h57.6v67.2C537.7,115.7,524.8,128.6,508.9,128.6z"/>
				<path class="st1" d="M134.4,608.7h76.8v-76.8h-76.8V608.7z M153.6,551.1H192v38.4h-38.4V551.1z"/>
				<path class="st1" d="M230.4,608.7h76.8V435.9h-76.8V608.7z M249.6,455.1H288v134.4h-38.4V455.1z"/>
				<path class="st1" d="M326.4,608.7h76.8V339.8h-76.8V608.7z M345.6,359h38.4v230.4h-38.4V359z"/>
				<path class="st1" d="M422.5,608.7h76.8V243.8h-76.8V608.7z M441.7,263h38.4v326.4h-38.4V263z"/>
				<path class="st1" d="M518.5,608.7h76.8V243.8h-76.8V608.7z M537.7,263h38.4v326.4h-38.4V263z"/>
				<path class="st1" d="M38.4,330.2c21.2,0,38.4-17.2,38.4-38.4c0-12.9-6.4-24.2-16.2-31.2l47.1-78.6c5.2,2.6,10.9,4.2,17,4.2
					c7.7,0,14.8-2.3,20.8-6.2l51,36.4c-2.8,5.4-4.6,11.4-4.6,17.8c0,21.2,17.2,38.4,38.4,38.4s38.4-17.2,38.4-38.4
					c0-11.4-5.1-21.5-12.9-28.5L318,89.2c2.7,0.6,5.5,1,8.4,1c21.2,0,38.4-17.2,38.4-38.4s-17.2-38.4-38.4-38.4
					c-21.2,0-38.4,17.2-38.4,38.4c0,11.4,5.1,21.5,12.9,28.5l-62.1,116.5c-2.7-0.6-5.5-1-8.4-1c-7.7,0-14.8,2.3-20.8,6.2l-51-36.4
					c2.8-5.4,4.6-11.4,4.6-17.8c0-21.2-17.2-38.4-38.4-38.4c-21.2,0-38.4,17.2-38.4,38.4c0,8,2.4,15.4,6.6,21.5l-50.7,84.5
					c-1.3-0.1-2.6-0.4-3.9-0.4C17.2,253.4,0,270.7,0,291.8S17.2,330.2,38.4,330.2z M326.4,32.6c10.6,0,19.2,8.6,19.2,19.2
					c0,10.6-8.6,19.2-19.2,19.2c-10.6,0-19.2-8.6-19.2-19.2C307.2,41.2,315.9,32.6,326.4,32.6z M230.4,215
					c10.6,0,19.2,8.6,19.2,19.2c0,10.6-8.6,19.2-19.2,19.2c-10.6,0-19.2-8.6-19.2-19.2C211.2,223.6,219.8,215,230.4,215z
					 M124.8,128.6c10.6,0,19.2,8.6,19.2,19.2c0,10.6-8.6,19.2-19.2,19.2c-10.6,0-19.2-8.6-19.2-19.2S114.2,128.6,124.8,128.6z
					 M38.4,272.6c10.6,0,19.2,8.6,19.2,19.2c0,10.6-8.6,19.2-19.2,19.2c-10.6,0-19.2-8.6-19.2-19.2
					C19.2,281.2,27.8,272.6,38.4,272.6z"/>
			</g>
		</g>
	</g>
</g>
</svg>
