<?xml version="1.0" encoding="utf-8"?>
<!-- Generator: Adobe Illustrator 21.0.2, SVG Export Plug-In . SVG Version: 6.00 Build 0)  -->
<svg version="1.1" id="Слой_2" xmlns="http://www.w3.org/2000/svg" xmlns:xlink="http://www.w3.org/1999/xlink" x="0px" y="0px"
	 viewBox="0 0 304.3 55.6" style="enable-background:new 0 0 304.3 55.6;" xml:space="preserve">
<style type="text/css">
	.st0{fill:#0E2EC6;}
</style>
<title>logo(last1)</title>
<path class="st0" d="M44,17.1L31.7,0h52.4c2.7,0,4.9,1.9,5.4,4.6c0.6,3.4,0.1,6.9-1.5,10C84.1,23.7,69.3,45,69.3,45
	s-7.4,10.6-12.2,10.6s-10.3-12-10.3-12l2-3.7c0,0,4.1,6.4,8.3,6.5c4.9,0.2,16.7-17.9,16.7-17.9s4.7-7.1,3-11.1
	C75.7,14.9,44,17.1,44,17.1z"/>
<polygon class="st0" points="31.8,3.4 3.3,3.4 0,0 29.3,0 "/>
<polygon class="st0" points="41.7,17.1 18.9,17.1 15.7,13.7 39.3,13.7 "/>
<polyline class="st0" points="10,9.1 35.9,9.1 38.3,12.5 13.2,12.5 "/>
<polyline class="st0" points="5.4,4.6 32.5,4.6 34.9,8 8.7,8 "/>
<path class="st0" d="M46.7,32.9c1.8-1.8,4.1-5.9,6.5-4.7s-0.7,6.4,1.7,7.5s5.8-3.4,5.8-3.4s3.3-5.4,4.8-4.7s-0.1,2.9-0.1,2.9
	s-1.1,2.6,0.4,3.3s3.2-0.5,3.2-0.5l2.7-2l3-4.6c0,0-1.8,2.8-3,2.4S70.2,26,71.3,25c1.1-1.1,1-2.8,0-3.9c-0.2-0.2-0.5-0.4-0.8-0.5
	c-3-1.5-9.7,9.1-11.7,8.9s0.1-4.1,0.3-5.6c0.2-1-0.4-2.1-1.4-2.4c-3.4-1.7-9.4,6.5-12.2,9.5c-0.4,0.4-1.8,2.2-1,3.1
	S45.8,33.7,46.7,32.9z"/>
<g>
	<path class="st0" d="M95.9,41.9h1.8c2.3-0.1,4.6,0.5,6.5,1.7c1.5,1.1,2.4,2.9,2.3,4.8c0,4.5-2.9,6.7-8.8,6.7h-6.2V33.6h13.5v3.8h-9
		L95.9,41.9z M95.9,51.3h1.5c1.2,0.1,2.3-0.2,3.4-0.7c0.7-0.5,1.1-1.4,1.1-2.2c0.1-0.9-0.4-1.7-1.1-2.1c-1.2-0.5-2.4-0.7-3.7-0.7
		h-1.2V51.3z"/>
	<path class="st0" d="M127.4,33.6l-6.6,15.2c-0.6,1.5-1.4,2.9-2.3,4.1c-0.7,0.8-1.6,1.4-2.6,1.8c-1.2,0.4-2.4,0.6-3.6,0.6
		c-1.2,0-2.3-0.1-3.4-0.4V51c1,0.4,2.1,0.6,3.2,0.5c0.7,0,1.4-0.2,2-0.6c0.6-0.5,1-1.2,1.3-2l-7.4-15.4h4.8l5.3,11.9h0.1l0.3-0.7
		l4.4-11.2L127.4,33.6z"/>
	<path class="st0" d="M144.9,40.3c0.1,2-0.7,4-2.2,5.3c-1.8,1.3-3.9,2-6.1,1.8h-1.9v7.6h-4.5V33.6h6.8c2.1-0.1,4.2,0.4,5.9,1.7
		C144.3,36.6,145,38.4,144.9,40.3z M134.6,43.7h1.5c1.1,0.1,2.2-0.2,3.1-0.8c0.7-0.6,1.1-1.5,1-2.4c0.1-0.9-0.2-1.7-0.9-2.4
		c-0.8-0.6-1.8-0.8-2.7-0.8h-2.1L134.6,43.7z"/>
	<path class="st0" d="M161.3,55.1h-12.3V33.6h12.3v3.7h-7.8v4.7h7.3v3.7h-7.3v5.5h7.8L161.3,55.1z"/>
	<path class="st0" d="M165.7,33.6h6.7c3,0,5.2,0.4,6.6,1.3c1.4,0.9,2.2,2.5,2.1,4.1c0,1.1-0.3,2.2-0.9,3.2c-0.6,0.8-1.4,1.3-2.4,1.5
		v0.2c1.2,0.2,2.2,0.8,2.9,1.7c0.6,1,1,2.1,0.9,3.3c0.1,1.8-0.7,3.5-2.1,4.6c-1.7,1.2-3.7,1.8-5.8,1.6h-8L165.7,33.6z M170.3,42.1
		h2.6c0.9,0.1,1.9-0.1,2.7-0.6c0.6-0.4,0.9-1.2,0.8-1.9c0.1-0.7-0.3-1.4-0.9-1.8c-0.9-0.4-1.9-0.6-2.9-0.5h-2.4V42.1z M170.3,45.7
		v5.6h3c1,0.1,2-0.2,2.8-0.7c0.6-0.6,1-1.4,0.9-2.2c0-1.8-1.3-2.7-3.8-2.7L170.3,45.7z"/>
	<path class="st0" d="M198.2,55.1h-12.3V33.6h12.3v3.7h-7.8v4.7h7.3v3.7h-7.3v5.5h7.8L198.2,55.1z"/>
	<path class="st0" d="M211.8,37.1c-1.6-0.1-3.1,0.6-4,1.9c-1,1.6-1.5,3.5-1.4,5.4c0,4.8,1.8,7.2,5.4,7.2c1.9-0.1,3.7-0.5,5.5-1.1
		v3.8c-1.9,0.8-3.9,1.1-5.9,1.1c-3.1,0-5.5-0.9-7.1-2.8c-1.7-1.9-2.5-4.6-2.5-8.1c0-2,0.4-4,1.3-5.9c0.7-1.6,2-2.9,3.5-3.8
		c1.6-0.9,3.5-1.4,5.3-1.3c2.2,0,4.3,0.5,6.3,1.5l-1.5,3.7c-0.8-0.4-1.6-0.7-2.4-1C213.4,37.3,212.6,37.1,211.8,37.1z"/>
	<path class="st0" d="M230.1,55.1h-4.5V37.4h-5.8v-3.8h16.2v3.8h-5.8L230.1,55.1z"/>
	<path class="st0" d="M256.7,55.1h-4.5v-9.2h-8.5v9.2h-4.5V33.6h4.5V42h8.5v-8.4h4.5V55.1z"/>
	<path class="st0" d="M262.1,33.6h4.1V44l-0.1,2.8l-0.2,3.1h0.1l9.9-16.3h5.4v21.4h-4V44.8c0-1.4,0.1-3.4,0.3-6.1h-0.1l-10,16.4
		h-5.5V33.6z"/>
	<path class="st0" d="M304.3,55.1h-5.2l-7.8-10.9v10.9h-4.5V33.6h4.5V44l7.7-10.4h4.8l-7.8,10.3L304.3,55.1z"/>
</g>
<g>
	<path class="st0" d="M97.4,20.9c0,0.8-0.2,1.5-0.7,2.1c-0.5,0.5-1.2,0.8-1.9,0.8c-0.7,0-1.5-0.2-2-0.8c-0.5-0.6-0.7-1.4-0.7-2.2
		c0-0.8,0.2-1.6,0.7-2.2c0.5-0.5,1.3-0.8,2-0.8c0.7,0,1.4,0.2,1.9,0.8C97.2,19.3,97.5,20.1,97.4,20.9z M92.9,20.9
		c0,0.6,0.1,1.2,0.5,1.8c0.4,0.4,0.9,0.6,1.4,0.6c0.5,0,1.1-0.2,1.4-0.6c0.4-0.5,0.5-1.1,0.5-1.8c0-0.6-0.1-1.2-0.5-1.8
		c-0.4-0.4-0.9-0.6-1.4-0.6c-0.5,0-1.1,0.2-1.4,0.6C93,19.6,92.8,20.3,92.9,20.9z"/>
	<path class="st0" d="M100.4,23.7h-0.7v-5.1h-1.8V18h4.3v0.6h-1.8V23.7z"/>
	<path class="st0" d="M107.1,23.7h-0.8l-2.6-2.9v2.9H103V18h0.7v2.8l2.5-2.8h0.8l-2.5,2.8L107.1,23.7z"/>
	<path class="st0" d="M111.4,19.7c0,0.5-0.2,1-0.6,1.3c-0.5,0.3-1.1,0.5-1.7,0.5h-0.7v2.3h-0.7V18h1.5
		C110.7,18,111.4,18.6,111.4,19.7z M108.4,20.9h0.6c0.4,0,0.9-0.1,1.3-0.3c0.3-0.2,0.4-0.6,0.4-0.9c0-0.3-0.1-0.6-0.4-0.8
		c-0.3-0.2-0.8-0.3-1.2-0.3h-0.7L108.4,20.9z"/>
	<path class="st0" d="M112.5,23.7V18h0.7v2.4h0.9c0.5,0,1.1,0.1,1.6,0.4c0.4,0.3,0.6,0.7,0.5,1.2c0,0.5-0.2,0.9-0.5,1.2
		c-0.4,0.3-1,0.5-1.5,0.4L112.5,23.7z M113.2,23.2h1c0.4,0,0.7-0.1,1-0.3c0.2-0.2,0.4-0.5,0.3-0.8c0-0.3-0.1-0.6-0.3-0.8
		c-0.3-0.2-0.7-0.3-1.1-0.2h-0.9L113.2,23.2z M117.8,23.7h-0.7V18h0.7V23.7z"/>
	<path class="st0" d="M121,23.7h-0.7v-5.1h-1.8V18h4.3v0.6H121V23.7z"/>
	<path class="st0" d="M128.6,20.9c0,0.8-0.2,1.6-0.7,2.2c-0.5,0.5-1.2,0.8-1.9,0.8c-0.7,0-1.4-0.3-1.9-0.8c-0.5-0.6-0.7-1.4-0.7-2.2
		c0-0.8,0.2-1.6,0.7-2.2c0.5-0.5,1.3-0.8,2-0.8c0.7,0,1.4,0.2,1.9,0.8C128.4,19.3,128.6,20.1,128.6,20.9z M124,20.9
		c0,0.6,0.1,1.2,0.5,1.8c0.4,0.4,0.9,0.6,1.4,0.6c0.5,0,1.1-0.2,1.4-0.6c0.4-0.5,0.5-1.1,0.5-1.8c0-0.6-0.1-1.2-0.5-1.8
		c-0.4-0.4-0.9-0.6-1.4-0.6c-0.5,0-1.1,0.2-1.4,0.6C124.1,19.6,124,20.3,124,20.9z"/>
	<path class="st0" d="M132.9,23.7h-3.2V18h3.2v0.6h-2.5v1.8h2.4V21h-2.4v2.1h2.5V23.7z"/>
	<path class="st0" d="M139.7,23.7l-0.7-1.8h-2.3l-0.7,1.8h-0.7l2.3-5.7h0.6l2.3,5.7L139.7,23.7z M138.8,21.3l-0.7-1.8
		c-0.1-0.2-0.2-0.5-0.3-0.8c-0.1,0.3-0.2,0.6-0.3,0.8l-0.7,1.8H138.8z"/>
	<path class="st0" d="M145.2,23.7h-0.8l-2.6-2.9v2.9h-0.7V18h0.7v2.8l2.6-2.8h0.8l-2.5,2.8L145.2,23.7z"/>
	<path class="st0" d="M150.2,23.1h0.7v2.1h-0.6v-1.5h-4.3V18h0.7v5.1h2.9V18h0.7L150.2,23.1z"/>
	<path class="st0" d="M151.7,18h0.6v3.2c0,0.6,0,1.1-0.1,1.6l0,0l3.2-4.8h0.7v5.7h-0.6v-3.1c0-0.5,0-1.1,0.1-1.6l0,0l-3.2,4.8h-0.7
		L151.7,18z"/>
	<path class="st0" d="M162.7,20.9c0,0.8-0.2,1.5-0.7,2.1c-0.5,0.5-1.2,0.8-1.9,0.8c-0.7,0-1.4-0.2-1.9-0.8c-0.5-0.6-0.7-1.4-0.7-2.2
		c0-0.8,0.2-1.6,0.7-2.2c0.5-0.5,1.3-0.8,2-0.8c0.7,0,1.4,0.2,1.9,0.8C162.5,19.3,162.8,20.1,162.7,20.9z M158.1,20.9
		c0,0.6,0.1,1.2,0.5,1.8c0.4,0.4,0.9,0.6,1.4,0.6c0.5,0,1.1-0.2,1.4-0.6c0.4-0.5,0.5-1.1,0.5-1.8c0-0.6-0.1-1.2-0.5-1.8
		c-0.4-0.4-0.9-0.6-1.4-0.6c-0.5,0-1.1,0.2-1.4,0.6C158.3,19.6,158.1,20.3,158.1,20.9z"/>
	<path class="st0" d="M168.2,23.7h-0.7V21h-3v2.7h-0.7V18h0.7v2.4h3V18h0.7V23.7z"/>
	<path class="st0" d="M172.9,23.7h-3.2V18h3.2v0.6h-2.5v1.8h2.4V21h-2.4v2.1h2.5V23.7z"/>
	<path class="st0" d="M177.7,19.7c0,0.5-0.2,1-0.6,1.3c-0.5,0.3-1.1,0.5-1.7,0.5h-0.7v2.3h-0.7V18h1.5C177,18,177.7,18.6,177.7,19.7
		z M174.7,20.9h0.6c0.4,0,0.9-0.1,1.3-0.3c0.3-0.2,0.4-0.6,0.4-0.9c0-0.3-0.1-0.6-0.4-0.8c-0.3-0.2-0.8-0.3-1.2-0.3h-0.7V20.9z"/>
	<path class="st0" d="M183.1,23.7h-0.7V21h-3v2.7h-0.7V18h0.7v2.4h3V18h0.7V23.7z"/>
	<path class="st0" d="M189.6,20.9c0,0.8-0.2,1.5-0.7,2.1c-0.5,0.5-1.2,0.8-1.9,0.8c-0.7,0-1.5-0.2-2-0.8c-0.5-0.6-0.7-1.4-0.7-2.2
		c0-0.8,0.2-1.6,0.7-2.2c0.5-0.5,1.3-0.8,2-0.8c0.7,0,1.4,0.2,1.9,0.8C189.4,19.3,189.7,20.1,189.6,20.9z M185.1,20.9
		c0,0.6,0.1,1.2,0.5,1.8c0.8,0.8,2,0.8,2.8,0c0,0,0,0,0,0c0.4-0.5,0.5-1.1,0.5-1.8c0-0.6-0.1-1.2-0.5-1.8c-0.4-0.4-0.9-0.6-1.4-0.6
		c-0.5,0-1.1,0.2-1.4,0.6C185.2,19.6,185,20.3,185.1,20.9L185.1,20.9z"/>
	<path class="st0" d="M194,23.7h-3.2V18h3.2v0.6h-2.5v1.8h2.4V21h-2.4v2.1h2.5V23.7z"/>
	<path class="st0" d="M202.1,20.9c0,0.8-0.2,1.6-0.7,2.2c-0.5,0.5-1.2,0.8-1.9,0.8c-0.7,0-1.4-0.2-1.9-0.8c-0.5-0.6-0.7-1.4-0.7-2.2
		c0-0.8,0.2-1.6,0.7-2.2c0.5-0.5,1.3-0.8,2-0.8c0.7,0,1.4,0.2,1.9,0.8C201.9,19.3,202.2,20.1,202.1,20.9z M197.6,20.9
		c0,0.6,0.1,1.2,0.5,1.8c0.8,0.8,2,0.8,2.8,0c0,0,0,0,0,0c0.4-0.5,0.5-1.1,0.5-1.8c0-0.6-0.1-1.2-0.5-1.8c-0.4-0.4-0.9-0.6-1.4-0.6
		c-0.5,0-1.1,0.2-1.4,0.6C197.7,19.6,197.5,20.3,197.6,20.9L197.6,20.9z"/>
	<path class="st0" d="M207,22.1c0,0.5-0.1,0.9-0.5,1.3c-0.4,0.3-1,0.4-1.5,0.4h-1.7V18h3.4v0.6H204v1.9h0.9c0.4,0,0.8,0,1.2,0.2
		c0.3,0.1,0.5,0.3,0.7,0.5C207,21.4,207,21.7,207,22.1z M204,23.2h0.9c0.4,0,0.8-0.1,1.1-0.3c0.2-0.2,0.4-0.5,0.3-0.8
		c0-0.3-0.1-0.6-0.3-0.8c-0.4-0.2-0.8-0.3-1.2-0.2H204V23.2z"/>
	<path class="st0" d="M208.1,23.7V18h0.7v5.1h2.3V18h0.7v5.1h2.3V18h0.7v5.1h0.7v2.1h-0.6v-1.5H208.1z"/>
	<path class="st0" d="M219.5,23.7h-3.2V18h3.2v0.6H217v1.8h2.4V21H217v2.1h2.5L219.5,23.7z"/>
	<path class="st0" d="M223.1,18.5c-0.6,0-1.1,0.2-1.5,0.6c-0.4,0.5-0.6,1.1-0.5,1.7c0,0.6,0.2,1.2,0.5,1.7c0.4,0.4,0.9,0.6,1.5,0.6
		c0.5,0,0.9-0.1,1.4-0.2v0.6c-0.5,0.2-1,0.2-1.5,0.2c-0.7,0-1.4-0.2-1.9-0.8c-0.5-0.6-0.7-1.4-0.7-2.2c0-0.5,0.1-1.1,0.3-1.5
		c0.2-0.4,0.6-0.8,1-1c0.4-0.2,1-0.4,1.5-0.4c0.5,0,1.1,0.1,1.6,0.3l-0.3,0.6C224.1,18.6,223.6,18.5,223.1,18.5z"/>
	<path class="st0" d="M227.4,23.7h-0.7v-5.1h-1.8V18h4.3v0.6h-1.8V23.7z"/>
	<path class="st0" d="M230,18h1.6c0.6,0,1.1,0.1,1.6,0.3c0.3,0.2,0.5,0.6,0.5,1.1c0,0.3-0.1,0.6-0.3,0.8c-0.2,0.2-0.5,0.4-0.8,0.4
		l0,0c0.9,0.1,1.3,0.6,1.3,1.4c0,0.5-0.2,0.9-0.5,1.2c-0.4,0.3-0.9,0.5-1.4,0.4h-2L230,18z M230.7,20.5h1.1c0.3,0,0.7-0.1,1-0.2
		c0.2-0.2,0.3-0.5,0.3-0.7c0-0.3-0.1-0.5-0.3-0.7c-0.3-0.2-0.7-0.2-1.1-0.2h-1L230.7,20.5z M230.7,21v2.1h1.2c0.4,0,0.7-0.1,1-0.3
		c0.2-0.2,0.4-0.5,0.4-0.8c0-0.3-0.1-0.6-0.4-0.8c-0.3-0.2-0.7-0.3-1-0.3L230.7,21z"/>
	<path class="st0" d="M240.1,20.9c0,0.8-0.2,1.6-0.7,2.2c-0.5,0.5-1.2,0.8-1.9,0.8c-0.7,0-1.4-0.2-1.9-0.8c-0.5-0.6-0.7-1.4-0.7-2.2
		c0-0.8,0.2-1.6,0.7-2.2c0.5-0.5,1.3-0.8,2-0.8c0.7,0,1.4,0.2,1.9,0.8C239.9,19.3,240.1,20.1,240.1,20.9z M235.5,20.9
		c0,0.6,0.1,1.2,0.5,1.8c0.4,0.4,0.9,0.6,1.4,0.6c0.5,0,1.1-0.2,1.4-0.6c0.4-0.5,0.5-1.1,0.5-1.8c0-0.6-0.1-1.2-0.5-1.8
		c-0.4-0.4-0.9-0.6-1.4-0.6c-0.5,0-1.1,0.2-1.4,0.6C235.6,19.6,235.5,20.3,235.5,20.9z"/>
</g>
<g>
	<path class="st0" d="M253.8,13.9c0.1,1.6-1.1,2.9-2.7,3.1l0,0c1.9,0.4,2.9,1.5,2.9,3.1c0.1,1.1-0.4,2.1-1.2,2.8
		c-1,0.7-2.3,1.1-3.5,1c-1.2,0-2.5-0.2-3.6-0.8v-0.9c0.6,0.3,1.2,0.5,1.8,0.6c0.6,0.1,1.2,0.2,1.8,0.2c1,0.1,2-0.2,2.8-0.8
		c0.7-0.5,1-1.3,1-2.1c0-0.8-0.3-1.6-1-2c-0.9-0.5-2-0.8-3-0.7h-1.9v-0.8h2c1,0.1,1.9-0.2,2.8-0.7c0.6-0.5,0.9-1.2,0.9-2
		c0-0.7-0.3-1.3-0.8-1.8c-0.6-0.5-1.4-0.7-2.1-0.7c-0.6,0-1.2,0.1-1.8,0.3c-0.6,0.2-1.2,0.6-1.8,1l-0.5-0.7c1.2-0.9,2.6-1.4,4.1-1.4
		c1-0.1,2,0.2,2.8,0.9C253.4,12.2,253.8,13,253.8,13.9z"/>
	<path class="st0" d="M263,19.2h-5.2l-1.8,4.5h-1l5.2-12.9h0.6l5.1,12.9h-1L263,19.2z M258.1,18.4h4.6l-1.7-4.6
		c-0.1-0.4-0.3-0.9-0.5-1.5c-0.1,0.5-0.3,1-0.5,1.5L258.1,18.4z"/>
	<path class="st0" d="M267.6,10.9h3.5c1.2-0.1,2.4,0.2,3.5,0.8c0.8,0.6,1.2,1.5,1.1,2.4c0,0.7-0.2,1.4-0.7,1.9c-0.5,0.6-1.2,0.9-2,1
		l0,0c0.8,0.1,1.6,0.4,2.3,1c0.5,0.5,0.8,1.3,0.7,2c0.1,1-0.4,2.1-1.2,2.7c-1,0.7-2.1,1.1-3.3,1h-3.9V10.9z M268.5,16.6h2.8
		c0.9,0.1,1.8-0.1,2.6-0.6c0.6-0.5,0.9-1.2,0.8-1.9c0.1-0.7-0.3-1.5-0.9-1.9c-0.9-0.4-1.8-0.6-2.8-0.6h-2.6V16.6z M268.5,17.4V23h3
		c2.4,0,3.6-1,3.6-2.9c0-1.8-1.3-2.6-3.8-2.6H268.5z"/>
	<path class="st0" d="M289.7,17.3c0.1,1.7-0.4,3.5-1.5,4.8c-2.3,2.3-6,2.4-8.3,0.1c0,0-0.1-0.1-0.1-0.1c-1.1-1.4-1.6-3.1-1.5-4.9
		c-0.1-1.7,0.4-3.5,1.5-4.8c1.1-1.2,2.6-1.8,4.2-1.8c1.6-0.1,3.1,0.6,4.2,1.8C289.3,13.8,289.8,15.6,289.7,17.3z M279.2,17.3
		c-0.1,1.5,0.3,3,1.2,4.3c1.9,2,5,2,7,0.1c0,0,0.1-0.1,0.1-0.1c0.9-1.2,1.3-2.8,1.2-4.3c0.1-1.5-0.3-3-1.2-4.3c-1.9-2-5-2-7-0.1
		c0,0-0.1,0.1-0.1,0.1C279.5,14.2,279.1,15.8,279.2,17.3z"/>
	<path class="st0" d="M302.1,27h-0.9v-3.3h-9.4V27H291v-4.1h0.9c1-1.8,1.8-3.7,2.3-5.7c0.6-2,1-4.1,1.1-6.3h5.5v12h1.3L302.1,27z
		 M299.8,22.9V11.7h-3.8c-0.2,2-0.5,4-1.1,6c-0.5,1.8-1.1,3.5-2,5.2L299.8,22.9z"/>
</g>
</svg>
