<svg xmlns="http://www.w3.org/2000/svg" viewBox="0 0 56 57">
	<defs>
		<style>.cls-1{fill:#97c1b6;}</style>
	</defs>
	<g id="Слой_2" data-name="Слой 2">
		<g id="Capa_1" data-name="Capa 1">
			<path class="cls-1"
			      d="M55.19,41.86l-1.44-.28a2,2,0,0,1-1.22-3.1l.91-1.24a1,1,0,0,0-.1-1.3l-2-2a1,1,0,0,0-1.27-.12l-1.22.82a2,2,0,0,1-3.06-1.33l-.23-1.51a1,1,0,0,0-1-.85H41.85a1,1,0,0,0-1,.81l-.36,1.87a2,2,0,0,1-3,1.26l-1.57-1.06a1,1,0,0,0-1.27.12l-2,2a1,1,0,0,0-.1,1.3l.91,1.24a2,2,0,0,1-1.22,3.1l-1.44.28a1,1,0,0,0-.81,1v2.77a1,1,0,0,0,.85,1l1.51.23a2,2,0,0,1,1.33,3.06l-.82,1.22A1,1,0,0,0,33,52.38l2,2a1,1,0,0,0,1.3.1l1.24-.91a2,2,0,0,1,3.1,1.22l.28,1.44a1,1,0,0,0,1,.81h2.77a1,1,0,0,0,1-.85l.16-1.06a2,2,0,0,1,3.11-1.29l.87.64a1,1,0,0,0,1.3-.1l2-2a1,1,0,0,0,.12-1.27l-.82-1.22a2,2,0,0,1,1.33-3.06l1.51-.23a1,1,0,0,0,.85-1V42.85A1,1,0,0,0,55.19,41.86ZM54,44.76l-.67.1A4,4,0,0,0,50.65,51l.36.53-.77.77-.18-.13a4,4,0,0,0-6.27,2.6l0,.22H42.67l-.12-.63a4,4,0,0,0-6.25-2.45l-.54.4L35,51.54l.36-.53a4,4,0,0,0-2.68-6.15l-.67-.1V43.67l.63-.12a4,4,0,0,0,2.45-6.25l-.4-.54.77-.77.89.6a4,4,0,0,0,6.13-2.54l.2-1.05h1.09l.1.67A4,4,0,0,0,50,36.35l.53-.36.77.77-.4.54a4,4,0,0,0,2.45,6.25l.63.12v1.09Z"/>
			<path class="cls-1" d="M43,39a5,5,0,1,0,5,5A5,5,0,0,0,43,39Zm0,8a3,3,0,1,1,3-3A3,3,0,0,1,43,47Z"/>
			<path class="cls-1" d="M27,12a1,1,0,0,0,0,2H45a1,1,0,0,0,0-2Z"/>
			<path class="cls-1" d="M46,27a1,1,0,0,0-1-1H27a1,1,0,0,0,0,2H45A1,1,0,0,0,46,27Z"/>
			<path class="cls-1"
			      d="M20.58,7.24a1,1,0,0,0-1.41.11l-6.25,7.29L9.1,11.77a1,1,0,0,0-1.2,1.6l4.57,3.43a1,1,0,0,0,1.36-.15l6.86-8A1,1,0,0,0,20.58,7.24Z"/>
			<path class="cls-1"
			      d="M20.58,21.24a1,1,0,0,0-1.41.11l-6.25,7.29L9.1,25.77a1,1,0,0,0-1.2,1.6l4.57,3.43a1,1,0,0,0,1.36-.15l6.86-8A1,1,0,0,0,20.58,21.24Z"/>
			<path class="cls-1"
			      d="M19.17,36.35l-6.25,7.29L9.1,40.77a1,1,0,0,0-1.2,1.6l4.57,3.43a1,1,0,0,0,1.36-.15l6.86-8a1,1,0,1,0-1.52-1.3Z"/>
			<path class="cls-1"
			      d="M23,52H12.18A10.19,10.19,0,0,1,2,41.82V12.18A10.19,10.19,0,0,1,12.18,2H41.82A10.19,10.19,0,0,1,52,12.18V33a1,1,0,0,0,2,0V12.18A12.19,12.19,0,0,0,41.82,0H12.18A12.19,12.19,0,0,0,0,12.18V41.82A12.19,12.19,0,0,0,12.18,54H23a1,1,0,0,0,0-2Z"/>
		</g>
	</g>
</svg>