<svg xmlns="http://www.w3.org/2000/svg" viewBox="0 0 482.46 490">
	<defs>
		<style>.cls-1{fill:#97c1b6;}</style>
	</defs>
	<g id="Слой_2" data-name="Слой 2">
		<g id="Layer_1" data-name="Layer 1">
			<path class="cls-1"
			      d="M474.92,211.08H150.77V188.46H256.31a7.54,7.54,0,0,0,7.54-7.54V7.54A7.54,7.54,0,0,0,256.31,0H30.15a7.54,7.54,0,0,0-7.54,7.54V180.92a7.54,7.54,0,0,0,7.54,7.54H135.69v22.62H7.54A7.54,7.54,0,0,0,0,218.61v30.15a7.54,7.54,0,0,0,7.54,7.54h7.54V482.46a7.54,7.54,0,0,0,15.08,0V354.31H271.38V459.85a7.54,7.54,0,0,0,7.54,7.54h6.69v15.08a7.54,7.54,0,1,0,15.08,0V467.38H437.23v15.08a7.54,7.54,0,1,0,15.08,0V467.38h7.54a7.54,7.54,0,0,0,7.54-7.54V256.31h7.54a7.54,7.54,0,0,0,7.54-7.54V218.62A7.54,7.54,0,0,0,474.92,211.08ZM37.69,173.38V150.77H180.92a7.54,7.54,0,1,0,0-15.08H37.69V15.08H248.77V135.69H218.62a7.54,7.54,0,0,0,0,15.08h30.15v22.62H37.69ZM271.38,339.23H30.15V301.54H271.38Zm0-52.77H30.15V256.31H271.38ZM452.31,452.31H286.46v-196H452.31Zm15.08-211.08H15.08V226.15H467.38v15.08Z"/>
			<path class="cls-1"
			      d="M309.08,346.77H429.69a7.54,7.54,0,0,0,7.54-7.54V278.92a7.54,7.54,0,0,0-7.54-7.54H309.08a7.54,7.54,0,0,0-7.54,7.54v60.31A7.54,7.54,0,0,0,309.08,346.77Zm7.54-60.31H422.15v45.23H316.61Z"/>
			<path class="cls-1"
			      d="M309.08,437.23H429.69a7.54,7.54,0,0,0,7.54-7.54V369.39a7.54,7.54,0,0,0-7.54-7.54H309.08a7.54,7.54,0,0,0-7.54,7.54v60.31A7.54,7.54,0,0,0,309.08,437.23Zm7.54-60.31H422.15v45.23H316.61Z"/>
			<path class="cls-1" d="M392,301.54H346.77a7.54,7.54,0,1,0,0,15.08H392a7.54,7.54,0,1,0,0-15.08Z"/>
			<path class="cls-1" d="M392,392H346.77a7.54,7.54,0,1,0,0,15.08H392A7.54,7.54,0,1,0,392,392Z"/>
			<path class="cls-1" d="M165.85,30.15H120.61a7.54,7.54,0,0,0,0,15.08h45.23a7.54,7.54,0,0,0,0-15.08Z"/>
			<path class="cls-1"
			      d="M294,158.31H452.31a7.54,7.54,0,0,0,7.54-7.54V120.62a7.54,7.54,0,0,0-7.54-7.54H437.23v-98a7.54,7.54,0,0,0-7.54-7.54H316.62a7.54,7.54,0,0,0-7.54,7.54v98H294a7.54,7.54,0,0,0-7.54,7.54v30.15A7.54,7.54,0,0,0,294,158.31ZM399.54,52.77h7.54a7.54,7.54,0,0,0,0-15.08h-7.54V22.61h22.62v90.46H399.54Zm-37.69,0h7.54a7.54,7.54,0,0,0,0-15.08h-7.54V22.61h22.62v90.46H361.84Zm-37.69,0h7.54a7.54,7.54,0,0,0,0-15.08h-7.54V22.61h22.62v90.46H324.15Zm-22.61,75.39H444.77v15.08H301.54Z"/>
		</g>
	</g>
</svg>