<svg xmlns="http://www.w3.org/2000/svg" viewBox="0 0 512 456.15">
	<defs>
		<style>.cls-1{fill:#97c1b6;}</style>
	</defs>
	<g id="Слой_2" data-name="Слой 2">
		<g id="Layer_1" data-name="Layer 1">
			<path class="cls-1"
			      d="M511.26,138c-1.71-10.12-6.3-22-12.93-33.58-6.25-10.88-15.4-22.93-25.15-30.16V34.91A35,35,0,0,0,438.28,0H122.19A35,35,0,0,0,87.28,34.91v.22H78.55A35,35,0,0,0,43.64,70v.22H34.91A35,35,0,0,0,0,105.16V421.25a35,35,0,0,0,34.91,34.91H351a35,35,0,0,0,34.91-34.91V421h8.73a35,35,0,0,0,34.91-34.91v-.22h8.73A35,35,0,0,0,473.19,351V181.92l30.18-17.33h0C507.59,162.17,514.22,155.5,511.26,138ZM368.76,421.25h0A17.78,17.78,0,0,1,351,439H34.91a17.78,17.78,0,0,1-17.76-17.76V105.16A17.78,17.78,0,0,1,34.91,87.39h8.73V386.12A35,35,0,0,0,78.55,421H368.76v.22Zm43.64-35.12h0a17.78,17.78,0,0,1-17.76,17.76H78.55a17.78,17.78,0,0,1-17.76-17.76V70A17.78,17.78,0,0,1,78.55,52.27h8.73V351a35,35,0,0,0,34.91,34.91H412.4ZM456,351a17.78,17.78,0,0,1-17.76,17.76H122.19a17.79,17.79,0,0,1-16.36-10.85c-.22-.53-.43-1.08-.6-1.63a17.67,17.67,0,0,1-.8-5.27V34.91a17.78,17.78,0,0,1,17.76-17.76H438.28A17.78,17.78,0,0,1,456,34.91V67.78c-.24,0-.48.05-.72.07-6.43.54-12.58,5.5-18,8.62l-19.51,11.2-39,22.41-5.65,3.24-1.52.87-.11.06c-7.33-5.12-14.17-7.72-20.38-7.72a19.16,19.16,0,0,0-9.68,2.5c-15,8.59-13,33.78-2.58,59.64l-13.38,7.68V155.93a8.57,8.57,0,1,0-17.15,0v94.63a8.57,8.57,0,0,0,17.15,0V231.07l37-21.27c13.2,16.93,29.19,30.34,43.1,30.34a19.16,19.16,0,0,0,9.68-2.5c10.12-5.82,11.38-18.69,10.62-28.58L456,191.77V351ZM350,123.9a2.35,2.35,0,0,1,1.14-.22c.85,0,3.36.26,7.62,2.74l0,.14c-3.68,10.82,0,23.66,4,33.87a128.12,128.12,0,0,0,19.55,33.68c6.54,8.11,15.2,17.07,25.68,19.62l.66.15.4.09c0,5.55-1.32,8.29-2.23,8.81a2.35,2.35,0,0,1-1.14.22c-6,0-19.72-9.3-33.59-29-.06-.1-.11-.2-.18-.29-2-2.86-3.94-5.83-5.77-8.85l-.17-.27q-.85-1.41-1.67-2.83l-.11-.19-.18-.32c-2.33-4.07-4.49-8.27-6.43-12.47,0-.09-.09-.17-.14-.26C345.85,143.28,346.46,125.94,350,123.9Zm2.67,71.79-27.16,15.6V196.12l20.61-11.84.16.29q1.46,2.76,3,5.47c1,1.74,2,3.48,3.13,5.22Zm107.68-26.17L412.49,197l-.21.12-.26,0h-.09l-.23-.06-.17,0-.32-.11-.12,0-.27-.11-.22-.09-.07,0a20.09,20.09,0,0,1-3-1.71l-.07,0a43.79,43.79,0,0,1-4.67-3.74l-.07-.06c-8.4-7.68-14.79-17.32-19.89-27.43-4.09-8.1-7.83-17.15-8.42-26.32a19,19,0,0,1,0-3.51,5.78,5.78,0,0,1,.41-1.68l65.88-37.83,0,.17c1.71,12.76,6.58,25,13.14,36,6.23,10.48,14.2,21,23.84,28.63l.33.27Zm34.25-20.22a7.84,7.84,0,0,1-.75-.27l-.13-.05c-5.08-2.2-9.43-7.18-13.12-11.24A94.28,94.28,0,0,1,460.93,104c-1.81-5.49-4.18-12.19-3.41-18v-.09a7.56,7.56,0,0,1,.15-.79,13.12,13.12,0,0,1,2.67,1.22c5.2,3.07,14.33,11.38,23.11,26.67C494.13,131.55,495.69,145.18,494.6,149.31Z"/>
		</g>
	</g>
</svg>