<svg id="Layer_1" data-name="Layer 1" xmlns="http://www.w3.org/2000/svg" viewBox="0 0 447.12 512">
	<defs>
		<style>.cls-1{fill:#97c1b6;}</style>
	</defs>
	<path class="cls-1" d="M96.43,446.47h-.91a10.92,10.92,0,1,0,0,21.84h.91a10.92,10.92,0,0,0,0-21.84Z"
	      transform="translate(-32.44)"/>
	<path class="cls-1"
	      d="M143.94,457.39a10.92,10.92,0,0,0,10.92,10.92H416.48a10.92,10.92,0,0,0,0-21.84H154.86A10.92,10.92,0,0,0,143.94,457.39Z"
	      transform="translate(-32.44)"/>
	<path class="cls-1"
	      d="M354.11,335.83a149.65,149.65,0,0,0,51.84-113.31V149.94C405.95,67.26,338.68,0,256,0S106.06,67.26,106.06,149.94v72.58A149.65,149.65,0,0,0,157.9,335.83C85.62,356,32.44,422.45,32.44,501.08A10.92,10.92,0,0,0,43.36,512H468.64a10.92,10.92,0,0,0,10.92-10.92C479.56,422.45,426.38,356,354.11,335.83ZM127.9,222.52V149.94a128.1,128.1,0,0,1,256.2,0v72.58a128.1,128.1,0,1,1-256.2,0ZM54.68,490.16C59.76,420,113.43,363.06,182.11,353a149.68,149.68,0,0,0,147.78,0c68.68,10.11,122.35,67,127.43,137.2Z"
	      transform="translate(-32.44)"/>
	<path class="cls-1"
	      d="M299.47,229a10.92,10.92,0,0,0,15.4,1.2l53.63-45.85a10.92,10.92,0,0,0,0-16.6l-53.62-45.85a10.92,10.92,0,1,0-14.19,16.6L344.59,176l-43.92,37.54A10.92,10.92,0,0,0,299.47,229Z"
	      transform="translate(-32.44)"/>
	<path class="cls-1"
	      d="M204.22,232.81a10.92,10.92,0,0,0,7.1-19.22L167.41,176l43.92-37.54a10.92,10.92,0,0,0-14.2-16.6L143.5,167.74a10.92,10.92,0,0,0,0,16.6l53.63,45.85A10.88,10.88,0,0,0,204.22,232.81Z"
	      transform="translate(-32.44)"/>
	<path class="cls-1"
	      d="M232.46,248.35a10.91,10.91,0,0,0,13.77-7L286.54,117.5a10.92,10.92,0,0,0-20.77-6.76L225.46,234.58A10.92,10.92,0,0,0,232.46,248.35Z"
	      transform="translate(-32.44)"/>
</svg>