<svg xmlns="http://www.w3.org/2000/svg" viewBox="0 0 437 490">
	<defs>
		<style>.cls-1{fill:#97c1b6;}</style>
	</defs>
	<g id="Слой_2" data-name="Слой 2">
		<g id="Слой_1-2" data-name="Слой 1">
			<path class="cls-1"
			      d="M276.3,365.7c41.3-68.5,93.5-164.8,93.5-214.3C369.8,67.9,301.9,0,218.4,0S67,67.9,67,151.4c0,49.5,52.2,145.8,93.5,214.3C111.5,369.4,0,382.7,0,426.8,0,470.2,113.2,490,218.5,490S437,470.2,437,426.8c-.1-44.1-111.7-57.4-160.7-61.1ZM87.9,151.4c0-72,58.6-130.6,130.5-130.6S349,79.4,349,151.4c0,62.9-100.2,220.7-130.6,267.1C188,372.1,87.9,214.3,87.9,151.4ZM218.4,469.1c-127.9,0-197.6-28-197.6-42.4,0-11.1,46-35,152-41.1,19.9,32.1,35,54.8,37,57.5,2.7,3.6,10.6,7.9,17.3,0,2.1-2.5,17.1-25.4,37-57.5,106,6.1,152,29.9,152,41.1-.1,14.5-69.8,42.4-197.7,42.4Z"/>
			<path class="cls-1"
			      d="M284.3,151.4a65.9,65.9,0,1,0-65.9,65.9A65.89,65.89,0,0,0,284.3,151.4Zm-111,0a45.1,45.1,0,1,1,45.1,45.1A45.11,45.11,0,0,1,173.3,151.4Z"/>
		</g>
	</g>
</svg>