<svg xmlns="http://www.w3.org/2000/svg" viewBox="0 0 512 512">
	<defs>
		<style>.cls-1{fill:#97c1b6;}</style>
	</defs>
	<g id="Слой_2" data-name="Слой 2">
		<g id="Layer_1" data-name="Layer 1">
			<path class="cls-1"
			      d="M454.89,430.4,446.48,427a256,256,0,0,0,21.18-315,8,8,0,0,0-1.28-1.83,256.71,256.71,0,0,0-44.6-49.23,8.08,8.08,0,0,0-10.48,12.32,240.73,240.73,0,0,1,36.59,38.9c-17.11,6.69-37.65,12.35-60.58,16.83a288.81,288.81,0,0,0-23.26-52.31c-12.33-21.39-26.51-38.6-42-51.27a238.42,238.42,0,0,1,68,31.73,8.08,8.08,0,1,0,9-13.4A256,256,0,0,0,65.62,427.14l-8.31,3.25c-3.06,1.11-29.07,11.48-29.07,44.55v29A8.09,8.09,0,0,0,36.33,512h119a8,8,0,0,0,1.15-.09,8,8,0,0,0,1.15.09h32.89a8.08,8.08,0,1,0,0-16.17H165.7V467.68C165.7,438,189,429.43,190,429.1l.37-.14,39.37-15.42.26.28,20.92,20.38a8.09,8.09,0,0,0,5.64,2.29h.13a8.07,8.07,0,0,0,5.69-2.47l20.09-20.84,39.32,15.77.38.14c1,.35,24.33,8.9,24.33,38.6v28.15H215.78a8.08,8.08,0,1,0,0,16.17H475.84a8.13,8.13,0,0,0,8.08-8.14V474.94C483.92,442,458.11,431.57,454.89,430.4Zm-24.46-9.81-8-3.2v-4.6a42.27,42.27,0,0,0,18.79-23.31A22.84,22.84,0,0,0,453.88,349V334.64a54.55,54.55,0,0,0-47.58-54c.3-5.48.52-11,.62-16.53h88.76A238.7,238.7,0,0,1,430.43,420.59Zm-29.19-18.2h-7.37A25.93,25.93,0,0,1,368,376.49V355.1h0c10.53-1.14,29.18-4.82,43.55-16.83,3.22,5.52,8.2,11.49,15.63,15v23.24A25.94,25.94,0,0,1,401.24,402.39Zm5,15.85v4.48l-9,9.35-8.46-8.24v-5.59a42.3,42.3,0,0,0,5,.31h7.37A42.09,42.09,0,0,0,406.29,418.25ZM359.9,339.46h0c-.28,0-.55,0-.83,0l-.26,0-.54.08-.36.09-.41.11-.26.09v-5.27a38.36,38.36,0,0,1,38.31-38.31h3.87a38.35,38.35,0,0,1,38.31,38.31v5.2l-.46-.13-.22-.06c-11.27-2.56-15-17.6-15-17.72a8.08,8.08,0,0,0-14.44-3C393,339.22,360.33,339.46,359.9,339.46Zm83.41,32.71V361.27a6.67,6.67,0,0,1,0,10.89Zm14.07-246.42a239.41,239.41,0,0,1,38.3,122.17H406.91c-.66-36.39-5.74-71.49-14.81-103.45C417,139.53,439.12,133.22,457.38,125.75ZM390.74,247.92H308a66,66,0,0,0-43.89-21.59V156.81c39.67-.4,78-3.69,112.06-9.43C385.07,178.29,390.08,212.43,390.74,247.92Zm-71.31,84.42a10.41,10.41,0,0,1-7.58,10v-20A10.41,10.41,0,0,1,319.43,332.33ZM264.08,16.62c32.17,3.44,62.44,27.31,86,68.12a271.13,271.13,0,0,1,21.19,47.12,716.36,716.36,0,0,1-107.15,8.79v-124ZM259,242.28a50,50,0,0,1,49.94,49.94v9.88l-.17-.12-.36-.27-.29-.19-.37-.22-.35-.18L307,301l-.43-.17-.3-.11-.5-.14-.22-.06C290.21,297,285.34,277,285.3,276.78a8.08,8.08,0,0,0-14.44-3c-18.93,26.17-60.75,26.44-61.3,26.44h0c-.28,0-.55,0-.82,0l-.25,0-.55.08-.34.09-.43.11-.38.14-.35.13-.43.21-.27.13-.42.25-.24.15-.38.28-.24.18-.22.19V292.22a50,50,0,0,1,49.94-49.94H259Zm-137.7,5.64c.66-35.49,5.67-69.63,14.6-100.55a729.66,729.66,0,0,0,112.06,9.45v69.6A66,66,0,0,0,205.06,248a8.28,8.28,0,0,0-.9-.05h-82.9Zm80.19,74.34v20.17a10.38,10.38,0,0,1,0-20.17ZM247.92,16.62v124a716.78,716.78,0,0,1-107.15-8.82A271.25,271.25,0,0,1,162,84.74C185.48,43.92,215.74,20.05,247.92,16.62Zm-58.1,8.84c-15.42,12.66-29.57,29.85-41.87,51.2A288.8,288.8,0,0,0,124.69,129c-22.9-4.47-43.41-10.12-60.49-16.78A240.63,240.63,0,0,1,189.81,25.46ZM54.69,125.79c18.22,7.44,40.38,13.73,65.21,18.66-9.07,32-14.16,67.07-14.82,103.47H16.32A238.33,238.33,0,0,1,54.69,125.79Zm52.09,292.46a42.3,42.3,0,0,0,5.05.31h7.37a42.06,42.06,0,0,0,5-.31v4.48l-9,9.35-8.46-8.24Zm12.42-15.85h-7.37a25.93,25.93,0,0,1-25.91-25.9V355.11c10.53-1.14,29.18-4.83,43.55-16.83,3.22,5.52,8.2,11.49,15.63,15v23.24A25.93,25.93,0,0,1,119.21,402.39ZM140,321.94a8.08,8.08,0,0,0-14.43-3c-14.65,20.25-47.31,20.47-47.7,20.47h0c-.28,0-.55,0-.82,0l-.25,0-.55.08-.34.09-.43.11-.25.09v-5.27a38.36,38.36,0,0,1,38.31-38.31h3.87a38.35,38.35,0,0,1,38.31,38.31v5.2h0l-.47-.13-.21-.06C143.72,337.1,140,322.05,140,321.94ZM16.32,264.08h88.76c.1,5.57.32,11.13.62,16.64A54.56,54.56,0,0,0,59,334.64v14.3A22.83,22.83,0,0,0,71.83,389.5,42.26,42.26,0,0,0,90.61,412.8v4.55l-8.83,3.46A238.6,238.6,0,0,1,16.32,264.08Zm53.44,97v11.25a6.68,6.68,0,0,1,0-11.25Zm79.77,106.59v28.15H44.42V474.94c0-22.54,17.62-29.07,18.31-29.31l.37-.14,30.49-11.94,16.2,15.78a8.08,8.08,0,0,0,5.64,2.29h.13a8.07,8.07,0,0,0,5.69-2.47l15.3-15.88,18.92,7.58A60.38,60.38,0,0,0,149.53,467.68Zm78-70.64-42.91,16.8a51.54,51.54,0,0,0-19.73,13.37l-24.47-9.81v-4.6a42.27,42.27,0,0,0,18.79-23.31A22.84,22.84,0,0,0,171.84,349V334.64a54.54,54.54,0,0,0-50-54.28c-.31-5.39-.52-10.83-.62-16.28h73.06a65.69,65.69,0,0,0-6.3,28.14v18.86a26.55,26.55,0,0,0,15.51,47.81,50.81,50.81,0,0,0,24,29.9V397Zm-66.25-24.87v-10.9a6.67,6.67,0,0,1,0,10.9ZM269.6,402.68v.52l-13.25,13.74L243.7,404.61V394.44a50.63,50.63,0,0,0,8.34.7h9.22a50.83,50.83,0,0,0,8.34-.7ZM261.26,379H252a34.46,34.46,0,0,1-34.43-34.42V316c12.9-1.19,38.41-5.67,57-22.4,3.93,7.44,10.53,16.08,21,20.57v30.38A34.46,34.46,0,0,1,261.26,379Zm86.07,48.29a51.59,51.59,0,0,0-19.75-13.41l-41.81-16.77v-8.29a50.81,50.81,0,0,0,24-29.91,26.55,26.55,0,0,0,15.29-47.71V292.22a65.68,65.68,0,0,0-6.3-28.14h72c-.11,5.47-.32,10.93-.63,16.35a54.55,54.55,0,0,0-49.06,54.21V349a22.83,22.83,0,0,0,12.81,40.55,42.26,42.26,0,0,0,18.79,23.29v4.55Zm4.46-66.17v11.25a6.68,6.68,0,0,1,0-11.25Zm116,134.74H362.64V467.68a60.37,60.37,0,0,0-5.89-26.74l18.88-7.39,16.2,15.78a8.08,8.08,0,0,0,5.64,2.29h.13a8.08,8.08,0,0,0,5.69-2.47l15.3-15.88L449,445.47l.37.14c.75.27,18.37,6.8,18.37,29.34v20.89Z"/>
		</g>
	</g>
</svg>