<svg xmlns="http://www.w3.org/2000/svg" viewBox="0 0 390.14 512">
	<defs>
		<style>.cls-1{fill:#97c1b6;}</style>
	</defs>
	<g id="Слой_2" data-name="Слой 2">
		<g id="Capa_1" data-name="Capa 1">
			<path class="cls-1"
			      d="M390.14,170.52c0-26.09-7.86-51.65-22.14-72S333.78,64,311.7,58.18a7.5,7.5,0,1,0-3.8,14.51c18.66,4.89,35.64,17.14,47.83,34.48,12.52,17.82,19.42,40.32,19.42,63.35,0,55.3-38.71,100.28-86.28,100.28-22.18,0-43.12-9.7-59.21-27.37a14.85,14.85,0,0,0-5.89-14.27l-3.13-2.32c43.51-12.93,75.72-58,75.72-111.56C296.35,51.72,250.92,0,195.07,0c-36.64,0-68.8,22.26-86.59,55.53-2.39-.19-4.8-.29-7.2-.29C45.43,55.23,0,106.95,0,170.52c0,53.57,32.27,98.72,75.85,111.6,4.09,9.22,14.12,15.33,25.43,15.33a29.87,29.87,0,0,0,15.42-4.22l4.33,3.22h0l-9.38.71a7.5,7.5,0,0,0-6,3.89l-4.35,8-4.34-8a7.5,7.5,0,0,0-6-3.89l-9.38-.71a7.5,7.5,0,1,0-1.13,15l5.31.4a17.43,17.43,0,0,0,7.94,10.13,63.1,63.1,0,0,0,4.84,16.29c2.38,5.74,4.43,10.7,4.43,21.29s-2.05,15.55-4.43,21.29a68.37,68.37,0,0,0,0,54.06c2.38,5.74,4.43,10.7,4.43,21.3s-2.05,15.55-4.43,21.3a61.89,61.89,0,0,0-5.57,27,7.5,7.5,0,1,0,15,0c0-10.59,2.05-15.55,4.43-21.3a68.38,68.38,0,0,0,0-54.06c-2.38-5.74-4.43-10.7-4.43-21.3s2.05-15.55,4.43-21.29a68.37,68.37,0,0,0,0-54.06A53.5,53.5,0,0,1,108.88,322c5.64-2.6,8-10.15,8-10.15l5.31-.4a15,15,0,0,0,7.81-27l-3.07-2.28A97.31,97.31,0,0,0,170,255.24c3.66,1.56,9.52,1.33,9.52,1.33s3.38,6.66,5.64,8.46c-.61,1.77-1.3,3.43-2,5.17a68.37,68.37,0,0,0,0,54.06c2.38,5.74,4.43,10.7,4.43,21.29s-2.05,15.55-4.43,21.29a68.37,68.37,0,0,0,0,54.06c2.38,5.74,4.43,10.7,4.43,21.3s-2.05,15.55-4.43,21.3a61.89,61.89,0,0,0-5.57,27,7.5,7.5,0,0,0,15,0c0-10.59,2.05-15.55,4.43-21.3a68.38,68.38,0,0,0,0-54.06c-2.38-5.74-4.43-10.7-4.43-21.3s2.05-15.55,4.43-21.29a68.37,68.37,0,0,0,0-54.06c-2.38-5.74-4.43-10.7-4.43-21.29s2.05-15.55,4.43-21.29c1-2.42,2.05-5,3-8,8.24-2.21,10.67-11.39,10.67-11.39s5.55.64,9.52-1.34A97.42,97.42,0,0,0,264,282.33l-2.79,2.07a15,15,0,0,0,7.81,27l5.31.4s3,8.21,8.13,10.23a63.23,63.23,0,0,0,4.82,16.19c2.38,5.74,4.43,10.7,4.43,21.29s-2.05,15.55-4.43,21.29a68.37,68.37,0,0,0,0,54.06c2.38,5.74,4.43,10.7,4.43,21.3s-2.05,15.55-4.43,21.3a61.89,61.89,0,0,0-5.57,27,7.5,7.5,0,0,0,15,0c0-10.59,2.05-15.55,4.43-21.3a68.38,68.38,0,0,0,0-54.06c-2.38-5.74-4.43-10.7-4.43-21.3s2.05-15.55,4.43-21.29a68.37,68.37,0,0,0,0-54.06,53.17,53.17,0,0,1-3.5-10.62c4.81-1.93,7.82-10.06,7.82-10.06l5.31-.4a15,15,0,0,0,7.81-27s-3.14-2.56-3.1-2.65C358.46,268.4,390.14,223.6,390.14,170.52Zm-175.33,70.7-9.38.71a7.5,7.5,0,0,0-6,3.89l-4.35,8-4.34-8a7.5,7.5,0,0,0-6-3.89l-9.39-.72h0l4.35-3.23a30.08,30.08,0,0,0,30.79,0l4.35,3.24S214.81,241.22,214.81,241.21Zm-19.74-25.65a77.11,77.11,0,0,1-42.67-13.12,7.5,7.5,0,1,0-8.29,12.5,94.35,94.35,0,0,0,25.41,11.9l-3.13,2.33a14.85,14.85,0,0,0-5.89,14.26c-16.08,17.68-37,27.37-59.21,27.37-47.58,0-86.28-45-86.28-100.28S55.61,70.24,101.84,70.24a128.42,128.42,0,0,0-8.05,45c0,26.94,8.33,53.15,23.45,73.8a7.5,7.5,0,1,0,12.1-8.86c-13.26-18.1-20.56-41.16-20.56-64.94C108.78,60,147.49,15,195.07,15s86.28,45,86.28,100.28S242.65,215.56,195.07,215.56Zm114.58,80.89-9.38.71a7.5,7.5,0,0,0-6,3.89l-4.35,8-4.34-8a7.5,7.5,0,0,0-6-3.89l-9.39-.72h0l4.33-3.21a30.17,30.17,0,0,0,30.81,0l4.35,3.24Z"/>
		</g>
	</g>
</svg>