<?xml version="1.0" encoding="utf-8"?>
<!-- Generator: Adobe Illustrator 21.1.0, SVG Export Plug-In . SVG Version: 6.00 Build 0)  -->
<svg version="1.1" id="Слой_1" xmlns="http://www.w3.org/2000/svg" xmlns:xlink="http://www.w3.org/1999/xlink" x="0px" y="0px"
	 viewBox="0 0 511.9 512" style="enable-background:new 0 0 511.9 512;" xml:space="preserve">
<style type="text/css">
	.st0{fill:#FFFFFF;}
	.st1{fill:#5E7382;}
</style>
<title>filter</title>
<g id="Слой_2">
	<polygon class="st0" points="8.2,290.1 8.2,242.8 54.5,242.8 54.5,177.1 93.1,172.3 116.2,126 88.7,90.7 139.4,45.5 168,68.7 
		219.8,45.5 219.8,10.3 289.2,10.3 289.2,48.8 337.7,68.7 376.3,46.6 418.1,90.7 396.1,123.8 414.4,180.9 453.4,177.1 457.8,188.8 
		457.8,239.5 504.1,243.9 504.1,285.8 334.4,405.8 329.5,448.8 329.5,502.8 182.4,502.8 182.4,419.1 173.5,397.6 	"/>
</g>
<g id="Layer_1">
	<path class="st1" d="M256,103.5c-58.6,0.1-106.1,47.6-106.2,106.2c0,4.5,3.7,8.2,8.2,8.2c4.5,0,8.2-3.7,8.2-8.2c0,0,0,0,0,0
		c0-49.6,40.2-89.9,89.8-89.9s89.9,40.2,89.9,89.8c0,0,0,0.1,0,0.1c0,4.5,3.7,8.2,8.2,8.2c4.5,0,8.2-3.7,8.2-8.2c0,0,0,0,0,0
		C362.1,151.1,314.6,103.6,256,103.5z"/>
	<path class="st1" d="M256,136.2c-40.6,0-73.5,32.9-73.5,73.5c0,4.5,3.7,8.2,8.2,8.2c4.5,0,8.2-3.7,8.2-8.2c0,0,0,0,0,0
		c0-31.6,25.6-57.2,57.2-57.2s57.2,25.6,57.2,57.2c0,4.5,3.7,8.2,8.2,8.2c4.5,0,8.2-3.7,8.2-8.2c0,0,0,0,0,0
		C329.5,169.1,296.6,136.3,256,136.2z"/>
	<path class="st1" d="M503.8,234.2H8.2c-4.5,0-8.2,3.6-8.2,8.1c0,0,0,0,0,0V286c0,2.7,1.4,5.3,3.6,6.8l163.7,110
		c5.1,3.9,9.7,13,9.7,19.4v81.7c0,4.5,3.7,8.2,8.2,8.2c0,0,0,0,0,0h141.6c4.5,0,8.2-3.7,8.2-8.2v0v-81.7c0-6.3,4.6-15.5,9.7-19.4
		l163.7-110c2.3-1.5,3.6-4,3.6-6.8v-43.6C512,237.9,508.3,234.2,503.8,234.2C503.8,234.2,503.8,234.2,503.8,234.2z M495.6,277.8H158
		c-4.5,0-8.2,3.7-8.2,8.2c0,4.5,3.7,8.2,8.2,8.2h319l-141.6,95.2l-0.3,0.2c-9.4,6.9-16.5,21-16.5,32.6v73.5H193.3v-73.5
		c0-11.7-7.1-25.7-16.5-32.6l-0.3-0.2L35,294.1h90.3c4.5,0,8.2-3.7,8.2-8.2c0-4.5-3.7-8.2-8.2-8.2H16.3v-27.2h479.3L495.6,277.8
		L495.6,277.8z"/>
	<path class="st1" d="M296.5,397.6h-81c-4.5,0-8.2,3.7-8.2,8.2c0,4.5,3.7,8.2,8.2,8.2h81c4.5,0,8.2-3.7,8.2-8.2
		C304.6,401.3,301,397.6,296.5,397.6C296.5,397.6,296.5,397.6,296.5,397.6z"/>
	<path class="st1" d="M458.1,168.6l-36.5-3.4c-3.9-14.5-9.7-28.4-17.3-41.4l23.4-28.2c2.7-3.2,2.5-8-0.5-11l-46.6-46.5
		c-3-3-7.8-3.2-11-0.5l-28.3,23.5c-13-7.5-26.9-13.3-41.3-17.1l-3.4-36.5c-0.4-4.2-3.9-7.4-8.1-7.4h-65.8c-4.2,0-7.7,3.2-8.1,7.4
		l-3.4,36.7c-14.4,3.9-28.3,9.7-41.2,17.2l-28.4-23.6c-3.2-2.7-8-2.5-11,0.5L84.2,84.8c-3,3-3.2,7.8-0.5,11l23.6,28.5
		c-7.5,12.9-13.2,26.7-17,41.1l-36.7,3.4c-4.2,0.4-7.4,3.9-7.4,8.1v32.8c0,4.5,3.7,8.2,8.2,8.2c4.5,0,8.2-3.7,8.2-8.2c0,0,0,0,0,0
		v-25.3l35.1-3.3c3.5-0.3,6.4-2.9,7.2-6.3c3.8-16.6,10.4-32.5,19.5-47c1.9-3,1.6-6.8-0.6-9.5L101,91.1l36-36l27.1,22.5
		c2.7,2.3,6.6,2.5,9.6,0.6c14.5-9.1,30.4-15.7,47-19.6c3.4-0.8,6-3.7,6.3-7.2l3.3-35h51l3.2,34.9c0.3,3.5,2.9,6.4,6.3,7.2
		c16.7,3.8,32.7,10.4,47.2,19.5c3,1.9,6.8,1.6,9.5-0.6l27-22.4l36,36l-22.4,26.9c-2.3,2.7-2.5,6.6-0.6,9.6
		c9.2,14.5,15.8,30.5,19.7,47.2c0.8,3.4,3.7,6,7.2,6.3l34.8,3.2v25.6c0,4.5,3.7,8.2,8.2,8.2c4.5,0,8.2-3.7,8.2-8.2v-33
		C465.5,172.5,462.3,169,458.1,168.6z"/>
</g>
</svg>
