<svg xmlns="http://www.w3.org/2000/svg" viewBox="0 0 508.82 512">
    <g>
        <g>
            <path d="M398.53,459.3a7.47,7.47,0,0,0-10.55-.56c-18.15,16.32-40.87,27.61-67.55,33.56-25.32,5.65-53,6.27-82.15,1.87-58.45-8.83-114.59-36.52-154-76a234,234,0,0,1-67.9-141.44,237.64,237.64,0,0,1,34-150.48,7.47,7.47,0,1,0-12.7-7.88,251.35,251.35,0,0,0,36,310.37c41.66,41.66,100.84,70.88,162.38,80.17A265.41,265.41,0,0,0,275.69,512a220.18,220.18,0,0,0,48-5.12c29.21-6.52,54.2-19,74.28-37A7.47,7.47,0,0,0,398.53,459.3Z"/>
            <path d="M253.62,66.71a43.93,43.93,0,1,0,0,62.16A44,44,0,0,0,253.62,66.71ZM243.06,118.3a29,29,0,1,1,0-41A29,29,0,0,1,243.06,118.3Z"/>
            <path d="M143.48,144.27a43.93,43.93,0,1,0,0,62.16A44,44,0,0,0,143.48,144.27Zm-10.57,51.6a29,29,0,1,1,0-41A29,29,0,0,1,132.91,195.86Z"/>
            <path d="M128.56,273.37a43.93,43.93,0,1,0,0,62.16A44,44,0,0,0,128.56,273.37ZM118,325a29,29,0,1,1,0-41A29,29,0,0,1,118,325Z"/>
            <path d="M351.79,372.34a43.93,43.93,0,1,0,0,62.16A44,44,0,0,0,351.79,372.34Zm-10.57,51.6a29,29,0,1,1,0-41A29,29,0,0,1,341.22,423.94Z"/>
            <path d="M500.11,55.22A29.83,29.83,0,0,0,459.29,54l-68.91,61a98.28,98.28,0,0,0-11.61-49.36c-10.14-18.85-26.89-34.83-48.46-46.2-34.2-18-79.52-23.88-124.33-16C156.21,12.14,110.45,36.2,73.67,73a255.6,255.6,0,0,0-17.26,19.1A7.47,7.47,0,1,0,68,101.53a240.24,240.24,0,0,1,16.25-18C128,39.84,176,23.85,208.57,18.14c41.61-7.29,83.44-2,114.78,14.52,18.93,10,33.54,23.83,42.26,40.06,9,16.82,11.88,35.89,8.45,56.73L312.48,184a7.46,7.46,0,0,0-.08,11.12l.2.16c.14.12.27.23.41.33l.25.17.39.26.28.15.4.2.3.13.4.15.32.1.4.11.33.07.41.06.34,0,.41,0h.64l.4,0,.29,0,.4-.07.28-.06.4-.11.27-.09.4-.15.26-.11.4-.2.23-.13.42-.27.19-.13c.2-.14.39-.3.58-.46l146.82-130a14.85,14.85,0,0,1,21,21L307.93,292,263.38,247.4l36.17-32a7.47,7.47,0,0,0-9.91-11.19l-42.12,37.29c-.16.14-.3.29-.45.44l-.1.09a7.29,7.29,0,0,0-.5.61h0l-29.28,39.63a7.47,7.47,0,0,0-10.51,0L183.9,305.07a7.47,7.47,0,0,0,0,10.53,46.84,46.84,0,0,0-23.13,12.64c-16.48,16.48-31.43,83-33.08,90.53a7.47,7.47,0,0,0,8.9,8.9c7.53-1.65,74.05-16.6,90.53-33.08a46.83,46.83,0,0,0,12.64-23.13,7.47,7.47,0,0,0,10.53,0L273,348.65a7.47,7.47,0,0,0,0-10.51l39.63-29.28h0a7.52,7.52,0,0,0,.6-.5l.15-.15c.13-.13.27-.26.39-.4l53.3-60.2c7.45,15.82,17.82,30.22,27.92,44.22,13.55,18.8,26.35,36.56,32.25,57,6.55,22.71,3.44,45.35-9.8,71.25a138.63,138.63,0,0,1-10.64,17.52A7.47,7.47,0,1,0,419,446.3a153.86,153.86,0,0,0,11.8-19.42c14.87-29.08,18.42-56,10.86-82.19-6.62-22.94-20.78-42.59-34.48-61.6-11.48-15.93-22.36-31-29.12-47.82L501.35,96A29.83,29.83,0,0,0,500.11,55.22ZM216.52,384c-8.74,8.74-44.69,19.74-71.56,26.34,6.6-26.87,17.59-62.8,26.34-71.56A32,32,0,0,1,198,329.7l27.67,27.67A32,32,0,0,1,216.52,384ZM245,355.58l-7.07-7.07-31.07-31.07h0l-7.07-7.07L212,298.15l15.34,15.34,29.07,29.08h0l.79.79Zm17.42-28.13-17.26-17.26-17.26-17.26,25.45-34.45L296.84,302Z"/>
        </g>
    </g>
</svg>