<svg xmlns="http://www.w3.org/2000/svg" viewBox="0 0 388.68 511.88">
    <g>
        <g>
            <path d="M199.62,404.82l-10.47-6a10.56,10.56,0,0,0-10.77-.32,11.94,11.94,0,0,0-5.5,10.82V419a21.26,21.26,0,0,0,9.53,17.62l10.47,6a11.66,11.66,0,0,0,5.83,1.65,9.8,9.8,0,0,0,4.93-1.32,12,12,0,0,0,5.51-10.83v-9.7A21.27,21.27,0,0,0,199.62,404.82Zm-4,23.86-6.5-3.75a8.44,8.44,0,0,1-2.8-5.95l0-6.24,6.49,3.74a8.48,8.48,0,0,1,2.8,6Zm.6,8.13,3.38-5.83h0Z"/>
            <path d="M388.59,270l0-.28a6.65,6.65,0,0,0-2.45-4.26l-.3-.23c-.17-.12-.31-.27-.49-.38l-63.39-36.6V133.74a43.77,43.77,0,0,0-20.2-34.89L153,13a19.68,19.68,0,0,0-15.44-2.41,6.8,6.8,0,0,0-1.87.57c-.07,0-.16,0-.23.07h0c-.18.09-.38.09-.56.19l-24.32,14L68,.79a6.23,6.23,0,0,0-.71-.24,6.57,6.57,0,0,0-1.4-.47,9,9,0,0,0-2.49,0A6.52,6.52,0,0,0,62,.56a6.32,6.32,0,0,0-.7.23L26.95,20.6a6.63,6.63,0,0,0-1.78,1.57c-.13.15-.24.3-.36.47a6.68,6.68,0,0,0-1,2v.07a6.73,6.73,0,0,0-.22,1.69V87.09a6.74,6.74,0,0,0,3.37,5.84l66.18,38.21v73L44.39,176a6.29,6.29,0,0,0-.71-.24,6.59,6.59,0,0,0-1.41-.47,6.15,6.15,0,0,0-3.91.48,6.29,6.29,0,0,0-.69.23L3.37,195.76a6.63,6.63,0,0,0-1.78,1.57c-.13.15-.24.3-.36.47a6.68,6.68,0,0,0-1,2v.07A6.73,6.73,0,0,0,0,201.6v60.65a6.73,6.73,0,0,0,3.37,5.83l89.76,51.82v68a43.88,43.88,0,0,0,20.2,34.89l148.58,85.81a21.64,21.64,0,0,0,10.92,3.23,15.58,15.58,0,0,0,5.4-1c.14,0,.28-.09.43-.14s.39-.1.57-.19a7.8,7.8,0,0,0,1.27-.62l1-.49.36-.32L312,491.7l1.22-.7c.15-.09.22-.24.35-.34a18.28,18.28,0,0,0,8.37-16.46V350.85l22.31,12.88h0a6.75,6.75,0,0,0,1.17.48c.15.05.3.14.45.18a6.75,6.75,0,0,0,1.16.15c.19,0,.37.07.56.07h0a6.71,6.71,0,0,0,3.36-.9l34.31-19.81c.18-.11.29-.28.45-.4a6.6,6.6,0,0,0,1.31-1.16,6.32,6.32,0,0,0,.5-.74,5.22,5.22,0,0,0,.92-2.46,6.38,6.38,0,0,0,.21-1.06V270.68A6.1,6.1,0,0,0,388.59,270ZM141,23.49c.07,0,.15,0,.23-.05a6.64,6.64,0,0,1,5.14,1.25L295,110.54a30.48,30.48,0,0,1,13.44,23.2v86.73L289,209.23V152.82a44,44,0,0,0-20.28-35L223.31,91.67l0-.11,0-.1s-.07-.07-.1-.11a6.66,6.66,0,0,0-1.42-1.61,6.55,6.55,0,0,0-.59-.45c-.13-.08-.23-.2-.36-.28L124.09,33.2Zm79.78,137.83a6.36,6.36,0,0,0,.74-.65,5.11,5.11,0,0,0,1.68-2,6.49,6.49,0,0,0,.5-1,6.58,6.58,0,0,0,.29-1.42,6.28,6.28,0,0,0,.16-.79V107.69L262,129.55a30.66,30.66,0,0,1,13.53,23.28v48.63l-43-24.82a6.34,6.34,0,0,0-.92-.31,6.57,6.57,0,0,0-1.11-.37,9.2,9.2,0,0,0-2.54,0,6.59,6.59,0,0,0-1.53.51,6.37,6.37,0,0,0-.65.22l-34.31,19.81a6.63,6.63,0,0,0-1.78,1.57c-.13.15-.24.3-.36.47a6.68,6.68,0,0,0-1,2v.07a6.74,6.74,0,0,0-.22,1.69v56.63l-82-47.36a6.71,6.71,0,0,0,.53-2.62v-70l18.67,10.78L142,178.54a6.73,6.73,0,0,0,9.16,2.47l14.27-8.13,14.28,8.25h0a6.61,6.61,0,0,0,1,.4,6.85,6.85,0,0,0,.66.27l.21,0a6.78,6.78,0,0,0,1.51.2h0a6.74,6.74,0,0,0,3.36-.9Zm-30.95,2.3v-45.1l20.84-12v45.1ZM64.61,14.42,203.91,94.84l-20.83,12L43.79,26.44ZM37.05,83.21V38.11l139.29,80.42v45.09l-7.52-4.34a6.74,6.74,0,0,0-6.7,0L150.3,166,136,141.38a6.77,6.77,0,0,0-2.46-2.45Zm4,106.37L180.32,270,159.5,282,20.21,201.6Zm146,92.08v45.1l-20.84,12v-45.1ZM13.47,258.36v-45.1l139.29,80.42v45.1l-7.52-4.34a6.75,6.75,0,0,0-6.7,0l-11.82,6.73-14.28-24.61a6.77,6.77,0,0,0-2.46-2.45ZM274.11,498l0,0-.42.22a6.53,6.53,0,0,1-5-1.26L120.05,411.16A30.56,30.56,0,0,1,106.6,388V333.31l11.82,20.38a6.75,6.75,0,0,0,9.16,2.47L141.85,348l14.28,8.25h0a6.72,6.72,0,0,0,1.17.48c.15.05.29.14.45.18a6.75,6.75,0,0,0,1.16.15c.19,0,.37.07.56.07h0a6.71,6.71,0,0,0,3.36-.9l34.32-19.81a6.29,6.29,0,0,0,.75-.66,6.59,6.59,0,0,0,.87-.77,9.29,9.29,0,0,0,1.3-2.21,6.51,6.51,0,0,0,.29-1.43,6.44,6.44,0,0,0,.16-.79V280.77l7,4,16.72,28.84a6.74,6.74,0,0,0,9.16,2.47L247.69,308,275.5,324V429L240,408.51a6.74,6.74,0,0,0-6.74,11.67l42.26,24.4V493.2A6.45,6.45,0,0,1,274.11,498Zm34.33-23.85c0,2.91-.84,4.61-1.68,5-.17.08-.27.23-.43.32s-.15,0-.22.07L289,489.47V331.82l19.47,11.24Zm32.41-128-89.78-51.83a6.75,6.75,0,0,0-6.7,0l-11.82,6.73-14.27-24.61a6.77,6.77,0,0,0-2.46-2.45l-14.26-8.23V214l139.29,80.42v51.83Zm6.74-63.5L208.31,202.3l20.85-12,139.29,80.42Zm27.61,51.46-20.87,12V294.39l20.87-12Z"/>
        </g>
    </g>
</svg>