<svg xmlns="http://www.w3.org/2000/svg" viewBox="0 0 490.44 512">
    <g>
        <g>
            <path d="M309.87,70.06H180.57a8.08,8.08,0,0,0,0,16.17h129.3a8.08,8.08,0,0,0,0-16.17Z"/>
            <path d="M288.32,102.4h-86.2a8.08,8.08,0,0,0,0,16.17h86.2a8.08,8.08,0,0,0,0-16.17Z"/>
            <path d="M277.54,253.3H212.9a8.08,8.08,0,0,0,0,16.17h64.65a8.08,8.08,0,0,0,0-16.17Z"/>
            <path d="M485.44,13.17A29.57,29.57,0,0,0,460.8,0H29.64A29.64,29.64,0,0,0,2.26,41L189.49,493.69A29.54,29.54,0,0,0,216.86,512h56.71A29.54,29.54,0,0,0,301,493.69L488.18,41A29.6,29.6,0,0,0,485.44,13.17ZM473.25,34.79,416.32,172.46H390.47a8.08,8.08,0,0,0,0,16.17h19.16L362.82,301.81H337A8.08,8.08,0,0,0,337,318h19.16L318.24,409.6H292.4a8.08,8.08,0,0,0,0,16.17h19.16L286,487.51a13.43,13.43,0,0,1-12.45,8.32H216.87a13.43,13.43,0,0,1-12.44-8.32l-25.53-61.74h83.76a8.08,8.08,0,0,0,0-16.17H172.2L134.31,318H305.56a8.08,8.08,0,0,0,0-16.17H127.62L80.81,188.63H358a8.08,8.08,0,0,0,0-16.17H74.13L17.19,34.79A13.47,13.47,0,0,1,29.64,16.17H460.8a13.47,13.47,0,0,1,12.45,18.63Z"/>
            <path d="M272.16,355.7H218.28a8.08,8.08,0,0,0,0,16.17h53.87a8.08,8.08,0,0,0,0-16.17Z"/>
            <path d="M299.09,221H191.35a8.08,8.08,0,0,0,0,16.17H299.09a8.08,8.08,0,0,0,0-16.17Z"/>
            <path d="M256,452.72H234.45a8.08,8.08,0,0,0,0,16.17H256a8.08,8.08,0,0,0,0-16.17Z"/>
        </g>
    </g>
</svg>