<svg xmlns="http://www.w3.org/2000/svg" viewBox="0 0 148.28 55.27"><defs><style>.cls-1,.cls-2{fill:#ed174f;}.cls-2{fill-rule:evenodd;}</style></defs><title>logo</title><g id="Слой_2" data-name="Слой 2"><g id="Layer_1" data-name="Layer 1"><polygon class="cls-1" points="0 19.02 8.97 27.93 26.78 10.27 17.81 1.36 0 1.36 0 19.02 0 19.02"/><polygon class="cls-1" points="17.81 54.52 26.78 45.63 8.97 27.93 0 36.85 0 54.52 17.81 54.52 17.81 54.52"/><polygon class="cls-1" points="26.78 45.63 35.76 54.52 53.46 54.52 53.46 36.71 44.62 27.93 26.78 45.63 26.78 45.63"/><polygon class="cls-1" points="44.62 27.93 53.46 19.16 53.46 1.36 35.76 1.36 26.78 10.27 44.62 27.93 44.62 27.93"/><path class="cls-2" d="M148.28,23.67,147.71,21a6.39,6.39,0,0,1-1.56.36c-1.51,0-1.93-.57-1.93-2.69V10.34H147l1.14-3h-3.93V2.7l-4.36.7V7.3h-1.72v3h1.72v9.07a5.64,5.64,0,0,0,.28,2.55c.5,1.48,2.29,2.48,4.5,2.48A10.22,10.22,0,0,0,148.28,23.67Z"/><polygon class="cls-2" points="79.4 24.03 71.5 11.84 78.61 1.35 73.19 1.35 66.68 11.69 66.68 1.35 62.04 1.35 62.04 24.03 66.68 24.03 66.68 12.19 73.59 24.03 79.4 24.03"/><path class="cls-2" d="M93.91,24V11.84a7.21,7.21,0,0,0-.29-2.41A4.23,4.23,0,0,0,89.56,7a6.16,6.16,0,0,0-3,.71,5.73,5.73,0,0,0-1.93,1.56l-.28-2.23-3.72.59V24h4.43V14.17A3.53,3.53,0,0,1,86,11.55a3.11,3.11,0,0,1,2.07-.85c1.21,0,1.57.78,1.57,2.69V24Z"/><polygon class="cls-2" points="101.69 24.03 101.69 6.95 97.26 7.66 97.26 24.03 101.69 24.03"/><path class="cls-2" d="M115.35,7.47s-.24.94-.32,1.29A5.19,5.19,0,0,0,111.25,7c-5.22,0-6.93,4.68-6.93,9.08,0,4.11,1.78,8.15,6.71,8.15a4.42,4.42,0,0,0,3.43-1.63V24c0,2.54-.21,3.75-3.5,3.75a11.77,11.77,0,0,1-5.07-1.41l-1.07,3a13.92,13.92,0,0,0,6.37,1.71c1.71,0,4.14-.29,5.71-1.63s1.71-3.76,1.71-6.1l0-16.44Zm-.89,9.89a5.53,5.53,0,0,1-.35,2.2,2.13,2.13,0,0,1-2,1.28c-2.64,0-2.93-1.84-2.93-5.32,0-3.12.57-5,2.85-5a3.26,3.26,0,0,1,2.43,1.06Z"/><path class="cls-2" d="M135.86,24V12.33a6.9,6.9,0,0,0-.43-3c-.51-1.5-2.22-2.41-4.36-2.41a6.21,6.21,0,0,0-4.79,2.06c0-.22.07-1.21.07-1.71V.92l-4.5.73V24h4.5V14.81a4.51,4.51,0,0,1,.72-3,3.76,3.76,0,0,1,2.79-1.21c1.29,0,1.71.71,1.71,2.26V24Z"/><path class="cls-2" d="M102.23,2.73A2.73,2.73,0,1,1,99.5,0,2.73,2.73,0,0,1,102.23,2.73Z"/><path class="cls-2" d="M98.84,48.9l0-5.67a8.75,8.75,0,0,0-.29-3c-.63-1.85-2.57-2.91-5.42-2.91a11.15,11.15,0,0,0-4.65,1,24.58,24.58,0,0,0-2.66,1.41l1.63,2.89a9.53,9.53,0,0,1,5-1.76c1.64,0,2,.72,2,2.57v.64h-1c-5.35,0-8.07,1.84-8.07,5.74,0,3,1.67,4.9,4.82,5.2h1.79a5.6,5.6,0,0,0,2.53-.87,6.63,6.63,0,0,0,1.08-.93A4.53,4.53,0,0,0,97.5,55l.52.26.23-.26,2.26-2.43C99,51.44,98.84,50.62,98.84,48.9Zm-6.76,3a2,2,0,0,1-1.93-2.2c0-2,1-2.73,4.07-2.73h.25v3.89A3.24,3.24,0,0,1,92.08,51.88Z"/><polygon class="cls-2" points="74.35 31.76 62 31.76 62 54.42 66.5 54.42 66.5 44.37 72.35 44.37 72.35 40.69 66.5 40.69 66.5 35.38 73.79 35.38 74.35 31.76"/><path class="cls-2" d="M84.64,37.63A3.63,3.63,0,0,0,83,37.27c-1.64,0-3.29,1.5-4,2.63l-.43-2.27L75,38.21V54.42h4.43V44.06a2.94,2.94,0,0,1,.64-2.11A2.68,2.68,0,0,1,82,41.17a3.67,3.67,0,0,1,1.51.35Z"/><polygon class="cls-2" points="119.15 32.19 119.15 54.42 123.58 54.42 123.58 31.49 119.15 32.19"/><polygon class="cls-2" points="127.86 44.72 133.29 37.7 127.93 37.7 123.58 44.93 129.33 54.42 134.51 54.42 127.86 44.72"/><path class="cls-2" d="M115.81,54.42V42.24a7.3,7.3,0,0,0-.28-2.41,4.24,4.24,0,0,0-4.07-2.41,6.27,6.27,0,0,0-3,.71,6,6,0,0,0-1.92,1.55l-.28-2.21-3.72.59V54.42h4.43V44.58a3.55,3.55,0,0,1,.94-2.63A3.13,3.13,0,0,1,110,41.1c1.21,0,1.57.78,1.57,2.69V54.42Z"/></g></g></svg>