<svg xmlns="http://www.w3.org/2000/svg" viewBox="0 0 195 47"><defs><style>.cls-1{fill:#4e5255;}.cls-2{fill:#f7ae49;}.cls-3{fill:#fff;}</style></defs><title>Ресурс 11</title><g id="Слой_2" data-name="Слой 2"><g id="Слой_1-2" data-name="Слой 1"><path class="cls-1" d="M0,0H187.78A7.22,7.22,0,0,1,195,7.22h0V47H8.21A8.21,8.21,0,0,1,0,38.79V0Z"/><path class="cls-2" d="M1.86,1.94H42.74V45.19H8.54a6.68,6.68,0,0,1-6.68-6.68h0Z"/><rect class="cls-1" x="15.19" y="8.11" width="3.72" height="17.63"/><rect class="cls-1" x="29.67" y="8.11" width="3.72" height="17.63"/><rect class="cls-1" x="17.56" y="15.65" width="13.97" height="3.02"/><rect class="cls-3" x="76.18" y="9.25" width="3.72" height="16.63"/><rect class="cls-3" x="76.18" y="8.28" width="17.63" height="3.72"/><rect class="cls-3" x="76.18" y="22.24" width="17.63" height="3.72"/><rect class="cls-3" x="76.17" y="15.38" width="12.83" height="3.72"/><polygon class="cls-3" points="122.14 25.96 117.95 25.96 110.75 12.05 110.2 12.05 102.99 25.96 98.82 25.95 107.99 8.23 112.95 8.23 122.14 25.96"/><polygon class="cls-3" points="178.57 25.96 174.38 25.96 172.26 21.87 161.54 21.87 159.42 25.96 155.25 25.95 164.42 8.23 168.63 8.23 166.65 12.05 166.63 12.05 163.47 18.15 174.52 18.15 178.57 25.96"/><polygon class="cls-3" points="150.4 25.96 146.21 25.96 139.01 12.05 138.46 12.05 131.25 25.96 127.08 25.95 136.25 8.23 141.21 8.23 150.4 25.96"/><rect class="cls-3" x="76.18" y="8.4" width="3.72" height="16.6"/><rect class="cls-3" x="76.18" y="15.53" width="12.83" height="3.72"/><polygon class="cls-3" points="122.14 26.1 117.95 26.1 110.75 12.19 110.2 12.19 102.99 26.1 98.82 26.09 107.99 8.37 112.95 8.37 122.14 26.1"/><polygon class="cls-3" points="178.57 26.1 174.38 26.1 172.26 22.01 161.54 22.01 159.42 26.1 155.25 26.09 164.42 8.37 168.63 8.37 166.65 12.19 166.63 12.19 163.47 18.29 174.52 18.29 178.57 26.1"/><polygon class="cls-3" points="150.4 26.1 146.21 26.1 139.01 12.19 138.46 12.19 131.25 26.1 127.08 26.09 136.25 8.37 141.21 8.37 150.4 26.1"/><path class="cls-3" d="M52.29,20.72A2.5,2.5,0,0,0,55,22.39c2.27,0,7.33-.09,7.33-.09a2.8,2.8,0,0,0,2-2.58H68.1v2.4s-2,3.74-4.27,3.74H51.49s-3.07-1.74-3.21-3.54c-.11-1.46,0-4.26,0-5.25s-.1-3.79,0-5.25c.14-1.8,3.21-3.54,3.21-3.54H63.84c2.27,0,4.27,3.74,4.27,3.74v2.4H64.3a2.8,2.8,0,0,0-2-2.58s-5.06-.09-7.33-.09a2.5,2.5,0,0,0-2.67,1.67Z"/><path class="cls-3" d="M52.29,20.86A2.5,2.5,0,0,0,55,22.53c2.27,0,7.33-.09,7.33-.09a2.8,2.8,0,0,0,2-2.58H68.1v2.4S66.1,26,63.83,26H51.49s-3.07-1.74-3.21-3.54c-.11-1.46,0-4.26,0-5.25s-.1-3.79,0-5.25c.14-1.8,3.21-3.54,3.21-3.54H63.84c2.27,0,4.27,3.74,4.27,3.74v2.4H64.3a2.8,2.8,0,0,0-2-2.58s-5.06-.09-7.33-.09a2.5,2.5,0,0,0-2.67,1.67Z"/><rect class="cls-1" x="39.16" y="22.06" width="3.58" height="3.58"/><path class="cls-1" d="M18.82,33.35H17v4.89H16V33.35H14.24v-.8h4.51Z"/><path class="cls-1" d="M27.64,38.25h-1V35.73H24.1v2.52h-1V32.56h1v2.37h2.54V32.56h1Z"/><path class="cls-1" d="M35.69,35.71H33.35v1.75h2.73v.79H32.36V32.56h3.69v.8h-2.7v1.57h2.34Z"/><path class="cls-3" d="M49.85,38.25V32.56h1.68a2.64,2.64,0,0,1,1.34.34,2.29,2.29,0,0,1,.9,1,3,3,0,0,1,.32,1.41v.29A3,3,0,0,1,53.77,37a2.26,2.26,0,0,1-.92.95,2.75,2.75,0,0,1-1.37.33Zm1-4.89v4.1h.64A1.48,1.48,0,0,0,52.68,37a2.12,2.12,0,0,0,.42-1.4v-.32a2.17,2.17,0,0,0-.4-1.41,1.43,1.43,0,0,0-1.17-.49Z"/><path class="cls-3" d="M63.08,35.71H60.74v1.75h2.73v.79H59.75V32.56h3.69v.8h-2.7v1.57h2.34Z"/><path class="cls-3" d="M73.79,38.25h-1l-2.54-4v4h-1V32.56h1l2.54,4.05V32.56h1Z"/><path class="cls-3" d="M82.83,33.35H81.06v4.89h-1V33.35H78.3v-.8h4.51Z"/><path class="cls-3" d="M90.33,36.92h-2.2l-.46,1.32h-1l2.15-5.69h.89l2.15,5.69h-1Zm-1.93-.8H90l-.82-2.36Z"/><path class="cls-3" d="M98,37.46h2.58v.79H97V32.56h1Z"/><path class="cls-3" d="M116.85,36.39a2.06,2.06,0,0,1-.67,1.42,2.29,2.29,0,0,1-1.56.51,2.22,2.22,0,0,1-1.2-.32,2.12,2.12,0,0,1-.8-.92,3.3,3.3,0,0,1-.29-1.38v-.53a3.33,3.33,0,0,1,.29-1.42,2.15,2.15,0,0,1,.82-.95,2.28,2.28,0,0,1,1.23-.33,2.2,2.2,0,0,1,1.52.51,2.13,2.13,0,0,1,.67,1.44h-1a1.4,1.4,0,0,0-.36-.88,1.18,1.18,0,0,0-.84-.27,1.16,1.16,0,0,0-1,.47,2.36,2.36,0,0,0-.35,1.38v.5a2.5,2.5,0,0,0,.33,1.41,1.09,1.09,0,0,0,1,.48,1.28,1.28,0,0,0,.88-.26,1.36,1.36,0,0,0,.37-.87Z"/><path class="cls-3" d="M129,35.55a3.49,3.49,0,0,1-.29,1.47,2.18,2.18,0,0,1-.83,1,2.42,2.42,0,0,1-2.47,0,2.22,2.22,0,0,1-.84-1,3.39,3.39,0,0,1-.3-1.44v-.32a3.47,3.47,0,0,1,.29-1.47,2.21,2.21,0,0,1,.83-1,2.43,2.43,0,0,1,2.46,0,2.19,2.19,0,0,1,.83,1,3.46,3.46,0,0,1,.3,1.46Zm-1-.3a2.49,2.49,0,0,0-.36-1.45,1.26,1.26,0,0,0-2,0,2.43,2.43,0,0,0-.37,1.42v.33a2.47,2.47,0,0,0,.37,1.45,1.18,1.18,0,0,0,1,.51,1.16,1.16,0,0,0,1-.5,2.52,2.52,0,0,0,.35-1.46Z"/><path class="cls-3" d="M136.62,32.56l1.64,4.36,1.64-4.36h1.28v5.69h-1V36.38l.1-2.51-1.68,4.38h-.71l-1.68-4.38.1,2.5v1.88h-1V32.56Z"/><path class="cls-3" d="M147.85,36.14v2.11h-1V32.56H149a2.2,2.2,0,0,1,1.51.5,1.67,1.67,0,0,1,.56,1.31,1.62,1.62,0,0,1-.55,1.3,2.31,2.31,0,0,1-1.54.46Zm0-.8H149a1.17,1.17,0,0,0,.8-.25.91.91,0,0,0,.28-.72,1,1,0,0,0-.28-.74,1.08,1.08,0,0,0-.77-.28h-1.21Z"/><path class="cls-3" d="M158.82,36.92h-2.2l-.46,1.32h-1l2.15-5.69h.89l2.15,5.69h-1Zm-1.93-.8h1.65l-.82-2.36Z"/><path class="cls-3" d="M170.31,38.25h-1l-2.54-4v4h-1V32.56h1l2.54,4.05V32.56h1Z"/><path class="cls-3" d="M177.91,35.25l1.31-2.7h1.09l-1.91,3.59v2.09h-1V36.14l-1.91-3.59h1.1Z"/></g></g></svg>